G04*
G04 #@! TF.GenerationSoftware,Altium Limited,Altium Designer,23.10.1 (27)*
G04*
G04 Layer_Physical_Order=3*
G04 Layer_Color=16440176*
%FSLAX25Y25*%
%MOIN*%
G70*
G04*
G04 #@! TF.SameCoordinates,25415466-D0CE-43B0-AC23-F92A6D1D0972*
G04*
G04*
G04 #@! TF.FilePolarity,Positive*
G04*
G01*
G75*
%ADD10C,0.01000*%
%ADD15C,0.00800*%
%ADD100C,0.06000*%
%ADD106C,0.02756*%
G36*
X393701Y0D02*
X0D01*
Y462598D01*
X393701D01*
Y0D01*
D02*
G37*
%LPC*%
G36*
X280512Y459608D02*
X279248Y459442D01*
X278070Y458954D01*
X277059Y458178D01*
X276283Y457166D01*
X275795Y455988D01*
X275628Y454724D01*
X275795Y453461D01*
X276283Y452283D01*
X277059Y451271D01*
X278070Y450495D01*
X279248Y450007D01*
X280512Y449841D01*
X281776Y450007D01*
X282954Y450495D01*
X283965Y451271D01*
X284741Y452283D01*
X285229Y453461D01*
X285395Y454724D01*
X285229Y455988D01*
X284741Y457166D01*
X283965Y458178D01*
X282954Y458954D01*
X281776Y459442D01*
X280512Y459608D01*
D02*
G37*
G36*
X229331D02*
X228067Y459442D01*
X226889Y458954D01*
X225878Y458178D01*
X225101Y457166D01*
X224614Y455988D01*
X224447Y454724D01*
X224614Y453461D01*
X225101Y452283D01*
X225878Y451271D01*
X226889Y450495D01*
X228067Y450007D01*
X229331Y449841D01*
X230595Y450007D01*
X231772Y450495D01*
X232784Y451271D01*
X233560Y452283D01*
X234048Y453461D01*
X234214Y454724D01*
X234048Y455988D01*
X233560Y457166D01*
X232784Y458178D01*
X231772Y458954D01*
X230595Y459442D01*
X229331Y459608D01*
D02*
G37*
G36*
X116000Y453193D02*
X115070Y453070D01*
X114204Y452712D01*
X113459Y452141D01*
X112888Y451397D01*
X112530Y450530D01*
X112407Y449600D01*
X112530Y448670D01*
X112888Y447803D01*
X113459Y447059D01*
X114204Y446488D01*
X115070Y446130D01*
X116000Y446007D01*
X116930Y446130D01*
X117797Y446488D01*
X118541Y447059D01*
X119112Y447803D01*
X119471Y448670D01*
X119593Y449600D01*
X119471Y450530D01*
X119112Y451397D01*
X118541Y452141D01*
X117797Y452712D01*
X116930Y453070D01*
X116000Y453193D01*
D02*
G37*
G36*
X79870Y453406D02*
X78701Y453291D01*
X77577Y452950D01*
X76541Y452396D01*
X75633Y451651D01*
X74887Y450743D01*
X74334Y449707D01*
X73993Y448583D01*
X73877Y447413D01*
X73993Y446244D01*
X74334Y445120D01*
X74887Y444084D01*
X75633Y443176D01*
X75896Y442960D01*
X75226Y441958D01*
X74288Y442459D01*
X72856Y442893D01*
X71366Y443040D01*
X69877Y442893D01*
X68445Y442459D01*
X67125Y441753D01*
X65968Y440804D01*
X65018Y439647D01*
X64313Y438327D01*
X63879Y436895D01*
X63732Y435406D01*
X63879Y433916D01*
X64313Y432484D01*
X65018Y431164D01*
X65968Y430007D01*
X67125Y429058D01*
X68445Y428352D01*
X69877Y427918D01*
X71366Y427771D01*
X72856Y427918D01*
X74288Y428352D01*
X75608Y429058D01*
X76765Y430007D01*
X77714Y431164D01*
X78420Y432484D01*
X78854Y433916D01*
X79001Y435406D01*
X78854Y436895D01*
X78420Y438327D01*
X77714Y439647D01*
X76765Y440804D01*
X76253Y441224D01*
X76923Y442227D01*
X77577Y441877D01*
X78701Y441536D01*
X79870Y441421D01*
X81039Y441536D01*
X82163Y441877D01*
X83199Y442431D01*
X84107Y443176D01*
X84853Y444084D01*
X85407Y445120D01*
X85747Y446244D01*
X85863Y447413D01*
X85747Y448583D01*
X85407Y449707D01*
X84853Y450743D01*
X84107Y451651D01*
X83199Y452396D01*
X82163Y452950D01*
X81039Y453291D01*
X79870Y453406D01*
D02*
G37*
G36*
X129400Y450558D02*
X128136Y450392D01*
X126958Y449904D01*
X125947Y449128D01*
X125171Y448117D01*
X124683Y446939D01*
X124516Y445675D01*
Y442525D01*
X124683Y441261D01*
X125171Y440083D01*
X125947Y439072D01*
X126958Y438296D01*
X128136Y437808D01*
X129400Y437642D01*
X130664Y437808D01*
X131842Y438296D01*
X132853Y439072D01*
X133629Y440083D01*
X134117Y441261D01*
X134283Y442525D01*
Y445675D01*
X134117Y446939D01*
X133629Y448117D01*
X132853Y449128D01*
X131842Y449904D01*
X130664Y450392D01*
X129400Y450558D01*
D02*
G37*
G36*
X102600D02*
X101336Y450392D01*
X100158Y449904D01*
X99147Y449128D01*
X98371Y448117D01*
X97883Y446939D01*
X97716Y445675D01*
Y442525D01*
X97883Y441261D01*
X98371Y440083D01*
X99147Y439072D01*
X100158Y438296D01*
X101336Y437808D01*
X102600Y437642D01*
X103864Y437808D01*
X105042Y438296D01*
X106053Y439072D01*
X106829Y440083D01*
X107317Y441261D01*
X107483Y442525D01*
Y445675D01*
X107317Y446939D01*
X106829Y448117D01*
X106053Y449128D01*
X105042Y449904D01*
X103864Y450392D01*
X102600Y450558D01*
D02*
G37*
G36*
X183315Y454093D02*
X181582Y453956D01*
X179892Y453550D01*
X178286Y452885D01*
X176804Y451977D01*
X175483Y450848D01*
X174354Y449527D01*
X173446Y448044D01*
X172780Y446439D01*
X172375Y444749D01*
X172238Y443016D01*
X172375Y441283D01*
X172780Y439593D01*
X173446Y437987D01*
X174354Y436505D01*
X175483Y435183D01*
X176804Y434055D01*
X178286Y433146D01*
X179892Y432481D01*
X181582Y432076D01*
X183315Y431939D01*
X185048Y432076D01*
X186738Y432481D01*
X188344Y433146D01*
X189826Y434055D01*
X191147Y435183D01*
X192276Y436505D01*
X193184Y437987D01*
X193850Y439593D01*
X194255Y441283D01*
X194392Y443016D01*
X194255Y444749D01*
X193850Y446439D01*
X193184Y448044D01*
X192276Y449527D01*
X191147Y450848D01*
X189826Y451977D01*
X188344Y452885D01*
X186738Y453550D01*
X185048Y453956D01*
X183315Y454093D01*
D02*
G37*
G36*
X17862Y453406D02*
X16693Y453291D01*
X15569Y452950D01*
X14533Y452396D01*
X13625Y451651D01*
X12879Y450743D01*
X12326Y449707D01*
X11985Y448583D01*
X11869Y447413D01*
X11985Y446244D01*
X12326Y445120D01*
X12879Y444084D01*
X13625Y443176D01*
X14533Y442431D01*
X15569Y441877D01*
X16693Y441536D01*
X17862Y441421D01*
X19031Y441536D01*
X20155Y441877D01*
X20810Y442227D01*
X21480Y441224D01*
X20968Y440804D01*
X20018Y439647D01*
X19313Y438327D01*
X18879Y436895D01*
X18732Y435406D01*
X18879Y433916D01*
X19313Y432484D01*
X20018Y431164D01*
X20968Y430007D01*
X22125Y429058D01*
X23445Y428352D01*
X24877Y427918D01*
X26366Y427771D01*
X27856Y427918D01*
X29288Y428352D01*
X30608Y429058D01*
X31765Y430007D01*
X32714Y431164D01*
X33419Y432484D01*
X33854Y433916D01*
X34001Y435406D01*
X33854Y436895D01*
X33419Y438327D01*
X32714Y439647D01*
X31765Y440804D01*
X30608Y441753D01*
X29288Y442459D01*
X27856Y442893D01*
X26366Y443040D01*
X24877Y442893D01*
X23445Y442459D01*
X22506Y441957D01*
X21836Y442960D01*
X22100Y443176D01*
X22845Y444084D01*
X23399Y445120D01*
X23740Y446244D01*
X23855Y447413D01*
X23740Y448583D01*
X23399Y449707D01*
X22845Y450743D01*
X22100Y451651D01*
X21192Y452396D01*
X20155Y452950D01*
X19031Y453291D01*
X17862Y453406D01*
D02*
G37*
G36*
X116000Y425593D02*
X115070Y425470D01*
X114204Y425112D01*
X113459Y424541D01*
X112888Y423797D01*
X112530Y422930D01*
X112407Y422000D01*
X112530Y421070D01*
X112888Y420203D01*
X113459Y419459D01*
X114204Y418888D01*
X115070Y418530D01*
X116000Y418407D01*
X116930Y418530D01*
X117797Y418888D01*
X118541Y419459D01*
X119112Y420203D01*
X119471Y421070D01*
X119593Y422000D01*
X119471Y422930D01*
X119112Y423797D01*
X118541Y424541D01*
X117797Y425112D01*
X116930Y425470D01*
X116000Y425593D01*
D02*
G37*
G36*
X268701Y421901D02*
X267424Y421775D01*
X266196Y421402D01*
X265064Y420797D01*
X264072Y419983D01*
X263258Y418991D01*
X262653Y417859D01*
X262438Y417152D01*
X261184D01*
X260969Y417859D01*
X260364Y418991D01*
X259550Y419983D01*
X258558Y420797D01*
X257426Y421402D01*
X256198Y421775D01*
X254921Y421901D01*
X253644Y421775D01*
X252416Y421402D01*
X251284Y420797D01*
X250292Y419983D01*
X249478Y418991D01*
X248873Y417859D01*
X248658Y417152D01*
X247404D01*
X247190Y417859D01*
X246585Y418991D01*
X245771Y419983D01*
X244779Y420797D01*
X243647Y421402D01*
X242419Y421775D01*
X241142Y421901D01*
X239865Y421775D01*
X238636Y421402D01*
X237505Y420797D01*
X236513Y419983D01*
X235699Y418991D01*
X235094Y417859D01*
X234721Y416631D01*
X234595Y415354D01*
X234721Y414077D01*
X235094Y412849D01*
X235699Y411717D01*
X236513Y410725D01*
X237505Y409911D01*
X238636Y409306D01*
X239865Y408933D01*
X241142Y408808D01*
X242419Y408933D01*
X243647Y409306D01*
X244779Y409911D01*
X245771Y410725D01*
X246585Y411717D01*
X247190Y412849D01*
X247404Y413556D01*
X248658D01*
X248873Y412849D01*
X249478Y411717D01*
X250292Y410725D01*
X251284Y409911D01*
X252416Y409306D01*
X253644Y408933D01*
X254921Y408808D01*
X256198Y408933D01*
X257426Y409306D01*
X258558Y409911D01*
X259550Y410725D01*
X260364Y411717D01*
X260969Y412849D01*
X261184Y413557D01*
X262438D01*
X262653Y412849D01*
X263258Y411717D01*
X264072Y410725D01*
X265064Y409911D01*
X266196Y409306D01*
X267424Y408933D01*
X268701Y408808D01*
X269978Y408933D01*
X271206Y409306D01*
X272338Y409911D01*
X273330Y410725D01*
X274144Y411717D01*
X274749Y412849D01*
X275121Y414077D01*
X275247Y415354D01*
X275121Y416631D01*
X274749Y417859D01*
X274144Y418991D01*
X273330Y419983D01*
X272338Y420797D01*
X271206Y421402D01*
X269978Y421775D01*
X268701Y421901D01*
D02*
G37*
G36*
X57997Y415973D02*
X44736D01*
X44111Y415849D01*
X43582Y415495D01*
X42087Y414000D01*
X37974D01*
X37394Y414241D01*
X36366Y414376D01*
X35339Y414241D01*
X34758Y414000D01*
X15000D01*
Y378600D01*
X15000Y378600D01*
X14327Y378512D01*
X13700Y378252D01*
X13161Y377839D01*
X12748Y377300D01*
X12488Y376673D01*
X12400Y376000D01*
X12488Y375327D01*
X12748Y374700D01*
X13161Y374161D01*
X13700Y373748D01*
X14327Y373488D01*
X15000Y373400D01*
X15000Y373400D01*
Y368000D01*
X53998D01*
X54379Y367495D01*
X54662Y366800D01*
X54488Y366380D01*
X54400Y365707D01*
X54488Y365034D01*
X54748Y364407D01*
X55161Y363868D01*
X55700Y363455D01*
X56327Y363195D01*
X57000Y363107D01*
X57673Y363195D01*
X58300Y363455D01*
X58839Y363868D01*
X59252Y364407D01*
X59512Y365034D01*
X59600Y365707D01*
X59512Y366380D01*
X59338Y366800D01*
X59621Y367495D01*
X60002Y368000D01*
X80704D01*
X81105Y366981D01*
X81132Y366800D01*
X80748Y366300D01*
X80488Y365673D01*
X80400Y365000D01*
X80488Y364327D01*
X80748Y363700D01*
X81161Y363161D01*
X81700Y362748D01*
X82327Y362488D01*
X83000Y362400D01*
X83673Y362488D01*
X84300Y362748D01*
X84839Y363161D01*
X85252Y363700D01*
X85512Y364327D01*
X85600Y365000D01*
X85512Y365673D01*
X85252Y366300D01*
X84868Y366800D01*
X84895Y366981D01*
X85296Y368000D01*
X107000D01*
Y389000D01*
X82000Y414000D01*
X70302D01*
Y414342D01*
X62430D01*
Y414000D01*
X60646D01*
X59150Y415495D01*
X58621Y415849D01*
X57997Y415973D01*
D02*
G37*
G36*
X127300Y418455D02*
X126139Y418302D01*
X125057Y417854D01*
X124128Y417141D01*
X123415Y416212D01*
X122967Y415130D01*
X122814Y413969D01*
Y411845D01*
X121614Y411456D01*
X121141Y412072D01*
X120212Y412785D01*
X119130Y413234D01*
X117968Y413386D01*
X114032D01*
X112870Y413234D01*
X111788Y412785D01*
X110859Y412072D01*
X110386Y411456D01*
X109186Y411845D01*
Y413969D01*
X109034Y415130D01*
X108585Y416212D01*
X107872Y417141D01*
X106943Y417854D01*
X105861Y418302D01*
X104700Y418455D01*
X103539Y418302D01*
X102457Y417854D01*
X101528Y417141D01*
X100815Y416212D01*
X100366Y415130D01*
X100214Y413969D01*
Y410032D01*
X100366Y408870D01*
X100815Y407788D01*
X101528Y406859D01*
X102457Y406146D01*
X103539Y405698D01*
X104700Y405545D01*
X105861Y405698D01*
X106943Y406146D01*
X107872Y406859D01*
X108496Y407672D01*
X109030Y407702D01*
X109781Y407539D01*
X110146Y406657D01*
X110859Y405728D01*
X111788Y405015D01*
X112870Y404566D01*
X114032Y404414D01*
X117968D01*
X119130Y404566D01*
X120212Y405015D01*
X121141Y405728D01*
X121854Y406657D01*
X122219Y407539D01*
X122969Y407702D01*
X123504Y407672D01*
X124128Y406859D01*
X125057Y406146D01*
X126139Y405698D01*
X127300Y405545D01*
X128461Y405698D01*
X129543Y406146D01*
X130472Y406859D01*
X131185Y407788D01*
X131633Y408870D01*
X131786Y410032D01*
Y413969D01*
X131633Y415130D01*
X131185Y416212D01*
X130472Y417141D01*
X129543Y417854D01*
X128461Y418302D01*
X127300Y418455D01*
D02*
G37*
G36*
X119638Y403238D02*
X118965Y403149D01*
X118338Y402890D01*
X117799Y402476D01*
X117386Y401938D01*
X117126Y401311D01*
X117037Y400638D01*
X117126Y399965D01*
X117386Y399338D01*
X117799Y398799D01*
X118338Y398386D01*
X118965Y398126D01*
X119638Y398038D01*
X120311Y398126D01*
X120938Y398386D01*
X121476Y398799D01*
X121890Y399338D01*
X122149Y399965D01*
X122238Y400638D01*
X122149Y401311D01*
X121890Y401938D01*
X121476Y402476D01*
X120938Y402890D01*
X120311Y403149D01*
X119638Y403238D01*
D02*
G37*
G36*
X343898Y401516D02*
X342756Y401403D01*
X341657Y401070D01*
X340645Y400529D01*
X339758Y399801D01*
X339030Y398914D01*
X338489Y397902D01*
X338156Y396803D01*
X338043Y395661D01*
X338156Y394519D01*
X338489Y393421D01*
X339030Y392409D01*
X339758Y391522D01*
X340645Y390794D01*
X341657Y390253D01*
X342756Y389920D01*
X343898Y389807D01*
X345040Y389920D01*
X346138Y390253D01*
X347150Y390794D01*
X348037Y391522D01*
X348765Y392409D01*
X349306Y393421D01*
X349639Y394519D01*
X349752Y395661D01*
X349639Y396803D01*
X349306Y397902D01*
X348765Y398914D01*
X348037Y399801D01*
X347150Y400529D01*
X346138Y401070D01*
X345040Y401403D01*
X343898Y401516D01*
D02*
G37*
G36*
X295866D02*
X294724Y401403D01*
X293626Y401070D01*
X292614Y400529D01*
X291727Y399801D01*
X290999Y398914D01*
X290458Y397902D01*
X290125Y396803D01*
X290012Y395661D01*
X290125Y394519D01*
X290458Y393421D01*
X290999Y392409D01*
X291727Y391522D01*
X292614Y390794D01*
X293626Y390253D01*
X294724Y389920D01*
X295866Y389807D01*
X297008Y389920D01*
X298107Y390253D01*
X299119Y390794D01*
X300006Y391522D01*
X300734Y392409D01*
X301275Y393421D01*
X301608Y394519D01*
X301720Y395661D01*
X301608Y396803D01*
X301275Y397902D01*
X300734Y398914D01*
X300006Y399801D01*
X299119Y400529D01*
X298107Y401070D01*
X297008Y401403D01*
X295866Y401516D01*
D02*
G37*
G36*
X198866Y415707D02*
X197473Y415570D01*
X196134Y415163D01*
X194899Y414503D01*
X193817Y413616D01*
X192930Y412534D01*
X192270Y411299D01*
X191864Y409960D01*
X191726Y408567D01*
Y396756D01*
X191864Y395363D01*
X192270Y394024D01*
X192930Y392789D01*
X193817Y391707D01*
X194899Y390819D01*
X196134Y390160D01*
X197473Y389753D01*
X198866Y389616D01*
X200259Y389753D01*
X201599Y390160D01*
X202833Y390819D01*
X203915Y391707D01*
X204803Y392789D01*
X205463Y394024D01*
X205869Y395363D01*
X206006Y396756D01*
Y408567D01*
X205869Y409960D01*
X205463Y411299D01*
X204803Y412534D01*
X203915Y413616D01*
X202833Y414503D01*
X201599Y415163D01*
X200259Y415570D01*
X198866Y415707D01*
D02*
G37*
G36*
X167764D02*
X166371Y415570D01*
X165032Y415163D01*
X163797Y414503D01*
X162715Y413616D01*
X161827Y412534D01*
X161167Y411299D01*
X160761Y409960D01*
X160624Y408567D01*
Y396756D01*
X160761Y395363D01*
X161167Y394024D01*
X161827Y392789D01*
X162715Y391707D01*
X163797Y390819D01*
X165032Y390160D01*
X166371Y389753D01*
X167764Y389616D01*
X169157Y389753D01*
X170496Y390160D01*
X171730Y390819D01*
X172812Y391707D01*
X173700Y392789D01*
X174360Y394024D01*
X174767Y395363D01*
X174904Y396756D01*
Y408567D01*
X174767Y409960D01*
X174360Y411299D01*
X173700Y412534D01*
X172812Y413616D01*
X171730Y414503D01*
X170496Y415163D01*
X169157Y415570D01*
X167764Y415707D01*
D02*
G37*
G36*
X130000Y383600D02*
X129327Y383512D01*
X128700Y383252D01*
X128161Y382839D01*
X127748Y382300D01*
X127488Y381673D01*
X127400Y381000D01*
X127488Y380327D01*
X127748Y379700D01*
X128161Y379161D01*
X128700Y378748D01*
X129327Y378488D01*
X130000Y378400D01*
X130673Y378488D01*
X131300Y378748D01*
X131839Y379161D01*
X132252Y379700D01*
X132512Y380327D01*
X132600Y381000D01*
X132512Y381673D01*
X132252Y382300D01*
X131839Y382839D01*
X131300Y383252D01*
X130673Y383512D01*
X130000Y383600D01*
D02*
G37*
G36*
X137000Y382600D02*
X136327Y382512D01*
X135700Y382252D01*
X135161Y381839D01*
X134748Y381300D01*
X134488Y380673D01*
X134400Y380000D01*
X134488Y379327D01*
X134748Y378700D01*
X135161Y378161D01*
X135700Y377748D01*
X136327Y377488D01*
X137000Y377400D01*
X137673Y377488D01*
X138300Y377748D01*
X138839Y378161D01*
X139252Y378700D01*
X139512Y379327D01*
X139600Y380000D01*
X139512Y380673D01*
X139252Y381300D01*
X138839Y381839D01*
X138300Y382252D01*
X137673Y382512D01*
X137000Y382600D01*
D02*
G37*
G36*
X151000Y382600D02*
X150327Y382512D01*
X149700Y382252D01*
X149161Y381839D01*
X148748Y381300D01*
X148488Y380673D01*
X148400Y380000D01*
X148488Y379327D01*
X148748Y378700D01*
X149161Y378161D01*
X149700Y377748D01*
X150327Y377488D01*
X151000Y377400D01*
X151673Y377488D01*
X152300Y377748D01*
X152839Y378161D01*
X153252Y378700D01*
X153512Y379327D01*
X153600Y380000D01*
X153512Y380673D01*
X153252Y381300D01*
X152839Y381839D01*
X152300Y382252D01*
X151673Y382512D01*
X151000Y382600D01*
D02*
G37*
G36*
X163164Y377764D02*
X162491Y377675D01*
X161864Y377415D01*
X161325Y377002D01*
X160912Y376464D01*
X160652Y375836D01*
X160563Y375164D01*
X160652Y374491D01*
X160912Y373864D01*
X161325Y373325D01*
X161864Y372912D01*
X162491Y372652D01*
X163164Y372563D01*
X163837Y372652D01*
X164464Y372912D01*
X165002Y373325D01*
X165415Y373864D01*
X165675Y374491D01*
X165764Y375164D01*
X165675Y375836D01*
X165415Y376464D01*
X165002Y377002D01*
X164464Y377415D01*
X163837Y377675D01*
X163164Y377764D01*
D02*
G37*
G36*
X242000Y379600D02*
X241327Y379512D01*
X240700Y379252D01*
X240161Y378839D01*
X239748Y378300D01*
X239488Y377673D01*
X239400Y377000D01*
X239488Y376327D01*
X239748Y375700D01*
X240084Y375000D01*
X239748Y374300D01*
X239488Y373673D01*
X239400Y373000D01*
X239488Y372327D01*
X239748Y371700D01*
X240161Y371161D01*
X240700Y370748D01*
X241327Y370488D01*
X242000Y370400D01*
X242673Y370488D01*
X243300Y370748D01*
X243839Y371161D01*
X244252Y371700D01*
X244512Y372327D01*
X244600Y373000D01*
X244512Y373673D01*
X244252Y374300D01*
X243916Y375000D01*
X244252Y375700D01*
X244512Y376327D01*
X244600Y377000D01*
X244512Y377673D01*
X244252Y378300D01*
X243839Y378839D01*
X243300Y379252D01*
X242673Y379512D01*
X242000Y379600D01*
D02*
G37*
G36*
X162000Y370600D02*
X161327Y370512D01*
X160700Y370252D01*
X160161Y369839D01*
X160081Y369733D01*
X154213D01*
X154213Y369733D01*
X153550Y369601D01*
X152987Y369226D01*
X152987Y369226D01*
X136881Y353119D01*
X136505Y352557D01*
X136373Y351894D01*
Y350824D01*
X125620Y340072D01*
X124275Y340296D01*
X124208Y340357D01*
X123839Y340839D01*
X123300Y341252D01*
X122673Y341512D01*
X122000Y341600D01*
X121327Y341512D01*
X120700Y341252D01*
X120161Y340839D01*
X119748Y340300D01*
X119488Y339673D01*
X119400Y339000D01*
X119488Y338327D01*
X119748Y337700D01*
X120109Y337229D01*
X120161Y337143D01*
Y336900D01*
X119013Y335733D01*
X89919D01*
X89891Y335771D01*
X89839Y335839D01*
X89753Y337026D01*
X89879Y337241D01*
X90163Y337611D01*
X90423Y338238D01*
X90512Y338911D01*
X90423Y339584D01*
X90163Y340212D01*
X89750Y340750D01*
X89211Y341163D01*
X88584Y341423D01*
X87911Y341512D01*
X87238Y341423D01*
X86611Y341163D01*
X86073Y340750D01*
X85660Y340212D01*
X85400Y339584D01*
X85311Y338911D01*
X85400Y338238D01*
X85660Y337611D01*
X86021Y337141D01*
X86073Y337072D01*
X86090Y336833D01*
X85139Y335733D01*
X53166D01*
X52329Y336689D01*
X52415Y336897D01*
X52504Y337570D01*
X52415Y338243D01*
X52156Y338870D01*
X51742Y339408D01*
X51204Y339822D01*
X50577Y340081D01*
X49904Y340170D01*
X49231Y340081D01*
X48604Y339822D01*
X48065Y339408D01*
X47652Y338870D01*
X47392Y338243D01*
X47304Y337570D01*
X47392Y336897D01*
X47652Y336269D01*
X48065Y335731D01*
X48604Y335318D01*
X48733Y335264D01*
X48488Y334673D01*
X48400Y334000D01*
X48488Y333327D01*
X48748Y332700D01*
X49161Y332161D01*
X49700Y331748D01*
X50327Y331488D01*
X51000Y331400D01*
X51673Y331488D01*
X52300Y331748D01*
X53396Y331098D01*
X53409Y331067D01*
X53400Y331000D01*
X53488Y330327D01*
X53748Y329700D01*
X54161Y329161D01*
X54700Y328748D01*
X55327Y328488D01*
X56000Y328400D01*
X56673Y328488D01*
X57300Y328748D01*
X57839Y329161D01*
X58252Y329700D01*
X58512Y330327D01*
X58600Y331000D01*
X58591Y331067D01*
X59449Y332267D01*
X86081D01*
X86161Y332161D01*
X86267Y332081D01*
Y313823D01*
X86399Y313159D01*
X86774Y312597D01*
X102829Y296543D01*
X102811Y296411D01*
X102900Y295738D01*
X103160Y295111D01*
X103573Y294573D01*
X104111Y294160D01*
X104738Y293900D01*
X105411Y293811D01*
X106084Y293900D01*
X106711Y294160D01*
X107250Y294573D01*
X107663Y295111D01*
X107923Y295738D01*
X108012Y296411D01*
X107923Y297084D01*
X107663Y297711D01*
X107250Y298250D01*
X106711Y298663D01*
X106084Y298923D01*
X105411Y299012D01*
X105280Y298994D01*
X89733Y314541D01*
Y332081D01*
X89839Y332161D01*
X89919Y332267D01*
X99977D01*
X100336Y331817D01*
X100652Y331067D01*
X100488Y330673D01*
X100400Y330000D01*
X100488Y329327D01*
X100748Y328700D01*
X101161Y328161D01*
X101700Y327748D01*
X102327Y327488D01*
X103000Y327400D01*
X103673Y327488D01*
X104300Y327748D01*
X104839Y328161D01*
X105252Y328700D01*
X105512Y329327D01*
X105600Y330000D01*
X105512Y330673D01*
X105349Y331067D01*
X105664Y331817D01*
X106023Y332267D01*
X120081D01*
X120161Y332161D01*
X120700Y331748D01*
X121327Y331488D01*
X122000Y331400D01*
X122673Y331488D01*
X123300Y331748D01*
X123839Y332161D01*
X124252Y332700D01*
X124512Y333327D01*
X124600Y334000D01*
X124583Y334132D01*
X139332Y348881D01*
X139708Y349443D01*
X139840Y350106D01*
Y351176D01*
X147762Y359098D01*
X149161Y359161D01*
X149700Y358748D01*
X150327Y358488D01*
X151000Y358400D01*
X151673Y358488D01*
X152300Y358748D01*
X152839Y359161D01*
X153252Y359700D01*
X153512Y360327D01*
X153600Y361000D01*
X153512Y361673D01*
X153252Y362300D01*
X152839Y362839D01*
X152902Y364238D01*
X154931Y366267D01*
X160081D01*
X160161Y366161D01*
X160700Y365748D01*
X161327Y365488D01*
X162000Y365400D01*
X162132Y365417D01*
X172774Y354774D01*
X173337Y354399D01*
X174000Y354267D01*
X203081D01*
X203161Y354161D01*
X203700Y353748D01*
X204327Y353488D01*
X205000Y353400D01*
X205132Y353417D01*
X209442Y349106D01*
X210005Y348731D01*
X210668Y348599D01*
X211950D01*
X213433Y347116D01*
Y325834D01*
X213565Y325171D01*
X213940Y324608D01*
X215417Y323132D01*
X215400Y323000D01*
X215488Y322327D01*
X215748Y321700D01*
X216161Y321161D01*
X216700Y320748D01*
X217327Y320488D01*
X218000Y320400D01*
X218673Y320488D01*
X219300Y320748D01*
X219839Y321161D01*
X219919Y321267D01*
X230069D01*
X243160Y308176D01*
Y306106D01*
X243292Y305443D01*
X243668Y304881D01*
X257417Y291132D01*
X257400Y291000D01*
X257488Y290327D01*
X257748Y289700D01*
X258161Y289161D01*
X258700Y288748D01*
X259327Y288488D01*
X260000Y288400D01*
X260673Y288488D01*
X261300Y288748D01*
X261839Y289161D01*
X262232Y289674D01*
X262338Y289686D01*
X263466Y289496D01*
X263488Y289327D01*
X263748Y288700D01*
X264161Y288161D01*
X264700Y287748D01*
X265327Y287488D01*
X266000Y287400D01*
X266673Y287488D01*
X267300Y287748D01*
X267839Y288161D01*
X268252Y288700D01*
X268512Y289327D01*
X268600Y290000D01*
X268512Y290673D01*
X268252Y291300D01*
X267839Y291839D01*
X267300Y292252D01*
X266673Y292512D01*
X266000Y292600D01*
X265327Y292512D01*
X264700Y292252D01*
X264161Y291839D01*
X263768Y291326D01*
X263662Y291315D01*
X262534Y291504D01*
X262512Y291673D01*
X262252Y292300D01*
X261839Y292839D01*
X261300Y293252D01*
X260673Y293512D01*
X260000Y293600D01*
X259868Y293583D01*
X246627Y306824D01*
Y308894D01*
X246495Y309557D01*
X246119Y310119D01*
X232013Y324226D01*
X231869Y324322D01*
X231821Y324606D01*
X231998Y325623D01*
X232300Y325748D01*
X232839Y326161D01*
X233232Y326674D01*
X233338Y326685D01*
X234466Y326496D01*
X234488Y326327D01*
X234748Y325700D01*
X235161Y325161D01*
X235700Y324748D01*
X236327Y324488D01*
X237000Y324400D01*
X237673Y324488D01*
X238300Y324748D01*
X238839Y325161D01*
X239252Y325700D01*
X239512Y326327D01*
X239600Y327000D01*
X239512Y327673D01*
X239252Y328300D01*
X238839Y328839D01*
X238300Y329252D01*
X237673Y329512D01*
X237000Y329600D01*
X236327Y329512D01*
X235700Y329252D01*
X235161Y328839D01*
X234768Y328326D01*
X234662Y328315D01*
X233534Y328504D01*
X233512Y328673D01*
X233252Y329300D01*
X232839Y329839D01*
X232300Y330252D01*
X231673Y330512D01*
X231000Y330600D01*
X230327Y330512D01*
X229700Y330252D01*
X229161Y329839D01*
X228748Y329300D01*
X228488Y328673D01*
X228400Y328000D01*
X228488Y327327D01*
X228748Y326700D01*
X229161Y326161D01*
X229459Y325933D01*
X229240Y324905D01*
X229147Y324733D01*
X219919D01*
X219839Y324839D01*
X219300Y325252D01*
X218673Y325512D01*
X218000Y325600D01*
X217868Y325583D01*
X216899Y326552D01*
Y333455D01*
X218000Y334400D01*
X218673Y334488D01*
X219300Y334748D01*
X219839Y335161D01*
X220252Y335700D01*
X220512Y336327D01*
X220600Y337000D01*
X220512Y337673D01*
X220252Y338300D01*
X219839Y338839D01*
X219300Y339252D01*
X218673Y339512D01*
X218000Y339600D01*
X216899Y340545D01*
Y347834D01*
X216767Y348497D01*
X216392Y349060D01*
X213894Y351558D01*
X213331Y351933D01*
X212668Y352065D01*
X211386D01*
X207583Y355868D01*
X207600Y356000D01*
X207512Y356673D01*
X207252Y357300D01*
X206839Y357839D01*
X206300Y358252D01*
X205673Y358512D01*
X205000Y358600D01*
X204327Y358512D01*
X203700Y358252D01*
X203161Y357839D01*
X203081Y357733D01*
X174718D01*
X164583Y367868D01*
X164600Y368000D01*
X164512Y368673D01*
X164252Y369300D01*
X163839Y369839D01*
X163300Y370252D01*
X162673Y370512D01*
X162000Y370600D01*
D02*
G37*
G36*
X7657Y373258D02*
X6984Y373169D01*
X6357Y372909D01*
X5819Y372496D01*
X5406Y371957D01*
X5146Y371330D01*
X5057Y370657D01*
X5146Y369984D01*
X5406Y369357D01*
X5819Y368819D01*
X6357Y368406D01*
X6984Y368146D01*
X7657Y368057D01*
X8330Y368146D01*
X8958Y368406D01*
X9496Y368819D01*
X9909Y369357D01*
X10169Y369984D01*
X10258Y370657D01*
X10169Y371330D01*
X9909Y371957D01*
X9496Y372496D01*
X8958Y372909D01*
X8330Y373169D01*
X7657Y373258D01*
D02*
G37*
G36*
X351772Y377894D02*
X350629Y377781D01*
X349531Y377448D01*
X348519Y376907D01*
X347632Y376179D01*
X346904Y375292D01*
X346363Y374280D01*
X346030Y373182D01*
X345917Y372039D01*
X346030Y370897D01*
X346363Y369799D01*
X346904Y368787D01*
X347632Y367900D01*
X348519Y367172D01*
X349531Y366631D01*
X350629Y366298D01*
X351772Y366185D01*
X352914Y366298D01*
X354012Y366631D01*
X355024Y367172D01*
X355911Y367900D01*
X356639Y368787D01*
X357180Y369799D01*
X357513Y370897D01*
X357626Y372039D01*
X357513Y373182D01*
X357180Y374280D01*
X356639Y375292D01*
X355911Y376179D01*
X355024Y376907D01*
X354012Y377448D01*
X352914Y377781D01*
X351772Y377894D01*
D02*
G37*
G36*
X193000Y370600D02*
X192327Y370512D01*
X191700Y370252D01*
X191161Y369839D01*
X190748Y369300D01*
X190488Y368673D01*
X190400Y368000D01*
X190488Y367327D01*
X190748Y366700D01*
X191161Y366161D01*
X191700Y365748D01*
X192327Y365488D01*
X193000Y365400D01*
X193673Y365488D01*
X194300Y365748D01*
X194839Y366161D01*
X195252Y366700D01*
X195512Y367327D01*
X195600Y368000D01*
X195512Y368673D01*
X195252Y369300D01*
X194839Y369839D01*
X194300Y370252D01*
X193673Y370512D01*
X193000Y370600D01*
D02*
G37*
G36*
X185000D02*
X184327Y370512D01*
X183700Y370252D01*
X183161Y369839D01*
X182748Y369300D01*
X182488Y368673D01*
X182400Y368000D01*
X182488Y367327D01*
X182748Y366700D01*
X183161Y366161D01*
X183700Y365748D01*
X184327Y365488D01*
X185000Y365400D01*
X185673Y365488D01*
X186300Y365748D01*
X186839Y366161D01*
X187252Y366700D01*
X187512Y367327D01*
X187600Y368000D01*
X187512Y368673D01*
X187252Y369300D01*
X186839Y369839D01*
X186300Y370252D01*
X185673Y370512D01*
X185000Y370600D01*
D02*
G37*
G36*
X262000Y370600D02*
X261327Y370512D01*
X260700Y370252D01*
X260161Y369839D01*
X259748Y369300D01*
X259488Y368673D01*
X259400Y368000D01*
X259488Y367327D01*
X259748Y366700D01*
X260161Y366161D01*
X260700Y365748D01*
X261327Y365488D01*
X262000Y365400D01*
X262673Y365488D01*
X263300Y365748D01*
X263839Y366161D01*
X264252Y366700D01*
X264512Y367327D01*
X264600Y368000D01*
X264512Y368673D01*
X264252Y369300D01*
X263839Y369839D01*
X263300Y370252D01*
X262673Y370512D01*
X262000Y370600D01*
D02*
G37*
G36*
X209000Y363600D02*
X208327Y363512D01*
X207700Y363252D01*
X207161Y362839D01*
X206748Y362300D01*
X206488Y361673D01*
X206400Y361000D01*
X206488Y360327D01*
X206748Y359700D01*
X207161Y359161D01*
X207700Y358748D01*
X208327Y358488D01*
X209000Y358400D01*
X209673Y358488D01*
X210300Y358748D01*
X210839Y359161D01*
X211252Y359700D01*
X211512Y360327D01*
X211600Y361000D01*
X211512Y361673D01*
X211252Y362300D01*
X210839Y362839D01*
X210300Y363252D01*
X209673Y363512D01*
X209000Y363600D01*
D02*
G37*
G36*
X32000Y360600D02*
X31327Y360512D01*
X30700Y360252D01*
X30161Y359839D01*
X29748Y359300D01*
X29488Y358673D01*
X29400Y358000D01*
X29488Y357327D01*
X29748Y356700D01*
X30161Y356161D01*
X30700Y355748D01*
X31327Y355488D01*
X32000Y355400D01*
X32673Y355488D01*
X33300Y355748D01*
X33839Y356161D01*
X34252Y356700D01*
X34512Y357327D01*
X34600Y358000D01*
X34512Y358673D01*
X34252Y359300D01*
X33839Y359839D01*
X33300Y360252D01*
X32673Y360512D01*
X32000Y360600D01*
D02*
G37*
G36*
X162000Y360217D02*
X161327Y360128D01*
X160700Y359868D01*
X160161Y359455D01*
X159748Y358917D01*
X159488Y358290D01*
X159400Y357617D01*
X159488Y356944D01*
X159748Y356316D01*
X160161Y355778D01*
X160700Y355365D01*
X161327Y355105D01*
X162000Y355016D01*
X162673Y355105D01*
X163300Y355365D01*
X163839Y355778D01*
X164252Y356316D01*
X164512Y356944D01*
X164600Y357617D01*
X164512Y358290D01*
X164252Y358917D01*
X163839Y359455D01*
X163300Y359868D01*
X162673Y360128D01*
X162000Y360217D01*
D02*
G37*
G36*
X242000Y358600D02*
X241327Y358512D01*
X240700Y358252D01*
X240161Y357839D01*
X239748Y357300D01*
X239488Y356673D01*
X239400Y356000D01*
X239488Y355327D01*
X239748Y354700D01*
X240161Y354161D01*
X240700Y353748D01*
X241327Y353488D01*
X242000Y353400D01*
X242673Y353488D01*
X243300Y353748D01*
X243839Y354161D01*
X244252Y354700D01*
X244512Y355327D01*
X244600Y356000D01*
X244512Y356673D01*
X244252Y357300D01*
X243839Y357839D01*
X243300Y358252D01*
X242673Y358512D01*
X242000Y358600D01*
D02*
G37*
G36*
X112343Y355258D02*
X111670Y355169D01*
X111042Y354909D01*
X110504Y354496D01*
X110091Y353958D01*
X109831Y353330D01*
X109742Y352658D01*
X109831Y351985D01*
X110091Y351357D01*
X110504Y350819D01*
X111042Y350406D01*
X111670Y350146D01*
X112343Y350057D01*
X113015Y350146D01*
X113643Y350406D01*
X114181Y350819D01*
X114594Y351357D01*
X114854Y351985D01*
X114943Y352658D01*
X114854Y353330D01*
X114594Y353958D01*
X114181Y354496D01*
X113643Y354909D01*
X113015Y355169D01*
X112343Y355258D01*
D02*
G37*
G36*
X185000Y350600D02*
X184327Y350512D01*
X183700Y350252D01*
X183161Y349839D01*
X182748Y349300D01*
X182620Y348991D01*
X181380Y348991D01*
X181252Y349300D01*
X180839Y349839D01*
X180300Y350252D01*
X179673Y350512D01*
X179000Y350600D01*
X178327Y350512D01*
X177700Y350252D01*
X177161Y349839D01*
X176748Y349300D01*
X176488Y348673D01*
X176400Y348000D01*
X176488Y347327D01*
X176748Y346700D01*
X177161Y346161D01*
X177700Y345748D01*
X178327Y345488D01*
X179000Y345400D01*
X179673Y345488D01*
X180300Y345748D01*
X180839Y346161D01*
X181252Y346700D01*
X181380Y347009D01*
X182620Y347009D01*
X182748Y346700D01*
X183161Y346161D01*
X183700Y345748D01*
X184327Y345488D01*
X185000Y345400D01*
X185673Y345488D01*
X186300Y345748D01*
X186839Y346161D01*
X187252Y346700D01*
X187512Y347327D01*
X187600Y348000D01*
X187512Y348673D01*
X187252Y349300D01*
X186839Y349839D01*
X186300Y350252D01*
X185673Y350512D01*
X185000Y350600D01*
D02*
G37*
G36*
X264000Y352600D02*
X263327Y352512D01*
X262700Y352252D01*
X262161Y351839D01*
X261748Y351300D01*
X261488Y350673D01*
X261400Y350000D01*
X261488Y349327D01*
X261748Y348700D01*
X262161Y348161D01*
X262700Y347748D01*
X263327Y347488D01*
X264000Y347400D01*
X264673Y347488D01*
X265300Y347748D01*
X265839Y348161D01*
X266252Y348700D01*
X266512Y349327D01*
X266600Y350000D01*
X266512Y350673D01*
X266252Y351300D01*
X265839Y351839D01*
X265300Y352252D01*
X264673Y352512D01*
X264000Y352600D01*
D02*
G37*
G36*
X38000Y350600D02*
X37327Y350512D01*
X36700Y350252D01*
X36161Y349839D01*
X35748Y349300D01*
X35488Y348673D01*
X35400Y348000D01*
X35488Y347327D01*
X35748Y346700D01*
X36161Y346161D01*
X36700Y345748D01*
X37327Y345488D01*
X38000Y345400D01*
X38673Y345488D01*
X39300Y345748D01*
X39839Y346161D01*
X40252Y346700D01*
X40512Y347327D01*
X40600Y348000D01*
X40512Y348673D01*
X40252Y349300D01*
X39839Y349839D01*
X39300Y350252D01*
X38673Y350512D01*
X38000Y350600D01*
D02*
G37*
G36*
X75000Y349600D02*
X74327Y349512D01*
X73700Y349252D01*
X73161Y348839D01*
X72748Y348300D01*
X72488Y347673D01*
X72400Y347000D01*
X72488Y346327D01*
X72748Y345700D01*
X73161Y345161D01*
X73700Y344748D01*
X74327Y344488D01*
X75000Y344400D01*
X75673Y344488D01*
X76300Y344748D01*
X76839Y345161D01*
X77252Y345700D01*
X77512Y346327D01*
X77600Y347000D01*
X77512Y347673D01*
X77252Y348300D01*
X76839Y348839D01*
X76300Y349252D01*
X75673Y349512D01*
X75000Y349600D01*
D02*
G37*
G36*
X25516Y348116D02*
X24843Y348027D01*
X24216Y347768D01*
X23677Y347354D01*
X23264Y346816D01*
X23004Y346189D01*
X22916Y345516D01*
X23004Y344843D01*
X23264Y344216D01*
X23677Y343677D01*
X24216Y343264D01*
X24843Y343004D01*
X25516Y342916D01*
X26189Y343004D01*
X26816Y343264D01*
X27354Y343677D01*
X27768Y344216D01*
X28027Y344843D01*
X28116Y345516D01*
X28027Y346189D01*
X27768Y346816D01*
X27354Y347354D01*
X26816Y347768D01*
X26189Y348027D01*
X25516Y348116D01*
D02*
G37*
G36*
X343898Y354272D02*
X342756Y354159D01*
X341657Y353826D01*
X340645Y353285D01*
X339758Y352557D01*
X339030Y351670D01*
X338489Y350658D01*
X338156Y349559D01*
X338043Y348417D01*
X338156Y347275D01*
X338489Y346177D01*
X339030Y345165D01*
X339758Y344278D01*
X340645Y343550D01*
X341657Y343009D01*
X342756Y342676D01*
X343898Y342563D01*
X345040Y342676D01*
X346138Y343009D01*
X347150Y343550D01*
X348037Y344278D01*
X348765Y345165D01*
X349306Y346177D01*
X349639Y347275D01*
X349752Y348417D01*
X349639Y349559D01*
X349306Y350658D01*
X348765Y351670D01*
X348037Y352557D01*
X347150Y353285D01*
X346138Y353826D01*
X345040Y354159D01*
X343898Y354272D01*
D02*
G37*
G36*
X295866D02*
X294724Y354159D01*
X293626Y353826D01*
X292614Y353285D01*
X291727Y352557D01*
X290999Y351670D01*
X290458Y350658D01*
X290125Y349559D01*
X290012Y348417D01*
X290125Y347275D01*
X290458Y346177D01*
X290999Y345165D01*
X291727Y344278D01*
X292614Y343550D01*
X293626Y343009D01*
X294724Y342676D01*
X295866Y342563D01*
X297008Y342676D01*
X298107Y343009D01*
X299119Y343550D01*
X300006Y344278D01*
X300734Y345165D01*
X301275Y346177D01*
X301608Y347275D01*
X301720Y348417D01*
X301608Y349559D01*
X301275Y350658D01*
X300734Y351670D01*
X300006Y352557D01*
X299119Y353285D01*
X298107Y353826D01*
X297008Y354159D01*
X295866Y354272D01*
D02*
G37*
G36*
X62516Y347084D02*
X61843Y346996D01*
X61216Y346736D01*
X60677Y346323D01*
X60264Y345784D01*
X60004Y345157D01*
X59916Y344484D01*
X60004Y343811D01*
X60264Y343184D01*
X60677Y342646D01*
X61216Y342232D01*
X61843Y341973D01*
X62516Y341884D01*
X63189Y341973D01*
X63816Y342232D01*
X64354Y342646D01*
X64768Y343184D01*
X65027Y343811D01*
X65116Y344484D01*
X65027Y345157D01*
X64768Y345784D01*
X64354Y346323D01*
X63816Y346736D01*
X63189Y346996D01*
X62516Y347084D01*
D02*
G37*
G36*
X239000Y346600D02*
X238327Y346512D01*
X237700Y346252D01*
X237161Y345839D01*
X236748Y345300D01*
X236488Y344673D01*
X236400Y344000D01*
X236488Y343327D01*
X236748Y342700D01*
X237161Y342161D01*
X237700Y341748D01*
X238327Y341488D01*
X239000Y341400D01*
X239673Y341488D01*
X240300Y341748D01*
X240839Y342161D01*
X241252Y342700D01*
X241512Y343327D01*
X241600Y344000D01*
X241512Y344673D01*
X241252Y345300D01*
X240839Y345839D01*
X240300Y346252D01*
X239673Y346512D01*
X239000Y346600D01*
D02*
G37*
G36*
X97000D02*
X96327Y346512D01*
X95700Y346252D01*
X95161Y345839D01*
X94748Y345300D01*
X94488Y344673D01*
X94400Y344000D01*
X94488Y343327D01*
X94748Y342700D01*
X95161Y342161D01*
X95700Y341748D01*
X96327Y341488D01*
X97000Y341400D01*
X97673Y341488D01*
X98300Y341748D01*
X98839Y342161D01*
X99252Y342700D01*
X99512Y343327D01*
X99600Y344000D01*
X99512Y344673D01*
X99252Y345300D01*
X98839Y345839D01*
X98300Y346252D01*
X97673Y346512D01*
X97000Y346600D01*
D02*
G37*
G36*
X138000Y338600D02*
X137327Y338512D01*
X136700Y338252D01*
X136161Y337839D01*
X135748Y337300D01*
X135540Y336798D01*
X135128Y336568D01*
X134241Y336311D01*
X133614Y336571D01*
X132941Y336659D01*
X132268Y336571D01*
X131641Y336311D01*
X131102Y335898D01*
X130689Y335359D01*
X130429Y334732D01*
X130341Y334059D01*
X130429Y333386D01*
X130689Y332759D01*
X131102Y332221D01*
X131641Y331807D01*
X132268Y331548D01*
X132941Y331459D01*
X133614Y331548D01*
X134241Y331807D01*
X134779Y332221D01*
X135193Y332759D01*
X135401Y333261D01*
X135812Y333491D01*
X136700Y333748D01*
X137327Y333488D01*
X138000Y333400D01*
X138673Y333488D01*
X139300Y333748D01*
X139839Y334161D01*
X140252Y334700D01*
X140512Y335327D01*
X140600Y336000D01*
X140512Y336673D01*
X140252Y337300D01*
X139839Y337839D01*
X139300Y338252D01*
X138673Y338512D01*
X138000Y338600D01*
D02*
G37*
G36*
X162941Y335659D02*
X162268Y335571D01*
X161641Y335311D01*
X161102Y334898D01*
X160689Y334359D01*
X160429Y333732D01*
X160405Y333547D01*
X160000Y333600D01*
X159327Y333512D01*
X158700Y333252D01*
X158161Y332839D01*
X157748Y332300D01*
X157488Y331673D01*
X157400Y331000D01*
X157488Y330327D01*
X157748Y329700D01*
X158161Y329161D01*
X158700Y328748D01*
X159327Y328488D01*
X160000Y328400D01*
X160673Y328488D01*
X161300Y328748D01*
X161839Y329161D01*
X162252Y329700D01*
X162512Y330327D01*
X162536Y330512D01*
X162941Y330459D01*
X163614Y330548D01*
X164241Y330807D01*
X164779Y331221D01*
X165193Y331759D01*
X165452Y332386D01*
X165541Y333059D01*
X165452Y333732D01*
X165193Y334359D01*
X164779Y334898D01*
X164241Y335311D01*
X163614Y335571D01*
X162941Y335659D01*
D02*
G37*
G36*
X182000Y336600D02*
X181327Y336512D01*
X180700Y336252D01*
X180161Y335839D01*
X179748Y335300D01*
X179488Y334673D01*
X179400Y334000D01*
X179488Y333327D01*
X179748Y332700D01*
X180161Y332161D01*
X180700Y331748D01*
X181327Y331488D01*
X182000Y331400D01*
X182673Y331488D01*
X183300Y331748D01*
X183839Y332161D01*
X184252Y332700D01*
X184512Y333327D01*
X184600Y334000D01*
X184512Y334673D01*
X184252Y335300D01*
X183839Y335839D01*
X183300Y336252D01*
X182673Y336512D01*
X182000Y336600D01*
D02*
G37*
G36*
X204000Y336597D02*
X203327Y336509D01*
X202700Y336249D01*
X202161Y335836D01*
X201748Y335297D01*
X201488Y334670D01*
X201400Y333997D01*
X201488Y333324D01*
X201748Y332697D01*
X202161Y332158D01*
X202700Y331745D01*
X203327Y331486D01*
X204000Y331397D01*
X204673Y331486D01*
X205300Y331745D01*
X205839Y332158D01*
X206252Y332697D01*
X206512Y333324D01*
X206600Y333997D01*
X206512Y334670D01*
X206252Y335297D01*
X205839Y335836D01*
X205300Y336249D01*
X204673Y336509D01*
X204000Y336597D01*
D02*
G37*
G36*
X169315Y336285D02*
X168642Y336197D01*
X168015Y335937D01*
X167476Y335524D01*
X167063Y334985D01*
X166803Y334358D01*
X166715Y333685D01*
X166803Y333012D01*
X167063Y332385D01*
X167476Y331847D01*
X168015Y331433D01*
X168642Y331174D01*
X169315Y331085D01*
X169988Y331174D01*
X170615Y331433D01*
X171153Y331847D01*
X171567Y332385D01*
X171826Y333012D01*
X171915Y333685D01*
X171826Y334358D01*
X171567Y334985D01*
X171153Y335524D01*
X170615Y335937D01*
X169988Y336197D01*
X169315Y336285D01*
D02*
G37*
G36*
X263000Y334600D02*
X262327Y334512D01*
X261700Y334252D01*
X261161Y333839D01*
X260748Y333300D01*
X260488Y332673D01*
X260400Y332000D01*
X260488Y331327D01*
X260748Y330700D01*
X261161Y330161D01*
X261700Y329748D01*
X262327Y329488D01*
X263000Y329400D01*
X263673Y329488D01*
X264300Y329748D01*
X264839Y330161D01*
X265252Y330700D01*
X265512Y331327D01*
X265600Y332000D01*
X265512Y332673D01*
X265252Y333300D01*
X264839Y333839D01*
X264300Y334252D01*
X263673Y334512D01*
X263000Y334600D01*
D02*
G37*
G36*
X17089Y336512D02*
X16416Y336423D01*
X15789Y336163D01*
X15250Y335750D01*
X14837Y335211D01*
X14577Y334584D01*
X14488Y333911D01*
X14577Y333238D01*
X14837Y332611D01*
X15250Y332073D01*
X15789Y331660D01*
X16416Y331400D01*
X16452Y331395D01*
X16400Y331000D01*
X16488Y330327D01*
X16748Y329700D01*
X17161Y329161D01*
X17700Y328748D01*
X18327Y328488D01*
X19000Y328400D01*
X19673Y328488D01*
X20300Y328748D01*
X20839Y329161D01*
X21252Y329700D01*
X21512Y330327D01*
X21600Y331000D01*
X21512Y331673D01*
X21252Y332300D01*
X20839Y332839D01*
X20300Y333252D01*
X19673Y333512D01*
X19637Y333516D01*
X19689Y333911D01*
X19600Y334584D01*
X19340Y335211D01*
X18927Y335750D01*
X18389Y336163D01*
X17762Y336423D01*
X17089Y336512D01*
D02*
G37*
G36*
X122000Y328600D02*
X121327Y328512D01*
X120700Y328252D01*
X120161Y327839D01*
X119748Y327300D01*
X119488Y326673D01*
X119400Y326000D01*
X119488Y325327D01*
X119748Y324700D01*
X120161Y324161D01*
X120700Y323748D01*
X121327Y323488D01*
X122000Y323400D01*
X122673Y323488D01*
X123300Y323748D01*
X123839Y324161D01*
X124252Y324700D01*
X124512Y325327D01*
X124600Y326000D01*
X124512Y326673D01*
X124252Y327300D01*
X123839Y327839D01*
X123300Y328252D01*
X122673Y328512D01*
X122000Y328600D01*
D02*
G37*
G36*
X75000Y327600D02*
X74327Y327512D01*
X73700Y327252D01*
X73161Y326839D01*
X72748Y326300D01*
X72488Y325673D01*
X72400Y325000D01*
X72488Y324327D01*
X72748Y323700D01*
X73161Y323161D01*
X73700Y322748D01*
X74327Y322488D01*
X75000Y322400D01*
X75673Y322488D01*
X76300Y322748D01*
X76839Y323161D01*
X77252Y323700D01*
X77512Y324327D01*
X77600Y325000D01*
X77512Y325673D01*
X77252Y326300D01*
X76839Y326839D01*
X76300Y327252D01*
X75673Y327512D01*
X75000Y327600D01*
D02*
G37*
G36*
X51000D02*
X50327Y327512D01*
X49700Y327252D01*
X49161Y326839D01*
X48748Y326300D01*
X48488Y325673D01*
X48400Y325000D01*
X48488Y324327D01*
X48748Y323700D01*
X49161Y323161D01*
X49700Y322748D01*
X50327Y322488D01*
X51000Y322400D01*
X51673Y322488D01*
X52300Y322748D01*
X52839Y323161D01*
X53252Y323700D01*
X53512Y324327D01*
X53600Y325000D01*
X53512Y325673D01*
X53252Y326300D01*
X52839Y326839D01*
X52300Y327252D01*
X51673Y327512D01*
X51000Y327600D01*
D02*
G37*
G36*
X343898Y333516D02*
X342756Y333403D01*
X341657Y333070D01*
X340645Y332529D01*
X339758Y331801D01*
X339030Y330914D01*
X338489Y329902D01*
X338156Y328803D01*
X338043Y327661D01*
X338156Y326519D01*
X338489Y325421D01*
X339030Y324409D01*
X339758Y323522D01*
X340645Y322794D01*
X341657Y322253D01*
X342756Y321920D01*
X343898Y321807D01*
X345040Y321920D01*
X346138Y322253D01*
X347150Y322794D01*
X348037Y323522D01*
X348765Y324409D01*
X349306Y325421D01*
X349639Y326519D01*
X349752Y327661D01*
X349639Y328803D01*
X349306Y329902D01*
X348765Y330914D01*
X348037Y331801D01*
X347150Y332529D01*
X346138Y333070D01*
X345040Y333403D01*
X343898Y333516D01*
D02*
G37*
G36*
X295866D02*
X294724Y333403D01*
X293626Y333070D01*
X292614Y332529D01*
X291727Y331801D01*
X290999Y330914D01*
X290458Y329902D01*
X290125Y328803D01*
X290012Y327661D01*
X290125Y326519D01*
X290458Y325421D01*
X290999Y324409D01*
X291727Y323522D01*
X292614Y322794D01*
X293626Y322253D01*
X294724Y321920D01*
X295866Y321807D01*
X297008Y321920D01*
X298107Y322253D01*
X299119Y322794D01*
X300006Y323522D01*
X300734Y324409D01*
X301275Y325421D01*
X301608Y326519D01*
X301720Y327661D01*
X301608Y328803D01*
X301275Y329902D01*
X300734Y330914D01*
X300006Y331801D01*
X299119Y332529D01*
X298107Y333070D01*
X297008Y333403D01*
X295866Y333516D01*
D02*
G37*
G36*
X167000Y326600D02*
X166327Y326512D01*
X165700Y326252D01*
X165161Y325839D01*
X164748Y325300D01*
X164488Y324673D01*
X164400Y324000D01*
X164488Y323327D01*
X164748Y322700D01*
X165161Y322161D01*
X165700Y321748D01*
X166327Y321488D01*
X167000Y321400D01*
X167673Y321488D01*
X168300Y321748D01*
X168839Y322161D01*
X169252Y322700D01*
X169512Y323327D01*
X169600Y324000D01*
X169512Y324673D01*
X169252Y325300D01*
X168839Y325839D01*
X168300Y326252D01*
X167673Y326512D01*
X167000Y326600D01*
D02*
G37*
G36*
X130000Y326600D02*
X129327Y326512D01*
X128700Y326252D01*
X128161Y325839D01*
X127748Y325300D01*
X127488Y324673D01*
X127400Y324000D01*
X127488Y323327D01*
X127748Y322700D01*
X128161Y322161D01*
X128700Y321748D01*
X129327Y321488D01*
X130000Y321400D01*
X130673Y321488D01*
X131300Y321748D01*
X131839Y322161D01*
X132252Y322700D01*
X132512Y323327D01*
X132600Y324000D01*
X132512Y324673D01*
X132252Y325300D01*
X131839Y325839D01*
X131300Y326252D01*
X130673Y326512D01*
X130000Y326600D01*
D02*
G37*
G36*
X144000Y325600D02*
X143327Y325512D01*
X142700Y325252D01*
X142161Y324839D01*
X141748Y324300D01*
X141488Y323673D01*
X141400Y323000D01*
X141488Y322327D01*
X141748Y321700D01*
X142161Y321161D01*
X142700Y320748D01*
X143327Y320488D01*
X144000Y320400D01*
X144673Y320488D01*
X145300Y320748D01*
X145839Y321161D01*
X146252Y321700D01*
X146512Y322327D01*
X146600Y323000D01*
X146512Y323673D01*
X146252Y324300D01*
X145839Y324839D01*
X145300Y325252D01*
X144673Y325512D01*
X144000Y325600D01*
D02*
G37*
G36*
X81000Y323600D02*
X80327Y323512D01*
X79700Y323252D01*
X79161Y322839D01*
X78748Y322300D01*
X78488Y321673D01*
X78400Y321000D01*
X78488Y320327D01*
X78748Y319700D01*
X79161Y319161D01*
X79700Y318748D01*
X80327Y318488D01*
X81000Y318400D01*
X81673Y318488D01*
X82300Y318748D01*
X82839Y319161D01*
X83252Y319700D01*
X83512Y320327D01*
X83600Y321000D01*
X83512Y321673D01*
X83252Y322300D01*
X82839Y322839D01*
X82300Y323252D01*
X81673Y323512D01*
X81000Y323600D01*
D02*
G37*
G36*
X45000D02*
X44327Y323512D01*
X43700Y323252D01*
X43161Y322839D01*
X42748Y322300D01*
X42488Y321673D01*
X42400Y321000D01*
X42488Y320327D01*
X42748Y319700D01*
X43161Y319161D01*
X43700Y318748D01*
X44327Y318488D01*
X45000Y318400D01*
X45673Y318488D01*
X46300Y318748D01*
X46839Y319161D01*
X47252Y319700D01*
X47512Y320327D01*
X47600Y321000D01*
X47512Y321673D01*
X47252Y322300D01*
X46839Y322839D01*
X46300Y323252D01*
X45673Y323512D01*
X45000Y323600D01*
D02*
G37*
G36*
X197000Y327600D02*
X196327Y327512D01*
X195700Y327252D01*
X195161Y326839D01*
X194748Y326300D01*
X194488Y325673D01*
X194400Y325000D01*
X194488Y324327D01*
X194748Y323700D01*
X195161Y323161D01*
X195700Y322748D01*
X196004Y322622D01*
X196353Y322421D01*
X196738Y321423D01*
X196650Y320750D01*
X196738Y320077D01*
X196998Y319450D01*
X197411Y318911D01*
X197950Y318498D01*
X198577Y318238D01*
X199250Y318150D01*
X199923Y318238D01*
X200550Y318498D01*
X201089Y318911D01*
X201502Y319450D01*
X201762Y320077D01*
X201850Y320750D01*
X201762Y321423D01*
X201502Y322050D01*
X201089Y322589D01*
X200550Y323002D01*
X200246Y323128D01*
X199897Y323329D01*
X199512Y324327D01*
X199600Y325000D01*
X199512Y325673D01*
X199252Y326300D01*
X198839Y326839D01*
X198300Y327252D01*
X197673Y327512D01*
X197000Y327600D01*
D02*
G37*
G36*
X22000Y321600D02*
X21327Y321512D01*
X20700Y321252D01*
X20161Y320839D01*
X19748Y320300D01*
X19488Y319673D01*
X19400Y319000D01*
X19488Y318327D01*
X19748Y317700D01*
X20161Y317161D01*
X20700Y316748D01*
X21327Y316488D01*
X22000Y316400D01*
X22673Y316488D01*
X23300Y316748D01*
X23839Y317161D01*
X24252Y317700D01*
X24512Y318327D01*
X24600Y319000D01*
X24512Y319673D01*
X24252Y320300D01*
X23839Y320839D01*
X23300Y321252D01*
X22673Y321512D01*
X22000Y321600D01*
D02*
G37*
G36*
X163000Y319600D02*
X162327Y319512D01*
X161700Y319252D01*
X161161Y318839D01*
X160748Y318300D01*
X160488Y317673D01*
X160400Y317000D01*
X160488Y316327D01*
X160748Y315700D01*
X161161Y315161D01*
X161700Y314748D01*
X162327Y314488D01*
X163000Y314400D01*
X163673Y314488D01*
X164300Y314748D01*
X164839Y315161D01*
X165252Y315700D01*
X165512Y316327D01*
X165600Y317000D01*
X165512Y317673D01*
X165252Y318300D01*
X164839Y318839D01*
X164300Y319252D01*
X163673Y319512D01*
X163000Y319600D01*
D02*
G37*
G36*
X231000Y315600D02*
X230327Y315512D01*
X229700Y315252D01*
X229161Y314839D01*
X228748Y314300D01*
X228488Y313673D01*
X228400Y313000D01*
X228488Y312327D01*
X228748Y311700D01*
X229161Y311161D01*
X229700Y310748D01*
X230327Y310488D01*
X231000Y310400D01*
X231673Y310488D01*
X232300Y310748D01*
X232839Y311161D01*
X233252Y311700D01*
X233512Y312327D01*
X233600Y313000D01*
X233512Y313673D01*
X233252Y314300D01*
X232839Y314839D01*
X232300Y315252D01*
X231673Y315512D01*
X231000Y315600D01*
D02*
G37*
G36*
X185000Y311600D02*
X184327Y311512D01*
X183700Y311252D01*
X183161Y310839D01*
X182748Y310300D01*
X182488Y309673D01*
X182400Y309000D01*
X182488Y308327D01*
X182748Y307700D01*
X183161Y307161D01*
X183700Y306748D01*
X184327Y306488D01*
X185000Y306400D01*
X185673Y306488D01*
X186300Y306748D01*
X186839Y307161D01*
X187252Y307700D01*
X187512Y308327D01*
X187600Y309000D01*
X187512Y309673D01*
X187252Y310300D01*
X186839Y310839D01*
X186300Y311252D01*
X185673Y311512D01*
X185000Y311600D01*
D02*
G37*
G36*
X106000Y310600D02*
X105327Y310512D01*
X104700Y310252D01*
X104161Y309839D01*
X103748Y309300D01*
X103488Y308673D01*
X103400Y308000D01*
X103488Y307327D01*
X103748Y306700D01*
X104161Y306161D01*
X104700Y305748D01*
X105327Y305488D01*
X106000Y305400D01*
X106673Y305488D01*
X107300Y305748D01*
X107839Y306161D01*
X108252Y306700D01*
X108512Y307327D01*
X108600Y308000D01*
X108512Y308673D01*
X108252Y309300D01*
X107839Y309839D01*
X107300Y310252D01*
X106673Y310512D01*
X106000Y310600D01*
D02*
G37*
G36*
X151000Y307600D02*
X150327Y307512D01*
X149700Y307252D01*
X149161Y306839D01*
X148748Y306300D01*
X148488Y305673D01*
X148400Y305000D01*
X148488Y304327D01*
X148748Y303700D01*
X149161Y303161D01*
X149700Y302748D01*
X150327Y302488D01*
X151000Y302400D01*
X151673Y302488D01*
X152300Y302748D01*
X152839Y303161D01*
X153252Y303700D01*
X153512Y304327D01*
X153600Y305000D01*
X153512Y305673D01*
X153252Y306300D01*
X152839Y306839D01*
X152300Y307252D01*
X151673Y307512D01*
X151000Y307600D01*
D02*
G37*
G36*
X229000Y306600D02*
X228327Y306512D01*
X227700Y306252D01*
X227161Y305839D01*
X226748Y305300D01*
X226488Y304673D01*
X226400Y304000D01*
X226488Y303327D01*
X226748Y302700D01*
X227161Y302161D01*
X227700Y301748D01*
X228327Y301488D01*
X229000Y301400D01*
X229673Y301488D01*
X230300Y301748D01*
X230839Y302161D01*
X231252Y302700D01*
X231512Y303327D01*
X231600Y304000D01*
X231512Y304673D01*
X231252Y305300D01*
X230839Y305839D01*
X230300Y306252D01*
X229673Y306512D01*
X229000Y306600D01*
D02*
G37*
G36*
X88411Y304012D02*
X87738Y303923D01*
X87111Y303663D01*
X86573Y303250D01*
X86160Y302712D01*
X85900Y302084D01*
X85811Y301411D01*
X85900Y300738D01*
X86160Y300111D01*
X86573Y299573D01*
X87111Y299160D01*
X87738Y298900D01*
X88411Y298811D01*
X89084Y298900D01*
X89711Y299160D01*
X90250Y299573D01*
X90663Y300111D01*
X90923Y300738D01*
X91012Y301411D01*
X90923Y302084D01*
X90663Y302712D01*
X90250Y303250D01*
X89711Y303663D01*
X89084Y303923D01*
X88411Y304012D01*
D02*
G37*
G36*
X351772Y309894D02*
X350629Y309781D01*
X349531Y309448D01*
X348519Y308907D01*
X347632Y308179D01*
X346904Y307292D01*
X346363Y306280D01*
X346030Y305182D01*
X345917Y304039D01*
X346030Y302897D01*
X346363Y301799D01*
X346904Y300787D01*
X347632Y299900D01*
X348519Y299172D01*
X349531Y298631D01*
X350629Y298298D01*
X351772Y298185D01*
X352914Y298298D01*
X354012Y298631D01*
X355024Y299172D01*
X355911Y299900D01*
X356639Y300787D01*
X357180Y301799D01*
X357513Y302897D01*
X357626Y304039D01*
X357513Y305182D01*
X357180Y306280D01*
X356639Y307292D01*
X355911Y308179D01*
X355024Y308907D01*
X354012Y309448D01*
X352914Y309781D01*
X351772Y309894D01*
D02*
G37*
G36*
X163000Y301600D02*
X162327Y301512D01*
X161700Y301252D01*
X161161Y300839D01*
X160748Y300300D01*
X160488Y299673D01*
X160400Y299000D01*
X160488Y298327D01*
X160748Y297700D01*
X161161Y297161D01*
X161700Y296748D01*
X162327Y296488D01*
X163000Y296400D01*
X163673Y296488D01*
X164300Y296748D01*
X164839Y297161D01*
X165252Y297700D01*
X165512Y298327D01*
X165600Y299000D01*
X165512Y299673D01*
X165252Y300300D01*
X164839Y300839D01*
X164300Y301252D01*
X163673Y301512D01*
X163000Y301600D01*
D02*
G37*
G36*
X242000Y299600D02*
X241327Y299512D01*
X240700Y299252D01*
X240161Y298839D01*
X239748Y298300D01*
X239488Y297673D01*
X239400Y297000D01*
X239488Y296327D01*
X239748Y295700D01*
X240161Y295161D01*
X240700Y294748D01*
X241327Y294488D01*
X242000Y294400D01*
X242673Y294488D01*
X243300Y294748D01*
X243839Y295161D01*
X244252Y295700D01*
X244512Y296327D01*
X244600Y297000D01*
X244512Y297673D01*
X244252Y298300D01*
X243839Y298839D01*
X243300Y299252D01*
X242673Y299512D01*
X242000Y299600D01*
D02*
G37*
G36*
X229000D02*
X228327Y299512D01*
X227700Y299252D01*
X227161Y298839D01*
X226748Y298300D01*
X226488Y297673D01*
X226400Y297000D01*
X226488Y296327D01*
X226748Y295700D01*
X227161Y295161D01*
X227700Y294748D01*
X228327Y294488D01*
X229000Y294400D01*
X229673Y294488D01*
X230300Y294748D01*
X230839Y295161D01*
X231252Y295700D01*
X231512Y296327D01*
X231600Y297000D01*
X231512Y297673D01*
X231252Y298300D01*
X230839Y298839D01*
X230300Y299252D01*
X229673Y299512D01*
X229000Y299600D01*
D02*
G37*
G36*
X122589Y299012D02*
X121916Y298923D01*
X121289Y298663D01*
X120750Y298250D01*
X120337Y297711D01*
X120077Y297084D01*
X119988Y296411D01*
X120077Y295738D01*
X120337Y295111D01*
X120750Y294573D01*
X121289Y294160D01*
X121916Y293900D01*
X122589Y293811D01*
X123262Y293900D01*
X123889Y294160D01*
X124427Y294573D01*
X124840Y295111D01*
X125100Y295738D01*
X125189Y296411D01*
X125100Y297084D01*
X124840Y297711D01*
X124427Y298250D01*
X123889Y298663D01*
X123262Y298923D01*
X122589Y299012D01*
D02*
G37*
G36*
X200638Y297962D02*
X199965Y297874D01*
X199338Y297614D01*
X198799Y297201D01*
X198386Y296662D01*
X198126Y296035D01*
X198038Y295362D01*
X198126Y294689D01*
X198386Y294062D01*
X198799Y293524D01*
X199338Y293110D01*
X199965Y292851D01*
X200638Y292762D01*
X201311Y292851D01*
X201938Y293110D01*
X202476Y293524D01*
X202890Y294062D01*
X203149Y294689D01*
X203238Y295362D01*
X203149Y296035D01*
X202890Y296662D01*
X202476Y297201D01*
X201938Y297614D01*
X201311Y297874D01*
X200638Y297962D01*
D02*
G37*
G36*
X145941Y295659D02*
X145268Y295571D01*
X144641Y295311D01*
X144102Y294898D01*
X143689Y294359D01*
X143429Y293732D01*
X143341Y293059D01*
X143429Y292386D01*
X143689Y291759D01*
X144102Y291221D01*
X144641Y290807D01*
X145268Y290548D01*
X145941Y290459D01*
X146614Y290548D01*
X147241Y290807D01*
X147779Y291221D01*
X148193Y291759D01*
X148452Y292386D01*
X148541Y293059D01*
X148452Y293732D01*
X148193Y294359D01*
X147779Y294898D01*
X147241Y295311D01*
X146614Y295571D01*
X145941Y295659D01*
D02*
G37*
G36*
X185000Y295600D02*
X184327Y295512D01*
X183700Y295252D01*
X183161Y294839D01*
X182748Y294300D01*
X182488Y293673D01*
X182400Y293000D01*
X182488Y292327D01*
X182748Y291700D01*
X183161Y291161D01*
X183700Y290748D01*
X184327Y290488D01*
X185000Y290400D01*
X185673Y290488D01*
X186300Y290748D01*
X186839Y291161D01*
X187252Y291700D01*
X187512Y292327D01*
X187600Y293000D01*
X187512Y293673D01*
X187252Y294300D01*
X186839Y294839D01*
X186300Y295252D01*
X185673Y295512D01*
X185000Y295600D01*
D02*
G37*
G36*
X90000Y296600D02*
X89327Y296512D01*
X88700Y296252D01*
X88161Y295839D01*
X87748Y295300D01*
X87488Y294673D01*
X87400Y294000D01*
X87462Y293529D01*
X87327Y293512D01*
X86700Y293252D01*
X86161Y292839D01*
X85748Y292300D01*
X85488Y291673D01*
X85400Y291000D01*
X85488Y290327D01*
X85748Y289700D01*
X86161Y289161D01*
X86700Y288748D01*
X87327Y288488D01*
X88000Y288400D01*
X88673Y288488D01*
X89300Y288748D01*
X89839Y289161D01*
X90252Y289700D01*
X90512Y290327D01*
X90600Y291000D01*
X90538Y291471D01*
X90673Y291488D01*
X91300Y291748D01*
X91839Y292161D01*
X92252Y292700D01*
X92512Y293327D01*
X92600Y294000D01*
X92512Y294673D01*
X92252Y295300D01*
X91839Y295839D01*
X91300Y296252D01*
X90673Y296512D01*
X90000Y296600D01*
D02*
G37*
G36*
X122000Y288600D02*
X121327Y288512D01*
X120700Y288252D01*
X120161Y287839D01*
X119748Y287300D01*
X119488Y286673D01*
X119400Y286000D01*
X119488Y285327D01*
X119748Y284700D01*
X120161Y284161D01*
X120700Y283748D01*
X121327Y283488D01*
X122000Y283400D01*
X122673Y283488D01*
X123300Y283748D01*
X123839Y284161D01*
X124252Y284700D01*
X124512Y285327D01*
X124600Y286000D01*
X124512Y286673D01*
X124252Y287300D01*
X123839Y287839D01*
X123300Y288252D01*
X122673Y288512D01*
X122000Y288600D01*
D02*
G37*
G36*
X69866Y307148D02*
X68705Y306995D01*
X67623Y306547D01*
X66694Y305834D01*
X65981Y304905D01*
X65533Y303823D01*
X65380Y302661D01*
X65533Y301500D01*
X65981Y300418D01*
X66694Y299489D01*
X67623Y298776D01*
X68705Y298328D01*
X69170Y298267D01*
Y297056D01*
X68705Y296995D01*
X67623Y296547D01*
X66694Y295834D01*
X65981Y294905D01*
X65533Y293823D01*
X65380Y292661D01*
X65533Y291500D01*
X65981Y290418D01*
X66694Y289489D01*
X67623Y288776D01*
X68705Y288328D01*
X68845Y288309D01*
X68766Y287109D01*
X65418D01*
Y278213D01*
X74314D01*
Y287109D01*
X70966D01*
X70887Y288309D01*
X71027Y288328D01*
X72109Y288776D01*
X73039Y289489D01*
X73751Y290418D01*
X74200Y291500D01*
X74353Y292661D01*
X74200Y293823D01*
X73751Y294905D01*
X73039Y295834D01*
X72109Y296547D01*
X71027Y296995D01*
X70562Y297056D01*
Y298267D01*
X71027Y298328D01*
X72109Y298776D01*
X73039Y299489D01*
X73751Y300418D01*
X74200Y301500D01*
X74353Y302661D01*
X74200Y303823D01*
X73751Y304905D01*
X73039Y305834D01*
X72109Y306547D01*
X71027Y306995D01*
X69866Y307148D01*
D02*
G37*
G36*
X47866D02*
X46705Y306995D01*
X45623Y306547D01*
X44694Y305834D01*
X43981Y304905D01*
X43533Y303823D01*
X43380Y302661D01*
X43533Y301500D01*
X43981Y300418D01*
X44694Y299489D01*
X45623Y298776D01*
X46705Y298328D01*
X47170Y298267D01*
Y297056D01*
X46705Y296995D01*
X45623Y296547D01*
X44694Y295834D01*
X43981Y294905D01*
X43533Y293823D01*
X43380Y292661D01*
X43533Y291500D01*
X43981Y290418D01*
X44694Y289489D01*
X45623Y288776D01*
X46705Y288328D01*
X46845Y288309D01*
X46766Y287109D01*
X43418D01*
Y278213D01*
X52314D01*
Y287109D01*
X48966D01*
X48887Y288309D01*
X49027Y288328D01*
X50109Y288776D01*
X51039Y289489D01*
X51752Y290418D01*
X52200Y291500D01*
X52353Y292661D01*
X52200Y293823D01*
X51752Y294905D01*
X51039Y295834D01*
X50109Y296547D01*
X49027Y296995D01*
X48562Y297056D01*
Y298267D01*
X49027Y298328D01*
X50109Y298776D01*
X51039Y299489D01*
X51752Y300418D01*
X52200Y301500D01*
X52353Y302661D01*
X52200Y303823D01*
X51752Y304905D01*
X51039Y305834D01*
X50109Y306547D01*
X49027Y306995D01*
X47866Y307148D01*
D02*
G37*
G36*
X26866D02*
X25705Y306995D01*
X24623Y306547D01*
X23694Y305834D01*
X22981Y304905D01*
X22533Y303823D01*
X22380Y302661D01*
X22533Y301500D01*
X22981Y300418D01*
X23694Y299489D01*
X24623Y298776D01*
X25705Y298328D01*
X26171Y298267D01*
Y297056D01*
X25705Y296995D01*
X24623Y296547D01*
X23694Y295834D01*
X22981Y294905D01*
X22533Y293823D01*
X22380Y292661D01*
X22533Y291500D01*
X22981Y290418D01*
X23694Y289489D01*
X24623Y288776D01*
X25705Y288328D01*
X25845Y288309D01*
X25766Y287109D01*
X22418D01*
Y278213D01*
X31314D01*
Y287109D01*
X27966D01*
X27887Y288309D01*
X28027Y288328D01*
X29109Y288776D01*
X30039Y289489D01*
X30751Y290418D01*
X31200Y291500D01*
X31353Y292661D01*
X31200Y293823D01*
X30751Y294905D01*
X30039Y295834D01*
X29109Y296547D01*
X28027Y296995D01*
X27562Y297056D01*
Y298267D01*
X28027Y298328D01*
X29109Y298776D01*
X30039Y299489D01*
X30751Y300418D01*
X31200Y301500D01*
X31353Y302661D01*
X31200Y303823D01*
X30751Y304905D01*
X30039Y305834D01*
X29109Y306547D01*
X28027Y306995D01*
X26866Y307148D01*
D02*
G37*
G36*
X270000Y281600D02*
X269327Y281512D01*
X268700Y281252D01*
X268161Y280839D01*
X267748Y280300D01*
X267488Y279673D01*
X267400Y279000D01*
X267488Y278327D01*
X267748Y277700D01*
X268161Y277161D01*
X268700Y276748D01*
X269327Y276488D01*
X270000Y276400D01*
X270673Y276488D01*
X271300Y276748D01*
X271839Y277161D01*
X272252Y277700D01*
X272512Y278327D01*
X272600Y279000D01*
X272512Y279673D01*
X272252Y280300D01*
X271839Y280839D01*
X271300Y281252D01*
X270673Y281512D01*
X270000Y281600D01*
D02*
G37*
G36*
X343898Y286272D02*
X342756Y286159D01*
X341657Y285826D01*
X340645Y285285D01*
X339758Y284557D01*
X339030Y283670D01*
X338489Y282658D01*
X338156Y281559D01*
X338043Y280417D01*
X338156Y279275D01*
X338489Y278177D01*
X339030Y277165D01*
X339758Y276278D01*
X340645Y275550D01*
X341657Y275009D01*
X342756Y274676D01*
X343898Y274563D01*
X345040Y274676D01*
X346138Y275009D01*
X347150Y275550D01*
X348037Y276278D01*
X348765Y277165D01*
X349306Y278177D01*
X349639Y279275D01*
X349752Y280417D01*
X349639Y281559D01*
X349306Y282658D01*
X348765Y283670D01*
X348037Y284557D01*
X347150Y285285D01*
X346138Y285826D01*
X345040Y286159D01*
X343898Y286272D01*
D02*
G37*
G36*
X295866D02*
X294724Y286159D01*
X293626Y285826D01*
X292614Y285285D01*
X291727Y284557D01*
X290999Y283670D01*
X290458Y282658D01*
X290125Y281559D01*
X290012Y280417D01*
X290125Y279275D01*
X290458Y278177D01*
X290999Y277165D01*
X291727Y276278D01*
X292614Y275550D01*
X293626Y275009D01*
X294724Y274676D01*
X295866Y274563D01*
X297008Y274676D01*
X298107Y275009D01*
X299119Y275550D01*
X300006Y276278D01*
X300734Y277165D01*
X301275Y278177D01*
X301608Y279275D01*
X301720Y280417D01*
X301608Y281559D01*
X301275Y282658D01*
X300734Y283670D01*
X300006Y284557D01*
X299119Y285285D01*
X298107Y285826D01*
X297008Y286159D01*
X295866Y286272D01*
D02*
G37*
G36*
X261000Y279600D02*
X260327Y279512D01*
X259700Y279252D01*
X259161Y278839D01*
X258748Y278300D01*
X258488Y277673D01*
X258400Y277000D01*
X258488Y276327D01*
X258748Y275700D01*
X259161Y275161D01*
X259700Y274748D01*
X260327Y274488D01*
X261000Y274400D01*
X261673Y274488D01*
X262300Y274748D01*
X262839Y275161D01*
X263252Y275700D01*
X263512Y276327D01*
X263600Y277000D01*
X263512Y277673D01*
X263252Y278300D01*
X262839Y278839D01*
X262300Y279252D01*
X261673Y279512D01*
X261000Y279600D01*
D02*
G37*
G36*
X236657Y271943D02*
X235984Y271854D01*
X235357Y271595D01*
X234819Y271181D01*
X234405Y270643D01*
X234146Y270016D01*
X234057Y269343D01*
X234146Y268670D01*
X234405Y268042D01*
X234819Y267504D01*
X235357Y267091D01*
X235984Y266831D01*
X236657Y266742D01*
X237330Y266831D01*
X237958Y267091D01*
X238496Y267504D01*
X238909Y268042D01*
X239169Y268670D01*
X239258Y269343D01*
X239169Y270016D01*
X238909Y270643D01*
X238496Y271181D01*
X237958Y271595D01*
X237330Y271854D01*
X236657Y271943D01*
D02*
G37*
G36*
X253500Y267100D02*
X252827Y267012D01*
X252200Y266752D01*
X251661Y266339D01*
X251248Y265800D01*
X250988Y265173D01*
X250900Y264500D01*
X250988Y263827D01*
X251248Y263200D01*
X251661Y262661D01*
X252200Y262248D01*
X252827Y261988D01*
X253500Y261900D01*
X254173Y261988D01*
X254800Y262248D01*
X255339Y262661D01*
X255752Y263200D01*
X256012Y263827D01*
X256100Y264500D01*
X256012Y265173D01*
X255752Y265800D01*
X255339Y266339D01*
X254800Y266752D01*
X254173Y267012D01*
X253500Y267100D01*
D02*
G37*
G36*
X346000Y266600D02*
X345327Y266512D01*
X344700Y266252D01*
X344161Y265839D01*
X343748Y265300D01*
X343488Y264673D01*
X343400Y264000D01*
X343488Y263327D01*
X343748Y262700D01*
X344161Y262161D01*
X344700Y261748D01*
X345327Y261488D01*
X346000Y261400D01*
X346673Y261488D01*
X347300Y261748D01*
X347839Y262161D01*
X348252Y262700D01*
X348512Y263327D01*
X348600Y264000D01*
X348512Y264673D01*
X348252Y265300D01*
X347839Y265839D01*
X347300Y266252D01*
X346673Y266512D01*
X346000Y266600D01*
D02*
G37*
G36*
X317000Y259600D02*
X316327Y259512D01*
X315700Y259252D01*
X315161Y258839D01*
X314748Y258300D01*
X314488Y257673D01*
X314400Y257000D01*
X314488Y256327D01*
X314748Y255700D01*
X315161Y255161D01*
X315700Y254748D01*
X316327Y254488D01*
X317000Y254400D01*
X317673Y254488D01*
X318300Y254748D01*
X318839Y255161D01*
X319252Y255700D01*
X319512Y256327D01*
X319600Y257000D01*
X319512Y257673D01*
X319252Y258300D01*
X318839Y258839D01*
X318300Y259252D01*
X317673Y259512D01*
X317000Y259600D01*
D02*
G37*
G36*
X243000Y257600D02*
X242327Y257512D01*
X241700Y257252D01*
X241161Y256839D01*
X240748Y256300D01*
X240488Y255673D01*
X240400Y255000D01*
X240488Y254327D01*
X240748Y253700D01*
X241161Y253161D01*
X241700Y252748D01*
X242327Y252488D01*
X243000Y252400D01*
X243673Y252488D01*
X244300Y252748D01*
X244839Y253161D01*
X245252Y253700D01*
X245512Y254327D01*
X245600Y255000D01*
X245512Y255673D01*
X245252Y256300D01*
X244839Y256839D01*
X244300Y257252D01*
X243673Y257512D01*
X243000Y257600D01*
D02*
G37*
G36*
X346000Y252600D02*
X345327Y252512D01*
X344700Y252252D01*
X344161Y251839D01*
X343748Y251300D01*
X343488Y250673D01*
X343400Y250000D01*
X343488Y249327D01*
X343748Y248700D01*
X344161Y248161D01*
X344700Y247748D01*
X345327Y247488D01*
X346000Y247400D01*
X346673Y247488D01*
X347300Y247748D01*
X347839Y248161D01*
X348252Y248700D01*
X348512Y249327D01*
X348600Y250000D01*
X348512Y250673D01*
X348252Y251300D01*
X347839Y251839D01*
X347300Y252252D01*
X346673Y252512D01*
X346000Y252600D01*
D02*
G37*
G36*
X326000D02*
X325327Y252512D01*
X324700Y252252D01*
X324161Y251839D01*
X323748Y251300D01*
X323488Y250673D01*
X323400Y250000D01*
X323488Y249327D01*
X323748Y248700D01*
X324161Y248161D01*
X324700Y247748D01*
X325327Y247488D01*
X326000Y247400D01*
X326673Y247488D01*
X327300Y247748D01*
X327839Y248161D01*
X328252Y248700D01*
X328512Y249327D01*
X328600Y250000D01*
X328512Y250673D01*
X328252Y251300D01*
X327839Y251839D01*
X327300Y252252D01*
X326673Y252512D01*
X326000Y252600D01*
D02*
G37*
G36*
X132866Y248734D02*
X132193Y248645D01*
X131566Y248386D01*
X131028Y247972D01*
X130614Y247434D01*
X130355Y246807D01*
X130266Y246134D01*
X130355Y245461D01*
X130614Y244834D01*
X131028Y244295D01*
X131566Y243882D01*
X132193Y243622D01*
X132866Y243534D01*
X133539Y243622D01*
X134166Y243882D01*
X134705Y244295D01*
X135118Y244834D01*
X135378Y245461D01*
X135466Y246134D01*
X135378Y246807D01*
X135118Y247434D01*
X134705Y247972D01*
X134166Y248386D01*
X133539Y248645D01*
X132866Y248734D01*
D02*
G37*
G36*
X117000Y248600D02*
X116327Y248512D01*
X115700Y248252D01*
X115161Y247839D01*
X114748Y247300D01*
X114488Y246673D01*
X114400Y246000D01*
X114488Y245327D01*
X114748Y244700D01*
X115161Y244161D01*
X115700Y243748D01*
X116327Y243488D01*
X117000Y243400D01*
X117673Y243488D01*
X118300Y243748D01*
X118839Y244161D01*
X119252Y244700D01*
X119512Y245327D01*
X119600Y246000D01*
X119512Y246673D01*
X119252Y247300D01*
X118839Y247839D01*
X118300Y248252D01*
X117673Y248512D01*
X117000Y248600D01*
D02*
G37*
G36*
X109000D02*
X108327Y248512D01*
X107700Y248252D01*
X107161Y247839D01*
X106748Y247300D01*
X106488Y246673D01*
X106400Y246000D01*
X106488Y245327D01*
X106748Y244700D01*
X107161Y244161D01*
X107700Y243748D01*
X108327Y243488D01*
X109000Y243400D01*
X109673Y243488D01*
X110300Y243748D01*
X110839Y244161D01*
X111252Y244700D01*
X111512Y245327D01*
X111600Y246000D01*
X111512Y246673D01*
X111252Y247300D01*
X110839Y247839D01*
X110300Y248252D01*
X109673Y248512D01*
X109000Y248600D01*
D02*
G37*
G36*
X124866Y248466D02*
X124193Y248378D01*
X123566Y248118D01*
X123028Y247705D01*
X122614Y247166D01*
X122355Y246539D01*
X122266Y245866D01*
X122355Y245193D01*
X122614Y244566D01*
X123028Y244028D01*
X123566Y243614D01*
X124193Y243355D01*
X124866Y243266D01*
X125539Y243355D01*
X126166Y243614D01*
X126705Y244028D01*
X127118Y244566D01*
X127378Y245193D01*
X127466Y245866D01*
X127378Y246539D01*
X127118Y247166D01*
X126705Y247705D01*
X126166Y248118D01*
X125539Y248378D01*
X124866Y248466D01*
D02*
G37*
G36*
X49000Y247600D02*
X48327Y247512D01*
X47700Y247252D01*
X47161Y246839D01*
X46748Y246300D01*
X46488Y245673D01*
X46400Y245000D01*
X46488Y244327D01*
X46748Y243700D01*
X47161Y243161D01*
X47700Y242748D01*
X48327Y242488D01*
X49000Y242400D01*
X49673Y242488D01*
X50300Y242748D01*
X50839Y243161D01*
X51252Y243700D01*
X51512Y244327D01*
X51600Y245000D01*
X51512Y245673D01*
X51252Y246300D01*
X50839Y246839D01*
X50300Y247252D01*
X49673Y247512D01*
X49000Y247600D01*
D02*
G37*
G36*
X42000Y247600D02*
X41327Y247512D01*
X40700Y247252D01*
X40161Y246839D01*
X39748Y246300D01*
X39488Y245673D01*
X39400Y245000D01*
X39488Y244327D01*
X39748Y243700D01*
X40161Y243161D01*
X40700Y242748D01*
X41327Y242488D01*
X42000Y242400D01*
X42673Y242488D01*
X43300Y242748D01*
X43839Y243161D01*
X44252Y243700D01*
X44512Y244327D01*
X44600Y245000D01*
X44512Y245673D01*
X44252Y246300D01*
X43839Y246839D01*
X43300Y247252D01*
X42673Y247512D01*
X42000Y247600D01*
D02*
G37*
G36*
X34000D02*
X33327Y247512D01*
X32700Y247252D01*
X32161Y246839D01*
X31748Y246300D01*
X31488Y245673D01*
X31400Y245000D01*
X31488Y244327D01*
X31748Y243700D01*
X32161Y243161D01*
X32700Y242748D01*
X33327Y242488D01*
X34000Y242400D01*
X34673Y242488D01*
X35300Y242748D01*
X35839Y243161D01*
X36252Y243700D01*
X36512Y244327D01*
X36600Y245000D01*
X36512Y245673D01*
X36252Y246300D01*
X35839Y246839D01*
X35300Y247252D01*
X34673Y247512D01*
X34000Y247600D01*
D02*
G37*
G36*
X26000D02*
X25327Y247512D01*
X24700Y247252D01*
X24161Y246839D01*
X23748Y246300D01*
X23488Y245673D01*
X23400Y245000D01*
X23488Y244327D01*
X23748Y243700D01*
X24161Y243161D01*
X24700Y242748D01*
X25327Y242488D01*
X26000Y242400D01*
X26673Y242488D01*
X27300Y242748D01*
X27839Y243161D01*
X28252Y243700D01*
X28512Y244327D01*
X28600Y245000D01*
X28512Y245673D01*
X28252Y246300D01*
X27839Y246839D01*
X27300Y247252D01*
X26673Y247512D01*
X26000Y247600D01*
D02*
G37*
G36*
X216000Y245600D02*
X215327Y245512D01*
X214700Y245252D01*
X214161Y244839D01*
X213748Y244300D01*
X213488Y243673D01*
X213400Y243000D01*
X213488Y242327D01*
X213748Y241700D01*
X214161Y241161D01*
X214700Y240748D01*
X215327Y240488D01*
X216000Y240400D01*
X216673Y240488D01*
X217300Y240748D01*
X217839Y241161D01*
X218252Y241700D01*
X218512Y242327D01*
X218600Y243000D01*
X218512Y243673D01*
X218252Y244300D01*
X217839Y244839D01*
X217300Y245252D01*
X216673Y245512D01*
X216000Y245600D01*
D02*
G37*
G36*
X207000D02*
X206327Y245512D01*
X205700Y245252D01*
X205161Y244839D01*
X204748Y244300D01*
X204488Y243673D01*
X204400Y243000D01*
X204488Y242327D01*
X204748Y241700D01*
X205161Y241161D01*
X205700Y240748D01*
X206327Y240488D01*
X207000Y240400D01*
X207673Y240488D01*
X208300Y240748D01*
X208839Y241161D01*
X209252Y241700D01*
X209512Y242327D01*
X209600Y243000D01*
X209512Y243673D01*
X209252Y244300D01*
X208839Y244839D01*
X208300Y245252D01*
X207673Y245512D01*
X207000Y245600D01*
D02*
G37*
G36*
X198000D02*
X197327Y245512D01*
X196700Y245252D01*
X196161Y244839D01*
X195748Y244300D01*
X195488Y243673D01*
X195400Y243000D01*
X195488Y242327D01*
X195748Y241700D01*
X196161Y241161D01*
X196700Y240748D01*
X197327Y240488D01*
X198000Y240400D01*
X198673Y240488D01*
X199300Y240748D01*
X199839Y241161D01*
X200252Y241700D01*
X200512Y242327D01*
X200600Y243000D01*
X200512Y243673D01*
X200252Y244300D01*
X199839Y244839D01*
X199300Y245252D01*
X198673Y245512D01*
X198000Y245600D01*
D02*
G37*
G36*
X189000D02*
X188327Y245512D01*
X187700Y245252D01*
X187161Y244839D01*
X186748Y244300D01*
X186488Y243673D01*
X186400Y243000D01*
X186488Y242327D01*
X186748Y241700D01*
X187161Y241161D01*
X187700Y240748D01*
X188327Y240488D01*
X189000Y240400D01*
X189673Y240488D01*
X190300Y240748D01*
X190839Y241161D01*
X191252Y241700D01*
X191512Y242327D01*
X191600Y243000D01*
X191512Y243673D01*
X191252Y244300D01*
X190839Y244839D01*
X190300Y245252D01*
X189673Y245512D01*
X189000Y245600D01*
D02*
G37*
G36*
X359000Y244600D02*
X358327Y244512D01*
X357700Y244252D01*
X357161Y243839D01*
X356748Y243300D01*
X356488Y242673D01*
X356400Y242000D01*
X356488Y241327D01*
X356748Y240700D01*
X357161Y240161D01*
X357700Y239748D01*
X358327Y239488D01*
X359000Y239400D01*
X359673Y239488D01*
X360300Y239748D01*
X360839Y240161D01*
X361252Y240700D01*
X361512Y241327D01*
X361600Y242000D01*
X361512Y242673D01*
X361252Y243300D01*
X360839Y243839D01*
X360300Y244252D01*
X359673Y244512D01*
X359000Y244600D01*
D02*
G37*
G36*
X342441Y244159D02*
X341768Y244071D01*
X341141Y243811D01*
X340602Y243398D01*
X340189Y242859D01*
X339929Y242232D01*
X339841Y241559D01*
X339929Y240886D01*
X340189Y240259D01*
X340602Y239720D01*
X341141Y239307D01*
X341768Y239047D01*
X342441Y238959D01*
X343114Y239047D01*
X343741Y239307D01*
X344280Y239720D01*
X344693Y240259D01*
X344953Y240886D01*
X345041Y241559D01*
X344953Y242232D01*
X344693Y242859D01*
X344280Y243398D01*
X343741Y243811D01*
X343114Y244071D01*
X342441Y244159D01*
D02*
G37*
G36*
X309980Y244113D02*
X302068D01*
Y236202D01*
X309980D01*
Y244113D01*
D02*
G37*
G36*
X316024Y244147D02*
X314991Y244011D01*
X314029Y243613D01*
X313202Y242979D01*
X312568Y242152D01*
X312170Y241190D01*
X312034Y240157D01*
X312170Y239125D01*
X312568Y238162D01*
X313202Y237336D01*
X314029Y236702D01*
X314991Y236303D01*
X316024Y236167D01*
X317056Y236303D01*
X318019Y236702D01*
X318845Y237336D01*
X319479Y238162D01*
X319878Y239125D01*
X320014Y240157D01*
X319878Y241190D01*
X319479Y242152D01*
X318845Y242979D01*
X318019Y243613D01*
X317056Y244011D01*
X316024Y244147D01*
D02*
G37*
G36*
X339000Y235600D02*
X338327Y235512D01*
X337700Y235252D01*
X337161Y234839D01*
X336748Y234300D01*
X336488Y233673D01*
X336400Y233000D01*
X336488Y232327D01*
X336748Y231700D01*
X337161Y231161D01*
X337700Y230748D01*
X338327Y230488D01*
X339000Y230400D01*
X339673Y230488D01*
X340300Y230748D01*
X340839Y231161D01*
X341252Y231700D01*
X341512Y232327D01*
X341600Y233000D01*
X341512Y233673D01*
X341252Y234300D01*
X340839Y234839D01*
X340300Y235252D01*
X339673Y235512D01*
X339000Y235600D01*
D02*
G37*
G36*
X332000Y235600D02*
X331327Y235512D01*
X330700Y235252D01*
X330161Y234839D01*
X329748Y234300D01*
X329488Y233673D01*
X329400Y233000D01*
X329488Y232327D01*
X329748Y231700D01*
X330161Y231161D01*
X330700Y230748D01*
X331327Y230488D01*
X332000Y230400D01*
X332673Y230488D01*
X333300Y230748D01*
X333839Y231161D01*
X334252Y231700D01*
X334512Y232327D01*
X334600Y233000D01*
X334512Y233673D01*
X334252Y234300D01*
X333839Y234839D01*
X333300Y235252D01*
X332673Y235512D01*
X332000Y235600D01*
D02*
G37*
G36*
X318000Y231600D02*
X317327Y231512D01*
X316700Y231252D01*
X316161Y230839D01*
X315748Y230300D01*
X315488Y229673D01*
X315400Y229000D01*
X315488Y228327D01*
X315748Y227700D01*
X316161Y227161D01*
X316700Y226748D01*
X317327Y226488D01*
X318000Y226400D01*
X318673Y226488D01*
X319300Y226748D01*
X319839Y227161D01*
X320252Y227700D01*
X320512Y228327D01*
X320600Y229000D01*
X320512Y229673D01*
X320252Y230300D01*
X319839Y230839D01*
X319300Y231252D01*
X318673Y231512D01*
X318000Y231600D01*
D02*
G37*
G36*
X219724Y234709D02*
X218628Y234564D01*
X217606Y234141D01*
X216729Y233468D01*
X216056Y232591D01*
X215633Y231569D01*
X215488Y230472D01*
X215633Y229376D01*
X216056Y228354D01*
X216729Y227477D01*
X217606Y226804D01*
X218628Y226380D01*
X219724Y226236D01*
X220821Y226380D01*
X221843Y226804D01*
X222720Y227477D01*
X223393Y228354D01*
X223816Y229376D01*
X223961Y230472D01*
X223816Y231569D01*
X223393Y232591D01*
X222720Y233468D01*
X221843Y234141D01*
X220821Y234564D01*
X219724Y234709D01*
D02*
G37*
G36*
X189724D02*
X188628Y234564D01*
X187606Y234141D01*
X186729Y233468D01*
X186056Y232591D01*
X185633Y231569D01*
X185488Y230472D01*
X185633Y229376D01*
X186056Y228354D01*
X186729Y227477D01*
X187606Y226804D01*
X188628Y226380D01*
X189724Y226236D01*
X190821Y226380D01*
X191842Y226804D01*
X192720Y227477D01*
X193393Y228354D01*
X193816Y229376D01*
X193961Y230472D01*
X193816Y231569D01*
X193393Y232591D01*
X192720Y233468D01*
X191842Y234141D01*
X190821Y234564D01*
X189724Y234709D01*
D02*
G37*
G36*
X137047D02*
X135951Y234564D01*
X134929Y234141D01*
X134052Y233468D01*
X133379Y232591D01*
X132955Y231569D01*
X132811Y230472D01*
X132955Y229376D01*
X133379Y228354D01*
X134052Y227477D01*
X134929Y226804D01*
X135951Y226380D01*
X137047Y226236D01*
X138144Y226380D01*
X139165Y226804D01*
X140043Y227477D01*
X140716Y228354D01*
X141139Y229376D01*
X141283Y230472D01*
X141139Y231569D01*
X140716Y232591D01*
X140043Y233468D01*
X139165Y234141D01*
X138144Y234564D01*
X137047Y234709D01*
D02*
G37*
G36*
X107047D02*
X105951Y234564D01*
X104929Y234141D01*
X104052Y233468D01*
X103378Y232591D01*
X102955Y231569D01*
X102811Y230472D01*
X102955Y229376D01*
X103378Y228354D01*
X104052Y227477D01*
X104929Y226804D01*
X105951Y226380D01*
X107047Y226236D01*
X108144Y226380D01*
X109165Y226804D01*
X110043Y227477D01*
X110716Y228354D01*
X111139Y229376D01*
X111283Y230472D01*
X111139Y231569D01*
X110716Y232591D01*
X110043Y233468D01*
X109165Y234141D01*
X108144Y234564D01*
X107047Y234709D01*
D02*
G37*
G36*
X54370D02*
X53274Y234564D01*
X52252Y234141D01*
X51375Y233468D01*
X50701Y232591D01*
X50278Y231569D01*
X50134Y230472D01*
X50278Y229376D01*
X50701Y228354D01*
X51375Y227477D01*
X52252Y226804D01*
X53274Y226380D01*
X54370Y226236D01*
X55466Y226380D01*
X56488Y226804D01*
X57366Y227477D01*
X58039Y228354D01*
X58462Y229376D01*
X58606Y230472D01*
X58462Y231569D01*
X58039Y232591D01*
X57366Y233468D01*
X56488Y234141D01*
X55466Y234564D01*
X54370Y234709D01*
D02*
G37*
G36*
X24370D02*
X23274Y234564D01*
X22252Y234141D01*
X21374Y233468D01*
X20701Y232591D01*
X20278Y231569D01*
X20134Y230472D01*
X20278Y229376D01*
X20701Y228354D01*
X21374Y227477D01*
X22252Y226804D01*
X23274Y226380D01*
X24370Y226236D01*
X25466Y226380D01*
X26488Y226804D01*
X27365Y227477D01*
X28039Y228354D01*
X28462Y229376D01*
X28606Y230472D01*
X28462Y231569D01*
X28039Y232591D01*
X27365Y233468D01*
X26488Y234141D01*
X25466Y234564D01*
X24370Y234709D01*
D02*
G37*
G36*
X348343Y227943D02*
X347670Y227854D01*
X347042Y227594D01*
X346504Y227181D01*
X346091Y226643D01*
X345831Y226016D01*
X345742Y225343D01*
X345831Y224670D01*
X346091Y224043D01*
X346504Y223504D01*
X347042Y223091D01*
X347670Y222831D01*
X348343Y222742D01*
X349016Y222831D01*
X349643Y223091D01*
X350181Y223504D01*
X350594Y224043D01*
X350854Y224670D01*
X350943Y225343D01*
X350854Y226016D01*
X350594Y226643D01*
X350181Y227181D01*
X349643Y227594D01*
X349016Y227854D01*
X348343Y227943D01*
D02*
G37*
G36*
X367343Y227943D02*
X366670Y227854D01*
X366042Y227594D01*
X365504Y227181D01*
X365091Y226643D01*
X364831Y226016D01*
X364742Y225343D01*
X364831Y224670D01*
X365091Y224043D01*
X365504Y223504D01*
X366042Y223091D01*
X366670Y222831D01*
X367343Y222742D01*
X368016Y222831D01*
X368643Y223091D01*
X369181Y223504D01*
X369594Y224043D01*
X369854Y224670D01*
X369943Y225343D01*
X369854Y226016D01*
X369594Y226643D01*
X369181Y227181D01*
X368643Y227594D01*
X368016Y227854D01*
X367343Y227943D01*
D02*
G37*
G36*
X220224Y224441D02*
Y220972D01*
X223693D01*
X223621Y221517D01*
X223218Y222490D01*
X222577Y223325D01*
X221742Y223966D01*
X220769Y224370D01*
X220224Y224441D01*
D02*
G37*
G36*
X190224D02*
Y220972D01*
X193693D01*
X193621Y221517D01*
X193218Y222490D01*
X192577Y223325D01*
X191742Y223966D01*
X190769Y224370D01*
X190224Y224441D01*
D02*
G37*
G36*
X137547D02*
Y220972D01*
X141016D01*
X140944Y221517D01*
X140541Y222490D01*
X139900Y223325D01*
X139065Y223966D01*
X138091Y224370D01*
X137547Y224441D01*
D02*
G37*
G36*
X107547D02*
Y220972D01*
X111016D01*
X110944Y221517D01*
X110541Y222490D01*
X109900Y223325D01*
X109064Y223966D01*
X108091Y224370D01*
X107547Y224441D01*
D02*
G37*
G36*
X54870D02*
Y220972D01*
X58339D01*
X58267Y221517D01*
X57864Y222490D01*
X57223Y223325D01*
X56387Y223966D01*
X55414Y224370D01*
X54870Y224441D01*
D02*
G37*
G36*
X24870D02*
Y220972D01*
X28339D01*
X28267Y221517D01*
X27864Y222490D01*
X27223Y223325D01*
X26387Y223966D01*
X25414Y224370D01*
X24870Y224441D01*
D02*
G37*
G36*
X219224D02*
X218680Y224370D01*
X217707Y223966D01*
X216872Y223325D01*
X216230Y222490D01*
X215827Y221517D01*
X215756Y220972D01*
X219224D01*
Y224441D01*
D02*
G37*
G36*
X189224D02*
X188680Y224370D01*
X187707Y223966D01*
X186872Y223325D01*
X186230Y222490D01*
X185827Y221517D01*
X185756Y220972D01*
X189224D01*
Y224441D01*
D02*
G37*
G36*
X136547D02*
X136003Y224370D01*
X135030Y223966D01*
X134194Y223325D01*
X133553Y222490D01*
X133150Y221517D01*
X133079Y220972D01*
X136547D01*
Y224441D01*
D02*
G37*
G36*
X106547D02*
X106003Y224370D01*
X105030Y223966D01*
X104194Y223325D01*
X103553Y222490D01*
X103150Y221517D01*
X103078Y220972D01*
X106547D01*
Y224441D01*
D02*
G37*
G36*
X53870D02*
X53326Y224370D01*
X52353Y223966D01*
X51517Y223325D01*
X50876Y222490D01*
X50473Y221517D01*
X50401Y220972D01*
X53870D01*
Y224441D01*
D02*
G37*
G36*
X23870D02*
X23326Y224370D01*
X22353Y223966D01*
X21517Y223325D01*
X20876Y222490D01*
X20473Y221517D01*
X20401Y220972D01*
X23870D01*
Y224441D01*
D02*
G37*
G36*
X262736Y224428D02*
X254824D01*
Y216516D01*
X262736D01*
Y224428D01*
D02*
G37*
G36*
X223693Y219972D02*
X220224D01*
Y216504D01*
X220769Y216575D01*
X221742Y216978D01*
X222577Y217620D01*
X223218Y218455D01*
X223621Y219428D01*
X223693Y219972D01*
D02*
G37*
G36*
X193693D02*
X190224D01*
Y216504D01*
X190769Y216575D01*
X191742Y216978D01*
X192577Y217620D01*
X193218Y218455D01*
X193621Y219428D01*
X193693Y219972D01*
D02*
G37*
G36*
X141016D02*
X137547D01*
Y216504D01*
X138091Y216575D01*
X139065Y216978D01*
X139900Y217620D01*
X140541Y218455D01*
X140944Y219428D01*
X141016Y219972D01*
D02*
G37*
G36*
X111016D02*
X107547D01*
Y216504D01*
X108091Y216575D01*
X109064Y216978D01*
X109900Y217620D01*
X110541Y218455D01*
X110944Y219428D01*
X111016Y219972D01*
D02*
G37*
G36*
X58339D02*
X54870D01*
Y216504D01*
X55414Y216575D01*
X56387Y216978D01*
X57223Y217620D01*
X57864Y218455D01*
X58267Y219428D01*
X58339Y219972D01*
D02*
G37*
G36*
X28339D02*
X24870D01*
Y216504D01*
X25414Y216575D01*
X26387Y216978D01*
X27223Y217620D01*
X27864Y218455D01*
X28267Y219428D01*
X28339Y219972D01*
D02*
G37*
G36*
X219224D02*
X215756D01*
X215827Y219428D01*
X216230Y218455D01*
X216872Y217620D01*
X217707Y216978D01*
X218680Y216575D01*
X219224Y216504D01*
Y219972D01*
D02*
G37*
G36*
X189224D02*
X185756D01*
X185827Y219428D01*
X186230Y218455D01*
X186872Y217620D01*
X187707Y216978D01*
X188680Y216575D01*
X189224Y216504D01*
Y219972D01*
D02*
G37*
G36*
X136547D02*
X133079D01*
X133150Y219428D01*
X133553Y218455D01*
X134194Y217620D01*
X135030Y216978D01*
X136003Y216575D01*
X136547Y216504D01*
Y219972D01*
D02*
G37*
G36*
X106547D02*
X103078D01*
X103150Y219428D01*
X103553Y218455D01*
X104194Y217620D01*
X105030Y216978D01*
X106003Y216575D01*
X106547Y216504D01*
Y219972D01*
D02*
G37*
G36*
X53870D02*
X50401D01*
X50473Y219428D01*
X50876Y218455D01*
X51517Y217620D01*
X52353Y216978D01*
X53326Y216575D01*
X53870Y216504D01*
Y219972D01*
D02*
G37*
G36*
X23870D02*
X20401D01*
X20473Y219428D01*
X20876Y218455D01*
X21517Y217620D01*
X22353Y216978D01*
X23326Y216575D01*
X23870Y216504D01*
Y219972D01*
D02*
G37*
G36*
X268780Y224462D02*
X267747Y224326D01*
X266785Y223928D01*
X265958Y223294D01*
X265324Y222467D01*
X264926Y221505D01*
X264790Y220472D01*
X264926Y219440D01*
X265324Y218477D01*
X265958Y217651D01*
X266785Y217017D01*
X267747Y216618D01*
X268780Y216482D01*
X269812Y216618D01*
X270775Y217017D01*
X271601Y217651D01*
X272235Y218477D01*
X272634Y219440D01*
X272770Y220472D01*
X272634Y221505D01*
X272235Y222467D01*
X271601Y223294D01*
X270775Y223928D01*
X269812Y224326D01*
X268780Y224462D01*
D02*
G37*
G36*
X364638Y221238D02*
X363965Y221149D01*
X363338Y220890D01*
X362799Y220476D01*
X362386Y219938D01*
X362126Y219311D01*
X362037Y218638D01*
X362126Y217965D01*
X362386Y217338D01*
X362799Y216799D01*
X363338Y216386D01*
X363965Y216126D01*
X364638Y216038D01*
X365311Y216126D01*
X365938Y216386D01*
X366476Y216799D01*
X366890Y217338D01*
X367149Y217965D01*
X367238Y218638D01*
X367149Y219311D01*
X366890Y219938D01*
X366476Y220476D01*
X365938Y220890D01*
X365311Y221149D01*
X364638Y221238D01*
D02*
G37*
G36*
X292932Y214586D02*
X285020D01*
Y206674D01*
X292932D01*
Y214586D01*
D02*
G37*
G36*
X298976Y214620D02*
X297943Y214484D01*
X296981Y214086D01*
X296154Y213451D01*
X295520Y212625D01*
X295122Y211663D01*
X294986Y210630D01*
X295122Y209597D01*
X295520Y208635D01*
X296154Y207809D01*
X296981Y207174D01*
X297943Y206776D01*
X298976Y206640D01*
X300009Y206776D01*
X300971Y207174D01*
X301797Y207809D01*
X302431Y208635D01*
X302830Y209597D01*
X302966Y210630D01*
X302830Y211663D01*
X302431Y212625D01*
X301797Y213451D01*
X300971Y214086D01*
X300009Y214484D01*
X298976Y214620D01*
D02*
G37*
G36*
X219724Y214709D02*
X218628Y214564D01*
X217606Y214141D01*
X216729Y213468D01*
X216056Y212591D01*
X215633Y211569D01*
X215488Y210472D01*
X215633Y209376D01*
X216056Y208354D01*
X216729Y207477D01*
X217606Y206804D01*
X218628Y206381D01*
X219724Y206236D01*
X220821Y206381D01*
X221843Y206804D01*
X222720Y207477D01*
X223393Y208354D01*
X223816Y209376D01*
X223961Y210472D01*
X223816Y211569D01*
X223393Y212591D01*
X222720Y213468D01*
X221843Y214141D01*
X220821Y214564D01*
X219724Y214709D01*
D02*
G37*
G36*
X189724D02*
X188628Y214564D01*
X187606Y214141D01*
X186729Y213468D01*
X186056Y212591D01*
X185633Y211569D01*
X185488Y210472D01*
X185633Y209376D01*
X186056Y208354D01*
X186729Y207477D01*
X187606Y206804D01*
X188628Y206381D01*
X189724Y206236D01*
X190821Y206381D01*
X191842Y206804D01*
X192720Y207477D01*
X193393Y208354D01*
X193816Y209376D01*
X193961Y210472D01*
X193816Y211569D01*
X193393Y212591D01*
X192720Y213468D01*
X191842Y214141D01*
X190821Y214564D01*
X189724Y214709D01*
D02*
G37*
G36*
X137047D02*
X135951Y214564D01*
X134929Y214141D01*
X134052Y213468D01*
X133379Y212591D01*
X132955Y211569D01*
X132811Y210472D01*
X132955Y209376D01*
X133379Y208354D01*
X134052Y207477D01*
X134929Y206804D01*
X135951Y206381D01*
X137047Y206236D01*
X138144Y206381D01*
X139165Y206804D01*
X140043Y207477D01*
X140716Y208354D01*
X141139Y209376D01*
X141283Y210472D01*
X141139Y211569D01*
X140716Y212591D01*
X140043Y213468D01*
X139165Y214141D01*
X138144Y214564D01*
X137047Y214709D01*
D02*
G37*
G36*
X107047D02*
X105951Y214564D01*
X104929Y214141D01*
X104052Y213468D01*
X103378Y212591D01*
X102955Y211569D01*
X102811Y210472D01*
X102955Y209376D01*
X103378Y208354D01*
X104052Y207477D01*
X104929Y206804D01*
X105951Y206381D01*
X107047Y206236D01*
X108144Y206381D01*
X109165Y206804D01*
X110043Y207477D01*
X110716Y208354D01*
X111139Y209376D01*
X111283Y210472D01*
X111139Y211569D01*
X110716Y212591D01*
X110043Y213468D01*
X109165Y214141D01*
X108144Y214564D01*
X107047Y214709D01*
D02*
G37*
G36*
X54370D02*
X53274Y214564D01*
X52252Y214141D01*
X51375Y213468D01*
X50701Y212591D01*
X50278Y211569D01*
X50134Y210472D01*
X50278Y209376D01*
X50701Y208354D01*
X51375Y207477D01*
X52252Y206804D01*
X53274Y206381D01*
X54370Y206236D01*
X55466Y206381D01*
X56488Y206804D01*
X57366Y207477D01*
X58039Y208354D01*
X58462Y209376D01*
X58606Y210472D01*
X58462Y211569D01*
X58039Y212591D01*
X57366Y213468D01*
X56488Y214141D01*
X55466Y214564D01*
X54370Y214709D01*
D02*
G37*
G36*
X24370D02*
X23274Y214564D01*
X22252Y214141D01*
X21374Y213468D01*
X20701Y212591D01*
X20278Y211569D01*
X20134Y210472D01*
X20278Y209376D01*
X20701Y208354D01*
X21374Y207477D01*
X22252Y206804D01*
X23274Y206381D01*
X24370Y206236D01*
X25466Y206381D01*
X26488Y206804D01*
X27365Y207477D01*
X28039Y208354D01*
X28462Y209376D01*
X28606Y210472D01*
X28462Y211569D01*
X28039Y212591D01*
X27365Y213468D01*
X26488Y214141D01*
X25466Y214564D01*
X24370Y214709D01*
D02*
G37*
G36*
X328030Y214007D02*
X320119D01*
Y206095D01*
X328030D01*
Y214007D01*
D02*
G37*
G36*
X334075Y214041D02*
X333042Y213905D01*
X332080Y213506D01*
X331253Y212872D01*
X330619Y212046D01*
X330221Y211084D01*
X330084Y210051D01*
X330221Y209018D01*
X330619Y208056D01*
X331253Y207229D01*
X332080Y206595D01*
X333042Y206197D01*
X334075Y206061D01*
X335107Y206197D01*
X336070Y206595D01*
X336896Y207229D01*
X337530Y208056D01*
X337929Y209018D01*
X338065Y210051D01*
X337929Y211084D01*
X337530Y212046D01*
X336896Y212872D01*
X336070Y213506D01*
X335107Y213905D01*
X334075Y214041D01*
D02*
G37*
G36*
X42000Y163600D02*
X41327Y163512D01*
X40700Y163252D01*
X40161Y162839D01*
X39748Y162300D01*
X39488Y161673D01*
X39400Y161000D01*
X39488Y160327D01*
X39748Y159700D01*
X40161Y159161D01*
X40700Y158748D01*
X41327Y158488D01*
X42000Y158400D01*
X42673Y158488D01*
X43300Y158748D01*
X43839Y159161D01*
X44252Y159700D01*
X44512Y160327D01*
X44600Y161000D01*
X44512Y161673D01*
X44252Y162300D01*
X43839Y162839D01*
X43300Y163252D01*
X42673Y163512D01*
X42000Y163600D01*
D02*
G37*
G36*
X34000D02*
X33327Y163512D01*
X32700Y163252D01*
X32161Y162839D01*
X31748Y162300D01*
X31488Y161673D01*
X31400Y161000D01*
X31488Y160327D01*
X31748Y159700D01*
X32161Y159161D01*
X32700Y158748D01*
X33327Y158488D01*
X34000Y158400D01*
X34673Y158488D01*
X35300Y158748D01*
X35839Y159161D01*
X36252Y159700D01*
X36512Y160327D01*
X36600Y161000D01*
X36512Y161673D01*
X36252Y162300D01*
X35839Y162839D01*
X35300Y163252D01*
X34673Y163512D01*
X34000Y163600D01*
D02*
G37*
G36*
X50000Y163600D02*
X49327Y163512D01*
X48700Y163252D01*
X48161Y162839D01*
X47748Y162300D01*
X47488Y161673D01*
X47400Y161000D01*
X47488Y160327D01*
X47748Y159700D01*
X48161Y159161D01*
X48700Y158748D01*
X49327Y158488D01*
X50000Y158400D01*
X50673Y158488D01*
X51300Y158748D01*
X51839Y159161D01*
X52252Y159700D01*
X52512Y160327D01*
X52600Y161000D01*
X52512Y161673D01*
X52252Y162300D01*
X51839Y162839D01*
X51300Y163252D01*
X50673Y163512D01*
X50000Y163600D01*
D02*
G37*
G36*
X26000D02*
X25327Y163512D01*
X24700Y163252D01*
X24161Y162839D01*
X23748Y162300D01*
X23488Y161673D01*
X23400Y161000D01*
X23488Y160327D01*
X23748Y159700D01*
X24161Y159161D01*
X24700Y158748D01*
X25327Y158488D01*
X26000Y158400D01*
X26673Y158488D01*
X27300Y158748D01*
X27839Y159161D01*
X28252Y159700D01*
X28512Y160327D01*
X28600Y161000D01*
X28512Y161673D01*
X28252Y162300D01*
X27839Y162839D01*
X27300Y163252D01*
X26673Y163512D01*
X26000Y163600D01*
D02*
G37*
G36*
X137047Y152031D02*
X135951Y151887D01*
X134929Y151464D01*
X134052Y150791D01*
X133379Y149913D01*
X132955Y148892D01*
X132811Y147795D01*
X132955Y146699D01*
X133379Y145677D01*
X134052Y144800D01*
X134929Y144126D01*
X135951Y143703D01*
X137047Y143559D01*
X138144Y143703D01*
X139165Y144126D01*
X140043Y144800D01*
X140716Y145677D01*
X141139Y146699D01*
X141283Y147795D01*
X141139Y148892D01*
X140716Y149913D01*
X140043Y150791D01*
X139165Y151464D01*
X138144Y151887D01*
X137047Y152031D01*
D02*
G37*
G36*
X107047D02*
X105951Y151887D01*
X104929Y151464D01*
X104052Y150791D01*
X103378Y149913D01*
X102955Y148892D01*
X102811Y147795D01*
X102955Y146699D01*
X103378Y145677D01*
X104052Y144800D01*
X104929Y144126D01*
X105951Y143703D01*
X107047Y143559D01*
X108144Y143703D01*
X109165Y144126D01*
X110043Y144800D01*
X110716Y145677D01*
X111139Y146699D01*
X111283Y147795D01*
X111139Y148892D01*
X110716Y149913D01*
X110043Y150791D01*
X109165Y151464D01*
X108144Y151887D01*
X107047Y152031D01*
D02*
G37*
G36*
X54370D02*
X53274Y151887D01*
X52252Y151464D01*
X51375Y150791D01*
X50701Y149913D01*
X50278Y148892D01*
X50134Y147795D01*
X50278Y146699D01*
X50701Y145677D01*
X51375Y144800D01*
X52252Y144126D01*
X53274Y143703D01*
X54370Y143559D01*
X55466Y143703D01*
X56488Y144126D01*
X57366Y144800D01*
X58039Y145677D01*
X58462Y146699D01*
X58606Y147795D01*
X58462Y148892D01*
X58039Y149913D01*
X57366Y150791D01*
X56488Y151464D01*
X55466Y151887D01*
X54370Y152031D01*
D02*
G37*
G36*
X24370D02*
X23274Y151887D01*
X22252Y151464D01*
X21374Y150791D01*
X20701Y149913D01*
X20278Y148892D01*
X20134Y147795D01*
X20278Y146699D01*
X20701Y145677D01*
X21374Y144800D01*
X22252Y144126D01*
X23274Y143703D01*
X24370Y143559D01*
X25466Y143703D01*
X26488Y144126D01*
X27365Y144800D01*
X28039Y145677D01*
X28462Y146699D01*
X28606Y147795D01*
X28462Y148892D01*
X28039Y149913D01*
X27365Y150791D01*
X26488Y151464D01*
X25466Y151887D01*
X24370Y152031D01*
D02*
G37*
G36*
X54870Y141764D02*
Y138295D01*
X58339D01*
X58267Y138839D01*
X57864Y139813D01*
X57223Y140648D01*
X56387Y141289D01*
X55414Y141692D01*
X54870Y141764D01*
D02*
G37*
G36*
X24870D02*
Y138295D01*
X28339D01*
X28267Y138839D01*
X27864Y139813D01*
X27223Y140648D01*
X26387Y141289D01*
X25414Y141692D01*
X24870Y141764D01*
D02*
G37*
G36*
X53870D02*
X53326Y141692D01*
X52353Y141289D01*
X51517Y140648D01*
X50876Y139813D01*
X50473Y138839D01*
X50401Y138295D01*
X53870D01*
Y141764D01*
D02*
G37*
G36*
X23870D02*
X23326Y141692D01*
X22353Y141289D01*
X21517Y140648D01*
X20876Y139813D01*
X20473Y138839D01*
X20401Y138295D01*
X23870D01*
Y141764D01*
D02*
G37*
G36*
X58339Y137295D02*
X54870D01*
Y133826D01*
X55414Y133898D01*
X56387Y134301D01*
X57223Y134942D01*
X57864Y135778D01*
X58267Y136751D01*
X58339Y137295D01*
D02*
G37*
G36*
X28339D02*
X24870D01*
Y133826D01*
X25414Y133898D01*
X26387Y134301D01*
X27223Y134942D01*
X27864Y135778D01*
X28267Y136751D01*
X28339Y137295D01*
D02*
G37*
G36*
X53870D02*
X50401D01*
X50473Y136751D01*
X50876Y135778D01*
X51517Y134942D01*
X52353Y134301D01*
X53326Y133898D01*
X53870Y133826D01*
Y137295D01*
D02*
G37*
G36*
X23870D02*
X20401D01*
X20473Y136751D01*
X20876Y135778D01*
X21517Y134942D01*
X22353Y134301D01*
X23326Y133898D01*
X23870Y133826D01*
Y137295D01*
D02*
G37*
G36*
X137047Y142031D02*
X135951Y141887D01*
X134929Y141464D01*
X134052Y140791D01*
X133379Y139913D01*
X132955Y138892D01*
X132811Y137795D01*
X132955Y136699D01*
X133379Y135677D01*
X134052Y134800D01*
X134929Y134126D01*
X135951Y133703D01*
X137047Y133559D01*
X138144Y133703D01*
X139165Y134126D01*
X140043Y134800D01*
X140716Y135677D01*
X141139Y136699D01*
X141283Y137795D01*
X141139Y138892D01*
X140716Y139913D01*
X140043Y140791D01*
X139165Y141464D01*
X138144Y141887D01*
X137047Y142031D01*
D02*
G37*
G36*
X107047D02*
X105951Y141887D01*
X104929Y141464D01*
X104052Y140791D01*
X103378Y139913D01*
X102955Y138892D01*
X102811Y137795D01*
X102955Y136699D01*
X103378Y135677D01*
X104052Y134800D01*
X104929Y134126D01*
X105951Y133703D01*
X107047Y133559D01*
X108144Y133703D01*
X109165Y134126D01*
X110043Y134800D01*
X110716Y135677D01*
X111139Y136699D01*
X111283Y137795D01*
X111139Y138892D01*
X110716Y139913D01*
X110043Y140791D01*
X109165Y141464D01*
X108144Y141887D01*
X107047Y142031D01*
D02*
G37*
G36*
X232794Y144605D02*
X218387D01*
Y130985D01*
X232794D01*
Y144605D01*
D02*
G37*
G36*
X191062D02*
X176654D01*
Y130985D01*
X191062D01*
Y144605D01*
D02*
G37*
G36*
X137047Y132031D02*
X135951Y131887D01*
X134929Y131464D01*
X134052Y130791D01*
X133379Y129913D01*
X132955Y128892D01*
X132811Y127795D01*
X132955Y126699D01*
X133379Y125677D01*
X134052Y124800D01*
X134929Y124127D01*
X135951Y123703D01*
X137047Y123559D01*
X138144Y123703D01*
X139165Y124127D01*
X140043Y124800D01*
X140716Y125677D01*
X141139Y126699D01*
X141283Y127795D01*
X141139Y128892D01*
X140716Y129913D01*
X140043Y130791D01*
X139165Y131464D01*
X138144Y131887D01*
X137047Y132031D01*
D02*
G37*
G36*
X107047D02*
X105951Y131887D01*
X104929Y131464D01*
X104052Y130791D01*
X103378Y129913D01*
X102955Y128892D01*
X102811Y127795D01*
X102955Y126699D01*
X103378Y125677D01*
X104052Y124800D01*
X104929Y124127D01*
X105951Y123703D01*
X107047Y123559D01*
X108144Y123703D01*
X109165Y124127D01*
X110043Y124800D01*
X110716Y125677D01*
X111139Y126699D01*
X111283Y127795D01*
X111139Y128892D01*
X110716Y129913D01*
X110043Y130791D01*
X109165Y131464D01*
X108144Y131887D01*
X107047Y132031D01*
D02*
G37*
G36*
X54370D02*
X53274Y131887D01*
X52252Y131464D01*
X51375Y130791D01*
X50701Y129913D01*
X50278Y128892D01*
X50134Y127795D01*
X50278Y126699D01*
X50701Y125677D01*
X51375Y124800D01*
X52252Y124127D01*
X53274Y123703D01*
X54370Y123559D01*
X55466Y123703D01*
X56488Y124127D01*
X57366Y124800D01*
X58039Y125677D01*
X58462Y126699D01*
X58606Y127795D01*
X58462Y128892D01*
X58039Y129913D01*
X57366Y130791D01*
X56488Y131464D01*
X55466Y131887D01*
X54370Y132031D01*
D02*
G37*
G36*
X24370D02*
X23274Y131887D01*
X22252Y131464D01*
X21374Y130791D01*
X20701Y129913D01*
X20278Y128892D01*
X20134Y127795D01*
X20278Y126699D01*
X20701Y125677D01*
X21374Y124800D01*
X22252Y124127D01*
X23274Y123703D01*
X24370Y123559D01*
X25466Y123703D01*
X26488Y124127D01*
X27365Y124800D01*
X28039Y125677D01*
X28462Y126699D01*
X28606Y127795D01*
X28462Y128892D01*
X28039Y129913D01*
X27365Y130791D01*
X26488Y131464D01*
X25466Y131887D01*
X24370Y132031D01*
D02*
G37*
G36*
X309055Y126616D02*
X308382Y126527D01*
X307755Y126268D01*
X307217Y125854D01*
X306803Y125316D01*
X306543Y124689D01*
X306455Y124016D01*
X305754Y123535D01*
X305331Y123357D01*
X304807Y123575D01*
X304134Y123663D01*
X303461Y123575D01*
X302937Y123357D01*
X302513Y123535D01*
X301813Y124016D01*
X301724Y124689D01*
X301464Y125316D01*
X301051Y125854D01*
X300513Y126268D01*
X299886Y126527D01*
X299213Y126616D01*
X298540Y126527D01*
X297913Y126268D01*
X297374Y125854D01*
X296961Y125316D01*
X296701Y124689D01*
X296612Y124016D01*
X295912Y123535D01*
X295489Y123357D01*
X294964Y123575D01*
X294291Y123663D01*
X293618Y123575D01*
X293094Y123357D01*
X292671Y123535D01*
X291970Y124016D01*
X291882Y124689D01*
X291622Y125316D01*
X291209Y125854D01*
X290670Y126268D01*
X290043Y126527D01*
X289370Y126616D01*
X288697Y126527D01*
X288070Y126268D01*
X287531Y125854D01*
X287118Y125316D01*
X286859Y124689D01*
X286770Y124016D01*
X286859Y123343D01*
X287118Y122716D01*
X287531Y122177D01*
X288070Y121764D01*
X288194Y121712D01*
Y120414D01*
X288070Y120362D01*
X287531Y119949D01*
X287118Y119410D01*
X286859Y118783D01*
X286770Y118110D01*
X286859Y117437D01*
X287118Y116810D01*
X287531Y116272D01*
X288070Y115858D01*
X288194Y115807D01*
Y114508D01*
X288070Y114457D01*
X287531Y114043D01*
X287118Y113505D01*
X286859Y112878D01*
X286770Y112205D01*
X286859Y111532D01*
X287118Y110905D01*
X287531Y110366D01*
X288070Y109953D01*
X288697Y109693D01*
X289370Y109605D01*
X290043Y109693D01*
X290670Y109953D01*
X291209Y110366D01*
X291622Y110905D01*
X291882Y111532D01*
X291970Y112205D01*
X292671Y112686D01*
X293094Y112863D01*
X293618Y112646D01*
X294291Y112557D01*
X294964Y112646D01*
X295489Y112863D01*
X295912Y112686D01*
X296612Y112205D01*
X296701Y111532D01*
X296961Y110905D01*
X297374Y110366D01*
X297913Y109953D01*
X298540Y109693D01*
X299213Y109605D01*
X299886Y109693D01*
X300513Y109953D01*
X301051Y110366D01*
X301464Y110905D01*
X301724Y111532D01*
X301813Y112205D01*
X301724Y112878D01*
X301464Y113505D01*
X301051Y114043D01*
X300513Y114457D01*
X300388Y114508D01*
Y115807D01*
X300513Y115858D01*
X301051Y116272D01*
X301464Y116810D01*
X301724Y117437D01*
X301813Y118110D01*
X302513Y118591D01*
X302937Y118769D01*
X303461Y118551D01*
X304134Y118463D01*
X304807Y118551D01*
X305331Y118769D01*
X305754Y118591D01*
X306455Y118110D01*
X306543Y117437D01*
X306803Y116810D01*
X307217Y116272D01*
X307755Y115858D01*
X307879Y115807D01*
Y114508D01*
X307755Y114457D01*
X307217Y114043D01*
X306803Y113505D01*
X306543Y112878D01*
X306455Y112205D01*
X306543Y111532D01*
X306803Y110905D01*
X307217Y110366D01*
X307755Y109953D01*
X308382Y109693D01*
X309055Y109605D01*
X309728Y109693D01*
X310355Y109953D01*
X310894Y110366D01*
X311307Y110905D01*
X311567Y111532D01*
X311655Y112205D01*
X311567Y112878D01*
X311307Y113505D01*
X310894Y114043D01*
X310355Y114457D01*
X310231Y114508D01*
Y115807D01*
X310355Y115858D01*
X310894Y116272D01*
X311307Y116810D01*
X311567Y117437D01*
X311655Y118110D01*
X311567Y118783D01*
X311307Y119410D01*
X310894Y119949D01*
X310355Y120362D01*
X310231Y120414D01*
Y121712D01*
X310355Y121764D01*
X310894Y122177D01*
X311307Y122716D01*
X311567Y123343D01*
X311655Y124016D01*
X311567Y124689D01*
X311307Y125316D01*
X310894Y125854D01*
X310355Y126268D01*
X309728Y126527D01*
X309055Y126616D01*
D02*
G37*
G36*
X238000Y127600D02*
X237327Y127512D01*
X236700Y127252D01*
X236161Y126839D01*
X235748Y126300D01*
X235488Y125673D01*
X235400Y125000D01*
X235488Y124327D01*
X235748Y123700D01*
X236161Y123161D01*
X236700Y122748D01*
X237327Y122488D01*
X238000Y122400D01*
X238673Y122488D01*
X239300Y122748D01*
X239839Y123161D01*
X240252Y123700D01*
X240512Y124327D01*
X240600Y125000D01*
X240512Y125673D01*
X240252Y126300D01*
X239839Y126839D01*
X239300Y127252D01*
X238673Y127512D01*
X238000Y127600D01*
D02*
G37*
G36*
X174000Y123600D02*
X173327Y123512D01*
X172700Y123252D01*
X172161Y122839D01*
X171748Y122300D01*
X171488Y121673D01*
X171400Y121000D01*
X171488Y120327D01*
X171748Y119700D01*
X172161Y119161D01*
X172700Y118748D01*
X173327Y118488D01*
X174000Y118400D01*
X174673Y118488D01*
X175300Y118748D01*
X175839Y119161D01*
X176252Y119700D01*
X176512Y120327D01*
X176600Y121000D01*
X176512Y121673D01*
X176252Y122300D01*
X175839Y122839D01*
X175300Y123252D01*
X174673Y123512D01*
X174000Y123600D01*
D02*
G37*
G36*
X234000Y120600D02*
X233327Y120512D01*
X232700Y120252D01*
X232161Y119839D01*
X231748Y119300D01*
X231488Y118673D01*
X231400Y118000D01*
X231488Y117327D01*
X231748Y116700D01*
X232161Y116161D01*
X232700Y115748D01*
X233327Y115488D01*
X234000Y115400D01*
X234673Y115488D01*
X235300Y115748D01*
X235839Y116161D01*
X236252Y116700D01*
X236512Y117327D01*
X236600Y118000D01*
X236512Y118673D01*
X236252Y119300D01*
X235839Y119839D01*
X235300Y120252D01*
X234673Y120512D01*
X234000Y120600D01*
D02*
G37*
G36*
X214567Y115517D02*
X213200Y115337D01*
X211927Y114809D01*
X210833Y113970D01*
X210372Y113370D01*
X210248Y113313D01*
X209044D01*
X208919Y113370D01*
X208458Y113970D01*
X207365Y114809D01*
X206091Y115337D01*
X204724Y115517D01*
X203358Y115337D01*
X202084Y114809D01*
X201317Y114221D01*
X200256Y114623D01*
X200117Y114746D01*
Y115472D01*
X189647D01*
Y105001D01*
X200117D01*
Y105726D01*
X200256Y105850D01*
X201317Y106251D01*
X202084Y105663D01*
X203358Y105136D01*
X204724Y104956D01*
X206091Y105136D01*
X207365Y105663D01*
X208458Y106502D01*
X208919Y107103D01*
X209044Y107160D01*
X210248D01*
X210372Y107103D01*
X210833Y106502D01*
X211927Y105663D01*
X213200Y105136D01*
X214567Y104956D01*
X215934Y105136D01*
X217207Y105663D01*
X218301Y106502D01*
X219140Y107596D01*
X219668Y108870D01*
X219848Y110236D01*
X219668Y111603D01*
X219140Y112876D01*
X218301Y113970D01*
X217207Y114809D01*
X215934Y115337D01*
X214567Y115517D01*
D02*
G37*
G36*
X260657Y117943D02*
X259984Y117854D01*
X259357Y117595D01*
X258819Y117181D01*
X258405Y116643D01*
X258146Y116016D01*
X258057Y115343D01*
X258146Y114670D01*
X258405Y114042D01*
X258819Y113504D01*
X259357Y113091D01*
X259984Y112831D01*
X260657Y112742D01*
X261330Y112831D01*
X261958Y113091D01*
X262496Y113504D01*
X262909Y114042D01*
X263169Y114670D01*
X263258Y115343D01*
X263169Y116016D01*
X262909Y116643D01*
X262496Y117181D01*
X261958Y117595D01*
X261330Y117854D01*
X260657Y117943D01*
D02*
G37*
G36*
X336850Y116537D02*
X336177Y116449D01*
X335550Y116189D01*
X335012Y115776D01*
X334599Y115237D01*
X334339Y114610D01*
X334250Y113937D01*
X334339Y113264D01*
X334599Y112637D01*
X335012Y112098D01*
X335550Y111685D01*
X336177Y111425D01*
X336850Y111337D01*
X337523Y111425D01*
X338151Y111685D01*
X338689Y112098D01*
X339102Y112637D01*
X339362Y113264D01*
X339451Y113937D01*
X339362Y114610D01*
X339102Y115237D01*
X338689Y115776D01*
X338151Y116189D01*
X337523Y116449D01*
X336850Y116537D01*
D02*
G37*
G36*
X374842Y112586D02*
X373656Y112429D01*
X372550Y111971D01*
X371600Y111243D01*
X370871Y110293D01*
X370746Y109992D01*
X369547Y110231D01*
Y112547D01*
X360454D01*
Y103454D01*
X369547D01*
Y105769D01*
X370746Y106008D01*
X370871Y105707D01*
X371600Y104757D01*
X372550Y104029D01*
X373656Y103571D01*
X374842Y103414D01*
X376029Y103571D01*
X377135Y104029D01*
X378085Y104757D01*
X378814Y105707D01*
X379272Y106813D01*
X379428Y108000D01*
X379272Y109187D01*
X378814Y110293D01*
X378085Y111243D01*
X377135Y111971D01*
X376029Y112429D01*
X374842Y112586D01*
D02*
G37*
G36*
X375000Y86586D02*
X373813Y86429D01*
X372707Y85971D01*
X371757Y85243D01*
X371029Y84293D01*
X370904Y83991D01*
X369704Y84230D01*
Y86546D01*
X360611D01*
Y77454D01*
X369704D01*
Y79770D01*
X370904Y80009D01*
X371029Y79707D01*
X371757Y78757D01*
X372707Y78029D01*
X373813Y77571D01*
X375000Y77414D01*
X376187Y77571D01*
X377293Y78029D01*
X378243Y78757D01*
X378971Y79707D01*
X379429Y80813D01*
X379586Y82000D01*
X379429Y83187D01*
X378971Y84293D01*
X378243Y85243D01*
X377293Y85971D01*
X376187Y86429D01*
X375000Y86586D01*
D02*
G37*
G36*
X319980Y88601D02*
X312068D01*
Y80690D01*
X319980D01*
Y88601D01*
D02*
G37*
G36*
X306024Y88636D02*
X304991Y88500D01*
X304029Y88101D01*
X303202Y87467D01*
X302568Y86641D01*
X302169Y85678D01*
X302034Y84646D01*
X302169Y83613D01*
X302568Y82651D01*
X303202Y81824D01*
X304029Y81190D01*
X304991Y80792D01*
X306024Y80656D01*
X307056Y80792D01*
X308019Y81190D01*
X308845Y81824D01*
X309479Y82651D01*
X309878Y83613D01*
X310014Y84646D01*
X309878Y85678D01*
X309479Y86641D01*
X308845Y87467D01*
X308019Y88101D01*
X307056Y88500D01*
X306024Y88636D01*
D02*
G37*
G36*
X185638Y81963D02*
X184965Y81874D01*
X184338Y81614D01*
X183799Y81201D01*
X183386Y80662D01*
X183126Y80035D01*
X183037Y79362D01*
X183126Y78689D01*
X183386Y78062D01*
X183799Y77524D01*
X184338Y77110D01*
X184965Y76851D01*
X185638Y76762D01*
X186311Y76851D01*
X186938Y77110D01*
X187476Y77524D01*
X187890Y78062D01*
X188149Y78689D01*
X188238Y79362D01*
X188149Y80035D01*
X187890Y80662D01*
X187476Y81201D01*
X186938Y81614D01*
X186311Y81874D01*
X185638Y81963D01*
D02*
G37*
G36*
X243000Y76600D02*
X242327Y76512D01*
X241700Y76252D01*
X241161Y75839D01*
X240748Y75300D01*
X240488Y74673D01*
X240466Y74504D01*
X239338Y74314D01*
X239232Y74326D01*
X238839Y74839D01*
X238300Y75252D01*
X237673Y75512D01*
X237000Y75600D01*
X236327Y75512D01*
X235700Y75252D01*
X235161Y74839D01*
X234748Y74300D01*
X234488Y73673D01*
X234400Y73000D01*
X234488Y72327D01*
X234748Y71700D01*
X235161Y71161D01*
X235700Y70748D01*
X236327Y70488D01*
X237000Y70400D01*
X237673Y70488D01*
X238300Y70748D01*
X238839Y71161D01*
X239252Y71700D01*
X239512Y72327D01*
X239534Y72496D01*
X240662Y72685D01*
X240768Y72674D01*
X241161Y72161D01*
X241700Y71748D01*
X242327Y71488D01*
X243000Y71400D01*
X243673Y71488D01*
X244300Y71748D01*
X244839Y72161D01*
X245252Y72700D01*
X245512Y73327D01*
X245600Y74000D01*
X245512Y74673D01*
X245252Y75300D01*
X244839Y75839D01*
X244300Y76252D01*
X243673Y76512D01*
X243000Y76600D01*
D02*
G37*
G36*
X267000D02*
X266327Y76512D01*
X265700Y76252D01*
X265161Y75839D01*
X264748Y75300D01*
X264488Y74673D01*
X264466Y74504D01*
X263338Y74314D01*
X263232Y74326D01*
X262839Y74839D01*
X262300Y75252D01*
X261673Y75512D01*
X261000Y75600D01*
X260327Y75512D01*
X259700Y75252D01*
X259161Y74839D01*
X258748Y74300D01*
X258488Y73673D01*
X258400Y73000D01*
X258488Y72327D01*
X258748Y71700D01*
X259161Y71161D01*
X259700Y70748D01*
X260327Y70488D01*
X261000Y70400D01*
X261673Y70488D01*
X262300Y70748D01*
X262839Y71161D01*
X263252Y71700D01*
X263512Y72327D01*
X263534Y72496D01*
X264662Y72685D01*
X264768Y72674D01*
X265161Y72161D01*
X265700Y71748D01*
X266327Y71488D01*
X267000Y71400D01*
X267673Y71488D01*
X268300Y71748D01*
X268839Y72161D01*
X269252Y72700D01*
X269512Y73327D01*
X269600Y74000D01*
X269512Y74673D01*
X269252Y75300D01*
X268839Y75839D01*
X268300Y76252D01*
X267673Y76512D01*
X267000Y76600D01*
D02*
G37*
G36*
X73000Y77600D02*
X72327Y77512D01*
X71700Y77252D01*
X71161Y76839D01*
X70748Y76300D01*
X70488Y75673D01*
X70400Y75000D01*
X70411Y74912D01*
X69300Y74252D01*
X68673Y74512D01*
X68000Y74600D01*
X67327Y74512D01*
X66700Y74252D01*
X66161Y73839D01*
X65748Y73300D01*
X65488Y72673D01*
X65400Y72000D01*
X65488Y71327D01*
X65748Y70700D01*
X66161Y70161D01*
X66700Y69748D01*
X67327Y69488D01*
X68000Y69400D01*
X68673Y69488D01*
X69300Y69748D01*
X69839Y70161D01*
X70232Y70675D01*
X70337Y70685D01*
X71466Y70496D01*
X71488Y70327D01*
X71748Y69700D01*
X72162Y69161D01*
X72700Y68748D01*
X73327Y68488D01*
X74000Y68400D01*
X74673Y68488D01*
X75300Y68748D01*
X75839Y69161D01*
X76252Y69700D01*
X76512Y70327D01*
X76600Y71000D01*
X76512Y71673D01*
X76252Y72300D01*
X75839Y72838D01*
X75252Y73700D01*
X75512Y74327D01*
X75600Y75000D01*
X75512Y75673D01*
X75252Y76300D01*
X74839Y76839D01*
X74300Y77252D01*
X73673Y77512D01*
X73000Y77600D01*
D02*
G37*
G36*
X121000Y78600D02*
X120327Y78512D01*
X119700Y78252D01*
X119161Y77839D01*
X118748Y77300D01*
X118488Y76673D01*
X118400Y76000D01*
X118488Y75327D01*
X118748Y74700D01*
X119161Y74161D01*
X119700Y73748D01*
X120327Y73488D01*
X121000Y73400D01*
X121673Y73488D01*
X122300Y73748D01*
X122839Y74161D01*
X123252Y74700D01*
X123512Y75327D01*
X123600Y76000D01*
X123512Y76673D01*
X123252Y77300D01*
X122839Y77839D01*
X122300Y78252D01*
X121673Y78512D01*
X121000Y78600D01*
D02*
G37*
G36*
X44000D02*
X43327Y78512D01*
X42700Y78252D01*
X42161Y77839D01*
X41748Y77300D01*
X41488Y76673D01*
X41400Y76000D01*
X41488Y75327D01*
X41748Y74700D01*
X42161Y74161D01*
X42700Y73748D01*
X43327Y73488D01*
X44000Y73400D01*
X44673Y73488D01*
X45300Y73748D01*
X45839Y74161D01*
X46252Y74700D01*
X46512Y75327D01*
X46600Y76000D01*
X46512Y76673D01*
X46252Y77300D01*
X45839Y77839D01*
X45300Y78252D01*
X44673Y78512D01*
X44000Y78600D01*
D02*
G37*
G36*
X17000D02*
X16327Y78512D01*
X15700Y78252D01*
X15161Y77839D01*
X14748Y77300D01*
X14488Y76673D01*
X14400Y76000D01*
X14488Y75327D01*
X14748Y74700D01*
X15161Y74161D01*
X15700Y73748D01*
X16327Y73488D01*
X17000Y73400D01*
X17673Y73488D01*
X18300Y73748D01*
X18839Y74161D01*
X19252Y74700D01*
X19512Y75327D01*
X19600Y76000D01*
X19512Y76673D01*
X19252Y77300D01*
X18839Y77839D01*
X18300Y78252D01*
X17673Y78512D01*
X17000Y78600D01*
D02*
G37*
G36*
X172000Y77600D02*
X171327Y77512D01*
X170700Y77252D01*
X170161Y76839D01*
X169748Y76300D01*
X169488Y75673D01*
X169400Y75000D01*
X169488Y74327D01*
X169748Y73700D01*
X170161Y73161D01*
X170700Y72748D01*
X171327Y72488D01*
X172000Y72400D01*
X172673Y72488D01*
X173300Y72748D01*
X173839Y73161D01*
X174252Y73700D01*
X174512Y74327D01*
X174600Y75000D01*
X174512Y75673D01*
X174252Y76300D01*
X173839Y76839D01*
X173300Y77252D01*
X172673Y77512D01*
X172000Y77600D01*
D02*
G37*
G36*
X139000D02*
X138327Y77512D01*
X137700Y77252D01*
X137161Y76839D01*
X136748Y76300D01*
X136488Y75673D01*
X136400Y75000D01*
X136488Y74327D01*
X136748Y73700D01*
X137161Y73161D01*
X137700Y72748D01*
X138327Y72488D01*
X139000Y72400D01*
X139673Y72488D01*
X140300Y72748D01*
X140839Y73161D01*
X141252Y73700D01*
X141512Y74327D01*
X141600Y75000D01*
X141512Y75673D01*
X141252Y76300D01*
X140839Y76839D01*
X140300Y77252D01*
X139673Y77512D01*
X139000Y77600D01*
D02*
G37*
G36*
X86000Y77600D02*
X85327Y77512D01*
X84700Y77252D01*
X84161Y76839D01*
X83748Y76300D01*
X83488Y75673D01*
X83400Y75000D01*
X83488Y74327D01*
X83748Y73700D01*
X84161Y73161D01*
X84700Y72748D01*
X85327Y72488D01*
X86000Y72400D01*
X86673Y72488D01*
X87300Y72748D01*
X87839Y73161D01*
X88252Y73700D01*
X88512Y74327D01*
X88600Y75000D01*
X88512Y75673D01*
X88252Y76300D01*
X87839Y76839D01*
X87300Y77252D01*
X86673Y77512D01*
X86000Y77600D01*
D02*
G37*
G36*
X38000Y74600D02*
X37327Y74512D01*
X36700Y74252D01*
X36161Y73839D01*
X35748Y73300D01*
X35488Y72673D01*
X35466Y72504D01*
X34338Y72315D01*
X34232Y72326D01*
X33839Y72839D01*
X33300Y73252D01*
X32673Y73512D01*
X32000Y73600D01*
X31327Y73512D01*
X30700Y73252D01*
X30161Y72839D01*
X29748Y72300D01*
X29620Y71991D01*
X28380D01*
X28252Y72300D01*
X27839Y72839D01*
X27300Y73252D01*
X26673Y73512D01*
X26000Y73600D01*
X25327Y73512D01*
X25003Y73377D01*
X24573Y73238D01*
X23835Y73161D01*
X23297Y73574D01*
X23297Y73574D01*
X22985Y73703D01*
X22670Y73834D01*
X21996Y73922D01*
X21324Y73834D01*
X20696Y73574D01*
X20158Y73161D01*
X19745Y72622D01*
X19485Y71995D01*
X19396Y71322D01*
X19485Y70649D01*
X19745Y70022D01*
X20158Y69483D01*
X20696Y69070D01*
X21324Y68810D01*
X21996Y68722D01*
X22670Y68810D01*
X23297Y69070D01*
X24161Y69161D01*
X24700Y68748D01*
X25327Y68488D01*
X26000Y68400D01*
X26673Y68488D01*
X27300Y68748D01*
X27839Y69161D01*
X28252Y69700D01*
X28380Y70009D01*
X29620D01*
X29748Y69700D01*
X30161Y69161D01*
X30700Y68748D01*
X31327Y68488D01*
X32000Y68400D01*
X32673Y68488D01*
X33300Y68748D01*
X33839Y69161D01*
X34252Y69700D01*
X34512Y70327D01*
X34534Y70496D01*
X35662Y70685D01*
X35768Y70674D01*
X36161Y70161D01*
X36700Y69748D01*
X37327Y69488D01*
X38000Y69400D01*
X38673Y69488D01*
X39300Y69748D01*
X39839Y70161D01*
X40252Y70700D01*
X40512Y71327D01*
X40600Y72000D01*
X40512Y72673D01*
X40252Y73300D01*
X39839Y73839D01*
X39300Y74252D01*
X38673Y74512D01*
X38000Y74600D01*
D02*
G37*
G36*
X154276Y77325D02*
X153603Y77236D01*
X152975Y76976D01*
X152437Y76563D01*
X152024Y76025D01*
X151764Y75397D01*
X151675Y74724D01*
X151764Y74051D01*
X152024Y73424D01*
X152437Y72886D01*
X152975Y72473D01*
X153603Y72213D01*
X154276Y72124D01*
X154949Y72213D01*
X155576Y72473D01*
X156114Y72886D01*
X156527Y73424D01*
X156787Y74051D01*
X156876Y74724D01*
X156787Y75397D01*
X156527Y76025D01*
X156114Y76563D01*
X155576Y76976D01*
X154949Y77236D01*
X154276Y77325D01*
D02*
G37*
G36*
X106000Y77600D02*
X105327Y77512D01*
X104700Y77252D01*
X104161Y76839D01*
X103748Y76300D01*
X103488Y75673D01*
X103400Y75000D01*
X103488Y74327D01*
X103748Y73700D01*
X104161Y73161D01*
X104700Y72748D01*
X105327Y72488D01*
X106000Y72400D01*
X106414Y72454D01*
X107028Y72128D01*
X107583Y71567D01*
X107634Y71181D01*
X107894Y70554D01*
X108307Y70016D01*
X108846Y69602D01*
X109473Y69343D01*
X110146Y69254D01*
X110819Y69343D01*
X111446Y69602D01*
X111984Y70016D01*
X112398Y70554D01*
X112657Y71181D01*
X112746Y71854D01*
X112657Y72527D01*
X112398Y73154D01*
X111984Y73693D01*
X111446Y74106D01*
X110819Y74366D01*
X110146Y74454D01*
X109732Y74400D01*
X109117Y74726D01*
X108562Y75288D01*
X108512Y75673D01*
X108252Y76300D01*
X107839Y76839D01*
X107300Y77252D01*
X106673Y77512D01*
X106000Y77600D01*
D02*
G37*
G36*
X253937Y74450D02*
X253263Y74362D01*
X252636Y74102D01*
X252098Y73689D01*
X251685Y73150D01*
X251425Y72523D01*
X251336Y71850D01*
X251425Y71177D01*
X251685Y70550D01*
X252098Y70012D01*
X252636Y69598D01*
X253263Y69339D01*
X253937Y69250D01*
X254609Y69339D01*
X255237Y69598D01*
X255775Y70012D01*
X256188Y70550D01*
X256448Y71177D01*
X256537Y71850D01*
X256448Y72523D01*
X256188Y73150D01*
X255775Y73689D01*
X255237Y74102D01*
X254609Y74362D01*
X253937Y74450D01*
D02*
G37*
G36*
X92000Y74600D02*
X91327Y74512D01*
X90700Y74252D01*
X90161Y73839D01*
X89748Y73300D01*
X89488Y72673D01*
X89400Y72000D01*
X89488Y71327D01*
X89748Y70700D01*
X90161Y70161D01*
X90700Y69748D01*
X91327Y69488D01*
X92000Y69400D01*
X92673Y69488D01*
X93300Y69748D01*
X93839Y70161D01*
X94232Y70674D01*
X94338Y70685D01*
X95466Y70496D01*
X95488Y70327D01*
X95748Y69700D01*
X96161Y69161D01*
X96700Y68748D01*
X97327Y68488D01*
X98000Y68400D01*
X98673Y68488D01*
X99300Y68748D01*
X99839Y69161D01*
X100252Y69700D01*
X100512Y70327D01*
X100600Y71000D01*
X100512Y71673D01*
X100252Y72300D01*
X99839Y72839D01*
X99300Y73252D01*
X98673Y73512D01*
X98000Y73600D01*
X97327Y73512D01*
X96700Y73252D01*
X96161Y72839D01*
X95768Y72326D01*
X95662Y72315D01*
X94534Y72504D01*
X94512Y72673D01*
X94252Y73300D01*
X93839Y73839D01*
X93300Y74252D01*
X92673Y74512D01*
X92000Y74600D01*
D02*
G37*
G36*
X52646Y78246D02*
X51973Y78157D01*
X51346Y77898D01*
X50807Y77485D01*
X50394Y76946D01*
X50134Y76319D01*
X50046Y75646D01*
X50012Y74910D01*
X49327Y74559D01*
X48700Y74299D01*
X48161Y73886D01*
X47748Y73347D01*
X47488Y72720D01*
X47400Y72047D01*
X47488Y71374D01*
X47748Y70747D01*
X48161Y70209D01*
X48700Y69795D01*
X49327Y69536D01*
X50000Y69447D01*
X50673Y69536D01*
X51300Y69795D01*
X51839Y70209D01*
X52227Y70715D01*
X52361Y70728D01*
X53461Y70532D01*
X53488Y70327D01*
X53748Y69700D01*
X54161Y69161D01*
X54700Y68748D01*
X55327Y68488D01*
X56000Y68400D01*
X56673Y68488D01*
X57300Y68748D01*
X57839Y69161D01*
X58252Y69700D01*
X58512Y70327D01*
X58600Y71000D01*
X58512Y71673D01*
X58252Y72300D01*
X57839Y72839D01*
X57300Y73252D01*
X56673Y73512D01*
X56000Y73600D01*
X55820Y73576D01*
X55488Y73853D01*
X55023Y74578D01*
X55011Y74620D01*
X55157Y74973D01*
X55246Y75646D01*
X55157Y76319D01*
X54898Y76946D01*
X54484Y77485D01*
X53946Y77898D01*
X53319Y78157D01*
X52646Y78246D01*
D02*
G37*
G36*
X338331Y70486D02*
X329669D01*
X328508Y70334D01*
X327426Y69885D01*
X326497Y69172D01*
X325784Y68243D01*
X325336Y67161D01*
X325183Y66000D01*
X325336Y64839D01*
X325784Y63757D01*
X326497Y62828D01*
X327426Y62115D01*
X328508Y61667D01*
X329669Y61514D01*
X338331D01*
X339492Y61667D01*
X340574Y62115D01*
X341503Y62828D01*
X342216Y63757D01*
X342664Y64839D01*
X342817Y66000D01*
X342664Y67161D01*
X342216Y68243D01*
X341503Y69172D01*
X340574Y69885D01*
X339492Y70334D01*
X338331Y70486D01*
D02*
G37*
G36*
X225000Y61600D02*
X224327Y61512D01*
X223700Y61252D01*
X223161Y60839D01*
X222748Y60300D01*
X222488Y59673D01*
X222400Y59000D01*
X222488Y58327D01*
X222748Y57700D01*
X223161Y57161D01*
X223700Y56748D01*
X224327Y56488D01*
X225000Y56400D01*
X225673Y56488D01*
X226300Y56748D01*
X226839Y57161D01*
X227252Y57700D01*
X227512Y58327D01*
X227600Y59000D01*
X227512Y59673D01*
X227252Y60300D01*
X226839Y60839D01*
X226300Y61252D01*
X225673Y61512D01*
X225000Y61600D01*
D02*
G37*
G36*
X122000Y60600D02*
X121327Y60512D01*
X120700Y60252D01*
X120161Y59839D01*
X119748Y59300D01*
X119488Y58673D01*
X119400Y58000D01*
X119488Y57327D01*
X119748Y56700D01*
X120161Y56161D01*
X120700Y55748D01*
X121327Y55488D01*
X122000Y55400D01*
X122673Y55488D01*
X123300Y55748D01*
X123839Y56161D01*
X124252Y56700D01*
X124512Y57327D01*
X124600Y58000D01*
X124512Y58673D01*
X124252Y59300D01*
X123839Y59839D01*
X123300Y60252D01*
X122673Y60512D01*
X122000Y60600D01*
D02*
G37*
G36*
X381890Y54765D02*
X381217Y54677D01*
X380590Y54417D01*
X380051Y54004D01*
X379638Y53465D01*
X379586Y53341D01*
X378288D01*
X378236Y53465D01*
X377823Y54004D01*
X377284Y54417D01*
X376657Y54677D01*
X375984Y54765D01*
X375311Y54677D01*
X374684Y54417D01*
X374146Y54004D01*
X373732Y53465D01*
X373681Y53341D01*
X372382D01*
X372331Y53465D01*
X371917Y54004D01*
X371379Y54417D01*
X370752Y54677D01*
X370079Y54765D01*
X369406Y54677D01*
X368779Y54417D01*
X368240Y54004D01*
X367827Y53465D01*
X367775Y53341D01*
X366476D01*
X366425Y53465D01*
X366012Y54004D01*
X365473Y54417D01*
X364846Y54677D01*
X364173Y54765D01*
X363500Y54677D01*
X362873Y54417D01*
X362335Y54004D01*
X361921Y53465D01*
X361662Y52838D01*
X361573Y52165D01*
X361662Y51492D01*
X361921Y50865D01*
X362335Y50327D01*
X362873Y49913D01*
X363500Y49654D01*
X364173Y49565D01*
X364846Y49654D01*
X365473Y49913D01*
X366012Y50327D01*
X366425Y50865D01*
X366476Y50990D01*
X367775D01*
X367827Y50865D01*
X368240Y50327D01*
X368779Y49913D01*
X369406Y49654D01*
X370079Y49565D01*
X370752Y49654D01*
X371379Y49913D01*
X371917Y50327D01*
X372331Y50865D01*
X372382Y50990D01*
X373681D01*
X373732Y50865D01*
X374146Y50327D01*
X374684Y49913D01*
X375311Y49654D01*
X375984Y49565D01*
X376657Y49654D01*
X377284Y49913D01*
X377823Y50327D01*
X378236Y50865D01*
X378288Y50990D01*
X379586D01*
X379638Y50865D01*
X380051Y50327D01*
X380590Y49913D01*
X381217Y49654D01*
X381890Y49565D01*
X382563Y49654D01*
X383190Y49913D01*
X383728Y50327D01*
X384142Y50865D01*
X384401Y51492D01*
X384490Y52165D01*
X384401Y52838D01*
X384142Y53465D01*
X383728Y54004D01*
X383190Y54417D01*
X382563Y54677D01*
X381890Y54765D01*
D02*
G37*
G36*
X257185Y54254D02*
X255921Y54087D01*
X254743Y53599D01*
X253732Y52823D01*
X253408Y52401D01*
X251966D01*
X251642Y52823D01*
X250631Y53599D01*
X249453Y54087D01*
X248189Y54254D01*
X246925Y54087D01*
X245747Y53599D01*
X244736Y52823D01*
X244412Y52401D01*
X242970D01*
X242646Y52823D01*
X241635Y53599D01*
X240457Y54087D01*
X239193Y54254D01*
X237929Y54087D01*
X236751Y53599D01*
X235740Y52823D01*
X235416Y52401D01*
X233974D01*
X233650Y52823D01*
X232639Y53599D01*
X231461Y54087D01*
X230197Y54254D01*
X228933Y54087D01*
X227755Y53599D01*
X226744Y52823D01*
X226420Y52401D01*
X224978D01*
X224654Y52823D01*
X223643Y53599D01*
X222465Y54087D01*
X221201Y54254D01*
X219937Y54087D01*
X218759Y53599D01*
X217748Y52823D01*
X216972Y51812D01*
X216484Y50634D01*
X216317Y49370D01*
X216484Y48106D01*
X216972Y46928D01*
X217748Y45917D01*
X218759Y45141D01*
X219937Y44653D01*
X221201Y44487D01*
X222465Y44653D01*
X223643Y45141D01*
X224654Y45917D01*
X224978Y46339D01*
X226420D01*
X226744Y45917D01*
X227755Y45141D01*
X228933Y44653D01*
X230197Y44487D01*
X231461Y44653D01*
X232639Y45141D01*
X233650Y45917D01*
X233974Y46339D01*
X235416D01*
X235740Y45917D01*
X236751Y45141D01*
X237929Y44653D01*
X239193Y44487D01*
X240457Y44653D01*
X241635Y45141D01*
X242646Y45917D01*
X242970Y46339D01*
X244412D01*
X244736Y45917D01*
X245747Y45141D01*
X246925Y44653D01*
X248189Y44487D01*
X249453Y44653D01*
X250631Y45141D01*
X251642Y45917D01*
X251966Y46339D01*
X253408D01*
X253732Y45917D01*
X254743Y45141D01*
X255921Y44653D01*
X257185Y44487D01*
X258449Y44653D01*
X259627Y45141D01*
X260638Y45917D01*
X261414Y46928D01*
X261902Y48106D01*
X262069Y49370D01*
X261902Y50634D01*
X261414Y51812D01*
X260638Y52823D01*
X259627Y53599D01*
X258449Y54087D01*
X257185Y54254D01*
D02*
G37*
G36*
X92000Y59600D02*
X91327Y59512D01*
X90700Y59252D01*
X90161Y58839D01*
X89748Y58300D01*
X89488Y57673D01*
X89400Y57000D01*
X89488Y56327D01*
X89748Y55700D01*
X90161Y55161D01*
X89933Y53824D01*
X89389Y53599D01*
X88378Y52823D01*
X88054Y52401D01*
X86612D01*
X86288Y52823D01*
X85276Y53599D01*
X84099Y54087D01*
X82835Y54254D01*
X81571Y54087D01*
X80393Y53599D01*
X79381Y52823D01*
X79058Y52401D01*
X77615D01*
X77292Y52823D01*
X76280Y53599D01*
X75103Y54087D01*
X73839Y54254D01*
X72575Y54087D01*
X71397Y53599D01*
X70385Y52823D01*
X70062Y52401D01*
X68620D01*
X68296Y52823D01*
X67284Y53599D01*
X66106Y54087D01*
X64843Y54254D01*
X63579Y54087D01*
X62401Y53599D01*
X61389Y52823D01*
X61066Y52401D01*
X59623D01*
X59299Y52823D01*
X58288Y53599D01*
X57110Y54087D01*
X55846Y54254D01*
X54582Y54087D01*
X53405Y53599D01*
X52393Y52823D01*
X51617Y51812D01*
X51129Y50634D01*
X50963Y49370D01*
X51129Y48106D01*
X51617Y46928D01*
X52393Y45917D01*
X53405Y45141D01*
X54582Y44653D01*
X55846Y44486D01*
X57110Y44653D01*
X58288Y45141D01*
X59299Y45917D01*
X59623Y46339D01*
X61066D01*
X61389Y45917D01*
X62401Y45141D01*
X63579Y44653D01*
X64843Y44486D01*
X66106Y44653D01*
X67284Y45141D01*
X68296Y45917D01*
X68620Y46339D01*
X70062D01*
X70385Y45917D01*
X71397Y45141D01*
X72575Y44653D01*
X73839Y44486D01*
X75103Y44653D01*
X76280Y45141D01*
X77292Y45917D01*
X77615Y46339D01*
X79058D01*
X79381Y45917D01*
X80393Y45141D01*
X81571Y44653D01*
X82835Y44486D01*
X84099Y44653D01*
X85276Y45141D01*
X86288Y45917D01*
X86612Y46339D01*
X88054D01*
X88378Y45917D01*
X89389Y45141D01*
X90567Y44653D01*
X91831Y44486D01*
X93095Y44653D01*
X94273Y45141D01*
X95284Y45917D01*
X96060Y46928D01*
X96548Y48106D01*
X96714Y49370D01*
X96548Y50634D01*
X96060Y51812D01*
X95284Y52823D01*
X94273Y53599D01*
X93889Y53758D01*
X93768Y55107D01*
X93839Y55161D01*
X94252Y55700D01*
X94512Y56327D01*
X94600Y57000D01*
X94512Y57673D01*
X94252Y58300D01*
X93839Y58839D01*
X93300Y59252D01*
X92673Y59512D01*
X92000Y59600D01*
D02*
G37*
G36*
X352307Y63203D02*
X351146Y63050D01*
X350064Y62602D01*
X349135Y61889D01*
X348422Y60960D01*
X347974Y59878D01*
X347821Y58716D01*
Y50055D01*
X347974Y48894D01*
X348422Y47812D01*
X349135Y46883D01*
X350064Y46170D01*
X351146Y45722D01*
X352307Y45569D01*
X353468Y45722D01*
X354550Y46170D01*
X355480Y46883D01*
X356192Y47812D01*
X356641Y48894D01*
X356794Y50055D01*
Y58716D01*
X356641Y59878D01*
X356192Y60960D01*
X355480Y61889D01*
X354550Y62602D01*
X353468Y63050D01*
X352307Y63203D01*
D02*
G37*
G36*
X261683Y44254D02*
X260419Y44087D01*
X259241Y43599D01*
X258230Y42823D01*
X257906Y42401D01*
X256464D01*
X256140Y42823D01*
X255129Y43599D01*
X253951Y44087D01*
X252687Y44254D01*
X251423Y44087D01*
X250245Y43599D01*
X249234Y42823D01*
X248910Y42401D01*
X247468D01*
X247144Y42823D01*
X246133Y43599D01*
X244955Y44087D01*
X243691Y44254D01*
X242427Y44087D01*
X241249Y43599D01*
X240238Y42823D01*
X239914Y42401D01*
X238472D01*
X238148Y42823D01*
X237137Y43599D01*
X235959Y44087D01*
X234695Y44254D01*
X233431Y44087D01*
X232253Y43599D01*
X231242Y42823D01*
X230918Y42401D01*
X229476D01*
X229152Y42823D01*
X228141Y43599D01*
X226963Y44087D01*
X225699Y44254D01*
X224435Y44087D01*
X223257Y43599D01*
X222246Y42823D01*
X221470Y41812D01*
X220982Y40634D01*
X220815Y39370D01*
X220982Y38106D01*
X221470Y36928D01*
X222246Y35917D01*
X223257Y35141D01*
X224435Y34653D01*
X225699Y34487D01*
X226963Y34653D01*
X228141Y35141D01*
X229152Y35917D01*
X229476Y36339D01*
X230918D01*
X231242Y35917D01*
X232253Y35141D01*
X233431Y34653D01*
X234695Y34487D01*
X235959Y34653D01*
X237137Y35141D01*
X238148Y35917D01*
X238472Y36339D01*
X239914D01*
X240238Y35917D01*
X241249Y35141D01*
X242427Y34653D01*
X243691Y34487D01*
X244955Y34653D01*
X246133Y35141D01*
X247144Y35917D01*
X247468Y36339D01*
X248910D01*
X249234Y35917D01*
X250245Y35141D01*
X251423Y34653D01*
X252687Y34487D01*
X253951Y34653D01*
X255129Y35141D01*
X256140Y35917D01*
X256464Y36339D01*
X257906D01*
X258230Y35917D01*
X259241Y35141D01*
X260419Y34653D01*
X261683Y34487D01*
X262947Y34653D01*
X264125Y35141D01*
X265136Y35917D01*
X265912Y36928D01*
X266400Y38106D01*
X266566Y39370D01*
X266400Y40634D01*
X265912Y41812D01*
X265136Y42823D01*
X264125Y43599D01*
X262947Y44087D01*
X261683Y44254D01*
D02*
G37*
G36*
X96329Y44254D02*
X95065Y44087D01*
X93887Y43599D01*
X92876Y42823D01*
X92552Y42401D01*
X91110D01*
X90786Y42823D01*
X89774Y43599D01*
X88596Y44087D01*
X87333Y44254D01*
X86069Y44087D01*
X84891Y43599D01*
X83879Y42823D01*
X83556Y42401D01*
X82113D01*
X81790Y42823D01*
X80778Y43599D01*
X79601Y44087D01*
X78337Y44254D01*
X77073Y44087D01*
X75895Y43599D01*
X74883Y42823D01*
X74560Y42401D01*
X73118D01*
X72794Y42823D01*
X71782Y43599D01*
X70604Y44087D01*
X69341Y44254D01*
X68077Y44087D01*
X66899Y43599D01*
X65887Y42823D01*
X65564Y42401D01*
X64122D01*
X63798Y42823D01*
X62786Y43599D01*
X61608Y44087D01*
X60345Y44254D01*
X59081Y44087D01*
X57903Y43599D01*
X56891Y42823D01*
X56115Y41812D01*
X55628Y40634D01*
X55461Y39370D01*
X55628Y38106D01*
X56115Y36928D01*
X56891Y35917D01*
X57903Y35141D01*
X59081Y34653D01*
X60345Y34486D01*
X61608Y34653D01*
X62786Y35141D01*
X63798Y35917D01*
X64122Y36339D01*
X65564D01*
X65887Y35917D01*
X66899Y35141D01*
X68077Y34653D01*
X69341Y34486D01*
X70604Y34653D01*
X71782Y35141D01*
X72794Y35917D01*
X73118Y36339D01*
X74560D01*
X74883Y35917D01*
X75895Y35141D01*
X77073Y34653D01*
X78337Y34486D01*
X79601Y34653D01*
X80778Y35141D01*
X81790Y35917D01*
X82113Y36339D01*
X83556D01*
X83879Y35917D01*
X84891Y35141D01*
X86069Y34653D01*
X87333Y34486D01*
X88596Y34653D01*
X89774Y35141D01*
X90786Y35917D01*
X91110Y36339D01*
X92552D01*
X92876Y35917D01*
X93887Y35141D01*
X95065Y34653D01*
X96329Y34486D01*
X97593Y34653D01*
X98770Y35141D01*
X99782Y35917D01*
X100558Y36928D01*
X101046Y38106D01*
X101212Y39370D01*
X101046Y40634D01*
X100558Y41812D01*
X99782Y42823D01*
X98770Y43599D01*
X97593Y44087D01*
X96329Y44254D01*
D02*
G37*
G36*
X339020Y46077D02*
X328980D01*
X327819Y45924D01*
X326737Y45476D01*
X325808Y44763D01*
X325095Y43834D01*
X324647Y42752D01*
X324494Y41591D01*
X324647Y40429D01*
X325095Y39347D01*
X325808Y38418D01*
X326737Y37705D01*
X327819Y37257D01*
X328980Y37104D01*
X339020D01*
X340181Y37257D01*
X341263Y37705D01*
X342192Y38418D01*
X342905Y39347D01*
X343353Y40429D01*
X343506Y41591D01*
X343353Y42752D01*
X342905Y43834D01*
X342192Y44763D01*
X341263Y45476D01*
X340181Y45924D01*
X339020Y46077D01*
D02*
G37*
G36*
X257185Y34254D02*
X255921Y34087D01*
X254743Y33599D01*
X253732Y32823D01*
X253408Y32401D01*
X251966D01*
X251642Y32823D01*
X250631Y33599D01*
X249453Y34087D01*
X248189Y34254D01*
X246925Y34087D01*
X245747Y33599D01*
X244736Y32823D01*
X244412Y32401D01*
X242970D01*
X242646Y32823D01*
X241635Y33599D01*
X240457Y34087D01*
X239193Y34254D01*
X237929Y34087D01*
X236751Y33599D01*
X235740Y32823D01*
X235416Y32401D01*
X233974D01*
X233650Y32823D01*
X232639Y33599D01*
X231461Y34087D01*
X230197Y34254D01*
X228933Y34087D01*
X227755Y33599D01*
X226744Y32823D01*
X226420Y32401D01*
X224978D01*
X224654Y32823D01*
X223643Y33599D01*
X222465Y34087D01*
X221201Y34254D01*
X219937Y34087D01*
X218759Y33599D01*
X217748Y32823D01*
X216972Y31812D01*
X216484Y30634D01*
X216317Y29370D01*
X216484Y28106D01*
X216972Y26928D01*
X217748Y25917D01*
X218759Y25141D01*
X219937Y24653D01*
X221201Y24487D01*
X222465Y24653D01*
X223643Y25141D01*
X224654Y25917D01*
X224978Y26339D01*
X226420D01*
X226744Y25917D01*
X227755Y25141D01*
X228933Y24653D01*
X230197Y24487D01*
X231461Y24653D01*
X232639Y25141D01*
X233650Y25917D01*
X233974Y26339D01*
X235416D01*
X235740Y25917D01*
X236751Y25141D01*
X237929Y24653D01*
X239193Y24487D01*
X240457Y24653D01*
X241635Y25141D01*
X242646Y25917D01*
X242970Y26339D01*
X244412D01*
X244736Y25917D01*
X245747Y25141D01*
X246925Y24653D01*
X248189Y24487D01*
X249453Y24653D01*
X250631Y25141D01*
X251642Y25917D01*
X251966Y26339D01*
X253408D01*
X253732Y25917D01*
X254743Y25141D01*
X255921Y24653D01*
X257185Y24487D01*
X258449Y24653D01*
X259627Y25141D01*
X260638Y25917D01*
X261414Y26928D01*
X261902Y28106D01*
X262069Y29370D01*
X261902Y30634D01*
X261414Y31812D01*
X260638Y32823D01*
X259627Y33599D01*
X258449Y34087D01*
X257185Y34254D01*
D02*
G37*
G36*
X91831Y34253D02*
X90567Y34087D01*
X89389Y33599D01*
X88378Y32823D01*
X88054Y32401D01*
X86612D01*
X86288Y32823D01*
X85276Y33599D01*
X84099Y34087D01*
X82835Y34253D01*
X81571Y34087D01*
X80393Y33599D01*
X79381Y32823D01*
X79058Y32401D01*
X77615D01*
X77292Y32823D01*
X76280Y33599D01*
X75103Y34087D01*
X73839Y34253D01*
X72575Y34087D01*
X71397Y33599D01*
X70385Y32823D01*
X70062Y32401D01*
X68620D01*
X68296Y32823D01*
X67284Y33599D01*
X66106Y34087D01*
X64843Y34253D01*
X63579Y34087D01*
X62401Y33599D01*
X61389Y32823D01*
X61066Y32401D01*
X59623D01*
X59299Y32823D01*
X58288Y33599D01*
X57110Y34087D01*
X55846Y34253D01*
X54582Y34087D01*
X53405Y33599D01*
X52393Y32823D01*
X51617Y31812D01*
X51129Y30634D01*
X50963Y29370D01*
X51129Y28106D01*
X51617Y26928D01*
X52393Y25917D01*
X53405Y25141D01*
X54582Y24653D01*
X55846Y24487D01*
X57110Y24653D01*
X58288Y25141D01*
X59299Y25917D01*
X59623Y26339D01*
X61066D01*
X61389Y25917D01*
X62401Y25141D01*
X63579Y24653D01*
X64843Y24487D01*
X66106Y24653D01*
X67284Y25141D01*
X68296Y25917D01*
X68620Y26339D01*
X70062D01*
X70385Y25917D01*
X71397Y25141D01*
X72575Y24653D01*
X73839Y24487D01*
X75103Y24653D01*
X76280Y25141D01*
X77292Y25917D01*
X77615Y26339D01*
X79058D01*
X79381Y25917D01*
X80393Y25141D01*
X81571Y24653D01*
X82835Y24487D01*
X84099Y24653D01*
X85276Y25141D01*
X86288Y25917D01*
X86612Y26339D01*
X88054D01*
X88378Y25917D01*
X89389Y25141D01*
X90567Y24653D01*
X91831Y24487D01*
X93095Y24653D01*
X94273Y25141D01*
X95284Y25917D01*
X96060Y26928D01*
X96548Y28106D01*
X96714Y29370D01*
X96548Y30634D01*
X96060Y31812D01*
X95284Y32823D01*
X94273Y33599D01*
X93095Y34087D01*
X91831Y34253D01*
D02*
G37*
G36*
X289350Y50447D02*
X287618Y50310D01*
X285928Y49905D01*
X284322Y49240D01*
X282840Y48331D01*
X281518Y47203D01*
X280389Y45881D01*
X279481Y44399D01*
X278816Y42793D01*
X278410Y41103D01*
X278274Y39370D01*
X278410Y37637D01*
X278816Y35947D01*
X279481Y34341D01*
X280389Y32859D01*
X281518Y31538D01*
X282840Y30409D01*
X284322Y29501D01*
X285928Y28836D01*
X287618Y28430D01*
X289350Y28293D01*
X291083Y28430D01*
X292773Y28836D01*
X294379Y29501D01*
X295861Y30409D01*
X297183Y31538D01*
X298312Y32859D01*
X299220Y34341D01*
X299885Y35947D01*
X300291Y37637D01*
X300427Y39370D01*
X300291Y41103D01*
X299885Y42793D01*
X299220Y44399D01*
X298312Y45881D01*
X297183Y47203D01*
X295861Y48331D01*
X294379Y49240D01*
X292773Y49905D01*
X291083Y50310D01*
X289350Y50447D01*
D02*
G37*
G36*
X190965D02*
X189232Y50310D01*
X187542Y49905D01*
X185936Y49240D01*
X184454Y48331D01*
X183132Y47203D01*
X182003Y45881D01*
X181095Y44399D01*
X180430Y42793D01*
X180024Y41103D01*
X179888Y39370D01*
X180024Y37637D01*
X180430Y35947D01*
X181095Y34341D01*
X182003Y32859D01*
X183132Y31538D01*
X184454Y30409D01*
X185936Y29501D01*
X187542Y28836D01*
X189232Y28430D01*
X190965Y28293D01*
X192697Y28430D01*
X194387Y28836D01*
X195993Y29501D01*
X197475Y30409D01*
X198797Y31538D01*
X199926Y32859D01*
X200834Y34341D01*
X201499Y35947D01*
X201905Y37637D01*
X202041Y39370D01*
X201905Y41103D01*
X201499Y42793D01*
X200834Y44399D01*
X199926Y45881D01*
X198797Y47203D01*
X197475Y48331D01*
X195993Y49240D01*
X194387Y49905D01*
X192697Y50310D01*
X190965Y50447D01*
D02*
G37*
G36*
X123996Y50447D02*
X122263Y50310D01*
X120573Y49905D01*
X118967Y49239D01*
X117485Y48331D01*
X116164Y47202D01*
X115035Y45881D01*
X114127Y44399D01*
X113461Y42793D01*
X113056Y41103D01*
X112919Y39370D01*
X113056Y37637D01*
X113461Y35947D01*
X114127Y34341D01*
X115035Y32859D01*
X116164Y31538D01*
X117485Y30409D01*
X118967Y29501D01*
X120573Y28835D01*
X122263Y28430D01*
X123996Y28293D01*
X125729Y28430D01*
X127419Y28835D01*
X129025Y29501D01*
X130507Y30409D01*
X131828Y31538D01*
X132957Y32859D01*
X133865Y34341D01*
X134530Y35947D01*
X134936Y37637D01*
X135073Y39370D01*
X134936Y41103D01*
X134530Y42793D01*
X133865Y44399D01*
X132957Y45881D01*
X131828Y47202D01*
X130507Y48331D01*
X129025Y49239D01*
X127419Y49905D01*
X125729Y50310D01*
X123996Y50447D01*
D02*
G37*
G36*
X25610D02*
X23877Y50310D01*
X22187Y49905D01*
X20582Y49239D01*
X19099Y48331D01*
X17778Y47202D01*
X16649Y45881D01*
X15741Y44399D01*
X15076Y42793D01*
X14670Y41103D01*
X14534Y39370D01*
X14670Y37637D01*
X15076Y35947D01*
X15741Y34341D01*
X16649Y32859D01*
X17778Y31538D01*
X19099Y30409D01*
X20582Y29501D01*
X22187Y28835D01*
X23877Y28430D01*
X25610Y28293D01*
X27343Y28430D01*
X29033Y28835D01*
X30639Y29501D01*
X32121Y30409D01*
X33443Y31538D01*
X34571Y32859D01*
X35480Y34341D01*
X36145Y35947D01*
X36551Y37637D01*
X36687Y39370D01*
X36551Y41103D01*
X36145Y42793D01*
X35480Y44399D01*
X34571Y45881D01*
X33443Y47202D01*
X32121Y48331D01*
X30639Y49239D01*
X29033Y49905D01*
X27343Y50310D01*
X25610Y50447D01*
D02*
G37*
%LPD*%
G36*
X161172Y366898D02*
X161015Y367013D01*
X160582Y367283D01*
X160451Y367350D01*
X160326Y367404D01*
X160207Y367446D01*
X160095Y367476D01*
X159989Y367494D01*
X159889Y367500D01*
Y368500D01*
X159989Y368506D01*
X160095Y368524D01*
X160207Y368554D01*
X160326Y368596D01*
X160451Y368651D01*
X160582Y368717D01*
X160865Y368885D01*
X161015Y368987D01*
X161172Y369102D01*
Y366898D01*
D02*
G37*
G36*
X163394Y368002D02*
X163509Y367504D01*
X163555Y367365D01*
X163605Y367238D01*
X163660Y367124D01*
X163718Y367023D01*
X163780Y366936D01*
X163846Y366861D01*
X163139Y366154D01*
X163064Y366220D01*
X162977Y366282D01*
X162876Y366340D01*
X162762Y366394D01*
X162635Y366445D01*
X162496Y366491D01*
X162177Y366571D01*
X161998Y366605D01*
X161806Y366636D01*
X163364Y368194D01*
X163394Y368002D01*
D02*
G37*
G36*
X204172Y354898D02*
X204015Y355012D01*
X203583Y355283D01*
X203451Y355349D01*
X203326Y355404D01*
X203207Y355446D01*
X203095Y355476D01*
X202989Y355494D01*
X202889Y355500D01*
Y356500D01*
X202989Y356506D01*
X203095Y356524D01*
X203207Y356554D01*
X203326Y356596D01*
X203451Y356650D01*
X203583Y356717D01*
X203865Y356885D01*
X204015Y356988D01*
X204172Y357102D01*
Y354898D01*
D02*
G37*
G36*
X206395Y356002D02*
X206509Y355504D01*
X206555Y355365D01*
X206606Y355238D01*
X206660Y355124D01*
X206718Y355023D01*
X206780Y354936D01*
X206846Y354861D01*
X206139Y354154D01*
X206064Y354220D01*
X205977Y354282D01*
X205876Y354340D01*
X205762Y354395D01*
X205635Y354445D01*
X205496Y354491D01*
X205177Y354571D01*
X204998Y354606D01*
X204806Y354636D01*
X206364Y356194D01*
X206395Y356002D01*
D02*
G37*
G36*
X123846Y335139D02*
X123780Y335064D01*
X123718Y334977D01*
X123660Y334876D01*
X123605Y334762D01*
X123555Y334635D01*
X123509Y334496D01*
X123429Y334177D01*
X123395Y333998D01*
X123364Y333806D01*
X121806Y335364D01*
X121998Y335395D01*
X122496Y335509D01*
X122635Y335555D01*
X122762Y335606D01*
X122876Y335660D01*
X122977Y335718D01*
X123064Y335780D01*
X123139Y335846D01*
X123846Y335139D01*
D02*
G37*
G36*
X88985Y334987D02*
X89417Y334717D01*
X89549Y334650D01*
X89674Y334596D01*
X89793Y334554D01*
X89905Y334524D01*
X90011Y334506D01*
X90111Y334500D01*
Y333500D01*
X90011Y333494D01*
X89905Y333476D01*
X89793Y333446D01*
X89674Y333404D01*
X89549Y333349D01*
X89417Y333283D01*
X89135Y333115D01*
X88986Y333014D01*
X88717Y332582D01*
X88651Y332451D01*
X88596Y332326D01*
X88554Y332207D01*
X88524Y332095D01*
X88506Y331989D01*
X88500Y331889D01*
X87500D01*
X87494Y331989D01*
X87476Y332095D01*
X87446Y332207D01*
X87404Y332326D01*
X87349Y332451D01*
X87283Y332582D01*
X87115Y332865D01*
X87014Y333014D01*
X86582Y333283D01*
X86451Y333349D01*
X86326Y333404D01*
X86207Y333446D01*
X86095Y333476D01*
X85989Y333494D01*
X85889Y333500D01*
Y334500D01*
X85989Y334506D01*
X86095Y334524D01*
X86207Y334554D01*
X86326Y334596D01*
X86451Y334650D01*
X86582Y334717D01*
X86865Y334885D01*
X87015Y334987D01*
X87173Y335102D01*
Y333172D01*
X88828D01*
Y335102D01*
X88985Y334987D01*
D02*
G37*
G36*
X121172Y332898D02*
X121016Y333013D01*
X120582Y333283D01*
X120451Y333349D01*
X120326Y333404D01*
X120207Y333446D01*
X120095Y333476D01*
X119989Y333494D01*
X119889Y333500D01*
Y334500D01*
X119989Y334506D01*
X120095Y334524D01*
X120207Y334554D01*
X120326Y334596D01*
X120451Y334650D01*
X120582Y334717D01*
X120865Y334885D01*
X121016Y334987D01*
X121172Y335102D01*
Y332898D01*
D02*
G37*
G36*
X51985Y334987D02*
X52417Y334717D01*
X52549Y334650D01*
X52674Y334596D01*
X52793Y334554D01*
X52905Y334524D01*
X53011Y334506D01*
X53111Y334500D01*
Y333500D01*
X53011Y333494D01*
X52905Y333476D01*
X52793Y333446D01*
X52674Y333404D01*
X52549Y333349D01*
X52417Y333283D01*
X52135Y333115D01*
X51985Y333013D01*
X51828Y332898D01*
Y335102D01*
X51985Y334987D01*
D02*
G37*
G36*
X216936Y324780D02*
X217023Y324718D01*
X217124Y324660D01*
X217238Y324605D01*
X217365Y324555D01*
X217504Y324509D01*
X217823Y324429D01*
X218002Y324394D01*
X218194Y324364D01*
X216636Y322806D01*
X216605Y322998D01*
X216491Y323496D01*
X216445Y323635D01*
X216394Y323762D01*
X216340Y323876D01*
X216282Y323977D01*
X216220Y324064D01*
X216154Y324139D01*
X216861Y324846D01*
X216936Y324780D01*
D02*
G37*
G36*
X218985Y323988D02*
X219418Y323717D01*
X219549Y323651D01*
X219674Y323596D01*
X219793Y323554D01*
X219905Y323524D01*
X220011Y323506D01*
X220111Y323500D01*
Y322500D01*
X220011Y322494D01*
X219905Y322476D01*
X219793Y322446D01*
X219674Y322404D01*
X219549Y322350D01*
X219418Y322283D01*
X219135Y322115D01*
X218985Y322012D01*
X218828Y321898D01*
Y324102D01*
X218985Y323988D01*
D02*
G37*
G36*
X104347Y298191D02*
X104435Y298129D01*
X104535Y298071D01*
X104649Y298017D01*
X104776Y297967D01*
X104916Y297920D01*
X105235Y297840D01*
X105413Y297806D01*
X105605Y297776D01*
X104047Y296217D01*
X104017Y296409D01*
X103902Y296907D01*
X103856Y297047D01*
X103806Y297174D01*
X103752Y297287D01*
X103694Y297388D01*
X103631Y297476D01*
X103565Y297550D01*
X104272Y298257D01*
X104347Y298191D01*
D02*
G37*
G36*
X258936Y292780D02*
X259023Y292718D01*
X259124Y292660D01*
X259238Y292605D01*
X259365Y292555D01*
X259504Y292509D01*
X259823Y292429D01*
X260002Y292394D01*
X260194Y292364D01*
X258636Y290806D01*
X258606Y290998D01*
X258491Y291496D01*
X258445Y291635D01*
X258395Y291762D01*
X258340Y291876D01*
X258282Y291977D01*
X258220Y292064D01*
X258154Y292139D01*
X258861Y292846D01*
X258936Y292780D01*
D02*
G37*
D10*
X218000Y323000D02*
X230787D01*
X244894Y306106D02*
Y308894D01*
X230787Y323000D02*
X244894Y308894D01*
Y306106D02*
X260000Y291000D01*
X212668Y350332D02*
X215166Y347834D01*
Y325834D02*
Y347834D01*
Y325834D02*
X218000Y323000D01*
X210668Y350332D02*
X212668D01*
X205000Y356000D02*
X210668Y350332D01*
X174000Y356000D02*
X205000D01*
X162000Y368000D02*
X174000Y356000D01*
X154213Y368000D02*
X162000D01*
X138106Y351894D02*
X154213Y368000D01*
X138106Y350106D02*
Y351894D01*
X122000Y334000D02*
X138106Y350106D01*
X88000Y334000D02*
X122000D01*
X88000Y313823D02*
Y334000D01*
X51000D02*
X88000D01*
Y313823D02*
X105411Y296411D01*
D15*
X15000Y376000D02*
X15000Y376000D01*
X68205Y388000D02*
X101000D01*
X57430Y398775D02*
X68205Y388000D01*
X57430Y398775D02*
Y403969D01*
X60302Y406842D01*
Y412036D01*
X57997Y414342D02*
X60302Y412036D01*
X44736Y414342D02*
X57997D01*
X42430Y412036D02*
X44736Y414342D01*
X42430Y407430D02*
Y412036D01*
X37430Y402430D02*
X42430Y407430D01*
X37430Y400903D02*
Y402430D01*
X28446Y391919D02*
X37430Y400903D01*
X26120Y391919D02*
X28446D01*
X17568Y383367D02*
X26120Y391919D01*
X17568Y378568D02*
Y383367D01*
X15000Y376000D02*
X17568Y378568D01*
D100*
X54370Y220472D02*
D03*
X24370D02*
D03*
X107047D02*
D03*
X137047D02*
D03*
X54370Y137795D02*
D03*
X24370D02*
D03*
X219724Y220472D02*
D03*
X189724D02*
D03*
D106*
X61024Y360236D02*
D03*
X335630Y132874D02*
D03*
X330709D02*
D03*
X325787D02*
D03*
X320866D02*
D03*
X295276Y93504D02*
D03*
X185661Y85662D02*
D03*
X200661Y301661D02*
D03*
X358338Y218661D02*
D03*
X113338Y400662D02*
D03*
X294441Y265559D02*
D03*
X231343Y269343D02*
D03*
X270000Y284000D02*
D03*
X266000Y304000D02*
D03*
X264000Y380000D02*
D03*
X185000Y305000D02*
D03*
X185000Y323000D02*
D03*
X186000Y343000D02*
D03*
X354000Y225000D02*
D03*
X373000D02*
D03*
X264000Y364000D02*
D03*
X262000Y344000D02*
D03*
X239000Y332000D02*
D03*
X237000Y313000D02*
D03*
X231000Y318000D02*
D03*
X230000Y337000D02*
D03*
X221000Y360000D02*
D03*
X237000Y368000D02*
D03*
X185000Y361000D02*
D03*
Y380000D02*
D03*
X260000Y120000D02*
D03*
X231000Y73000D02*
D03*
X73000Y90000D02*
D03*
X106000D02*
D03*
X139000D02*
D03*
X172000D02*
D03*
X40000D02*
D03*
X87000Y362000D02*
D03*
X36000D02*
D03*
X7343Y365343D02*
D03*
X118000Y308000D02*
D03*
X50000Y348000D02*
D03*
X121000Y348000D02*
D03*
X87000Y347000D02*
D03*
X205000Y356000D02*
D03*
X88000Y334000D02*
D03*
X260000Y291000D02*
D03*
X105411Y296411D02*
D03*
X218000Y323000D02*
D03*
X162000Y368000D02*
D03*
X122000Y334000D02*
D03*
X51000D02*
D03*
M02*
