G04*
G04 #@! TF.GenerationSoftware,Altium Limited,Altium Designer,23.10.1 (27)*
G04*
G04 Layer_Color=8388736*
%FSLAX25Y25*%
%MOIN*%
G70*
G04*
G04 #@! TF.SameCoordinates,25415466-D0CE-43B0-AC23-F92A6D1D0972*
G04*
G04*
G04 #@! TF.FilePolarity,Negative*
G04*
G01*
G75*
%ADD15C,0.00800*%
%ADD36R,0.04331X0.03937*%
%ADD37R,0.05512X0.03150*%
%ADD38R,0.04134X0.03740*%
%ADD39R,0.03740X0.01968*%
%ADD40R,0.03937X0.03543*%
%ADD41R,0.03740X0.04134*%
%ADD42R,0.05906X0.05512*%
%ADD43R,0.03937X0.04331*%
%ADD44O,0.09252X0.01968*%
%ADD45O,0.05709X0.02362*%
%ADD46R,0.05512X0.05906*%
%ADD47R,0.02756X0.04528*%
%ADD48R,0.06496X0.02756*%
%ADD49R,0.03150X0.05512*%
%ADD50R,0.09843X0.04331*%
%ADD51R,0.27165X0.22244*%
%ADD52R,0.02362X0.03543*%
%ADD53R,0.04134X0.03937*%
%ADD54C,0.11811*%
%ADD55C,0.07677*%
%ADD56C,0.11024*%
%ADD57C,0.20079*%
%ADD58O,0.12205X0.24016*%
%ADD59O,0.07677X0.10827*%
%ADD60O,0.06890X0.10827*%
%ADD61O,0.10827X0.06890*%
%ADD62C,0.00394*%
%ADD63C,0.05472*%
%ADD64R,0.05472X0.05472*%
%ADD65C,0.09528*%
%ADD66C,0.12795*%
%ADD67R,0.05906X0.05906*%
%ADD68C,0.05906*%
%ADD69C,0.09646*%
%ADD70R,0.07087X0.07087*%
%ADD71C,0.07087*%
%ADD72O,0.16929X0.06890*%
%ADD73O,0.15551X0.06890*%
%ADD74O,0.06890X0.15551*%
%ADD75C,0.06394*%
%ADD76R,0.12402X0.11614*%
%ADD77R,0.08465X0.08465*%
%ADD78C,0.08465*%
%ADD79R,0.06890X0.06890*%
%ADD80C,0.06890*%
G36*
X354748Y178000D02*
Y162252D01*
X339000D01*
Y178000D01*
Y193748D01*
X354748D01*
Y178000D01*
D02*
G37*
D15*
X15000Y376000D02*
X15000Y376000D01*
X68205Y388000D02*
X101000D01*
X57430Y398775D02*
X68205Y388000D01*
X57430Y398775D02*
Y403969D01*
X60302Y406842D01*
Y412036D01*
X57997Y414342D02*
X60302Y412036D01*
X44736Y414342D02*
X57997D01*
X42430Y412036D02*
X44736Y414342D01*
X42430Y407430D02*
Y412036D01*
X37430Y402430D02*
X42430Y407430D01*
X37430Y400903D02*
Y402430D01*
X28446Y391919D02*
X37430Y400903D01*
X26120Y391919D02*
X28446D01*
X17568Y383367D02*
X26120Y391919D01*
X17568Y378568D02*
Y383367D01*
X15000Y376000D02*
X17568Y378568D01*
D36*
X185000Y371343D02*
D03*
Y376657D02*
D03*
Y352343D02*
D03*
Y357657D02*
D03*
X151000D02*
D03*
Y352343D02*
D03*
X182000Y337343D02*
D03*
Y342657D02*
D03*
X151000Y314343D02*
D03*
Y319657D02*
D03*
X185000Y313343D02*
D03*
Y318657D02*
D03*
Y296343D02*
D03*
Y301657D02*
D03*
X264000Y371343D02*
D03*
Y376657D02*
D03*
Y354343D02*
D03*
Y359657D02*
D03*
X237000Y322657D02*
D03*
Y317343D02*
D03*
X266000Y294342D02*
D03*
Y299658D02*
D03*
Y278343D02*
D03*
Y283658D02*
D03*
X12000Y370657D02*
D03*
Y365343D02*
D03*
X88000Y370669D02*
D03*
Y365354D02*
D03*
X62000Y370510D02*
D03*
Y365195D02*
D03*
X37000Y370657D02*
D03*
Y365343D02*
D03*
X334000Y93657D02*
D03*
Y88342D02*
D03*
Y80658D02*
D03*
Y75343D02*
D03*
X256000Y115343D02*
D03*
Y120657D02*
D03*
X73000Y80469D02*
D03*
Y85783D02*
D03*
X40000Y80469D02*
D03*
Y85783D02*
D03*
X106000Y80469D02*
D03*
Y85783D02*
D03*
X139000Y80469D02*
D03*
Y85783D02*
D03*
X172000Y80469D02*
D03*
Y85783D02*
D03*
X231000Y63343D02*
D03*
Y68657D02*
D03*
X225000Y63343D02*
D03*
Y68657D02*
D03*
D37*
X167276Y358740D02*
D03*
Y355000D02*
D03*
Y351260D02*
D03*
X176724D02*
D03*
Y358740D02*
D03*
X167276Y377740D02*
D03*
Y374000D02*
D03*
Y370260D02*
D03*
X176724D02*
D03*
Y377740D02*
D03*
X167276Y320740D02*
D03*
Y317000D02*
D03*
Y313260D02*
D03*
X176724D02*
D03*
Y320740D02*
D03*
X167276Y302740D02*
D03*
Y299000D02*
D03*
Y295260D02*
D03*
X176724D02*
D03*
Y302740D02*
D03*
X246276Y377740D02*
D03*
Y374000D02*
D03*
Y370260D02*
D03*
X255724D02*
D03*
Y377740D02*
D03*
X246276Y359740D02*
D03*
Y356000D02*
D03*
Y352260D02*
D03*
X255724D02*
D03*
Y359740D02*
D03*
X254724Y316260D02*
D03*
Y320000D02*
D03*
Y323740D02*
D03*
X245276D02*
D03*
Y316260D02*
D03*
X246929Y301173D02*
D03*
Y297433D02*
D03*
Y293693D02*
D03*
X256378D02*
D03*
Y301173D02*
D03*
X246929Y284646D02*
D03*
Y280906D02*
D03*
Y277165D02*
D03*
X256378D02*
D03*
Y284646D02*
D03*
X238276Y121740D02*
D03*
Y118000D02*
D03*
Y114260D02*
D03*
X247724D02*
D03*
Y121740D02*
D03*
X88551Y86606D02*
D03*
Y82866D02*
D03*
Y79126D02*
D03*
X98000D02*
D03*
Y86606D02*
D03*
X55276Y86866D02*
D03*
Y83126D02*
D03*
Y79386D02*
D03*
X64724D02*
D03*
Y86866D02*
D03*
X22276D02*
D03*
Y83126D02*
D03*
Y79386D02*
D03*
X31724D02*
D03*
Y86866D02*
D03*
X121276D02*
D03*
Y83126D02*
D03*
Y79386D02*
D03*
X130724D02*
D03*
Y86866D02*
D03*
X154276D02*
D03*
Y83126D02*
D03*
Y79386D02*
D03*
X163724D02*
D03*
Y86866D02*
D03*
D38*
X158000Y371441D02*
D03*
Y376559D02*
D03*
X151000Y371441D02*
D03*
Y376559D02*
D03*
X144000Y371441D02*
D03*
Y376559D02*
D03*
X137000D02*
D03*
Y371441D02*
D03*
X130000D02*
D03*
Y376559D02*
D03*
X158000Y352441D02*
D03*
Y357559D02*
D03*
X144000Y352441D02*
D03*
Y357559D02*
D03*
X161000Y342559D02*
D03*
Y337441D02*
D03*
X153000Y342559D02*
D03*
Y337441D02*
D03*
X131000D02*
D03*
Y342559D02*
D03*
X144000Y319559D02*
D03*
Y314441D02*
D03*
X137000D02*
D03*
Y319559D02*
D03*
X130000Y314441D02*
D03*
Y319559D02*
D03*
X158000D02*
D03*
Y314441D02*
D03*
Y301559D02*
D03*
Y296441D02*
D03*
X144000D02*
D03*
Y301559D02*
D03*
X151000Y296441D02*
D03*
Y301559D02*
D03*
X199000Y351559D02*
D03*
Y346441D02*
D03*
X208000Y380559D02*
D03*
Y375441D02*
D03*
X222000Y380559D02*
D03*
Y375441D02*
D03*
X237000Y358559D02*
D03*
Y353441D02*
D03*
X290000Y265559D02*
D03*
Y260441D02*
D03*
Y254559D02*
D03*
Y249441D02*
D03*
X339000Y241559D02*
D03*
Y236441D02*
D03*
X332000Y241559D02*
D03*
Y236441D02*
D03*
X342000Y258441D02*
D03*
Y263559D02*
D03*
X364000Y258441D02*
D03*
Y263559D02*
D03*
X364000Y62559D02*
D03*
Y57441D02*
D03*
X376000Y62559D02*
D03*
Y57441D02*
D03*
X370000Y62559D02*
D03*
Y57441D02*
D03*
X382000Y62559D02*
D03*
Y57441D02*
D03*
X41866Y254220D02*
D03*
Y249102D02*
D03*
X25866Y254220D02*
D03*
Y249102D02*
D03*
X33866D02*
D03*
Y254220D02*
D03*
X49000Y254559D02*
D03*
Y249441D02*
D03*
X108866Y255220D02*
D03*
Y250102D02*
D03*
X116866Y255220D02*
D03*
Y250102D02*
D03*
X124866Y255220D02*
D03*
Y250102D02*
D03*
X132866Y255220D02*
D03*
Y250102D02*
D03*
X188866Y252220D02*
D03*
Y247102D02*
D03*
X197866Y252220D02*
D03*
Y247102D02*
D03*
X206866Y252220D02*
D03*
Y247102D02*
D03*
X215866Y252220D02*
D03*
Y247102D02*
D03*
X50000Y170559D02*
D03*
Y165441D02*
D03*
X42000Y170559D02*
D03*
Y165441D02*
D03*
X34000Y170559D02*
D03*
Y165441D02*
D03*
X26000Y170559D02*
D03*
Y165441D02*
D03*
X174000Y117559D02*
D03*
Y112441D02*
D03*
X74000Y62567D02*
D03*
Y67685D02*
D03*
X62000Y62567D02*
D03*
Y67685D02*
D03*
X56000Y62567D02*
D03*
Y67685D02*
D03*
X44000Y62567D02*
D03*
Y67685D02*
D03*
X32000Y62567D02*
D03*
Y67685D02*
D03*
X26000Y62567D02*
D03*
Y67685D02*
D03*
X86000Y62567D02*
D03*
Y67685D02*
D03*
X80000Y62567D02*
D03*
Y67685D02*
D03*
X98000Y62567D02*
D03*
Y67685D02*
D03*
X104000Y62567D02*
D03*
Y67685D02*
D03*
X116000Y62567D02*
D03*
Y67685D02*
D03*
X80000Y80567D02*
D03*
Y85685D02*
D03*
X47000Y80567D02*
D03*
Y85685D02*
D03*
X14000Y85685D02*
D03*
Y80567D02*
D03*
X113000Y80567D02*
D03*
Y85685D02*
D03*
X146000Y80567D02*
D03*
Y85685D02*
D03*
X295276Y82087D02*
D03*
Y87205D02*
D03*
X219000Y63441D02*
D03*
Y68559D02*
D03*
X243000Y63567D02*
D03*
Y68685D02*
D03*
X249000Y63567D02*
D03*
Y68685D02*
D03*
X255000Y63567D02*
D03*
Y68685D02*
D03*
X261000Y63441D02*
D03*
Y68559D02*
D03*
D39*
X176429Y337441D02*
D03*
Y340000D02*
D03*
Y342559D02*
D03*
X167571D02*
D03*
Y340000D02*
D03*
Y337441D02*
D03*
X346571Y241559D02*
D03*
Y239000D02*
D03*
Y236441D02*
D03*
X355429D02*
D03*
Y239000D02*
D03*
Y241559D02*
D03*
X365571D02*
D03*
Y239000D02*
D03*
Y236441D02*
D03*
X374429D02*
D03*
Y239000D02*
D03*
Y241559D02*
D03*
D40*
X145937Y336260D02*
D03*
Y343740D02*
D03*
X138063Y340000D02*
D03*
X335937Y257260D02*
D03*
Y264740D02*
D03*
X328063Y261000D02*
D03*
X357937Y257260D02*
D03*
Y264740D02*
D03*
X350063Y261000D02*
D03*
D41*
X151441Y331000D02*
D03*
X156559D02*
D03*
X247559Y344000D02*
D03*
X242441D02*
D03*
X258559D02*
D03*
X253441D02*
D03*
Y332000D02*
D03*
X258559D02*
D03*
X242441D02*
D03*
X247559D02*
D03*
X237559Y297000D02*
D03*
X232441D02*
D03*
X264559Y240000D02*
D03*
X259441D02*
D03*
X325984Y226181D02*
D03*
X331102D02*
D03*
X356559Y250000D02*
D03*
X351441D02*
D03*
X334559D02*
D03*
X329441D02*
D03*
X101559Y382000D02*
D03*
X96441D02*
D03*
X75559D02*
D03*
X70441D02*
D03*
X50559Y381000D02*
D03*
X45441D02*
D03*
X25559D02*
D03*
X20441D02*
D03*
X308465Y257181D02*
D03*
X313583D02*
D03*
X296661Y226181D02*
D03*
X291543D02*
D03*
D42*
X194709Y295992D02*
D03*
Y302291D02*
D03*
X248000Y260150D02*
D03*
Y253850D02*
D03*
X343000Y89850D02*
D03*
Y96150D02*
D03*
Y74850D02*
D03*
Y81150D02*
D03*
X180000Y80000D02*
D03*
Y86299D02*
D03*
D43*
X221343Y337000D02*
D03*
X226657D02*
D03*
X212343Y360000D02*
D03*
X217657D02*
D03*
X232343Y304000D02*
D03*
X237657D02*
D03*
X236657Y273000D02*
D03*
X231343D02*
D03*
X348343Y230000D02*
D03*
X353657D02*
D03*
X367343Y230000D02*
D03*
X372657D02*
D03*
X112343Y348000D02*
D03*
X117657D02*
D03*
X78343Y347000D02*
D03*
X83657D02*
D03*
X41342Y348000D02*
D03*
X46657D02*
D03*
X343658Y129000D02*
D03*
X338343D02*
D03*
X114657Y308000D02*
D03*
X109343D02*
D03*
D44*
X224350Y313250D02*
D03*
Y315750D02*
D03*
Y318250D02*
D03*
Y320750D02*
D03*
Y323250D02*
D03*
Y325750D02*
D03*
Y328250D02*
D03*
Y330750D02*
D03*
X205650Y313250D02*
D03*
Y315750D02*
D03*
Y318250D02*
D03*
Y320750D02*
D03*
Y323250D02*
D03*
Y325750D02*
D03*
Y328250D02*
D03*
Y330750D02*
D03*
X62516Y341411D02*
D03*
Y338911D02*
D03*
Y336411D02*
D03*
Y333911D02*
D03*
Y331411D02*
D03*
Y328911D02*
D03*
Y326411D02*
D03*
Y323911D02*
D03*
X81217Y341411D02*
D03*
Y338911D02*
D03*
Y336411D02*
D03*
Y333911D02*
D03*
Y331411D02*
D03*
Y328911D02*
D03*
Y326411D02*
D03*
Y323911D02*
D03*
X96516Y301411D02*
D03*
Y298911D02*
D03*
Y296411D02*
D03*
Y293911D02*
D03*
Y291411D02*
D03*
Y288911D02*
D03*
Y286411D02*
D03*
Y283911D02*
D03*
X115217Y301411D02*
D03*
Y298911D02*
D03*
Y296411D02*
D03*
Y293911D02*
D03*
Y291411D02*
D03*
Y288911D02*
D03*
Y286411D02*
D03*
Y283911D02*
D03*
X25516Y341411D02*
D03*
Y338911D02*
D03*
Y336411D02*
D03*
Y333911D02*
D03*
Y331411D02*
D03*
Y328911D02*
D03*
Y326411D02*
D03*
Y323911D02*
D03*
X44217Y341411D02*
D03*
Y338911D02*
D03*
Y336411D02*
D03*
Y333911D02*
D03*
Y331411D02*
D03*
Y328911D02*
D03*
Y326411D02*
D03*
Y323911D02*
D03*
X96516Y341411D02*
D03*
Y338911D02*
D03*
Y336411D02*
D03*
Y333911D02*
D03*
Y331411D02*
D03*
Y328911D02*
D03*
Y326411D02*
D03*
Y323911D02*
D03*
X115217Y341411D02*
D03*
Y338911D02*
D03*
Y336411D02*
D03*
Y333911D02*
D03*
Y331411D02*
D03*
Y328911D02*
D03*
Y326411D02*
D03*
Y323911D02*
D03*
D45*
X206043Y352839D02*
D03*
Y350280D02*
D03*
Y347720D02*
D03*
Y345161D02*
D03*
X223957Y352839D02*
D03*
Y350280D02*
D03*
Y347720D02*
D03*
Y345161D02*
D03*
D46*
X218150Y368000D02*
D03*
X211850D02*
D03*
X204150D02*
D03*
X197850D02*
D03*
X232150D02*
D03*
X225850D02*
D03*
X364323Y212709D02*
D03*
X358024D02*
D03*
X119638Y394709D02*
D03*
X113338D02*
D03*
X344150Y122000D02*
D03*
X337850D02*
D03*
X343150Y108000D02*
D03*
X336850D02*
D03*
D47*
X230260Y279335D02*
D03*
X237740D02*
D03*
X234000Y288665D02*
D03*
D48*
X258370Y264500D02*
D03*
Y259500D02*
D03*
Y254500D02*
D03*
Y249500D02*
D03*
X279630Y264500D02*
D03*
Y259500D02*
D03*
Y254500D02*
D03*
Y249500D02*
D03*
D49*
X102740Y372724D02*
D03*
X99000D02*
D03*
X95260D02*
D03*
Y363276D02*
D03*
X102740D02*
D03*
X77740Y372724D02*
D03*
X74000D02*
D03*
X70260D02*
D03*
Y363276D02*
D03*
X77740D02*
D03*
X51740Y372724D02*
D03*
X48000D02*
D03*
X44260D02*
D03*
Y363276D02*
D03*
X51740D02*
D03*
X26740Y372724D02*
D03*
X23000D02*
D03*
X19260D02*
D03*
Y363276D02*
D03*
X26740D02*
D03*
D50*
X325142Y126646D02*
D03*
Y108693D02*
D03*
D51*
X299945Y117669D02*
D03*
D52*
X68000Y68669D02*
D03*
Y61583D02*
D03*
X50000Y68669D02*
D03*
Y61583D02*
D03*
X38000Y68669D02*
D03*
Y61583D02*
D03*
X20000Y68669D02*
D03*
Y61583D02*
D03*
X92000Y68669D02*
D03*
Y61583D02*
D03*
X110000Y68669D02*
D03*
Y61583D02*
D03*
X122000Y61583D02*
D03*
Y68669D02*
D03*
X237000Y69669D02*
D03*
Y62583D02*
D03*
X267000Y69543D02*
D03*
Y62457D02*
D03*
D53*
X370000Y378201D02*
D03*
Y365799D02*
D03*
Y310201D02*
D03*
Y297799D02*
D03*
D54*
X374016Y442913D02*
D03*
X19685Y19685D02*
D03*
X374016D02*
D03*
D55*
X280512Y454724D02*
D03*
X229331D02*
D03*
X69341Y39370D02*
D03*
X78337D02*
D03*
X87333D02*
D03*
X96329D02*
D03*
X55846Y49370D02*
D03*
X64843D02*
D03*
X60345Y39370D02*
D03*
X73839Y49370D02*
D03*
X82835D02*
D03*
X91831D02*
D03*
Y29370D02*
D03*
X82835D02*
D03*
X73839D02*
D03*
X55846D02*
D03*
X64843D02*
D03*
X234695Y39370D02*
D03*
X243691D02*
D03*
X252687D02*
D03*
X261683D02*
D03*
X221201Y49370D02*
D03*
X230197D02*
D03*
X225699Y39370D02*
D03*
X239193Y49370D02*
D03*
X248189D02*
D03*
X257185D02*
D03*
Y29370D02*
D03*
X248189D02*
D03*
X239193D02*
D03*
X221201D02*
D03*
X230197D02*
D03*
D56*
X254921Y415354D02*
D03*
X268701D02*
D03*
X241142D02*
D03*
D57*
X183315Y443016D02*
D03*
X123996Y39370D02*
D03*
X25610D02*
D03*
X289350Y39370D02*
D03*
X190965D02*
D03*
D58*
X167764Y402661D02*
D03*
X198866D02*
D03*
D59*
X102600Y444100D02*
D03*
X129400D02*
D03*
D60*
X104700Y412000D02*
D03*
X127300D02*
D03*
D61*
X116000Y408900D02*
D03*
D62*
Y422000D02*
D03*
Y449600D02*
D03*
D63*
X31366Y400406D02*
D03*
X36366Y410406D02*
D03*
X41366Y400406D02*
D03*
X46366Y410406D02*
D03*
X51366Y400406D02*
D03*
X56366Y410406D02*
D03*
X61366Y400406D02*
D03*
D64*
X66366Y410406D02*
D03*
D65*
X17862Y447413D02*
D03*
X79870D02*
D03*
D66*
X26366Y435406D02*
D03*
X71366D02*
D03*
D67*
X288976Y210630D02*
D03*
X324075Y210051D02*
D03*
X258780Y220472D02*
D03*
X306024Y240157D02*
D03*
X316024Y84646D02*
D03*
D68*
X298976Y210630D02*
D03*
X334075Y210051D02*
D03*
X268780Y220472D02*
D03*
X316024Y240157D02*
D03*
X306024Y84646D02*
D03*
D69*
X295866Y348417D02*
D03*
X351772Y372039D02*
D03*
X343898Y395661D02*
D03*
X295866D02*
D03*
X343898Y348417D02*
D03*
X295866Y280417D02*
D03*
X351772Y304039D02*
D03*
X343898Y327661D02*
D03*
X295866D02*
D03*
X343898Y280417D02*
D03*
D70*
X365157Y82000D02*
D03*
X365000Y108000D02*
D03*
D71*
X375000Y82000D02*
D03*
X374842Y108000D02*
D03*
D72*
X334000Y41591D02*
D03*
D73*
Y66000D02*
D03*
D74*
X352307Y54386D02*
D03*
D75*
X54370Y230472D02*
D03*
Y220472D02*
D03*
Y210472D02*
D03*
X24370D02*
D03*
Y230472D02*
D03*
Y220472D02*
D03*
X107047D02*
D03*
Y230472D02*
D03*
Y210472D02*
D03*
X137047D02*
D03*
Y220472D02*
D03*
Y230472D02*
D03*
X54370Y147795D02*
D03*
Y137795D02*
D03*
Y127795D02*
D03*
X24370D02*
D03*
Y147795D02*
D03*
Y137795D02*
D03*
X219724Y230472D02*
D03*
Y220472D02*
D03*
Y210472D02*
D03*
X189724D02*
D03*
Y230472D02*
D03*
Y220472D02*
D03*
X137047Y147795D02*
D03*
Y137795D02*
D03*
Y127795D02*
D03*
X107047D02*
D03*
Y147795D02*
D03*
Y137795D02*
D03*
D76*
X183858D02*
D03*
X225591D02*
D03*
D77*
X194882Y110236D02*
D03*
D78*
X214567D02*
D03*
X204724D02*
D03*
D79*
X26866Y282661D02*
D03*
X47866D02*
D03*
X69866D02*
D03*
D80*
X26866Y292661D02*
D03*
Y302661D02*
D03*
X47866Y292661D02*
D03*
Y302661D02*
D03*
X69866Y292661D02*
D03*
Y302661D02*
D03*
M02*
