M48
;Layer_Color=9474304
;FILE_FORMAT=2:5
INCH,LZ
;TYPE=PLATED
T01F00S00C0.01378
T02F00S00C0.03000
T03F00S00C0.03150
T05F00S00C0.03346
T06F00S00C0.03500
T07F00S00C0.03504
T08F00S00C0.03937
T10F00S00C0.04724
T11F00S00C0.06102
T12F00S00C0.06181
T13F00S00C0.06496
T14F00S00C0.06693
T16F00S00C0.10630
T17F00S00C0.12598
;TYPE=NON_PLATED
T18F00S00C0.04724
T19F00S00C0.12795
%
T01
X0364173Y0052165
X0370079
X0375984
X038189
X0225Y0059
X0122Y0058
X0092Y0057
Y0072
X0098Y0071
X0106Y0075
X0110146Y0071854
X0106Y009
X0073
X0073Y0075
X0074Y0071
X0068Y0072
X0056Y0071
X005Y0072047
X0052646Y0075646
X0044Y0076
X0038Y0072
X0032Y0071
X0026
X0021996Y0071322
X0017Y0076
X004Y009
X0086Y0075
X005Y0161
X0042Y0161
X0034
X0026Y0161
X0121Y0076
X0139Y0075
X0139Y009
X0154276Y0074724
X0172Y0075
X0172Y009
X0185661Y0085662
X0185638Y0079362
X0231Y0073
X0237Y0073
X0243Y0074
X0253937Y007185
X0261Y0073
X0267Y0074
X0260657Y0115343
X026Y012
X0238Y0125
X0234Y0118
X0174Y0121
X028937Y011811
Y0124016
X0294291Y0121063
Y0115157
X0299213Y011811
Y0124016
X0304134Y0121063
X0309055Y011811
Y0124016
Y0112205
X0299213
X028937
X0295276Y0093504
X033685Y0113937
X033563Y0132874
X0330709
X0325787
X0320866
X0348343Y0225343
X0354Y0225
X0358338Y0218661
X0364638Y0218638
X0367343Y0225343
X0373Y0225
X0359Y0242
X0342441Y0241559
X0339Y0233
X0332Y0233
X0318Y0229
X0317Y0257
X0326Y025
X0346
Y0264
X0294441Y0265559
X027Y0279
Y0284
X0266Y029
X026Y0291
X0261Y0277
X02535Y02645
X0243Y0255
X0236657Y0269343
X0231343Y0269343
X0229Y0297
Y0304
X0231Y0313
Y0318
Y0328
X0237Y0327
X0239Y0332
Y0344
X0242Y0356
X0237Y0368
X0242Y0373
Y0377
X0264Y038
X0262Y0368
X0264Y0364
X0264Y035
X0262Y0344
X0263Y0332
X0266Y0304
X0242Y0297
X0237Y0313
X0218Y0323
X0218Y0337
X023Y0337
X0204Y0333997
X0197Y0325
X019925Y032075
X0185Y0323
Y0309
X0185Y0305
X0185Y0293
X0200638Y0295362
X0200661Y0301661
X0163Y0299
X0151Y0305
X0145941Y0293059
X0122589Y0296411
X0122Y0286
Y0326
Y0334
Y0339
X0121Y0348
X0132941Y0334059
X0138Y0336
X0144Y0323
X013Y0324
X016Y0331
X0162941Y0333059
X0169315Y0333685
X0167Y0324
X0163Y0317
X0182Y0334
X0186Y0343
X0185Y0348
X0179Y0348
X0185Y0361
X0185Y0368
X0193
X0185Y038
X0163164Y0375164
X0162Y0368
Y0357617
X0151Y0361
X0151Y038
X0137Y038
X013Y0381
X0209Y0361
X0205Y0356
X0221Y036
X0216Y0243
X0207
X0198
X0189
X0132866Y0246134
X0124866Y0245866
X0117Y0246
X0109
X0105411Y0296411
X0106Y0308
X0118Y0308
X0088411Y0301411
X009Y0294
X0088Y0291
X0081Y0321
X0075Y0325
Y0347
X0087
X0087911Y0338911
X0088Y0334
X0097Y0344
X0103Y033
X0112343Y0352658
X0087Y0362
X0083Y0365
X0057Y0365707
X0061024Y0360236
X0062516Y0344484
X005Y0348
X0049904Y033757
X0051Y0334
X0056Y0331
X0051Y0325
X0045Y0321
X0022Y0319
X0019Y0331
X0017089Y0333911
X0025516Y0345516
X0038Y0348
X0036Y0362
X0032Y0358
X0007343Y0365343
X0007657Y0370657
X0015Y0376
X0026Y0245
X0034
X0042
X0049Y0245
X0101Y0388
X0113338Y0400662
X0119638Y0400638
T02
X002437Y0127795
Y0137795
Y0147795
X005437
Y0137795
Y0127795
X0107047
Y0137795
Y0147795
Y0210472
Y0220472
X005437
Y0210472
X002437
Y0220472
X0137047
Y0210472
X0189724
Y0220472
X0219724
Y0210472
X0137047Y0147795
Y0137795
Y0127795
Y0230472
X0189724
X0219724
X0107047
X005437
X002437
T03
X0026866Y0282661
Y0292661
Y0302661
X0047866
Y0292661
Y0282661
X0069866
Y0292661
Y0302661
T05
X0365157Y0082
X0375
X0374842Y0108
X0365
T06
X025878Y0220472
X026878
X0288976Y021063
X0298976
X0324075Y0210051
X0334075
X0316024Y0084646
X0306024
X0306024Y0240157
X0316024
T07
X0031366Y0400406
X0041366
X0051366
X0061366
X0056366Y0410406
X0046366
X0036366
X0066366
T08
X0221201Y002937
X0230197
X0239193
X0248189
X0257185
X0252687Y003937
X0243691
X0234695
X0225699
X0221201Y004937
X0230197
X0239193
X0248189
X0257185
X0261683Y003937
X0096329Y003937
X0087333
X0078337
X0069341
X0060345
X0064843Y004937
X0073839
X0082835
X0091831
Y002937
X0082835
X0073839
X0064843
X0055846
Y004937
X0229331Y0454724
X0280512
T10
X0194882Y0110236
X0204724
X0214567
T11
X0295866Y0280417
Y0327661
Y0348417
X0343898
Y0327661
X0351772Y0304039
X0343898Y0280417
X0351772Y0372039
X0343898Y0395661
X0295866
T12
X0017862Y0447413
X007987
T13
X0167764Y0402661
X0198866
T14
X0241142Y0415354
X0254921
X0268701
T16
X0183315Y0443016
T17
X028935Y003937
X0190965
X0123996Y003937
X002561
T18
X0116Y0422
Y04496
T19
X0026366Y0435406
X0071366
M30
