  0
SECTION
  2
HEADER
  9
$ACADVER
  1
AC1009
  9
$INSBASE
 10
0.0
 20
0.0
 30
0.0
  9
$EXTMIN
 10
30.428737399280621
 20
54.820621901371602
 30
0.0
  9
$EXTMAX
 10
72.428737399307593
 20
155.0041518033363
 30
0.0
  9
$LIMMIN
 10
0.0
 20
0.0
  9
$LIMMAX
 10
105.0
 20
148.5
  9
$ORTHOMODE
 70
     0
  9
$REGENMODE
 70
     1
  9
$FILLMODE
 70
     1
  9
$QTEXTMODE
 70
     0
  9
$MIRRTEXT
 70
     0
  9
$DRAGMODE
 70
     2
  9
$LTSCALE
 40
0.5
  9
$OSMODE
 70
   293
  9
$ATTMODE
 70
     1
  9
$TEXTSIZE
 40
0.2
  9
$TRACEWID
 40
0.05
  9
$TEXTSTYLE
  7
STANDARD
  9
$CLAYER
  8
0
  9
$CELTYPE
  6
BYLAYER
  9
$CECOLOR
 62
   256
  9
$DIMSCALE
 40
1.0
  9
$DIMASZ
 40
1.7999999999999969
  9
$DIMEXO
 40
0.0625
  9
$DIMDLI
 40
0.38
  9
$DIMRND
 40
0.0
  9
$DIMDLE
 40
0.0
  9
$DIMEXE
 40
0.18
  9
$DIMTP
 40
0.0
  9
$DIMTM
 40
0.0
  9
$DIMTXT
 40
0.2000000029802322
  9
$DIMCEN
 40
0.09
  9
$DIMTSZ
 40
0.0
  9
$DIMTOL
 70
     0
  9
$DIMLIM
 70
     0
  9
$DIMTIH
 70
     1
  9
$DIMTOH
 70
     1
  9
$DIMSE1
 70
     0
  9
$DIMSE2
 70
     0
  9
$DIMTAD
 70
     0
  9
$DIMZIN
 70
     0
  9
$DIMBLK
  1

  9
$DIMASO
 70
     1
  9
$DIMSHO
 70
     1
  9
$DIMPOST
  1

  9
$DIMAPOST
  1

  9
$DIMALT
 70
     0
  9
$DIMALTD
 70
     2
  9
$DIMALTF
 40
25.399999999999999
  9
$DIMLFAC
 40
1.0
  9
$DIMTOFL
 70
     0
  9
$DIMTVP
 40
0.0
  9
$DIMTIX
 70
     0
  9
$DIMSOXD
 70
     0
  9
$DIMSAH
 70
     0
  9
$DIMBLK1
  1

  9
$DIMBLK2
  1

  9
$DIMSTYLE
  2
STANDARD
  9
$DIMCLRD
 70
     0
  9
$DIMCLRE
 70
     0
  9
$DIMCLRT
 70
     0
  9
$DIMTFAC
 40
1.0
  9
$DIMGAP
 40
0.09
  9
$LUNITS
 70
     2
  9
$LUPREC
 70
     4
  9
$SKETCHINC
 40
0.1
  9
$FILLETRAD
 40
0.0
  9
$AUNITS
 70
     0
  9
$AUPREC
 70
     0
  9
$MENU
  1
.
  9
$ELEVATION
 40
0.0
  9
$PELEVATION
 40
0.0
  9
$THICKNESS
 40
0.0
  9
$LIMCHECK
 70
     0
  9
$BLIPMODE
 70
     0
  9
$CHAMFERA
 40
0.0
  9
$CHAMFERB
 40
0.0
  9
$SKPOLY
 70
     0
  9
$TDCREATE
 40
2454295.5948472451
  9
$TDUPDATE
 40
2454874.3679313539
  9
$TDINDWG
 40
0.0047209838
  9
$TDUSRTIMER
 40
0.0047207986
  9
$USRTIMER
 70
     1
  9
$ANGBASE
 50
0.0
  9
$ANGDIR
 70
     0
  9
$PDMODE
 70
     0
  9
$PDSIZE
 40
0.0
  9
$PLINEWID
 40
0.0
  9
$COORDS
 70
     1
  9
$SPLFRAME
 70
     0
  9
$SPLINETYPE
 70
     6
  9
$SPLINESEGS
 70
     8
  9
$ATTDIA
 70
     1
  9
$ATTREQ
 70
     1
  9
$HANDLING
 70
     1
  9
$HANDSEED
  5
3760
  9
$SURFTAB1
 70
     6
  9
$SURFTAB2
 70
     6
  9
$SURFTYPE
 70
     6
  9
$SURFU
 70
     6
  9
$SURFV
 70
     6
  9
$UCSNAME
  2

  9
$UCSORG
 10
0.0
 20
0.0
 30
0.0
  9
$UCSXDIR
 10
1.0
 20
0.0
 30
0.0
  9
$UCSYDIR
 10
0.0
 20
1.0
 30
0.0
  9
$PUCSNAME
  2

  9
$PUCSORG
 10
0.0
 20
0.0
 30
0.0
  9
$PUCSXDIR
 10
1.0
 20
0.0
 30
0.0
  9
$PUCSYDIR
 10
0.0
 20
1.0
 30
0.0
  9
$USERI1
 70
     0
  9
$USERI2
 70
     0
  9
$USERI3
 70
     0
  9
$USERI4
 70
     0
  9
$USERI5
 70
     0
  9
$USERR1
 40
0.0
  9
$USERR2
 40
0.0
  9
$USERR3
 40
0.0
  9
$USERR4
 40
0.0
  9
$USERR5
 40
0.0
  9
$WORLDVIEW
 70
     1
  9
$SHADEDGE
 70
     3
  9
$SHADEDIF
 70
    70
  9
$TILEMODE
 70
     1
  9
$MAXACTVP
 70
    64
  9
$PLIMCHECK
 70
     0
  9
$PEXTMIN
 10
0.0
 20
0.0
 30
0.0
  9
$PEXTMAX
 10
105.0
 20
148.5
 30
0.0
  9
$PLIMMIN
 10
0.0
 20
0.0
  9
$PLIMMAX
 10
105.0
 20
148.5
  9
$UNITMODE
 70
     0
  9
$VISRETAIN
 70
     1
  9
$PLINEGEN
 70
     0
  9
$PSLTSCALE
 70
     1
  0
ENDSEC
  0
SECTION
  2
TABLES
  0
TABLE
  2
VPORT
 70
     1
  0
VPORT
  2
*ACTIVE
 70
     0
 10
0.0
 20
0.0
 11
1.0
 21
1.0
 12
57.761272099529428
 22
103.953417442123
 13
0.0
 23
0.0
 14
1.0
 24
1.0
 15
0.0
 25
0.0
 16
0.0
 26
0.0
 36
1.0
 17
0.0
 27
0.0
 37
0.0
 40
117.7083729353284
 41
1.8601895734597149
 42
50.0
 43
0.0
 44
0.0
 50
0.0
 51
0.0
 71
     0
 72
 20000
 73
     1
 74
     1
 75
     0
 76
     0
 77
     0
 78
     0
  0
ENDTAB
  0
TABLE
  2
LTYPE
 70
    18
  0
LTYPE
  2
CONTINUOUS
 70
     0
  3
Solid line
 72
    65
 73
     0
 40
0.0
  0
LTYPE
  2
CENTER
 70
     0
  3
__ . __
 72
    65
 73
     4
 40
7.0
 49
4.0
 49
-1.0
 49
1.0
 49
-1.0
  0
LTYPE
  2
HIDDEN
 70
     0
  3
Hidden __ __ __ __ __ __ __ __ __ __ __ __ __ _
 72
    65
 73
     2
 40
9.5249999999999968
 49
6.349999999999997
 49
-3.174999999999998
  0
LTYPE
  2
PHANTOM2
 70
     0
  3
Phantom (.5x) ___ _ _ ___ _ _ ___ _ _ ___ _ _
 72
    65
 73
     6
 40
31.75
 49
15.875
 49
-3.174999999999998
 49
3.174999999999998
 49
-3.174999999999998
 49
3.174999999999998
 49
-3.174999999999998
  0
LTYPE
  2
AMCONSTR
 70
     0
  3
_______________________
 72
    65
 73
     2
 40
9999.0
 49
9999.0
 49
0.0
  0
LTYPE
  2
ACDINTGL
 70
     0
  3
_ _ _ _ _
 72
    65
 73
     2
 40
3.0
 49
2.0
 49
-1.0
  0
LTYPE
  2
CENTER2
 70
     0
  3
Center (.5x) ___ _ ___ _ ___ _ ___ _ ___ _ ___
 72
    65
 73
     4
 40
1.125
 49
0.75
 49
-0.125
 49
0.125
 49
-0.125
  0
LTYPE
  2
HIDDEN2
 70
     0
  3
Hidden (.5x) _ _ _ _ _ _ _ _ _ _ _ _ _ _ _ _ _
 72
    65
 73
     2
 40
0.1875
 49
0.125
 49
-0.0625
  0
LTYPE
  2
AMZIGZAG2
 70
     0
  3
/\/-/\/-/\/-/\/-/\/-/\/
 72
    65
 73
     2
 40
0.4401
 49
0.0001
 49
-0.4400000000000002
  0
LTYPE
  2
ACANSTGB
 70
     0
  3
__ . . __ . .
 72
    65
 73
     6
 40
0.35433070866
 49
0.15748031496
 49
-0.03937007874
 49
0.03937007874
 49
-0.03937007874
 49
0.03937007874
 49
-0.03937007874
  0
LTYPE
  2
ACANSTGL
 70
     0
  3
_ _ _ _ _
 72
    65
 73
     2
 40
0.11811023622
 49
0.07874015748
 49
-0.03937007874
  0
ENDTAB
  0
TABLE
  2
LAYER
 70
     2
  0
LAYER
  2
0
 70
     0
 62
     7
  6
CONTINUOUS
  0
ENDTAB
  0
TABLE
  2
STYLE
 70
     5
  0
STYLE
  2
STANDARD
 70
     0
 40
0.0
 41
1.0
 50
0.0
 71
     0
 42
0.2
  3
txt
  4

  0
STYLE
  2
ACANSGDT
 70
     0
 40
0.0
 41
1.0
 50
0.0
 71
     0
 42
0.2
  3
amgdt.shx
  4

  0
ENDTAB
  0
TABLE
  2
VIEW
 70
     0
  0
ENDTAB
  0
TABLE
  2
UCS
 70
     0
  0
ENDTAB
  0
TABLE
  2
APPID
 70
    13
  0
APPID
  2
ACAD
 70
     0
  0
APPID
  2
ACADANNOTATIVE
 70
     0
  0
APPID
  2
ACAD_MLEADERVER
 70
     0
  0
APPID
  2
MCAD_NO_VIS
 70
     0
  0
APPID
  2
ACAD_TEMP_GRAPHIC
 70
     0
  0
APPID
  2
ACATTRIBSERVICES
 70
     0
  0
APPID
  2
AD_DRAW
 70
     0
  0
APPID
  2
DESIGNERASSEMBLIES
 70
     0
  0
APPID
  2
ACADM_DIM_EDIT
 70
     0
  0
APPID
  2
AMDT_DM_ADJ
 70
     0
  0
APPID
  2
ACAECLAYERSTANDARD
 70
     0
  0
APPID
  2
ACAD_PSEXT
 70
     0
  0
APPID
  2
ACAD_EXEMPT_FROM_CAD_STANDARDS
 70
     0
  0
ENDTAB
  0
TABLE
  2
DIMSTYLE
 70
     9
  0
DIMSTYLE
  2
STANDARD
 70
     0
  3

  4

  5

  6

  7

 40
1.0
 41
0.18
 42
0.0625
 43
0.38
 44
0.18
 45
0.0
 46
0.0
 47
0.0
 48
0.0
140
0.18
141
0.09
142
0.0
143
25.399999999999999
144
1.0
145
0.0
146
1.0
147
0.09
 71
     0
 72
     0
 73
     1
 74
     1
 75
     0
 76
     0
 77
     0
 78
     0
170
     0
171
     2
172
     0
173
     0
174
     0
175
     0
176
     0
177
     0
178
     0
  0
DIMSTYLE
  2
AM_ANSI
 70
     0
  3

  4
mm
  5

  6

  7

 40
1.0
 41
0.1
 42
0.05
 43
0.5
 44
0.1
 45
0.0
 46
0.0
 47
0.1
 48
0.1
140
0.12
141
0.0
142
0.0
143
25.399999999999999
144
1.0
145
0.0
146
0.71
147
0.06
 71
     0
 72
     0
 73
     1
 74
     1
 75
     0
 76
     0
 77
     0
 78
     7
170
     0
171
     2
172
     0
173
     0
174
     0
175
     0
176
   256
177
   256
178
     2
  0
DIMSTYLE
  2
AM_ANSI$3
 70
     0
  3

  4
mm
  5

  6

  7

 40
1.0
 41
0.1
 42
0.05
 43
0.5
 44
0.1
 45
0.0
 46
0.0
 47
0.1
 48
0.1
140
0.12
141
0.0
142
0.0
143
25.399999999999999
144
1.0
145
0.0
146
0.71
147
0.06
 71
     0
 72
     0
 73
     1
 74
     1
 75
     0
 76
     0
 77
     0
 78
     7
170
     0
171
     2
172
     0
173
     0
174
     0
175
     0
176
   256
177
   256
178
     2
  0
DIMSTYLE
  2
AM_ANSI$4
 70
     0
  3

  4
mm
  5

  6

  7

 40
1.0
 41
0.1
 42
0.05
 43
0.5
 44
0.1
 45
0.0
 46
0.0
 47
0.1
 48
0.1
140
0.12
141
0.0
142
0.0
143
25.399999999999999
144
1.0
145
0.0
146
0.71
147
0.06
 71
     0
 72
     0
 73
     1
 74
     1
 75
     0
 76
     0
 77
     0
 78
     7
170
     0
171
     2
172
     0
173
     0
174
     0
175
     0
176
   256
177
   256
178
     2
  0
DIMSTYLE
  2
AM_ANSI$7
 70
     0
  3

  4
mm
  5

  6

  7

 40
1.0
 41
0.1
 42
0.05
 43
0.5
 44
0.1
 45
0.0
 46
0.0
 47
0.1
 48
0.1
140
0.24
141
0.0
142
0.0
143
25.399999999999999
144
1.0
145
0.0
146
0.71
147
0.06
 71
     0
 72
     0
 73
     1
 74
     1
 75
     0
 76
     0
 77
     0
 78
     7
170
     0
171
     2
172
     0
173
     0
174
     0
175
     0
176
   256
177
   256
178
     2
  0
DIMSTYLE
  2
AM_ANSI$SF
 70
     0
  3

  4
mm
  5

  6

  7

 40
1.0
 41
0.1
 42
0.05
 43
0.5
 44
0.1
 45
0.0
 46
0.0
 47
0.1
 48
0.1
140
0.12
141
0.0
142
0.0
143
25.399999999999999
144
1.0
145
0.0
146
0.71
147
0.06
 71
     0
 72
     0
 73
     1
 74
     1
 75
     1
 76
     1
 77
     0
 78
     7
170
     0
171
     2
172
     0
173
     0
174
     0
175
     0
176
   256
177
   256
178
     2
  0
DIMSTYLE
  2
AM_ANSI$SH
 70
     0
  3

  4
mm
  5

  6

  7

 40
1.0
 41
0.1
 42
0.05
 43
0.5
 44
0.1
 45
0.0
 46
0.0
 47
0.1
 48
0.1
140
0.12
141
0.0
142
0.0
143
25.399999999999999
144
1.0
145
0.0
146
0.71
147
0.06
 71
     0
 72
     0
 73
     1
 74
     1
 75
     1
 76
     1
 77
     0
 78
     7
170
     0
171
     2
172
     0
173
     1
174
     0
175
     0
176
   256
177
   256
178
     2
  0
ENDTAB
  0
ENDSEC
  0
SECTION
  2
BLOCKS
  0
BLOCK
  8
0
  2
$MODEL_SPACE
 70
     0
 10
0.0
 20
0.0
 30
0.0
  3
$MODEL_SPACE
  1

  0
ENDBLK
  5
3669
  8
0
  0
BLOCK
 67
     1
  8
0
  2
$PAPER_SPACE
 70
     0
 10
0.0
 20
0.0
 30
0.0
  3
$PAPER_SPACE
  1

  0
ENDBLK
  5
3665
 67
     1
  8
0
  0
ENDSEC
  0
SECTION
  2
ENTITIES
  0
CIRCLE
  5
3C8
  8
0
 10
51.428737399280671
 20
72.820621901371581
 30
0.0
 40
1.6000000000000001
  0
CIRCLE
  5
3C9
  8
0
 10
51.428737399280671
 20
77.62062190137155
 30
0.0
 40
1.6000000000000001
  0
CIRCLE
  5
3CA
  8
0
 10
51.428737399280671
 20
84.720621901371544
 30
0.0
 40
1.6000000000000001
  0
LINE
  5
3E0
  8
0
 10
59.928737399280642
 20
59.320621901371588
 30
0.0
 11
42.928737399280678
 21
59.320621901371588
 31
0.0
  0
LINE
  5
3F9
  8
0
 10
39.628737399287331
 20
54.820621901371602
 30
0.0
 11
37.828737399287327
 21
54.820621901371602
 31
0.0
  0
ARC
  5
3FA
  8
0
 10
37.828737399287327
 20
54.920621901371597
 30
0.0
 40
0.1000000000000001
 50
180.0
 51
270.0
  0
ARC
  5
3FB
  8
0
 10
39.628737399287331
 20
54.920621901371597
 30
0.0
 40
0.1000000000000001
 50
270.0
 51
0.0
  0
LINE
  5
3FC
  8
0
 10
39.728737399287333
 20
59.320621901371588
 30
0.0
 11
39.728737399287333
 21
54.920621901371597
 31
0.0
  0
LINE
  5
3FD
  8
0
 10
37.728737399287333
 20
59.320621901371588
 30
0.0
 11
37.728737399287333
 21
54.920621901371597
 31
0.0
  0
LINE
  5
3FE
  8
0
 10
65.028737399280644
 20
54.820621901371602
 30
0.0
 11
63.228737399280647
 21
54.820621901371602
 31
0.0
  0
ARC
  5
3FF
  8
0
 10
63.228737399280647
 20
54.920621901371597
 30
0.0
 40
0.1000000000000001
 50
180.0
 51
270.0
  0
ARC
  5
400
  8
0
 10
65.028737399280644
 20
54.920621901371597
 30
0.0
 40
0.1000000000000001
 50
270.0
 51
0.0
  0
LINE
  5
401
  8
0
 10
65.128737399280652
 20
59.320621901371588
 30
0.0
 11
65.128737399280652
 21
54.920621901371597
 31
0.0
  0
LINE
  5
402
  8
0
 10
63.128737399280652
 20
59.320621901371588
 30
0.0
 11
63.128737399280652
 21
54.920621901371597
 31
0.0
  0
LINE
  5
403
  8
0
 10
41.523224257442173
 20
134.5141450639037
 30
0.0
 11
41.931243372883273
 21
130.45415486670851
 31
0.0
  0
ARC
  5
404
  8
0
 10
42.428737399307543
 20
130.5041518033363
 30
0.0
 40
0.4999999999999864
 50
185.73881767232879
 51
0.0
  0
LINE
  5
405
  8
0
 10
42.928737399307501
 20
130.5041518033363
 30
0.0
 11
42.928737399307501
 21
141.60415180333621
 31
0.0
  0
LINE
  5
406
  8
0
 10
42.928737399307501
 20
141.60415180333621
 30
0.0
 11
59.928737399307501
 21
141.60415180333621
 31
0.0
  0
LINE
  5
407
  8
0
 10
59.928737399307501
 20
141.60415180333621
 30
0.0
 11
59.928737399307458
 21
130.50415180333621
 31
0.0
  0
ARC
  5
408
  8
0
 10
60.428737399307543
 20
130.5041518033363
 30
0.0
 40
0.5000000000000027
 50
180.0
 51
354.2611823276593
  0
LINE
  5
409
  8
0
 10
60.926231425731729
 20
130.45415486670839
 30
0.0
 11
61.334250541173986
 21
134.5141450639174
 31
0.0
  0
ARC
  5
40A
  8
0
 10
62.428737399307401
 20
134.40415180333619
 30
0.0
 40
1.1000000000000001
 50
35.12705691436333
 51
174.26118232767499
  0
LINE
  5
40B
  8
0
 10
63.32840329851782
 20
135.03708250238449
 30
0.0
 11
66.71979835421169
 21
130.21645603104139
 31
0.0
  0
ARC
  5
40C
  8
0
 10
67.128737399307525
 20
130.5041518033363
 30
0.0
 40
0.500000000000005
 50
215.1270569143675
 51
19.50122373956966
  0
LINE
  5
40D
  8
0
 10
67.600054579974923
 20
130.67106529951769
 30
0.0
 11
66.974629910240211
 21
132.43709020944269
 31
0.0
  0
ARC
  5
40E
  8
0
 10
67.728737399308372
 20
132.70415180333319
 30
0.0
 40
0.800000000000004
 50
46.440516572053653
 51
199.50122373958169
  0
LINE
  5
40F
  8
0
 10
68.280023219285468
 20
133.28387927783501
 30
0.0
 11
71.584183761821663
 21
130.1418221317706
 31
0.0
  0
ARC
  5
410
  8
0
 10
71.928737399307494
 20
130.50415180333431
 30
0.0
 40
0.5000000000000091
 50
226.44051657205571
 51
39.586019451478698
  0
LINE
  5
411
  8
0
 10
72.314071777056625
 20
130.82276978356199
 30
0.0
 11
66.143403021558115
 21
138.28553382310619
 31
0.0
  0
ARC
  5
412
  8
0
 10
66.52873739930746
 20
138.60415180333419
 30
0.0
 40
0.5000000000000048
 50
58.810851960342198
 51
219.5860194514832
  0
LINE
  5
413
  8
0
 10
66.787669895310444
 20
139.03188298353231
 30
0.0
 11
71.669804903304453
 21
136.07642062313599
 31
0.0
  0
ARC
  5
414
  8
0
 10
71.928737399307423
 20
136.5041518033342
 30
0.0
 40
0.5000000000000063
 50
238.8108519603413
 51
55.341319315347441
  0
LINE
  5
415
  8
0
 10
72.213080639116157
 20
136.91542898720789
 30
0.0
 11
65.211744022719003
 21
141.75591811365851
 31
0.0
  0
ARC
  5
416
  8
0
 10
65.041138078833768
 20
141.50915180333419
 30
0.0
 40
0.2999999999999935
 50
55.341319315344371
 51
132.52037550547459
  0
ARC
  5
417
  8
0
 10
64.128737399307525
 20
142.50415180333431
 30
0.0
 40
1.050000000000006
 50
221.44530305041189
 51
312.52037550547561
  0
LINE
  5
418
  8
0
 10
63.341670057842997
 20
141.80915180333429
 30
0.0
 11
62.928737399307508
 21
141.80915180333429
 31
0.0
  0
LINE
  5
419
  8
0
 10
62.928737399307508
 20
141.80915180333429
 30
0.0
 11
62.928737399307543
 21
143.1991518033343
 31
0.0
  0
LINE
  5
41A
  8
0
 10
62.928737399307543
 20
143.1991518033343
 30
0.0
 11
63.341670057843046
 21
143.1991518033343
 31
0.0
  0
ARC
  5
41B
  8
0
 10
64.128737399307525
 20
142.50415180333431
 30
0.0
 40
1.0499999999999921
 50
47.479624494519953
 51
138.55469694958489
  0
ARC
  5
41C
  8
0
 10
65.041138078833825
 20
143.4991518033342
 30
0.0
 40
0.3000000000000134
 50
227.47962449451191
 51
304.65868068466119
  0
LINE
  5
41D
  8
0
 10
65.211744022719074
 20
143.25238549301
 30
0.0
 11
72.21308063911637
 21
148.0928746194605
 31
0.0
  0
ARC
  5
41E
  8
0
 10
71.928737399307565
 20
148.50415180333439
 30
0.0
 40
0.4999999999999615
 50
304.65868068464778
 51
121.1891480396398
  0
LINE
  5
41F
  8
0
 10
71.669804903304865
 20
148.9318829835324
 30
0.0
 11
66.787669895310501
 21
145.97642062313599
 31
0.0
  0
ARC
  5
420
  8
0
 10
66.528737399307573
 20
146.4041518033344
 30
0.0
 40
0.5000000000000071
 50
140.4139805485284
 51
301.18914803964577
  0
LINE
  5
421
  8
0
 10
66.143403021558242
 20
146.7227697835622
 30
0.0
 11
72.314071777057038
 21
154.18553382310631
 31
0.0
  0
ARC
  5
422
  8
0
 10
71.928737399307565
 20
154.50415180333439
 30
0.0
 40
0.5000000000000036
 50
320.413980548506
 51
133.5594834279371
  0
LINE
  5
423
  8
0
 10
71.584183761822217
 20
154.8664814748978
 30
0.0
 11
68.280023219284715
 21
151.7244243288315
 31
0.0
  0
ARC
  5
424
  8
0
 10
67.728737399307761
 20
152.30415180333321
 30
0.0
 40
0.7999999999999864
 50
160.49877626044611
 51
313.55948342794193
  0
LINE
  5
425
  8
0
 10
66.974629910239472
 20
152.5712133972234
 30
0.0
 11
67.600054579975577
 21
154.33723830715471
 31
0.0
  0
ARC
  5
426
  8
0
 10
67.128737399307695
 20
154.50415180333621
 30
0.0
 40
0.5000000000000059
 50
340.49877626044349
 51
144.87294308563591
  0
LINE
  5
427
  8
0
 10
66.719798354212045
 20
154.7918475756309
 30
0.0
 11
63.328403298518232
 21
149.97122110428779
 31
0.0
  0
ARC
  5
428
  8
0
 10
62.428737399307607
 20
150.60415180333621
 30
0.0
 40
1.0999999999999881
 50
185.73881767233109
 51
324.87294308564168
  0
LINE
  5
429
  8
0
 10
61.334250541174299
 20
150.4941585427548
 30
0.0
 11
60.926231425731778
 21
154.55414873996401
 31
0.0
  0
ARC
  5
42A
  8
0
 10
60.428737399307508
 20
154.5041518033363
 30
0.0
 40
0.4999999999999917
 50
5.7388176723040933
 51
180.0
  0
LINE
  5
42B
  8
0
 10
59.928737399307543
 20
154.50415180333621
 30
0.0
 11
59.928737399307501
 21
143.40415180333639
 31
0.0
  0
LINE
  5
42C
  8
0
 10
59.928737399307501
 20
143.40415180333639
 30
0.0
 11
42.928737399307572
 21
143.40415180333639
 31
0.0
  0
LINE
  5
42D
  8
0
 10
42.928737399307572
 20
143.40415180333639
 30
0.0
 11
42.928737399307572
 21
154.5041518033363
 31
0.0
  0
ARC
  5
42E
  8
0
 10
42.428737399307543
 20
154.5041518033363
 30
0.0
 40
0.500000000000016
 50
0.0
 51
174.26118232768181
  0
LINE
  5
42F
  8
0
 10
41.931243372883237
 20
154.55414873996409
 30
0.0
 11
41.523224257441463
 21
150.49415854275551
 31
0.0
  0
ARC
  5
430
  8
0
 10
40.428737399308069
 20
150.60415180333661
 30
0.0
 40
1.0999999999999941
 50
215.12705691436801
 51
354.26118232768181
  0
LINE
  5
431
  8
0
 10
39.529071500097707
 20
149.97122110428811
 30
0.0
 11
36.137676444403333
 21
154.7918475756311
 31
0.0
  0
ARC
  5
432
  8
0
 10
35.728737399307533
 20
154.5041518033363
 30
0.0
 40
0.5000000000000079
 50
35.127056914357112
 51
199.50122373958891
  0
LINE
  5
433
  8
0
 10
35.257420218640121
 20
154.33723830715479
 30
0.0
 11
35.882844888375843
 21
152.57121339722681
 31
0.0
  0
ARC
  5
434
  8
0
 10
35.128737399307681
 20
152.3041518033362
 30
0.0
 40
0.800000000000001
 50
226.44051657205901
 51
19.501223739580471
  0
LINE
  5
435
  8
0
 10
34.577451579330621
 20
151.72442432883449
 30
0.0
 11
31.273291036793339
 21
154.86648147489939
 31
0.0
  0
ARC
  5
436
  8
0
 10
30.928737399307501
 20
154.50415180333579
 30
0.0
 40
0.4999999999999948
 50
46.440516572045198
 51
219.58601945150119
  0
LINE
  5
437
  8
0
 10
30.543403021558369
 20
154.1855338231079
 30
0.0
 11
36.714071777057583
 21
146.7227697835641
 31
0.0
  0
ARC
  5
438
  8
0
 10
36.328737399308253
 20
146.40415180333611
 30
0.0
 40
0.5000000000000286
 50
238.8108519603461
 51
39.586019451489051
  0
LINE
  5
439
  8
0
 10
36.069804903305283
 20
145.97642062313801
 30
0.0
 11
31.187669895311661
 21
148.93188298353351
 31
0.0
  0
ARC
  5
43A
  8
0
 10
30.92873739930862
 20
148.50415180333539
 30
0.0
 40
0.5000000000000063
 50
58.810851960337722
 51
235.34131931537431
  0
LINE
  5
43B
  8
0
 10
30.644394159500109
 20
148.09287461946161
 30
0.0
 11
37.645730775902813
 21
143.25238549301059
 31
0.0
  0
ARC
  5
43C
  8
0
 10
37.816336719787969
 20
143.4991518033348
 30
0.0
 40
0.2999999999999954
 50
235.3413193153668
 51
312.5203755054776
  0
ARC
  5
43D
  8
0
 10
38.728737399314213
 20
142.50415180333491
 30
0.0
 40
1.049999999999996
 50
41.445303050411312
 51
132.5203755054763
  0
LINE
  5
43E
  8
0
 10
39.515804740778712
 20
143.1991518033349
 30
0.0
 11
39.92873739931423
 21
143.1991518033349
 31
0.0
  0
LINE
  5
43F
  8
0
 10
39.92873739931423
 20
143.1991518033349
 30
0.0
 11
39.928737399314201
 21
141.80915180333491
 31
0.0
  0
LINE
  5
440
  8
0
 10
39.928737399314201
 20
141.80915180333491
 30
0.0
 11
39.515804740778698
 21
141.80915180333491
 31
0.0
  0
ARC
  5
441
  8
0
 10
38.728737399314213
 20
142.50415180333491
 30
0.0
 40
1.049999999999996
 50
227.47962449452081
 51
318.55469694958538
  0
ARC
  5
442
  8
0
 10
37.816336719787913
 20
141.5091518033349
 30
0.0
 40
0.2999999999999901
 50
47.479624494521723
 51
124.6586806846643
  0
LINE
  5
443
  8
0
 10
37.645730775902699
 20
141.75591811365899
 30
0.0
 11
30.644394159502831
 21
136.91542898719999
 31
0.0
  0
ARC
  5
444
  8
0
 10
30.92873739931181
 20
136.50415180332649
 30
0.0
 40
0.5000000000000066
 50
124.65868068469121
 51
301.18914803965077
  0
LINE
  5
445
  8
0
 10
31.187669895314709
 20
136.07642062312831
 30
0.0
 11
36.0698049033087
 21
139.03188298352489
 31
0.0
  0
ARC
  5
446
  8
0
 10
36.328737399311763
 20
138.6041518033268
 30
0.0
 40
0.5000000000000071
 50
320.41398054850941
 51
121.1891480396669
  0
LINE
  5
447
  8
0
 10
36.714071777061037
 20
138.28553382309889
 30
0.0
 11
30.543403021562419
 21
130.82276978355401
 31
0.0
  0
ARC
  5
448
  8
0
 10
30.928737399311942
 20
130.50415180332621
 30
0.0
 40
0.5000000000000167
 50
140.41398054853079
 51
313.55948342793363
  0
LINE
  5
449
  8
0
 10
31.273291036797492
 20
130.1418221317625
 30
0.0
 11
34.57745157933465
 21
133.28387927782819
 31
0.0
  0
ARC
  5
44A
  8
0
 10
35.128737399311788
 20
132.70415180332651
 30
0.0
 40
0.8000000000000023
 50
340.49877626042189
 51
133.55948342794829
  0
LINE
  5
44B
  8
0
 10
35.882844888379942
 20
132.43709020943601
 30
0.0
 11
35.257420218644079
 21
130.67106529950749
 31
0.0
  0
ARC
  5
44C
  8
0
 10
35.728737399311861
 20
130.50415180332601
 30
0.0
 40
0.4999999999999958
 50
160.49877626042991
 51
324.87294308563207
  0
LINE
  5
44D
  8
0
 10
36.137676444407347
 20
130.2164560310313
 30
0.0
 11
39.529071500098382
 21
135.03708250237079
 31
0.0
  0
ARC
  5
44E
  8
0
 10
40.42873739930878
 20
134.40415180332241
 30
0.0
 40
1.0999999999999881
 50
5.7388176723284383
 51
144.87294308563841
  0
LINE
  5
44F
  8
0
  6
ACDINTGL
 62
     6
 10
53.028737399307573
 20
143.40415180334031
 30
0.0
 11
53.028737399307573
 21
141.6041518033403
 31
0.0
  0
LINE
  5
450
  8
0
  6
ACDINTGL
 62
     6
 10
49.828737399307549
 20
143.40415180334031
 30
0.0
 11
49.828737399307549
 21
141.6041518033403
 31
0.0
  0
POLYLINE
  5
48A
  8
0
 66
     1
 10
0.0
 20
0.0
 30
0.0
 70
   128
  0
VERTEX
  5
48B
  8
0
 10
38.456094120871647
 20
141.54203661057991
 30
0.0
  0
VERTEX
  5
48C
  8
0
 10
38.461543753991123
 20
141.54066967068209
 30
0.0
  0
VERTEX
  5
48E
  8
0
 10
38.467208818157907
 20
141.53959306692951
 30
0.0
  0
VERTEX
  5
48F
  8
0
 10
38.473018493874733
 20
141.5388220705847
 30
0.0
  0
VERTEX
  5
490
  8
0
 10
38.478901877900341
 20
141.53837194936389
 30
0.0
  0
VERTEX
  5
491
  8
0
 10
38.484788138432293
 20
141.53825782486359
 30
0.0
  0
VERTEX
  5
492
  8
0
 10
38.490606421906072
 20
141.53849489233099
 30
0.0
  0
VERTEX
  5
493
  8
0
 10
38.49628586229997
 20
141.53909842105861
 30
0.0
  0
VERTEX
  5
494
  8
0
 10
38.501755606049471
 20
141.54008360629379
 30
0.0
  0
VERTEX
  5
495
  8
0
 10
38.507135826000649
 20
141.54151452395351
 30
0.0
  0
VERTEX
  5
496
  8
0
 10
38.51264741496081
 20
141.5434629455192
 30
0.0
  0
VERTEX
  5
497
  8
0
 10
38.518174340742263
 20
141.5459015109854
 30
0.0
  0
VERTEX
  5
498
  8
0
 10
38.523595348875951
 20
141.5488013714623
 30
0.0
  0
VERTEX
  5
499
  8
0
 10
38.528789144520992
 20
141.5521337509231
 30
0.0
  0
VERTEX
  5
49A
  8
0
 10
38.533634473208309
 20
141.55586980047849
 30
0.0
  0
VERTEX
  5
49B
  8
0
 10
38.538096258757108
 20
141.56006717080129
 30
0.0
  0
VERTEX
  5
49C
  8
0
 10
38.542415944612252
 20
141.56501871647259
 30
0.0
  0
VERTEX
  5
49D
  8
0
 10
38.546483293898
 20
141.57060843238551
 30
0.0
  0
VERTEX
  5
49E
  8
0
 10
38.550143003422122
 20
141.57667224456469
 30
0.0
  0
VERTEX
  5
49F
  8
0
 10
38.553239771644542
 20
141.58304592995981
 30
0.0
  0
VERTEX
  5
4A0
  8
0
 10
38.555663363289732
 20
141.58968872726641
 30
0.0
  0
VERTEX
  5
4A1
  8
0
 10
38.557532186396017
 20
141.59699782796159
 30
0.0
  0
VERTEX
  5
4A2
  8
0
 10
38.558831152718078
 20
141.60473806232821
 30
0.0
  0
VERTEX
  5
4A3
  8
0
 10
38.559517000963091
 20
141.61258089588381
 30
0.0
  0
VERTEX
  5
4A4
  8
0
 10
38.559546463533572
 20
141.62019794302381
 30
0.0
  0
SEQEND
  5
48D
  8
0
  0
POLYLINE
  5
4A6
  8
0
 66
     1
 10
0.0
 20
0.0
 30
0.0
 70
   128
  0
VERTEX
  5
4A7
  8
0
 10
38.633181779059733
 20
141.60923891548239
 30
0.0
  0
VERTEX
  5
4A8
  8
0
 10
38.633142945554368
 20
141.60156561664419
 30
0.0
  0
VERTEX
  5
4AA
  8
0
 10
38.632432832840223
 20
141.59366418551909
 30
0.0
  0
VERTEX
  5
4AB
  8
0
 10
38.631107086775167
 20
141.58587173488209
 30
0.0
  0
VERTEX
  5
4AC
  8
0
 10
38.629221344341822
 20
141.57852560085061
 30
0.0
  0
VERTEX
  5
4AD
  8
0
 10
38.626792444844781
 20
141.57182679847921
 30
0.0
  0
VERTEX
  5
4AE
  8
0
 10
38.623712198110603
 20
141.56534143184521
 30
0.0
  0
VERTEX
  5
4AF
  8
0
 10
38.620096156745582
 20
141.5591374827024
 30
0.0
  0
VERTEX
  5
4B0
  8
0
 10
38.616091512381047
 20
141.5533762952002
 30
0.0
  0
VERTEX
  5
4B1
  8
0
 10
38.611845460673052
 20
141.54821913908569
 30
0.0
  0
VERTEX
  5
4B2
  8
0
 10
38.607463174213983
 20
141.54378023898249
 30
0.0
  0
VERTEX
  5
4B3
  8
0
 10
38.602702217558473
 20
141.5397556615589
 30
0.0
  0
VERTEX
  5
4B4
  8
0
 10
38.597589281294603
 20
141.5360890416307
 30
0.0
  0
VERTEX
  5
4B5
  8
0
 10
38.592239621986188
 20
141.5328182956649
 30
0.0
  0
VERTEX
  5
4B6
  8
0
 10
38.586768523589662
 20
141.52998096842509
 30
0.0
  0
VERTEX
  5
4B7
  8
0
 10
38.581291247321218
 20
141.52761497657531
 30
0.0
  0
VERTEX
  5
4B8
  8
0
 10
38.57592290799716
 20
141.52575800686179
 30
0.0
  0
VERTEX
  5
4B9
  8
0
 10
38.570492867700779
 20
141.5243461580545
 30
0.0
  0
VERTEX
  5
4BA
  8
0
 10
38.564828088642841
 20
141.5232937266735
 30
0.0
  0
VERTEX
  5
4BB
  8
0
 10
38.559002044849422
 20
141.5225930856995
 30
0.0
  0
VERTEX
  5
4BC
  8
0
 10
38.553088238413324
 20
141.5222363855836
 30
0.0
  0
VERTEX
  5
4BD
  8
0
 10
38.547160155817821
 20
141.52221592526129
 30
0.0
  0
VERTEX
  5
4BE
  8
0
 10
38.541291294503282
 20
141.52252385498679
 30
0.0
  0
VERTEX
  5
4BF
  8
0
 10
38.535555139452867
 20
141.52315239905951
 30
0.0
  0
VERTEX
  5
4C0
  8
0
 10
38.530025178650028
 20
141.52409393105091
 30
0.0
  0
SEQEND
  5
4A9
  8
0
  0
ARC
  5
4C1
  8
0
 10
38.728737399314213
 20
142.5041518033336
 30
0.0
 40
1.0000000000000051
 50
258.5383367590079
 51
262.63687323987529
  0
ARC
  5
4C2
  8
0
 10
38.728737399314198
 20
142.5041518033336
 30
0.0
 40
1.0
 50
262.6368732398754
 51
254.1783822345192
  0
LINE
  5
4C3
  8
0
 10
38.559546464804328
 20
141.62019794272791
 30
0.0
 11
38.552989561875229
 21
141.77503405040511
 31
0.0
  0
LINE
  5
4C4
  8
0
 10
38.62675007989764
 20
141.7611184348512
 30
0.0
 11
38.633181780176372
 21
141.6092388893295
 31
0.0
  0
ARC
  5
4C5
  8
0
 10
38.728737399314198
 20
142.50415180333351
 30
0.0
 40
0.7500000000000007
 50
256.44784161455271
 51
262.18452880043412
  0
ARC
  5
4C6
  8
0
 10
38.728737399314198
 20
142.5041518033338
 30
0.0
 40
1.0000000000000111
 50
254.17838223453691
 51
254.51159707089491
  0
ARC
  5
4C7
  8
0
 10
38.728737399314198
 20
142.50415180333351
 30
0.0
 40
1.0
 50
258.28054337822408
 51
258.53833675899119
  0
ARC
  5
4C8
  8
0
 10
38.728737399314198
 20
142.5041518033336
 30
0.0
 40
0.7500000000000007
 50
262.18452880045078
 51
256.44784161457068
  0
POLYLINE
  5
4D1
  8
0
 66
     1
 10
0.0
 20
0.0
 30
0.0
 70
   128
  0
VERTEX
  5
4D2
  8
0
 10
38.461694067379689
 20
141.54046730740359
 30
0.0
  0
VERTEX
  5
4D3
  8
0
 10
38.461811316483193
 20
141.54043379314339
 30
0.0
  0
VERTEX
  5
4D5
  8
0
 10
38.46216308494769
 20
141.54033407155691
 30
0.0
  0
VERTEX
  5
4D6
  8
0
 10
38.462749496128957
 20
141.5401691918841
 30
0.0
  0
VERTEX
  5
4D7
  8
0
 10
38.463570611248841
 20
141.53994034987889
 30
0.0
  0
VERTEX
  5
4D8
  8
0
 10
38.464626513291194
 20
141.539648667644
 30
0.0
  0
VERTEX
  5
4D9
  8
0
 10
38.46591733791697
 20
141.53929534408601
 30
0.0
  0
VERTEX
  5
4DA
  8
0
 10
38.467443118585372
 20
141.53888135006491
 30
0.0
  0
VERTEX
  5
4DB
  8
0
 10
38.469203990957283
 20
141.53840788448721
 30
0.0
  0
VERTEX
  5
4DC
  8
0
 10
38.471200016254592
 20
141.53787614310659
 30
0.0
  0
VERTEX
  5
4DD
  8
0
 10
38.473431299223222
 20
141.53728717437519
 30
0.0
  0
VERTEX
  5
4DE
  8
0
 10
38.475897922847082
 20
141.5366421003956
 30
0.0
  0
VERTEX
  5
4DF
  8
0
 10
38.478599672049732
 20
141.53594247808419
 30
0.0
  0
VERTEX
  5
4E0
  8
0
 10
38.481530526833751
 20
141.53519222857469
 30
0.0
  0
VERTEX
  5
4E1
  8
0
 10
38.484678963949641
 20
141.53439645683099
 30
0.0
  0
VERTEX
  5
4E2
  8
0
 10
38.488033298964439
 20
141.53356011184661
 30
0.0
  0
VERTEX
  5
4E3
  8
0
 10
38.491581819682693
 20
141.5326879177216
 30
0.0
  0
VERTEX
  5
4E4
  8
0
 10
38.49531281990938
 20
141.53178489710021
 30
0.0
  0
VERTEX
  5
4E5
  8
0
 10
38.499214605906751
 20
141.5308559985819
 30
0.0
  0
VERTEX
  5
4E6
  8
0
 10
38.503275474784132
 20
141.52990594666059
 30
0.0
  0
VERTEX
  5
4E7
  8
0
 10
38.507483717194269
 20
141.5289398384198
 30
0.0
  0
VERTEX
  5
4E8
  8
0
 10
38.511827636399097
 20
141.52796247318679
 30
0.0
  0
VERTEX
  5
4E9
  8
0
 10
38.516295532508252
 20
141.5269787247276
 30
0.0
  0
VERTEX
  5
4EA
  8
0
 10
38.520876087131697
 20
141.525993482964
 30
0.0
  0
VERTEX
  5
4EB
  8
0
 10
38.525617587620623
 20
141.52499790514179
 30
0.0
  0
SEQEND
  5
4D4
  8
0
  0
LINE
  5
4ED
  8
0
 10
38.461688097837829
 20
141.54060840899251
 30
0.0
 11
38.461694074325798
 21
141.54046727892791
 31
0.0
  0
POLYLINE
  5
527
  8
0
 66
     1
 10
0.0
 20
0.0
 30
0.0
 70
   128
  0
VERTEX
  5
528
  8
0
 10
63.899766132667402
 20
141.53071862100319
 30
0.0
  0
VERTEX
  5
529
  8
0
 10
63.905271873327287
 20
141.52959886852739
 30
0.0
  0
VERTEX
  5
52B
  8
0
 10
63.910979730684232
 20
141.52877887337701
 30
0.0
  0
VERTEX
  5
52C
  8
0
 10
63.916818268527862
 20
141.52827069708181
 30
0.0
  0
VERTEX
  5
52D
  8
0
 10
63.922715967148982
 20
141.52808639385199
 30
0.0
  0
VERTEX
  5
52E
  8
0
 10
63.928601384795037
 20
141.52823787514839
 30
0.0
  0
VERTEX
  5
52F
  8
0
 10
63.934403054651597
 20
141.52873712502659
 30
0.0
  0
VERTEX
  5
530
  8
0
 10
63.940049494120082
 20
141.5295962009497
 30
0.0
  0
VERTEX
  5
531
  8
0
 10
63.945469236386067
 20
141.53082708697329
 30
0.0
  0
VERTEX
  5
532
  8
0
 10
63.950779441965217
 20
141.53249921399561
 30
0.0
  0
VERTEX
  5
533
  8
0
 10
63.956197541739527
 20
141.53469424344871
 30
0.0
  0
VERTEX
  5
534
  8
0
 10
63.961608855629819
 20
141.5373796097378
 30
0.0
  0
VERTEX
  5
535
  8
0
 10
63.966893553743702
 20
141.54052102435799
 30
0.0
  0
VERTEX
  5
536
  8
0
 10
63.971931762571678
 20
141.54408426977179
 30
0.0
  0
VERTEX
  5
537
  8
0
 10
63.976603652221407
 20
141.54803505747421
 30
0.0
  0
VERTEX
  5
538
  8
0
 10
63.980871581973553
 20
141.55242939741791
 30
0.0
  0
VERTEX
  5
539
  8
0
 10
63.984963540861017
 20
141.5575707360457
 30
0.0
  0
VERTEX
  5
53A
  8
0
 10
63.988774636403718
 20
141.56333821426091
 30
0.0
  0
VERTEX
  5
53B
  8
0
 10
63.992157123731282
 20
141.56956092037839
 30
0.0
  0
VERTEX
  5
53C
  8
0
 10
63.99496326634771
 20
141.57606779386381
 30
0.0
  0
VERTEX
  5
53D
  8
0
 10
63.997084779629148
 20
141.58281314292199
 30
0.0
  0
VERTEX
  5
53E
  8
0
 10
63.99862203647529
 20
141.5901990954107
 30
0.0
  0
VERTEX
  5
53F
  8
0
 10
63.9995705709212
 20
141.59799004040869
 30
0.0
  0
VERTEX
  5
540
  8
0
 10
63.99990198368242
 20
141.6058558265471
 30
0.0
  0
VERTEX
  5
541
  8
0
 10
63.999587862461517
 20
141.61346645089961
 30
0.0
  0
SEQEND
  5
52A
  8
0
  0
POLYLINE
  5
543
  8
0
 66
     1
 10
0.0
 20
0.0
 30
0.0
 70
   128
  0
VERTEX
  5
544
  8
0
 10
64.073642529566143
 20
141.60583977027741
 30
0.0
  0
VERTEX
  5
545
  8
0
 10
64.073949826524796
 20
141.5981725288126
 30
0.0
  0
VERTEX
  5
547
  8
0
 10
64.07359681693022
 20
141.5902471103303
 30
0.0
  0
VERTEX
  5
548
  8
0
 10
64.07262388511937
 20
141.58240279434671
 30
0.0
  0
VERTEX
  5
549
  8
0
 10
64.071071396489415
 20
141.57497908309219
 30
0.0
  0
VERTEX
  5
54A
  8
0
 10
64.068947106769826
 20
141.56817754656259
 30
0.0
  0
VERTEX
  5
54B
  8
0
 10
64.066162506018387
 20
141.5615598506663
 30
0.0
  0
VERTEX
  5
54C
  8
0
 10
64.062829963046767
 20
141.55519911977581
 30
0.0
  0
VERTEX
  5
54D
  8
0
 10
64.059089242543422
 20
141.54926317267041
 30
0.0
  0
VERTEX
  5
54E
  8
0
 10
64.055080116573095
 20
141.54391975398471
 30
0.0
  0
VERTEX
  5
54F
  8
0
 10
64.050902498792013
 20
141.53928771572799
 30
0.0
  0
VERTEX
  5
550
  8
0
 10
64.046327908864342
 20
141.53505249923921
 30
0.0
  0
VERTEX
  5
551
  8
0
 10
64.041385552470615
 20
141.53115900052811
 30
0.0
  0
VERTEX
  5
552
  8
0
 10
64.036188858724358
 20
141.5276502959243
 30
0.0
  0
VERTEX
  5
553
  8
0
 10
64.030851300868946
 20
141.52456909166779
 30
0.0
  0
VERTEX
  5
554
  8
0
 10
64.025486312656682
 20
141.52195846449479
 30
0.0
  0
VERTEX
  5
555
  8
0
 10
64.020207191959074
 20
141.51986125485459
 30
0.0
  0
VERTEX
  5
556
  8
0
 10
64.014846356667604
 20
141.51820593021779
 30
0.0
  0
VERTEX
  5
557
  8
0
 10
64.009234810596652
 20
141.51689906975079
 30
0.0
  0
VERTEX
  5
558
  8
0
 10
64.00344629700345
 20
141.5159363681154
 30
0.0
  0
VERTEX
  5
559
  8
0
 10
63.997554597220287
 20
141.5153132989366
 30
0.0
  0
VERTEX
  5
55A
  8
0
 10
63.991633470288718
 20
141.51502548346829
 30
0.0
  0
VERTEX
  5
55B
  8
0
 10
63.985756692902108
 20
141.51506839492899
 30
0.0
  0
VERTEX
  5
55C
  8
0
 10
63.979998025969749
 20
141.51543757994469
 30
0.0
  0
VERTEX
  5
55D
  8
0
 10
63.974431226665452
 20
141.51612873439731
 30
0.0
  0
SEQEND
  5
546
  8
0
  0
ARC
  5
55E
  8
0
 10
64.128737399307525
 20
142.504151803333
 30
0.0
 40
1.0000000000000051
 50
261.12344132014942
 51
265.22197780101681
  0
ARC
  5
55F
  8
0
 10
64.128737399307525
 20
142.504151803333
 30
0.0
 40
1.0
 50
265.22197780101681
 51
256.76348679566092
  0
LINE
  5
560
  8
0
 10
63.999587863744331
 20
141.61346645066129
 30
0.0
 11
63.986054017299999
 21
141.76784924833339
 31
0.0
  0
LINE
  5
561
  8
0
 10
64.060367111302256
 20
141.75727463557499
 30
0.0
 11
64.073642531861196
 21
141.6058397442014
 31
0.0
  0
ARC
  5
562
  8
0
 10
64.128737399307525
 20
142.50415180333289
 30
0.0
 40
0.7500000000000007
 50
259.03294617569469
 51
264.76963336157598
  0
ARC
  5
563
  8
0
 10
64.128737399307525
 20
142.50415180333309
 30
0.0
 40
1.0000000000000231
 50
256.76348679567877
 51
257.0967016320364
  0
ARC
  5
564
  8
0
 10
64.128737399307525
 20
142.50415180333289
 30
0.0
 40
1.0
 50
260.86564793936589
 51
261.12344132013288
  0
ARC
  5
565
  8
0
 10
64.128737399307525
 20
142.504151803333
 30
0.0
 40
0.7500000000000007
 50
264.76963336159253
 51
259.0329461757118
  0
POLYLINE
  5
56E
  8
0
 66
     1
 10
0.0
 20
0.0
 30
0.0
 70
   128
  0
VERTEX
  5
56F
  8
0
 10
63.905431160993899
 20
141.52940349081501
 30
0.0
  0
VERTEX
  5
570
  8
0
 10
63.905549802379468
 20
141.52937529898031
 30
0.0
  0
VERTEX
  5
572
  8
0
 10
63.905905710630122
 20
141.529291544789
 30
0.0
  0
VERTEX
  5
573
  8
0
 10
63.906498961651849
 20
141.5291532819771
 30
0.0
  0
VERTEX
  5
574
  8
0
 10
63.90732956267189
 20
141.5289617078426
 30
0.0
  0
VERTEX
  5
575
  8
0
 10
63.908397545979071
 20
141.52871794708949
 30
0.0
  0
VERTEX
  5
576
  8
0
 10
63.909702993021682
 20
141.52842320352269
 30
0.0
  0
VERTEX
  5
577
  8
0
 10
63.911245893435861
 20
141.52807844852359
 30
0.0
  0
VERTEX
  5
578
  8
0
 10
63.913026328669901
 20
141.5276848858972
 30
0.0
  0
VERTEX
  5
579
  8
0
 10
63.915044305950872
 20
141.5272437129417
 30
0.0
  0
VERTEX
  5
57A
  8
0
 10
63.917299882629592
 20
141.52675598176651
 30
0.0
  0
VERTEX
  5
57B
  8
0
 10
63.919793090994901
 20
141.52622281707519
 30
0.0
  0
VERTEX
  5
57C
  8
0
 10
63.922523645967267
 20
141.5256457644993
 30
0.0
  0
VERTEX
  5
57D
  8
0
 10
63.925485356819642
 20
141.5250284696599
 30
0.0
  0
VERTEX
  5
57E
  8
0
 10
63.928666481778762
 20
141.5243755125899
 30
0.0
  0
VERTEX
  5
57F
  8
0
 10
63.932055125086748
 20
141.52369131024
 30
0.0
  0
VERTEX
  5
580
  8
0
 10
63.935639373394892
 20
141.5229800536442
 30
0.0
  0
VERTEX
  5
581
  8
0
 10
63.939407305883513
 20
141.5222462323475
 30
0.0
  0
VERTEX
  5
582
  8
0
 10
63.943347017517127
 20
141.52149426248749
 30
0.0
  0
VERTEX
  5
583
  8
0
 10
63.947446604224652
 20
141.5207283359114
 30
0.0
  0
VERTEX
  5
584
  8
0
 10
63.951694138679862
 20
141.5199530163855
 30
0.0
  0
VERTEX
  5
585
  8
0
 10
63.956077719582723
 20
141.51917257079151
 30
0.0
  0
VERTEX
  5
586
  8
0
 10
63.96058543912666
 20
141.51839134023271
 30
0.0
  0
VERTEX
  5
587
  8
0
 10
63.965205769888563
 20
141.51761369915741
 30
0.0
  0
VERTEX
  5
588
  8
0
 10
63.96998734891617
 20
141.5168329917289
 30
0.0
  0
SEQEND
  5
571
  8
0
  0
LINE
  5
58A
  8
0
 10
63.905418833382612
 20
141.52954417956289
 30
0.0
 11
63.905431169217273
 21
141.5294034626815
 31
0.0
  0
LINE
  5
372C
  8
0
 10
30.428737399280621
 20
59.320621901371588
 30
0.0
 11
30.428737399280621
 21
122.8206219013716
 31
0.0
  0
LINE
  5
372D
  8
0
 10
30.428737399280621
 20
122.8206219013716
 30
0.0
 11
72.428737399280692
 21
122.8206219013716
 31
0.0
  0
LINE
  5
372E
  8
0
 10
72.428737399280692
 20
122.8206219013716
 30
0.0
 11
72.428737399280706
 21
59.320621901371588
 31
0.0
  0
LINE
  5
372F
  8
0
 10
31.273291036766452
 20
59.320621901371588
 30
0.0
 11
31.27329103676637
 21
122.8206219013716
 31
0.0
  0
LINE
  5
3731
  8
0
 10
35.228737399280647
 20
59.320621901371588
 30
0.0
 11
35.228737399280647
 21
122.8206219013716
 31
0.0
  0
LINE
  5
3733
  8
0
 10
36.13767644437646
 20
59.320621901371588
 30
0.0
 11
36.13767644437646
 21
122.8206219013716
 31
0.0
  0
LINE
  5
3735
  8
0
 10
41.931243372856351
 20
59.320621901371588
 30
0.0
 11
41.931243372856351
 21
122.8206219013716
 31
0.0
  0
LINE
  5
3737
  8
0
 10
42.928737399280678
 20
59.320621901371588
 30
0.0
 11
42.928737399280628
 21
122.8206219013716
 31
0.0
  0
LINE
  5
3739
  8
0
 10
59.928737399280642
 20
59.320621901371588
 30
0.0
 11
59.928737399280642
 21
122.8206219013716
 31
0.0
  0
LINE
  5
373B
  8
0
 10
60.926231425704898
 20
59.320621901371588
 30
0.0
 11
60.926231425704898
 21
122.8206219013716
 31
0.0
  0
LINE
  5
373D
  8
0
 10
66.719798354185173
 20
59.320621901371588
 30
0.0
 11
66.719798354185173
 21
122.8206219013716
 31
0.0
  0
LINE
  5
373F
  8
0
 10
67.628737399280823
 20
59.320621901371588
 30
0.0
 11
67.628737399280809
 21
122.8206219013716
 31
0.0
  0
LINE
  5
3741
  8
0
 10
71.58418376179506
 20
59.320621901371588
 30
0.0
 11
71.58418376179506
 21
122.8206219013716
 31
0.0
  0
LINE
  5
3742
  8
0
 10
30.428737399280621
 20
59.320621901371588
 30
0.0
 11
42.928737399280678
 21
59.320621901371588
 31
0.0
  0
LINE
  5
3743
  8
0
 10
59.928737399280642
 20
59.320621901371588
 30
0.0
 11
72.428737399280706
 21
59.320621901371588
 31
0.0
  0
ENDSEC
  0
EOF
