999
DXF file: drwtemplate_a.dxf
999
Pro/ENGINEER 9846 by Parametric Technology Corporation
0
SECTION
2
HEADER
9
$EXTMAX
10
11.0000000000
20
8.5000000000
9
$EXTMIN
10
0.0000000000
20
0.0000000000
9
$LIMMIN
10
0.0000000000
20
0.0000000000
9
$LIMMAX
10
11.0000000000
20
8.5000000000
9
$VIEWCTR
10
5.5000000000
20
4.2500000000
9
$VIEWSIZE
40
8.5000000000
9
$CLAYER
8
0
9
$LTSCALE
40
0.6050000000
9
$CELTYPE
6
BYLAYER
9
$DIMSCALE
40
1
9
$DIMASZ
40
0.1875000000
9
$DIMEXO
40
0.0687500000
9
$DIMDLI
40
0.4180000000
9
$DIMEXE
40
0.1980000000
9
$DIMCEN
40
0.0990000000
9
$DIMTXT
40
0.1243024554
0
ENDSEC
0
SECTION
2
TABLES
0
TABLE
2
LTYPE
70
6
0
LTYPE
2
CONTINUOUS
70
64
3
Solid line
72
65
73
0
40
0
0
LTYPE
2
CENTER
70
64
3
____ _ ____ _ ____ _ ____ _ ____ _ ____ _ ____
72
65
73
4
40
0.6
49
0.375
49
-0.075
49
0.075
49
-0.075
0
LTYPE
2
HIDDEN
70
64
3
- - - - - - - - - - - - - - - - - - - -
72
65
73
2
40
0.2
49
0.1
49
-0.1
0
LTYPE
2
PHANTOM
70
64
3
_____ _ _ _____ _ _ _____ _ _ _____
72
65
73
6
40
0.8
49
0.45
49
-0.05
49
0.1
49
-0.05
49
0.1
49
-0.05
0
LTYPE
2
DOT
70
64
3
. . . . . . . . . . . . . . . . . . . .
72
65
73
2
40
0.2
49
0.1
49
-0.1
0
LTYPE
2
DASHED
70
64
3
- - - - - - - - - - - - - - - - - - - -
72
65
73
2
40
0.2
49
0.1
49
-0.1
0
ENDTAB
0
TABLE
2
LAYER
70
36
0
LAYER
2
0
70
0
62
7
6
CONTINUOUS
0
LAYER
2
DEFAULT_1
70
0
62
7
6
CENTER
0
LAYER
2
DEFAULT_2
70
0
62
8
6
HIDDEN
0
LAYER
2
DEFAULT_3
70
0
62
7
6
PHANTOM
0
ENDTAB
0
ENDSEC
0
SECTION
2
BLOCKS
0
BLOCK
8
0
62
2
6
BYBLOCK
2
*TEXT1
70
1
10
0.0000000000
20
0.0000000000
0
TEXT
8
0
62
2
6
BYBLOCK
10
8.2705875681
20
1.4178198730
40
0.1562500000
1
UNIT: mm
72
5
11
9.2705875681
21
1.4178198730
0
ENDBLK
8
0
0
ENDSEC
0
SECTION
2
ENTITIES
0
INSERT
8
0
62
2
2
*TEXT1
10
0.0000000000
20
0.0000000000
0
LINE
8
0
10
0.0000000000
20
0.0000000000
11
0.0000000000
21
8.5000000000
0
LINE
8
0
10
0.0000000000
20
0.0000000000
11
11.0000000000
21
0.0000000000
0
LINE
8
0
10
0.0000000000
20
8.5000000000
11
11.0000000000
21
8.5000000000
0
LINE
8
0
10
11.0000000000
20
0.0000000000
11
11.0000000000
21
8.5000000000
0
LINE
8
0
10
4.7711267633
20
3.7603661292
11
4.7986100788
21
3.7603661292
0
LINE
8
0
10
4.8711267633
20
3.7603661292
11
4.8986100788
21
3.7603661292
0
LINE
8
0
10
4.9711267633
20
3.7603661292
11
4.9986100788
21
3.7603661292
0
LINE
8
DEFAULT_2
10
4.6663644840
20
4.2072165229
11
4.6663644840
21
4.0942990275
0
LINE
8
0
10
4.6663644840
20
4.0942990275
11
4.6663644840
21
3.9532795151
0
LINE
8
0
10
4.9242384998
20
3.8981614048
11
4.8454983423
21
3.8981614048
0
LINE
8
0
10
4.7632148777
20
3.7898936883
11
4.7711267633
21
3.7603661292
0
LINE
8
0
10
4.6663644840
20
3.9532795151
11
4.7077030667
21
3.9532795151
0
LINE
8
0
10
5.0620337754
20
3.9532795151
11
5.1033723581
21
3.9532795151
0
LINE
8
DEFAULT_2
10
4.9242384998
20
3.9611535308
11
4.8454983423
21
3.9611535308
0
LINE
8
0
62
40
10
4.7592778723
20
3.9611535308
11
4.8104589728
21
3.9611535308
0
LINE
8
0
62
40
10
4.9592778693
20
3.9611535308
11
5.0104589698
21
3.9611535308
0
LINE
8
0
10
4.7632148777
20
3.9729645544
11
4.7632148777
21
3.7898936883
0
LINE
8
0
10
4.7667581848
20
4.2426495938
11
4.7667581848
21
4.1717834521
0
LINE
8
0
10
4.7273881061
20
3.9729645544
11
4.8097977759
21
3.9729645544
0
LINE
8
DEFAULT_2
10
4.8097977759
20
3.9729645544
11
4.9599390662
21
3.9729645544
0
LINE
8
0
10
4.9599390662
20
3.9729645544
11
5.0423487360
21
3.9729645544
0
LINE
8
DEFAULT_2
10
4.8356558226
20
3.9828070741
11
4.9340810195
21
3.9828070741
0
LINE
8
0
10
4.8632148777
20
3.7898936883
11
4.8711267633
21
3.7603661292
0
LINE
8
0
10
4.8065219644
20
3.7898936883
11
4.8065219644
21
3.9729645544
0
LINE
8
DEFAULT_2
10
4.8356558226
20
3.9943266673
11
4.8356558226
21
3.9828070741
0
LINE
8
DEFAULT_2
10
4.8454983423
20
3.9729645544
11
4.8454983423
21
3.9643936067
0
LINE
8
0
10
4.8454983423
20
3.9643936067
11
4.8454983423
21
3.8981614048
0
LINE
8
DEFAULT_2
10
4.8632148777
20
3.9828070741
11
4.8632148777
21
3.8981614048
0
LINE
8
0
10
4.8632148777
20
3.8981614048
11
4.8632148777
21
3.7898936883
0
LINE
8
0
10
4.7077030667
20
3.9532795151
11
4.7273881061
21
3.9729645544
0
LINE
8
0
10
4.9632148777
20
3.7898936883
11
4.9711267633
21
3.7603661292
0
LINE
8
0
10
4.9065219644
20
3.7898936883
11
4.9065219644
21
3.8981614048
0
LINE
8
DEFAULT_2
10
4.9065219644
20
3.8981614048
11
4.9065219644
21
3.9828070741
0
LINE
8
0
10
4.7986100788
20
3.7603661292
11
4.8065219644
21
3.7898936883
0
LINE
8
0
10
5.0423487360
20
3.9729645544
11
5.0620337754
21
3.9532795151
0
LINE
8
DEFAULT_2
10
4.9242384998
20
3.9729645544
11
4.9242384998
21
3.9643936067
0
LINE
8
0
10
4.9242384998
20
3.9643936067
11
4.9242384998
21
3.8981614048
0
LINE
8
DEFAULT_2
10
4.9340810195
20
3.9828070741
11
4.9340810195
21
3.9943266673
0
LINE
8
0
10
4.7123058684
20
4.3380208011
11
4.7334135047
21
4.3169131648
0
LINE
8
0
10
4.9945650630
20
4.0557616065
11
5.0156726992
21
4.0346539703
0
LINE
8
0
10
4.9632148777
20
3.9729645544
11
4.9632148777
21
3.7898936883
0
LINE
8
0
10
4.7667581848
20
4.1717834521
11
5.0029786573
21
4.1717834521
0
LINE
8
0
10
4.8986100788
20
3.7603661292
11
4.9065219644
21
3.7898936883
0
LINE
8
0
10
5.0574309737
20
4.0764122447
11
5.0363233374
21
4.0975198810
0
LINE
8
0
10
4.7751717791
20
4.3586714393
11
4.7540641429
21
4.3797790756
0
LINE
8
0
10
5.0029786573
20
4.1717834521
11
5.0029786573
21
4.2426495938
0
LINE
8
0
10
5.0065219644
20
3.7898936883
11
5.0065219644
21
3.9729645544
0
LINE
8
0
10
5.0029786573
20
4.2426495938
11
4.7667581848
21
4.2426495938
0
LINE
8
0
10
4.9986100788
20
3.7603661292
11
5.0065219644
21
3.7898936883
0
LINE
8
0
10
5.1033723581
20
3.9532795151
11
5.1033723581
21
4.0942990275
0
LINE
8
DEFAULT_2
10
5.1033723581
20
4.0942990275
11
5.1033723581
21
4.2072165229
0
LINE
8
0
10
1.5093142211
20
4.4257204599
11
1.5093142211
21
3.9887125859
0
LINE
8
0
10
1.5545898117
20
4.2072165229
11
1.5545898117
21
3.9532795151
0
LINE
8
DEFAULT_2
10
1.5683693392
20
3.9729645544
11
1.5683693392
21
3.9532795151
0
LINE
8
0
10
1.5683693392
20
3.9532795151
11
1.5683693392
21
3.7603661292
0
LINE
8
DEFAULT_2
10
1.5880543786
20
3.9729645544
11
1.5880543786
21
3.9532795151
0
LINE
8
0
10
1.5880543786
20
3.9532795151
11
1.5880543786
21
3.7603661292
0
LINE
8
0
10
1.6018339061
20
4.2072165229
11
1.6018339061
21
3.9532795151
0
LINE
8
0
10
1.5683693392
20
3.7603661292
11
1.5880543786
21
3.7603661292
0
LINE
8
0
10
1.8683693392
20
3.7603661292
11
1.8880543786
21
3.7603661292
0
LINE
8
0
10
1.8545898117
20
3.9943266673
11
1.8545898117
21
3.9828070741
0
LINE
8
0
10
1.5683693392
20
3.7898936883
11
1.5880543786
21
3.7898936883
0
LINE
8
0
10
1.8683693392
20
3.7898936883
11
1.8880543786
21
3.7898936883
0
LINE
8
0
10
1.8683693392
20
3.9828070741
11
1.8683693392
21
3.7603661292
0
LINE
8
0
10
1.8880543786
20
3.9828070741
11
1.8880543786
21
3.7603661292
0
LINE
8
0
10
1.9018339061
20
3.9943266673
11
1.9018339061
21
3.9828070741
0
LINE
8
0
10
2.4175819376
20
3.8981614048
11
2.3388417802
21
3.8981614048
0
LINE
8
0
10
1.5545898117
20
3.9532795151
11
1.6018339061
21
3.9532795151
0
LINE
8
0
10
2.3545898117
20
3.9532795151
11
2.4018339061
21
3.9532795151
0
LINE
8
0
10
2.7691567408
20
3.9611535308
11
2.5526213077
21
3.9611535308
0
LINE
8
DEFAULT_2
10
2.4020383997
20
3.9611535308
11
2.3543853253
21
3.9611535308
0
LINE
8
DEFAULT_2
10
1.6020142692
20
3.9611535308
11
1.5544094639
21
3.9611535308
0
LINE
8
0
62
40
10
1.5544094581
20
3.9611535308
11
1.5526213914
21
3.9611535308
0
LINE
8
0
62
40
10
1.6020142597
20
3.9611535308
11
1.6038023264
21
3.9611535308
0
LINE
8
0
62
40
10
1.8527653586
20
3.9611535308
11
1.9036584327
21
3.9611535308
0
LINE
8
0
62
40
10
2.3388417869
20
3.9611535308
11
2.3543853253
21
3.9611535308
0
LINE
8
0
62
40
10
2.4020383997
20
3.9611535308
11
2.4175819444
21
3.9611535308
0
LINE
8
0
10
2.4175819376
20
3.9729645544
11
2.4018339061
21
3.9729645544
0
LINE
8
0
10
2.3545898117
20
3.9729645544
11
2.3388417802
21
3.9729645544
0
LINE
8
DEFAULT_2
10
1.5545898117
20
3.9729645544
11
1.6018339061
21
3.9729645544
0
LINE
8
DEFAULT_2
10
2.3545898117
20
3.9729645544
11
2.4018339061
21
3.9729645544
0
LINE
8
0
10
1.8545898117
20
3.9828070741
11
1.9018339061
21
3.9828070741
0
LINE
8
0
10
2.5526213077
20
3.9887125859
11
2.4018339061
21
3.9887125859
0
LINE
8
0
10
2.3545898117
20
3.9887125859
11
1.9018339061
21
3.9887125859
0
LINE
8
0
10
1.8545898117
20
3.9887125859
11
1.6018339061
21
3.9887125859
0
LINE
8
0
10
1.5545898117
20
3.9887125859
11
1.5093142211
21
3.9887125859
0
LINE
8
0
10
1.9018339061
20
3.9943266673
11
1.8545898117
21
3.9943266673
0
LINE
8
DEFAULT_2
10
2.7691567408
20
4.0202086489
11
2.7593142211
21
4.0202086489
0
LINE
8
DEFAULT_2
10
2.7691567408
20
4.0346539703
11
2.6904165833
21
4.0346539703
0
LINE
8
DEFAULT_2
10
2.7691567408
20
4.0557616065
11
2.6904165833
21
4.0557616065
0
LINE
8
DEFAULT_2
10
2.7691567408
20
4.0764122447
11
2.6904165833
21
4.0764122447
0
LINE
8
DEFAULT_2
10
2.7691567408
20
4.0975198810
11
2.6904165833
21
4.0975198810
0
LINE
8
DEFAULT_2
10
2.7593142211
20
4.1717834521
11
2.6904165833
21
4.1717834521
0
LINE
8
DEFAULT_2
10
2.7593142211
20
4.2426495938
11
2.6904165833
21
4.2426495938
0
LINE
8
0
10
2.3388417802
20
3.9729645544
11
2.3388417802
21
3.8981614048
0
LINE
8
0
10
2.3545898117
20
4.2072165229
11
2.3545898117
21
3.9532795151
0
LINE
8
DEFAULT_2
10
2.7691567408
20
4.3169131648
11
2.6904165833
21
4.3169131648
0
LINE
8
DEFAULT_2
10
2.7691567408
20
4.3380208011
11
2.6904165833
21
4.3380208011
0
LINE
8
0
10
2.4018339061
20
4.2072165229
11
2.4018339061
21
3.9532795151
0
LINE
8
0
10
2.4175819376
20
3.9729645544
11
2.4175819376
21
3.8981614048
0
LINE
8
DEFAULT_2
10
2.7691567408
20
4.3586714393
11
2.6904165833
21
4.3586714393
0
LINE
8
DEFAULT_2
10
2.7691567408
20
4.3797790756
11
2.6904165833
21
4.3797790756
0
LINE
8
DEFAULT_2
10
2.7691567408
20
4.3942243969
11
2.7593142211
21
4.3942243969
0
LINE
8
0
10
2.5526213077
20
4.4257204599
11
1.5093142211
21
4.4257204599
0
LINE
8
0
10
2.7691567408
20
4.4532795151
11
2.5526213077
21
4.4532795151
0
LINE
8
0
10
2.5526213077
20
4.4532795151
11
2.5526213077
21
3.9611535308
0
LINE
8
DEFAULT_2
10
2.6904165833
20
4.3797790756
11
2.6904165833
21
4.3169131648
0
LINE
8
DEFAULT_2
10
2.6904165833
20
4.2426495938
11
2.6904165833
21
4.1717834521
0
LINE
8
DEFAULT_2
10
2.6904165833
20
4.0975198810
11
2.6904165833
21
4.0346539703
0
LINE
8
DEFAULT_2
10
2.7593142211
20
4.3942202281
11
2.7593142211
21
4.0202128178
0
LINE
8
0
10
2.7691567408
20
4.4532795151
11
2.7691567408
21
3.9611535308
0
LINE
8
0
10
4.6388054289
20
5.8351139035
11
5.1309314132
21
5.8351139035
0
LINE
8
DEFAULT_2
10
5.0718721256
20
5.8449564232
11
4.6978647165
21
5.8449564232
0
LINE
8
DEFAULT_2
10
5.0574309737
20
5.9138540610
11
4.7123058684
21
5.9138540610
0
LINE
8
0
10
4.6388054289
20
6.0516493366
11
5.1309314132
21
6.0516493366
0
LINE
8
0
10
4.6388054289
20
5.8351139035
11
4.6388054289
21
6.0516493366
0
LINE
8
DEFAULT_2
10
5.1033723581
20
6.2024367381
11
4.6663644840
21
6.2024367381
0
LINE
8
0
10
4.6663644840
20
6.0516493366
11
4.6663644840
21
7.0949564232
0
LINE
8
DEFAULT_2
10
4.6978605470
20
5.8351139035
11
4.6978605470
21
5.8449564232
0
LINE
8
DEFAULT_2
10
4.7077030667
20
7.0496808326
11
4.7077030667
21
7.0024367381
0
LINE
8
DEFAULT_2
10
4.7077030667
20
6.2496808326
11
4.7077030667
21
6.2024367381
0
LINE
8
DEFAULT_2
10
5.1033723581
20
6.2496808326
11
4.6663644840
21
6.2496808326
0
LINE
8
DEFAULT_2
10
4.7123058684
20
5.8351139035
11
4.7123058684
21
5.9138540610
0
LINE
8
DEFAULT_2
10
4.7273881061
20
7.0496808326
11
4.7273881061
21
7.0024367381
0
LINE
8
DEFAULT_2
10
4.7273881061
20
6.2496808326
11
4.7273881061
21
6.2024367381
0
LINE
8
DEFAULT_2
10
4.7334135047
20
5.8351139035
11
4.7334135047
21
5.9138540610
0
LINE
8
DEFAULT_2
10
4.7540641429
20
5.8351139035
11
4.7540641429
21
5.9138540610
0
LINE
8
DEFAULT_2
10
4.7632148777
20
7.0359013051
11
4.7632148777
21
7.0162162657
0
LINE
8
DEFAULT_2
10
4.7667581848
20
5.8449564232
11
4.7667581848
21
5.9138540610
0
LINE
8
DEFAULT_2
10
4.7711267633
20
7.0359013051
11
4.7711267633
21
7.0162162657
0
LINE
8
DEFAULT_2
10
4.7751717791
20
5.8351139035
11
4.7751717791
21
5.9138540610
0
LINE
8
DEFAULT_2
10
4.7986100788
20
7.0359013051
11
4.7986100788
21
7.0162162657
0
LINE
8
DEFAULT_2
10
4.8065219644
20
7.0359013051
11
4.8065219644
21
7.0162162657
0
LINE
8
DEFAULT_2
10
4.8356558226
20
6.7024367381
11
4.8356558226
21
6.7496808326
0
LINE
8
DEFAULT_2
10
4.8632148777
20
6.7359013051
11
4.8632148777
21
6.7162162657
0
LINE
8
DEFAULT_2
10
4.8711267633
20
6.7359013051
11
4.8711267633
21
6.7162162657
0
LINE
8
DEFAULT_2
10
4.8986100788
20
6.7359013051
11
4.8986100788
21
6.7162162657
0
LINE
8
DEFAULT_2
10
4.9065219644
20
6.7359013051
11
4.9065219644
21
6.7162162657
0
LINE
8
DEFAULT_2
10
4.9340810195
20
6.7024367381
11
4.9340810195
21
6.7496808326
0
LINE
8
DEFAULT_2
10
4.9632148777
20
7.0359013051
11
4.9632148777
21
7.0162162657
0
LINE
8
DEFAULT_2
10
4.9711267633
20
7.0359013051
11
4.9711267633
21
7.0162162657
0
LINE
8
DEFAULT_2
10
4.9945650630
20
5.8351139035
11
4.9945650630
21
5.9138540610
0
LINE
8
DEFAULT_2
10
4.9986100788
20
7.0359013051
11
4.9986100788
21
7.0162162657
0
LINE
8
DEFAULT_2
10
5.0029786573
20
5.8449564232
11
5.0029786573
21
5.9138540610
0
LINE
8
DEFAULT_2
10
5.0065219644
20
7.0359013051
11
5.0065219644
21
7.0162162657
0
LINE
8
DEFAULT_2
10
5.0156726992
20
5.8351139035
11
5.0156726992
21
5.9138540610
0
LINE
8
DEFAULT_2
10
5.0363233374
20
5.8351139035
11
5.0363233374
21
5.9138540610
0
LINE
8
DEFAULT_2
10
5.0423487360
20
7.0496808326
11
5.0423487360
21
7.0024367381
0
LINE
8
DEFAULT_2
10
5.0423487360
20
6.2496808326
11
5.0423487360
21
6.2024367381
0
LINE
8
DEFAULT_2
10
5.0574309737
20
5.8351139035
11
5.0574309737
21
5.9138540610
0
LINE
8
DEFAULT_2
10
5.0620337754
20
7.0496808326
11
5.0620337754
21
7.0024367381
0
LINE
8
DEFAULT_2
10
5.0620337754
20
6.2496808326
11
5.0620337754
21
6.2024367381
0
LINE
8
DEFAULT_2
10
5.0718762951
20
5.8351139035
11
5.0718762951
21
5.8449564232
0
LINE
8
0
10
5.1033723581
20
6.0516493366
11
5.1033723581
21
7.0949564232
0
LINE
8
0
10
5.1309314132
20
5.8351139035
11
5.1309314132
21
6.0516493366
0
LINE
8
DEFAULT_2
10
4.9340810195
20
6.7024367381
11
4.8356558226
21
6.7024367381
0
LINE
8
DEFAULT_2
10
4.8632148777
20
6.7162162657
11
4.9065219644
21
6.7162162657
0
LINE
8
DEFAULT_2
10
4.8632148777
20
6.7359013051
11
4.9065219644
21
6.7359013051
0
LINE
8
DEFAULT_2
10
4.9340810195
20
6.7496808326
11
4.8356558226
21
6.7496808326
0
LINE
8
DEFAULT_2
10
5.1033723581
20
7.0024367381
11
4.6663644840
21
7.0024367381
0
LINE
8
DEFAULT_2
10
4.7632148777
20
7.0162162657
11
4.8065219644
21
7.0162162657
0
LINE
8
DEFAULT_2
10
4.9632148777
20
7.0162162657
11
5.0065219644
21
7.0162162657
0
LINE
8
DEFAULT_2
10
4.7632148777
20
7.0359013051
11
4.8065219644
21
7.0359013051
0
LINE
8
DEFAULT_2
10
4.9632148777
20
7.0359013051
11
5.0065219644
21
7.0359013051
0
LINE
8
DEFAULT_2
10
5.1033723581
20
7.0496808326
11
4.6663644840
21
7.0496808326
0
LINE
8
0
10
4.6663683032
20
7.0949564232
11
5.1033685389
21
7.0949564232
0
LINE
8
0
10
6.6300038763
20
4.4532795151
11
6.6300038763
21
3.9611535308
0
LINE
8
DEFAULT_2
10
6.6398463960
20
4.0202128178
11
6.6398463960
21
4.3942202281
0
LINE
8
DEFAULT_2
10
6.7087440338
20
4.0346539703
11
6.7087440338
21
4.0975198810
0
LINE
8
DEFAULT_2
10
6.7087440338
20
4.1717834521
11
6.7087440338
21
4.2426495938
0
LINE
8
DEFAULT_2
10
6.7087440338
20
4.3169131648
11
6.7087440338
21
4.3797790756
0
LINE
8
0
10
6.8465393093
20
4.4532795151
11
6.8465393093
21
3.9611535308
0
LINE
8
0
10
7.8307912778
20
3.7603661292
11
7.8111062385
21
3.7603661292
0
LINE
8
0
10
7.5307912778
20
3.7603661292
11
7.5111062385
21
3.7603661292
0
LINE
8
0
10
7.8307912778
20
3.7898936883
11
7.8111062385
21
3.7898936883
0
LINE
8
0
10
7.5307912778
20
3.7898936883
11
7.5111062385
21
3.7898936883
0
LINE
8
0
10
6.9815786794
20
3.9729645544
11
6.9815786794
21
3.8981614048
0
LINE
8
0
10
6.9973267109
20
3.9532795151
11
6.9973267109
21
4.2072165229
0
LINE
8
0
10
7.0445708054
20
3.9532795151
11
7.0445708054
21
4.2072165229
0
LINE
8
0
10
7.0603188369
20
3.9729645544
11
7.0603188369
21
3.8981614048
0
LINE
8
0
10
7.0603188369
20
3.8981614048
11
6.9815786794
21
3.8981614048
0
LINE
8
0
10
7.8445708054
20
3.9532795151
11
7.7973267109
21
3.9532795151
0
LINE
8
0
10
7.0445708054
20
3.9532795151
11
6.9973267109
21
3.9532795151
0
LINE
8
DEFAULT_2
10
7.8447511684
20
3.9611535308
11
7.7971463631
21
3.9611535308
0
LINE
8
0
62
40
10
7.7971463574
20
3.9611535308
11
7.7953582907
21
3.9611535308
0
LINE
8
DEFAULT_2
10
7.0447752914
20
3.9611535308
11
6.9971222111
21
3.9611535308
0
LINE
8
0
10
6.6300038763
20
3.9611535308
11
6.8465393093
21
3.9611535308
0
LINE
8
0
62
40
10
6.9815786727
20
3.9611535308
11
6.9971222111
21
3.9611535308
0
LINE
8
0
62
40
10
7.0447752914
20
3.9611535308
11
7.0603188301
21
3.9611535308
0
LINE
8
0
62
40
10
7.4955021844
20
3.9611535308
11
7.5463952585
21
3.9611535308
0
LINE
8
0
62
40
10
7.8447511589
20
3.9611535308
11
7.8465392257
21
3.9611535308
0
LINE
8
DEFAULT_2
10
7.8445708054
20
3.9729645544
11
7.7973267109
21
3.9729645544
0
LINE
8
0
10
7.0603188369
20
3.9729645544
11
7.0445708054
21
3.9729645544
0
LINE
8
DEFAULT_2
10
7.0445708054
20
3.9729645544
11
6.9973267109
21
3.9729645544
0
LINE
8
0
10
6.9973267109
20
3.9729645544
11
6.9815786794
21
3.9729645544
0
LINE
8
0
10
7.5445708054
20
3.9828070741
11
7.4973267109
21
3.9828070741
0
LINE
8
0
10
6.8465393093
20
3.9887125859
11
6.9973267109
21
3.9887125859
0
LINE
8
0
10
7.0445708054
20
3.9887125859
11
7.4973267109
21
3.9887125859
0
LINE
8
0
10
7.5445708054
20
3.9887125859
11
7.7973267109
21
3.9887125859
0
LINE
8
0
10
7.8445708054
20
3.9887125859
11
7.8898463960
21
3.9887125859
0
LINE
8
0
10
7.4973267109
20
3.9943266673
11
7.5445708054
21
3.9943266673
0
LINE
8
DEFAULT_2
10
6.6300038763
20
4.0202086489
11
6.6398463960
21
4.0202086489
0
LINE
8
DEFAULT_2
10
6.6300038763
20
4.0346539703
11
6.7087440338
21
4.0346539703
0
LINE
8
DEFAULT_2
10
6.6300038763
20
4.0557616065
11
6.7087440338
21
4.0557616065
0
LINE
8
DEFAULT_2
10
6.6300038763
20
4.0764122447
11
6.7087440338
21
4.0764122447
0
LINE
8
DEFAULT_2
10
6.6300038763
20
4.0975198810
11
6.7087440338
21
4.0975198810
0
LINE
8
DEFAULT_2
10
6.6398463960
20
4.1717834521
11
6.7087440338
21
4.1717834521
0
LINE
8
DEFAULT_2
10
6.6398463960
20
4.2426495938
11
6.7087440338
21
4.2426495938
0
LINE
8
0
10
7.4973267109
20
3.9828070741
11
7.4973267109
21
3.9943266673
0
LINE
8
DEFAULT_2
10
6.6300038763
20
4.3169131648
11
6.7087440338
21
4.3169131648
0
LINE
8
DEFAULT_2
10
6.6300038763
20
4.3380208011
11
6.7087440338
21
4.3380208011
0
LINE
8
0
10
7.5111062385
20
3.7603661292
11
7.5111062385
21
3.9828070741
0
LINE
8
0
10
7.5307912778
20
3.7603661292
11
7.5307912778
21
3.9828070741
0
LINE
8
0
10
7.5445708054
20
3.9828070741
11
7.5445708054
21
3.9943266673
0
LINE
8
DEFAULT_2
10
6.6300038763
20
4.3586714393
11
6.7087440338
21
4.3586714393
0
LINE
8
DEFAULT_2
10
6.6300038763
20
4.3797790756
11
6.7087440338
21
4.3797790756
0
LINE
8
DEFAULT_2
10
6.6300038763
20
4.3942243969
11
6.6398463960
21
4.3942243969
0
LINE
8
0
10
6.8465393093
20
4.4257204599
11
7.8898463960
21
4.4257204599
0
LINE
8
0
10
6.6300038763
20
4.4532795151
11
6.8465393093
21
4.4532795151
0
LINE
8
0
10
7.7973267109
20
3.9532795151
11
7.7973267109
21
4.2072165229
0
LINE
8
0
10
7.8111062385
20
3.7603661292
11
7.8111062385
21
3.9532795151
0
LINE
8
DEFAULT_2
10
7.8111062385
20
3.9532795151
11
7.8111062385
21
3.9729645544
0
LINE
8
0
10
7.8307912778
20
3.7603661292
11
7.8307912778
21
3.9532795151
0
LINE
8
DEFAULT_2
10
7.8307912778
20
3.9532795151
11
7.8307912778
21
3.9729645544
0
LINE
8
0
10
7.8445708054
20
3.9532795151
11
7.8445708054
21
4.2072165229
0
LINE
8
0
10
7.8898463960
20
4.4257204599
11
7.8898463960
21
3.9887125859
0
LINE
8
0
10
4.6663683032
20
1.1018448472
11
5.1033685389
21
1.1018448472
0
LINE
8
0
10
4.6663644840
20
1.1471204378
11
5.1033723581
21
1.1471204378
0
LINE
8
0
10
4.7632148777
20
1.1608999653
11
4.8065219644
21
1.1608999653
0
LINE
8
0
10
4.9632148777
20
1.1608999653
11
5.0065219644
21
1.1608999653
0
LINE
8
0
10
4.7632148777
20
1.1805850047
11
4.8065219644
21
1.1805850047
0
LINE
8
0
10
4.9632148777
20
1.1805850047
11
5.0065219644
21
1.1805850047
0
LINE
8
0
10
4.6663644840
20
1.1943645323
11
5.1033723581
21
1.1943645323
0
LINE
8
0
10
4.8356558226
20
1.4471204378
11
4.9340810195
21
1.4471204378
0
LINE
8
0
10
4.8632148777
20
1.4608999653
11
4.9065219644
21
1.4608999653
0
LINE
8
0
10
4.6388054289
20
2.3616873669
11
4.6388054289
21
2.1451519338
0
LINE
8
0
10
4.8632148777
20
1.4805850047
11
4.9065219644
21
1.4805850047
0
LINE
8
0
10
4.8356558226
20
1.4943645323
11
4.9340810195
21
1.4943645323
0
LINE
8
0
10
4.6663644840
20
1.1018448472
11
4.6663644840
21
2.1451519338
0
LINE
8
DEFAULT_2
10
4.6978605470
20
2.3616873669
11
4.6978605470
21
2.3518448472
0
LINE
8
0
10
4.7077030667
20
1.1471204378
11
4.7077030667
21
1.1943645323
0
LINE
8
0
10
4.7077030667
20
1.9471204378
11
4.7077030667
21
1.9943645323
0
LINE
8
DEFAULT_2
10
4.7123058684
20
2.3616873669
11
4.7123058684
21
2.2829472094
0
LINE
8
0
10
4.7273881061
20
1.1471204378
11
4.7273881061
21
1.1943645323
0
LINE
8
0
10
4.7273881061
20
1.9471204378
11
4.7273881061
21
1.9943645323
0
LINE
8
DEFAULT_2
10
4.7334135047
20
2.3616873669
11
4.7334135047
21
2.2829472094
0
LINE
8
DEFAULT_2
10
4.7540641429
20
2.3616873669
11
4.7540641429
21
2.2829472094
0
LINE
8
0
10
4.7632148777
20
1.1608999653
11
4.7632148777
21
1.1805850047
0
LINE
8
DEFAULT_2
10
4.7667581848
20
2.3518448472
11
4.7667581848
21
2.2829472094
0
LINE
8
0
10
4.7711267633
20
1.1608999653
11
4.7711267633
21
1.1805850047
0
LINE
8
DEFAULT_2
10
4.7751717791
20
2.3616873669
11
4.7751717791
21
2.2829472094
0
LINE
8
0
10
4.7986100788
20
1.1608999653
11
4.7986100788
21
1.1805850047
0
LINE
8
0
10
4.8065219644
20
1.1608999653
11
4.8065219644
21
1.1805850047
0
LINE
8
0
10
4.8356558226
20
1.4471204378
11
4.8356558226
21
1.4943645323
0
LINE
8
0
10
4.8632148777
20
1.4608999653
11
4.8632148777
21
1.4805850047
0
LINE
8
0
10
4.8711267633
20
1.4608999653
11
4.8711267633
21
1.4805850047
0
LINE
8
0
10
4.8986100788
20
1.4608999653
11
4.8986100788
21
1.4805850047
0
LINE
8
0
10
4.9065219644
20
1.4608999653
11
4.9065219644
21
1.4805850047
0
LINE
8
0
10
4.9340810195
20
1.4471204378
11
4.9340810195
21
1.4943645323
0
LINE
8
0
10
4.9632148777
20
1.1608999653
11
4.9632148777
21
1.1805850047
0
LINE
8
0
10
4.9711267633
20
1.1608999653
11
4.9711267633
21
1.1805850047
0
LINE
8
DEFAULT_2
10
4.9945650630
20
2.3616873669
11
4.9945650630
21
2.2829472094
0
LINE
8
0
10
4.9986100788
20
1.1608999653
11
4.9986100788
21
1.1805850047
0
LINE
8
DEFAULT_2
10
5.0029786573
20
2.3518448472
11
5.0029786573
21
2.2829472094
0
LINE
8
0
10
5.0065219644
20
1.1608999653
11
5.0065219644
21
1.1805850047
0
LINE
8
DEFAULT_2
10
5.0156726992
20
2.3616873669
11
5.0156726992
21
2.2829472094
0
LINE
8
DEFAULT_2
10
5.0363233374
20
2.3616873669
11
5.0363233374
21
2.2829472094
0
LINE
8
0
10
5.0423487360
20
1.1471204378
11
5.0423487360
21
1.1943645323
0
LINE
8
0
10
5.0423487360
20
1.9471204378
11
5.0423487360
21
1.9943645323
0
LINE
8
DEFAULT_2
10
5.0574309737
20
2.3616873669
11
5.0574309737
21
2.2829472094
0
LINE
8
0
10
5.0620337754
20
1.1471204378
11
5.0620337754
21
1.1943645323
0
LINE
8
0
10
5.0620337754
20
1.9471204378
11
5.0620337754
21
1.9943645323
0
LINE
8
DEFAULT_2
10
5.0718762951
20
2.3616873669
11
5.0718762951
21
2.3518448472
0
LINE
8
0
10
5.1033723581
20
1.1018448472
11
5.1033723581
21
2.1451519338
0
LINE
8
0
10
4.6663644840
20
1.9471204378
11
4.8533723581
21
1.9471204378
0
LINE
8
DEFAULT_2
10
4.8533723581
20
1.9471204378
11
4.9163644840
21
1.9471204378
0
LINE
8
0
10
4.9163644840
20
1.9471204378
11
5.1033723581
21
1.9471204378
0
LINE
8
0
10
5.1309314132
20
2.3616873669
11
5.1309314132
21
2.1451519338
0
LINE
8
0
10
4.6663644840
20
1.9943645323
11
4.8533723581
21
1.9943645323
0
LINE
8
DEFAULT_2
10
4.8533723581
20
1.9943645323
11
4.9163644840
21
1.9943645323
0
LINE
8
0
10
4.9163644840
20
1.9943645323
11
5.1033723581
21
1.9943645323
0
LINE
8
0
10
4.6388054289
20
2.1451519338
11
5.1309314132
21
2.1451519338
0
LINE
8
DEFAULT_2
10
4.7123058684
20
2.2829472094
11
5.0574309737
21
2.2829472094
0
LINE
8
DEFAULT_2
10
4.6978647165
20
2.3518448472
11
5.0718721256
21
2.3518448472
0
LINE
8
0
10
4.6388054289
20
2.3616873669
11
5.1309314132
21
2.3616873669
0
LINE
8
0
10
8.9512861670
20
6.2522050974
11
9.1688596302
21
6.2522050974
0
LINE
8
0
10
8.8480403685
20
6.3478299802
11
8.8739205017
21
6.3347092631
0
LINE
8
0
10
9.1941191744
20
6.1723748512
11
9.2199993077
21
6.1592541341
0
LINE
8
0
10
9.1472424900
20
6.2962561975
11
8.9296690269
21
6.2962561975
0
LINE
8
0
10
9.2457232035
20
6.1852114938
11
9.2198430702
21
6.1983322109
0
LINE
8
0
10
8.8996443976
20
6.3606666227
11
8.8737642643
21
6.3737873399
0
LINE
8
DEFAULT_2
10
8.8671007089
20
6.4095092644
11
8.8929808422
21
6.3963885473
0
LINE
8
DEFAULT_2
10
9.2131795149
20
6.2340541354
11
9.2390596481
21
6.2209334183
0
LINE
8
0
10
8.9296690269
20
6.2962561975
11
8.9512861670
21
6.2522050974
0
LINE
8
DEFAULT_2
10
8.9679639649
20
6.3061744711
11
9.1855374281
21
6.3061744711
0
LINE
8
DEFAULT_2
10
9.1639202879
20
6.3502255712
11
8.9463468248
21
6.3502255712
0
LINE
8
DEFAULT_2
10
9.2647835439
20
6.2468907780
11
9.2389034107
21
6.2600114951
0
LINE
8
DEFAULT_2
10
8.9187047380
20
6.4223459070
11
8.8928246048
21
6.4354666241
0
LINE
8
DEFAULT_2
10
8.9463468248
20
6.3502255712
11
8.9679639649
21
6.3061744711
0
LINE
8
DEFAULT_2
10
9.0120042396
20
6.3964048225
11
9.0500795956
21
6.3964048225
0
LINE
8
0
10
9.3764397903
20
6.3964048225
11
9.4145151464
21
6.3964048225
0
LINE
8
DEFAULT_2
10
8.8693610845
20
6.3248272257
11
8.8693202642
21
6.3242480568
0
POLYLINE
8
0
66
1
70
0
0
VERTEX
8
0
10
8.8693202642
20
6.3242480568
0
VERTEX
8
0
10
8.8680102715
20
6.3056615711
0
VERTEX
8
0
10
8.8722935113
20
6.2855181050
0
VERTEX
8
0
10
8.8820781071
20
6.2650233310
0
VERTEX
8
0
10
8.8970598667
20
6.2448147716
0
VERTEX
8
0
10
8.9167726030
20
6.2255210288
0
VERTEX
8
0
10
8.9406027277
20
6.2077421248
0
VERTEX
8
0
10
8.9678084743
20
6.1920307453
0
VERTEX
8
0
10
8.9975456299
20
6.1788740273
0
VERTEX
8
0
10
9.0288921472
20
6.1686802514
0
VERTEX
8
0
10
9.0608732563
20
6.1617669693
0
VERTEX
8
0
10
9.0924941940
20
6.1583495500
0
VERTEX
8
0
10
9.1227712589
20
6.1585344163
0
VERTEX
8
0
10
9.1507626886
20
6.1623156917
0
VERTEX
8
0
10
9.1755980862
20
6.1695754136
0
VERTEX
8
0
10
9.1965039488
20
6.1800864239
0
SEQEND
0
POLYLINE
8
0
66
1
70
0
0
VERTEX
8
0
10
8.9718222716
20
6.4194759457
0
VERTEX
8
0
10
8.9372922242
20
6.4175928133
0
VERTEX
8
0
10
8.9054606356
20
6.4119897849
0
VERTEX
8
0
10
8.8771113051
20
6.4028048258
0
VERTEX
8
0
10
8.8529422873
20
6.3902641002
0
VERTEX
8
0
10
8.8335487035
20
6.3746764023
0
VERTEX
8
0
10
8.8194080883
20
6.3564255529
0
VERTEX
8
0
10
8.8117865477
20
6.3391621351
0
SEQEND
0
LINE
8
DEFAULT_2
10
9.0622059564
20
6.4086412392
11
9.3353702820
21
6.4086412392
0
LINE
8
0
10
9.3353702820
20
6.4086412392
11
9.3523039072
21
6.4086412392
0
LINE
8
DEFAULT_2
10
9.0234404438
20
6.4334123930
11
9.0615157999
21
6.4334123930
0
LINE
8
DEFAULT_2
10
9.3878759946
20
6.4334123930
11
9.4259513506
21
6.4334123930
0
LINE
8
DEFAULT_2
10
9.0736421606
20
6.4456488097
11
9.3637401115
21
6.4456488097
0
POLYLINE
8
0
66
1
70
0
0
VERTEX
8
0
10
8.9718222716
20
6.4194759457
0
VERTEX
8
0
10
9.0082005332
20
6.4175928133
0
VERTEX
8
0
10
9.0455312557
20
6.4119897849
0
VERTEX
8
0
10
9.0828952328
20
6.4028048258
0
VERTEX
8
0
10
9.1193724392
20
6.3902641002
0
VERTEX
8
0
10
9.1540646852
20
6.3746764023
0
VERTEX
8
0
10
9.1861177325
20
6.3564255529
0
VERTEX
8
0
10
9.2147423286
20
6.3359609486
0
VERTEX
8
0
10
9.2392336412
20
6.3137864958
0
VERTEX
8
0
10
9.2589886126
20
6.2904482032
0
VERTEX
8
0
10
9.2735208101
20
6.2665207370
0
VERTEX
8
0
10
9.2824724026
20
6.2425932707
0
VERTEX
8
0
10
9.2856229723
20
6.2192549781
0
VERTEX
8
0
10
9.2828949416
20
6.1970805253
0
VERTEX
8
0
10
9.2819770243
20
6.1938793388
0
SEQEND
0
POLYLINE
8
DEFAULT_2
66
1
70
0
0
VERTEX
8
DEFAULT_2
10
9.2024511229
20
6.4184303725
0
VERTEX
8
DEFAULT_2
10
9.1701338291
20
6.4201039551
0
VERTEX
8
DEFAULT_2
10
9.1369744226
20
6.4250826618
0
VERTEX
8
DEFAULT_2
10
9.1037867589
20
6.4332436183
0
VERTEX
8
DEFAULT_2
10
9.0713892235
20
6.4443852557
0
VERTEX
8
DEFAULT_2
10
9.0405795484
20
6.4582328073
0
VERTEX
8
DEFAULT_2
10
9.0121162322
20
6.4744449804
0
VERTEX
8
DEFAULT_2
10
8.9866999127
20
6.4926223606
0
VERTEX
8
DEFAULT_2
10
8.9649561628
20
6.5123172392
0
VERTEX
8
DEFAULT_2
10
8.9474201340
20
6.5330446224
0
VERTEX
8
DEFAULT_2
10
8.9345428207
20
6.5542545979
0
SEQEND
0
LINE
8
DEFAULT_2
10
8.9345428207
20
6.5542545979
11
9.0120042396
21
6.3964048225
0
LINE
8
DEFAULT_2
10
8.9459790249
20
6.5912621684
11
9.0234404438
21
6.4334123930
0
POLYLINE
8
DEFAULT_2
66
1
70
0
0
VERTEX
8
DEFAULT_2
10
8.8905380602
20
6.5006500518
0
VERTEX
8
DEFAULT_2
10
8.8882192017
20
6.4906987385
0
VERTEX
8
DEFAULT_2
10
8.8878383250
20
6.4694816447
0
VERTEX
8
DEFAULT_2
10
8.8932255095
20
6.4473550442
0
VERTEX
8
DEFAULT_2
10
8.9042338068
20
6.4249224929
0
VERTEX
8
DEFAULT_2
10
8.9205629392
20
6.4027958925
0
VERTEX
8
DEFAULT_2
10
8.9417674905
20
6.3815787987
0
VERTEX
8
DEFAULT_2
10
8.9672690559
20
6.3618499587
0
VERTEX
8
DEFAULT_2
10
8.9963720191
20
6.3441475238
0
VERTEX
8
DEFAULT_2
10
9.0282825272
20
6.3289543702
0
VERTEX
8
DEFAULT_2
10
9.0621301447
20
6.3166849276
0
VERTEX
8
DEFAULT_2
10
9.0969915969
20
6.3076738744
0
VERTEX
8
DEFAULT_2
10
9.1319159541
20
6.3021670086
0
VERTEX
8
DEFAULT_2
10
9.1659505710
20
6.3003145432
0
SEQEND
0
POLYLINE
8
0
66
1
70
0
0
VERTEX
8
0
10
8.8117865477
20
6.3391621351
0
VERTEX
8
0
10
8.8108686304
20
6.3359609486
0
VERTEX
8
0
10
8.8081405997
20
6.3137864958
0
VERTEX
8
0
10
8.8112911694
20
6.2904482032
0
VERTEX
8
0
10
8.8202427619
20
6.2665207370
0
VERTEX
8
0
10
8.8347749593
20
6.2425932707
0
VERTEX
8
0
10
8.8545299308
20
6.2192549781
0
VERTEX
8
0
10
8.8790212433
20
6.1970805253
0
VERTEX
8
0
10
8.9076458395
20
6.1766159210
0
VERTEX
8
0
10
8.9396988868
20
6.1583650717
0
VERTEX
8
0
10
8.9743911328
20
6.1427773737
0
VERTEX
8
0
10
9.0108683392
20
6.1302366481
0
VERTEX
8
0
10
9.0482323163
20
6.1210516890
0
VERTEX
8
0
10
9.0855630387
20
6.1154486607
0
VERTEX
8
0
10
9.1219413004
20
6.1135655282
0
SEQEND
0
POLYLINE
8
DEFAULT_2
66
1
70
0
0
VERTEX
8
DEFAULT_2
10
8.8642024839
20
6.5087801667
0
VERTEX
8
DEFAULT_2
10
8.8632845666
20
6.5055789802
0
VERTEX
8
DEFAULT_2
10
8.8605565359
20
6.4834045275
0
VERTEX
8
DEFAULT_2
10
8.8637071055
20
6.4600662348
0
VERTEX
8
DEFAULT_2
10
8.8726586980
20
6.4361387686
0
VERTEX
8
DEFAULT_2
10
8.8871908955
20
6.4122113023
0
VERTEX
8
DEFAULT_2
10
8.9069458670
20
6.3888730097
0
VERTEX
8
DEFAULT_2
10
8.9314371795
20
6.3666985569
0
VERTEX
8
DEFAULT_2
10
8.9600617757
20
6.3462339526
0
VERTEX
8
DEFAULT_2
10
8.9921148230
20
6.3279831033
0
VERTEX
8
DEFAULT_2
10
9.0268070690
20
6.3123954053
0
VERTEX
8
DEFAULT_2
10
9.0632842754
20
6.2998546797
0
VERTEX
8
DEFAULT_2
10
9.1006482524
20
6.2906697206
0
VERTEX
8
DEFAULT_2
10
9.1379789749
20
6.2850666923
0
VERTEX
8
DEFAULT_2
10
9.1743572366
20
6.2831835598
0
SEQEND
0
LINE
8
0
10
8.8117880743
20
6.3391701886
11
8.8642040105
21
6.5087882202
0
POLYLINE
8
DEFAULT_2
66
1
70
0
0
VERTEX
8
DEFAULT_2
10
9.2138873271
20
6.4554379430
0
VERTEX
8
DEFAULT_2
10
9.1815700334
20
6.4571115256
0
VERTEX
8
DEFAULT_2
10
9.1484106269
20
6.4620902323
0
VERTEX
8
DEFAULT_2
10
9.1152229631
20
6.4702511888
0
VERTEX
8
DEFAULT_2
10
9.0828254278
20
6.4813928263
0
VERTEX
8
DEFAULT_2
10
9.0520157526
20
6.4952403779
0
VERTEX
8
DEFAULT_2
10
9.0235524365
20
6.5114525509
0
VERTEX
8
DEFAULT_2
10
8.9981361169
20
6.5296299311
0
VERTEX
8
DEFAULT_2
10
8.9763923671
20
6.5493248098
0
VERTEX
8
DEFAULT_2
10
8.9588563382
20
6.5700521929
0
VERTEX
8
DEFAULT_2
10
8.9459790249
20
6.5912621684
0
SEQEND
0
LINE
8
0
10
9.1688596302
20
6.2522050974
11
9.1472424900
21
6.2962561975
0
POLYLINE
8
DEFAULT_2
66
1
70
0
0
VERTEX
8
DEFAULT_2
10
9.1430875709
20
7.3179005677
0
VERTEX
8
DEFAULT_2
10
9.1407687123
20
7.3079492544
0
VERTEX
8
DEFAULT_2
10
9.1403878357
20
7.2867321607
0
VERTEX
8
DEFAULT_2
10
9.1457750202
20
7.2646055602
0
VERTEX
8
DEFAULT_2
10
9.1567833174
20
7.2421730089
0
VERTEX
8
DEFAULT_2
10
9.1731124498
20
7.2200464084
0
VERTEX
8
DEFAULT_2
10
9.1943170011
20
7.1988293146
0
VERTEX
8
DEFAULT_2
10
9.2198185665
20
7.1791004746
0
VERTEX
8
DEFAULT_2
10
9.2489215298
20
7.1613980397
0
VERTEX
8
DEFAULT_2
10
9.2808320379
20
7.1462048861
0
VERTEX
8
DEFAULT_2
10
9.3146796554
20
7.1339354436
0
VERTEX
8
DEFAULT_2
10
9.3495411075
20
7.1249243903
0
VERTEX
8
DEFAULT_2
10
9.3844654647
20
7.1194175246
0
VERTEX
8
DEFAULT_2
10
9.4185000816
20
7.1175650592
0
SEQEND
0
LINE
8
DEFAULT_2
10
8.8705875516
20
6.3294218120
11
8.8693610845
21
6.3248272257
0
LINE
8
DEFAULT_2
10
8.8905345062
20
6.5006514816
11
8.9095027082
21
6.5620326059
0
LINE
8
0
10
8.9095027082
20
6.5620326059
11
9.1430840168
21
7.3179019976
0
LINE
8
DEFAULT_2
10
8.8480403685
20
6.3478299802
11
8.8671007089
21
6.4095092644
0
LINE
8
DEFAULT_2
10
8.8737642643
20
6.3737873399
11
8.8928246048
21
6.4354666241
0
LINE
8
DEFAULT_2
10
8.8682105651
20
6.3217343202
11
8.8705931077
21
6.3294442307
0
LINE
8
0
10
8.8739205017
20
6.3347092631
11
8.8843397004
21
6.3684258023
0
LINE
8
DEFAULT_2
10
8.8843397004
20
6.3684258023
11
8.8929808422
21
6.3963885473
0
LINE
8
0
10
9.3523039072
20
6.4086412392
11
9.3764397903
21
6.3964048225
0
LINE
8
DEFAULT_2
10
9.3637401115
20
6.4456488097
11
9.3878759946
21
6.4334123930
0
POLYLINE
8
DEFAULT_2
66
1
70
0
0
VERTEX
8
DEFAULT_2
10
9.1812321213
20
6.4024589717
0
VERTEX
8
DEFAULT_2
10
9.1843358273
20
6.3978362663
0
VERTEX
8
DEFAULT_2
10
9.1887551160
20
6.3939912051
0
VERTEX
8
DEFAULT_2
10
9.1941670805
20
6.3912047376
0
VERTEX
8
DEFAULT_2
10
9.2005508128
20
6.3894876288
0
VERTEX
8
DEFAULT_2
10
9.2074398689
20
6.3889653436
0
VERTEX
8
DEFAULT_2
10
9.2148076340
20
6.3896399000
0
VERTEX
8
DEFAULT_2
10
9.2221157632
20
6.3914620095
0
VERTEX
8
DEFAULT_2
10
9.2293360229
20
6.3944246329
0
VERTEX
8
DEFAULT_2
10
9.2359408461
20
6.3983112984
0
VERTEX
8
DEFAULT_2
10
9.2419047161
20
6.4031069905
0
VERTEX
8
DEFAULT_2
10
9.2468481371
20
6.4085341573
0
SEQEND
0
LINE
8
DEFAULT_2
10
9.1855374281
20
6.3061744711
11
9.1639202879
21
6.3502255712
0
LINE
8
DEFAULT_2
10
8.8996443976
20
6.3606666227
11
8.9187047380
21
6.4223459070
0
LINE
8
DEFAULT_2
10
9.2551688586
20
7.0600739207
11
9.2672952194
21
7.0723103374
0
LINE
8
DEFAULT_2
10
9.2437326543
20
7.0230663502
11
9.2558590151
21
7.0353027669
0
POLYLINE
8
DEFAULT_2
66
1
70
0
0
VERTEX
8
DEFAULT_2
10
9.0326448734
20
6.5719629939
0
VERTEX
8
DEFAULT_2
10
9.0004283724
20
6.5701105285
0
VERTEX
8
DEFAULT_2
10
8.9709087697
20
6.5646036628
0
VERTEX
8
DEFAULT_2
10
8.9448912828
20
6.5555926095
0
VERTEX
8
DEFAULT_2
10
8.9230856011
20
6.5433231670
0
VERTEX
8
DEFAULT_2
10
8.9060865267
20
6.5281300134
0
VERTEX
8
DEFAULT_2
10
8.8943577501
20
6.5104275785
0
VERTEX
8
DEFAULT_2
10
8.8905380602
20
6.5006500518
0
SEQEND
0
POLYLINE
8
0
66
1
70
0
0
VERTEX
8
0
10
9.0242382077
20
6.5890939773
0
VERTEX
8
0
10
8.9897081604
20
6.5872108449
0
VERTEX
8
0
10
8.9578765718
20
6.5816078165
0
VERTEX
8
0
10
8.9295272413
20
6.5724228575
0
VERTEX
8
0
10
8.9053582234
20
6.5598821318
0
VERTEX
8
0
10
8.8859646397
20
6.5442944339
0
VERTEX
8
0
10
8.8718240244
20
6.5260435845
0
VERTEX
8
0
10
8.8642024839
20
6.5087801667
0
SEQEND
0
POLYLINE
8
0
66
1
70
0
0
VERTEX
8
0
10
9.0242382077
20
6.5890939773
0
VERTEX
8
0
10
9.0606164694
20
6.5872108449
0
VERTEX
8
0
10
9.0979471919
20
6.5816078165
0
VERTEX
8
0
10
9.1353111689
20
6.5724228575
0
VERTEX
8
0
10
9.1717883754
20
6.5598821318
0
VERTEX
8
0
10
9.2064806214
20
6.5442944339
0
VERTEX
8
0
10
9.2385336686
20
6.5260435845
0
VERTEX
8
0
10
9.2671582648
20
6.5055789802
0
VERTEX
8
0
10
9.2916495773
20
6.4834045275
0
VERTEX
8
0
10
9.3114045488
20
6.4600662348
0
VERTEX
8
0
10
9.3259367463
20
6.4361387686
0
VERTEX
8
0
10
9.3348883388
20
6.4122113023
0
VERTEX
8
0
10
9.3380389084
20
6.3888730097
0
VERTEX
8
0
10
9.3353108777
20
6.3666985569
0
VERTEX
8
0
10
9.3343929605
20
6.3634973705
0
SEQEND
0
POLYLINE
8
DEFAULT_2
66
1
70
0
0
VERTEX
8
DEFAULT_2
10
9.0326448734
20
6.5719629939
0
VERTEX
8
DEFAULT_2
10
9.0666794902
20
6.5701105285
0
VERTEX
8
DEFAULT_2
10
9.1016038474
20
6.5646036628
0
VERTEX
8
DEFAULT_2
10
9.1364652996
20
6.5555926095
0
VERTEX
8
DEFAULT_2
10
9.1703129171
20
6.5433231670
0
VERTEX
8
DEFAULT_2
10
9.2022234252
20
6.5281300134
0
VERTEX
8
DEFAULT_2
10
9.2313263884
20
6.5104275785
0
VERTEX
8
DEFAULT_2
10
9.2568279538
20
6.4906987385
0
VERTEX
8
DEFAULT_2
10
9.2780325052
20
6.4694816447
0
VERTEX
8
DEFAULT_2
10
9.2943616375
20
6.4473550442
0
VERTEX
8
DEFAULT_2
10
9.3053699348
20
6.4249224929
0
VERTEX
8
DEFAULT_2
10
9.3107571193
20
6.4027958925
0
VERTEX
8
DEFAULT_2
10
9.3103762427
20
6.3815787987
0
VERTEX
8
DEFAULT_2
10
9.3080573841
20
6.3716274854
0
SEQEND
0
POLYLINE
8
DEFAULT_2
66
1
70
0
0
VERTEX
8
DEFAULT_2
10
9.2519196518
20
6.4371473766
0
VERTEX
8
DEFAULT_2
10
9.2485455594
20
6.4420701611
0
VERTEX
8
DEFAULT_2
10
9.2436839885
20
6.4460763034
0
VERTEX
8
DEFAULT_2
10
9.2375979933
20
6.4488957353
0
VERTEX
8
DEFAULT_2
10
9.2306838120
20
6.4503874702
0
VERTEX
8
DEFAULT_2
10
9.2230241589
20
6.4505336627
0
VERTEX
8
DEFAULT_2
10
9.2150732489
20
6.4492918137
0
VERTEX
8
DEFAULT_2
10
9.2071902105
20
6.4467180154
0
VERTEX
8
DEFAULT_2
10
9.1998481343
20
6.4429996022
0
VERTEX
8
DEFAULT_2
10
9.1931348534
20
6.4381810572
0
VERTEX
8
DEFAULT_2
10
9.1874803621
20
6.4325324160
0
VERTEX
8
DEFAULT_2
10
9.1831400637
20
6.4263088174
0
VERTEX
8
DEFAULT_2
10
9.1803136428
20
6.4198031614
0
SEQEND
0
LINE
8
DEFAULT_2
10
9.1782451367
20
6.4086412392
11
9.1776253272
21
6.4098143504
0
LINE
8
DEFAULT_2
10
9.1776292681
20
6.4098008233
11
9.2004473604
21
6.3633024398
0
POLYLINE
8
DEFAULT_2
66
1
70
0
0
VERTEX
8
DEFAULT_2
10
9.2004465669
20
6.3633104553
0
VERTEX
8
DEFAULT_2
10
9.1996220168
20
6.3652268199
0
VERTEX
8
DEFAULT_2
10
9.1982978989
20
6.3726647542
0
VERTEX
8
DEFAULT_2
10
9.1995288825
20
6.3806466410
0
SEQEND
0
POLYLINE
8
DEFAULT_2
66
1
70
0
0
VERTEX
8
DEFAULT_2
10
9.1776253272
20
6.4098143504
0
VERTEX
8
DEFAULT_2
10
9.1760333347
20
6.4143137548
0
VERTEX
8
DEFAULT_2
10
9.1755129081
20
6.4205743856
0
VERTEX
8
DEFAULT_2
10
9.1767107901
20
6.4271450244
0
SEQEND
0
LINE
8
DEFAULT_2
10
8.9296690269
20
6.2962561975
11
8.9463468248
21
6.3502255712
0
LINE
8
0
10
8.9512861670
20
6.2522050974
11
8.9648989866
21
6.2962561975
0
LINE
8
DEFAULT_2
10
8.9648989866
20
6.2962561975
11
8.9679639649
21
6.3061744711
0
LINE
8
DEFAULT_2
10
8.8763030443
20
6.3424191736
11
8.8705875516
21
6.3294218120
0
LINE
8
0
10
8.8682050094
20
6.3217119031
11
8.8739205017
21
6.3347092631
0
POLYLINE
8
DEFAULT_2
66
1
70
0
0
VERTEX
8
DEFAULT_2
10
9.3341994452
20
7.0352550530
0
VERTEX
8
DEFAULT_2
10
9.3359100649
20
7.0369302394
0
VERTEX
8
DEFAULT_2
10
9.3374509021
20
7.0386964342
0
VERTEX
8
DEFAULT_2
10
9.3388521101
20
7.0406036579
0
VERTEX
8
DEFAULT_2
10
9.3400037530
20
7.0425022742
0
VERTEX
8
DEFAULT_2
10
9.3409465384
20
7.0444387127
0
VERTEX
8
DEFAULT_2
10
9.3416933155
20
7.0464647233
0
SEQEND
0
POLYLINE
8
0
62
40
66
1
70
0
0
VERTEX
8
0
62
40
10
9.5117393732
20
7.0305450828
0
VERTEX
8
0
62
40
10
9.5129031694
20
7.0312044511
0
VERTEX
8
0
62
40
10
9.5140379990
20
7.0319056466
0
VERTEX
8
0
62
40
10
9.5152130535
20
7.0326975239
0
VERTEX
8
0
62
40
10
9.5162782616
20
7.0334789490
0
VERTEX
8
0
62
40
10
9.5173722899
20
7.0343516462
0
VERTEX
8
0
62
40
10
9.5184116169
20
7.0352550309
0
SEQEND
0
LINE
8
DEFAULT_2
10
9.2477009312
20
6.4456488097
11
9.2483207406
21
6.4444756985
0
LINE
8
DEFAULT_2
10
9.2483167998
20
6.4444892256
11
9.2711348922
21
6.3979908421
0
LINE
8
DEFAULT_2
10
9.2170935025
20
7.0600739207
11
9.2056572983
21
7.0230663502
0
LINE
8
DEFAULT_2
10
9.0234404438
20
6.4334123930
11
9.0120042396
21
6.3964048225
0
LINE
8
DEFAULT_2
10
9.2551688586
20
7.0600739207
11
9.2437326543
21
7.0230663502
0
LINE
8
DEFAULT_2
10
9.0615157999
20
6.4334123930
11
9.0500795956
21
6.3964048225
0
LINE
8
DEFAULT_2
10
9.2672952194
20
7.0723103374
11
9.2558590151
21
7.0353027669
0
LINE
8
DEFAULT_2
10
9.0736421606
20
6.4456488097
11
9.0622059564
21
6.4086412392
0
POLYLINE
8
DEFAULT_2
66
1
70
0
0
VERTEX
8
DEFAULT_2
10
8.8929808422
20
6.3963885473
0
VERTEX
8
DEFAULT_2
10
8.8997320545
20
6.4059411616
0
VERTEX
8
DEFAULT_2
10
8.9083387126
20
6.4146259316
0
VERTEX
8
DEFAULT_2
10
8.9187047380
20
6.4223459070
0
SEQEND
0
LINE
8
DEFAULT_2
10
9.3838181687
20
6.6789452684
11
9.4030297577
21
6.6789452684
0
LINE
8
0
10
9.4030297577
20
6.6789452684
11
9.4091319785
21
6.6789452684
0
LINE
8
DEFAULT_2
10
9.3885832538
20
6.6943650894
11
9.4138970636
21
6.6943650894
0
POLYLINE
8
DEFAULT_2
66
1
70
0
0
VERTEX
8
DEFAULT_2
10
9.2711356857
20
6.3979828266
0
VERTEX
8
DEFAULT_2
10
9.2719602358
20
6.3960664620
0
VERTEX
8
DEFAULT_2
10
9.2732843537
20
6.3886285277
0
VERTEX
8
DEFAULT_2
10
9.2720533702
20
6.3806466410
0
SEQEND
0
POLYLINE
8
DEFAULT_2
66
1
70
0
0
VERTEX
8
DEFAULT_2
10
9.2483207406
20
6.4444756985
0
VERTEX
8
DEFAULT_2
10
9.2499127332
20
6.4399762940
0
VERTEX
8
DEFAULT_2
10
9.2504331598
20
6.4337156632
0
VERTEX
8
DEFAULT_2
10
9.2492352778
20
6.4271450244
0
SEQEND
0
POLYLINE
8
DEFAULT_2
66
1
70
0
0
VERTEX
8
DEFAULT_2
10
9.2945523937
20
7.0464647021
0
VERTEX
8
DEFAULT_2
10
9.2943505634
20
7.0457651149
0
VERTEX
8
DEFAULT_2
10
9.2941776960
20
7.0450663801
0
VERTEX
8
DEFAULT_2
10
9.2940340020
20
7.0443693489
0
VERTEX
8
DEFAULT_2
10
9.2939196566
20
7.0436748706
0
VERTEX
8
DEFAULT_2
10
9.2938347991
20
7.0429837913
0
VERTEX
8
DEFAULT_2
10
9.2937789448
20
7.0422869486
0
SEQEND
0
LINE
8
DEFAULT_2
10
9.2969583017
20
7.0615164627
11
9.2921932166
21
7.0460966416
0
POLYLINE
8
DEFAULT_2
66
1
70
0
0
VERTEX
8
DEFAULT_2
10
9.1803136451
20
6.4198031691
0
VERTEX
8
DEFAULT_2
10
9.1795567287
20
6.4167937474
0
VERTEX
8
DEFAULT_2
10
9.1791453485
20
6.4137074875
0
VERTEX
8
DEFAULT_2
10
9.1791117806
20
6.4107865304
0
VERTEX
8
DEFAULT_2
10
9.1794539731
20
6.4078523271
0
VERTEX
8
DEFAULT_2
10
9.1801450783
20
6.4051350887
0
VERTEX
8
DEFAULT_2
10
9.1812321231
20
6.4024589680
0
SEQEND
0
LINE
8
DEFAULT_2
10
9.3368467699
20
7.0615164627
11
9.3320816848
21
7.0460966416
0
LINE
8
DEFAULT_2
10
9.2764439499
20
6.8135835963
11
9.2878801542
21
6.8505911668
0
LINE
8
DEFAULT_2
10
9.2913941124
20
6.8434304728
11
9.2799579081
21
6.8064229023
0
POLYLINE
8
DEFAULT_2
66
1
70
0
0
VERTEX
8
DEFAULT_2
10
9.5184116412
20
7.0352550530
0
VERTEX
8
DEFAULT_2
10
9.5201222609
20
7.0369302394
0
VERTEX
8
DEFAULT_2
10
9.5216630982
20
7.0386964342
0
VERTEX
8
DEFAULT_2
10
9.5230643061
20
7.0406036579
0
VERTEX
8
DEFAULT_2
10
9.5242159491
20
7.0425022742
0
VERTEX
8
DEFAULT_2
10
9.5251587344
20
7.0444387127
0
VERTEX
8
DEFAULT_2
10
9.5259055116
20
7.0464647233
0
SEQEND
0
POLYLINE
8
DEFAULT_2
66
1
70
0
0
VERTEX
8
DEFAULT_2
10
8.8928246048
20
6.4354666241
0
VERTEX
8
DEFAULT_2
10
8.8827033588
20
6.4276163291
0
VERTEX
8
DEFAULT_2
10
8.8741049079
20
6.4189398407
0
VERTEX
8
DEFAULT_2
10
8.8671007089
20
6.4095092644
0
SEQEND
0
POLYLINE
8
DEFAULT_2
66
1
70
0
0
VERTEX
8
DEFAULT_2
10
9.3670995596
20
6.8135835963
0
VERTEX
8
DEFAULT_2
10
9.3530889368
20
6.8116489772
0
VERTEX
8
DEFAULT_2
10
9.3385298655
20
6.8104836505
0
VERTEX
8
DEFAULT_2
10
9.3234842846
20
6.8100938273
0
SEQEND
0
LINE
8
DEFAULT_2
10
9.2799579081
20
6.8064229023
11
9.3706135178
21
6.8064229023
0
LINE
8
0
10
9.4145151464
20
6.3964048225
11
9.3370537275
21
6.5542545979
0
LINE
8
0
10
9.4259513506
20
6.4334123930
11
9.3484899317
21
6.5912621684
0
POLYLINE
8
0
66
1
70
0
0
VERTEX
8
0
10
9.3370537275
20
6.5542545979
0
VERTEX
8
0
10
9.3449931026
20
6.5330446224
0
VERTEX
8
0
10
9.3478001183
20
6.5123172392
0
VERTEX
8
0
10
9.3453860538
20
6.4926223606
0
VERTEX
8
0
10
9.3445628451
20
6.4897490996
0
SEQEND
0
POLYLINE
8
DEFAULT_2
66
1
70
0
0
VERTEX
8
DEFAULT_2
10
9.2937789439
20
7.0422869330
0
VERTEX
8
DEFAULT_2
10
9.2937550087
20
7.0410641320
0
VERTEX
8
DEFAULT_2
10
9.2938272423
20
7.0398626445
0
VERTEX
8
DEFAULT_2
10
9.2939953595
20
7.0386872123
0
VERTEX
8
DEFAULT_2
10
9.2942760996
20
7.0374798691
0
VERTEX
8
DEFAULT_2
10
9.2946388123
20
7.0363724291
0
VERTEX
8
DEFAULT_2
10
9.2951181852
20
7.0352550222
0
SEQEND
0
POLYLINE
8
DEFAULT_2
66
1
70
0
0
VERTEX
8
DEFAULT_2
10
9.3132651402
20
6.8072888905
0
VERTEX
8
DEFAULT_2
10
9.3132577308
20
6.8071521205
0
VERTEX
8
DEFAULT_2
10
9.3132515083
20
6.8070155609
0
VERTEX
8
DEFAULT_2
10
9.3132464729
20
6.8068792181
0
VERTEX
8
DEFAULT_2
10
9.3132426249
20
6.8067430989
0
VERTEX
8
DEFAULT_2
10
9.3132399646
20
6.8066072100
0
VERTEX
8
DEFAULT_2
10
9.3132381845
20
6.8063947220
0
SEQEND
0
POLYLINE
8
DEFAULT_2
66
1
70
0
0
VERTEX
8
DEFAULT_2
10
9.3416933090
20
7.0464647021
0
VERTEX
8
DEFAULT_2
10
9.3424476194
20
7.0503582786
0
VERTEX
8
DEFAULT_2
10
9.3422754070
20
7.0541035499
0
VERTEX
8
DEFAULT_2
10
9.3411832312
20
7.0575578600
0
VERTEX
8
DEFAULT_2
10
9.3391699328
20
7.0606391996
0
VERTEX
8
DEFAULT_2
10
9.3363826186
20
7.0631224229
0
VERTEX
8
DEFAULT_2
10
9.3328997956
20
7.0649711587
0
VERTEX
8
DEFAULT_2
10
9.3288541233
20
7.0661149893
0
VERTEX
8
DEFAULT_2
10
9.3243174618
20
7.0665104687
0
VERTEX
8
DEFAULT_2
10
9.3196212938
20
7.0661287002
0
VERTEX
8
DEFAULT_2
10
9.3148680507
20
7.0649979361
0
VERTEX
8
DEFAULT_2
10
9.3102387819
20
7.0631612469
0
VERTEX
8
DEFAULT_2
10
9.3058362719
20
7.0606391996
0
VERTEX
8
DEFAULT_2
10
9.3019822017
20
7.0576160742
0
VERTEX
8
DEFAULT_2
10
9.2987429238
20
7.0541681965
0
VERTEX
8
DEFAULT_2
10
9.2962418214
20
7.0504268950
0
VERTEX
8
DEFAULT_2
10
9.2945523937
20
7.0464647021
0
SEQEND
0
POLYLINE
8
DEFAULT_2
66
1
70
0
0
VERTEX
8
DEFAULT_2
10
9.3140385867
20
6.8114666033
0
VERTEX
8
DEFAULT_2
10
9.3138367564
20
6.8107670162
0
VERTEX
8
DEFAULT_2
10
9.3136638890
20
6.8100682813
0
VERTEX
8
DEFAULT_2
10
9.3135201950
20
6.8093712502
0
VERTEX
8
DEFAULT_2
10
9.3134058496
20
6.8086767718
0
VERTEX
8
DEFAULT_2
10
9.3133209921
20
6.8079856925
0
VERTEX
8
DEFAULT_2
10
9.3132651378
20
6.8072888498
0
SEQEND
0
LINE
8
DEFAULT_2
10
9.1472424900
20
6.2962561975
11
9.1639202879
21
6.3502255712
0
LINE
8
DEFAULT_2
10
9.3134421235
20
6.8326365981
11
9.3086770384
21
6.8172167771
0
LINE
8
DEFAULT_2
10
9.3528025804
20
6.9477177874
11
9.3480374953
21
6.9322979663
0
LINE
8
DEFAULT_2
10
9.3690970514
20
6.9293631623
11
9.3643319663
21
6.9139433413
0
LINE
8
DEFAULT_2
10
9.1688596302
20
6.2522050974
11
9.1855374281
21
6.3061744711
0
POLYLINE
8
DEFAULT_2
66
1
70
0
0
VERTEX
8
DEFAULT_2
10
9.1767107901
20
6.4271450244
0
VERTEX
8
DEFAULT_2
10
9.1795738700
20
6.4337156632
0
VERTEX
8
DEFAULT_2
10
9.1839636591
20
6.4399762940
0
VERTEX
8
DEFAULT_2
10
9.1896813410
20
6.4456488097
0
SEQEND
0
POLYLINE
8
DEFAULT_2
66
1
70
0
0
VERTEX
8
DEFAULT_2
10
9.3588452191
20
6.8063946809
0
VERTEX
8
DEFAULT_2
10
9.3593272893
20
6.8072112459
0
VERTEX
8
DEFAULT_2
10
9.3597712583
20
6.8080352762
0
VERTEX
8
DEFAULT_2
10
9.3601763472
20
6.8088653263
0
VERTEX
8
DEFAULT_2
10
9.3605418455
20
6.8096999398
0
VERTEX
8
DEFAULT_2
10
9.3608923829
20
6.8106075560
0
VERTEX
8
DEFAULT_2
10
9.3611795017
20
6.8114666024
0
SEQEND
0
POLYLINE
8
0
66
1
70
0
0
VERTEX
8
0
10
8.8737642643
20
6.3737873399
0
VERTEX
8
0
10
8.8636430184
20
6.3659370449
0
VERTEX
8
0
10
8.8550445675
20
6.3572605565
0
VERTEX
8
0
10
8.8480403685
20
6.3478299802
0
SEQEND
0
POLYLINE
8
DEFAULT_2
66
1
70
0
0
VERTEX
8
DEFAULT_2
10
9.3785357638
20
6.8505911668
0
VERTEX
8
DEFAULT_2
10
9.3645251410
20
6.8486565478
0
VERTEX
8
DEFAULT_2
10
9.3499660698
20
6.8474912210
0
VERTEX
8
DEFAULT_2
10
9.3349204888
20
6.8471013979
0
SEQEND
0
LINE
8
DEFAULT_2
10
9.3086770384
20
6.8172167771
11
9.3485655066
21
6.8172167771
0
LINE
8
DEFAULT_2
10
9.3134421235
20
6.8326365981
11
9.3533305917
21
6.8326365981
0
LINE
8
DEFAULT_2
10
9.2913941124
20
6.8434304728
11
9.3820497220
21
6.8434304728
0
POLYLINE
8
DEFAULT_2
66
1
70
0
0
VERTEX
8
DEFAULT_2
10
9.3234842846
20
6.8100938273
0
VERTEX
8
DEFAULT_2
10
9.3080561089
20
6.8104836505
0
VERTEX
8
DEFAULT_2
10
9.2923533189
20
6.8116489772
0
VERTEX
8
DEFAULT_2
10
9.2764439499
20
6.8135835963
0
SEQEND
0
POLYLINE
8
DEFAULT_2
66
1
70
0
0
VERTEX
8
DEFAULT_2
10
9.3349204888
20
6.8471013979
0
VERTEX
8
DEFAULT_2
10
9.3194923131
20
6.8474912210
0
VERTEX
8
DEFAULT_2
10
9.3037895232
20
6.8486565478
0
VERTEX
8
DEFAULT_2
10
9.2878801542
20
6.8505911668
0
SEQEND
0
LINE
8
DEFAULT_2
10
9.3675236977
20
6.6972998934
11
9.3838181687
21
6.6789452684
0
LINE
8
DEFAULT_2
10
9.3722887828
20
6.7127197145
11
9.3885832538
21
6.6943650894
0
LINE
8
DEFAULT_2
10
9.2764439499
20
6.8135835963
11
9.2799579081
21
6.8064229023
0
POLYLINE
8
DEFAULT_2
66
1
70
0
0
VERTEX
8
DEFAULT_2
10
9.3484899317
20
6.5912621684
0
VERTEX
8
DEFAULT_2
10
9.3564293069
20
6.5700521929
0
VERTEX
8
DEFAULT_2
10
9.3592363226
20
6.5493248098
0
VERTEX
8
DEFAULT_2
10
9.3568222581
20
6.5296299311
0
VERTEX
8
DEFAULT_2
10
9.3559990493
20
6.5267566701
0
SEQEND
0
POLYLINE
8
DEFAULT_2
66
1
70
0
0
VERTEX
8
DEFAULT_2
10
9.3132381844
20
6.8063946809
0
VERTEX
8
DEFAULT_2
10
9.3137131977
20
6.8026614737
0
VERTEX
8
DEFAULT_2
10
9.3151640936
20
6.7992202247
0
VERTEX
8
DEFAULT_2
10
9.3175318545
20
6.7962792342
0
VERTEX
8
DEFAULT_2
10
9.3207197585
20
6.7939586402
0
VERTEX
8
DEFAULT_2
10
9.3245975815
20
6.7923532377
0
VERTEX
8
DEFAULT_2
10
9.3290069162
20
6.7915286066
0
VERTEX
8
DEFAULT_2
10
9.3337676436
20
6.7915184328
0
VERTEX
8
DEFAULT_2
10
9.3386852903
20
6.7923231317
0
VERTEX
8
DEFAULT_2
10
9.3435589728
20
6.7939098320
0
VERTEX
8
DEFAULT_2
10
9.3481896038
20
6.7962137175
0
VERTEX
8
DEFAULT_2
10
9.3523880242
20
6.7991406759
0
VERTEX
8
DEFAULT_2
10
9.3559827306
20
6.8025711422
0
VERTEX
8
DEFAULT_2
10
9.3588452202
20
6.8063946826
0
SEQEND
0
POLYLINE
8
DEFAULT_2
66
1
70
0
0
VERTEX
8
DEFAULT_2
10
9.3611795020
20
6.8114666033
0
VERTEX
8
DEFAULT_2
10
9.3618747424
20
6.8147405975
0
VERTEX
8
DEFAULT_2
10
9.3619183111
20
6.8179266663
0
VERTEX
8
DEFAULT_2
10
9.3612890704
20
6.8210008552
0
VERTEX
8
DEFAULT_2
10
9.3600300800
20
6.8237527951
0
VERTEX
8
DEFAULT_2
10
9.3581231554
20
6.8262222338
0
VERTEX
8
DEFAULT_2
10
9.3556435985
20
6.8282771154
0
SEQEND
0
POLYLINE
8
DEFAULT_2
66
1
70
0
0
VERTEX
8
DEFAULT_2
10
9.2528381329
20
6.4198031691
0
VERTEX
8
DEFAULT_2
10
9.2535950493
20
6.4228125908
0
VERTEX
8
DEFAULT_2
10
9.2540064295
20
6.4258988507
0
VERTEX
8
DEFAULT_2
10
9.2540399974
20
6.4288198078
0
VERTEX
8
DEFAULT_2
10
9.2536978049
20
6.4317540111
0
VERTEX
8
DEFAULT_2
10
9.2530066997
20
6.4344712495
0
VERTEX
8
DEFAULT_2
10
9.2519196549
20
6.4371473702
0
SEQEND
0
POLYLINE
8
DEFAULT_2
66
1
70
0
0
VERTEX
8
DEFAULT_2
10
9.2279412903
20
6.2190401395
0
VERTEX
8
DEFAULT_2
10
9.2291682396
20
6.2236370260
0
VERTEX
8
DEFAULT_2
10
9.2305181856
20
6.2428024045
0
VERTEX
8
DEFAULT_2
10
9.2262343587
20
6.2629454634
0
VERTEX
8
DEFAULT_2
10
9.2164494677
20
6.2834397427
0
VERTEX
8
DEFAULT_2
10
9.2014676990
20
6.3036477661
0
VERTEX
8
DEFAULT_2
10
9.1817552171
20
6.3229409789
0
VERTEX
8
DEFAULT_2
10
9.1579255722
20
6.3407194046
0
VERTEX
8
DEFAULT_2
10
9.1307204797
20
6.3564303991
0
VERTEX
8
DEFAULT_2
10
9.1009840948
20
6.3695868596
0
VERTEX
8
DEFAULT_2
10
9.0696383931
20
6.3797805348
0
VERTEX
8
DEFAULT_2
10
9.0376580717
20
6.3866938919
0
VERTEX
8
DEFAULT_2
10
9.0060378206
20
6.3901115696
0
VERTEX
8
DEFAULT_2
10
8.9757612734
20
6.3899271424
0
VERTEX
8
DEFAULT_2
10
8.9477701301
20
6.3861464730
0
VERTEX
8
DEFAULT_2
10
8.9229347361
20
6.3788874995
0
VERTEX
8
DEFAULT_2
10
8.9020269401
20
6.3683765333
0
SEQEND
0
LINE
8
DEFAULT_2
10
9.3533305917
20
6.8326365981
11
9.3485655066
21
6.8172167771
0
LINE
8
DEFAULT_2
10
9.3926910487
20
6.9477177874
11
9.3879259636
21
6.9322979663
0
LINE
8
DEFAULT_2
10
9.3944108612
20
6.9293631623
11
9.3896457761
21
6.9139433413
0
LINE
8
DEFAULT_2
10
9.3670995596
20
6.8135835963
11
9.3785357638
21
6.8505911668
0
LINE
8
DEFAULT_2
10
9.3820497220
20
6.8434304728
11
9.3706135178
21
6.8064229023
0
LINE
8
0
10
9.1941191744
20
6.1723748512
11
9.1965017170
21
6.1800847617
0
LINE
8
DEFAULT_2
10
9.1965017170
20
6.1800847617
11
9.2131795149
21
6.2340541354
0
POLYLINE
8
DEFAULT_2
66
1
70
0
0
VERTEX
8
DEFAULT_2
10
9.5496521080
20
7.1534181979
0
VERTEX
8
DEFAULT_2
10
9.5428993284
20
7.1381140890
0
VERTEX
8
DEFAULT_2
10
9.5303475671
20
7.1219019084
0
VERTEX
8
DEFAULT_2
10
9.5131286690
20
7.1080543522
0
VERTEX
8
DEFAULT_2
10
9.4916661709
20
7.0969127130
0
VERTEX
8
DEFAULT_2
10
9.4664881356
20
7.0887517571
0
VERTEX
8
DEFAULT_2
10
9.4382151164
20
7.0837730518
0
VERTEX
8
DEFAULT_2
10
9.4075403859
20
7.0820994707
0
SEQEND
0
POLYLINE
8
DEFAULT_2
66
1
70
0
0
VERTEX
8
DEFAULT_2
10
9.5382159038
20
7.1164106273
0
VERTEX
8
DEFAULT_2
10
9.5314631242
20
7.1011065184
0
VERTEX
8
DEFAULT_2
10
9.5189113628
20
7.0848943379
0
VERTEX
8
DEFAULT_2
10
9.5016924647
20
7.0710467816
0
VERTEX
8
DEFAULT_2
10
9.4802299667
20
7.0599051425
0
VERTEX
8
DEFAULT_2
10
9.4550519313
20
7.0517441866
0
VERTEX
8
DEFAULT_2
10
9.4267789122
20
7.0467654813
0
VERTEX
8
DEFAULT_2
10
9.3961041816
20
7.0450919002
0
SEQEND
0
POLYLINE
8
DEFAULT_2
66
1
70
0
0
VERTEX
8
DEFAULT_2
10
9.1995288825
20
6.3806466410
0
VERTEX
8
DEFAULT_2
10
9.2032310780
20
6.3886285277
0
VERTEX
8
DEFAULT_2
10
9.2091521871
20
6.3960664620
0
VERTEX
8
DEFAULT_2
10
9.2168886958
20
6.4024535610
0
VERTEX
8
DEFAULT_2
10
9.2259133739
20
6.4073545545
0
VERTEX
8
DEFAULT_2
10
9.2356112045
20
6.4104354478
0
VERTEX
8
DEFAULT_2
10
9.2453212965
20
6.4114862831
0
VERTEX
8
DEFAULT_2
10
9.2543819232
20
6.4104354478
0
VERTEX
8
DEFAULT_2
10
9.2621756178
20
6.4073545545
0
VERTEX
8
DEFAULT_2
10
9.2681712528
20
6.4024535610
0
VERTEX
8
DEFAULT_2
10
9.2711356857
20
6.3979828266
0
SEQEND
0
LINE
8
DEFAULT_2
10
9.0615157999
20
6.4334123930
11
9.0736421606
21
6.4456488097
0
LINE
8
DEFAULT_2
10
9.0500795956
20
6.3964048225
11
9.0622059564
21
6.4086412392
0
LINE
8
DEFAULT_2
10
8.9020269401
20
6.3683765333
11
8.8949024847
21
6.3630706790
0
POLYLINE
8
0
66
1
70
0
0
VERTEX
8
0
10
8.8949024847
20
6.3630706790
0
VERTEX
8
0
10
8.8916609147
20
6.3606565579
0
VERTEX
8
0
10
8.8830542566
20
6.3519717879
0
VERTEX
8
0
10
8.8763030443
20
6.3424191736
0
SEQEND
0
POLYLINE
8
DEFAULT_2
66
1
70
0
0
VERTEX
8
DEFAULT_2
10
9.3556435825
20
6.8282771260
0
VERTEX
8
DEFAULT_2
10
9.3517722690
20
6.8302050714
0
VERTEX
8
DEFAULT_2
10
9.3471830554
20
6.8312969844
0
VERTEX
8
DEFAULT_2
10
9.3422307167
20
6.8314684533
0
VERTEX
8
DEFAULT_2
10
9.3369845793
20
6.8307170777
0
VERTEX
8
DEFAULT_2
10
9.3318502025
20
6.8291009438
0
VERTEX
8
DEFAULT_2
10
9.3268994610
20
6.8266426751
0
VERTEX
8
DEFAULT_2
10
9.3225150781
20
6.8235323115
0
VERTEX
8
DEFAULT_2
10
9.3187584295
20
6.8198133939
0
VERTEX
8
DEFAULT_2
10
9.3159199279
20
6.8157734180
0
VERTEX
8
DEFAULT_2
10
9.3140385806
20
6.8114665837
0
SEQEND
0
LINE
8
DEFAULT_2
10
9.2878801542
20
6.8505911668
11
9.2913941124
21
6.8434304728
0
LINE
8
DEFAULT_2
10
9.1281958794
20
7.1809161256
11
9.2056572983
21
7.0230663502
0
LINE
8
DEFAULT_2
10
9.3086770384
20
6.8172167771
11
9.3675236977
21
6.6972998934
0
LINE
8
DEFAULT_2
10
9.3134421235
20
6.8326365981
11
9.3722887828
21
6.7127197145
0
LINE
8
DEFAULT_2
10
9.1396320836
20
7.2179236961
11
9.2170935025
21
7.0600739207
0
LINE
8
DEFAULT_2
10
9.4074121659
20
6.6972998934
11
9.3485655066
21
6.8172167771
0
LINE
8
DEFAULT_2
10
9.4077122098
20
6.6940976887
11
9.4074121659
21
6.6972998934
0
LINE
8
0
10
9.4091319785
20
6.6789452684
11
9.4077122098
21
6.6940976887
0
LINE
8
DEFAULT_2
10
9.3896457761
20
6.9139433413
11
9.3879259636
21
6.9322979663
0
LINE
8
0
10
9.4138970636
20
6.6943650894
11
9.4124772949
21
6.7095175098
0
LINE
8
DEFAULT_2
10
9.4124772949
20
6.7095175098
11
9.4121772511
21
6.7127197145
0
LINE
8
DEFAULT_2
10
9.3944108612
20
6.9293631623
11
9.3926910487
21
6.9477177874
0
POLYLINE
8
DEFAULT_2
66
1
70
0
0
VERTEX
8
DEFAULT_2
10
9.4787645897
20
7.0464647021
0
VERTEX
8
DEFAULT_2
10
9.4785627594
20
7.0457651149
0
VERTEX
8
DEFAULT_2
10
9.4783898920
20
7.0450663801
0
VERTEX
8
DEFAULT_2
10
9.4782461981
20
7.0443693489
0
VERTEX
8
DEFAULT_2
10
9.4781318527
20
7.0436748706
0
VERTEX
8
DEFAULT_2
10
9.4780469951
20
7.0429837913
0
VERTEX
8
DEFAULT_2
10
9.4779911408
20
7.0422869486
0
SEQEND
0
LINE
8
DEFAULT_2
10
9.3722887828
20
6.7127197145
11
9.3675236977
21
6.6972998934
0
LINE
8
DEFAULT_2
10
9.4811705005
20
7.0615164627
11
9.4764054154
21
7.0460966416
0
LINE
8
0
10
9.2198430702
20
6.1983322109
11
9.2222256128
21
6.2060421214
0
LINE
8
DEFAULT_2
10
9.2222256128
20
6.2060421214
11
9.2389034107
21
6.2600114951
0
LINE
8
DEFAULT_2
10
9.2255530069
20
6.2113071537
11
9.2279355494
21
6.2190170642
0
LINE
8
0
10
9.2199993077
20
6.1592541341
11
9.2304185063
21
6.1929706733
0
LINE
8
DEFAULT_2
10
9.2304185063
20
6.1929706733
11
9.2390596481
21
6.2209334183
0
LINE
8
DEFAULT_2
10
9.3885832538
20
6.6943650894
11
9.3838181687
21
6.6789452684
0
LINE
8
DEFAULT_2
10
9.2457232035
20
6.1852114938
11
9.2647835439
21
6.2468907780
0
LINE
8
DEFAULT_2
10
9.4121772511
20
6.7127197145
11
9.4074121659
21
6.6972998934
0
LINE
8
DEFAULT_2
10
9.5210589687
20
7.0615164627
11
9.5162938836
21
7.0460966416
0
LINE
8
DEFAULT_2
10
9.3080609381
20
6.3716260555
11
9.3270649563
21
6.4331230809
0
LINE
8
0
10
9.3270649563
20
6.4331230809
11
9.3445614900
21
6.4897418848
0
LINE
8
DEFAULT_2
10
9.3559976943
20
6.5267494553
11
9.3653294140
21
6.5569469114
0
LINE
8
0
10
9.3653294140
20
6.5569469114
11
9.5382145488
21
7.1164034125
0
LINE
8
DEFAULT_2
10
9.5496507530
20
7.1534109830
11
9.5589824727
21
7.1836084391
0
LINE
8
0
10
9.5589824727
20
7.1836084391
11
9.5606104488
21
7.1888765715
0
LINE
8
0
10
9.4138970636
20
6.6943650894
11
9.4091319785
21
6.6789452684
0
POLYLINE
8
DEFAULT_2
66
1
70
0
0
VERTEX
8
DEFAULT_2
10
9.5606068947
20
7.1888780013
0
VERTEX
8
DEFAULT_2
10
9.5567872049
20
7.1791004746
0
VERTEX
8
DEFAULT_2
10
9.5450584282
20
7.1613980397
0
VERTEX
8
DEFAULT_2
10
9.5280593539
20
7.1462048861
0
VERTEX
8
DEFAULT_2
10
9.5062536722
20
7.1339354436
0
VERTEX
8
DEFAULT_2
10
9.4802361853
20
7.1249243903
0
VERTEX
8
DEFAULT_2
10
9.4507165825
20
7.1194175246
0
VERTEX
8
DEFAULT_2
10
9.4185000816
20
7.1175650592
0
SEQEND
0
POLYLINE
8
DEFAULT_2
66
1
70
0
0
VERTEX
8
DEFAULT_2
10
9.2492352778
20
6.4271450244
0
VERTEX
8
DEFAULT_2
10
9.2463721979
20
6.4205743856
0
VERTEX
8
DEFAULT_2
10
9.2419824088
20
6.4143137548
0
VERTEX
8
DEFAULT_2
10
9.2362647269
20
6.4086412392
0
SEQEND
0
POLYLINE
8
0
66
1
70
0
0
VERTEX
8
0
10
8.8996443976
20
6.3606666227
0
VERTEX
8
0
10
8.9205524579
20
6.3711776917
0
VERTEX
8
0
10
8.9453881983
20
6.3784366901
0
VERTEX
8
0
10
8.9733797416
20
6.3822173007
0
VERTEX
8
0
10
9.0036567102
20
6.3824015843
0
VERTEX
8
0
10
9.0352773692
20
6.3789836825
0
VERTEX
8
0
10
9.0672580494
20
6.3720700303
0
VERTEX
8
0
10
9.0986040268
20
6.3618760031
0
VERTEX
8
0
10
9.1283405736
20
6.3487191520
0
VERTEX
8
0
10
9.1555456887
20
6.3330077491
0
VERTEX
8
0
10
9.1793751957
20
6.3152289218
0
VERTEX
8
0
10
9.1990873664
20
6.2959353394
0
VERTEX
8
0
10
9.2140686462
20
6.2757270036
0
VERTEX
8
0
10
9.2238528753
20
6.2552324933
0
VERTEX
8
0
10
9.2281358809
20
6.2350893066
0
VERTEX
8
0
10
9.2267849766
20
6.2159239219
0
VERTEX
8
0
10
9.2255585626
20
6.2113295709
0
SEQEND
0
LINE
8
DEFAULT_2
10
9.3643319663
20
6.9139433413
11
9.3896457761
21
6.9139433413
0
LINE
8
0
10
9.5485441651
20
6.9139433413
11
9.5738579749
21
6.9139433413
0
LINE
8
DEFAULT_2
10
9.3690970514
20
6.9293631623
11
9.3944108612
21
6.9293631623
0
LINE
8
DEFAULT_2
10
9.5533092502
20
6.9293631623
11
9.5786230600
21
6.9293631623
0
LINE
8
DEFAULT_2
10
9.4121772511
20
6.7127197145
11
9.3533305917
21
6.8326365981
0
LINE
8
DEFAULT_2
10
9.3706135178
20
6.8064229023
11
9.3670995596
21
6.8135835963
0
LINE
8
DEFAULT_2
10
9.3820497220
20
6.8434304728
11
9.3785357638
21
6.8505911668
0
LINE
8
DEFAULT_2
10
9.2921932166
20
7.0460966416
11
9.3480374953
21
6.9322979663
0
POLYLINE
8
DEFAULT_2
66
1
70
0
0
VERTEX
8
DEFAULT_2
10
9.4779911399
20
7.0422869323
0
VERTEX
8
DEFAULT_2
10
9.4779672047
20
7.0410641312
0
VERTEX
8
DEFAULT_2
10
9.4780394384
20
7.0398626438
0
VERTEX
8
DEFAULT_2
10
9.4782075557
20
7.0386872116
0
VERTEX
8
DEFAULT_2
10
9.4784882959
20
7.0374798685
0
VERTEX
8
DEFAULT_2
10
9.4788510086
20
7.0363724284
0
VERTEX
8
DEFAULT_2
10
9.4793303816
20
7.0352550216
0
SEQEND
0
POLYLINE
8
DEFAULT_2
66
1
70
0
0
VERTEX
8
DEFAULT_2
10
9.5259055050
20
7.0464647021
0
VERTEX
8
DEFAULT_2
10
9.5265668010
20
7.0494622527
0
VERTEX
8
DEFAULT_2
10
9.5266793698
20
7.0524592040
0
VERTEX
8
DEFAULT_2
10
9.5262187945
20
7.0553150254
0
VERTEX
8
DEFAULT_2
10
9.5251959185
20
7.0579624815
0
VERTEX
8
DEFAULT_2
10
9.5236348236
20
7.0603392426
0
VERTEX
8
DEFAULT_2
10
9.5215784461
20
7.0623843180
0
SEQEND
0
LINE
8
0
10
9.2819754977
20
6.1938712853
11
9.3343914338
21
6.3634893169
0
LINE
8
DEFAULT_2
10
9.5573931702
20
7.0723103374
11
9.5459569660
21
7.0353027669
0
LINE
8
DEFAULT_2
10
9.3637401115
20
6.4456488097
11
9.3523039072
21
6.4086412392
0
LINE
8
DEFAULT_2
10
9.5370147792
20
6.9477177874
11
9.5322496941
21
6.9322979663
0
POLYLINE
8
DEFAULT_2
66
1
70
0
0
VERTEX
8
DEFAULT_2
10
9.3080573841
20
6.3716274854
0
VERTEX
8
DEFAULT_2
10
9.3042376942
20
6.3618499587
0
VERTEX
8
DEFAULT_2
10
9.2925089176
20
6.3441475238
0
VERTEX
8
DEFAULT_2
10
9.2755098432
20
6.3289543702
0
VERTEX
8
DEFAULT_2
10
9.2537041615
20
6.3166849276
0
VERTEX
8
DEFAULT_2
10
9.2276866747
20
6.3076738744
0
VERTEX
8
DEFAULT_2
10
9.1981670719
20
6.3021670086
0
VERTEX
8
DEFAULT_2
10
9.1659505710
20
6.3003145432
0
SEQEND
0
LINE
8
0
10
9.2222269162
20
6.2060439657
11
9.2247142188
21
6.2117008260
0
LINE
8
DEFAULT_2
10
9.2247142188
20
6.2117008260
11
9.2279412903
21
6.2190401395
0
LINE
8
0
10
9.2255585626
20
6.2113295709
11
9.2198430702
21
6.1983322109
0
POLYLINE
8
DEFAULT_2
66
1
70
0
0
VERTEX
8
DEFAULT_2
10
9.3559990493
20
6.5267566701
0
VERTEX
8
DEFAULT_2
10
9.3492462637
20
6.5114525509
0
VERTEX
8
DEFAULT_2
10
9.3366945055
20
6.4952403779
0
VERTEX
8
DEFAULT_2
10
9.3194756131
20
6.4813928263
0
VERTEX
8
DEFAULT_2
10
9.2980131207
20
6.4702511888
0
VERTEX
8
DEFAULT_2
10
9.2728350886
20
6.4620902323
0
VERTEX
8
DEFAULT_2
10
9.2445620709
20
6.4571115256
0
VERTEX
8
DEFAULT_2
10
9.2138873271
20
6.4554379430
0
SEQEND
0
POLYLINE
8
DEFAULT_2
66
1
70
0
0
VERTEX
8
DEFAULT_2
10
9.3445628451
20
6.4897490996
0
VERTEX
8
DEFAULT_2
10
9.3378100594
20
6.4744449804
0
VERTEX
8
DEFAULT_2
10
9.3252583013
20
6.4582328073
0
VERTEX
8
DEFAULT_2
10
9.3080394088
20
6.4443852557
0
VERTEX
8
DEFAULT_2
10
9.2865769165
20
6.4332436183
0
VERTEX
8
DEFAULT_2
10
9.2613988843
20
6.4250826618
0
VERTEX
8
DEFAULT_2
10
9.2331258666
20
6.4201039551
0
VERTEX
8
DEFAULT_2
10
9.2024511229
20
6.4184303725
0
SEQEND
0
POLYLINE
8
DEFAULT_2
66
1
70
0
0
VERTEX
8
DEFAULT_2
10
9.2720533702
20
6.3806466410
0
VERTEX
8
DEFAULT_2
10
9.2683511746
20
6.3726647542
0
VERTEX
8
DEFAULT_2
10
9.2624300656
20
6.3652268199
0
VERTEX
8
DEFAULT_2
10
9.2546935569
20
6.3588397209
0
VERTEX
8
DEFAULT_2
10
9.2456688787
20
6.3539387275
0
VERTEX
8
DEFAULT_2
10
9.2359710481
20
6.3508578342
0
VERTEX
8
DEFAULT_2
10
9.2262609561
20
6.3498069989
0
VERTEX
8
DEFAULT_2
10
9.2172003295
20
6.3508578342
0
VERTEX
8
DEFAULT_2
10
9.2094066349
20
6.3539387275
0
VERTEX
8
DEFAULT_2
10
9.2034109998
20
6.3588397209
0
VERTEX
8
DEFAULT_2
10
9.2004465669
20
6.3633104553
0
SEQEND
0
POLYLINE
8
DEFAULT_2
66
1
70
0
0
VERTEX
8
DEFAULT_2
10
9.2468481411
20
6.4085341626
0
VERTEX
8
DEFAULT_2
10
9.2481068087
20
6.4102565072
0
VERTEX
8
DEFAULT_2
10
9.2493184413
20
6.4121166658
0
VERTEX
8
DEFAULT_2
10
9.2504008541
20
6.4140071594
0
VERTEX
8
DEFAULT_2
10
9.2513497751
20
6.4159205273
0
VERTEX
8
DEFAULT_2
10
9.2521614596
20
6.4178492181
0
VERTEX
8
DEFAULT_2
10
9.2528381332
20
6.4198031703
0
SEQEND
0
POLYLINE
8
DEFAULT_2
66
1
70
0
0
VERTEX
8
DEFAULT_2
10
9.1896813410
20
6.4456488097
0
VERTEX
8
DEFAULT_2
10
9.1970492864
20
6.4508189456
0
VERTEX
8
DEFAULT_2
10
9.2052707129
20
6.4547253065
0
VERTEX
8
DEFAULT_2
10
9.2139087195
20
6.4571581267
0
VERTEX
8
DEFAULT_2
10
9.2225032042
20
6.4579846665
0
VERTEX
8
DEFAULT_2
10
9.2305868486
20
6.4571581267
0
VERTEX
8
DEFAULT_2
10
9.2377212585
20
6.4547253065
0
VERTEX
8
DEFAULT_2
10
9.2435283714
20
6.4508189456
0
VERTEX
8
DEFAULT_2
10
9.2477009312
20
6.4456488097
0
SEQEND
0
LINE
8
DEFAULT_2
10
9.3480374953
20
6.9322979663
11
9.3643319663
21
6.9139433413
0
LINE
8
DEFAULT_2
10
9.3528025804
20
6.9477177874
11
9.3690970514
21
6.9293631623
0
POLYLINE
8
DEFAULT_2
66
1
70
0
0
VERTEX
8
DEFAULT_2
10
9.2951181704
20
7.0352550530
0
VERTEX
8
DEFAULT_2
10
9.2973823935
20
7.0319479567
0
VERTEX
8
DEFAULT_2
10
9.3006142720
20
7.0293181456
0
VERTEX
8
DEFAULT_2
10
9.3046630210
20
7.0274883147
0
VERTEX
8
DEFAULT_2
10
9.3093397443
20
7.0265438356
0
VERTEX
8
DEFAULT_2
10
9.3145103558
20
7.0265362098
0
VERTEX
8
DEFAULT_2
10
9.3197701029
20
7.0274660342
0
VERTEX
8
DEFAULT_2
10
9.3249529967
20
7.0292822499
0
VERTEX
8
DEFAULT_2
10
9.3298172270
20
7.0319001205
0
VERTEX
8
DEFAULT_2
10
9.3341994065
20
7.0352550179
0
SEQEND
0
LINE
8
DEFAULT_2
10
9.2969583017
20
7.0615164627
11
9.3528025804
21
6.9477177874
0
LINE
8
DEFAULT_2
10
9.3879259636
20
6.9322979663
11
9.3320816848
21
7.0460966416
0
LINE
8
DEFAULT_2
10
9.3926910487
20
6.9477177874
11
9.3368467699
21
7.0615164627
0
LINE
8
DEFAULT_2
10
9.5815290533
20
7.0600739207
11
9.5700928491
21
7.0230663502
0
LINE
8
DEFAULT_2
10
9.3878759946
20
6.4334123930
11
9.3764397903
21
6.3964048225
0
LINE
8
DEFAULT_2
10
9.5533092502
20
6.9293631623
11
9.5485441651
21
6.9139433413
0
LINE
8
0
10
9.5769032475
20
6.9477177874
11
9.5721381624
21
6.9322979663
0
LINE
8
0
10
9.5786230600
20
6.9293631623
11
9.5738579749
21
6.9139433413
0
LINE
8
0
10
9.6196044094
20
7.0600739207
11
9.6081682051
21
7.0230663502
0
LINE
8
0
10
9.4259513506
20
6.4334123930
11
9.4145151464
21
6.3964048225
0
POLYLINE
8
DEFAULT_2
66
1
70
0
0
VERTEX
8
DEFAULT_2
10
9.3343929605
20
6.3634973705
0
VERTEX
8
DEFAULT_2
10
9.3267714199
20
6.3462339526
0
VERTEX
8
DEFAULT_2
10
9.3126308046
20
6.3279831033
0
VERTEX
8
DEFAULT_2
10
9.2932372209
20
6.3123954053
0
VERTEX
8
DEFAULT_2
10
9.2690682030
20
6.2998546797
0
VERTEX
8
DEFAULT_2
10
9.2407188725
20
6.2906697206
0
VERTEX
8
DEFAULT_2
10
9.2088872839
20
6.2850666923
0
VERTEX
8
DEFAULT_2
10
9.1743572366
20
6.2831835598
0
SEQEND
0
POLYLINE
8
0
66
1
70
0
0
VERTEX
8
0
10
9.2819770243
20
6.1938793388
0
VERTEX
8
0
10
9.2743554837
20
6.1766159210
0
VERTEX
8
0
10
9.2602148685
20
6.1583650717
0
VERTEX
8
0
10
9.2408212847
20
6.1427773737
0
VERTEX
8
0
10
9.2166522669
20
6.1302366481
0
VERTEX
8
0
10
9.1883029363
20
6.1210516890
0
VERTEX
8
0
10
9.1564713477
20
6.1154486607
0
VERTEX
8
0
10
9.1219413004
20
6.1135655282
0
SEQEND
0
POLYLINE
8
DEFAULT_2
66
1
70
0
0
VERTEX
8
DEFAULT_2
10
9.2389034107
20
6.2600114951
0
VERTEX
8
DEFAULT_2
10
9.2321521983
20
6.2504588808
0
VERTEX
8
DEFAULT_2
10
9.2235455403
20
6.2417741108
0
VERTEX
8
DEFAULT_2
10
9.2131795149
20
6.2340541354
0
SEQEND
0
POLYLINE
8
DEFAULT_2
66
1
70
0
0
VERTEX
8
DEFAULT_2
10
9.2362647269
20
6.4086412392
0
VERTEX
8
DEFAULT_2
10
9.2288967815
20
6.4034711032
0
VERTEX
8
DEFAULT_2
10
9.2206753550
20
6.3995647424
0
VERTEX
8
DEFAULT_2
10
9.2120373484
20
6.3971319222
0
VERTEX
8
DEFAULT_2
10
9.2034428637
20
6.3963053823
0
VERTEX
8
DEFAULT_2
10
9.1953592193
20
6.3971319222
0
VERTEX
8
DEFAULT_2
10
9.1882248093
20
6.3995647424
0
VERTEX
8
DEFAULT_2
10
9.1824176964
20
6.4034711032
0
VERTEX
8
DEFAULT_2
10
9.1782451367
20
6.4086412392
0
SEQEND
0
LINE
8
DEFAULT_2
10
9.2056572983
20
7.0230663502
11
9.2437326543
21
7.0230663502
0
LINE
8
0
10
9.5700928491
20
7.0230663502
11
9.6081682051
21
7.0230663502
0
LINE
8
DEFAULT_2
10
9.2558590151
20
7.0353027669
11
9.5131525537
21
7.0353027669
0
LINE
8
0
10
9.5131525537
20
7.0353027669
11
9.5459569660
21
7.0353027669
0
LINE
8
DEFAULT_2
10
9.2921932166
20
7.0460966416
11
9.3320816848
21
7.0460966416
0
LINE
8
DEFAULT_2
10
9.4764054154
20
7.0460966416
11
9.5162938836
21
7.0460966416
0
LINE
8
DEFAULT_2
10
9.2170935025
20
7.0600739207
11
9.2551688586
21
7.0600739207
0
LINE
8
DEFAULT_2
10
9.5815290533
20
7.0600739207
11
9.6196044094
21
7.0600739207
0
POLYLINE
8
DEFAULT_2
66
1
70
0
0
VERTEX
8
DEFAULT_2
10
9.3961041816
20
7.0450919002
0
VERTEX
8
DEFAULT_2
10
9.3637869024
20
7.0467654813
0
VERTEX
8
DEFAULT_2
10
9.3306274959
20
7.0517441866
0
VERTEX
8
DEFAULT_2
10
9.2974398296
20
7.0599051425
0
VERTEX
8
DEFAULT_2
10
9.2650422868
20
7.0710467816
0
VERTEX
8
DEFAULT_2
10
9.2342326015
20
7.0848943379
0
VERTEX
8
DEFAULT_2
10
9.2057692748
20
7.1011065184
0
VERTEX
8
DEFAULT_2
10
9.1803529466
20
7.1192839082
0
VERTEX
8
DEFAULT_2
10
9.1586091919
20
7.1389787974
0
VERTEX
8
DEFAULT_2
10
9.1410731632
20
7.1597061907
0
VERTEX
8
DEFAULT_2
10
9.1281958794
20
7.1809161256
0
SEQEND
0
LINE
8
0
10
9.2154744004
20
6.1964895071
11
9.2222269162
21
6.2060439657
0
LINE
8
DEFAULT_2
10
9.2969583017
20
7.0615164627
11
9.3368467699
21
7.0615164627
0
LINE
8
DEFAULT_2
10
9.4811705005
20
7.0615164627
11
9.5210589687
21
7.0615164627
0
LINE
8
DEFAULT_2
10
9.2672952194
20
7.0723103374
11
9.5573931702
21
7.0723103374
0
POLYLINE
8
DEFAULT_2
66
1
70
0
0
VERTEX
8
DEFAULT_2
10
9.4075403859
20
7.0820994707
0
VERTEX
8
DEFAULT_2
10
9.3752231067
20
7.0837730518
0
VERTEX
8
DEFAULT_2
10
9.3420637002
20
7.0887517571
0
VERTEX
8
DEFAULT_2
10
9.3088760338
20
7.0969127130
0
VERTEX
8
DEFAULT_2
10
9.2764784911
20
7.1080543522
0
VERTEX
8
DEFAULT_2
10
9.2456688057
20
7.1219019084
0
VERTEX
8
DEFAULT_2
10
9.2172054791
20
7.1381140890
0
VERTEX
8
DEFAULT_2
10
9.1917891508
20
7.1562914788
0
VERTEX
8
DEFAULT_2
10
9.1700453962
20
7.1759863680
0
VERTEX
8
DEFAULT_2
10
9.1525093675
20
7.1967137612
0
VERTEX
8
DEFAULT_2
10
9.1396320836
20
7.2179236961
0
SEQEND
0
LINE
8
0
10
9.5322496941
20
6.9322979663
11
9.5485441651
21
6.9139433413
0
LINE
8
0
10
9.5738579749
20
6.9139433413
11
9.5721381624
21
6.9322979663
0
LINE
8
0
10
9.5786230600
20
6.9293631623
11
9.5769032475
21
6.9477177874
0
LINE
8
0
10
9.5459569660
20
7.0353027669
11
9.5700928491
21
7.0230663502
0
LINE
8
DEFAULT_2
10
9.5370147792
20
6.9477177874
11
9.5533092502
21
6.9293631623
0
POLYLINE
8
DEFAULT_2
66
1
70
0
0
VERTEX
8
DEFAULT_2
10
9.4793303664
20
7.0352550530
0
VERTEX
8
DEFAULT_2
10
9.4814179319
20
7.0321423818
0
VERTEX
8
DEFAULT_2
10
9.4843599511
20
7.0296147703
0
VERTEX
8
DEFAULT_2
10
9.4881052203
20
7.0277502809
0
VERTEX
8
DEFAULT_2
10
9.4923742154
20
7.0266880676
0
VERTEX
8
DEFAULT_2
10
9.4970501056
20
7.0264337201
0
VERTEX
8
DEFAULT_2
10
9.5020269445
20
7.0270144384
0
VERTEX
8
DEFAULT_2
10
9.5069332912
20
7.0283868813
0
VERTEX
8
DEFAULT_2
10
9.5117393556
20
7.0305450733
0
SEQEND
0
LINE
8
DEFAULT_2
10
9.4764054154
20
7.0460966416
11
9.5010002008
21
6.9959777384
0
LINE
8
0
10
9.5010002008
20
6.9959777384
11
9.5322496941
21
6.9322979663
0
LINE
8
DEFAULT_2
10
9.4811705005
20
7.0615164627
11
9.5370147792
21
6.9477177874
0
LINE
8
0
10
9.5721381624
20
6.9322979663
11
9.5215907480
21
7.0353027669
0
LINE
8
DEFAULT_2
10
9.5215907480
20
7.0353027669
11
9.5162938836
21
7.0460966416
0
POLYLINE
8
DEFAULT_2
66
1
70
0
0
VERTEX
8
DEFAULT_2
10
9.2390596481
20
6.2209334183
0
VERTEX
8
DEFAULT_2
10
9.2491808940
20
6.2287837133
0
VERTEX
8
DEFAULT_2
10
9.2577793449
20
6.2374602017
0
VERTEX
8
DEFAULT_2
10
9.2647835439
20
6.2468907780
0
SEQEND
0
POLYLINE
8
0
66
1
70
0
0
VERTEX
8
0
10
9.1965039488
20
6.1800864239
0
VERTEX
8
0
10
9.2068677424
20
6.1878047371
0
VERTEX
8
0
10
9.2154744004
20
6.1964895071
0
SEQEND
0
LINE
8
DEFAULT_2
10
9.5573931702
20
7.0723103374
11
9.5815290533
21
7.0600739207
0
POLYLINE
8
DEFAULT_2
66
1
70
0
0
VERTEX
8
DEFAULT_2
10
9.5215784420
20
7.0623843214
0
VERTEX
8
DEFAULT_2
10
9.5182429630
20
7.0644780863
0
VERTEX
8
DEFAULT_2
10
9.5142055705
20
7.0658786331
0
VERTEX
8
DEFAULT_2
10
9.5096832731
20
7.0664861306
0
VERTEX
8
DEFAULT_2
10
9.5048608043
20
7.0662757628
0
VERTEX
8
DEFAULT_2
10
9.4999351596
20
7.0652561229
0
VERTEX
8
DEFAULT_2
10
9.4951075492
20
7.0634688630
0
VERTEX
8
DEFAULT_2
10
9.4905751784
20
7.0609869915
0
VERTEX
8
DEFAULT_2
10
9.4865231924
20
7.0579118918
0
VERTEX
8
DEFAULT_2
10
9.4831171128
20
7.0543691801
0
VERTEX
8
DEFAULT_2
10
9.4804960762
20
7.0505035744
0
VERTEX
8
DEFAULT_2
10
9.4787645880
20
7.0464646966
0
SEQEND
0
LINE
8
0
10
9.5769032475
20
6.9477177874
11
9.5339227822
21
7.0353027669
0
LINE
8
DEFAULT_2
10
9.5339227822
20
7.0353027669
11
9.5210589687
21
7.0615164627
0
POLYLINE
8
0
66
1
70
0
0
VERTEX
8
0
10
9.5307067862
20
7.1809161256
0
VERTEX
8
0
10
9.5386461509
20
7.1597061907
0
VERTEX
8
0
10
9.5414531768
20
7.1389787974
0
VERTEX
8
0
10
9.5390391178
20
7.1192839082
0
VERTEX
8
0
10
9.5382159038
20
7.1164106273
0
SEQEND
0
POLYLINE
8
0
66
1
70
0
0
VERTEX
8
0
10
9.2199993077
20
6.1592541341
0
VERTEX
8
0
10
9.2301205536
20
6.1671044291
0
VERTEX
8
0
10
9.2387190045
20
6.1757809174
0
VERTEX
8
0
10
9.2457232035
20
6.1852114938
0
SEQEND
0
POLYLINE
8
0
66
1
70
0
0
VERTEX
8
0
10
9.1941191744
20
6.1723748512
0
VERTEX
8
0
10
9.1732111141
20
6.1618637823
0
VERTEX
8
0
10
9.1483753736
20
6.1546047838
0
VERTEX
8
0
10
9.1203838304
20
6.1508241732
0
VERTEX
8
0
10
9.0901068618
20
6.1506398897
0
VERTEX
8
0
10
9.0584862028
20
6.1540577915
0
VERTEX
8
0
10
9.0265055225
20
6.1609714437
0
VERTEX
8
0
10
8.9951595451
20
6.1711654709
0
VERTEX
8
0
10
8.9654229984
20
6.1843223219
0
VERTEX
8
0
10
8.9382178833
20
6.2000337248
0
VERTEX
8
0
10
8.9143883763
20
6.2178125521
0
VERTEX
8
0
10
8.8946762056
20
6.2371061346
0
VERTEX
8
0
10
8.8796949258
20
6.2573144703
0
VERTEX
8
0
10
8.8699106967
20
6.2778089806
0
VERTEX
8
0
10
8.8656276911
20
6.2979521674
0
VERTEX
8
0
10
8.8669785954
20
6.3171175521
0
VERTEX
8
0
10
8.8682050094
20
6.3217119031
0
SEQEND
0
LINE
8
0
10
9.6081682051
20
7.0230663502
11
9.5307067862
21
7.1809161256
0
LINE
8
0
10
9.6196044094
20
7.0600739207
11
9.5421429905
21
7.2179236961
0
POLYLINE
8
DEFAULT_2
66
1
70
0
0
VERTEX
8
DEFAULT_2
10
9.5421429905
20
7.2179236961
0
VERTEX
8
DEFAULT_2
10
9.5500823552
20
7.1967137612
0
VERTEX
8
DEFAULT_2
10
9.5528893810
20
7.1759863680
0
VERTEX
8
DEFAULT_2
10
9.5504753220
20
7.1562914788
0
VERTEX
8
DEFAULT_2
10
9.5496521080
20
7.1534181979
0
SEQEND
0
POLYLINE
8
0
66
1
70
0
0
VERTEX
8
0
10
9.2851943840
20
7.3892135099
0
VERTEX
8
0
10
9.2529778831
20
7.3873610445
0
VERTEX
8
0
10
9.2234582803
20
7.3818541787
0
VERTEX
8
0
10
9.1974407934
20
7.3728431255
0
VERTEX
8
0
10
9.1756351118
20
7.3605736829
0
VERTEX
8
0
10
9.1586360374
20
7.3453805293
0
VERTEX
8
0
10
9.1469072607
20
7.3276780944
0
VERTEX
8
0
10
9.1430875709
20
7.3179005677
0
SEQEND
0
POLYLINE
8
0
66
1
70
0
0
VERTEX
8
0
10
9.2851943840
20
7.3892135099
0
VERTEX
8
0
10
9.3192290009
20
7.3873610445
0
VERTEX
8
0
10
9.3541533581
20
7.3818541787
0
VERTEX
8
0
10
9.3890148102
20
7.3728431255
0
VERTEX
8
0
10
9.4228624277
20
7.3605736829
0
VERTEX
8
0
10
9.4547729358
20
7.3453805293
0
VERTEX
8
0
10
9.4838758991
20
7.3276780944
0
VERTEX
8
0
10
9.5093774645
20
7.3079492544
0
VERTEX
8
0
10
9.5305820158
20
7.2867321607
0
VERTEX
8
0
10
9.5469111482
20
7.2646055602
0
VERTEX
8
0
10
9.5579194454
20
7.2421730089
0
VERTEX
8
0
10
9.5633066299
20
7.2200464084
0
VERTEX
8
0
10
9.5629257533
20
7.1988293146
0
VERTEX
8
0
10
9.5606068947
20
7.1888780013
0
SEQEND
0
CIRCLE
8
DEFAULT_2
10
4.8848684211
20
4.2072165229
40
0.2185039370
0
CIRCLE
8
0
10
4.8848684211
20
4.2072165229
40
0.2460629921
0
ARC
8
0
10
4.8848684211
20
4.2072165229
40
0.2165354331
50
127.1625202369
51
142.8374797631
0
ARC
8
0
10
4.8848684211
20
4.2072165229
40
0.2165354331
50
307.1625202369
51
322.8374797631
0
CIRCLE
8
0
10
4.8848684211
20
4.2072165229
40
0.1870078740
0
CIRCLE
8
DEFAULT_2
10
4.8848684211
20
6.2260587854
40
0.0393700787
0
CIRCLE
8
DEFAULT_2
10
4.9848684211
20
7.0260587854
40
0.0255905512
0
CIRCLE
8
DEFAULT_2
10
4.7848684211
20
7.0260587854
40
0.0255905512
0
CIRCLE
8
DEFAULT_2
10
4.8848684211
20
6.7260587854
40
0.0255905512
0
CIRCLE
8
0
10
4.8848684211
20
1.9707424850
40
0.0393700787
0
CIRCLE
8
0
62
40
10
4.9848684211
20
1.1707424850
40
0.0255905512
0
CIRCLE
8
0
62
40
10
4.7848684211
20
1.1707424850
40
0.0255905512
0
CIRCLE
8
0
62
40
10
4.8848684211
20
1.4707424850
40
0.0255905512
0
ENDSEC
0
EOF
