  0
SECTION
  2
HEADER
  9
$ACADVER
  1
AC1015
  9
$ACADMAINTVER
 70
     6
  9
$DWGCODEPAGE
  3
DOS850
  9
$INSBASE
 10
0.0
 20
0.0
 30
0.0
  9
$EXTMIN
 10
-4.18786
 20
-5.17825
 30
1.000000E+20
  9
$EXTMAX
 10
4.46872
 20
6.85474
 30
-1.000000E+20
  9
$LIMMIN
 10
0.0
 20
0.0
  9
$LIMMAX
 10
0.0
 20
0.0
  9
$ORTHOMODE
 70
     0
  9
$REGENMODE
 70
     1
  9
$FILLMODE
 70
     1
  9
$QTEXTMODE
 70
     0
  9
$MIRRTEXT
 70
     1
  9
$LTSCALE
 40
1.0
  9
$ATTMODE
 70
     1
  9
$TEXTSIZE
 40
0.2
  9
$TRACEWID
 40
0.05
  9
$TEXTSTYLE
  7
Standard
  9
$CLAYER
  8
0
  9
$CELTYPE
  6
Continuous
  9
$CECOLOR
 62
   256
  9
$CELTSCALE
 40
1.0
  9
$DISPSILH
 70
     0
  9
$DIMSCALE
 40
1.0
  9
$DIMASZ
 40
0.18
  9
$DIMEXO
 40
0.0625
  9
$DIMDLI
 40
0.38
  9
$DIMRND
 40
0.0
  9
$DIMDLE
 40
0.0
  9
$DIMEXE
 40
0.18
  9
$DIMTP
 40
0.0
  9
$DIMTM
 40
0.0
  9
$DIMTXT
 40
0.18
  9
$DIMCEN
 40
0.09
  9
$DIMTSZ
 40
0.0
  9
$DIMTOL
 70
     0
  9
$DIMLIM
 70
     0
  9
$DIMTIH
 70
     1
  9
$DIMTOH
 70
     1
  9
$DIMSE1
 70
     0
  9
$DIMSE2
 70
     0
  9
$DIMTAD
 70
     0
  9
$DIMZIN
 70
     0
  9
$DIMBLK
  1

  9
$DIMASO
 70
     1
  9
$DIMSHO
 70
     1
  9
$DIMPOST
  1

  9
$DIMAPOST
  1

  9
$DIMALT
 70
     0
  9
$DIMALTD
 70
     2
  9
$DIMALTF
 40
25.4
  9
$DIMLFAC
 40
1.0
  9
$DIMTOFL
 70
     0
  9
$DIMTVP
 40
0.0
  9
$DIMTIX
 70
     0
  9
$DIMSOXD
 70
     0
  9
$DIMSAH
 70
     0
  9
$DIMBLK1
  1

  9
$DIMBLK2
  1

  9
$DIMSTYLE
  2
Standard
  9
$DIMCLRD
 70
     0
  9
$DIMCLRE
 70
     0
  9
$DIMCLRT
 70
     0
  9
$DIMTFAC
 40
1.0
  9
$DIMGAP
 40
0.09
  9
$DIMJUST
 70
     0
  9
$DIMSD1
 70
     0
  9
$DIMSD2
 70
     0
  9
$DIMTOLJ
 70
     1
  9
$DIMTZIN
 70
     0
  9
$DIMALTZ
 70
     0
  9
$DIMALTTZ
 70
     0
  9
$DIMUPT
 70
     0
  9
$DIMDEC
 70
     4
  9
$DIMTDEC
 70
     4
  9
$DIMALTU
 70
     2
  9
$DIMALTTD
 70
     2
  9
$DIMTXSTY
  7
Standard
  9
$DIMAUNIT
 70
     0
  9
$DIMADEC
 70
     0
  9
$DIMALTRND
 40
0.0
  9
$DIMAZIN
 70
     0
  9
$DIMDSEP
 70
     0
  9
$DIMATFIT
 70
     3
  9
$DIMFRAC
 70
     0
  9
$DIMLDRBLK
  1

  9
$DIMLUNIT
 70
     2
  9
$DIMLWD
 70
     0
  9
$DIMLWE
 70
     0
  9
$DIMTMOVE
 70
     0
  9
$LUNITS
 70
     2
  9
$LUPREC
 70
     4
  9
$SKETCHINC
 40
0.1
  9
$FILLETRAD
 40
0.0
  9
$AUNITS
 70
     0
  9
$AUPREC
 70
     0
  9
$MENU
  1
acad
  9
$ELEVATION
 40
0.0
  9
$PELEVATION
 40
0.0
  9
$THICKNESS
 40
0.0
  9
$LIMCHECK
 70
     0
  9
$CHAMFERA
 40
0.0
  9
$CHAMFERB
 40
0.0
  9
$CHAMFERC
 40
0.0
  9
$CHAMFERD
 40
0.0
  9
$SKPOLY
 70
     0
  9
$TDCREATE
 40
0.000000000
  9
$TDUCREATE
 40
0.000000000
  9
$TDUPDATE
 40
0.000000000
  9
$TDUUPDATE
 40
0.000000000
  9
$TDINDWG
 40
0.0000000000
  9
$TDUSRTIMER
 40
0.0000000000
  9
$USRTIMER
 70
     1
  9
$ANGBASE
 50
0.0
  9
$ANGDIR
 70
     0
  9
$PDMODE
 70
     0
  9
$PDSIZE
 40
0.0
  9
$PLINEWID
 40
0.0
  9
$SPLFRAME
 70
     0
  9
$SPLINETYPE
 70
     6
  9
$SPLINESEGS
 70
     8
  9
$HANDSEED
  5
4E
  9
$SURFTAB1
 70
     6
  9
$SURFTAB2
 70
     6
  9
$SURFTYPE
 70
     6
  9
$SURFU
 70
     6
  9
$SURFV
 70
     6
  9
$UCSBASE
  2

  9
$UCSNAME
  2

  9
$UCSORG
 10
0.0
 20
0.0
 30
0.0
  9
$UCSXDIR
 10
1.0
 20
0.0
 30
0.0
  9
$UCSYDIR
 10
0.0
 20
1.0
 30
0.0
  9
$UCSORTHOREF
  2

  9
$UCSORTHOVIEW
 70
     0
  9
$UCSORGTOP
 10
0.0
 20
0.0
 30
0.0
  9
$UCSORGBOTTOM
 10
0.0
 20
0.0
 30
0.0
  9
$UCSORGLEFT
 10
0.0
 20
0.0
 30
0.0
  9
$UCSORGRIGHT
 10
0.0
 20
0.0
 30
0.0
  9
$UCSORGFRONT
 10
0.0
 20
0.0
 30
0.0
  9
$UCSORGBACK
 10
0.0
 20
0.0
 30
0.0
  9
$PUCSBASE
  2

  9
$PUCSNAME
  2

  9
$PUCSORG
 10
0.0
 20
0.0
 30
0.0
  9
$PUCSXDIR
 10
1.0
 20
0.0
 30
0.0
  9
$PUCSYDIR
 10
0.0
 20
1.0
 30
0.0
  9
$PUCSORTHOREF
  2

  9
$PUCSORTHOVIEW
 70
     0
  9
$PUCSORGTOP
 10
0.0
 20
0.0
 30
0.0
  9
$PUCSORGBOTTOM
 10
0.0
 20
0.0
 30
0.0
  9
$PUCSORGLEFT
 10
0.0
 20
0.0
 30
0.0
  9
$PUCSORGRIGHT
 10
0.0
 20
0.0
 30
0.0
  9
$PUCSORGFRONT
 10
0.0
 20
0.0
 30
0.0
  9
$PUCSORGBACK
 10
0.0
 20
0.0
 30
0.0
  9
$USERI1
 70
     0
  9
$USERI2
 70
     0
  9
$USERI3
 70
     0
  9
$USERI4
 70
     0
  9
$USERI5
 70
     0
  9
$USERR1
 40
0.0
  9
$USERR2
 40
0.0
  9
$USERR3
 40
0.0
  9
$USERR4
 40
0.0
  9
$USERR5
 40
0.0
  9
$WORLDVIEW
 70
     1
  9
$SHADEDGE
 70
     3
  9
$SHADEDIF
 70
    70
  9
$TILEMODE
 70
     1
  9
$MAXACTVP
 70
    16
  9
$PINSBASE
 10
0.0
 20
0.0
 30
0.0
  9
$PLIMCHECK
 70
     0
  9
$PEXTMIN
 10
1.000000E+20
 20
1.000000E+20
 30
1.000000E+20
  9
$PEXTMAX
 10
-1.000000E+20
 20
-1.000000E+20
 30
-1.000000E+20
  9
$PLIMMIN
 10
0.0
 20
0.0
  9
$PLIMMAX
 10
12.0
 20
9.0
  9
$UNITMODE
 70
     0
  9
$VISRETAIN
 70
     0
  9
$PLINEGEN
 70
     1
  9
$PSLTSCALE
 70
     0
  9
$TREEDEPTH
 70
  3020
  9
$CMLSTYLE
  2
Standard
  9
$CMLJUST
 70
     0
  9
$CMLSCALE
 40
1.0
  9
$PROXYGRAPHICS
 70
     0
  9
$MEASUREMENT
 70
     0
  9
$CELWEIGHT
370
     0
  9
$ENDCAPS
280
     0
  9
$JOINSTYLE
280
     0
  9
$LWDISPLAY
290
     0
  9
$INSUNITS
 70
     5
  9
$HYPERLINKBASE
  1

  9
$XEDIT
290
     1
  9
$CEPSNTYPE
380
     0
  9
$PSTYLEMODE
290
     1
  9
$FINGERPRINTGUID
  2

  9
$VERSIONGUID
  2

  9
$EXTNAMES
290
     1
  9
$PSVPSCALE
 40
0.0
  0
ENDSEC
  0
SECTION
  2
CLASSES
  0
CLASS
  1
LWPOLYLINE
  2
AcDbPolyline
  3
AutoCAD 2000
 90
    32768
280
     0
281
     1
  0
CLASS
  1
IMAGE
  2
AcDbRasterImage
  3
ISM
 90
    32895
280
     0
281
     1
  0
CLASS
  1
OLE2FRAME
  2
AcDbOle2Frame
  3
AutoCAD 2000
 90
    32768
280
     0
281
     1
  0
CLASS
  1
HATCH
  2
AcDbHatch
  3
AutoCAD 2000
 90
    32768
280
     0
281
     1
  0
CLASS
  1
DICTIONARYVAR
  2
AcDbDictionaryVar
  3
AutoCAD 2000
 90
    32768
280
     0
281
     0
  0
CLASS
  1
RASTERVARIABLES
  2
AcDbRasterVariables
  3
ISM
 90
    32768
280
     0
281
     0
  0
CLASS
  1
IMAGEDEF
  2
AcDbRasterImageDef
  3
ISM
 90
    32768
280
     0
281
     0
  0
CLASS
  1
IMAGEDEF_REACTOR
  2
AcDbRasterImageDefReactor
  3
ISM
 90
    32769
280
     0
281
     0
  0
CLASS
  1
IDBUFFER
  2
AcDbIdBuffer
  3
AutoCAD 2000
 90
    32768
280
     0
281
     0
  0
CLASS
  1
SPATIAL_FILTER
  2
AcDbSpatialFilter
  3
AutoCAD 2000
 90
    32768
280
     0
281
     0
  0
CLASS
  1
XRECORD
  2
AcDbXrecord
  3
AutoCAD 2000
 90
    32768
280
     0
281
     0
  0
CLASS
  1
SORTENTSTABLE
  2
AcDbSortentsTable
  3
AutoCAD 2000
 90
    32768
280
     0
281
     0
  0
CLASS
  1
LAYER_INDEX
  2
AcDbLayerIndex
  3
AutoCAD 2000
 90
    32768
280
     0
281
     0
  0
CLASS
  1
SPATIAL_INDEX
  2
AcDbSpatialIndex
  3
AutoCAD 2000
 90
    32768
280
     0
281
     0
  0
CLASS
  1
OBJECT_PTR
  2
CAseDLPNTableRecord
  3
"ASE-LPNTableRecord"
 90
    32769
280
     0
281
     0
  0
CLASS
  1
LAYOUT
  2
AcDbLayout
  3
AutoCAD 2000
 90
        0
280
     0
281
     0
  0
CLASS
  1
PLOTSETTINGS
  2
AcDbPlotSettings
  3
AutoCAD 2000
 90
    32768
280
     0
281
     0
  0
CLASS
  1
ACDBDICTIONARYWDFLT
  2
AcDbDictionaryWithDefault
  3
AutoCAD 2000
 90
        0
280
     0
281
     0
  0
CLASS
  1
ACDBPLACEHOLDER
  2
AcDbPlaceHolder
  3
AutoCAD 2000
 90
        0
280
     0
281
     0
  0
CLASS
  1
VBA_PROJECT
  2
AcDbVbaProject
  3
acadvba
 90
    32768
280
     0
281
     0
  0
CLASS
  1
WIPEOUT
  2
AcDbWipeout
  3
WipeOut|AutoCAD Express Tool|expresstools@autodesk.com
 90
    32895
280
     0
281
     1
  0
CLASS
  1
WIPEOUTVARIABLES
  2
AcDbWipeoutVariables
  3
WipeOut|AutoCAD Express Tool|expresstools@autodesk.com
 90
        0
280
     0
281
     0
  0
CLASS
  1
RTEXT
  2
RText
  3
RText|AutoCAD Express Tool|expresstools@autodesk.com
 90
    32768
280
     0
281
     1
  0
CLASS
  1
ARCALIGNEDTEXT
  2
AcDbArcAlignedText
  3
ATEXT|AutoCAD Express Tool|expresstools@autodesk.com
 90
    32768
280
     0
281
     1
  0
ENDSEC
  0
SECTION
  2
TABLES
  0
TABLE
  2
VPORT
  5
7
100
AcDbSymbolTable
 70
     1
  0
VPORT
  5
15
100
AcDbSymbolTableRecord
100
AcDbViewportTableRecord
  2
*ACTIVE
 70
     0
 10
0.0
 20
0.0
 11
1.0
 21
1.0
 12
6.591288
 22
4.579184
 13
0.0
 23
0.0
 14
1.0
 24
1.0
 15
0.0
 25
0.0
 16
0.0
 26
0.0
 36
1.0
 17
0.0
 27
0.0
 37
0.0
 40
9.158369
 41
0.688564
 42
50.0
 43
0.0
 44
0.0
 50
0.0
 51
0.0
 71
     0
 72
   100
 73
     1
 74
     1
 75
     0
 76
     0
 77
     0
 78
     0
281
     0
 65
     0
110
0.0
120
0.0
130
0.0
111
1.0
121
0.0
131
0.0
112
0.0
122
1.0
132
0.0
345
0
346
0
 79
     0
146
0.0
  0
ENDTAB
  0
TABLE
  2
LTYPE
  5
4
100
AcDbSymbolTable
 70
     3
  0
LTYPE
  5
11
100
AcDbSymbolTableRecord
100
AcDbLinetypeTableRecord
  2
ByBlock
 70
    64
  3

 72
    65
 73
     0
 40
0.0
  0
LTYPE
  5
12
100
AcDbSymbolTableRecord
100
AcDbLinetypeTableRecord
  2
ByLayer
 70
    64
  3

 72
    65
 73
     0
 40
0.0
  0
LTYPE
  5
13
100
AcDbSymbolTableRecord
100
AcDbLinetypeTableRecord
  2
Continuous
 70
    64
  3
Solid line
 72
    65
 73
     0
 40
0.0
  0
ENDTAB
  0
TABLE
  2
LAYER
  5
2
100
AcDbSymbolTable
 70
     5
  0
LAYER
  5
14
100
AcDbSymbolTableRecord
100
AcDbLayerTableRecord
  2
0
 70
     0
 62
     7
  6
Continuous
290
     1
370
    -3
390
1D
  0
LAYER
  5
24
100
AcDbSymbolTableRecord
100
AcDbLayerTableRecord
  2
Layer 1
 70
     0
 62
     7
  6
Continuous
290
     1
370
    -3
390
1F
  0
LAYER
  5
25
100
AcDbSymbolTableRecord
100
AcDbLayerTableRecord
  2
Background
 70
     0
 62
     7
  6
Continuous
290
     1
370
    -3
390
1F
  0
LAYER
  5
26
100
AcDbSymbolTableRecord
100
AcDbLayerTableRecord
  2
Wheel
 70
     0
 62
     7
  6
Continuous
290
     1
370
    -3
390
1F
  0
LAYER
  5
27
100
AcDbSymbolTableRecord
100
AcDbLayerTableRecord
  2
Layer-1
 70
     0
 62
     7
  6
Continuous
290
     1
370
    -3
390
1F
  0
ENDTAB
  0
TABLE
  2
STYLE
  5
3
100
AcDbSymbolTable
 70
     1
  0
STYLE
  5
17
100
AcDbSymbolTableRecord
100
AcDbTextStyleTableRecord
  2
Standard
 70
     0
 40
0.0
 41
1.0
 50
0.0
 71
     0
 42
0.0
  3
txt
  4

  0
ENDTAB
  0
TABLE
  2
VIEW
  5
5
100
AcDbSymbolTable
 70
     0
  0
ENDTAB
  0
TABLE
  2
UCS
  5
6
100
AcDbSymbolTable
 70
     0
  0
ENDTAB
  0
TABLE
  2
APPID
  5
8
100
AcDbSymbolTable
 70
     1
  0
APPID
  5
16
100
AcDbSymbolTableRecord
100
AcDbRegAppTableRecord
  2
ACAD
 70
     0
  0
ENDTAB
  0
TABLE
  2
DIMSTYLE
  5
9
100
AcDbSymbolTable
 70
     1
100
AcDbDimStyleTable
 71
     0
  0
DIMSTYLE
105
18
100
AcDbSymbolTableRecord
100
AcDbDimStyleTableRecord
  2
Standard
 70
     0
  3

  4

 40
1.0
 41
0.18
 42
0.0625
 43
0.38
 44
0.18
 45
0.0
 46
0.0
 47
0.0
 48
0.0
 71
     0
 72
     0
 73
     1
 74
     1
 75
     0
 76
     0
 77
     0
 78
     0
 79
     0
140
0.18
141
0.09
142
0.0
143
25.4
144
1.0
145
0.0
146
1.0
147
0.09
148
0.0
170
     0
171
     2
172
     0
173
     0
174
     0
175
     0
176
     0
177
     0
178
     0
179
     0
271
     4
272
     4
273
     2
274
     2
275
     0
276
     0
277
     2
278
    46
279
     0
280
     0
281
     0
282
     0
283
     1
284
     0
285
     0
286
     0
288
     0
340
17
341
0
342
0
343
0
344
0
371
    -2
372
    -2
  0
ENDTAB
  0
TABLE
  2
BLOCK_RECORD
  5
1
100
AcDbSymbolTable
 70
     0
  0
BLOCK_RECORD
  5
A
100
AcDbSymbolTableRecord
100
AcDbBlockTableRecord
  2
*MODEL_SPACE
340
20
  0
BLOCK_RECORD
  5
B
100
AcDbSymbolTableRecord
100
AcDbBlockTableRecord
  2
*PAPER_SPACE
340
21
  0
ENDTAB
  0
ENDSEC
  0
SECTION
  2
BLOCKS
  0
BLOCK
  5
D
100
AcDbEntity
  8
0
100
AcDbBlockBegin
  2
*MODEL_SPACE
 70
     0
 10
0.0
 20
0.0
 30
0.0
  3
*MODEL_SPACE
  1

  0
ENDBLK
  5
E
100
AcDbEntity
  8
0
100
AcDbBlockEnd
  0
BLOCK
  5
F
100
AcDbEntity
 67
     1
  8
0
100
AcDbBlockBegin
  2
*PAPER_SPACE
 70
     0
 10
0.0
 20
0.0
 30
0.0
  3
*PAPER_SPACE
  1

  0
ENDBLK
  5
10
100
AcDbEntity
 67
     1
  8
0
100
AcDbBlockEnd
  0
ENDSEC
  0
SECTION
  2
ENTITIES
  0
SPLINE
  5
28
100
AcDbEntity
  8
Layer-1
100
AcDbSpline
210
0.0
220
0.0
230
1.0
 70
     1
 71
     3
 72
    20
 73
    16
 74
     0
 42
0.0000000001
 43
0.0000000001
 40
0.0
 40
0.0
 40
0.0
 40
0.0
 40
0.25
 40
0.25
 40
0.25
 40
0.25
 40
0.5
 40
0.5
 40
0.5
 40
0.5
 40
0.75
 40
0.75
 40
0.75
 40
0.75
 40
1.0
 40
1.0
 40
1.0
 40
1.0
 10
-3.2594500000000002
 20
-3.4581900000000001
 30
0.0
 10
-3.2594500000000002
 20
-3.4581900000000001
 30
0.0
 10
3.5806
 20
-3.4581900000000001
 30
0.0
 10
3.5806
 20
-3.4581900000000001
 30
0.0
 10
3.5806
 20
-3.4581900000000001
 30
0.0
 10
3.5806
 20
-3.4581900000000001
 30
0.0
 10
3.5806
 20
-5.1681900000000001
 30
0.0
 10
3.5806
 20
-5.1681900000000001
 30
0.0
 10
3.5806
 20
-5.1681900000000001
 30
0.0
 10
3.5806
 20
-5.1681900000000001
 30
0.0
 10
-3.2594500000000002
 20
-5.1681900000000001
 30
0.0
 10
-3.2594500000000002
 20
-5.1681900000000001
 30
0.0
 10
-3.2594500000000002
 20
-5.1681900000000001
 30
0.0
 10
-3.2594500000000002
 20
-5.1681900000000001
 30
0.0
 10
-3.2594500000000002
 20
-3.4581900000000001
 30
0.0
 10
-3.2594500000000002
 20
-3.4581900000000001
 30
0.0
  0
SPLINE
  5
29
100
AcDbEntity
  8
Layer-1
100
AcDbSpline
210
0.0
220
0.0
230
1.0
 70
     1
 71
     3
 72
    20
 73
    16
 74
     0
 42
0.0000000001
 43
0.0000000001
 40
0.0
 40
0.0
 40
0.0
 40
0.0
 40
0.25
 40
0.25
 40
0.25
 40
0.25
 40
0.5
 40
0.5
 40
0.5
 40
0.5
 40
0.75
 40
0.75
 40
0.75
 40
0.75
 40
1.0
 40
1.0
 40
1.0
 40
1.0
 10
-1.08714
 20
-0.59847
 30
0.0
 10
-1.08714
 20
-0.59847
 30
0.0
 10
-0.81504
 20
-0.59847
 30
0.0
 10
-0.81504
 20
-0.59847
 30
0.0
 10
-0.81504
 20
-0.59847
 30
0.0
 10
-0.81504
 20
-0.59847
 30
0.0
 10
-0.81504
 20
-0.92304
 30
0.0
 10
-0.81504
 20
-0.92304
 30
0.0
 10
-0.81504
 20
-0.92304
 30
0.0
 10
-0.81504
 20
-0.92304
 30
0.0
 10
-1.08714
 20
-0.92304
 30
0.0
 10
-1.08714
 20
-0.92304
 30
0.0
 10
-1.08714
 20
-0.92304
 30
0.0
 10
-1.08714
 20
-0.92304
 30
0.0
 10
-1.08714
 20
-0.59847
 30
0.0
 10
-1.08714
 20
-0.59847
 30
0.0
  0
SPLINE
  5
2A
100
AcDbEntity
  8
Layer-1
100
AcDbSpline
210
0.0
220
0.0
230
1.0
 70
     1
 71
     3
 72
    20
 73
    16
 74
     0
 42
0.0000000001
 43
0.0000000001
 40
0.0
 40
0.0
 40
0.0
 40
0.0
 40
0.25
 40
0.25
 40
0.25
 40
0.25
 40
0.5
 40
0.5
 40
0.5
 40
0.5
 40
0.75
 40
0.75
 40
0.75
 40
0.75
 40
1.0
 40
1.0
 40
1.0
 40
1.0
 10
-0.30614
 20
3.6907899999999998
 30
0.0
 10
-0.30614
 20
3.6907899999999998
 30
0.0
 10
0.9073600000000001
 20
3.6907899999999998
 30
0.0
 10
0.9073600000000001
 20
3.6907899999999998
 30
0.0
 10
0.9073600000000001
 20
3.6907899999999998
 30
0.0
 10
0.9073600000000001
 20
3.6907899999999998
 30
0.0
 10
0.9073600000000001
 20
3.44983
 30
0.0
 10
0.9073600000000001
 20
3.44983
 30
0.0
 10
0.9073600000000001
 20
3.44983
 30
0.0
 10
0.9073600000000001
 20
3.44983
 30
0.0
 10
-0.30614
 20
3.44983
 30
0.0
 10
-0.30614
 20
3.44983
 30
0.0
 10
-0.30614
 20
3.44983
 30
0.0
 10
-0.30614
 20
3.44983
 30
0.0
 10
-0.30614
 20
3.6907899999999998
 30
0.0
 10
-0.30614
 20
3.6907899999999998
 30
0.0
  0
SPLINE
  5
2B
100
AcDbEntity
  8
Layer-1
100
AcDbSpline
210
0.0
220
0.0
230
1.0
 70
     0
 71
     3
 72
    12
 73
     8
 74
     0
 42
0.0000000001
 43
0.0000000001
 40
0.0
 40
0.0
 40
0.0
 40
0.0
 40
0.5
 40
0.5
 40
0.5
 40
0.5
 40
1.0
 40
1.0
 40
1.0
 40
1.0
 10
0.65538
 20
5.8383599999999998
 30
0.0
 10
1.16482
 20
5.8190600000000003
 30
0.0
 10
1.9833000000000001
 20
5.7629099999999998
 30
0.0
 10
2.0731799999999998
 20
5.6194499999999996
 30
0.0
 10
2.0731799999999998
 20
5.6194499999999996
 30
0.0
 10
2.0988199999999999
 20
5.5785299999999998
 30
0.0
 10
2.1100599999999998
 20
5.4067800000000004
 30
0.0
 10
2.10941
 20
5.3586299999999998
 30
0.0
  0
SPLINE
  5
2C
100
AcDbEntity
  8
Layer-1
100
AcDbSpline
210
0.0
220
0.0
230
1.0
 70
     0
 71
     3
 72
    20
 73
    16
 74
     0
 42
0.0000000001
 43
0.0000000001
 40
0.0
 40
0.0
 40
0.0
 40
0.0
 40
0.25
 40
0.25
 40
0.25
 40
0.25
 40
0.5
 40
0.5
 40
0.5
 40
0.5
 40
0.75
 40
0.75
 40
0.75
 40
0.75
 40
1.0
 40
1.0
 40
1.0
 40
1.0
 10
2.10941
 20
5.3586299999999998
 30
0.0
 10
2.10941
 20
5.3586299999999998
 30
0.0
 10
0.26268
 20
5.3586799999999997
 30
0.0
 10
0.26268
 20
5.3586799999999997
 30
0.0
 10
0.26268
 20
5.3586799999999997
 30
0.0
 10
0.26268
 20
5.3586799999999997
 30
0.0
 10
-1.30799
 20
5.3587199999999999
 30
0.0
 10
-1.30799
 20
5.3587199999999999
 30
0.0
 10
-1.30799
 20
5.3587199999999999
 30
0.0
 10
-1.30799
 20
5.3587199999999999
 30
0.0
 10
-1.4333100000000001
 20
5.3586600000000004
 30
0.0
 10
-1.4333100000000001
 20
5.3586600000000004
 30
0.0
 10
-1.4333100000000001
 20
5.3586600000000004
 30
0.0
 10
-1.4333100000000001
 20
5.3586600000000004
 30
0.0
 10
-1.84884
 20
5.3587400000000001
 30
0.0
 10
-1.84884
 20
5.3587400000000001
 30
0.0
  0
SPLINE
  5
2D
100
AcDbEntity
  8
Layer-1
100
AcDbSpline
210
0.0
220
0.0
230
1.0
 70
     0
 71
     3
 72
    12
 73
     8
 74
     0
 42
0.0000000001
 43
0.0000000001
 40
0.0
 40
0.0
 40
0.0
 40
0.0
 40
0.5
 40
0.5
 40
0.5
 40
0.5
 40
1.0
 40
1.0
 40
1.0
 40
1.0
 10
-1.84884
 20
5.3587400000000001
 30
0.0
 10
-1.8490599999999999
 20
5.4138200000000003
 30
0.0
 10
-1.83432
 20
5.5897399999999999
 30
0.0
 10
-1.8015399999999999
 20
5.6339800000000002
 30
0.0
 10
-1.8015399999999999
 20
5.6339800000000002
 30
0.0
 10
-1.7617799999999999
 20
5.68764
 30
0.0
 10
-1.6465700000000001
 20
5.7277399999999998
 30
0.0
 10
-1.4903
 20
5.7576999999999998
 30
0.0
  0
SPLINE
  5
2E
100
AcDbEntity
  8
Layer-1
100
AcDbSpline
210
0.0
220
0.0
230
1.0
 70
     0
 71
     3
 72
     8
 73
     4
 74
     0
 42
0.0000000001
 43
0.0000000001
 40
0.0
 40
0.0
 40
0.0
 40
0.0
 40
1.0
 40
1.0
 40
1.0
 40
1.0
 10
-1.4903
 20
5.7576999999999998
 30
0.0
 10
-1.4903
 20
5.7576999999999998
 30
0.0
 10
-1.4903
 20
5.8986099999999997
 30
0.0
 10
-1.4903
 20
5.8986099999999997
 30
0.0
  0
SPLINE
  5
2F
100
AcDbEntity
  8
Layer-1
100
AcDbSpline
210
0.0
220
0.0
230
1.0
 70
     0
 71
     3
 72
     8
 73
     4
 74
     0
 42
0.0000000001
 43
0.0000000001
 40
0.0
 40
0.0
 40
0.0
 40
0.0
 40
1.0
 40
1.0
 40
1.0
 40
1.0
 10
-1.4903
 20
5.8986099999999997
 30
0.0
 10
-1.4903
 20
5.9300899999999999
 30
0.0
 10
-1.46478
 20
5.9556100000000001
 30
0.0
 10
-1.4333100000000001
 20
5.9556100000000001
 30
0.0
  0
SPLINE
  5
30
100
AcDbEntity
  8
Layer-1
100
AcDbSpline
210
0.0
220
0.0
230
1.0
 70
     0
 71
     3
 72
     8
 73
     4
 74
     0
 42
0.0000000001
 43
0.0000000001
 40
0.0
 40
0.0
 40
0.0
 40
0.0
 40
1.0
 40
1.0
 40
1.0
 40
1.0
 10
-1.4333100000000001
 20
5.9556100000000001
 30
0.0
 10
-1.4333100000000001
 20
5.9556100000000001
 30
0.0
 10
-1.3358099999999999
 20
5.9556100000000001
 30
0.0
 10
-1.3358099999999999
 20
5.9556100000000001
 30
0.0
  0
SPLINE
  5
31
100
AcDbEntity
  8
Layer-1
100
AcDbSpline
210
0.0
220
0.0
230
1.0
 70
     0
 71
     3
 72
     8
 73
     4
 74
     0
 42
0.0000000001
 43
0.0000000001
 40
0.0
 40
0.0
 40
0.0
 40
0.0
 40
1.0
 40
1.0
 40
1.0
 40
1.0
 10
-1.3358099999999999
 20
5.9556100000000001
 30
0.0
 10
-1.3043199999999999
 20
5.9556100000000001
 30
0.0
 10
-1.2787999999999999
 20
5.9300899999999999
 30
0.0
 10
-1.2787999999999999
 20
5.8986099999999997
 30
0.0
  0
SPLINE
  5
32
100
AcDbEntity
  8
Layer-1
100
AcDbSpline
210
0.0
220
0.0
230
1.0
 70
     0
 71
     3
 72
     8
 73
     4
 74
     0
 42
0.0000000001
 43
0.0000000001
 40
0.0
 40
0.0
 40
0.0
 40
0.0
 40
1.0
 40
1.0
 40
1.0
 40
1.0
 10
-1.2787999999999999
 20
5.8986099999999997
 30
0.0
 10
-1.2787999999999999
 20
5.8986099999999997
 30
0.0
 10
-1.2787999999999999
 20
5.7897800000000004
 30
0.0
 10
-1.2787999999999999
 20
5.7897800000000004
 30
0.0
  0
SPLINE
  5
33
100
AcDbEntity
  8
Layer-1
100
AcDbSpline
210
0.0
220
0.0
230
1.0
 70
     0
 71
     3
 72
     8
 73
     4
 74
     0
 42
0.0000000001
 43
0.0000000001
 40
0.0
 40
0.0
 40
0.0
 40
0.0
 40
1.0
 40
1.0
 40
1.0
 40
1.0
 10
-1.2787999999999999
 20
5.7897800000000004
 30
0.0
 10
-0.95568
 20
5.8286800000000003
 30
0.0
 10
-0.54977
 20
5.8407400000000003
 30
0.0
 10
-0.24489
 20
5.8443899999999998
 30
0.0
  0
SPLINE
  5
34
100
AcDbEntity
  8
Layer-1
100
AcDbSpline
210
0.0
220
0.0
230
1.0
 70
     0
 71
     3
 72
     8
 73
     4
 74
     0
 42
0.0000000001
 43
0.0000000001
 40
0.0
 40
0.0
 40
0.0
 40
0.0
 40
1.0
 40
1.0
 40
1.0
 40
1.0
 10
1.6036600000000001
 20
-0.17997
 30
0.0
 10
1.6036600000000001
 20
-0.17997
 30
0.0
 10
2.13489
 20
5.2032100000000003
 30
0.0
 10
2.13489
 20
5.2032100000000003
 30
0.0
  0
SPLINE
  5
35
100
AcDbEntity
  8
Layer-1
100
AcDbSpline
210
0.0
220
0.0
230
1.0
 70
     0
 71
     3
 72
    32
 73
    28
 74
     0
 42
0.0000000001
 43
0.0000000001
 40
0.0
 40
0.0
 40
0.0
 40
0.0
 40
0.1428571428571429
 40
0.1428571428571429
 40
0.1428571428571429
 40
0.1428571428571429
 40
0.2857142857142857
 40
0.2857142857142857
 40
0.2857142857142857
 40
0.2857142857142857
 40
0.4285714285714286
 40
0.4285714285714286
 40
0.4285714285714286
 40
0.4285714285714286
 40
0.5714285714285714
 40
0.5714285714285714
 40
0.5714285714285714
 40
0.5714285714285714
 40
0.7142857142857142
 40
0.7142857142857142
 40
0.7142857142857142
 40
0.7142857142857142
 40
0.857142857142857
 40
0.857142857142857
 40
0.857142857142857
 40
0.857142857142857
 40
1.0
 40
1.0
 40
1.0
 40
1.0
 10
-1.8548100000000001
 20
5.1529400000000001
 30
0.0
 10
-1.8548100000000001
 20
5.1529400000000001
 30
0.0
 10
-1.57012
 20
2.2772299999999999
 30
0.0
 10
-1.57012
 20
2.2772299999999999
 30
0.0
 10
-1.57012
 20
2.2772299999999999
 30
0.0
 10
-1.57012
 20
2.2772299999999999
 30
0.0
 10
-1.302
 20
-0.39362
 30
0.0
 10
-1.302
 20
-0.39362
 30
0.0
 10
-1.302
 20
-0.39362
 30
0.0
 10
-1.302
 20
-0.39362
 30
0.0
 10
-1.28512
 20
-0.49165
 30
0.0
 10
-1.28512
 20
-0.49165
 30
0.0
 10
-1.28512
 20
-0.49165
 30
0.0
 10
-1.28512
 20
-0.49165
 30
0.0
 10
-1.23665
 20
-0.54694
 30
0.0
 10
-1.23665
 20
-0.54694
 30
0.0
 10
-1.23665
 20
-0.54694
 30
0.0
 10
-1.23665
 20
-0.54694
 30
0.0
 10
-1.1160000000000001
 20
-0.57334
 30
0.0
 10
-1.1160000000000001
 20
-0.57334
 30
0.0
 10
-1.1160000000000001
 20
-0.57334
 30
0.0
 10
-1.1160000000000001
 20
-0.57334
 30
0.0
 10
0.13988
 20
-0.57334
 30
0.0
 10
0.13988
 20
-0.57334
 30
0.0
 10
0.13988
 20
-0.57334
 30
0.0
 10
0.13988
 20
-0.57334
 30
0.0
 10
0.9777900000000001
 20
-0.57334
 30
0.0
 10
0.9777900000000001
 20
-0.57334
 30
0.0
  0
SPLINE
  5
36
100
AcDbEntity
  8
Layer-1
100
AcDbSpline
210
0.0
220
0.0
230
1.0
 70
     1
 71
     3
 72
    20
 73
    16
 74
     0
 42
0.0000000001
 43
0.0000000001
 40
0.0
 40
0.0
 40
0.0
 40
0.0
 40
0.25
 40
0.25
 40
0.25
 40
0.25
 40
0.5
 40
0.5
 40
0.5
 40
0.5
 40
0.75
 40
0.75
 40
0.75
 40
0.75
 40
1.0
 40
1.0
 40
1.0
 40
1.0
 10
-1.4748399999999999
 20
5.9263300000000001
 30
0.0
 10
-1.4748399999999999
 20
5.9263300000000001
 30
0.0
 10
-1.2863199999999999
 20
5.9263300000000001
 30
0.0
 10
-1.2863199999999999
 20
5.9263300000000001
 30
0.0
 10
-1.2863199999999999
 20
5.9263300000000001
 30
0.0
 10
-1.2863199999999999
 20
5.9263300000000001
 30
0.0
 10
-1.2863199999999999
 20
5.4605499999999996
 30
0.0
 10
-1.2863199999999999
 20
5.4605499999999996
 30
0.0
 10
-1.2863199999999999
 20
5.4605499999999996
 30
0.0
 10
-1.2863199999999999
 20
5.4605499999999996
 30
0.0
 10
-1.4748399999999999
 20
5.4605499999999996
 30
0.0
 10
-1.4748399999999999
 20
5.4605499999999996
 30
0.0
 10
-1.4748399999999999
 20
5.4605499999999996
 30
0.0
 10
-1.4748399999999999
 20
5.4605499999999996
 30
0.0
 10
-1.4748399999999999
 20
5.9263300000000001
 30
0.0
 10
-1.4748399999999999
 20
5.9263300000000001
 30
0.0
  0
SPLINE
  5
37
100
AcDbEntity
  8
Layer-1
100
AcDbSpline
210
0.0
220
0.0
230
1.0
 70
     0
 71
     3
 72
     8
 73
     4
 74
     0
 42
0.0000000001
 43
0.0000000001
 40
0.0
 40
0.0
 40
0.0
 40
0.0
 40
1.0
 40
1.0
 40
1.0
 40
1.0
 10
-1.2804800000000001
 20
5.7679200000000002
 30
0.0
 10
-1.2804800000000001
 20
5.7679200000000002
 30
0.0
 10
-1.2804800000000001
 20
5.4000300000000001
 30
0.0
 10
-1.2804800000000001
 20
5.4000300000000001
 30
0.0
  0
SPLINE
  5
38
100
AcDbEntity
  8
Layer-1
100
AcDbSpline
210
0.0
220
0.0
230
1.0
 70
     0
 71
     3
 72
     8
 73
     4
 74
     0
 42
0.0000000001
 43
0.0000000001
 40
0.0
 40
0.0
 40
0.0
 40
0.0
 40
1.0
 40
1.0
 40
1.0
 40
1.0
 10
-1.2804800000000001
 20
5.4000300000000001
 30
0.0
 10
-1.2804800000000001
 20
5.3694499999999996
 30
0.0
 10
-1.3045599999999999
 20
5.3696299999999999
 30
0.0
 10
-1.3347899999999999
 20
5.3682299999999996
 30
0.0
  0
SPLINE
  5
39
100
AcDbEntity
  8
Layer-1
100
AcDbSpline
210
0.0
220
0.0
230
1.0
 70
     0
 71
     3
 72
    16
 73
    12
 74
     0
 42
0.0000000001
 43
0.0000000001
 40
0.0
 40
0.0
 40
0.0
 40
0.0
 40
0.3333333333333333
 40
0.3333333333333333
 40
0.3333333333333333
 40
0.3333333333333333
 40
0.6666666666666666
 40
0.6666666666666666
 40
0.6666666666666666
 40
0.6666666666666666
 40
1.0
 40
1.0
 40
1.0
 40
1.0
 10
-1.3347899999999999
 20
5.3682299999999996
 30
0.0
 10
-1.3347899999999999
 20
5.3682299999999996
 30
0.0
 10
-1.33748
 20
5.4435700000000002
 30
0.0
 10
-1.33748
 20
5.4435700000000002
 30
0.0
 10
-1.33748
 20
5.4435700000000002
 30
0.0
 10
-1.33748
 20
5.4435700000000002
 30
0.0
 10
-1.4349799999999999
 20
5.3933
 30
0.0
 10
-1.4349799999999999
 20
5.3933
 30
0.0
 10
-1.4349799999999999
 20
5.3933
 30
0.0
 10
-1.4349799999999999
 20
5.3933
 30
0.0
 10
-1.4125700000000001
 20
5.4436299999999997
 30
0.0
 10
-1.4125700000000001
 20
5.4436299999999997
 30
0.0
  0
SPLINE
  5
3A
100
AcDbEntity
  8
Layer-1
100
AcDbSpline
210
0.0
220
0.0
230
1.0
 70
     0
 71
     3
 72
     8
 73
     4
 74
     0
 42
0.0000000001
 43
0.0000000001
 40
0.0
 40
0.0
 40
0.0
 40
0.0
 40
1.0
 40
1.0
 40
1.0
 40
1.0
 10
-1.4125700000000001
 20
5.4436299999999997
 30
0.0
 10
-1.44278
 20
5.4450599999999998
 30
0.0
 10
-1.4919800000000001
 20
5.3694600000000001
 30
0.0
 10
-1.4919800000000001
 20
5.4000300000000001
 30
0.0
  0
SPLINE
  5
3B
100
AcDbEntity
  8
Layer-1
100
AcDbSpline
210
0.0
220
0.0
230
1.0
 70
     0
 71
     3
 72
     8
 73
     4
 74
     0
 42
0.0000000001
 43
0.0000000001
 40
0.0
 40
0.0
 40
0.0
 40
0.0
 40
1.0
 40
1.0
 40
1.0
 40
1.0
 10
-1.4919800000000001
 20
5.4000300000000001
 30
0.0
 10
-1.4919800000000001
 20
5.4000300000000001
 30
0.0
 10
-1.4919800000000001
 20
5.7169299999999996
 30
0.0
 10
-1.4919800000000001
 20
5.7169299999999996
 30
0.0
  0
SPLINE
  5
3C
100
AcDbEntity
  8
Layer-1
100
AcDbSpline
210
0.0
220
0.0
230
1.0
 70
     1
 71
     3
 72
    20
 73
    16
 74
     0
 42
0.0000000001
 43
0.0000000001
 40
0.0
 40
0.0
 40
0.0
 40
0.0
 40
0.25
 40
0.25
 40
0.25
 40
0.25
 40
0.5
 40
0.5
 40
0.5
 40
0.5
 40
0.75
 40
0.75
 40
0.75
 40
0.75
 40
1.0
 40
1.0
 40
1.0
 40
1.0
 10
2.0999599999999998
 20
4.7817699999999999
 30
0.0
 10
2.0999599999999998
 20
4.7817699999999999
 30
0.0
 10
2.41988
 20
4.7817699999999999
 30
0.0
 10
2.41988
 20
4.7817699999999999
 30
0.0
 10
2.41988
 20
4.7817699999999999
 30
0.0
 10
2.41988
 20
4.7817699999999999
 30
0.0
 10
2.41988
 20
4.2790600000000003
 30
0.0
 10
2.41988
 20
4.2790600000000003
 30
0.0
 10
2.41988
 20
4.2790600000000003
 30
0.0
 10
2.41988
 20
4.2790600000000003
 30
0.0
 10
2.0474100000000002
 20
4.2790600000000003
 30
0.0
 10
2.0474100000000002
 20
4.2790600000000003
 30
0.0
 10
2.0474100000000002
 20
4.2790600000000003
 30
0.0
 10
2.0474100000000002
 20
4.2790600000000003
 30
0.0
 10
2.0999599999999998
 20
4.7817699999999999
 30
0.0
 10
2.0999599999999998
 20
4.7817699999999999
 30
0.0
  0
SPLINE
  5
3D
100
AcDbEntity
  8
Layer-1
100
AcDbSpline
210
0.0
220
0.0
230
1.0
 70
     0
 71
     3
 72
     8
 73
     4
 74
     0
 42
0.0000000001
 43
0.0000000001
 40
0.0
 40
0.0
 40
0.0
 40
0.0
 40
1.0
 40
1.0
 40
1.0
 40
1.0
 10
-2.0864799999999999
 20
5.3238500000000002
 30
0.0
 10
-2.0864799999999999
 20
5.3238500000000002
 30
0.0
 10
2.3159800000000001
 20
5.3238500000000002
 30
0.0
 10
2.3159800000000001
 20
5.3238500000000002
 30
0.0
  0
SPLINE
  5
3E
100
AcDbEntity
  8
Layer-1
100
AcDbSpline
210
0.0
220
0.0
230
1.0
 70
     0
 71
     3
 72
     8
 73
     4
 74
     0
 42
0.0000000001
 43
0.0000000001
 40
0.0
 40
0.0
 40
0.0
 40
0.0
 40
1.0
 40
1.0
 40
1.0
 40
1.0
 10
2.3159800000000001
 20
5.3238500000000002
 30
0.0
 10
2.3317199999999998
 20
5.3238500000000002
 30
0.0
 10
2.2187999999999999
 20
5.33622
 30
0.0
 10
2.2187999999999999
 20
5.3204799999999999
 30
0.0
  0
SPLINE
  5
3F
100
AcDbEntity
  8
Layer-1
100
AcDbSpline
210
0.0
220
0.0
230
1.0
 70
     0
 71
     3
 72
     8
 73
     4
 74
     0
 42
0.0000000001
 43
0.0000000001
 40
0.0
 40
0.0
 40
0.0
 40
0.0
 40
1.0
 40
1.0
 40
1.0
 40
1.0
 10
2.2187999999999999
 20
5.3204799999999999
 30
0.0
 10
2.2187999999999999
 20
5.3204799999999999
 30
0.0
 10
2.12737
 20
5.1573500000000001
 30
0.0
 10
2.12737
 20
5.1573500000000001
 30
0.0
  0
SPLINE
  5
40
100
AcDbEntity
  8
Layer-1
100
AcDbSpline
210
0.0
220
0.0
230
1.0
 70
     0
 71
     3
 72
     8
 73
     4
 74
     0
 42
0.0000000001
 43
0.0000000001
 40
0.0
 40
0.0
 40
0.0
 40
0.0
 40
1.0
 40
1.0
 40
1.0
 40
1.0
 10
2.12737
 20
5.1573500000000001
 30
0.0
 10
2.12737
 20
5.14161
 30
0.0
 10
2.0696400000000001
 20
5.1295799999999998
 30
0.0
 10
2.0539000000000001
 20
5.1295799999999998
 30
0.0
  0
SPLINE
  5
41
100
AcDbEntity
  8
Layer-1
100
AcDbSpline
210
0.0
220
0.0
230
1.0
 70
     0
 71
     3
 72
     8
 73
     4
 74
     0
 42
0.0000000001
 43
0.0000000001
 40
0.0
 40
0.0
 40
0.0
 40
0.0
 40
1.0
 40
1.0
 40
1.0
 40
1.0
 10
2.0539000000000001
 20
5.1295799999999998
 30
0.0
 10
2.0539000000000001
 20
5.1295799999999998
 30
0.0
 10
-2.0911900000000001
 20
5.1295799999999998
 30
0.0
 10
-2.0911900000000001
 20
5.1295799999999998
 30
0.0
  0
SPLINE
  5
42
100
AcDbEntity
  8
Layer-1
100
AcDbSpline
210
0.0
220
0.0
230
1.0
 70
     0
 71
     3
 72
     8
 73
     4
 74
     0
 42
0.0000000001
 43
0.0000000001
 40
0.0
 40
0.0
 40
0.0
 40
0.0
 40
1.0
 40
1.0
 40
1.0
 40
1.0
 10
-2.0911900000000001
 20
5.1295799999999998
 30
0.0
 10
-2.1069200000000001
 20
5.1295799999999998
 30
0.0
 10
-2.1149800000000001
 20
5.1907399999999999
 30
0.0
 10
-2.1149800000000001
 20
5.20648
 30
0.0
  0
SPLINE
  5
43
100
AcDbEntity
  8
Layer-1
100
AcDbSpline
210
0.0
220
0.0
230
1.0
 70
     0
 71
     3
 72
     8
 73
     4
 74
     0
 42
0.0000000001
 43
0.0000000001
 40
0.0
 40
0.0
 40
0.0
 40
0.0
 40
1.0
 40
1.0
 40
1.0
 40
1.0
 10
-2.1149800000000001
 20
5.20648
 30
0.0
 10
-2.1149800000000001
 20
5.20648
 30
0.0
 10
-2.1149800000000001
 20
5.2702099999999996
 30
0.0
 10
-2.1149800000000001
 20
5.2702099999999996
 30
0.0
  0
SPLINE
  5
44
100
AcDbEntity
  8
Layer-1
100
AcDbSpline
210
0.0
220
0.0
230
1.0
 70
     0
 71
     3
 72
     8
 73
     4
 74
     0
 42
0.0000000001
 43
0.0000000001
 40
0.0
 40
0.0
 40
0.0
 40
0.0
 40
1.0
 40
1.0
 40
1.0
 40
1.0
 10
-2.1149800000000001
 20
5.2702099999999996
 30
0.0
 10
-2.1149800000000001
 20
5.2859499999999997
 30
0.0
 10
-2.0864799999999999
 20
5.3238500000000002
 30
0.0
 10
-2.0864799999999999
 20
5.3238500000000002
 30
0.0
  0
SPLINE
  5
45
100
AcDbEntity
  8
Layer-1
100
AcDbSpline
210
0.0
220
0.0
230
1.0
 70
     1
 71
     3
 72
    20
 73
    16
 74
     0
 42
0.0000000001
 43
0.0000000001
 40
0.0
 40
0.0
 40
0.0
 40
0.0
 40
0.25
 40
0.25
 40
0.25
 40
0.25
 40
0.5
 40
0.5
 40
0.5
 40
0.5
 40
0.75
 40
0.75
 40
0.75
 40
0.75
 40
1.0
 40
1.0
 40
1.0
 40
1.0
 10
1.9598899999999999
 20
5.4242999999999997
 30
0.0
 10
1.9598899999999999
 20
5.5378999999999996
 30
0.0
 10
2.0519799999999999
 20
5.6299799999999998
 30
0.0
 10
2.1655700000000002
 20
5.6299799999999998
 30
0.0
 10
2.1655700000000002
 20
5.6299799999999998
 30
0.0
 10
2.2791600000000001
 20
5.6299799999999998
 30
0.0
 10
2.3712499999999999
 20
5.5378999999999996
 30
0.0
 10
2.3712499999999999
 20
5.4242999999999997
 30
0.0
 10
2.3712499999999999
 20
5.4242999999999997
 30
0.0
 10
2.3712499999999999
 20
5.3107100000000003
 30
0.0
 10
2.2791600000000001
 20
5.2186300000000001
 30
0.0
 10
2.1655700000000002
 20
5.2186300000000001
 30
0.0
 10
2.1655700000000002
 20
5.2186300000000001
 30
0.0
 10
2.0519799999999999
 20
5.2186300000000001
 30
0.0
 10
1.9598899999999999
 20
5.3107100000000003
 30
0.0
 10
1.9598899999999999
 20
5.4242999999999997
 30
0.0
  0
SPLINE
  5
46
100
AcDbEntity
  8
Layer-1
100
AcDbSpline
210
0.0
220
0.0
230
1.0
 70
     1
 71
     3
 72
    20
 73
    16
 74
     0
 42
0.0000000001
 43
0.0000000001
 40
0.0
 40
0.0
 40
0.0
 40
0.0
 40
0.25
 40
0.25
 40
0.25
 40
0.25
 40
0.5
 40
0.5
 40
0.5
 40
0.5
 40
0.75
 40
0.75
 40
0.75
 40
0.75
 40
1.0
 40
1.0
 40
1.0
 40
1.0
 10
-0.26481
 20
5.9685199999999998
 30
0.0
 10
-0.26481
 20
5.9685199999999998
 30
0.0
 10
0.63164
 20
5.9685199999999998
 30
0.0
 10
0.63164
 20
5.9685199999999998
 30
0.0
 10
0.63164
 20
5.9685199999999998
 30
0.0
 10
0.63164
 20
5.9685199999999998
 30
0.0
 10
0.63164
 20
5.7676100000000003
 30
0.0
 10
0.63164
 20
5.7676100000000003
 30
0.0
 10
0.63164
 20
5.7676100000000003
 30
0.0
 10
0.63164
 20
5.7676100000000003
 30
0.0
 10
-0.26481
 20
5.7676100000000003
 30
0.0
 10
-0.26481
 20
5.7676100000000003
 30
0.0
 10
-0.26481
 20
5.7676100000000003
 30
0.0
 10
-0.26481
 20
5.7676100000000003
 30
0.0
 10
-0.26481
 20
5.9685199999999998
 30
0.0
 10
-0.26481
 20
5.9685199999999998
 30
0.0
  0
SPLINE
  5
47
100
AcDbEntity
  8
Layer-1
100
AcDbSpline
210
0.0
220
0.0
230
1.0
 70
     0
 71
     3
 72
     8
 73
     4
 74
     0
 42
0.0000000001
 43
0.0000000001
 40
0.0
 40
0.0
 40
0.0
 40
0.0
 40
1.0
 40
1.0
 40
1.0
 40
1.0
 10
-4.1013799999999998
 20
6.7980200000000002
 30
0.0
 10
-4.1013799999999998
 20
6.7980200000000002
 30
0.0
 10
4.4154099999999996
 20
-1.74824
 30
0.0
 10
4.4154099999999996
 20
-1.74824
 30
0.0
  0
SPLINE
  5
48
100
AcDbEntity
  8
Layer-1
100
AcDbSpline
210
0.0
220
0.0
230
1.0
 70
     0
 71
     3
 72
     8
 73
     4
 74
     0
 42
0.0000000001
 43
0.0000000001
 40
0.0
 40
0.0
 40
0.0
 40
0.0
 40
1.0
 40
1.0
 40
1.0
 40
1.0
 10
4.3821700000000003
 20
6.8017200000000004
 30
0.0
 10
4.3821700000000003
 20
6.8017200000000004
 30
0.0
 10
-4.1345499999999999
 20
-1.74824
 30
0.0
 10
-4.1345499999999999
 20
-1.74824
 30
0.0
  0
SPLINE
  5
49
100
AcDbEntity
  8
Layer-1
100
AcDbSpline
210
0.0
220
0.0
230
1.0
 70
     1
 71
     3
 72
    20
 73
    16
 74
     0
 42
0.0000000001
 43
0.0000000001
 40
0.0
 40
0.0
 40
0.0
 40
0.0
 40
0.25
 40
0.25
 40
0.25
 40
0.25
 40
0.5
 40
0.5
 40
0.5
 40
0.5
 40
0.75
 40
0.75
 40
0.75
 40
0.75
 40
1.0
 40
1.0
 40
1.0
 40
1.0
 10
1.1978
 20
-0.42359
 30
0.0
 10
1.1978
 20
-0.30519
 30
0.0
 10
1.2937799999999999
 20
-0.20921
 30
0.0
 10
1.4121699999999999
 20
-0.20921
 30
0.0
 10
1.4121699999999999
 20
-0.20921
 30
0.0
 10
1.53057
 20
-0.20921
 30
0.0
 10
1.6265499999999999
 20
-0.30519
 30
0.0
 10
1.6265499999999999
 20
-0.42359
 30
0.0
 10
1.6265499999999999
 20
-0.42359
 30
0.0
 10
1.6265499999999999
 20
-0.54198
 30
0.0
 10
1.53057
 20
-0.63796
 30
0.0
 10
1.4121699999999999
 20
-0.63796
 30
0.0
 10
1.4121699999999999
 20
-0.63796
 30
0.0
 10
1.2937799999999999
 20
-0.63796
 30
0.0
 10
1.1978
 20
-0.54198
 30
0.0
 10
1.1978
 20
-0.42359
 30
0.0
  0
SPLINE
  5
4A
100
AcDbEntity
  8
Layer-1
100
AcDbSpline
210
0.0
220
0.0
230
1.0
 70
     1
 71
     3
 72
    20
 73
    16
 74
     0
 42
0.0000000001
 43
0.0000000001
 40
0.0
 40
0.0
 40
0.0
 40
0.0
 40
0.25
 40
0.25
 40
0.25
 40
0.25
 40
0.5
 40
0.5
 40
0.5
 40
0.5
 40
0.75
 40
0.75
 40
0.75
 40
0.75
 40
1.0
 40
1.0
 40
1.0
 40
1.0
 10
1.09951
 20
-0.44017
 30
0.0
 10
1.09951
 20
-0.6118
 30
0.0
 10
1.23864
 20
-0.75092
 30
0.0
 10
1.4102699999999999
 20
-0.75092
 30
0.0
 10
1.4102699999999999
 20
-0.75092
 30
0.0
 10
1.58189
 20
-0.75092
 30
0.0
 10
1.72102
 20
-0.6118
 30
0.0
 10
1.72102
 20
-0.44017
 30
0.0
 10
1.72102
 20
-0.44017
 30
0.0
 10
1.72102
 20
-0.26854
 30
0.0
 10
1.58189
 20
-0.12941
 30
0.0
 10
1.4102699999999999
 20
-0.12941
 30
0.0
 10
1.4102699999999999
 20
-0.12941
 30
0.0
 10
1.23864
 20
-0.12941
 30
0.0
 10
1.09951
 20
-0.26854
 30
0.0
 10
1.09951
 20
-0.44017
 30
0.0
  0
SPLINE
  5
4B
100
AcDbEntity
  8
Layer-1
100
AcDbSpline
210
0.0
220
0.0
230
1.0
 70
     1
 71
     3
 72
    20
 73
    16
 74
     0
 42
0.0000000001
 43
0.0000000001
 40
0.0
 40
0.0
 40
0.0
 40
0.0
 40
0.25
 40
0.25
 40
0.25
 40
0.25
 40
0.5
 40
0.5
 40
0.5
 40
0.5
 40
0.75
 40
0.75
 40
0.75
 40
0.75
 40
1.0
 40
1.0
 40
1.0
 40
1.0
 10
0.89558
 20
-0.44652
 30
0.0
 10
0.89063
 20
-0.16324
 30
0.0
 10
1.11626
 20
0.07041
 30
0.0
 10
1.3995500000000001
 20
0.07536
 30
0.0
 10
1.3995500000000001
 20
0.07536
 30
0.0
 10
1.68283
 20
0.0803
 30
0.0
 10
1.91648
 20
-0.14532
 30
0.0
 10
1.9214199999999999
 20
-0.42861
 30
0.0
 10
1.9214199999999999
 20
-0.42861
 30
0.0
 10
1.9263699999999999
 20
-0.71189
 30
0.0
 10
1.7007399999999999
 20
-0.94553
 30
0.0
 10
1.4174599999999999
 20
-0.95047
 30
0.0
 10
1.4174599999999999
 20
-0.95047
 30
0.0
 10
1.1341699999999999
 20
-0.9554200000000001
 30
0.0
 10
0.9005300000000001
 20
-0.7298
 30
0.0
 10
0.89558
 20
-0.44652
 30
0.0
  0
SPLINE
  5
4C
100
AcDbEntity
  8
Layer-1
100
AcDbSpline
210
0.0
220
0.0
230
1.0
 70
     0
 71
     3
 72
    20
 73
    16
 74
     0
 42
0.0000000001
 43
0.0000000001
 40
0.0
 40
0.0
 40
0.0
 40
0.0
 40
0.25
 40
0.25
 40
0.25
 40
0.25
 40
0.5
 40
0.5
 40
0.5
 40
0.5
 40
0.75
 40
0.75
 40
0.75
 40
0.75
 40
1.0
 40
1.0
 40
1.0
 40
1.0
 10
1.1978
 20
-0.4437
 30
0.0
 10
1.1978
 20
-0.56209
 30
0.0
 10
1.2937799999999999
 20
-0.65807
 30
0.0
 10
1.4121699999999999
 20
-0.65807
 30
0.0
 10
1.4121699999999999
 20
-0.65807
 30
0.0
 10
1.53057
 20
-0.65807
 30
0.0
 10
1.6265499999999999
 20
-0.56209
 30
0.0
 10
1.6265499999999999
 20
-0.4437
 30
0.0
 10
1.6265499999999999
 20
-0.4437
 30
0.0
 10
1.6265499999999999
 20
-0.3253
 30
0.0
 10
1.53057
 20
-0.22932
 30
0.0
 10
1.4121699999999999
 20
-0.22932
 30
0.0
 10
1.4121699999999999
 20
-0.22932
 30
0.0
 10
1.2937799999999999
 20
-0.22932
 30
0.0
 10
1.1978
 20
-0.3253
 30
0.0
 10
1.1978
 20
-0.4437
 30
0.0
  0
SPLINE
  5
4D
100
AcDbEntity
  8
Layer-1
100
AcDbSpline
210
0.0
220
0.0
230
1.0
 70
     0
 71
     3
 72
    20
 73
    16
 74
     0
 42
0.0000000001
 43
0.0000000001
 40
0.0
 40
0.0
 40
0.0
 40
0.0
 40
0.25
 40
0.25
 40
0.25
 40
0.25
 40
0.5
 40
0.5
 40
0.5
 40
0.5
 40
0.75
 40
0.75
 40
0.75
 40
0.75
 40
1.0
 40
1.0
 40
1.0
 40
1.0
 10
1.09951
 20
-0.44017
 30
0.0
 10
1.09951
 20
-0.26854
 30
0.0
 10
1.23864
 20
-0.12941
 30
0.0
 10
1.4102699999999999
 20
-0.12941
 30
0.0
 10
1.4102699999999999
 20
-0.12941
 30
0.0
 10
1.58189
 20
-0.12941
 30
0.0
 10
1.72102
 20
-0.26854
 30
0.0
 10
1.72102
 20
-0.44017
 30
0.0
 10
1.72102
 20
-0.44017
 30
0.0
 10
1.72102
 20
-0.6118
 30
0.0
 10
1.58189
 20
-0.75092
 30
0.0
 10
1.4102699999999999
 20
-0.75092
 30
0.0
 10
1.4102699999999999
 20
-0.75092
 30
0.0
 10
1.23864
 20
-0.75092
 30
0.0
 10
1.09951
 20
-0.6118
 30
0.0
 10
1.09951
 20
-0.44017
 30
0.0
  0
ENDSEC
  0
SECTION
  2
OBJECTS
  0
DICTIONARY
  5
19
100
AcDbDictionary
280
     0
281
     1
  3
ACAD_GROUP
350
1A
  3
ACAD_MLINESTYLE
350
1B
  3
ACAD_LAYOUT
350
1E
  3
ACAD_PLOTSETTINGS
350
22
  3
ACAD_PLOTSTYLENAME
350
1F
  3
ACAD_WIPEOUT_VARS
350
23
  0
DICTIONARY
  5
1A
102
{ACAD_REACTORS
330
19
102
}
100
AcDbDictionary
280
     0
281
     1
  0
DICTIONARY
  5
1B
102
{ACAD_REACTORS
330
19
102
}
100
AcDbDictionary
280
     0
281
     1
  3
Standard
350
1C
  0
MLINESTYLE
  5
1C
102
{ACAD_REACTORS
330
1B
102
}
100
AcDbMlineStyle
  2
Standard
 70
     0
  3

 62
     0
 51
90.0
 52
90.0
 71
     2
 49
0.5
 62
   256
  6
BYLAYER
 49
-0.5
 62
   256
  6
BYLAYER
  0
ACDBDICTIONARYWDFLT
  5
1F
102
{ACAD_REACTORS
330
19
102
}
100
AcDbDictionary
281
     1
  3
Normal
350
1D
100
AcDbDictionaryWithDefault
340
1D
  0
ACDBPLACEHOLDER
  5
1D
102
{ACAD_REACTORS
330
1F
102
}
  0
LAYOUT
  5
20
102
{ACAD_REACTORS
330
1E
102
}
100
AcDbPlotSettings
  1

  2

  4

  6

 40
0.0
 41
0.0
 42
0.0
 43
0.0
 44
0.0
 45
0.0
 46
0.0
 47
0.0
 48
0.0
 49
0.0
140
0.0
141
0.0
142
1.0
143
1.0
 70
  1024
 72
     0
 73
     0
 74
     0
  7

 75
     0
147
1.0
148
0.0
149
0.0
100
AcDbLayout
  1
Model
 70
     0
 71
     0
 10
0.0
 20
0.0
 11
0.0
 21
0.0
 12
0.0
 22
0.0
 32
0.0
 14
0.0
 24
0.0
 34
0.0
 15
0.0
 25
0.0
 35
0.0
146
0.0
 13
0.0
 23
0.0
 33
0.0
 16
0.0
 26
0.0
 36
0.0
 17
0.0
 27
0.0
 37
0.0
 76
     0
330
A
331
0
345
0
346
0
  0
LAYOUT
  5
21
102
{ACAD_REACTORS
330
1E
102
}
100
AcDbPlotSettings
  1

  2

  4

  6

 40
0.0
 41
0.0
 42
0.0
 43
0.0
 44
0.0
 45
0.0
 46
0.0
 47
0.0
 48
0.0
 49
0.0
140
0.0
141
0.0
142
1.0
143
1.0
 70
     0
 72
     0
 73
     0
 74
     0
  7

 75
     0
147
1.0
148
0.0
149
0.0
100
AcDbLayout
  1
Layout1
 70
     0
 71
     0
 10
0.0
 20
0.0
 11
0.0
 21
0.0
 12
0.0
 22
0.0
 32
0.0
 14
0.0
 24
0.0
 34
0.0
 15
0.0
 25
0.0
 35
0.0
146
0.0
 13
0.0
 23
0.0
 33
0.0
 16
0.0
 26
0.0
 36
0.0
 17
0.0
 27
0.0
 37
0.0
 76
     0
330
B
331
0
345
0
346
0
  0
DICTIONARY
  5
1E
102
{ACAD_REACTORS
330
19
102
}
100
AcDbDictionary
280
     0
281
     1
  3
Layout1
350
21
  3
Model
350
20
  0
DICTIONARY
  5
22
102
{ACAD_REACTORS
330
19
102
}
100
AcDbDictionary
280
     0
281
     1
  0
WIPEOUTVARIABLES
  5
23
100
AcDbWipeoutVariables
 70
     1
  0
ENDSEC
  0
EOF
