  0
SECTION
  2
HEADER
  9
$ACADVER
  1
AC1003
  9
$INSBASE
 10
0.0
 20
0.0
  9
$EXTMIN
 10
-150
 20
-150
  9
$EXTMAX
 10
150
 20
150
  9
$LIMMIN
 10
0.0
 20
0.0
  9
$LIMMAX
 10
300.0
 20
225.0
  9
$VIEWCTR
 10
7.378144
 20
4.5
  9
$VIEWSIZE
 40
9.0
  9
$SNAPMODE
 70
     0
  9
$SNAPUNIT
 10
1.0
 20
1.0
  9
$SNAPBASE
 10
0.0
 20
0.0
  9
$SNAPANG
 50
0.0
  9
$SNAPSTYLE
 70
     0
  9
$SNAPISOPAIR
 70
     0
  9
$GRIDMODE
 70
     0
  9
$GRIDUNIT
 10
0.0
 20
0.0
  9
$ORTHOMODE
 70
     0
  9
$REGENMODE
 70
     1
  9
$FILLMODE
 70
     1
  9
$QTEXTMODE
 70
     0
  9
$DRAGMODE
 70
     2
  9
$LTSCALE
 40
1.0
  9
$OSMODE
 70
     0
  9
$ATTMODE
 70
     1
  9
$TEXTSIZE
 40
0.2
  9
$TRACEWID
 40
0.05
  9
$TEXTSTYLE
  7
STANDARD
  9
$CLAYER
  8
0
  9
$CELTYPE
  6
BYLAYER
  9
$CECOLOR
 62
   256
  9
$DIMSCALE
 40
1.0
  9
$DIMASZ
 40
0.18
  9
$DIMEXO
 40
0.0625
  9
$DIMDLI
 40
0.38
  9
$DIMRND
 40
0.0
  9
$DIMDLE
 40
0.0
  9
$DIMEXE
 40
0.18
  9
$DIMTP
 40
0.0
  9
$DIMTM
 40
0.0
  9
$DIMTXT
 40
0.18
  9
$DIMCEN
 40
0.09
  9
$DIMTSZ
 40
0.0
  9
$DIMTOL
 70
     0
  9
$DIMLIM
 70
     0
  9
$DIMTIH
 70
     1
  9
$DIMTOH
 70
     1
  9
$DIMSE1
 70
     0
  9
$DIMSE2
 70
     0
  9
$DIMTAD
 70
     0
  9
$DIMZIN
 70
     0
  9
$DIMBLK
  1

  9
$DIMASO
 70
     1
  9
$DIMSHO
 70
     0
  9
$DIMPOST
  1

  9
$DIMAPOST
  1

  9
$DIMALT
 70
     0
  9
$DIMALTD
 70
     2
  9
$DIMALTF
 40
25.4
  9
$DIMLFAC
 40
1.0
  9
$LUNITS
 70
     2
  9
$LUPREC
 70
     4
  9
$AXISMODE
 70
     0
  9
$AXISUNIT
 10
0.0
 20
0.0
  9
$SKETCHINC
 40
0.1
  9
$FILLETRAD
 40
0.0
  9
$AUNITS
 70
     0
  9
$AUPREC
 70
     0
  9
$MENU
  1
ACAD
  9
$ELEVATION
 40
0.0
  9
$THICKNESS
 40
0.0
  9
$VIEWDIR
 10
0.0
 20
0.0
 30
1.0
  9
$LIMCHECK
 70
     0
  9
$BLIPMODE
 70
     1
  9
$CHAMFERA
 40
0.0
  9
$CHAMFERB
 40
0.0
  9
$FASTZOOM
 70
     1
  9
$SKPOLY
 70
     0
  9
$TDCREATE
 40
2447732.6512363921
  9
$TDUPDATE
 40
2447732.6512363921
  9
$TDINDWG
 40
0.0000000000
  9
$TDUSRTIMER
 40
0.0000000000
  9
$USRTIMER
 70
     1
  9
$ANGBASE
 50
0.0
  9
$ANGDIR
 70
     0
  9
$PDMODE
 70
     0
  9
$PDSIZE
 40
0.0
  9
$PLINEWID
 40
0.0
  9
$COORDS
 70
     0
  9
$USERI1
 70
     0
  9
$USERI2
 70
     0
  9
$USERI3
 70
     0
  9
$USERI4
 70
     0
  9
$USERI5
 70
     0
  9
$USERR1
 40
0.0
  9
$USERR2
 40
0.0
  9
$USERR3
 40
0.0
  9
$USERR4
 40
0.0
  9
$USERR5
 40
0.0
  0
ENDSEC
  0
SECTION
  2
TABLES
  0
TABLE
  2
LTYPE
  70
     2
  0
LTYPE
  2
CONTINUOUS
 70
    64
  3
Solid line
 72
    65
 73
     0
 40
0.0
  0
ENDTAB
  0
TABLE
  2
LAYER
 70
     9
  0
LAYER
  2
0
 70
     0
 62
     7
  6
CONTINUOUS
  0
LAYER
  2
1
 70
     0
 62
     1
  6
CONTINUOUS
  0
LAYER
  2
2
 70
     0
 62
     2
  6
CONTINUOUS
  0
LAYER
  2
3
 70
     0
 62
     3
  6
CONTINUOUS
  0
LAYER
  2
4
 70
     0
 62
     4
  6
CONTINUOUS
  0
LAYER
  2
5
 70
     0
 62
     5
  6
CONTINUOUS
  0
LAYER
  2
6
 70
     0
 62
     6
  6
CONTINUOUS
  0
LAYER
  2
7
 70
     0
 62
     7
  6
CONTINUOUS
  0
LAYER
  2
8
 70
     0
 62
     7
  6
CONTINUOUS
  0
ENDTAB
  0
TABLE
  2
STYLE
 70
     5
  0
STYLE
  2
STANDARD
 70
     0
 40
0.0
 41
1.0
 50
0.0
 71
     0
 42
0.2
  3
TXT
  4

  0
STYLE
  2
GREEK
 70
     0
 40
0.0
 41
1.0
 50
0.0
 71
     0
 42
0.2
  3
GREEKC
  4

  0
STYLE
  2
ITALICC
 70
     0
 40
0.0
 41
1.0
 50
0.0
 71
     0
 42
0.2
  3
ITALICC
  4

  0
STYLE
  2
MONOTXT
 70
     0
 40
0.0
 41
1.0
 50
0.0
 71
     0
 42
0.2
  3
MONOTXT
  4

  0
STYLE
  2
GOTHICE
 70
     0
 40
0.0
 41
1.0
 50
0.0
 71
     0
 42
0.2
  3
GOTHICE
  4

  0
ENDTAB
  0
TABLE
  2
VIEW
 70
     0
  0
ENDTAB
  0
ENDSEC
  0
SECTION
  2
BLOCKS
  0
ENDSEC
  0
SECTION
  2
ENTITIES
  0
POLYLINE
  8
5
  6
CONTINUOUS
 66
  1
  0
VERTEX
  8
5
  10
29.018
  20
-0.279
  0
VERTEX
  8
5
  10
29.323
  20
-1.600
  0
VERTEX
  8
5
  10
29.678
  20
-2.896
  0
VERTEX
  8
5
  10
30.110
  20
-4.167
  0
VERTEX
  8
5
  10
30.568
  20
-5.412
  0
VERTEX
  8
5
  10
31.101
  20
-6.632
  0
VERTEX
  8
5
  10
31.660
  20
-7.826
  0
VERTEX
  8
5
  10
32.296
  20
-8.995
  0
VERTEX
  8
5
  10
32.956
  20
-10.113
  0
VERTEX
  8
5
  10
33.668
  20
-11.205
  0
VERTEX
  8
5
  10
34.430
  20
-12.273
  0
VERTEX
  8
5
  10
35.243
  20
-13.314
  0
VERTEX
  8
5
  10
36.082
  20
-14.305
  0
VERTEX
  8
5
  10
36.971
  20
-15.271
  0
VERTEX
  8
5
  10
37.886
  20
-16.186
  0
VERTEX
  8
5
  10
38.851
  20
-17.075
  0
VERTEX
  8
5
  10
39.842
  20
-17.914
  0
VERTEX
  8
5
  10
40.884
  20
-18.727
  0
VERTEX
  8
5
  10
41.951
  20
-19.464
  0
VERTEX
  8
5
  10
43.044
  20
-20.200
  0
VERTEX
  8
5
  10
44.187
  20
-20.861
  0
VERTEX
  8
5
  10
45.356
  20
-21.471
  0
VERTEX
  8
5
  10
46.525
  20
-22.055
  0
VERTEX
  8
5
  10
47.745
  20
-22.589
  0
VERTEX
  8
5
  10
49.015
  20
-23.046
  0
VERTEX
  8
5
  10
50.286
  20
-23.478
  0
VERTEX
  8
5
  10
51.582
  20
-23.834
  0
VERTEX
  8
5
  10
52.878
  20
-24.164
  0
VERTEX
  8
5
  10
54.224
  20
-24.419
  0
VERTEX
  8
5
  10
55.571
  20
-24.622
  0
VERTEX
  8
5
  10
56.969
  20
-24.774
  0
VERTEX
  8
5
  10
58.366
  20
-24.876
  0
VERTEX
  8
5
  10
59.764
  20
-24.901
  0
VERTEX
  8
5
  10
60.043
  20
-24.901
  0
VERTEX
  8
5
  10
60.323
  20
-24.901
  0
VERTEX
  8
5
  10
60.577
  20
-24.901
  0
VERTEX
  8
5
  10
60.856
  20
-24.876
  0
VERTEX
  8
5
  10
61.136
  20
-24.876
  0
VERTEX
  8
5
  10
61.390
  20
-24.876
  0
VERTEX
  8
5
  10
61.670
  20
-24.850
  0
VERTEX
  8
5
  10
61.949
  20
-24.825
  0
VERTEX
  8
5
  10
62.203
  20
-24.825
  0
VERTEX
  8
5
  10
62.483
  20
-24.800
  0
VERTEX
  8
5
  10
62.737
  20
-24.774
  0
VERTEX
  8
5
  10
63.016
  20
-24.749
  0
VERTEX
  8
5
  10
63.270
  20
-24.723
  0
VERTEX
  8
5
  10
63.525
  20
-24.698
  0
VERTEX
  8
5
  10
63.804
  20
-24.647
  0
VERTEX
  8
5
  10
64.058
  20
-24.622
  0
VERTEX
  8
5
  10
64.058
  20
-38.267
  0
VERTEX
  8
5
  10
63.779
  20
-38.292
  0
VERTEX
  8
5
  10
63.474
  20
-38.318
  0
VERTEX
  8
5
  10
63.194
  20
-38.369
  0
VERTEX
  8
5
  10
62.889
  20
-38.394
  0
VERTEX
  8
5
  10
62.584
  20
-38.419
  0
VERTEX
  8
5
  10
62.254
  20
-38.445
  0
VERTEX
  8
5
  10
61.949
  20
-38.470
  0
VERTEX
  8
5
  10
61.644
  20
-38.496
  0
VERTEX
  8
5
  10
61.314
  20
-38.521
  0
VERTEX
  8
5
  10
61.009
  20
-38.546
  0
VERTEX
  8
5
  10
60.704
  20
-38.572
  0
VERTEX
  8
5
  10
60.374
  20
-38.597
  0
VERTEX
  8
5
  10
60.069
  20
-38.597
  0
VERTEX
  8
5
  10
59.764
  20
-38.623
  0
VERTEX
  8
5
  10
59.484
  20
-38.623
  0
VERTEX
  8
5
  10
59.179
  20
-38.623
  0
VERTEX
  8
5
  10
56.816
  20
-38.572
  0
VERTEX
  8
5
  10
54.479
  20
-38.394
  0
VERTEX
  8
5
  10
52.192
  20
-38.089
  0
VERTEX
  8
5
  10
49.956
  20
-37.708
  0
VERTEX
  8
5
  10
47.745
  20
-37.200
  0
VERTEX
  8
5
  10
45.585
  20
-36.590
  0
VERTEX
  8
5
  10
43.476
  20
-35.878
  0
VERTEX
  8
5
  10
41.418
  20
-35.065
  0
VERTEX
  8
5
  10
39.436
  20
-34.151
  0
VERTEX
  8
5
  10
37.479
  20
-33.160
  0
VERTEX
  8
5
  10
35.599
  20
-32.067
  0
VERTEX
  8
5
  10
33.769
  20
-30.898
  0
VERTEX
  8
5
  10
32.016
  20
-29.628
  0
VERTEX
  8
5
  10
30.314
  20
-28.281
  0
VERTEX
  8
5
  10
28.713
  20
-26.858
  0
VERTEX
  8
5
  10
27.163
  20
-25.359
  0
VERTEX
  8
5
  10
25.664
  20
-23.783
  0
VERTEX
  8
5
  10
24.266
  20
-22.157
  0
VERTEX
  8
5
  10
22.945
  20
-20.455
  0
VERTEX
  8
5
  10
21.725
  20
-18.676
  0
VERTEX
  8
5
  10
20.556
  20
-16.846
  0
VERTEX
  8
5
  10
19.489
  20
-14.966
  0
VERTEX
  8
5
  10
18.523
  20
-13.009
  0
VERTEX
  8
5
  10
17.634
  20
-11.002
  0
VERTEX
  8
5
  10
16.846
  20
-8.969
  0
VERTEX
  8
5
  10
16.160
  20
-6.860
  0
VERTEX
  8
5
  10
15.550
  20
-4.726
  0
VERTEX
  8
5
  10
15.068
  20
-2.540
  0
VERTEX
  8
5
  10
14.686
  20
-0.330
  0
VERTEX
  8
5
  10
14.407
  20
1.931
  0
VERTEX
  8
5
  10
14.229
  20
4.218
  0
VERTEX
  8
5
  10
14.178
  20
6.530
  0
VERTEX
  8
5
  10
14.229
  20
8.842
  0
VERTEX
  8
5
  10
14.407
  20
11.129
  0
VERTEX
  8
5
  10
14.712
  20
13.391
  0
VERTEX
  8
5
  10
15.093
  20
15.601
  0
VERTEX
  8
5
  10
15.601
  20
17.787
  0
VERTEX
  8
5
  10
16.211
  20
19.921
  0
VERTEX
  8
5
  10
16.948
  20
22.030
  0
VERTEX
  8
5
  10
17.761
  20
24.063
  0
VERTEX
  8
5
  10
18.650
  20
26.070
  0
VERTEX
  8
5
  10
19.667
  20
28.001
  0
VERTEX
  8
5
  10
20.759
  20
29.882
  0
VERTEX
  8
5
  10
21.928
  20
31.711
  0
VERTEX
  8
5
  10
23.199
  20
33.490
  0
VERTEX
  8
5
  10
24.546
  20
35.192
  0
VERTEX
  8
5
  10
25.969
  20
36.819
  0
VERTEX
  8
5
  10
27.493
  20
38.394
  0
VERTEX
  8
5
  10
29.043
  20
39.868
  0
VERTEX
  8
5
  10
30.695
  20
41.291
  0
VERTEX
  8
5
  10
32.423
  20
42.637
  0
VERTEX
  8
5
  10
34.201
  20
43.883
  0
VERTEX
  8
5
  10
36.031
  20
45.051
  0
VERTEX
  8
5
  10
37.911
  20
46.144
  0
VERTEX
  8
5
  10
39.868
  20
47.135
  0
VERTEX
  8
5
  10
41.875
  20
48.050
  0
VERTEX
  8
5
  10
43.933
  20
48.838
  0
VERTEX
  8
5
  10
46.042
  20
49.549
  0
VERTEX
  8
5
  10
48.177
  20
50.159
  0
VERTEX
  8
5
  10
50.362
  20
50.667
  0
VERTEX
  8
5
  10
52.598
  20
51.074
  0
VERTEX
  8
5
  10
54.834
  20
51.353
  0
VERTEX
  8
5
  10
57.147
  20
51.531
  0
VERTEX
  8
5
  10
59.459
  20
51.582
  0
VERTEX
  8
5
  10
59.764
  20
51.582
  0
VERTEX
  8
5
  10
60.043
  20
51.582
  0
VERTEX
  8
5
  10
60.374
  20
51.582
  0
VERTEX
  8
5
  10
60.679
  20
51.556
  0
VERTEX
  8
5
  10
60.984
  20
51.556
  0
VERTEX
  8
5
  10
61.314
  20
51.556
  0
VERTEX
  8
5
  10
61.619
  20
51.531
  0
VERTEX
  8
5
  10
61.949
  20
51.531
  0
VERTEX
  8
5
  10
62.254
  20
51.506
  0
VERTEX
  8
5
  10
62.584
  20
51.480
  0
VERTEX
  8
5
  10
62.889
  20
51.480
  0
VERTEX
  8
5
  10
63.220
  20
51.455
  0
VERTEX
  8
5
  10
63.525
  20
51.429
  0
VERTEX
  8
5
  10
63.829
  20
51.404
  0
VERTEX
  8
5
  10
64.134
  20
51.379
  0
VERTEX
  8
5
  10
64.414
  20
51.353
  0
VERTEX
  8
5
  10
64.363
  20
37.301
  0
VERTEX
  8
5
  10
64.109
  20
37.352
  0
VERTEX
  8
5
  10
63.829
  20
37.378
  0
VERTEX
  8
5
  10
63.550
  20
37.428
  0
VERTEX
  8
5
  10
63.270
  20
37.479
  0
VERTEX
  8
5
  10
62.965
  20
37.530
  0
VERTEX
  8
5
  10
62.686
  20
37.581
  0
VERTEX
  8
5
  10
62.381
  20
37.632
  0
VERTEX
  8
5
  10
62.076
  20
37.708
  0
VERTEX
  8
5
  10
61.797
  20
37.733
  0
VERTEX
  8
5
  10
61.492
  20
37.784
  0
VERTEX
  8
5
  10
61.187
  20
37.835
  0
VERTEX
  8
5
  10
60.907
  20
37.860
  0
VERTEX
  8
5
  10
60.602
  20
37.886
  0
VERTEX
  8
5
  10
60.323
  20
37.911
  0
VERTEX
  8
5
  10
60.043
  20
37.937
  0
VERTEX
  8
5
  10
59.764
  20
37.937
  0
VERTEX
  8
5
  10
58.366
  20
37.911
  0
VERTEX
  8
5
  10
56.969
  20
37.810
  0
VERTEX
  8
5
  10
55.622
  20
37.657
  0
VERTEX
  8
5
  10
54.250
  20
37.454
  0
VERTEX
  8
5
  10
52.929
  20
37.200
  0
VERTEX
  8
5
  10
51.633
  20
36.869
  0
VERTEX
  8
5
  10
50.337
  20
36.488
  0
VERTEX
  8
5
  10
49.066
  20
36.082
  0
VERTEX
  8
5
  10
47.821
  20
35.599
  0
VERTEX
  8
5
  10
46.627
  20
35.065
  0
VERTEX
  8
5
  10
45.433
  20
34.481
  0
VERTEX
  8
5
  10
44.264
  20
33.871
  0
VERTEX
  8
5
  10
43.146
  20
33.185
  0
VERTEX
  8
5
  10
42.053
  20
32.473
  0
VERTEX
  8
5
  10
40.986
  20
31.711
  0
VERTEX
  8
5
  10
39.969
  20
30.923
  0
VERTEX
  8
5
  10
38.953
  20
30.060
  0
VERTEX
  8
5
  10
38.013
  20
29.196
  0
VERTEX
  8
5
  10
37.073
  20
28.255
  0
VERTEX
  8
5
  10
36.183
  20
27.290
  0
VERTEX
  8
5
  10
35.345
  20
26.299
  0
VERTEX
  8
5
  10
34.557
  20
25.282
  0
VERTEX
  8
5
  10
33.795
  20
24.215
  0
VERTEX
  8
5
  10
33.083
  20
23.123
  0
VERTEX
  8
5
  10
32.397
  20
21.979
  0
VERTEX
  8
5
  10
31.787
  20
20.836
  0
VERTEX
  8
5
  10
31.203
  20
19.641
  0
VERTEX
  8
5
  10
30.669
  20
18.422
  0
VERTEX
  8
5
  10
30.187
  20
17.177
  0
VERTEX
  8
5
  10
29.755
  20
15.906
  0
VERTEX
  8
5
  10
29.399
  20
14.636
  0
VERTEX
  8
5
  10
29.069
  20
13.314
  0
VERTEX
  8
5
  10
55.038
  20
13.314
  0
VERTEX
  8
5
  10
55.038
  20
-0.254
  0
VERTEX
  8
5
  10
29.018
  20
-0.279
  0
SEQEND
  0
POLYLINE
  8
5
  6
CONTINUOUS
 66
  1
  0
VERTEX
  8
5
  10
-12.425
  20
37.657
  0
VERTEX
  8
5
  10
-12.679
  20
37.683
  0
VERTEX
  8
5
  10
-12.933
  20
37.708
  0
VERTEX
  8
5
  10
-13.213
  20
37.759
  0
VERTEX
  8
5
  10
-13.467
  20
37.784
  0
VERTEX
  8
5
  10
-13.746
  20
37.810
  0
VERTEX
  8
5
  10
-14.000
  20
37.835
  0
VERTEX
  8
5
  10
-14.280
  20
37.835
  0
VERTEX
  8
5
  10
-14.559
  20
37.860
  0
VERTEX
  8
5
  10
-14.814
  20
37.886
  0
VERTEX
  8
5
  10
-15.093
  20
37.886
  0
VERTEX
  8
5
  10
-15.373
  20
37.911
  0
VERTEX
  8
5
  10
-15.652
  20
37.911
  0
VERTEX
  8
5
  10
-15.906
  20
37.937
  0
VERTEX
  8
5
  10
-16.186
  20
37.937
  0
VERTEX
  8
5
  10
-16.440
  20
37.937
  0
VERTEX
  8
5
  10
-16.719
  20
37.937
  0
VERTEX
  8
5
  10
-18.346
  20
37.886
  0
VERTEX
  8
5
  10
-19.946
  20
37.784
  0
VERTEX
  8
5
  10
-21.522
  20
37.581
  0
VERTEX
  8
5
  10
-23.072
  20
37.301
  0
VERTEX
  8
5
  10
-24.571
  20
36.946
  0
VERTEX
  8
5
  10
-26.070
  20
36.514
  0
VERTEX
  8
5
  10
-27.544
  20
36.031
  0
VERTEX
  8
5
  10
-28.967
  20
35.472
  0
VERTEX
  8
5
  10
-30.364
  20
34.837
  0
VERTEX
  8
5
  10
-31.711
  20
34.151
  0
VERTEX
  8
5
  10
-33.032
  20
33.388
  0
VERTEX
  8
5
  10
-34.303
  20
32.575
  0
VERTEX
  8
5
  10
-35.548
  20
31.686
  0
VERTEX
  8
5
  10
-36.742
  20
30.746
  0
VERTEX
  8
5
  10
-37.886
  20
29.780
  0
VERTEX
  8
5
  10
-38.953
  20
28.738
  0
VERTEX
  8
5
  10
-39.995
  20
27.646
  0
VERTEX
  8
5
  10
-40.986
  20
26.502
  0
VERTEX
  8
5
  10
-41.926
  20
25.308
  0
VERTEX
  8
5
  10
-42.815
  20
24.088
  0
VERTEX
  8
5
  10
-43.628
  20
22.792
  0
VERTEX
  8
5
  10
-44.391
  20
21.496
  0
VERTEX
  8
5
  10
-45.077
  20
20.124
  0
VERTEX
  8
5
  10
-45.712
  20
18.727
  0
VERTEX
  8
5
  10
-46.271
  20
17.304
  0
VERTEX
  8
5
  10
-46.754
  20
15.855
  0
VERTEX
  8
5
  10
-47.186
  20
14.356
  0
VERTEX
  8
5
  10
-47.542
  20
12.832
  0
VERTEX
  8
5
  10
-47.821
  20
11.282
  0
VERTEX
  8
5
  10
-48.024
  20
9.706
  0
VERTEX
  8
5
  10
-48.126
  20
8.131
  0
VERTEX
  8
5
  10
-48.177
  20
6.504
  0
VERTEX
  8
5
  10
-48.126
  20
4.878
  0
VERTEX
  8
5
  10
-48.024
  20
3.303
  0
VERTEX
  8
5
  10
-47.821
  20
1.727
  0
VERTEX
  8
5
  10
-47.542
  20
0.177
  0
VERTEX
  8
5
  10
-47.186
  20
-1.346
  0
VERTEX
  8
5
  10
-46.754
  20
-2.820
  0
VERTEX
  8
5
  10
-46.271
  20
-4.294
  0
VERTEX
  8
5
  10
-45.712
  20
-5.717
  0
VERTEX
  8
5
  10
-45.077
  20
-7.114
  0
VERTEX
  8
5
  10
-44.391
  20
-8.461
  0
VERTEX
  8
5
  10
-43.628
  20
-9.782
  0
VERTEX
  8
5
  10
-42.815
  20
-11.053
  0
VERTEX
  8
5
  10
-41.926
  20
-12.273
  0
VERTEX
  8
5
  10
-40.986
  20
-13.467
  0
VERTEX
  8
5
  10
-39.995
  20
-14.610
  0
VERTEX
  8
5
  10
-38.953
  20
-15.703
  0
VERTEX
  8
5
  10
-37.886
  20
-16.745
  0
VERTEX
  8
5
  10
-36.742
  20
-17.736
  0
VERTEX
  8
5
  10
-35.548
  20
-18.650
  0
VERTEX
  8
5
  10
-34.303
  20
-19.540
  0
VERTEX
  8
5
  10
-33.032
  20
-20.353
  0
VERTEX
  8
5
  10
-31.711
  20
-21.115
  0
VERTEX
  8
5
  10
-30.364
  20
-21.801
  0
VERTEX
  8
5
  10
-28.967
  20
-22.437
  0
VERTEX
  8
5
  10
-27.544
  20
-22.996
  0
VERTEX
  8
5
  10
-26.070
  20
-23.478
  0
VERTEX
  8
5
  10
-24.571
  20
-23.910
  0
VERTEX
  8
5
  10
-23.072
  20
-24.266
  0
VERTEX
  8
5
  10
-21.522
  20
-24.546
  0
VERTEX
  8
5
  10
-19.946
  20
-24.749
  0
VERTEX
  8
5
  10
-18.346
  20
-24.850
  0
VERTEX
  8
5
  10
-16.719
  20
-24.901
  0
VERTEX
  8
5
  10
-16.440
  20
-24.901
  0
VERTEX
  8
5
  10
-16.186
  20
-24.901
  0
VERTEX
  8
5
  10
-15.906
  20
-24.901
  0
VERTEX
  8
5
  10
-15.627
  20
-24.876
  0
VERTEX
  8
5
  10
-15.373
  20
-24.876
  0
VERTEX
  8
5
  10
-15.093
  20
-24.876
  0
VERTEX
  8
5
  10
-14.839
  20
-24.850
  0
VERTEX
  8
5
  10
-14.559
  20
-24.825
  0
VERTEX
  8
5
  10
-14.305
  20
-24.825
  0
VERTEX
  8
5
  10
-14.026
  20
-24.800
  0
VERTEX
  8
5
  10
-13.772
  20
-24.774
  0
VERTEX
  8
5
  10
-13.492
  20
-24.749
  0
VERTEX
  8
5
  10
-13.238
  20
-24.723
  0
VERTEX
  8
5
  10
-12.959
  20
-24.698
  0
VERTEX
  8
5
  10
-12.704
  20
-24.647
  0
VERTEX
  8
5
  10
-12.425
  20
-24.622
  0
VERTEX
  8
5
  10
-12.450
  20
-38.267
  0
VERTEX
  8
5
  10
-12.730
  20
-38.292
  0
VERTEX
  8
5
  10
-13.035
  20
-38.318
  0
VERTEX
  8
5
  10
-13.314
  20
-38.343
  0
VERTEX
  8
5
  10
-13.594
  20
-38.369
  0
VERTEX
  8
5
  10
-13.873
  20
-38.394
  0
VERTEX
  8
5
  10
-14.178
  20
-38.394
  0
VERTEX
  8
5
  10
-14.458
  20
-38.419
  0
VERTEX
  8
5
  10
-14.737
  20
-38.445
  0
VERTEX
  8
5
  10
-15.017
  20
-38.445
  0
VERTEX
  8
5
  10
-15.322
  20
-38.470
  0
VERTEX
  8
5
  10
-15.601
  20
-38.470
  0
VERTEX
  8
5
  10
-15.881
  20
-38.470
  0
VERTEX
  8
5
  10
-16.186
  20
-38.496
  0
VERTEX
  8
5
  10
-16.465
  20
-38.496
  0
VERTEX
  8
5
  10
-16.770
  20
-38.496
  0
VERTEX
  8
5
  10
-17.050
  20
-38.496
  0
VERTEX
  8
5
  10
-19.362
  20
-38.445
  0
VERTEX
  8
5
  10
-21.649
  20
-38.267
  0
VERTEX
  8
5
  10
-23.910
  20
-37.987
  0
VERTEX
  8
5
  10
-26.121
  20
-37.581
  0
VERTEX
  8
5
  10
-28.306
  20
-37.073
  0
VERTEX
  8
5
  10
-30.441
  20
-36.463
  0
VERTEX
  8
5
  10
-32.550
  20
-35.751
  0
VERTEX
  8
5
  10
-34.583
  20
-34.964
  0
VERTEX
  8
5
  10
-36.590
  20
-34.049
  0
VERTEX
  8
5
  10
-38.521
  20
-33.058
  0
VERTEX
  8
5
  10
-40.401
  20
-31.965
  0
VERTEX
  8
5
  10
-42.231
  20
-30.796
  0
VERTEX
  8
5
  10
-44.010
  20
-29.551
  0
VERTEX
  8
5
  10
-45.712
  20
-28.205
  0
VERTEX
  8
5
  10
-47.338
  20
-26.782
  0
VERTEX
  8
5
  10
-48.914
  20
-25.308
  0
VERTEX
  8
5
  10
-50.388
  20
-23.732
  0
VERTEX
  8
5
  10
-51.810
  20
-22.106
  0
VERTEX
  8
5
  10
-53.157
  20
-20.404
  0
VERTEX
  8
5
  10
-54.402
  20
-18.625
  0
VERTEX
  8
5
  10
-55.571
  20
-16.821
  0
VERTEX
  8
5
  10
-56.664
  20
-14.915
  0
VERTEX
  8
5
  10
-57.655
  20
-12.984
  0
VERTEX
  8
5
  10
-58.570
  20
-10.977
  0
VERTEX
  8
5
  10
-59.357
  20
-8.944
  0
VERTEX
  8
5
  10
-60.069
  20
-6.860
  0
VERTEX
  8
5
  10
-60.679
  20
-4.726
  0
VERTEX
  8
5
  10
-61.187
  20
-2.540
  0
VERTEX
  8
5
  10
-61.593
  20
-0.330
  0
VERTEX
  8
5
  10
-61.873
  20
1.931
  0
VERTEX
  8
5
  10
-62.051
  20
4.218
  0
VERTEX
  8
5
  10
-62.102
  20
6.530
  0
VERTEX
  8
5
  10
-62.051
  20
8.842
  0
VERTEX
  8
5
  10
-61.873
  20
11.129
  0
VERTEX
  8
5
  10
-61.593
  20
13.391
  0
VERTEX
  8
5
  10
-61.187
  20
15.601
  0
VERTEX
  8
5
  10
-60.704
  20
17.787
  0
VERTEX
  8
5
  10
-60.094
  20
19.946
  0
VERTEX
  8
5
  10
-59.383
  20
22.030
  0
VERTEX
  8
5
  10
-58.595
  20
24.088
  0
VERTEX
  8
5
  10
-57.680
  20
26.096
  0
VERTEX
  8
5
  10
-56.715
  20
28.027
  0
VERTEX
  8
5
  10
-55.622
  20
29.932
  0
VERTEX
  8
5
  10
-54.453
  20
31.762
  0
VERTEX
  8
5
  10
-53.208
  20
33.541
  0
VERTEX
  8
5
  10
-51.887
  20
35.243
  0
VERTEX
  8
5
  10
-50.489
  20
36.869
  0
VERTEX
  8
5
  10
-48.990
  20
38.445
  0
VERTEX
  8
5
  10
-47.440
  20
39.944
  0
VERTEX
  8
5
  10
-45.814
  20
41.367
  0
VERTEX
  8
5
  10
-44.111
  20
42.714
  0
VERTEX
  8
5
  10
-42.358
  20
43.984
  0
VERTEX
  8
5
  10
-40.528
  20
45.153
  0
VERTEX
  8
5
  10
-38.648
  20
46.246
  0
VERTEX
  8
5
  10
-36.717
  20
47.237
  0
VERTEX
  8
5
  10
-34.735
  20
48.151
  0
VERTEX
  8
5
  10
-32.702
  20
48.965
  0
VERTEX
  8
5
  10
-30.619
  20
49.676
  0
VERTEX
  8
5
  10
-28.484
  20
50.286
  0
VERTEX
  8
5
  10
-26.299
  20
50.794
  0
VERTEX
  8
5
  10
-24.088
  20
51.175
  0
VERTEX
  8
5
  10
-21.827
  20
51.480
  0
VERTEX
  8
5
  10
-19.540
  20
51.658
  0
VERTEX
  8
5
  10
-17.227
  20
51.709
  0
VERTEX
  8
5
  10
-16.923
  20
51.709
  0
VERTEX
  8
5
  10
-16.643
  20
51.709
  0
VERTEX
  8
5
  10
-16.338
  20
51.683
  0
VERTEX
  8
5
  10
-16.033
  20
51.683
  0
VERTEX
  8
5
  10
-15.728
  20
51.658
  0
VERTEX
  8
5
  10
-15.423
  20
51.633
  0
VERTEX
  8
5
  10
-15.118
  20
51.607
  0
VERTEX
  8
5
  10
-14.814
  20
51.582
  0
VERTEX
  8
5
  10
-14.509
  20
51.556
  0
VERTEX
  8
5
  10
-14.204
  20
51.531
  0
VERTEX
  8
5
  10
-13.899
  20
51.506
  0
VERTEX
  8
5
  10
-13.594
  20
51.480
  0
VERTEX
  8
5
  10
-13.289
  20
51.455
  0
VERTEX
  8
5
  10
-13.009
  20
51.404
  0
VERTEX
  8
5
  10
-12.704
  20
51.379
  0
VERTEX
  8
5
  10
-12.425
  20
51.353
  0
VERTEX
  8
5
  10
-12.425
  20
37.657
  0
SEQEND
  0
ENDSEC
  0
EOF
