G04*
G04 #@! TF.GenerationSoftware,Altium Limited,Altium Designer,23.10.1 (27)*
G04*
G04 Layer_Color=16711935*
%FSLAX25Y25*%
%MOIN*%
G70*
G04*
G04 #@! TF.SameCoordinates,DD15D12B-7B03-402C-8F62-2DD6D4476B20*
G04*
G04*
G04 #@! TF.FilePolarity,Positive*
G04*
G01*
G75*
%ADD11C,0.01000*%
D11*
X40157Y378937D02*
G03*
X6299Y378937I-16929J-2324D01*
G01*
X29671Y371947D02*
X30572Y371046D01*
X13671Y355262D02*
Y357947D01*
Y355262D02*
X13702Y355231D01*
X32572D01*
X28671Y372947D02*
X29671Y371947D01*
X30572Y360046D02*
Y371046D01*
X15972Y371249D02*
X17671Y372947D01*
X15972Y360249D02*
Y371249D01*
X13671Y357947D02*
X15972Y360249D01*
X17671Y372947D02*
X28671D01*
X30572Y360046D02*
X32671Y357947D01*
Y355231D02*
Y357947D01*
X6299Y19685D02*
X40157D01*
Y378937D01*
X6299Y19685D02*
Y378937D01*
X54783Y366798D02*
X57483D01*
X73383Y382698D02*
Y389398D01*
X57483Y366798D02*
X73383Y382698D01*
X33114Y366792D02*
X55114D01*
X33114Y366892D02*
X36614Y370392D01*
Y362992D02*
Y370392D01*
X33114Y366492D02*
X36614Y362992D01*
X75081Y401197D02*
X74082Y402197D01*
X72082D01*
X71083Y401197D01*
Y397198D01*
X72082Y396198D01*
X74082D01*
X75081Y397198D01*
X77081Y400197D02*
Y397198D01*
X78080Y396198D01*
X81079D01*
Y400197D01*
X84079Y401197D02*
Y400197D01*
X83079D01*
X85078D01*
X84079D01*
Y397198D01*
X85078Y396198D01*
X95075D02*
X97074D01*
X98074Y397198D01*
Y399198D01*
X97074Y400197D01*
X95075D01*
X94075Y399198D01*
Y397198D01*
X95075Y396198D01*
X100073Y400197D02*
Y397198D01*
X101073Y396198D01*
X104072D01*
Y400197D01*
X107071Y401197D02*
Y400197D01*
X106071D01*
X108071D01*
X107071D01*
Y397198D01*
X108071Y396198D01*
M02*
