G04*
G04 #@! TF.GenerationSoftware,Altium Limited,Altium Designer,23.10.1 (27)*
G04*
G04 Layer_Physical_Order=1*
G04 Layer_Color=255*
%FSLAX25Y25*%
%MOIN*%
G70*
G04*
G04 #@! TF.SameCoordinates,DD15D12B-7B03-402C-8F62-2DD6D4476B20*
G04*
G04*
G04 #@! TF.FilePolarity,Positive*
G04*
G01*
G75*
%ADD11C,0.01000*%
%ADD17O,0.03937X0.11811*%
%ADD18O,0.04724X0.07874*%
%ADD19O,0.03937X0.07874*%
%ADD20O,0.07874X0.03937*%
G36*
X25017Y346324D02*
X24922Y346402D01*
X24837Y346445D01*
X24761Y346452D01*
X24696Y346423D01*
X24641Y346359D01*
X24596Y346259D01*
X24561Y346124D01*
X24536Y345953D01*
X24521Y345746D01*
X24516Y345504D01*
X23516Y345910D01*
X23566Y347714D01*
X25017Y346324D01*
D02*
G37*
G36*
X22424Y347943D02*
X22443Y347888D01*
X22459Y347787D01*
X22473Y347639D01*
X22499Y346919D01*
X22504Y346207D01*
X21504Y345751D01*
X21499Y345991D01*
X21484Y346195D01*
X21459Y346364D01*
X21423Y346497D01*
X21378Y346593D01*
X21322Y346654D01*
X21257Y346679D01*
X21181Y346668D01*
X21095Y346621D01*
X20999Y346539D01*
X22379Y347914D01*
X22402Y347952D01*
X22424Y347943D01*
D02*
G37*
G36*
X30964Y346512D02*
X30932Y346486D01*
X30905Y346443D01*
X30881Y346383D01*
X30861Y346306D01*
X30844Y346212D01*
X30832Y346102D01*
X30817Y345830D01*
X30815Y345669D01*
X29815D01*
X29813Y345825D01*
X29786Y346194D01*
X29769Y346284D01*
X29749Y346358D01*
X29725Y346414D01*
X29697Y346455D01*
X29666Y346479D01*
X29631Y346486D01*
X30999Y346521D01*
X30964Y346512D01*
D02*
G37*
G36*
X16411Y346571D02*
X16377Y346540D01*
X16346Y346493D01*
X16320Y346427D01*
X16298Y346345D01*
X16280Y346244D01*
X16266Y346127D01*
X16250Y345839D01*
X16248Y345669D01*
X15248D01*
X15246Y345819D01*
X15216Y346171D01*
X15198Y346256D01*
X15176Y346325D01*
X15149Y346378D01*
X15119Y346414D01*
X15085Y346434D01*
X15047Y346438D01*
X16449Y346584D01*
X16411Y346571D01*
D02*
G37*
G36*
X14623Y67459D02*
X14473Y67302D01*
X14225Y66999D01*
X14127Y66852D01*
X14047Y66709D01*
X13983Y66569D01*
X13938Y66433D01*
X13909Y66300D01*
X13898Y66171D01*
X13904Y66045D01*
X13603Y68563D01*
X13626Y68451D01*
X13665Y68369D01*
X13719Y68317D01*
X13789Y68295D01*
X13875Y68303D01*
X13977Y68340D01*
X14094Y68408D01*
X14227Y68506D01*
X14375Y68633D01*
X14540Y68790D01*
X14623Y67459D01*
D02*
G37*
G36*
X24761Y66696D02*
X24661Y66674D01*
X24589Y66638D01*
X24546Y66588D01*
X24531Y66523D01*
X24546Y66444D01*
X24589Y66351D01*
X24661Y66243D01*
X24761Y66121D01*
X24891Y65984D01*
X23476D01*
X23333Y66121D01*
X23190Y66243D01*
X23047Y66351D01*
X22905Y66444D01*
X22763Y66523D01*
X22622Y66588D01*
X22481Y66638D01*
X22341Y66674D01*
X22202Y66696D01*
X22062Y66703D01*
X24891D01*
X24761Y66696D01*
D02*
G37*
G36*
X32043Y68278D02*
X32183Y68159D01*
X32308Y68070D01*
X32417Y68010D01*
X32511Y67981D01*
X32589Y67981D01*
X32652Y68011D01*
X32699Y68071D01*
X32731Y68160D01*
X32747Y68280D01*
X32581Y65623D01*
X32581Y65755D01*
X32566Y65889D01*
X32534Y66025D01*
X32486Y66163D01*
X32422Y66304D01*
X32342Y66446D01*
X32246Y66591D01*
X32134Y66737D01*
X32006Y66886D01*
X31862Y67037D01*
X31887Y68427D01*
X32043Y68278D01*
D02*
G37*
G36*
X8555Y37763D02*
X8595Y37379D01*
X8630Y37244D01*
X8676Y37148D01*
X8731Y37091D01*
X8796Y37071D01*
X8872Y37090D01*
X8957Y37148D01*
X9053Y37243D01*
X7526Y35500D01*
X7531Y35525D01*
X7535Y35568D01*
X7544Y35808D01*
X7550Y36577D01*
X8550Y38013D01*
X8555Y37763D01*
D02*
G37*
G36*
X34423Y31153D02*
X34406Y31247D01*
X34367Y31332D01*
X34308Y31406D01*
X34228Y31471D01*
X34127Y31525D01*
X34005Y31570D01*
X33861Y31605D01*
X33697Y31630D01*
X33511Y31645D01*
X33305Y31650D01*
X33281Y32650D01*
X33479Y32655D01*
X33656Y32670D01*
X33811Y32695D01*
X33944Y32730D01*
X34056Y32775D01*
X34147Y32830D01*
X34216Y32895D01*
X34263Y32970D01*
X34289Y33055D01*
X34293Y33150D01*
X34423Y31153D01*
D02*
G37*
G36*
X12196Y33055D02*
X12222Y32970D01*
X12269Y32895D01*
X12338Y32830D01*
X12429Y32775D01*
X12541Y32730D01*
X12674Y32695D01*
X12829Y32670D01*
X13006Y32655D01*
X13204Y32650D01*
X13180Y31650D01*
X12974Y31645D01*
X12788Y31630D01*
X12624Y31605D01*
X12480Y31570D01*
X12358Y31525D01*
X12257Y31471D01*
X12177Y31406D01*
X12117Y31332D01*
X12079Y31247D01*
X12062Y31153D01*
X12192Y33150D01*
X12196Y33055D01*
D02*
G37*
D11*
X15748Y345669D02*
Y360213D01*
X9418Y32150D02*
X36218D01*
X8050Y33518D02*
X9418Y32150D01*
X11518Y65061D02*
X22016Y75559D01*
X30315Y345669D02*
Y359895D01*
X34118Y64250D02*
Y65488D01*
X24016Y75590D02*
X34118Y65488D01*
X24016Y75590D02*
Y347638D01*
X22016Y75559D02*
Y344808D01*
X11518Y64250D02*
Y65061D01*
X20016Y80646D02*
Y341402D01*
X8050Y68679D02*
X20016Y80646D01*
X8050Y33518D02*
Y68679D01*
X36112Y60128D02*
X38018Y62034D01*
X22818Y67350D02*
X30040Y60128D01*
X36112D01*
X38018Y62034D02*
Y69068D01*
X15748Y345669D02*
X20016Y341402D01*
X26016Y341370D02*
X30315Y345669D01*
X26016Y81071D02*
Y341370D01*
Y81071D02*
X38018Y69068D01*
X22004Y344820D02*
Y352199D01*
Y344820D02*
X22016Y344808D01*
D17*
X15572Y352262D02*
D03*
X30272D02*
D03*
X25472Y352162D02*
D03*
X20472Y352362D02*
D03*
D18*
X9843Y33465D02*
D03*
X36643D02*
D03*
D19*
X11942Y65565D02*
D03*
X34543D02*
D03*
D20*
X23243Y68665D02*
D03*
M02*
