G04*
G04 #@! TF.GenerationSoftware,Altium Limited,Altium Designer,23.10.1 (27)*
G04*
G04 Layer_Color=65535*
%FSLAX25Y25*%
%MOIN*%
G70*
G04*
G04 #@! TF.SameCoordinates,1CDB52BC-5702-4D16-9384-FD81A510AF7B*
G04*
G04*
G04 #@! TF.FilePolarity,Positive*
G04*
G01*
G75*
%ADD10C,0.00025*%
D10*
X86512Y30756D02*
Y31031D01*
X86537Y30681D02*
Y31106D01*
X86562Y30631D02*
Y31156D01*
X86587Y30581D02*
Y31206D01*
X86612Y30556D02*
Y31231D01*
X86637Y30506D02*
Y31281D01*
X86662Y30481D02*
Y31306D01*
X86687Y30456D02*
Y31331D01*
X86712Y30431D02*
Y31356D01*
X86737Y30406D02*
Y31356D01*
X86762Y30406D02*
Y31381D01*
X86787Y30381D02*
Y31406D01*
X86812Y30381D02*
Y31406D01*
X86837Y30356D02*
Y31431D01*
X86862Y30356D02*
Y31431D01*
X86887Y30331D02*
Y31456D01*
X86912Y30331D02*
Y31456D01*
X86937Y30331D02*
Y31456D01*
X86962Y30306D02*
Y31481D01*
X86987Y30306D02*
Y31481D01*
X87012Y30306D02*
Y31481D01*
X87037Y30306D02*
Y31481D01*
X87062Y30306D02*
Y31481D01*
X87087Y30306D02*
Y31481D01*
X87112Y30306D02*
Y31481D01*
X87137Y30306D02*
Y31481D01*
X87162Y30306D02*
Y31481D01*
X87187Y30306D02*
Y31481D01*
X87212Y30306D02*
Y31481D01*
X87237Y30331D02*
Y31456D01*
X87262Y30331D02*
Y31456D01*
X87287Y30331D02*
Y31456D01*
X87312Y30356D02*
Y31431D01*
X87337Y30356D02*
Y31431D01*
X87362Y30381D02*
Y31406D01*
X87387Y30381D02*
Y31406D01*
X87412Y30406D02*
Y31381D01*
X87437Y30406D02*
Y31381D01*
X87462Y30431D02*
Y31356D01*
X87487Y30456D02*
Y31331D01*
X87512Y30481D02*
Y31306D01*
X87537Y30506D02*
Y31281D01*
X87562Y30531D02*
Y31256D01*
X87587Y30581D02*
Y31206D01*
X87612Y30606D02*
Y31156D01*
X87637Y30681D02*
Y31106D01*
X87662Y30756D02*
Y31031D01*
X87962Y29731D02*
Y30031D01*
Y31756D02*
Y32056D01*
X87987Y29656D02*
Y30106D01*
Y31681D02*
Y32131D01*
X88012Y29606D02*
Y30156D01*
Y31631D02*
Y32181D01*
X88037Y29556D02*
Y30206D01*
Y31581D02*
Y32231D01*
X88062Y29506D02*
Y30231D01*
Y31556D02*
Y32281D01*
X88087Y29481D02*
Y30256D01*
Y31531D02*
Y32306D01*
X88112Y29456D02*
Y30281D01*
Y31506D02*
Y32331D01*
X88137Y29431D02*
Y30306D01*
Y31481D02*
Y32356D01*
X88162Y29406D02*
Y30331D01*
Y31456D02*
Y32381D01*
X88187Y29406D02*
Y30356D01*
Y31431D02*
Y32381D01*
X88212Y29381D02*
Y30381D01*
Y31406D02*
Y32406D01*
X88237Y29356D02*
Y30381D01*
Y31406D02*
Y32431D01*
X88262Y29356D02*
Y30406D01*
Y31381D02*
Y32431D01*
X88287Y29331D02*
Y30406D01*
Y31381D02*
Y32456D01*
X88312Y29331D02*
Y30431D01*
Y31356D02*
Y32456D01*
X88337Y29306D02*
Y30431D01*
Y31356D02*
Y32481D01*
X88362Y29306D02*
Y30431D01*
Y31356D02*
Y32481D01*
X88387Y27731D02*
Y28056D01*
Y29306D02*
Y30456D01*
Y31331D02*
Y32481D01*
Y33731D02*
Y34056D01*
X88412Y27656D02*
Y28106D01*
Y29306D02*
Y30456D01*
Y31331D02*
Y32481D01*
Y33681D02*
Y34131D01*
X88437Y27606D02*
Y28156D01*
Y29281D02*
Y30456D01*
Y31331D02*
Y32506D01*
Y33631D02*
Y34181D01*
X88462Y27556D02*
Y28206D01*
Y29281D02*
Y30456D01*
Y31331D02*
Y32506D01*
Y33581D02*
Y34231D01*
X88487Y27531D02*
Y28256D01*
Y29281D02*
Y30456D01*
Y31331D02*
Y32506D01*
Y33531D02*
Y34256D01*
X88512Y27481D02*
Y28281D01*
Y29281D02*
Y30456D01*
Y31331D02*
Y32506D01*
Y33506D02*
Y34306D01*
X88537Y27456D02*
Y28306D01*
Y29281D02*
Y30456D01*
Y31331D02*
Y32506D01*
Y33481D02*
Y34331D01*
X88562Y27431D02*
Y28331D01*
Y29281D02*
Y30456D01*
Y31331D02*
Y32506D01*
Y33456D02*
Y34356D01*
X88587Y27431D02*
Y28356D01*
Y29281D02*
Y30456D01*
Y31331D02*
Y32506D01*
Y33431D02*
Y34356D01*
X88612Y27406D02*
Y28356D01*
Y29281D02*
Y30456D01*
Y31331D02*
Y32506D01*
Y33431D02*
Y34381D01*
X88637Y27381D02*
Y28381D01*
Y29306D02*
Y30456D01*
Y31331D02*
Y32481D01*
Y33406D02*
Y34406D01*
X88662Y27381D02*
Y28406D01*
Y29306D02*
Y30456D01*
Y31331D02*
Y32481D01*
Y33381D02*
Y34406D01*
X88687Y27356D02*
Y28406D01*
Y29306D02*
Y30456D01*
Y31331D02*
Y32481D01*
Y33381D02*
Y34431D01*
X88712Y27356D02*
Y28431D01*
Y29306D02*
Y30431D01*
Y31356D02*
Y32481D01*
Y33356D02*
Y34431D01*
X88737Y27331D02*
Y28431D01*
Y29331D02*
Y30431D01*
Y31356D02*
Y32456D01*
Y33356D02*
Y34456D01*
X88762Y27331D02*
Y28431D01*
Y29331D02*
Y30431D01*
Y31356D02*
Y32456D01*
Y33356D02*
Y34456D01*
X88787Y27306D02*
Y28456D01*
Y29331D02*
Y30406D01*
Y31381D02*
Y32456D01*
Y33331D02*
Y34481D01*
X88812Y27306D02*
Y28456D01*
Y29356D02*
Y30406D01*
Y31381D02*
Y32431D01*
Y33331D02*
Y34481D01*
X88837Y27306D02*
Y28456D01*
Y29356D02*
Y30381D01*
Y31406D02*
Y32406D01*
Y33331D02*
Y34481D01*
X88862Y27306D02*
Y28456D01*
Y29381D02*
Y30356D01*
Y31431D02*
Y32406D01*
Y33331D02*
Y34481D01*
X88887Y27306D02*
Y28481D01*
Y29406D02*
Y30356D01*
Y31431D02*
Y32381D01*
Y33306D02*
Y34481D01*
X88912Y27306D02*
Y28481D01*
Y29431D02*
Y30331D01*
Y31456D02*
Y32356D01*
Y33306D02*
Y34481D01*
X88937Y27281D02*
Y28481D01*
Y29456D02*
Y30306D01*
Y31481D02*
Y32331D01*
Y33306D02*
Y34506D01*
X88962Y27281D02*
Y28481D01*
Y29481D02*
Y30281D01*
Y31506D02*
Y32306D01*
Y33306D02*
Y34506D01*
X88987Y27281D02*
Y28481D01*
Y29506D02*
Y30256D01*
Y31531D02*
Y32281D01*
Y33306D02*
Y34481D01*
X89012Y27306D02*
Y28481D01*
Y29531D02*
Y30231D01*
Y31556D02*
Y32256D01*
Y33306D02*
Y34481D01*
X89037Y27306D02*
Y28481D01*
Y29556D02*
Y30181D01*
Y31606D02*
Y32231D01*
Y33306D02*
Y34481D01*
X89062Y27306D02*
Y28456D01*
Y29606D02*
Y30131D01*
Y31656D02*
Y32181D01*
Y33331D02*
Y34481D01*
X89087Y27306D02*
Y28456D01*
Y29681D02*
Y30081D01*
Y31706D02*
Y32106D01*
Y33331D02*
Y34481D01*
X89112Y27306D02*
Y28456D01*
Y29756D02*
Y30006D01*
Y31781D02*
Y32031D01*
Y33331D02*
Y34481D01*
X89137Y27331D02*
Y28456D01*
Y33331D02*
Y34456D01*
X89162Y27331D02*
Y28431D01*
Y33356D02*
Y34456D01*
X89187Y27331D02*
Y28431D01*
Y33356D02*
Y34456D01*
X89212Y25881D02*
Y26181D01*
Y27356D02*
Y28406D01*
Y33381D02*
Y34431D01*
Y35606D02*
Y35906D01*
X89237Y25806D02*
Y26256D01*
Y27356D02*
Y28406D01*
Y33381D02*
Y34431D01*
Y35531D02*
Y35981D01*
X89262Y25756D02*
Y26306D01*
Y27381D02*
Y28381D01*
Y33406D02*
Y34406D01*
Y35481D02*
Y36031D01*
X89287Y25706D02*
Y26356D01*
Y27406D02*
Y28381D01*
Y30806D02*
Y30981D01*
Y33406D02*
Y34381D01*
Y35431D02*
Y36081D01*
X89312Y25656D02*
Y26381D01*
Y27406D02*
Y28356D01*
Y30706D02*
Y31081D01*
Y33431D02*
Y34381D01*
Y35406D02*
Y36131D01*
X89337Y25631D02*
Y26406D01*
Y27431D02*
Y28331D01*
Y30631D02*
Y31156D01*
Y33456D02*
Y34356D01*
Y35381D02*
Y36156D01*
X89362Y25606D02*
Y26431D01*
Y27456D02*
Y28306D01*
Y30581D02*
Y31206D01*
Y33481D02*
Y34331D01*
Y35356D02*
Y36181D01*
X89387Y25581D02*
Y26456D01*
Y27481D02*
Y28281D01*
Y30556D02*
Y31231D01*
Y33506D02*
Y34306D01*
Y35331D02*
Y36206D01*
X89412Y25556D02*
Y26481D01*
Y27506D02*
Y28256D01*
Y30531D02*
Y31256D01*
Y33531D02*
Y34281D01*
Y35306D02*
Y36231D01*
X89437Y25556D02*
Y26506D01*
Y27531D02*
Y28231D01*
Y30481D02*
Y31306D01*
Y33556D02*
Y34256D01*
Y35281D02*
Y36231D01*
X89462Y25531D02*
Y26531D01*
Y27581D02*
Y28181D01*
Y29106D02*
Y29431D01*
Y30456D02*
Y31331D01*
Y32356D02*
Y32681D01*
Y33606D02*
Y34206D01*
Y35256D02*
Y36256D01*
X89487Y25506D02*
Y26531D01*
Y27631D02*
Y28156D01*
Y29031D02*
Y29506D01*
Y30431D02*
Y31356D01*
Y32281D02*
Y32756D01*
Y33631D02*
Y34156D01*
Y35256D02*
Y36281D01*
X89512Y25506D02*
Y26556D01*
Y27681D02*
Y28081D01*
Y28981D02*
Y29556D01*
Y30431D02*
Y31356D01*
Y32231D02*
Y32806D01*
Y33706D02*
Y34106D01*
Y35231D02*
Y36281D01*
X89537Y25481D02*
Y26556D01*
Y27781D02*
Y27981D01*
Y28931D02*
Y29581D01*
Y30406D02*
Y31381D01*
Y32206D02*
Y32856D01*
Y33806D02*
Y34006D01*
Y35231D02*
Y36306D01*
X89562Y25481D02*
Y26581D01*
Y28906D02*
Y29631D01*
Y30381D02*
Y31406D01*
Y32156D02*
Y32881D01*
Y35206D02*
Y36306D01*
X89587Y25456D02*
Y26581D01*
Y28881D02*
Y29656D01*
Y30381D02*
Y31406D01*
Y32131D02*
Y32906D01*
Y35206D02*
Y36331D01*
X89612Y25456D02*
Y26581D01*
Y28856D02*
Y29681D01*
Y30356D02*
Y31431D01*
Y32106D02*
Y32931D01*
Y35206D02*
Y36331D01*
X89637Y25456D02*
Y26606D01*
Y28831D02*
Y29706D01*
Y30356D02*
Y31431D01*
Y32081D02*
Y32956D01*
Y35181D02*
Y36331D01*
X89662Y25456D02*
Y26606D01*
Y28806D02*
Y29731D01*
Y30331D02*
Y31456D01*
Y32056D02*
Y32981D01*
Y35181D02*
Y36331D01*
X89687Y25431D02*
Y26606D01*
Y28781D02*
Y29756D01*
Y30331D02*
Y31456D01*
Y32031D02*
Y33006D01*
Y35181D02*
Y36356D01*
X89712Y25431D02*
Y26606D01*
Y28756D02*
Y29756D01*
Y30331D02*
Y31456D01*
Y32031D02*
Y33031D01*
Y35181D02*
Y36356D01*
X89737Y25431D02*
Y26606D01*
Y28756D02*
Y29781D01*
Y30306D02*
Y31481D01*
Y32006D02*
Y33031D01*
Y35181D02*
Y36356D01*
X89762Y22931D02*
Y23106D01*
Y25431D02*
Y26606D01*
Y28731D02*
Y29781D01*
Y30306D02*
Y31481D01*
Y32006D02*
Y33056D01*
Y35181D02*
Y36356D01*
Y38681D02*
Y38831D01*
X89787Y22831D02*
Y23206D01*
Y25431D02*
Y26606D01*
Y28731D02*
Y29806D01*
Y30306D02*
Y31481D01*
Y31981D02*
Y33056D01*
Y35181D02*
Y36356D01*
Y38581D02*
Y38956D01*
X89812Y22781D02*
Y23281D01*
Y25431D02*
Y26606D01*
Y28706D02*
Y29806D01*
Y30306D02*
Y31481D01*
Y31981D02*
Y33081D01*
Y35181D02*
Y36356D01*
Y38506D02*
Y39006D01*
X89837Y22731D02*
Y23331D01*
Y25431D02*
Y26606D01*
Y28706D02*
Y29831D01*
Y30306D02*
Y31481D01*
Y31956D02*
Y33081D01*
Y35181D02*
Y36356D01*
Y38456D02*
Y39056D01*
X89862Y22681D02*
Y23356D01*
Y25431D02*
Y26606D01*
Y28706D02*
Y29831D01*
Y30306D02*
Y31481D01*
Y31956D02*
Y33081D01*
Y35181D02*
Y36356D01*
Y38431D02*
Y39106D01*
X89887Y22656D02*
Y23406D01*
Y25431D02*
Y26606D01*
Y28681D02*
Y29831D01*
Y30306D02*
Y31481D01*
Y31956D02*
Y33106D01*
Y35181D02*
Y36356D01*
Y38381D02*
Y39131D01*
X89912Y22631D02*
Y23431D01*
Y25456D02*
Y26606D01*
Y28681D02*
Y29856D01*
Y30306D02*
Y31481D01*
Y31931D02*
Y33106D01*
Y35181D02*
Y36331D01*
Y38356D02*
Y39156D01*
X89937Y22606D02*
Y23456D01*
Y25456D02*
Y26606D01*
Y27531D02*
Y27856D01*
Y28681D02*
Y29856D01*
Y30306D02*
Y31481D01*
Y31931D02*
Y33106D01*
Y33931D02*
Y34256D01*
Y35181D02*
Y36331D01*
Y38331D02*
Y39181D01*
X89962Y22581D02*
Y23481D01*
Y25456D02*
Y26581D01*
Y27456D02*
Y27931D01*
Y28681D02*
Y29856D01*
Y30306D02*
Y31481D01*
Y31931D02*
Y33106D01*
Y33856D02*
Y34331D01*
Y35206D02*
Y36331D01*
Y38306D02*
Y39206D01*
X89987Y22556D02*
Y23481D01*
Y25456D02*
Y26581D01*
Y27406D02*
Y27981D01*
Y28681D02*
Y29856D01*
Y30306D02*
Y31481D01*
Y31931D02*
Y33106D01*
Y33806D02*
Y34381D01*
Y35206D02*
Y36306D01*
Y38306D02*
Y39231D01*
X90012Y22531D02*
Y23506D01*
Y25481D02*
Y26581D01*
Y27381D02*
Y28031D01*
Y28681D02*
Y29856D01*
Y30331D02*
Y31456D01*
Y31931D02*
Y33106D01*
Y33756D02*
Y34406D01*
Y35206D02*
Y36306D01*
Y38281D02*
Y39256D01*
X90037Y22531D02*
Y23531D01*
Y25481D02*
Y26556D01*
Y27331D02*
Y28056D01*
Y28681D02*
Y29856D01*
Y30331D02*
Y31456D01*
Y31931D02*
Y33106D01*
Y33731D02*
Y34456D01*
Y35231D02*
Y36306D01*
Y38256D02*
Y39256D01*
X90062Y22506D02*
Y23531D01*
Y25506D02*
Y26556D01*
Y27306D02*
Y28081D01*
Y28681D02*
Y29856D01*
Y30331D02*
Y31456D01*
Y31931D02*
Y33106D01*
Y33706D02*
Y34481D01*
Y35231D02*
Y36281D01*
Y38256D02*
Y39281D01*
X90087Y22481D02*
Y23556D01*
Y25506D02*
Y26531D01*
Y27281D02*
Y28106D01*
Y28681D02*
Y29856D01*
Y30331D02*
Y31431D01*
Y31931D02*
Y33106D01*
Y33681D02*
Y34506D01*
Y35256D02*
Y36281D01*
Y38231D02*
Y39306D01*
X90112Y22481D02*
Y23556D01*
Y25531D02*
Y26506D01*
Y27256D02*
Y28131D01*
Y28681D02*
Y29856D01*
Y30356D02*
Y31431D01*
Y31931D02*
Y33106D01*
Y33656D02*
Y34531D01*
Y35281D02*
Y36256D01*
Y38231D02*
Y39306D01*
X90137Y22481D02*
Y23581D01*
Y25556D02*
Y26506D01*
Y27231D02*
Y28156D01*
Y28681D02*
Y29856D01*
Y30356D02*
Y31431D01*
Y31931D02*
Y33106D01*
Y33631D02*
Y34556D01*
Y35281D02*
Y36231D01*
Y38206D02*
Y39306D01*
X90162Y22456D02*
Y23581D01*
Y25581D02*
Y26481D01*
Y27206D02*
Y28181D01*
Y28681D02*
Y29831D01*
Y30381D02*
Y31406D01*
Y31956D02*
Y33106D01*
Y33606D02*
Y34581D01*
Y35306D02*
Y36206D01*
Y38206D02*
Y39331D01*
X90187Y22456D02*
Y23581D01*
Y25581D02*
Y26456D01*
Y27206D02*
Y28206D01*
Y28706D02*
Y29831D01*
Y30406D02*
Y31381D01*
Y31956D02*
Y33081D01*
Y33581D02*
Y34581D01*
Y35331D02*
Y36206D01*
Y38181D02*
Y39331D01*
X90212Y22456D02*
Y23606D01*
Y25606D02*
Y26431D01*
Y27181D02*
Y28206D01*
Y28706D02*
Y29831D01*
Y30406D02*
Y31381D01*
Y31956D02*
Y33081D01*
Y33581D02*
Y34606D01*
Y35356D02*
Y36181D01*
Y38181D02*
Y39331D01*
X90237Y22431D02*
Y23606D01*
Y25656D02*
Y26406D01*
Y27181D02*
Y28231D01*
Y28706D02*
Y29831D01*
Y30431D02*
Y31356D01*
Y31956D02*
Y33081D01*
Y33556D02*
Y34606D01*
Y35381D02*
Y36131D01*
Y38181D02*
Y39356D01*
X90262Y22431D02*
Y23606D01*
Y25681D02*
Y26381D01*
Y27156D02*
Y28231D01*
Y28731D02*
Y29806D01*
Y30456D02*
Y31331D01*
Y31981D02*
Y33056D01*
Y33556D02*
Y34631D01*
Y35406D02*
Y36106D01*
Y38181D02*
Y39356D01*
X90287Y22431D02*
Y23606D01*
Y25706D02*
Y26331D01*
Y27156D02*
Y28256D01*
Y28731D02*
Y29806D01*
Y30481D02*
Y31306D01*
Y31981D02*
Y33056D01*
Y33531D02*
Y34631D01*
Y35456D02*
Y36081D01*
Y38181D02*
Y39356D01*
X90312Y22431D02*
Y23606D01*
Y25756D02*
Y26281D01*
Y27131D02*
Y28256D01*
Y28756D02*
Y29781D01*
Y30506D02*
Y31281D01*
Y32006D02*
Y33031D01*
Y33531D02*
Y34656D01*
Y35506D02*
Y36031D01*
Y38181D02*
Y39356D01*
X90337Y22431D02*
Y23606D01*
Y25806D02*
Y26231D01*
Y27131D02*
Y28256D01*
Y28756D02*
Y29781D01*
Y30531D02*
Y31256D01*
Y32006D02*
Y33031D01*
Y33531D02*
Y34656D01*
Y35556D02*
Y35981D01*
Y38181D02*
Y39356D01*
X90362Y22431D02*
Y23606D01*
Y25906D02*
Y26156D01*
Y27131D02*
Y28281D01*
Y28781D02*
Y29756D01*
Y30556D02*
Y31231D01*
Y32031D02*
Y33006D01*
Y33506D02*
Y34656D01*
Y35631D02*
Y35881D01*
Y38181D02*
Y39356D01*
X90387Y22431D02*
Y23606D01*
Y27131D02*
Y28281D01*
Y28781D02*
Y29731D01*
Y30606D02*
Y31181D01*
Y32056D02*
Y33006D01*
Y33506D02*
Y34656D01*
Y38181D02*
Y39356D01*
X90412Y22431D02*
Y23606D01*
Y24206D02*
Y24531D01*
Y27106D02*
Y28281D01*
Y28806D02*
Y29706D01*
Y30656D02*
Y31131D01*
Y32081D02*
Y32981D01*
Y33506D02*
Y34681D01*
Y37256D02*
Y37581D01*
Y38181D02*
Y39356D01*
X90437Y22431D02*
Y23606D01*
Y24131D02*
Y24606D01*
Y27106D02*
Y28281D01*
Y28831D02*
Y29706D01*
Y30731D02*
Y31056D01*
Y32081D02*
Y32956D01*
Y33506D02*
Y34681D01*
Y37181D02*
Y37656D01*
Y38181D02*
Y39356D01*
X90462Y22431D02*
Y23606D01*
Y24081D02*
Y24656D01*
Y27106D02*
Y28281D01*
Y28856D02*
Y29681D01*
Y32106D02*
Y32931D01*
Y33506D02*
Y34681D01*
Y37131D02*
Y37706D01*
Y38181D02*
Y39356D01*
X90487Y22456D02*
Y23606D01*
Y24056D02*
Y24706D01*
Y27106D02*
Y28281D01*
Y28881D02*
Y29631D01*
Y32156D02*
Y32906D01*
Y33506D02*
Y34681D01*
Y37081D02*
Y37731D01*
Y38181D02*
Y39331D01*
X90512Y22456D02*
Y23581D01*
Y24006D02*
Y24731D01*
Y27106D02*
Y28281D01*
Y28931D02*
Y29606D01*
Y32181D02*
Y32856D01*
Y33506D02*
Y34681D01*
Y37056D02*
Y37781D01*
Y38206D02*
Y39331D01*
X90537Y22456D02*
Y23581D01*
Y23981D02*
Y24781D01*
Y27106D02*
Y28281D01*
Y28956D02*
Y29581D01*
Y32206D02*
Y32831D01*
Y33506D02*
Y34681D01*
Y37006D02*
Y37806D01*
Y38206D02*
Y39331D01*
X90562Y22481D02*
Y23581D01*
Y23956D02*
Y24806D01*
Y27106D02*
Y28281D01*
Y29006D02*
Y29531D01*
Y32256D02*
Y32781D01*
Y33506D02*
Y34681D01*
Y36981D02*
Y37831D01*
Y38206D02*
Y39306D01*
X90587Y22481D02*
Y23556D01*
Y23931D02*
Y24831D01*
Y27106D02*
Y28281D01*
Y29056D02*
Y29456D01*
Y32331D02*
Y32731D01*
Y33506D02*
Y34681D01*
Y36956D02*
Y37856D01*
Y38231D02*
Y39306D01*
X90612Y22506D02*
Y23556D01*
Y23906D02*
Y24831D01*
Y27106D02*
Y28281D01*
Y29156D02*
Y29381D01*
Y32406D02*
Y32631D01*
Y33506D02*
Y34681D01*
Y36956D02*
Y37881D01*
Y38231D02*
Y39281D01*
X90637Y22506D02*
Y23531D01*
Y23906D02*
Y24856D01*
Y27131D02*
Y28281D01*
Y33506D02*
Y34656D01*
Y36931D02*
Y37881D01*
Y38256D02*
Y39281D01*
X90662Y22531D02*
Y23531D01*
Y23881D02*
Y24881D01*
Y27131D02*
Y28281D01*
Y33506D02*
Y34656D01*
Y36906D02*
Y37906D01*
Y38256D02*
Y39256D01*
X90687Y22531D02*
Y23506D01*
Y23856D02*
Y24881D01*
Y26206D02*
Y26306D01*
Y27131D02*
Y28256D01*
Y33531D02*
Y34656D01*
Y35481D02*
Y35581D01*
Y36906D02*
Y37931D01*
Y38281D02*
Y39256D01*
X90712Y22556D02*
Y23481D01*
Y23856D02*
Y24906D01*
Y26081D02*
Y26431D01*
Y27156D02*
Y28256D01*
Y33531D02*
Y34631D01*
Y35356D02*
Y35706D01*
Y36881D02*
Y37931D01*
Y38306D02*
Y39231D01*
X90737Y22581D02*
Y23456D01*
Y23831D02*
Y24906D01*
Y26006D02*
Y26506D01*
Y27156D02*
Y28256D01*
Y33531D02*
Y34631D01*
Y35281D02*
Y35781D01*
Y36881D02*
Y37956D01*
Y38306D02*
Y39206D01*
X90762Y22606D02*
Y23456D01*
Y23831D02*
Y24931D01*
Y25956D02*
Y26556D01*
Y27156D02*
Y28231D01*
Y33556D02*
Y34631D01*
Y35231D02*
Y35831D01*
Y36856D02*
Y37956D01*
Y38331D02*
Y39181D01*
X90787Y22631D02*
Y23431D01*
Y23806D02*
Y24931D01*
Y25931D02*
Y26581D01*
Y27181D02*
Y28231D01*
Y29581D02*
Y29806D01*
Y31981D02*
Y32206D01*
Y33556D02*
Y34606D01*
Y35206D02*
Y35856D01*
Y36856D02*
Y37956D01*
Y38356D02*
Y39156D01*
X90812Y22656D02*
Y23381D01*
Y23806D02*
Y24956D01*
Y25881D02*
Y26631D01*
Y27181D02*
Y28206D01*
Y29481D02*
Y29881D01*
Y31906D02*
Y32306D01*
Y33581D02*
Y34581D01*
Y35156D02*
Y35906D01*
Y36831D02*
Y37981D01*
Y38406D02*
Y39131D01*
X90837Y22681D02*
Y23356D01*
Y23806D02*
Y24956D01*
Y25856D02*
Y26656D01*
Y27206D02*
Y28181D01*
Y29431D02*
Y29956D01*
Y31831D02*
Y32356D01*
Y33606D02*
Y34581D01*
Y35131D02*
Y35931D01*
Y36831D02*
Y37981D01*
Y38431D02*
Y39106D01*
X90862Y22731D02*
Y23306D01*
Y23806D02*
Y24956D01*
Y25831D02*
Y26681D01*
Y27231D02*
Y28181D01*
Y29381D02*
Y29981D01*
Y31781D02*
Y32406D01*
Y33606D02*
Y34556D01*
Y35106D02*
Y35956D01*
Y36831D02*
Y37981D01*
Y38481D02*
Y39056D01*
X90887Y22781D02*
Y23256D01*
Y23781D02*
Y24956D01*
Y25806D02*
Y26706D01*
Y27256D02*
Y28156D01*
Y29331D02*
Y30031D01*
Y31756D02*
Y32456D01*
Y33631D02*
Y34531D01*
Y35081D02*
Y35981D01*
Y36831D02*
Y37981D01*
Y38531D02*
Y39006D01*
X90912Y22856D02*
Y23206D01*
Y23781D02*
Y24956D01*
Y25781D02*
Y26731D01*
Y27281D02*
Y28131D01*
Y29306D02*
Y30056D01*
Y31731D02*
Y32481D01*
Y33656D02*
Y34506D01*
Y35056D02*
Y36006D01*
Y36831D02*
Y38006D01*
Y38581D02*
Y38931D01*
X90937Y22981D02*
Y23056D01*
Y23781D02*
Y24956D01*
Y25781D02*
Y26731D01*
Y27306D02*
Y28106D01*
Y29281D02*
Y30081D01*
Y31706D02*
Y32506D01*
Y33681D02*
Y34481D01*
Y35056D02*
Y36006D01*
Y36831D02*
Y38006D01*
Y38731D02*
Y38806D01*
X90962Y23781D02*
Y24956D01*
Y25756D02*
Y26756D01*
Y27331D02*
Y28081D01*
Y29256D02*
Y30106D01*
Y31681D02*
Y32531D01*
Y33706D02*
Y34456D01*
Y35031D02*
Y36031D01*
Y36806D02*
Y38006D01*
X90987Y23781D02*
Y24956D01*
Y25731D02*
Y26781D01*
Y27356D02*
Y28031D01*
Y29231D02*
Y30131D01*
Y31656D02*
Y32556D01*
Y33756D02*
Y34431D01*
Y35006D02*
Y36056D01*
Y36806D02*
Y38006D01*
X91012Y23781D02*
Y24956D01*
Y25731D02*
Y26781D01*
Y27406D02*
Y28006D01*
Y29206D02*
Y30156D01*
Y31631D02*
Y32581D01*
Y33781D02*
Y34381D01*
Y35006D02*
Y36056D01*
Y36831D02*
Y38006D01*
X91037Y23781D02*
Y24956D01*
Y25706D02*
Y26806D01*
Y27431D02*
Y27956D01*
Y29206D02*
Y30181D01*
Y31606D02*
Y32581D01*
Y33831D02*
Y34356D01*
Y34981D02*
Y36081D01*
Y36831D02*
Y38006D01*
X91062Y23781D02*
Y24956D01*
Y25706D02*
Y26806D01*
Y27506D02*
Y27906D01*
Y29181D02*
Y30181D01*
Y31606D02*
Y32606D01*
Y33881D02*
Y34281D01*
Y34981D02*
Y36081D01*
Y36831D02*
Y38006D01*
X91087Y23806D02*
Y24956D01*
Y25706D02*
Y26806D01*
Y27581D02*
Y27806D01*
Y29156D02*
Y30206D01*
Y31581D02*
Y32631D01*
Y33981D02*
Y34181D01*
Y34981D02*
Y36081D01*
Y36831D02*
Y37981D01*
X91112Y23806D02*
Y24956D01*
Y25681D02*
Y26831D01*
Y29156D02*
Y30231D01*
Y31556D02*
Y32631D01*
Y34956D02*
Y36106D01*
Y36831D02*
Y37981D01*
X91137Y23806D02*
Y24956D01*
Y25681D02*
Y26831D01*
Y29131D02*
Y30231D01*
Y31556D02*
Y32656D01*
Y34956D02*
Y36106D01*
Y36831D02*
Y37981D01*
X91162Y23806D02*
Y24931D01*
Y25681D02*
Y26831D01*
Y29131D02*
Y30231D01*
Y31556D02*
Y32656D01*
Y34956D02*
Y36106D01*
Y36856D02*
Y37981D01*
X91187Y23831D02*
Y24931D01*
Y25681D02*
Y26831D01*
Y29131D02*
Y30256D01*
Y31531D02*
Y32656D01*
Y34956D02*
Y36106D01*
Y36856D02*
Y37956D01*
X91212Y23831D02*
Y24931D01*
Y25656D02*
Y26856D01*
Y29106D02*
Y30256D01*
Y31531D02*
Y32681D01*
Y34931D02*
Y36131D01*
Y36856D02*
Y37956D01*
X91237Y23856D02*
Y24906D01*
Y25656D02*
Y26856D01*
Y29106D02*
Y30256D01*
Y31531D02*
Y32681D01*
Y34931D02*
Y36131D01*
Y36881D02*
Y37931D01*
X91262Y23856D02*
Y24906D01*
Y25656D02*
Y26856D01*
Y29106D02*
Y30256D01*
Y31531D02*
Y32681D01*
Y34931D02*
Y36131D01*
Y36881D02*
Y37931D01*
X91287Y23881D02*
Y24881D01*
Y25656D02*
Y26856D01*
Y29106D02*
Y30281D01*
Y31506D02*
Y32681D01*
Y34931D02*
Y36131D01*
Y36906D02*
Y37906D01*
X91312Y23881D02*
Y24856D01*
Y25656D02*
Y26856D01*
Y29106D02*
Y30281D01*
Y31506D02*
Y32681D01*
Y34931D02*
Y36131D01*
Y36931D02*
Y37906D01*
X91337Y23906D02*
Y24856D01*
Y25656D02*
Y26856D01*
Y29106D02*
Y30281D01*
Y31506D02*
Y32681D01*
Y34931D02*
Y36131D01*
Y36931D02*
Y37881D01*
X91362Y23931D02*
Y24831D01*
Y25681D02*
Y26831D01*
Y29106D02*
Y30281D01*
Y31506D02*
Y32681D01*
Y34956D02*
Y36106D01*
Y36956D02*
Y37856D01*
X91387Y23956D02*
Y24806D01*
Y25681D02*
Y26831D01*
Y29106D02*
Y30281D01*
Y31506D02*
Y32681D01*
Y34956D02*
Y36106D01*
Y36981D02*
Y37831D01*
X91412Y23981D02*
Y24781D01*
Y25681D02*
Y26831D01*
Y29106D02*
Y30281D01*
Y31506D02*
Y32681D01*
Y34956D02*
Y36106D01*
Y37006D02*
Y37806D01*
X91437Y24006D02*
Y24756D01*
Y25681D02*
Y26831D01*
Y29106D02*
Y30281D01*
Y31506D02*
Y32681D01*
Y34956D02*
Y36106D01*
Y37031D02*
Y37781D01*
X91462Y24031D02*
Y24731D01*
Y25706D02*
Y26806D01*
Y29106D02*
Y30281D01*
Y31506D02*
Y32681D01*
Y34981D02*
Y36081D01*
Y37056D02*
Y37756D01*
X91487Y24081D02*
Y24681D01*
Y25706D02*
Y26806D01*
Y29106D02*
Y30256D01*
Y31531D02*
Y32681D01*
Y34981D02*
Y36081D01*
Y37106D02*
Y37706D01*
X91512Y24106D02*
Y24631D01*
Y25706D02*
Y26806D01*
Y29106D02*
Y30256D01*
Y31531D02*
Y32681D01*
Y34981D02*
Y36081D01*
Y37156D02*
Y37656D01*
X91537Y24181D02*
Y24581D01*
Y25731D02*
Y26781D01*
Y29131D02*
Y30256D01*
Y31531D02*
Y32656D01*
Y35006D02*
Y36056D01*
Y37206D02*
Y37606D01*
X91562Y24281D02*
Y24481D01*
Y25731D02*
Y26781D01*
Y29131D02*
Y30256D01*
Y31531D02*
Y32656D01*
Y35006D02*
Y36056D01*
Y37306D02*
Y37506D01*
X91587Y25756D02*
Y26756D01*
Y29131D02*
Y30231D01*
Y31556D02*
Y32656D01*
Y35031D02*
Y36031D01*
X91612Y25781D02*
Y26731D01*
Y27306D02*
Y27531D01*
Y29156D02*
Y30231D01*
Y31556D02*
Y32631D01*
Y34256D02*
Y34481D01*
Y35031D02*
Y36006D01*
X91637Y25781D02*
Y26731D01*
Y27206D02*
Y27606D01*
Y29156D02*
Y30206D01*
Y31581D02*
Y32631D01*
Y34181D02*
Y34581D01*
Y35056D02*
Y36006D01*
X91662Y25806D02*
Y26706D01*
Y27156D02*
Y27681D01*
Y29181D02*
Y30206D01*
Y31581D02*
Y32606D01*
Y34106D02*
Y34631D01*
Y35081D02*
Y35981D01*
X91687Y25831D02*
Y26681D01*
Y27106D02*
Y27731D01*
Y29181D02*
Y30181D01*
Y31606D02*
Y32606D01*
Y34056D02*
Y34681D01*
Y35106D02*
Y35956D01*
X91712Y25856D02*
Y26656D01*
Y27081D02*
Y27756D01*
Y29206D02*
Y30156D01*
Y31631D02*
Y32581D01*
Y34031D02*
Y34706D01*
Y35131D02*
Y35931D01*
X91737Y24856D02*
Y25106D01*
Y25881D02*
Y26631D01*
Y27031D02*
Y27781D01*
Y29231D02*
Y30156D01*
Y31631D02*
Y32556D01*
Y34006D02*
Y34756D01*
Y35156D02*
Y35906D01*
Y36681D02*
Y36931D01*
X91762Y24781D02*
Y25206D01*
Y25906D02*
Y26606D01*
Y27006D02*
Y27831D01*
Y29256D02*
Y30131D01*
Y31656D02*
Y32531D01*
Y33956D02*
Y34781D01*
Y35181D02*
Y35881D01*
Y36581D02*
Y37006D01*
X91787Y24731D02*
Y25256D01*
Y25956D02*
Y26556D01*
Y26981D02*
Y27856D01*
Y29281D02*
Y30106D01*
Y31681D02*
Y32506D01*
Y33931D02*
Y34806D01*
Y35231D02*
Y35831D01*
Y36531D02*
Y37056D01*
X91812Y24681D02*
Y25306D01*
Y26006D02*
Y26506D01*
Y26956D02*
Y27856D01*
Y29306D02*
Y30081D01*
Y31706D02*
Y32481D01*
Y33931D02*
Y34831D01*
Y35281D02*
Y35781D01*
Y36481D02*
Y37106D01*
X91837Y24631D02*
Y25331D01*
Y26056D02*
Y26456D01*
Y26931D02*
Y27881D01*
Y29331D02*
Y30056D01*
Y31731D02*
Y32456D01*
Y33906D02*
Y34856D01*
Y35331D02*
Y35731D01*
Y36456D02*
Y37156D01*
X91862Y24606D02*
Y25381D01*
Y26181D02*
Y26331D01*
Y26931D02*
Y27906D01*
Y29356D02*
Y30006D01*
Y31781D02*
Y32431D01*
Y33881D02*
Y34856D01*
Y35456D02*
Y35606D01*
Y36406D02*
Y37181D01*
X91887Y24581D02*
Y25406D01*
Y26906D02*
Y27931D01*
Y29406D02*
Y29956D01*
Y31831D02*
Y32381D01*
Y33856D02*
Y34881D01*
Y36381D02*
Y37206D01*
X91912Y22906D02*
Y23131D01*
Y24556D02*
Y25431D01*
Y26906D02*
Y27931D01*
Y29456D02*
Y29906D01*
Y31881D02*
Y32331D01*
Y33856D02*
Y34881D01*
Y36356D02*
Y37231D01*
Y38656D02*
Y38881D01*
X91937Y22806D02*
Y23206D01*
Y24531D02*
Y25456D01*
Y26881D02*
Y27956D01*
Y29531D02*
Y29831D01*
Y31956D02*
Y32256D01*
Y33831D02*
Y34906D01*
Y36331D02*
Y37256D01*
Y38581D02*
Y38981D01*
X91962Y22756D02*
Y23281D01*
Y24506D02*
Y25456D01*
Y26881D02*
Y27956D01*
Y33831D02*
Y34906D01*
Y36331D02*
Y37281D01*
Y38506D02*
Y39031D01*
X91987Y22706D02*
Y23331D01*
Y24506D02*
Y25481D01*
Y26856D02*
Y27981D01*
Y33806D02*
Y34931D01*
Y36306D02*
Y37281D01*
Y38456D02*
Y39081D01*
X92012Y22681D02*
Y23356D01*
Y24481D02*
Y25506D01*
Y26856D02*
Y27981D01*
Y33806D02*
Y34931D01*
Y36281D02*
Y37306D01*
Y38431D02*
Y39106D01*
X92037Y22631D02*
Y23381D01*
Y24481D02*
Y25506D01*
Y26856D02*
Y27981D01*
Y33806D02*
Y34931D01*
Y36281D02*
Y37306D01*
Y38406D02*
Y39156D01*
X92062Y22606D02*
Y23431D01*
Y24456D02*
Y25531D01*
Y26831D02*
Y27981D01*
Y30881D02*
Y30906D01*
Y33806D02*
Y34956D01*
Y36256D02*
Y37331D01*
Y38356D02*
Y39181D01*
X92087Y22581D02*
Y23456D01*
Y24456D02*
Y25531D01*
Y26831D02*
Y28006D01*
Y30731D02*
Y31056D01*
Y33781D02*
Y34956D01*
Y36256D02*
Y37331D01*
Y38331D02*
Y39206D01*
X92112Y22556D02*
Y23456D01*
Y24431D02*
Y25556D01*
Y26831D02*
Y28006D01*
Y30656D02*
Y31131D01*
Y33781D02*
Y34956D01*
Y36231D02*
Y37356D01*
Y38331D02*
Y39231D01*
X92137Y22531D02*
Y23481D01*
Y24431D02*
Y25556D01*
Y26831D02*
Y28006D01*
Y30606D02*
Y31181D01*
Y33781D02*
Y34956D01*
Y36231D02*
Y37356D01*
Y38306D02*
Y39256D01*
X92162Y22531D02*
Y23506D01*
Y24431D02*
Y25556D01*
Y26831D02*
Y28006D01*
Y30556D02*
Y31231D01*
Y33781D02*
Y34956D01*
Y36231D02*
Y37356D01*
Y38281D02*
Y39256D01*
X92187Y22506D02*
Y23531D01*
Y24406D02*
Y25556D01*
Y26831D02*
Y28006D01*
Y30531D02*
Y31256D01*
Y33781D02*
Y34956D01*
Y36206D02*
Y37381D01*
Y38256D02*
Y39281D01*
X92212Y22506D02*
Y23531D01*
Y24406D02*
Y25581D01*
Y26831D02*
Y28006D01*
Y30506D02*
Y31281D01*
Y33781D02*
Y34956D01*
Y36206D02*
Y37381D01*
Y38256D02*
Y39281D01*
X92237Y22481D02*
Y23556D01*
Y24406D02*
Y25581D01*
Y26831D02*
Y28006D01*
Y30481D02*
Y31306D01*
Y33781D02*
Y34956D01*
Y36206D02*
Y37381D01*
Y38231D02*
Y39306D01*
X92262Y22481D02*
Y23556D01*
Y24406D02*
Y25581D01*
Y26831D02*
Y28006D01*
Y30456D02*
Y31331D01*
Y33781D02*
Y34956D01*
Y36206D02*
Y37381D01*
Y38231D02*
Y39306D01*
X92287Y22456D02*
Y23581D01*
Y24406D02*
Y25581D01*
Y26831D02*
Y28006D01*
Y30431D02*
Y31356D01*
Y33781D02*
Y34956D01*
Y36206D02*
Y37381D01*
Y38206D02*
Y39331D01*
X92312Y22456D02*
Y23581D01*
Y24406D02*
Y25581D01*
Y26831D02*
Y28006D01*
Y30406D02*
Y31381D01*
Y33781D02*
Y34956D01*
Y36206D02*
Y37381D01*
Y38206D02*
Y39331D01*
X92337Y22456D02*
Y23581D01*
Y24406D02*
Y25581D01*
Y26831D02*
Y27981D01*
Y30381D02*
Y31381D01*
Y33806D02*
Y34956D01*
Y36206D02*
Y37381D01*
Y38206D02*
Y39331D01*
X92362Y22431D02*
Y23581D01*
Y24406D02*
Y25581D01*
Y26856D02*
Y27981D01*
Y30381D02*
Y31406D01*
Y33806D02*
Y34931D01*
Y36206D02*
Y37381D01*
Y38206D02*
Y39356D01*
X92387Y22431D02*
Y23606D01*
Y24406D02*
Y25581D01*
Y26856D02*
Y27981D01*
Y30356D02*
Y31431D01*
Y33806D02*
Y34931D01*
Y36206D02*
Y37381D01*
Y38181D02*
Y39356D01*
X92412Y22431D02*
Y23606D01*
Y24406D02*
Y25581D01*
Y26856D02*
Y27956D01*
Y30356D02*
Y31431D01*
Y33831D02*
Y34931D01*
Y36206D02*
Y37381D01*
Y38181D02*
Y39356D01*
X92437Y22431D02*
Y23606D01*
Y24406D02*
Y25581D01*
Y26881D02*
Y27956D01*
Y30331D02*
Y31456D01*
Y33831D02*
Y34906D01*
Y36206D02*
Y37381D01*
Y38181D02*
Y39356D01*
X92462Y22431D02*
Y23606D01*
Y24406D02*
Y25556D01*
Y26881D02*
Y27931D01*
Y30331D02*
Y31456D01*
Y33856D02*
Y34906D01*
Y36231D02*
Y37356D01*
Y38181D02*
Y39356D01*
X92487Y22431D02*
Y23606D01*
Y24431D02*
Y25556D01*
Y26906D02*
Y27931D01*
Y30331D02*
Y31456D01*
Y33856D02*
Y34881D01*
Y36231D02*
Y37356D01*
Y38181D02*
Y39356D01*
X92512Y22431D02*
Y23606D01*
Y24431D02*
Y25556D01*
Y26906D02*
Y27906D01*
Y30331D02*
Y31456D01*
Y33881D02*
Y34856D01*
Y36231D02*
Y37356D01*
Y38181D02*
Y39356D01*
X92537Y22431D02*
Y23606D01*
Y24431D02*
Y25531D01*
Y26931D02*
Y27906D01*
Y30306D02*
Y31481D01*
Y33881D02*
Y34856D01*
Y36256D02*
Y37356D01*
Y38181D02*
Y39356D01*
X92562Y22431D02*
Y23606D01*
Y24456D02*
Y25531D01*
Y26956D02*
Y27881D01*
Y30306D02*
Y31481D01*
Y33906D02*
Y34831D01*
Y36256D02*
Y37331D01*
Y38181D02*
Y39356D01*
X92587Y22431D02*
Y23606D01*
Y24456D02*
Y25506D01*
Y26981D02*
Y27856D01*
Y30306D02*
Y31481D01*
Y33931D02*
Y34806D01*
Y36281D02*
Y37331D01*
Y38181D02*
Y39356D01*
X92612Y22431D02*
Y23606D01*
Y24481D02*
Y25506D01*
Y27006D02*
Y27831D01*
Y30306D02*
Y31481D01*
Y33956D02*
Y34781D01*
Y36281D02*
Y37306D01*
Y38181D02*
Y39356D01*
X92637Y22431D02*
Y23581D01*
Y24506D02*
Y25481D01*
Y27031D02*
Y27806D01*
Y30306D02*
Y31481D01*
Y33981D02*
Y34756D01*
Y36306D02*
Y37281D01*
Y38206D02*
Y39356D01*
X92662Y22456D02*
Y23581D01*
Y24506D02*
Y25481D01*
Y27056D02*
Y27781D01*
Y30306D02*
Y31481D01*
Y34006D02*
Y34731D01*
Y36306D02*
Y37281D01*
Y38206D02*
Y39331D01*
X92687Y22456D02*
Y23581D01*
Y24531D02*
Y25456D01*
Y27081D02*
Y27731D01*
Y30306D02*
Y31481D01*
Y34056D02*
Y34706D01*
Y36331D02*
Y37256D01*
Y38206D02*
Y39331D01*
X92712Y22456D02*
Y23556D01*
Y24556D02*
Y25431D01*
Y27131D02*
Y27706D01*
Y30306D02*
Y31481D01*
Y34081D02*
Y34656D01*
Y36356D02*
Y37231D01*
Y38231D02*
Y39331D01*
X92737Y22481D02*
Y23556D01*
Y24581D02*
Y25406D01*
Y27181D02*
Y27656D01*
Y30306D02*
Y31481D01*
Y34131D02*
Y34606D01*
Y36381D02*
Y37206D01*
Y38231D02*
Y39306D01*
X92762Y22481D02*
Y23531D01*
Y24606D02*
Y25381D01*
Y27256D02*
Y27581D01*
Y30306D02*
Y31481D01*
Y34206D02*
Y34531D01*
Y36406D02*
Y37181D01*
Y38256D02*
Y39306D01*
X92787Y22506D02*
Y23531D01*
Y24631D02*
Y25356D01*
Y30306D02*
Y31481D01*
Y36431D02*
Y37156D01*
Y38256D02*
Y39281D01*
X92812Y22506D02*
Y23506D01*
Y24681D02*
Y25306D01*
Y30331D02*
Y31456D01*
Y36481D02*
Y37106D01*
Y38281D02*
Y39281D01*
X92837Y22531D02*
Y23506D01*
Y24706D02*
Y25281D01*
Y30331D02*
Y31456D01*
Y36506D02*
Y37081D01*
Y38281D02*
Y39256D01*
X92862Y22556D02*
Y23481D01*
Y24756D02*
Y25206D01*
Y30331D02*
Y31456D01*
Y36581D02*
Y37031D01*
Y38306D02*
Y39231D01*
X92887Y22581D02*
Y23456D01*
Y24831D02*
Y25131D01*
Y30356D02*
Y31431D01*
Y36656D02*
Y36931D01*
Y38331D02*
Y39206D01*
X92912Y22606D02*
Y23431D01*
Y30356D02*
Y31431D01*
Y38356D02*
Y39181D01*
X92937Y22631D02*
Y23406D01*
Y30381D02*
Y31406D01*
Y38381D02*
Y39156D01*
X92962Y22656D02*
Y23381D01*
Y30381D02*
Y31406D01*
Y38406D02*
Y39131D01*
X92987Y22681D02*
Y23331D01*
Y30406D02*
Y31381D01*
Y38456D02*
Y39106D01*
X93012Y22731D02*
Y23306D01*
Y23781D02*
Y24131D01*
Y30431D02*
Y31356D01*
Y37656D02*
Y38006D01*
Y38481D02*
Y39056D01*
X93037Y22781D02*
Y23256D01*
Y23706D02*
Y24181D01*
Y30456D02*
Y31331D01*
Y37606D02*
Y38081D01*
Y38531D02*
Y39006D01*
X93062Y22856D02*
Y23181D01*
Y23656D02*
Y24231D01*
Y30456D02*
Y31331D01*
Y37556D02*
Y38131D01*
Y38606D02*
Y38931D01*
X93087Y23631D02*
Y24281D01*
Y30481D02*
Y31281D01*
Y37506D02*
Y38156D01*
X93112Y23581D02*
Y24306D01*
Y30531D02*
Y31256D01*
Y37481D02*
Y38206D01*
X93137Y23556D02*
Y24356D01*
Y30556D02*
Y31231D01*
Y37431D02*
Y38231D01*
X93162Y23531D02*
Y24381D01*
Y25456D02*
Y25656D01*
Y30606D02*
Y31181D01*
Y36131D02*
Y36331D01*
Y37406D02*
Y38256D01*
X93187Y23506D02*
Y24406D01*
Y25381D02*
Y25756D01*
Y30631D02*
Y31156D01*
Y36031D02*
Y36406D01*
Y37381D02*
Y38281D01*
X93212Y23481D02*
Y24406D01*
Y25306D02*
Y25831D01*
Y30706D02*
Y31081D01*
Y35956D02*
Y36481D01*
Y37381D02*
Y38306D01*
X93237Y23481D02*
Y24431D01*
Y25256D02*
Y25856D01*
Y30806D02*
Y30981D01*
Y35931D02*
Y36531D01*
Y37356D02*
Y38306D01*
X93262Y23456D02*
Y24456D01*
Y25231D02*
Y25906D01*
Y35881D02*
Y36556D01*
Y37331D02*
Y38331D01*
X93287Y23431D02*
Y24456D01*
Y25181D02*
Y25931D01*
Y35856D02*
Y36606D01*
Y37331D02*
Y38356D01*
X93312Y23431D02*
Y24481D01*
Y25156D02*
Y25956D01*
Y35831D02*
Y36631D01*
Y37306D02*
Y38356D01*
X93337Y23406D02*
Y24481D01*
Y25131D02*
Y25981D01*
Y35806D02*
Y36656D01*
Y37306D02*
Y38381D01*
X93362Y23406D02*
Y24506D01*
Y25106D02*
Y26006D01*
Y35781D02*
Y36681D01*
Y37281D02*
Y38381D01*
X93387Y23381D02*
Y24506D01*
Y25106D02*
Y26031D01*
Y35756D02*
Y36681D01*
Y37281D02*
Y38381D01*
X93412Y23381D02*
Y24531D01*
Y25081D02*
Y26056D01*
Y35731D02*
Y36706D01*
Y37256D02*
Y38406D01*
X93437Y23381D02*
Y24531D01*
Y25056D02*
Y26081D01*
Y35706D02*
Y36731D01*
Y37256D02*
Y38406D01*
X93462Y23381D02*
Y24531D01*
Y25056D02*
Y26081D01*
Y35706D02*
Y36731D01*
Y37256D02*
Y38406D01*
X93487Y23356D02*
Y24531D01*
Y25031D02*
Y26106D01*
Y35681D02*
Y36756D01*
Y37256D02*
Y38406D01*
X93512Y23356D02*
Y24531D01*
Y25031D02*
Y26106D01*
Y35681D02*
Y36756D01*
Y37256D02*
Y38431D01*
X93537Y23356D02*
Y24531D01*
Y25006D02*
Y26106D01*
Y35656D02*
Y36781D01*
Y37256D02*
Y38431D01*
X93562Y23356D02*
Y24556D01*
Y25006D02*
Y26131D01*
Y35656D02*
Y36781D01*
Y37231D02*
Y38431D01*
X93587Y23356D02*
Y24556D01*
Y25006D02*
Y26131D01*
Y35656D02*
Y36781D01*
Y37231D02*
Y38431D01*
X93612Y23356D02*
Y24531D01*
Y24981D02*
Y26131D01*
Y35656D02*
Y36806D01*
Y37231D02*
Y38431D01*
X93637Y23356D02*
Y24531D01*
Y24981D02*
Y26156D01*
Y35631D02*
Y36806D01*
Y37256D02*
Y38431D01*
X93662Y23356D02*
Y24531D01*
Y24981D02*
Y26156D01*
Y35631D02*
Y36806D01*
Y37256D02*
Y38431D01*
X93687Y21831D02*
Y22156D01*
Y23381D02*
Y24531D01*
Y24981D02*
Y26156D01*
Y35631D02*
Y36806D01*
Y37256D02*
Y38406D01*
Y39631D02*
Y39956D01*
X93712Y21756D02*
Y22231D01*
Y23381D02*
Y24531D01*
Y24981D02*
Y26156D01*
Y26806D02*
Y27106D01*
Y34681D02*
Y34981D01*
Y35631D02*
Y36806D01*
Y37256D02*
Y38406D01*
Y39556D02*
Y40031D01*
X93737Y21706D02*
Y22281D01*
Y23381D02*
Y24531D01*
Y24981D02*
Y26156D01*
Y26731D02*
Y27181D01*
Y34606D02*
Y35056D01*
Y35631D02*
Y36806D01*
Y37256D02*
Y38406D01*
Y39506D02*
Y40081D01*
X93762Y21681D02*
Y22331D01*
Y23381D02*
Y24506D01*
Y24981D02*
Y26156D01*
Y26681D02*
Y27231D01*
Y34556D02*
Y35106D01*
Y35631D02*
Y36806D01*
Y37281D02*
Y38406D01*
Y39456D02*
Y40106D01*
X93787Y21631D02*
Y22356D01*
Y23406D02*
Y24506D01*
Y24981D02*
Y26156D01*
Y26631D02*
Y27281D01*
Y34506D02*
Y35156D01*
Y35631D02*
Y36806D01*
Y37281D02*
Y38381D01*
Y39431D02*
Y40156D01*
X93812Y21606D02*
Y22381D01*
Y23406D02*
Y24506D01*
Y24981D02*
Y26156D01*
Y26606D02*
Y27306D01*
Y34481D02*
Y35181D01*
Y35631D02*
Y36806D01*
Y37281D02*
Y38381D01*
Y39406D02*
Y40181D01*
X93837Y21581D02*
Y22406D01*
Y23431D02*
Y24481D01*
Y24981D02*
Y26156D01*
Y26556D02*
Y27356D01*
Y34431D02*
Y35206D01*
Y35631D02*
Y36806D01*
Y37306D02*
Y38356D01*
Y39381D02*
Y40206D01*
X93862Y21556D02*
Y22431D01*
Y23431D02*
Y24481D01*
Y24981D02*
Y26156D01*
Y26531D02*
Y27381D01*
Y34406D02*
Y35256D01*
Y35631D02*
Y36806D01*
Y37306D02*
Y38356D01*
Y39356D02*
Y40231D01*
X93887Y21531D02*
Y22456D01*
Y23456D02*
Y24456D01*
Y24981D02*
Y26131D01*
Y26506D02*
Y27406D01*
Y34381D02*
Y35281D01*
Y35656D02*
Y36806D01*
Y37331D02*
Y38331D01*
Y39331D02*
Y40256D01*
X93912Y21506D02*
Y22481D01*
Y23456D02*
Y24431D01*
Y25006D02*
Y26131D01*
Y26506D02*
Y27431D01*
Y34356D02*
Y35281D01*
Y35656D02*
Y36781D01*
Y37356D02*
Y38331D01*
Y39306D02*
Y40281D01*
X93937Y21506D02*
Y22506D01*
Y23481D02*
Y24431D01*
Y25006D02*
Y26131D01*
Y26481D02*
Y27431D01*
Y34356D02*
Y35306D01*
Y35656D02*
Y36781D01*
Y37356D02*
Y38306D01*
Y39281D02*
Y40281D01*
X93962Y21481D02*
Y22506D01*
Y23506D02*
Y24406D01*
Y25006D02*
Y26106D01*
Y26456D02*
Y27456D01*
Y34331D02*
Y35331D01*
Y35681D02*
Y36781D01*
Y37381D02*
Y38281D01*
Y39281D02*
Y40306D01*
X93987Y21481D02*
Y22531D01*
Y23531D02*
Y24381D01*
Y25031D02*
Y26106D01*
Y26456D02*
Y27481D01*
Y34306D02*
Y35331D01*
Y35681D02*
Y36756D01*
Y37406D02*
Y38256D01*
Y39256D02*
Y40306D01*
X94012Y21456D02*
Y22531D01*
Y23556D02*
Y24356D01*
Y25031D02*
Y26081D01*
Y26431D02*
Y27481D01*
Y34306D02*
Y35356D01*
Y35706D02*
Y36756D01*
Y37431D02*
Y38231D01*
Y39256D02*
Y40331D01*
X94037Y21456D02*
Y22556D01*
Y23581D02*
Y24331D01*
Y25056D02*
Y26081D01*
Y26431D02*
Y27506D01*
Y34281D02*
Y35356D01*
Y35706D02*
Y36731D01*
Y37456D02*
Y38206D01*
Y39231D02*
Y40331D01*
X94062Y21431D02*
Y22556D01*
Y23606D02*
Y24281D01*
Y25056D02*
Y26056D01*
Y26406D02*
Y27506D01*
Y34281D02*
Y35381D01*
Y35731D02*
Y36731D01*
Y37481D02*
Y38181D01*
Y39231D02*
Y40356D01*
X94087Y21431D02*
Y22556D01*
Y23656D02*
Y24256D01*
Y25081D02*
Y26056D01*
Y26406D02*
Y27506D01*
Y34281D02*
Y35381D01*
Y35731D02*
Y36706D01*
Y37531D02*
Y38131D01*
Y39231D02*
Y40356D01*
X94112Y21431D02*
Y22581D01*
Y23706D02*
Y24206D01*
Y25106D02*
Y26031D01*
Y26381D02*
Y27531D01*
Y34256D02*
Y35406D01*
Y35756D02*
Y36681D01*
Y37581D02*
Y38081D01*
Y39206D02*
Y40356D01*
X94137Y21406D02*
Y22581D01*
Y23756D02*
Y24156D01*
Y25131D02*
Y26006D01*
Y26381D02*
Y27531D01*
Y34256D02*
Y35406D01*
Y35781D02*
Y36656D01*
Y37631D02*
Y38031D01*
Y39206D02*
Y40381D01*
X94162Y21406D02*
Y22581D01*
Y23856D02*
Y24056D01*
Y25156D02*
Y25981D01*
Y26381D02*
Y27531D01*
Y34256D02*
Y35406D01*
Y35806D02*
Y36631D01*
Y37731D02*
Y37931D01*
Y39206D02*
Y40381D01*
X94187Y21406D02*
Y22581D01*
Y25181D02*
Y25956D01*
Y26381D02*
Y27531D01*
Y34256D02*
Y35406D01*
Y35831D02*
Y36606D01*
Y39206D02*
Y40381D01*
X94212Y21406D02*
Y22581D01*
Y25206D02*
Y25931D01*
Y26381D02*
Y27556D01*
Y34231D02*
Y35406D01*
Y35856D02*
Y36581D01*
Y39206D02*
Y40381D01*
X94237Y21406D02*
Y22581D01*
Y25231D02*
Y25881D01*
Y26381D02*
Y27556D01*
Y34231D02*
Y35406D01*
Y35906D02*
Y36556D01*
Y39206D02*
Y40381D01*
X94262Y21406D02*
Y22581D01*
Y25281D02*
Y25856D01*
Y26356D02*
Y27556D01*
Y34231D02*
Y35431D01*
Y35931D02*
Y36506D01*
Y39206D02*
Y40381D01*
X94287Y21406D02*
Y22581D01*
Y25331D02*
Y25806D01*
Y26356D02*
Y27556D01*
Y34231D02*
Y35431D01*
Y35981D02*
Y36456D01*
Y39206D02*
Y40381D01*
X94312Y21406D02*
Y22581D01*
Y25406D02*
Y25731D01*
Y26356D02*
Y27556D01*
Y34231D02*
Y35406D01*
Y36056D02*
Y36381D01*
Y39206D02*
Y40381D01*
X94337Y21406D02*
Y22581D01*
Y26381D02*
Y27556D01*
Y34231D02*
Y35406D01*
Y39206D02*
Y40381D01*
X94362Y21406D02*
Y22581D01*
Y26381D02*
Y27556D01*
Y34231D02*
Y35406D01*
Y39206D02*
Y40381D01*
X94387Y21431D02*
Y22581D01*
Y26381D02*
Y27531D01*
Y34256D02*
Y35406D01*
Y39206D02*
Y40356D01*
X94412Y21431D02*
Y22556D01*
Y26381D02*
Y27531D01*
Y34256D02*
Y35406D01*
Y39231D02*
Y40356D01*
X94437Y21431D02*
Y22556D01*
Y23106D02*
Y23256D01*
Y26381D02*
Y27531D01*
Y34256D02*
Y35406D01*
Y38531D02*
Y38681D01*
Y39231D02*
Y40356D01*
X94462Y21431D02*
Y22556D01*
Y22981D02*
Y23381D01*
Y26406D02*
Y27531D01*
Y34256D02*
Y35381D01*
Y38406D02*
Y38806D01*
Y39231D02*
Y40356D01*
X94487Y21456D02*
Y22531D01*
Y22931D02*
Y23431D01*
Y26406D02*
Y27506D01*
Y34281D02*
Y35381D01*
Y38356D02*
Y38856D01*
Y39256D02*
Y40331D01*
X94512Y21456D02*
Y22531D01*
Y22881D02*
Y23481D01*
Y26406D02*
Y27506D01*
Y34281D02*
Y35381D01*
Y38306D02*
Y38906D01*
Y39256D02*
Y40331D01*
X94537Y21481D02*
Y22506D01*
Y22831D02*
Y23531D01*
Y26431D02*
Y27481D01*
Y34306D02*
Y35356D01*
Y38256D02*
Y38956D01*
Y39281D02*
Y40306D01*
X94562Y21481D02*
Y22506D01*
Y22806D02*
Y23556D01*
Y26431D02*
Y27481D01*
Y34306D02*
Y35356D01*
Y38231D02*
Y38981D01*
Y39281D02*
Y40306D01*
X94587Y21506D02*
Y22481D01*
Y22781D02*
Y23581D01*
Y26456D02*
Y27456D01*
Y34331D02*
Y35331D01*
Y38206D02*
Y39006D01*
Y39306D02*
Y40281D01*
X94612Y21531D02*
Y22456D01*
Y22756D02*
Y23606D01*
Y26456D02*
Y27456D01*
Y34331D02*
Y35331D01*
Y38181D02*
Y39031D01*
Y39306D02*
Y40256D01*
X94637Y21556D02*
Y22456D01*
Y22731D02*
Y23631D01*
Y26481D02*
Y27431D01*
Y34356D02*
Y35306D01*
Y38156D02*
Y39056D01*
Y39331D02*
Y40231D01*
X94662Y21556D02*
Y22431D01*
Y22706D02*
Y23656D01*
Y26506D02*
Y27406D01*
Y34381D02*
Y35281D01*
Y38131D02*
Y39081D01*
Y39356D02*
Y40231D01*
X94687Y21581D02*
Y22406D01*
Y22706D02*
Y23681D01*
Y26531D02*
Y27381D01*
Y34406D02*
Y35256D01*
Y38106D02*
Y39081D01*
Y39381D02*
Y40206D01*
X94712Y21631D02*
Y22381D01*
Y22681D02*
Y23681D01*
Y26556D02*
Y27356D01*
Y34431D02*
Y35231D01*
Y38106D02*
Y39106D01*
Y39406D02*
Y40156D01*
X94737Y21656D02*
Y22331D01*
Y22656D02*
Y23706D01*
Y26581D02*
Y27331D01*
Y34456D02*
Y35206D01*
Y38081D02*
Y39131D01*
Y39456D02*
Y40131D01*
X94762Y21681D02*
Y22306D01*
Y22656D02*
Y23706D01*
Y26606D02*
Y27306D01*
Y34481D02*
Y35181D01*
Y38081D02*
Y39131D01*
Y39481D02*
Y40106D01*
X94787Y21731D02*
Y22256D01*
Y22631D02*
Y23731D01*
Y26656D02*
Y27256D01*
Y34531D02*
Y35131D01*
Y38056D02*
Y39156D01*
Y39531D02*
Y40056D01*
X94812Y21806D02*
Y22206D01*
Y22631D02*
Y23731D01*
Y26706D02*
Y27231D01*
Y34556D02*
Y35081D01*
Y38056D02*
Y39156D01*
Y39581D02*
Y39981D01*
X94837Y21881D02*
Y22106D01*
Y22631D02*
Y23756D01*
Y26756D02*
Y27156D01*
Y34631D02*
Y35031D01*
Y38031D02*
Y39156D01*
Y39681D02*
Y39906D01*
X94862Y22606D02*
Y23756D01*
Y26856D02*
Y27081D01*
Y34706D02*
Y34931D01*
Y38031D02*
Y39181D01*
X94887Y22606D02*
Y23756D01*
Y38031D02*
Y39181D01*
X94912Y22606D02*
Y23756D01*
Y38031D02*
Y39181D01*
X94937Y22606D02*
Y23756D01*
Y38031D02*
Y39181D01*
X94962Y22581D02*
Y23781D01*
Y38006D02*
Y39206D01*
X94987Y22581D02*
Y23781D01*
Y38006D02*
Y39206D01*
X95012Y22581D02*
Y23781D01*
Y38006D02*
Y39206D01*
X95037Y22581D02*
Y23781D01*
Y38006D02*
Y39206D01*
X95062Y22581D02*
Y23781D01*
Y38006D02*
Y39206D01*
X95087Y22606D02*
Y23781D01*
Y38006D02*
Y39181D01*
X95112Y22606D02*
Y23756D01*
Y38031D02*
Y39181D01*
X95137Y22606D02*
Y23756D01*
Y38031D02*
Y39181D01*
X95162Y22606D02*
Y23756D01*
Y38031D02*
Y39181D01*
X95187Y22606D02*
Y23756D01*
Y29331D02*
Y33081D01*
Y38031D02*
Y39181D01*
X95212Y22631D02*
Y23731D01*
Y29231D02*
Y33081D01*
Y38056D02*
Y39156D01*
X95237Y22631D02*
Y23731D01*
Y29181D02*
Y33081D01*
Y38056D02*
Y39156D01*
X95262Y22631D02*
Y23731D01*
Y24206D02*
Y24506D01*
Y29131D02*
Y33081D01*
Y37281D02*
Y37581D01*
Y38056D02*
Y39156D01*
X95287Y22656D02*
Y23706D01*
Y24131D02*
Y24581D01*
Y29081D02*
Y33081D01*
Y37206D02*
Y37656D01*
Y38081D02*
Y39131D01*
X95312Y22656D02*
Y23706D01*
Y24081D02*
Y24631D01*
Y29056D02*
Y33081D01*
Y37156D02*
Y37706D01*
Y38081D02*
Y39131D01*
X95337Y22681D02*
Y23681D01*
Y24031D02*
Y24681D01*
Y29006D02*
Y33081D01*
Y37106D02*
Y37756D01*
Y38106D02*
Y39106D01*
X95362Y22706D02*
Y23656D01*
Y24006D02*
Y24706D01*
Y28981D02*
Y33081D01*
Y37081D02*
Y37781D01*
Y38131D02*
Y39081D01*
X95387Y22706D02*
Y23656D01*
Y23981D02*
Y24731D01*
Y28956D02*
Y33081D01*
Y37056D02*
Y37806D01*
Y38131D02*
Y39081D01*
X95412Y22731D02*
Y23631D01*
Y23956D02*
Y24756D01*
Y28931D02*
Y33081D01*
Y37006D02*
Y37831D01*
Y38156D02*
Y39056D01*
X95437Y22756D02*
Y23606D01*
Y23931D02*
Y24781D01*
Y28906D02*
Y33081D01*
Y37006D02*
Y37856D01*
Y38181D02*
Y39031D01*
X95462Y22781D02*
Y23581D01*
Y23906D02*
Y24806D01*
Y28881D02*
Y33081D01*
Y36981D02*
Y37881D01*
Y38206D02*
Y39006D01*
X95487Y22806D02*
Y23556D01*
Y23881D02*
Y24831D01*
Y28881D02*
Y33081D01*
Y36956D02*
Y37906D01*
Y38231D02*
Y38981D01*
X95512Y22856D02*
Y23506D01*
Y23856D02*
Y24856D01*
Y28856D02*
Y33081D01*
Y36931D02*
Y37931D01*
Y38281D02*
Y38931D01*
X95537Y22881D02*
Y23481D01*
Y23856D02*
Y24856D01*
Y28831D02*
Y33081D01*
Y36931D02*
Y37931D01*
Y38306D02*
Y38906D01*
X95562Y22931D02*
Y23431D01*
Y23831D02*
Y24881D01*
Y28831D02*
Y33081D01*
Y36906D02*
Y37956D01*
Y38356D02*
Y38856D01*
X95587Y23006D02*
Y23356D01*
Y23831D02*
Y24881D01*
Y28806D02*
Y33081D01*
Y36906D02*
Y37956D01*
Y38431D02*
Y38781D01*
X95612Y21256D02*
Y21481D01*
Y23156D02*
Y23206D01*
Y23806D02*
Y24906D01*
Y28781D02*
Y33081D01*
Y36881D02*
Y37981D01*
Y38581D02*
Y38631D01*
Y40306D02*
Y40531D01*
X95637Y21156D02*
Y21581D01*
Y23806D02*
Y24906D01*
Y28781D02*
Y33081D01*
Y36881D02*
Y37981D01*
Y40206D02*
Y40631D01*
X95662Y21106D02*
Y21631D01*
Y23781D02*
Y24931D01*
Y28781D02*
Y33081D01*
Y36856D02*
Y38006D01*
Y40156D02*
Y40681D01*
X95687Y21056D02*
Y21681D01*
Y23781D02*
Y24931D01*
Y28756D02*
Y33081D01*
Y36856D02*
Y38006D01*
Y40106D02*
Y40731D01*
X95712Y21031D02*
Y21706D01*
Y23781D02*
Y24931D01*
Y28756D02*
Y33081D01*
Y36856D02*
Y38006D01*
Y40081D02*
Y40756D01*
X95737Y20981D02*
Y21756D01*
Y23781D02*
Y24931D01*
Y28731D02*
Y33081D01*
Y36856D02*
Y38006D01*
Y40031D02*
Y40806D01*
X95762Y20956D02*
Y21781D01*
Y23781D02*
Y24931D01*
Y28731D02*
Y33081D01*
Y36831D02*
Y38006D01*
Y40006D02*
Y40831D01*
X95787Y20931D02*
Y21806D01*
Y23756D02*
Y24956D01*
Y28731D02*
Y33081D01*
Y36831D02*
Y38031D01*
Y39981D02*
Y40856D01*
X95812Y20906D02*
Y21831D01*
Y23756D02*
Y24956D01*
Y28731D02*
Y33081D01*
Y36831D02*
Y38031D01*
Y39956D02*
Y40881D01*
X95837Y20906D02*
Y21831D01*
Y23756D02*
Y24956D01*
Y28706D02*
Y33081D01*
Y36831D02*
Y38031D01*
Y39956D02*
Y40881D01*
X95862Y20881D02*
Y21856D01*
Y23756D02*
Y24956D01*
Y28706D02*
Y33081D01*
Y36831D02*
Y38031D01*
Y39931D02*
Y40906D01*
X95887Y20856D02*
Y21881D01*
Y23756D02*
Y24956D01*
Y28706D02*
Y33081D01*
Y36831D02*
Y38031D01*
Y39906D02*
Y40931D01*
X95912Y20856D02*
Y21881D01*
Y23781D02*
Y24931D01*
Y28706D02*
Y33081D01*
Y36831D02*
Y38006D01*
Y39906D02*
Y40931D01*
X95937Y20831D02*
Y21906D01*
Y23781D02*
Y24931D01*
Y28706D02*
Y33081D01*
Y36856D02*
Y38006D01*
Y39881D02*
Y40956D01*
X95962Y20831D02*
Y21906D01*
Y23781D02*
Y24931D01*
Y28706D02*
Y33081D01*
Y36856D02*
Y38006D01*
Y39881D02*
Y40956D01*
X95987Y20806D02*
Y21931D01*
Y23781D02*
Y24931D01*
Y28706D02*
Y33081D01*
Y36856D02*
Y38006D01*
Y39856D02*
Y40981D01*
X96012Y20806D02*
Y21931D01*
Y22581D02*
Y22831D01*
Y23781D02*
Y24931D01*
Y28706D02*
Y33081D01*
Y36856D02*
Y38006D01*
Y38956D02*
Y39206D01*
Y39856D02*
Y40981D01*
X96037Y20806D02*
Y21931D01*
Y22481D02*
Y22931D01*
Y23806D02*
Y24906D01*
Y28706D02*
Y33081D01*
Y36881D02*
Y37981D01*
Y38856D02*
Y39306D01*
Y39856D02*
Y40981D01*
X96062Y20781D02*
Y21956D01*
Y22431D02*
Y22981D01*
Y23806D02*
Y24906D01*
Y28706D02*
Y33081D01*
Y36881D02*
Y37981D01*
Y38806D02*
Y39356D01*
Y39831D02*
Y41006D01*
X96087Y20781D02*
Y21956D01*
Y22381D02*
Y23031D01*
Y23831D02*
Y24881D01*
Y28706D02*
Y33081D01*
Y36906D02*
Y37956D01*
Y38756D02*
Y39406D01*
Y39831D02*
Y41006D01*
X96112Y20781D02*
Y21956D01*
Y22356D02*
Y23056D01*
Y23831D02*
Y24881D01*
Y28681D02*
Y33081D01*
Y36906D02*
Y37956D01*
Y38731D02*
Y39431D01*
Y39831D02*
Y41006D01*
X96137Y20781D02*
Y21956D01*
Y22331D02*
Y23081D01*
Y23856D02*
Y24856D01*
Y28681D02*
Y29656D01*
Y36931D02*
Y37931D01*
Y38706D02*
Y39456D01*
Y39831D02*
Y41006D01*
X96162Y20781D02*
Y21956D01*
Y22306D02*
Y23106D01*
Y23856D02*
Y24856D01*
Y28681D02*
Y29656D01*
Y36931D02*
Y37931D01*
Y38681D02*
Y39481D01*
Y39831D02*
Y41006D01*
X96187Y20781D02*
Y21956D01*
Y22281D02*
Y23131D01*
Y23881D02*
Y24831D01*
Y28681D02*
Y29656D01*
Y36956D02*
Y37906D01*
Y38656D02*
Y39506D01*
Y39831D02*
Y41006D01*
X96212Y20781D02*
Y21956D01*
Y22256D02*
Y23156D01*
Y23906D02*
Y24806D01*
Y28681D02*
Y29656D01*
Y36981D02*
Y37881D01*
Y38631D02*
Y39531D01*
Y39831D02*
Y41006D01*
X96237Y20781D02*
Y21956D01*
Y22231D02*
Y23181D01*
Y23931D02*
Y24781D01*
Y28681D02*
Y29656D01*
Y37006D02*
Y37856D01*
Y38606D02*
Y39556D01*
Y39831D02*
Y41006D01*
X96262Y20781D02*
Y21956D01*
Y22206D02*
Y23206D01*
Y23956D02*
Y24756D01*
Y28681D02*
Y29656D01*
Y37031D02*
Y37831D01*
Y38581D02*
Y39581D01*
Y39831D02*
Y41006D01*
X96287Y20781D02*
Y21956D01*
Y22206D02*
Y23206D01*
Y23981D02*
Y24731D01*
Y28681D02*
Y29656D01*
Y37056D02*
Y37806D01*
Y38581D02*
Y39581D01*
Y39831D02*
Y41006D01*
X96312Y20781D02*
Y21956D01*
Y22181D02*
Y23231D01*
Y24006D02*
Y24706D01*
Y28681D02*
Y29656D01*
Y37081D02*
Y37781D01*
Y38556D02*
Y39606D01*
Y39831D02*
Y41006D01*
X96337Y20806D02*
Y21931D01*
Y22181D02*
Y23231D01*
Y24031D02*
Y24681D01*
Y28681D02*
Y29656D01*
Y37106D02*
Y37756D01*
Y38556D02*
Y39606D01*
Y39856D02*
Y40981D01*
X96362Y20806D02*
Y21931D01*
Y22156D02*
Y23256D01*
Y24081D02*
Y24631D01*
Y28681D02*
Y29656D01*
Y37156D02*
Y37706D01*
Y38531D02*
Y39631D01*
Y39856D02*
Y40981D01*
X96387Y20806D02*
Y21931D01*
Y22156D02*
Y23256D01*
Y24131D02*
Y24581D01*
Y28681D02*
Y29656D01*
Y37206D02*
Y37656D01*
Y38531D02*
Y39631D01*
Y39856D02*
Y40981D01*
X96412Y20831D02*
Y21906D01*
Y22131D02*
Y23281D01*
Y24231D02*
Y24481D01*
Y28681D02*
Y29656D01*
Y37306D02*
Y37556D01*
Y38506D02*
Y39656D01*
Y39881D02*
Y40956D01*
X96437Y20831D02*
Y21906D01*
Y22131D02*
Y23281D01*
Y28681D02*
Y29656D01*
Y38506D02*
Y39656D01*
Y39881D02*
Y40956D01*
X96462Y20831D02*
Y21881D01*
Y22131D02*
Y23281D01*
Y28681D02*
Y29656D01*
Y38506D02*
Y39656D01*
Y39881D02*
Y40956D01*
X96487Y20856D02*
Y21881D01*
Y22131D02*
Y23281D01*
Y28681D02*
Y29656D01*
Y38506D02*
Y39656D01*
Y39906D02*
Y40931D01*
X96512Y20881D02*
Y21856D01*
Y22131D02*
Y23281D01*
Y28706D02*
Y29656D01*
Y38481D02*
Y39656D01*
Y39931D02*
Y40906D01*
X96537Y20881D02*
Y21856D01*
Y22106D02*
Y23306D01*
Y28706D02*
Y29656D01*
Y38481D02*
Y39681D01*
Y39931D02*
Y40906D01*
X96562Y20906D02*
Y21831D01*
Y22106D02*
Y23306D01*
Y28706D02*
Y29656D01*
Y38481D02*
Y39681D01*
Y39956D02*
Y40881D01*
X96587Y20931D02*
Y21806D01*
Y22106D02*
Y23306D01*
Y28706D02*
Y29656D01*
Y38481D02*
Y39681D01*
Y39981D02*
Y40856D01*
X96612Y20956D02*
Y21781D01*
Y22106D02*
Y23306D01*
Y28706D02*
Y29656D01*
Y38481D02*
Y39681D01*
Y40006D02*
Y40831D01*
X96637Y20981D02*
Y21756D01*
Y22106D02*
Y23306D01*
Y28706D02*
Y29656D01*
Y38481D02*
Y39681D01*
Y40031D02*
Y40806D01*
X96662Y21006D02*
Y21731D01*
Y22131D02*
Y23281D01*
Y28706D02*
Y29656D01*
Y38506D02*
Y39656D01*
Y40056D02*
Y40781D01*
X96687Y21056D02*
Y21681D01*
Y22131D02*
Y23281D01*
Y28706D02*
Y29656D01*
Y38506D02*
Y39656D01*
Y40106D02*
Y40731D01*
X96712Y21081D02*
Y21656D01*
Y22131D02*
Y23281D01*
Y28706D02*
Y29656D01*
Y38506D02*
Y39656D01*
Y40131D02*
Y40706D01*
X96737Y21131D02*
Y21606D01*
Y22131D02*
Y23281D01*
Y28706D02*
Y29656D01*
Y38506D02*
Y39656D01*
Y40181D02*
Y40656D01*
X96762Y21206D02*
Y21531D01*
Y22131D02*
Y23281D01*
Y28706D02*
Y29656D01*
Y38506D02*
Y39656D01*
Y40256D02*
Y40581D01*
X96787Y22156D02*
Y23256D01*
Y28706D02*
Y29656D01*
Y38531D02*
Y39631D01*
X96812Y22156D02*
Y23256D01*
Y28706D02*
Y29656D01*
Y38531D02*
Y39631D01*
X96837Y22181D02*
Y23231D01*
Y28706D02*
Y29656D01*
Y38556D02*
Y39606D01*
X96862Y22181D02*
Y23231D01*
Y28706D02*
Y29656D01*
Y38556D02*
Y39606D01*
X96887Y22206D02*
Y23206D01*
Y28706D02*
Y29656D01*
Y38581D02*
Y39581D01*
X96912Y22206D02*
Y23206D01*
Y28706D02*
Y29656D01*
Y38581D02*
Y39581D01*
X96937Y22231D02*
Y23181D01*
Y28706D02*
Y29656D01*
Y38606D02*
Y39556D01*
X96962Y22256D02*
Y23156D01*
Y28706D02*
Y29656D01*
Y38631D02*
Y39531D01*
X96987Y22281D02*
Y23131D01*
Y28706D02*
Y29656D01*
Y38656D02*
Y39506D01*
X97012Y22306D02*
Y23106D01*
Y28706D02*
Y29656D01*
Y38681D02*
Y39481D01*
X97037Y22331D02*
Y23081D01*
Y28706D02*
Y29656D01*
Y38706D02*
Y39456D01*
X97062Y22356D02*
Y23056D01*
Y28706D02*
Y29656D01*
Y38731D02*
Y39431D01*
X97087Y22381D02*
Y23031D01*
Y28706D02*
Y29656D01*
Y38756D02*
Y39406D01*
X97112Y22431D02*
Y22981D01*
Y28706D02*
Y29656D01*
Y38806D02*
Y39356D01*
X97137Y22481D02*
Y22931D01*
Y28706D02*
Y29656D01*
Y38856D02*
Y39306D01*
X97162Y22556D02*
Y22856D01*
Y28706D02*
Y29656D01*
Y38931D02*
Y39206D01*
X97187Y28706D02*
Y29656D01*
X97212Y28706D02*
Y29656D01*
X97237Y28706D02*
Y29656D01*
X97262Y28706D02*
Y29656D01*
X97287Y28706D02*
Y29656D01*
X97312Y28706D02*
Y29656D01*
X97337Y28706D02*
Y29656D01*
X97362Y28706D02*
Y29656D01*
X97387Y28706D02*
Y29656D01*
X97412Y28706D02*
Y29656D01*
X97437Y28706D02*
Y29656D01*
X97462Y28706D02*
Y29656D01*
X97487Y28706D02*
Y29656D01*
X97512Y28706D02*
Y29681D01*
X97537Y28706D02*
Y32306D01*
X97562Y28706D02*
Y32306D01*
X97587Y28706D02*
Y32306D01*
X97612Y28706D02*
Y32306D01*
X97637Y18256D02*
Y18506D01*
Y19631D02*
Y19881D01*
Y21031D02*
Y21281D01*
Y22431D02*
Y22681D01*
Y23806D02*
Y24056D01*
Y25206D02*
Y25456D01*
Y26606D02*
Y26856D01*
Y28706D02*
Y32306D01*
Y34931D02*
Y35181D01*
Y36331D02*
Y36581D01*
Y37731D02*
Y37981D01*
Y39106D02*
Y39356D01*
Y40506D02*
Y40756D01*
Y41906D02*
Y42156D01*
Y43281D02*
Y43531D01*
X97662Y18156D02*
Y18581D01*
Y19556D02*
Y19981D01*
Y20956D02*
Y21356D01*
Y22331D02*
Y22756D01*
Y23731D02*
Y24156D01*
Y25131D02*
Y25531D01*
Y26506D02*
Y26931D01*
Y28706D02*
Y32306D01*
Y34856D02*
Y35281D01*
Y36256D02*
Y36656D01*
Y37631D02*
Y38056D01*
Y39031D02*
Y39456D01*
Y40431D02*
Y40831D01*
Y41806D02*
Y42231D01*
Y43206D02*
Y43631D01*
X97687Y18106D02*
Y18631D01*
Y19506D02*
Y20031D01*
Y20881D02*
Y21431D01*
Y22281D02*
Y22806D01*
Y23681D02*
Y24206D01*
Y25056D02*
Y25606D01*
Y26456D02*
Y26981D01*
Y28706D02*
Y32306D01*
Y34806D02*
Y35331D01*
Y36181D02*
Y36731D01*
Y37581D02*
Y38106D01*
Y38981D02*
Y39506D01*
Y40356D02*
Y40906D01*
Y41756D02*
Y42281D01*
Y43156D02*
Y43681D01*
X97712Y18056D02*
Y18681D01*
Y19456D02*
Y20081D01*
Y20856D02*
Y21456D01*
Y22231D02*
Y22856D01*
Y23631D02*
Y24256D01*
Y25006D02*
Y25631D01*
Y26406D02*
Y27031D01*
Y28706D02*
Y32306D01*
Y34756D02*
Y35381D01*
Y36156D02*
Y36756D01*
Y37531D02*
Y38156D01*
Y38931D02*
Y39556D01*
Y40331D02*
Y40931D01*
Y41706D02*
Y42331D01*
Y43106D02*
Y43731D01*
X97737Y18031D02*
Y18731D01*
Y19406D02*
Y20106D01*
Y20806D02*
Y21506D01*
Y22206D02*
Y22881D01*
Y23581D02*
Y24281D01*
Y24981D02*
Y25681D01*
Y26381D02*
Y27056D01*
Y28706D02*
Y32306D01*
Y34731D02*
Y35406D01*
Y36106D02*
Y36806D01*
Y37506D02*
Y38206D01*
Y38881D02*
Y39581D01*
Y40281D02*
Y40981D01*
Y41681D02*
Y42381D01*
Y43056D02*
Y43756D01*
X97762Y17981D02*
Y18756D01*
Y19381D02*
Y20131D01*
Y20781D02*
Y21531D01*
Y22156D02*
Y22931D01*
Y23556D02*
Y24306D01*
Y24956D02*
Y25706D01*
Y26331D02*
Y27106D01*
Y28706D02*
Y32281D01*
Y34681D02*
Y35456D01*
Y36081D02*
Y36831D01*
Y37481D02*
Y38231D01*
Y38856D02*
Y39631D01*
Y40256D02*
Y41006D01*
Y41631D02*
Y42406D01*
Y43031D02*
Y43806D01*
X97787Y17956D02*
Y18781D01*
Y19356D02*
Y20181D01*
Y20756D02*
Y21556D01*
Y22131D02*
Y22956D01*
Y23531D02*
Y24356D01*
Y24931D02*
Y25731D01*
Y26306D02*
Y27131D01*
Y28706D02*
Y32281D01*
Y34656D02*
Y35481D01*
Y36056D02*
Y36856D01*
Y37431D02*
Y38256D01*
Y38831D02*
Y39656D01*
Y40231D02*
Y41031D01*
Y41606D02*
Y42431D01*
Y43006D02*
Y43831D01*
X97812Y17931D02*
Y18806D01*
Y19331D02*
Y20206D01*
Y20731D02*
Y21581D01*
Y22106D02*
Y22981D01*
Y23506D02*
Y24381D01*
Y24906D02*
Y25756D01*
Y26281D02*
Y27156D01*
Y28706D02*
Y32281D01*
Y34631D02*
Y35506D01*
Y36031D02*
Y36881D01*
Y37406D02*
Y38281D01*
Y38806D02*
Y39681D01*
Y40206D02*
Y41056D01*
Y41581D02*
Y42456D01*
Y42981D02*
Y43856D01*
X97837Y17906D02*
Y18831D01*
Y19306D02*
Y20206D01*
Y20706D02*
Y21606D01*
Y22081D02*
Y23006D01*
Y23481D02*
Y24381D01*
Y24881D02*
Y25781D01*
Y26256D02*
Y27181D01*
Y28706D02*
Y32281D01*
Y34606D02*
Y35531D01*
Y36006D02*
Y36906D01*
Y37406D02*
Y38306D01*
Y38781D02*
Y39706D01*
Y40181D02*
Y41081D01*
Y41556D02*
Y42481D01*
Y42956D02*
Y43881D01*
X97862Y17906D02*
Y18856D01*
Y19281D02*
Y20231D01*
Y20681D02*
Y21631D01*
Y22081D02*
Y23031D01*
Y23456D02*
Y24406D01*
Y24856D02*
Y25806D01*
Y26256D02*
Y27206D01*
Y28706D02*
Y32256D01*
Y34581D02*
Y35531D01*
Y35981D02*
Y36931D01*
Y37381D02*
Y38331D01*
Y38756D02*
Y39706D01*
Y40156D02*
Y41106D01*
Y41556D02*
Y42506D01*
Y42931D02*
Y43881D01*
X97887Y17881D02*
Y18856D01*
Y19281D02*
Y20256D01*
Y20656D02*
Y21656D01*
Y22056D02*
Y23031D01*
Y23456D02*
Y24431D01*
Y24831D02*
Y25831D01*
Y26231D02*
Y27206D01*
Y28706D02*
Y32256D01*
Y34581D02*
Y35556D01*
Y35956D02*
Y36956D01*
Y37356D02*
Y38331D01*
Y38756D02*
Y39731D01*
Y40131D02*
Y41131D01*
Y41531D02*
Y42506D01*
Y42931D02*
Y43906D01*
X97912Y17856D02*
Y18881D01*
Y19256D02*
Y20281D01*
Y20656D02*
Y21656D01*
Y22031D02*
Y23056D01*
Y23431D02*
Y24456D01*
Y24831D02*
Y25831D01*
Y26206D02*
Y27231D01*
Y28706D02*
Y32256D01*
Y34556D02*
Y35581D01*
Y35956D02*
Y36956D01*
Y37331D02*
Y38356D01*
Y38731D02*
Y39756D01*
Y40131D02*
Y41131D01*
Y41506D02*
Y42531D01*
Y42906D02*
Y43931D01*
X97937Y17856D02*
Y18906D01*
Y19231D02*
Y20281D01*
Y20631D02*
Y21681D01*
Y22031D02*
Y23056D01*
Y23406D02*
Y24456D01*
Y24806D02*
Y25856D01*
Y26206D02*
Y27231D01*
Y28706D02*
Y32231D01*
Y34556D02*
Y35581D01*
Y35931D02*
Y36981D01*
Y37331D02*
Y38381D01*
Y38731D02*
Y39756D01*
Y40106D02*
Y41156D01*
Y41506D02*
Y42556D01*
Y42881D02*
Y43931D01*
X97962Y17831D02*
Y18906D01*
Y19231D02*
Y20306D01*
Y20631D02*
Y21681D01*
Y22006D02*
Y23081D01*
Y23406D02*
Y24481D01*
Y24806D02*
Y25856D01*
Y26181D02*
Y27256D01*
Y28706D02*
Y32231D01*
Y34531D02*
Y35606D01*
Y35931D02*
Y36981D01*
Y37306D02*
Y38381D01*
Y38706D02*
Y39781D01*
Y40106D02*
Y41156D01*
Y41481D02*
Y42556D01*
Y42881D02*
Y43956D01*
X97987Y17831D02*
Y18906D01*
Y19206D02*
Y20306D01*
Y20606D02*
Y21706D01*
Y22006D02*
Y23081D01*
Y23381D02*
Y24481D01*
Y24781D02*
Y25881D01*
Y26181D02*
Y27256D01*
Y28706D02*
Y32206D01*
Y34531D02*
Y35606D01*
Y35906D02*
Y37006D01*
Y37306D02*
Y38406D01*
Y38706D02*
Y39781D01*
Y40081D02*
Y41181D01*
Y41481D02*
Y42581D01*
Y42856D02*
Y43956D01*
X98012Y17806D02*
Y18931D01*
Y19206D02*
Y20331D01*
Y20606D02*
Y21706D01*
Y21981D02*
Y23106D01*
Y23381D02*
Y24481D01*
Y24781D02*
Y25881D01*
Y26156D02*
Y27281D01*
Y28706D02*
Y32206D01*
Y34506D02*
Y35631D01*
Y35906D02*
Y37006D01*
Y37306D02*
Y38406D01*
Y38681D02*
Y39806D01*
Y40081D02*
Y41181D01*
Y41456D02*
Y42581D01*
Y42856D02*
Y43981D01*
X98037Y17806D02*
Y18931D01*
Y19206D02*
Y20331D01*
Y20581D02*
Y21731D01*
Y21981D02*
Y23106D01*
Y23381D02*
Y24506D01*
Y24756D02*
Y25881D01*
Y26156D02*
Y27281D01*
Y28706D02*
Y32181D01*
Y34506D02*
Y35631D01*
Y35906D02*
Y37031D01*
Y37281D02*
Y38406D01*
Y38681D02*
Y39806D01*
Y40056D02*
Y41206D01*
Y41456D02*
Y42581D01*
Y42856D02*
Y43981D01*
X98062Y17806D02*
Y18956D01*
Y19181D02*
Y20331D01*
Y20581D02*
Y21731D01*
Y21981D02*
Y23106D01*
Y23356D02*
Y24506D01*
Y24756D02*
Y25906D01*
Y26156D02*
Y27281D01*
Y28706D02*
Y32181D01*
Y34506D02*
Y35631D01*
Y35881D02*
Y37031D01*
Y37281D02*
Y38431D01*
Y38681D02*
Y39806D01*
Y40056D02*
Y41206D01*
Y41456D02*
Y42606D01*
Y42831D02*
Y43981D01*
X98087Y17781D02*
Y18956D01*
Y19181D02*
Y20331D01*
Y20581D02*
Y21731D01*
Y21981D02*
Y23131D01*
Y23356D02*
Y24506D01*
Y24756D02*
Y25906D01*
Y26131D02*
Y27306D01*
Y28706D02*
Y32156D01*
Y34481D02*
Y35656D01*
Y35881D02*
Y37031D01*
Y37281D02*
Y38431D01*
Y38656D02*
Y39806D01*
Y40056D02*
Y41206D01*
Y41456D02*
Y42606D01*
Y42831D02*
Y43981D01*
X98112Y17781D02*
Y18956D01*
Y19181D02*
Y20356D01*
Y20581D02*
Y21731D01*
Y21956D02*
Y23131D01*
Y23356D02*
Y24531D01*
Y24756D02*
Y25906D01*
Y26131D02*
Y27306D01*
Y28706D02*
Y32131D01*
Y34481D02*
Y35656D01*
Y35881D02*
Y37031D01*
Y37256D02*
Y38431D01*
Y38656D02*
Y39831D01*
Y40056D02*
Y41206D01*
Y41431D02*
Y42606D01*
Y42831D02*
Y44006D01*
X98137Y17781D02*
Y18956D01*
Y19181D02*
Y20356D01*
Y20581D02*
Y21731D01*
Y21956D02*
Y23131D01*
Y23356D02*
Y24531D01*
Y24731D02*
Y25906D01*
Y26131D02*
Y27306D01*
Y28706D02*
Y32131D01*
Y34481D02*
Y35656D01*
Y35881D02*
Y37056D01*
Y37256D02*
Y38431D01*
Y38656D02*
Y39831D01*
Y40056D02*
Y41206D01*
Y41431D02*
Y42606D01*
Y42831D02*
Y44006D01*
X98162Y17781D02*
Y18956D01*
Y19181D02*
Y20356D01*
Y20556D02*
Y21756D01*
Y21956D02*
Y23131D01*
Y23356D02*
Y24531D01*
Y24731D02*
Y25906D01*
Y26131D02*
Y27306D01*
Y28706D02*
Y32106D01*
Y34481D02*
Y35656D01*
Y35881D02*
Y37056D01*
Y37256D02*
Y38431D01*
Y38656D02*
Y39831D01*
Y40031D02*
Y41231D01*
Y41431D02*
Y42606D01*
Y42831D02*
Y44006D01*
X98187Y17781D02*
Y18956D01*
Y19181D02*
Y20356D01*
Y20556D02*
Y21756D01*
Y21956D02*
Y23131D01*
Y23356D02*
Y24531D01*
Y24731D02*
Y25931D01*
Y26131D02*
Y27306D01*
Y28706D02*
Y32081D01*
Y34481D02*
Y35656D01*
Y35856D02*
Y37056D01*
Y37256D02*
Y38431D01*
Y38656D02*
Y39831D01*
Y40031D02*
Y41231D01*
Y41431D02*
Y42606D01*
Y42831D02*
Y44006D01*
X98212Y17781D02*
Y18956D01*
Y19181D02*
Y20356D01*
Y20556D02*
Y21756D01*
Y21956D02*
Y23131D01*
Y23356D02*
Y24531D01*
Y24731D02*
Y25931D01*
Y26131D02*
Y27306D01*
Y28706D02*
Y32056D01*
Y34481D02*
Y35656D01*
Y35856D02*
Y37056D01*
Y37256D02*
Y38431D01*
Y38656D02*
Y39831D01*
Y40031D02*
Y41231D01*
Y41431D02*
Y42606D01*
Y42831D02*
Y44006D01*
X98237Y17781D02*
Y18956D01*
Y19181D02*
Y20356D01*
Y20556D02*
Y21756D01*
Y21956D02*
Y23131D01*
Y23356D02*
Y24531D01*
Y24731D02*
Y25931D01*
Y26131D02*
Y27306D01*
Y28706D02*
Y32031D01*
Y34481D02*
Y35656D01*
Y35856D02*
Y37056D01*
Y37256D02*
Y38431D01*
Y38656D02*
Y39831D01*
Y40031D02*
Y41231D01*
Y41431D02*
Y42606D01*
Y42831D02*
Y44006D01*
X98262Y17781D02*
Y18956D01*
Y19181D02*
Y20356D01*
Y20556D02*
Y21756D01*
Y21956D02*
Y23131D01*
Y23356D02*
Y24531D01*
Y24731D02*
Y25906D01*
Y26131D02*
Y27306D01*
Y28706D02*
Y32006D01*
Y34481D02*
Y35656D01*
Y35881D02*
Y37056D01*
Y37256D02*
Y38431D01*
Y38656D02*
Y39831D01*
Y40031D02*
Y41231D01*
Y41431D02*
Y42606D01*
Y42831D02*
Y44006D01*
X98287Y17781D02*
Y18956D01*
Y19181D02*
Y20356D01*
Y20556D02*
Y21731D01*
Y21956D02*
Y23131D01*
Y23356D02*
Y24531D01*
Y24731D02*
Y25906D01*
Y26131D02*
Y27306D01*
Y28706D02*
Y31956D01*
Y34481D02*
Y35656D01*
Y35881D02*
Y37056D01*
Y37256D02*
Y38431D01*
Y38656D02*
Y39831D01*
Y40056D02*
Y41206D01*
Y41431D02*
Y42606D01*
Y42831D02*
Y44006D01*
X98312Y17781D02*
Y18956D01*
Y19181D02*
Y20356D01*
Y20581D02*
Y21731D01*
Y21956D02*
Y23131D01*
Y23356D02*
Y24531D01*
Y24756D02*
Y25906D01*
Y26131D02*
Y27306D01*
Y28706D02*
Y31931D01*
Y34481D02*
Y35656D01*
Y35881D02*
Y37031D01*
Y37256D02*
Y38431D01*
Y38656D02*
Y39831D01*
Y40056D02*
Y41206D01*
Y41431D02*
Y42606D01*
Y42831D02*
Y44006D01*
X98337Y17781D02*
Y18956D01*
Y19181D02*
Y20331D01*
Y20581D02*
Y21731D01*
Y21956D02*
Y23131D01*
Y23356D02*
Y24506D01*
Y24756D02*
Y25906D01*
Y26131D02*
Y27306D01*
Y28706D02*
Y31881D01*
Y34481D02*
Y35656D01*
Y35881D02*
Y37031D01*
Y37281D02*
Y38431D01*
Y38656D02*
Y39831D01*
Y40056D02*
Y41206D01*
Y41456D02*
Y42606D01*
Y42831D02*
Y43981D01*
X98362Y17806D02*
Y18956D01*
Y19181D02*
Y20331D01*
Y20581D02*
Y21731D01*
Y21981D02*
Y23131D01*
Y23356D02*
Y24506D01*
Y24756D02*
Y25906D01*
Y26156D02*
Y27281D01*
Y28706D02*
Y31831D01*
Y34506D02*
Y35631D01*
Y35881D02*
Y37031D01*
Y37281D02*
Y38431D01*
Y38656D02*
Y39806D01*
Y40056D02*
Y41206D01*
Y41456D02*
Y42606D01*
Y42831D02*
Y43981D01*
X98387Y17806D02*
Y18931D01*
Y19206D02*
Y20331D01*
Y20581D02*
Y21731D01*
Y21981D02*
Y23106D01*
Y23381D02*
Y24506D01*
Y24756D02*
Y25906D01*
Y26156D02*
Y27281D01*
Y28706D02*
Y31781D01*
Y34506D02*
Y35631D01*
Y35881D02*
Y37031D01*
Y37281D02*
Y38406D01*
Y38681D02*
Y39806D01*
Y40056D02*
Y41206D01*
Y41456D02*
Y42581D01*
Y42856D02*
Y43981D01*
X98412Y17806D02*
Y18931D01*
Y19206D02*
Y20331D01*
Y20606D02*
Y21706D01*
Y21981D02*
Y23106D01*
Y23381D02*
Y24506D01*
Y24781D02*
Y25881D01*
Y26156D02*
Y27281D01*
Y28706D02*
Y31731D01*
Y34506D02*
Y35631D01*
Y35906D02*
Y37006D01*
Y37281D02*
Y38406D01*
Y38681D02*
Y39806D01*
Y40081D02*
Y41181D01*
Y41456D02*
Y42581D01*
Y42856D02*
Y43981D01*
X98437Y17831D02*
Y18931D01*
Y19206D02*
Y20306D01*
Y20606D02*
Y21706D01*
Y22006D02*
Y23106D01*
Y23381D02*
Y24481D01*
Y24781D02*
Y25881D01*
Y26181D02*
Y27256D01*
Y28706D02*
Y31606D01*
Y34531D02*
Y35606D01*
Y35906D02*
Y37006D01*
Y37306D02*
Y38406D01*
Y38681D02*
Y39781D01*
Y40081D02*
Y41181D01*
Y41481D02*
Y42581D01*
Y42856D02*
Y43956D01*
X98462Y17831D02*
Y18906D01*
Y19231D02*
Y20306D01*
Y20606D02*
Y21681D01*
Y22006D02*
Y23081D01*
Y23406D02*
Y24481D01*
Y24781D02*
Y25856D01*
Y26181D02*
Y27256D01*
Y28706D02*
Y29656D01*
Y34531D02*
Y35606D01*
Y35931D02*
Y37006D01*
Y37306D02*
Y38381D01*
Y38706D02*
Y39781D01*
Y40106D02*
Y41181D01*
Y41481D02*
Y42556D01*
Y42881D02*
Y43956D01*
X98487Y17856D02*
Y18906D01*
Y19231D02*
Y20281D01*
Y20631D02*
Y21681D01*
Y22031D02*
Y23081D01*
Y23406D02*
Y24456D01*
Y24806D02*
Y25856D01*
Y26206D02*
Y27256D01*
Y28706D02*
Y29656D01*
Y34531D02*
Y35581D01*
Y35931D02*
Y36981D01*
Y37331D02*
Y38381D01*
Y38706D02*
Y39756D01*
Y40106D02*
Y41156D01*
Y41506D02*
Y42556D01*
Y42881D02*
Y43931D01*
X98512Y17856D02*
Y18881D01*
Y19256D02*
Y20281D01*
Y20656D02*
Y21656D01*
Y22031D02*
Y23056D01*
Y23431D02*
Y24456D01*
Y24806D02*
Y25831D01*
Y26206D02*
Y27231D01*
Y28706D02*
Y29656D01*
Y34556D02*
Y35581D01*
Y35956D02*
Y36981D01*
Y37331D02*
Y38356D01*
Y38731D02*
Y39756D01*
Y40131D02*
Y41131D01*
Y41506D02*
Y42531D01*
Y42906D02*
Y43931D01*
X98537Y17881D02*
Y18856D01*
Y19256D02*
Y20256D01*
Y20656D02*
Y21656D01*
Y22056D02*
Y23031D01*
Y23431D02*
Y24431D01*
Y24831D02*
Y25831D01*
Y26231D02*
Y27206D01*
Y28706D02*
Y29656D01*
Y34581D02*
Y35556D01*
Y35956D02*
Y36956D01*
Y37356D02*
Y38356D01*
Y38756D02*
Y39731D01*
Y40131D02*
Y41131D01*
Y41531D02*
Y42531D01*
Y42906D02*
Y43906D01*
X98562Y17906D02*
Y18856D01*
Y19281D02*
Y20231D01*
Y20681D02*
Y21631D01*
Y22056D02*
Y23031D01*
Y23456D02*
Y24406D01*
Y24856D02*
Y25806D01*
Y26231D02*
Y27206D01*
Y28706D02*
Y29656D01*
Y34581D02*
Y35556D01*
Y35981D02*
Y36931D01*
Y37381D02*
Y38331D01*
Y38756D02*
Y39731D01*
Y40156D02*
Y41106D01*
Y41556D02*
Y42506D01*
Y42931D02*
Y43881D01*
X98587Y17906D02*
Y18831D01*
Y19306D02*
Y20231D01*
Y20706D02*
Y21606D01*
Y22081D02*
Y23006D01*
Y23481D02*
Y24406D01*
Y24881D02*
Y25781D01*
Y26256D02*
Y27181D01*
Y28706D02*
Y29656D01*
Y34606D02*
Y35531D01*
Y36006D02*
Y36906D01*
Y37381D02*
Y38306D01*
Y38781D02*
Y39706D01*
Y40181D02*
Y41081D01*
Y41556D02*
Y42481D01*
Y42956D02*
Y43881D01*
X98612Y17931D02*
Y18806D01*
Y19331D02*
Y20206D01*
Y20706D02*
Y21581D01*
Y22106D02*
Y22981D01*
Y23506D02*
Y24381D01*
Y24881D02*
Y25756D01*
Y26281D02*
Y27156D01*
Y28706D02*
Y29656D01*
Y34631D02*
Y35506D01*
Y36031D02*
Y36906D01*
Y37406D02*
Y38281D01*
Y38806D02*
Y39681D01*
Y40206D02*
Y41081D01*
Y41581D02*
Y42456D01*
Y42981D02*
Y43856D01*
X98637Y17956D02*
Y18781D01*
Y19356D02*
Y20181D01*
Y20731D02*
Y21581D01*
Y22131D02*
Y22956D01*
Y23531D02*
Y24356D01*
Y24906D02*
Y25731D01*
Y26306D02*
Y27131D01*
Y28706D02*
Y29656D01*
Y34656D02*
Y35481D01*
Y36056D02*
Y36881D01*
Y37431D02*
Y38256D01*
Y38831D02*
Y39656D01*
Y40206D02*
Y41056D01*
Y41606D02*
Y42431D01*
Y43006D02*
Y43831D01*
X98662Y17981D02*
Y18756D01*
Y19381D02*
Y20156D01*
Y20756D02*
Y21531D01*
Y22156D02*
Y22931D01*
Y23556D02*
Y24331D01*
Y24931D02*
Y25706D01*
Y26331D02*
Y27106D01*
Y28706D02*
Y29656D01*
Y34681D02*
Y35456D01*
Y36081D02*
Y36856D01*
Y37456D02*
Y38231D01*
Y38856D02*
Y39631D01*
Y40256D02*
Y41006D01*
Y41631D02*
Y42406D01*
Y43031D02*
Y43806D01*
X98687Y18006D02*
Y18731D01*
Y19406D02*
Y20131D01*
Y20806D02*
Y21506D01*
Y22181D02*
Y22906D01*
Y23581D02*
Y24281D01*
Y24981D02*
Y25681D01*
Y26356D02*
Y27081D01*
Y28706D02*
Y29656D01*
Y34706D02*
Y35431D01*
Y36106D02*
Y36806D01*
Y37506D02*
Y38206D01*
Y38881D02*
Y39606D01*
Y40281D02*
Y40981D01*
Y41656D02*
Y42381D01*
Y43056D02*
Y43781D01*
X98712Y18056D02*
Y18681D01*
Y19456D02*
Y20081D01*
Y20831D02*
Y21481D01*
Y22231D02*
Y22856D01*
Y23606D02*
Y24256D01*
Y25006D02*
Y25656D01*
Y26406D02*
Y27031D01*
Y28706D02*
Y29656D01*
Y34756D02*
Y35381D01*
Y36131D02*
Y36781D01*
Y37531D02*
Y38181D01*
Y38931D02*
Y39556D01*
Y40306D02*
Y40956D01*
Y41706D02*
Y42331D01*
Y43106D02*
Y43731D01*
X98737Y18106D02*
Y18656D01*
Y19481D02*
Y20031D01*
Y20881D02*
Y21431D01*
Y22256D02*
Y22831D01*
Y23656D02*
Y24206D01*
Y25056D02*
Y25606D01*
Y26431D02*
Y27006D01*
Y28706D02*
Y29656D01*
Y34781D02*
Y35356D01*
Y36181D02*
Y36731D01*
Y37581D02*
Y38131D01*
Y38956D02*
Y39506D01*
Y40356D02*
Y40906D01*
Y41756D02*
Y42306D01*
Y43131D02*
Y43681D01*
X98762Y18156D02*
Y18606D01*
Y19531D02*
Y19981D01*
Y20931D02*
Y21381D01*
Y22331D02*
Y22781D01*
Y23706D02*
Y24156D01*
Y25106D02*
Y25556D01*
Y26506D02*
Y26956D01*
Y28706D02*
Y29656D01*
Y34831D02*
Y35281D01*
Y36231D02*
Y36681D01*
Y37631D02*
Y38081D01*
Y39006D02*
Y39456D01*
Y40406D02*
Y40856D01*
Y41806D02*
Y42256D01*
Y43181D02*
Y43631D01*
X98787Y18231D02*
Y18531D01*
Y19606D02*
Y19906D01*
Y21006D02*
Y21306D01*
Y22406D02*
Y22706D01*
Y23781D02*
Y24081D01*
Y25181D02*
Y25481D01*
Y26581D02*
Y26881D01*
Y28706D02*
Y29656D01*
Y34906D02*
Y35206D01*
Y36306D02*
Y36606D01*
Y37706D02*
Y38006D01*
Y39081D02*
Y39381D01*
Y40481D02*
Y40781D01*
Y41881D02*
Y42181D01*
Y43256D02*
Y43556D01*
X98812Y28706D02*
Y29656D01*
X98837Y28706D02*
Y29656D01*
X98862Y28706D02*
Y29656D01*
X98887Y28706D02*
Y29656D01*
X98912Y28706D02*
Y29656D01*
X98937Y28706D02*
Y29656D01*
X98962Y28706D02*
Y29656D01*
Y47856D02*
Y51556D01*
X98987Y28706D02*
Y29656D01*
Y47756D02*
Y51581D01*
X99012Y28706D02*
Y29656D01*
Y47681D02*
Y51581D01*
Y67106D02*
Y67456D01*
X99037Y28706D02*
Y29656D01*
Y47631D02*
Y51581D01*
Y67106D02*
Y67531D01*
X99062Y28706D02*
Y29656D01*
Y47581D02*
Y51581D01*
Y67106D02*
Y67606D01*
X99087Y28706D02*
Y29656D01*
Y47531D02*
Y51581D01*
Y67106D02*
Y67656D01*
X99112Y28706D02*
Y29656D01*
Y47506D02*
Y51581D01*
Y67106D02*
Y67706D01*
X99137Y28706D02*
Y29656D01*
Y47481D02*
Y51581D01*
Y67106D02*
Y67731D01*
X99162Y28706D02*
Y29656D01*
Y47456D02*
Y51581D01*
Y67106D02*
Y67781D01*
X99187Y28706D02*
Y29656D01*
Y47431D02*
Y51581D01*
Y67106D02*
Y67806D01*
X99212Y28706D02*
Y29656D01*
Y47406D02*
Y51581D01*
Y67106D02*
Y67831D01*
X99237Y28706D02*
Y29656D01*
Y47381D02*
Y51581D01*
Y67106D02*
Y67856D01*
X99262Y22606D02*
Y22806D01*
Y28706D02*
Y29656D01*
Y38981D02*
Y39181D01*
Y47356D02*
Y51581D01*
Y67106D02*
Y67881D01*
X99287Y22506D02*
Y22906D01*
Y28706D02*
Y29656D01*
Y38881D02*
Y39281D01*
Y47331D02*
Y51581D01*
Y67106D02*
Y67906D01*
X99312Y22456D02*
Y22956D01*
Y28706D02*
Y29656D01*
Y38831D02*
Y39331D01*
Y47331D02*
Y51581D01*
Y67106D02*
Y67931D01*
X99337Y22406D02*
Y23006D01*
Y28706D02*
Y29656D01*
Y38781D02*
Y39381D01*
Y47306D02*
Y51581D01*
Y67106D02*
Y67956D01*
X99362Y22356D02*
Y23056D01*
Y28706D02*
Y29656D01*
Y38731D02*
Y39431D01*
Y47281D02*
Y51581D01*
Y67106D02*
Y67956D01*
X99387Y22331D02*
Y23081D01*
Y28706D02*
Y29656D01*
Y38706D02*
Y39456D01*
Y47281D02*
Y51581D01*
Y67106D02*
Y67981D01*
X99412Y22306D02*
Y23106D01*
Y28706D02*
Y29656D01*
Y38681D02*
Y39481D01*
Y47256D02*
Y51581D01*
Y67106D02*
Y68006D01*
X99437Y22281D02*
Y23131D01*
Y28706D02*
Y29656D01*
Y38656D02*
Y39506D01*
Y47256D02*
Y51581D01*
Y67106D02*
Y68006D01*
X99462Y22256D02*
Y23156D01*
Y28706D02*
Y29656D01*
Y38631D02*
Y39531D01*
Y47231D02*
Y51581D01*
Y67106D02*
Y68031D01*
X99487Y22231D02*
Y23181D01*
Y28706D02*
Y29656D01*
Y38606D02*
Y39556D01*
Y47231D02*
Y51581D01*
Y67106D02*
Y68031D01*
X99512Y22206D02*
Y23206D01*
Y28706D02*
Y29656D01*
Y38581D02*
Y39581D01*
Y47231D02*
Y51581D01*
Y67106D02*
Y68056D01*
X99537Y22206D02*
Y23206D01*
Y28706D02*
Y29656D01*
Y38581D02*
Y39581D01*
Y47206D02*
Y51581D01*
Y67106D02*
Y68056D01*
X99562Y22181D02*
Y23231D01*
Y28706D02*
Y29656D01*
Y38556D02*
Y39606D01*
Y47206D02*
Y51581D01*
Y67106D02*
Y68056D01*
X99587Y22181D02*
Y23231D01*
Y28706D02*
Y29656D01*
Y38556D02*
Y39606D01*
Y47206D02*
Y51581D01*
Y67106D02*
Y68081D01*
X99612Y22156D02*
Y23256D01*
Y28706D02*
Y29656D01*
Y38531D02*
Y39631D01*
Y47206D02*
Y51581D01*
Y67106D02*
Y68081D01*
X99637Y22156D02*
Y23256D01*
Y28706D02*
Y29656D01*
Y38531D02*
Y39631D01*
Y47181D02*
Y51581D01*
Y67106D02*
Y68081D01*
X99662Y21231D02*
Y21506D01*
Y22156D02*
Y23281D01*
Y28706D02*
Y29656D01*
Y38506D02*
Y39631D01*
Y40281D02*
Y40556D01*
Y47181D02*
Y51581D01*
Y67106D02*
Y68081D01*
X99687Y21156D02*
Y21581D01*
Y22131D02*
Y23281D01*
Y28706D02*
Y29656D01*
Y38506D02*
Y39656D01*
Y40206D02*
Y40631D01*
Y47181D02*
Y51581D01*
Y67106D02*
Y68106D01*
X99712Y21106D02*
Y21631D01*
Y22131D02*
Y23281D01*
Y28706D02*
Y29656D01*
Y38506D02*
Y39656D01*
Y40156D02*
Y40681D01*
Y47181D02*
Y51581D01*
Y67106D02*
Y68106D01*
X99737Y21056D02*
Y21681D01*
Y22131D02*
Y23281D01*
Y28706D02*
Y29656D01*
Y38506D02*
Y39656D01*
Y40106D02*
Y40731D01*
Y47181D02*
Y51581D01*
Y67106D02*
Y68106D01*
X99762Y21031D02*
Y21706D01*
Y22131D02*
Y23281D01*
Y28706D02*
Y29656D01*
Y38506D02*
Y39656D01*
Y40081D02*
Y40756D01*
Y47181D02*
Y51581D01*
Y67106D02*
Y68106D01*
X99787Y20981D02*
Y21756D01*
Y22106D02*
Y23306D01*
Y28706D02*
Y29656D01*
Y38481D02*
Y39681D01*
Y40031D02*
Y40806D01*
Y47181D02*
Y51581D01*
Y67106D02*
Y68106D01*
X99812Y20956D02*
Y21781D01*
Y22106D02*
Y23306D01*
Y28706D02*
Y29656D01*
Y38481D02*
Y39681D01*
Y40006D02*
Y40831D01*
Y47181D02*
Y51581D01*
Y67106D02*
Y68106D01*
X99837Y20931D02*
Y21806D01*
Y22106D02*
Y23306D01*
Y28706D02*
Y29656D01*
Y38481D02*
Y39681D01*
Y39981D02*
Y40856D01*
Y47181D02*
Y51581D01*
Y67106D02*
Y68106D01*
X99862Y20906D02*
Y21831D01*
Y22106D02*
Y23306D01*
Y28706D02*
Y29656D01*
Y38481D02*
Y39681D01*
Y39956D02*
Y40881D01*
Y47181D02*
Y51581D01*
Y67106D02*
Y68106D01*
X99887Y20881D02*
Y21831D01*
Y22106D02*
Y23306D01*
Y28706D02*
Y29656D01*
Y38481D02*
Y39681D01*
Y39956D02*
Y40881D01*
Y47181D02*
Y51581D01*
Y67106D02*
Y68106D01*
X99912Y20881D02*
Y21856D01*
Y22131D02*
Y23306D01*
Y28706D02*
Y29656D01*
Y38481D02*
Y39656D01*
Y39931D02*
Y40906D01*
Y47181D02*
Y48156D01*
Y67106D02*
Y68106D01*
X99937Y20856D02*
Y21881D01*
Y22131D02*
Y23281D01*
Y28706D02*
Y29656D01*
Y38506D02*
Y39656D01*
Y39906D02*
Y40931D01*
Y47181D02*
Y48156D01*
Y67106D02*
Y68106D01*
X99962Y20856D02*
Y21881D01*
Y22131D02*
Y23281D01*
Y28706D02*
Y29656D01*
Y38506D02*
Y39656D01*
Y39906D02*
Y40931D01*
Y47181D02*
Y48156D01*
X99987Y20831D02*
Y21906D01*
Y22131D02*
Y23281D01*
Y28706D02*
Y29656D01*
Y38506D02*
Y39656D01*
Y39881D02*
Y40956D01*
Y47181D02*
Y48156D01*
X100012Y20831D02*
Y21906D01*
Y22131D02*
Y23281D01*
Y24256D02*
Y24456D01*
Y28706D02*
Y29656D01*
Y37331D02*
Y37531D01*
Y38506D02*
Y39656D01*
Y39881D02*
Y40956D01*
Y47181D02*
Y48156D01*
X100037Y20806D02*
Y21931D01*
Y22156D02*
Y23256D01*
Y24156D02*
Y24556D01*
Y28706D02*
Y29656D01*
Y37231D02*
Y37631D01*
Y38531D02*
Y39631D01*
Y39856D02*
Y40981D01*
Y47181D02*
Y48156D01*
X100062Y20806D02*
Y21931D01*
Y22156D02*
Y23256D01*
Y24106D02*
Y24606D01*
Y28706D02*
Y29656D01*
Y37181D02*
Y37681D01*
Y38531D02*
Y39631D01*
Y39856D02*
Y40981D01*
Y47181D02*
Y48156D01*
X100087Y20806D02*
Y21931D01*
Y22156D02*
Y23256D01*
Y24056D02*
Y24656D01*
Y28706D02*
Y29656D01*
Y37131D02*
Y37731D01*
Y38531D02*
Y39631D01*
Y39856D02*
Y40981D01*
Y47181D02*
Y48156D01*
X100112Y20781D02*
Y21956D01*
Y22181D02*
Y23231D01*
Y24006D02*
Y24706D01*
Y28706D02*
Y29656D01*
Y37081D02*
Y37781D01*
Y38556D02*
Y39606D01*
Y39831D02*
Y41006D01*
Y47181D02*
Y48156D01*
X100137Y20781D02*
Y21956D01*
Y22206D02*
Y23231D01*
Y23981D02*
Y24731D01*
Y28706D02*
Y29656D01*
Y37056D02*
Y37806D01*
Y38556D02*
Y39581D01*
Y39831D02*
Y41006D01*
Y47181D02*
Y48156D01*
X100162Y20781D02*
Y21956D01*
Y22206D02*
Y23206D01*
Y23956D02*
Y24756D01*
Y28706D02*
Y29656D01*
Y37031D02*
Y37831D01*
Y38581D02*
Y39581D01*
Y39831D02*
Y41006D01*
Y47181D02*
Y48156D01*
X100187Y20781D02*
Y21956D01*
Y22231D02*
Y23181D01*
Y23931D02*
Y24781D01*
Y28706D02*
Y29656D01*
Y37006D02*
Y37856D01*
Y38606D02*
Y39556D01*
Y39831D02*
Y41006D01*
Y47181D02*
Y48156D01*
X100212Y20781D02*
Y21956D01*
Y22256D02*
Y23156D01*
Y23906D02*
Y24806D01*
Y28706D02*
Y29656D01*
Y36981D02*
Y37881D01*
Y38606D02*
Y39531D01*
Y39831D02*
Y41006D01*
Y47181D02*
Y48156D01*
X100237Y20781D02*
Y21956D01*
Y22256D02*
Y23156D01*
Y23881D02*
Y24831D01*
Y28706D02*
Y29656D01*
Y36956D02*
Y37906D01*
Y38631D02*
Y39531D01*
Y39831D02*
Y41006D01*
Y47181D02*
Y48156D01*
X100262Y20781D02*
Y21956D01*
Y22281D02*
Y23131D01*
Y23856D02*
Y24856D01*
Y28706D02*
Y29656D01*
Y36931D02*
Y37931D01*
Y38656D02*
Y39506D01*
Y39831D02*
Y41006D01*
Y47181D02*
Y48156D01*
X100287Y20781D02*
Y21956D01*
Y22306D02*
Y23106D01*
Y23856D02*
Y24856D01*
Y28706D02*
Y29656D01*
Y36931D02*
Y37931D01*
Y38681D02*
Y39481D01*
Y39831D02*
Y41006D01*
Y47181D02*
Y48156D01*
X100312Y20781D02*
Y21956D01*
Y22356D02*
Y23056D01*
Y23831D02*
Y24881D01*
Y28706D02*
Y29656D01*
Y36906D02*
Y37956D01*
Y38731D02*
Y39431D01*
Y39831D02*
Y41006D01*
Y47181D02*
Y48156D01*
X100337Y20781D02*
Y21956D01*
Y22381D02*
Y23031D01*
Y23831D02*
Y24881D01*
Y28706D02*
Y29656D01*
Y36906D02*
Y37956D01*
Y38756D02*
Y39406D01*
Y39831D02*
Y41006D01*
Y47181D02*
Y48156D01*
Y53656D02*
Y53981D01*
Y58481D02*
Y59056D01*
X100362Y20781D02*
Y21956D01*
Y22431D02*
Y22981D01*
Y23806D02*
Y24906D01*
Y28706D02*
Y29656D01*
Y36881D02*
Y37981D01*
Y38806D02*
Y39356D01*
Y39831D02*
Y41006D01*
Y47181D02*
Y48156D01*
Y53456D02*
Y54181D01*
Y58281D02*
Y59056D01*
Y61381D02*
Y61906D01*
Y64331D02*
Y64856D01*
Y67106D02*
Y67456D01*
Y68731D02*
Y69806D01*
Y72406D02*
Y72756D01*
Y75056D02*
Y75581D01*
Y78006D02*
Y78531D01*
X100387Y20806D02*
Y21931D01*
Y22481D02*
Y22931D01*
Y23806D02*
Y24906D01*
Y28706D02*
Y29656D01*
Y36881D02*
Y37981D01*
Y38856D02*
Y39306D01*
Y39856D02*
Y40981D01*
Y47181D02*
Y48156D01*
Y53331D02*
Y54306D01*
Y58131D02*
Y59056D01*
Y61231D02*
Y62056D01*
Y64181D02*
Y65006D01*
Y67106D02*
Y67556D01*
Y68731D02*
Y69806D01*
Y72306D02*
Y72756D01*
Y74906D02*
Y75731D01*
Y77856D02*
Y78681D01*
X100412Y20806D02*
Y21931D01*
Y22556D02*
Y22856D01*
Y23806D02*
Y24931D01*
Y28706D02*
Y29656D01*
Y36856D02*
Y37981D01*
Y38931D02*
Y39231D01*
Y39856D02*
Y40981D01*
Y47181D02*
Y48156D01*
Y53231D02*
Y54406D01*
Y58031D02*
Y59056D01*
Y61131D02*
Y62181D01*
Y64081D02*
Y65106D01*
Y67106D02*
Y67606D01*
Y68731D02*
Y69806D01*
Y72231D02*
Y72756D01*
Y74806D02*
Y75831D01*
Y77731D02*
Y78781D01*
X100437Y20806D02*
Y21931D01*
Y23781D02*
Y24931D01*
Y28706D02*
Y29656D01*
Y36856D02*
Y38006D01*
Y39856D02*
Y40981D01*
Y47181D02*
Y48156D01*
Y53156D02*
Y54481D01*
Y57931D02*
Y59056D01*
Y61056D02*
Y62256D01*
Y63981D02*
Y65206D01*
Y67106D02*
Y67656D01*
Y68731D02*
Y69806D01*
Y72181D02*
Y72756D01*
Y74706D02*
Y75931D01*
Y77656D02*
Y78856D01*
X100462Y20831D02*
Y21906D01*
Y23781D02*
Y24931D01*
Y28706D02*
Y29656D01*
Y36856D02*
Y38006D01*
Y39881D02*
Y40956D01*
Y47181D02*
Y48156D01*
Y53081D02*
Y54556D01*
Y57856D02*
Y59056D01*
Y60981D02*
Y62331D01*
Y63906D02*
Y65281D01*
Y67106D02*
Y67706D01*
Y68731D02*
Y69806D01*
Y72131D02*
Y72756D01*
Y74631D02*
Y76006D01*
Y77581D02*
Y78931D01*
X100487Y20831D02*
Y21906D01*
Y23781D02*
Y24931D01*
Y28706D02*
Y29656D01*
Y36856D02*
Y38006D01*
Y39881D02*
Y40956D01*
Y47181D02*
Y48156D01*
Y53031D02*
Y54606D01*
Y57781D02*
Y59056D01*
Y60906D02*
Y62406D01*
Y63856D02*
Y65331D01*
Y67106D02*
Y67756D01*
Y68731D02*
Y69806D01*
Y72106D02*
Y72756D01*
Y74581D02*
Y76056D01*
Y77506D02*
Y79006D01*
X100512Y20831D02*
Y21881D01*
Y23781D02*
Y24931D01*
Y28706D02*
Y29656D01*
Y36856D02*
Y38006D01*
Y39906D02*
Y40956D01*
Y47181D02*
Y48156D01*
Y52956D02*
Y54681D01*
Y57706D02*
Y59056D01*
Y60856D02*
Y62456D01*
Y63781D02*
Y65406D01*
Y67106D02*
Y67781D01*
Y68731D02*
Y69806D01*
Y72056D02*
Y72756D01*
Y74506D02*
Y76131D01*
Y77456D02*
Y79056D01*
X100537Y20856D02*
Y21881D01*
Y23756D02*
Y24956D01*
Y28706D02*
Y29656D01*
Y36831D02*
Y38031D01*
Y39906D02*
Y40931D01*
Y47181D02*
Y48156D01*
Y52906D02*
Y54731D01*
Y57656D02*
Y59056D01*
Y60781D02*
Y62506D01*
Y63731D02*
Y65456D01*
Y67106D02*
Y67806D01*
Y68731D02*
Y69806D01*
Y72031D02*
Y72756D01*
Y74456D02*
Y76181D01*
Y77406D02*
Y79131D01*
X100562Y20881D02*
Y21856D01*
Y23756D02*
Y24956D01*
Y28706D02*
Y29656D01*
Y36831D02*
Y38031D01*
Y39931D02*
Y40906D01*
Y47181D02*
Y48156D01*
Y52856D02*
Y54781D01*
Y57581D02*
Y59056D01*
Y60731D02*
Y62556D01*
Y63681D02*
Y65506D01*
Y67106D02*
Y67831D01*
Y68731D02*
Y69806D01*
Y72006D02*
Y72756D01*
Y74406D02*
Y76231D01*
Y77356D02*
Y79181D01*
X100587Y20881D02*
Y21856D01*
Y23756D02*
Y24956D01*
Y28706D02*
Y29656D01*
Y36831D02*
Y38031D01*
Y39931D02*
Y40906D01*
Y47181D02*
Y48156D01*
Y52806D02*
Y54831D01*
Y57531D02*
Y59056D01*
Y60681D02*
Y62606D01*
Y63631D02*
Y65556D01*
Y67106D02*
Y67856D01*
Y68731D02*
Y69806D01*
Y71956D02*
Y72756D01*
Y74356D02*
Y76281D01*
Y77306D02*
Y79206D01*
X100612Y20906D02*
Y21831D01*
Y23756D02*
Y24956D01*
Y28706D02*
Y29656D01*
Y36831D02*
Y38031D01*
Y39956D02*
Y40881D01*
Y47181D02*
Y48156D01*
Y52756D02*
Y54856D01*
Y57481D02*
Y59056D01*
Y60656D02*
Y62656D01*
Y63581D02*
Y65606D01*
Y67106D02*
Y67881D01*
Y68731D02*
Y69806D01*
Y71931D02*
Y72756D01*
Y74306D02*
Y76331D01*
Y77256D02*
Y79256D01*
X100637Y20931D02*
Y21806D01*
Y23756D02*
Y24956D01*
Y28706D02*
Y29656D01*
Y36831D02*
Y38031D01*
Y39981D02*
Y40856D01*
Y47181D02*
Y48156D01*
Y52731D02*
Y54906D01*
Y57456D02*
Y59056D01*
Y60606D02*
Y62706D01*
Y63556D02*
Y65631D01*
Y67106D02*
Y67906D01*
Y68731D02*
Y69806D01*
Y71906D02*
Y72756D01*
Y74281D02*
Y76356D01*
Y77206D02*
Y79306D01*
X100662Y20956D02*
Y21781D01*
Y23781D02*
Y24956D01*
Y28706D02*
Y29656D01*
Y36831D02*
Y38006D01*
Y40006D02*
Y40831D01*
Y47181D02*
Y48156D01*
Y52681D02*
Y54956D01*
Y57406D02*
Y59056D01*
Y60556D02*
Y62731D01*
Y63506D02*
Y65681D01*
Y67106D02*
Y67931D01*
Y68731D02*
Y69806D01*
Y71881D02*
Y72756D01*
Y74231D02*
Y76406D01*
Y77181D02*
Y79356D01*
X100687Y20981D02*
Y21756D01*
Y23781D02*
Y24931D01*
Y28706D02*
Y29656D01*
Y36856D02*
Y38006D01*
Y40031D02*
Y40806D01*
Y47181D02*
Y48156D01*
Y52656D02*
Y54981D01*
Y57356D02*
Y59056D01*
Y60531D02*
Y62781D01*
Y63481D02*
Y65706D01*
Y67106D02*
Y67956D01*
Y68731D02*
Y69806D01*
Y71881D02*
Y72756D01*
Y74206D02*
Y76431D01*
Y77131D02*
Y79381D01*
X100712Y21006D02*
Y21731D01*
Y23781D02*
Y24931D01*
Y28706D02*
Y29656D01*
Y36856D02*
Y38006D01*
Y40056D02*
Y40781D01*
Y47181D02*
Y48156D01*
Y52606D02*
Y55031D01*
Y57331D02*
Y59056D01*
Y60481D02*
Y62806D01*
Y63431D02*
Y65756D01*
Y67106D02*
Y67981D01*
Y68731D02*
Y69806D01*
Y71856D02*
Y72756D01*
Y74156D02*
Y76481D01*
Y77106D02*
Y79431D01*
X100737Y21056D02*
Y21681D01*
Y23781D02*
Y24931D01*
Y28706D02*
Y29656D01*
Y36856D02*
Y38006D01*
Y40106D02*
Y40731D01*
Y47181D02*
Y48156D01*
Y52581D02*
Y55056D01*
Y57281D02*
Y59056D01*
Y60456D02*
Y62856D01*
Y63406D02*
Y65781D01*
Y67106D02*
Y67981D01*
Y68731D02*
Y69806D01*
Y71831D02*
Y72756D01*
Y74131D02*
Y76506D01*
Y77056D02*
Y79456D01*
X100762Y21081D02*
Y21656D01*
Y23781D02*
Y24931D01*
Y28706D02*
Y29656D01*
Y36856D02*
Y38006D01*
Y40131D02*
Y40706D01*
Y47181D02*
Y48156D01*
Y52531D02*
Y55081D01*
Y57256D02*
Y59056D01*
Y60431D02*
Y62881D01*
Y63356D02*
Y65831D01*
Y67106D02*
Y68006D01*
Y68731D02*
Y69806D01*
Y71806D02*
Y72756D01*
Y74081D02*
Y76556D01*
Y77031D02*
Y79481D01*
X100787Y21156D02*
Y21581D01*
Y23806D02*
Y24906D01*
Y28706D02*
Y29656D01*
Y36881D02*
Y37981D01*
Y40206D02*
Y40631D01*
Y47181D02*
Y48156D01*
Y52506D02*
Y55131D01*
Y57231D02*
Y59056D01*
Y60381D02*
Y62906D01*
Y63331D02*
Y65856D01*
Y67106D02*
Y68006D01*
Y68731D02*
Y69806D01*
Y71806D02*
Y72756D01*
Y74056D02*
Y76581D01*
Y77006D02*
Y79531D01*
X100812Y21231D02*
Y21506D01*
Y23806D02*
Y24906D01*
Y28706D02*
Y29656D01*
Y36881D02*
Y37981D01*
Y40281D02*
Y40556D01*
Y47181D02*
Y48156D01*
Y52481D02*
Y55156D01*
Y57181D02*
Y59056D01*
Y60356D02*
Y62931D01*
Y63306D02*
Y65881D01*
Y67106D02*
Y68031D01*
Y68731D02*
Y69806D01*
Y71781D02*
Y72756D01*
Y74031D02*
Y76606D01*
Y76981D02*
Y79556D01*
X100837Y23031D02*
Y23331D01*
Y23806D02*
Y24906D01*
Y28706D02*
Y29656D01*
Y36881D02*
Y37981D01*
Y38456D02*
Y38756D01*
Y47181D02*
Y48156D01*
Y52456D02*
Y55181D01*
Y57156D02*
Y59056D01*
Y60331D02*
Y62981D01*
Y63281D02*
Y65906D01*
Y67106D02*
Y68031D01*
Y68731D02*
Y69806D01*
Y71781D02*
Y72756D01*
Y74006D02*
Y76631D01*
Y76931D02*
Y79581D01*
X100862Y22956D02*
Y23406D01*
Y23831D02*
Y24881D01*
Y28706D02*
Y29656D01*
Y36906D02*
Y37956D01*
Y38381D02*
Y38831D01*
Y47181D02*
Y48156D01*
Y52431D02*
Y55206D01*
Y57131D02*
Y59056D01*
Y60306D02*
Y63006D01*
Y63256D02*
Y65931D01*
Y67106D02*
Y68056D01*
Y68731D02*
Y69806D01*
Y71756D02*
Y72756D01*
Y73981D02*
Y76656D01*
Y76906D02*
Y79606D01*
X100887Y22906D02*
Y23456D01*
Y23831D02*
Y24881D01*
Y28706D02*
Y29656D01*
Y36906D02*
Y37931D01*
Y38331D02*
Y38881D01*
Y47181D02*
Y48156D01*
Y52406D02*
Y55231D01*
Y57106D02*
Y59056D01*
Y60281D02*
Y63031D01*
Y63231D02*
Y65956D01*
Y67106D02*
Y68056D01*
Y68731D02*
Y69806D01*
Y71756D02*
Y72756D01*
Y73956D02*
Y76681D01*
Y76881D02*
Y79631D01*
X100912Y22856D02*
Y23506D01*
Y23856D02*
Y24856D01*
Y28706D02*
Y29656D01*
Y36931D02*
Y37931D01*
Y38281D02*
Y38931D01*
Y47181D02*
Y48156D01*
Y52381D02*
Y55256D01*
Y57081D02*
Y59056D01*
Y60256D02*
Y63056D01*
Y63181D02*
Y65981D01*
Y67106D02*
Y68081D01*
Y68731D02*
Y69806D01*
Y71731D02*
Y72756D01*
Y73931D02*
Y76731D01*
Y76856D02*
Y79656D01*
X100937Y22831D02*
Y23531D01*
Y23881D02*
Y24831D01*
Y28706D02*
Y29656D01*
Y36956D02*
Y37906D01*
Y38256D02*
Y38956D01*
Y47181D02*
Y48156D01*
Y52331D02*
Y55281D01*
Y57056D02*
Y59056D01*
Y60231D02*
Y63081D01*
Y63156D02*
Y66006D01*
Y67106D02*
Y68081D01*
Y68731D02*
Y69806D01*
Y71731D02*
Y72756D01*
Y73906D02*
Y76756D01*
Y76831D02*
Y79681D01*
X100962Y22781D02*
Y23581D01*
Y23906D02*
Y24831D01*
Y28706D02*
Y29656D01*
Y36956D02*
Y37881D01*
Y38206D02*
Y38981D01*
Y47181D02*
Y48156D01*
Y52306D02*
Y55306D01*
Y57031D02*
Y59056D01*
Y60206D02*
Y63106D01*
Y63131D02*
Y66031D01*
Y67106D02*
Y68081D01*
Y68731D02*
Y69806D01*
Y71706D02*
Y72756D01*
Y73881D02*
Y76756D01*
Y76806D02*
Y79706D01*
X100987Y22756D02*
Y23606D01*
Y23906D02*
Y24806D01*
Y28706D02*
Y29656D01*
Y36981D02*
Y37881D01*
Y38181D02*
Y39031D01*
Y47181D02*
Y48156D01*
Y52306D02*
Y55331D01*
Y57006D02*
Y59056D01*
Y60181D02*
Y66056D01*
Y67106D02*
Y68081D01*
Y68731D02*
Y69806D01*
Y71706D02*
Y72756D01*
Y73856D02*
Y79731D01*
X101012Y22731D02*
Y23631D01*
Y23931D02*
Y24781D01*
Y28706D02*
Y29656D01*
Y37006D02*
Y37856D01*
Y38156D02*
Y39056D01*
Y47181D02*
Y48156D01*
Y52281D02*
Y55356D01*
Y56981D02*
Y59056D01*
Y60156D02*
Y66081D01*
Y67106D02*
Y68106D01*
Y68731D02*
Y69806D01*
Y71706D02*
Y72756D01*
Y73831D02*
Y79756D01*
X101037Y22731D02*
Y23631D01*
Y23956D02*
Y24756D01*
Y28706D02*
Y29656D01*
Y37031D02*
Y37831D01*
Y38156D02*
Y39056D01*
Y47181D02*
Y48156D01*
Y52256D02*
Y55381D01*
Y56956D02*
Y59056D01*
Y60131D02*
Y66106D01*
Y67106D02*
Y68106D01*
Y68731D02*
Y69806D01*
Y71681D02*
Y72756D01*
Y73806D02*
Y79781D01*
X101062Y22706D02*
Y23656D01*
Y24006D02*
Y24706D01*
Y28706D02*
Y29656D01*
Y37081D02*
Y37781D01*
Y38131D02*
Y39081D01*
Y47181D02*
Y48156D01*
Y52231D02*
Y55406D01*
Y56956D02*
Y59056D01*
Y60106D02*
Y66131D01*
Y67106D02*
Y68106D01*
Y68731D02*
Y69806D01*
Y71681D02*
Y72756D01*
Y73781D02*
Y79806D01*
X101087Y22681D02*
Y23681D01*
Y24031D02*
Y24681D01*
Y28706D02*
Y29656D01*
Y37106D02*
Y37756D01*
Y38106D02*
Y39106D01*
Y47181D02*
Y48156D01*
Y52206D02*
Y55431D01*
Y56931D02*
Y59056D01*
Y60081D02*
Y66156D01*
Y67106D02*
Y68106D01*
Y68731D02*
Y69806D01*
Y71681D02*
Y72756D01*
Y73756D02*
Y79831D01*
X101112Y22681D02*
Y23681D01*
Y24081D02*
Y24631D01*
Y28706D02*
Y29656D01*
Y37156D02*
Y37706D01*
Y38081D02*
Y39106D01*
Y47181D02*
Y48156D01*
Y52181D02*
Y55456D01*
Y56906D02*
Y59056D01*
Y60081D02*
Y66181D01*
Y67106D02*
Y68106D01*
Y68731D02*
Y69806D01*
Y71681D02*
Y72756D01*
Y73731D02*
Y79831D01*
X101137Y22656D02*
Y23706D01*
Y24131D02*
Y24581D01*
Y28706D02*
Y29656D01*
Y37206D02*
Y37656D01*
Y38081D02*
Y39131D01*
Y47181D02*
Y48156D01*
Y52156D02*
Y55481D01*
Y56881D02*
Y59056D01*
Y60056D02*
Y66181D01*
Y67106D02*
Y68106D01*
Y68731D02*
Y69806D01*
Y71681D02*
Y72756D01*
Y73731D02*
Y79856D01*
X101162Y22656D02*
Y23731D01*
Y24206D02*
Y24531D01*
Y28706D02*
Y29656D01*
Y37256D02*
Y37581D01*
Y38056D02*
Y39131D01*
Y47181D02*
Y48156D01*
Y52156D02*
Y55481D01*
Y56881D02*
Y59056D01*
Y60031D02*
Y66206D01*
Y67106D02*
Y68106D01*
Y68731D02*
Y69806D01*
Y71656D02*
Y72756D01*
Y73706D02*
Y79881D01*
X101187Y22631D02*
Y23731D01*
Y28706D02*
Y29656D01*
Y38056D02*
Y39156D01*
Y47181D02*
Y48156D01*
Y52131D02*
Y55506D01*
Y56856D02*
Y59056D01*
Y60006D02*
Y66231D01*
Y67106D02*
Y68106D01*
Y68731D02*
Y69806D01*
Y71656D02*
Y72756D01*
Y73681D02*
Y79906D01*
X101212Y22631D02*
Y23731D01*
Y28706D02*
Y29656D01*
Y38056D02*
Y39156D01*
Y47181D02*
Y48156D01*
Y52106D02*
Y55531D01*
Y56831D02*
Y59056D01*
Y60006D02*
Y66256D01*
Y67106D02*
Y68106D01*
Y68731D02*
Y69806D01*
Y71656D02*
Y72756D01*
Y73656D02*
Y79906D01*
X101237Y22606D02*
Y23756D01*
Y28706D02*
Y29656D01*
Y38031D02*
Y39181D01*
Y47181D02*
Y48156D01*
Y52081D02*
Y55531D01*
Y56831D02*
Y59056D01*
Y59981D02*
Y66256D01*
Y67106D02*
Y68106D01*
Y68731D02*
Y69806D01*
Y71656D02*
Y72756D01*
Y73656D02*
Y79931D01*
X101262Y22606D02*
Y23756D01*
Y28706D02*
Y29656D01*
Y38031D02*
Y39181D01*
Y47181D02*
Y48156D01*
Y52081D02*
Y53631D01*
Y54006D02*
Y55556D01*
Y56806D02*
Y59056D01*
Y59956D02*
Y66281D01*
Y67106D02*
Y68106D01*
Y68731D02*
Y69806D01*
Y71656D02*
Y72756D01*
Y73631D02*
Y79956D01*
X101287Y22606D02*
Y23756D01*
Y38031D02*
Y39181D01*
Y47181D02*
Y48156D01*
Y52056D02*
Y53531D01*
Y54106D02*
Y55581D01*
Y56806D02*
Y59056D01*
Y59956D02*
Y66306D01*
Y67106D02*
Y68106D01*
Y68731D02*
Y69806D01*
Y71656D02*
Y72756D01*
Y73606D02*
Y79956D01*
X101312Y22606D02*
Y23756D01*
Y38031D02*
Y39181D01*
Y47181D02*
Y50781D01*
Y52031D02*
Y53456D01*
Y54156D02*
Y55581D01*
Y56781D02*
Y59056D01*
Y59931D02*
Y66306D01*
Y67106D02*
Y68106D01*
Y68731D02*
Y69806D01*
Y71656D02*
Y72756D01*
Y73606D02*
Y79981D01*
X101337Y22606D02*
Y23756D01*
Y38006D02*
Y39181D01*
Y47181D02*
Y50781D01*
Y52031D02*
Y53406D01*
Y54231D02*
Y55606D01*
Y56756D02*
Y58531D01*
Y59906D02*
Y66331D01*
Y67106D02*
Y68106D01*
Y68731D02*
Y69806D01*
Y71656D02*
Y72756D01*
Y73581D02*
Y80006D01*
X101362Y22581D02*
Y23781D01*
Y38006D02*
Y39206D01*
Y47181D02*
Y50781D01*
Y52006D02*
Y53356D01*
Y54281D02*
Y55631D01*
Y56756D02*
Y58381D01*
Y59906D02*
Y66331D01*
Y67106D02*
Y68106D01*
Y68731D02*
Y69806D01*
Y71656D02*
Y72756D01*
Y73581D02*
Y80006D01*
X101387Y22581D02*
Y23781D01*
Y38006D02*
Y39206D01*
Y47181D02*
Y50781D01*
Y52006D02*
Y53306D01*
Y54306D02*
Y55631D01*
Y56731D02*
Y58281D01*
Y59881D02*
Y61506D01*
Y61781D02*
Y64456D01*
Y64731D02*
Y66356D01*
Y67106D02*
Y68106D01*
Y68731D02*
Y69806D01*
Y71656D02*
Y72756D01*
Y73556D02*
Y75181D01*
Y75456D02*
Y78131D01*
Y78406D02*
Y80031D01*
X101412Y22581D02*
Y23781D01*
Y38006D02*
Y39206D01*
Y47181D02*
Y50781D01*
Y51981D02*
Y53281D01*
Y54356D02*
Y55656D01*
Y56731D02*
Y58206D01*
Y59881D02*
Y61406D01*
Y61906D02*
Y64331D01*
Y64831D02*
Y66356D01*
Y67106D02*
Y68106D01*
Y68731D02*
Y69806D01*
Y71656D02*
Y72756D01*
Y73531D02*
Y75056D01*
Y75581D02*
Y78006D01*
Y78506D02*
Y80031D01*
X101437Y22581D02*
Y23781D01*
Y38006D02*
Y39206D01*
Y47181D02*
Y50781D01*
Y51981D02*
Y53256D01*
Y54381D02*
Y55656D01*
Y56706D02*
Y58156D01*
Y59856D02*
Y61331D01*
Y61981D02*
Y64256D01*
Y64931D02*
Y66381D01*
Y67106D02*
Y68106D01*
Y68731D02*
Y69806D01*
Y71656D02*
Y72756D01*
Y73531D02*
Y74981D01*
Y75656D02*
Y77931D01*
Y78581D02*
Y80056D01*
X101462Y22581D02*
Y23781D01*
Y38006D02*
Y39206D01*
Y47181D02*
Y50781D01*
Y51956D02*
Y53206D01*
Y54406D02*
Y55681D01*
Y56706D02*
Y58106D01*
Y59856D02*
Y61256D01*
Y62031D02*
Y64206D01*
Y64981D02*
Y66406D01*
Y67106D02*
Y68106D01*
Y68731D02*
Y69806D01*
Y71656D02*
Y72756D01*
Y73506D02*
Y74931D01*
Y75706D02*
Y77881D01*
Y78656D02*
Y80056D01*
X101487Y22606D02*
Y23756D01*
Y38031D02*
Y39181D01*
Y47181D02*
Y50781D01*
Y51956D02*
Y53181D01*
Y54431D02*
Y55681D01*
Y56706D02*
Y58056D01*
Y59831D02*
Y61206D01*
Y62081D02*
Y64156D01*
Y65031D02*
Y66406D01*
Y67106D02*
Y68106D01*
Y68731D02*
Y69806D01*
Y71656D02*
Y72756D01*
Y73506D02*
Y74881D01*
Y75756D02*
Y77831D01*
Y78706D02*
Y80081D01*
X101512Y22606D02*
Y23756D01*
Y38031D02*
Y39181D01*
Y47181D02*
Y50781D01*
Y51931D02*
Y53156D01*
Y54456D02*
Y55706D01*
Y56681D02*
Y58031D01*
Y59831D02*
Y61181D01*
Y62131D02*
Y64106D01*
Y65081D02*
Y66406D01*
Y67106D02*
Y68106D01*
Y68731D02*
Y69806D01*
Y71656D02*
Y72756D01*
Y73481D02*
Y74831D01*
Y75806D02*
Y77781D01*
Y78731D02*
Y80081D01*
X101537Y22606D02*
Y23756D01*
Y38031D02*
Y39181D01*
Y47181D02*
Y50781D01*
Y51931D02*
Y53131D01*
Y54481D02*
Y55706D01*
Y56681D02*
Y57981D01*
Y59806D02*
Y61131D01*
Y62181D02*
Y64081D01*
Y65106D02*
Y66431D01*
Y67106D02*
Y68106D01*
Y68731D02*
Y69806D01*
Y71656D02*
Y72756D01*
Y73481D02*
Y74806D01*
Y75831D02*
Y77731D01*
Y78781D02*
Y80106D01*
X101562Y22606D02*
Y23756D01*
Y26881D02*
Y27031D01*
Y34756D02*
Y34906D01*
Y38031D02*
Y39181D01*
Y47181D02*
Y50781D01*
Y51906D02*
Y53106D01*
Y54506D02*
Y55731D01*
Y56656D02*
Y57956D01*
Y59806D02*
Y61106D01*
Y62206D02*
Y64031D01*
Y65156D02*
Y66431D01*
Y67106D02*
Y68106D01*
Y68731D02*
Y69806D01*
Y71656D02*
Y72756D01*
Y73481D02*
Y74756D01*
Y75881D02*
Y77706D01*
Y78806D02*
Y80106D01*
X101587Y21931D02*
Y22056D01*
Y22606D02*
Y23756D01*
Y26781D02*
Y27131D01*
Y34656D02*
Y35006D01*
Y38031D02*
Y39181D01*
Y39731D02*
Y39856D01*
Y47181D02*
Y50756D01*
Y51906D02*
Y53081D01*
Y54531D02*
Y55731D01*
Y56656D02*
Y57931D01*
Y59781D02*
Y61056D01*
Y62231D02*
Y64006D01*
Y65181D02*
Y66456D01*
Y67106D02*
Y68106D01*
Y68731D02*
Y69806D01*
Y71656D02*
Y72756D01*
Y73456D02*
Y74731D01*
Y75906D02*
Y77681D01*
Y78856D02*
Y80131D01*
X101612Y21806D02*
Y22181D01*
Y22631D02*
Y23731D01*
Y26706D02*
Y27206D01*
Y34581D02*
Y35081D01*
Y38056D02*
Y39156D01*
Y39606D02*
Y39981D01*
Y47181D02*
Y50756D01*
Y51881D02*
Y53056D01*
Y54556D02*
Y55756D01*
Y56656D02*
Y57906D01*
Y59781D02*
Y61031D01*
Y62256D02*
Y63981D01*
Y65206D02*
Y66456D01*
Y67106D02*
Y68106D01*
Y68731D02*
Y69806D01*
Y71656D02*
Y72756D01*
Y73456D02*
Y74706D01*
Y75931D02*
Y77656D01*
Y78881D02*
Y80131D01*
X101637Y21756D02*
Y22231D01*
Y22631D02*
Y23731D01*
Y26656D02*
Y27256D01*
Y34531D02*
Y35131D01*
Y38056D02*
Y39156D01*
Y39556D02*
Y40031D01*
Y47181D02*
Y50756D01*
Y51881D02*
Y53056D01*
Y54581D02*
Y55756D01*
Y56631D02*
Y57881D01*
Y59781D02*
Y61006D01*
Y62306D02*
Y63956D01*
Y65231D02*
Y66481D01*
Y67106D02*
Y68106D01*
Y68731D02*
Y69806D01*
Y71656D02*
Y72756D01*
Y73431D02*
Y74681D01*
Y75956D02*
Y77606D01*
Y78906D02*
Y80131D01*
X101662Y21706D02*
Y22281D01*
Y22656D02*
Y23706D01*
Y26631D02*
Y27306D01*
Y34481D02*
Y35156D01*
Y38081D02*
Y39131D01*
Y39506D02*
Y40081D01*
Y47181D02*
Y50731D01*
Y51856D02*
Y53031D01*
Y54581D02*
Y55781D01*
Y56631D02*
Y57856D01*
Y59756D02*
Y60981D01*
Y62331D02*
Y63931D01*
Y65256D02*
Y66481D01*
Y67106D02*
Y68106D01*
Y68731D02*
Y69806D01*
Y71656D02*
Y72756D01*
Y73431D02*
Y74656D01*
Y75981D02*
Y77581D01*
Y78931D02*
Y80156D01*
X101687Y21656D02*
Y22331D01*
Y22656D02*
Y23706D01*
Y26581D02*
Y27331D01*
Y34456D02*
Y35206D01*
Y38081D02*
Y39131D01*
Y39456D02*
Y40131D01*
Y47181D02*
Y50731D01*
Y51856D02*
Y53006D01*
Y54606D02*
Y55781D01*
Y56631D02*
Y57831D01*
Y59756D02*
Y60956D01*
Y62331D02*
Y63906D01*
Y65281D02*
Y66481D01*
Y67106D02*
Y68106D01*
Y68731D02*
Y69806D01*
Y71656D02*
Y72756D01*
Y73431D02*
Y74631D01*
Y76006D02*
Y77581D01*
Y78956D02*
Y80156D01*
X101712Y21631D02*
Y22356D01*
Y22681D02*
Y23681D01*
Y26556D02*
Y27356D01*
Y34431D02*
Y35231D01*
Y38106D02*
Y39106D01*
Y39431D02*
Y40156D01*
Y47181D02*
Y50731D01*
Y51856D02*
Y53006D01*
Y54631D02*
Y55781D01*
Y56606D02*
Y57806D01*
Y59756D02*
Y60931D01*
Y62356D02*
Y63881D01*
Y65306D02*
Y66506D01*
Y67106D02*
Y68106D01*
Y68731D02*
Y69806D01*
Y71656D02*
Y72756D01*
Y73406D02*
Y74606D01*
Y76031D02*
Y77556D01*
Y78981D02*
Y80156D01*
X101737Y21606D02*
Y22406D01*
Y22681D02*
Y23681D01*
Y26531D02*
Y27381D01*
Y34406D02*
Y35256D01*
Y38106D02*
Y39106D01*
Y39381D02*
Y40181D01*
Y47181D02*
Y50706D01*
Y51831D02*
Y52981D01*
Y54631D02*
Y55806D01*
Y56606D02*
Y57781D01*
Y59731D02*
Y60931D01*
Y62381D02*
Y63856D01*
Y65331D02*
Y66506D01*
Y67106D02*
Y68106D01*
Y68731D02*
Y69806D01*
Y71656D02*
Y72756D01*
Y73406D02*
Y74581D01*
Y76056D02*
Y77531D01*
Y78981D02*
Y80181D01*
X101762Y21581D02*
Y22431D01*
Y22706D02*
Y23656D01*
Y26506D02*
Y27406D01*
Y34381D02*
Y35281D01*
Y38131D02*
Y39081D01*
Y39356D02*
Y40206D01*
Y47181D02*
Y50706D01*
Y51831D02*
Y52956D01*
Y54656D02*
Y55806D01*
Y56606D02*
Y57756D01*
Y59731D02*
Y60906D01*
Y62406D02*
Y63831D01*
Y65331D02*
Y66506D01*
Y67106D02*
Y68106D01*
Y68731D02*
Y69806D01*
Y71656D02*
Y72756D01*
Y73406D02*
Y74581D01*
Y76081D02*
Y77506D01*
Y79006D02*
Y80181D01*
X101787Y21556D02*
Y22431D01*
Y22731D02*
Y23631D01*
Y26481D02*
Y27431D01*
Y34356D02*
Y35306D01*
Y38156D02*
Y39056D01*
Y39356D02*
Y40231D01*
Y47181D02*
Y50681D01*
Y51831D02*
Y52956D01*
Y54656D02*
Y55806D01*
Y56581D02*
Y57731D01*
Y59731D02*
Y60881D01*
Y62431D02*
Y63831D01*
Y65356D02*
Y66531D01*
Y67106D02*
Y68106D01*
Y68731D02*
Y69806D01*
Y71656D02*
Y72756D01*
Y73381D02*
Y74556D01*
Y76081D02*
Y77481D01*
Y79031D02*
Y80181D01*
X101812Y21531D02*
Y22456D01*
Y22756D02*
Y23606D01*
Y26481D02*
Y27456D01*
Y34331D02*
Y35306D01*
Y38181D02*
Y39031D01*
Y39331D02*
Y40256D01*
Y47181D02*
Y50681D01*
Y51806D02*
Y52931D01*
Y54681D02*
Y55831D01*
Y56581D02*
Y57731D01*
Y59706D02*
Y60856D01*
Y62431D02*
Y63806D01*
Y65381D02*
Y66531D01*
Y67106D02*
Y68106D01*
Y68731D02*
Y69806D01*
Y71656D02*
Y72756D01*
Y73381D02*
Y74531D01*
Y76106D02*
Y77481D01*
Y79031D02*
Y80206D01*
X101837Y21506D02*
Y22481D01*
Y22781D02*
Y23581D01*
Y26456D02*
Y27456D01*
Y34331D02*
Y35331D01*
Y38206D02*
Y39006D01*
Y39306D02*
Y40281D01*
Y47181D02*
Y50656D01*
Y51806D02*
Y52931D01*
Y54681D02*
Y55831D01*
Y56581D02*
Y57706D01*
Y59706D02*
Y60856D01*
Y62456D02*
Y63781D01*
Y65381D02*
Y66531D01*
Y67106D02*
Y68106D01*
Y68731D02*
Y69806D01*
Y71656D02*
Y72756D01*
Y73381D02*
Y74531D01*
Y76106D02*
Y77456D01*
Y79056D02*
Y80206D01*
X101862Y21506D02*
Y22506D01*
Y22806D02*
Y23556D01*
Y26431D02*
Y27481D01*
Y34306D02*
Y35356D01*
Y38231D02*
Y38981D01*
Y39281D02*
Y40281D01*
Y47181D02*
Y50656D01*
Y51806D02*
Y52931D01*
Y54681D02*
Y55831D01*
Y56581D02*
Y57681D01*
Y59706D02*
Y60831D01*
Y62456D02*
Y63781D01*
Y65406D02*
Y66531D01*
Y67106D02*
Y68106D01*
Y68731D02*
Y69806D01*
Y71656D02*
Y72756D01*
Y73381D02*
Y74506D01*
Y76131D02*
Y77456D01*
Y79081D02*
Y80206D01*
X101887Y21481D02*
Y22506D01*
Y22831D02*
Y23531D01*
Y26431D02*
Y27481D01*
Y34306D02*
Y35356D01*
Y38256D02*
Y38956D01*
Y39281D02*
Y40306D01*
Y47181D02*
Y50631D01*
Y51781D02*
Y52906D01*
Y54706D02*
Y55831D01*
Y56556D02*
Y57681D01*
Y59706D02*
Y60831D01*
Y62481D02*
Y63756D01*
Y65406D02*
Y66556D01*
Y67106D02*
Y68106D01*
Y68731D02*
Y69806D01*
Y71656D02*
Y72756D01*
Y73356D02*
Y74506D01*
Y76156D02*
Y77431D01*
Y79081D02*
Y80206D01*
X101912Y21456D02*
Y22531D01*
Y22881D02*
Y23481D01*
Y26406D02*
Y27506D01*
Y34281D02*
Y35381D01*
Y38306D02*
Y38906D01*
Y39256D02*
Y40331D01*
Y47181D02*
Y50606D01*
Y51781D02*
Y52906D01*
Y54706D02*
Y55856D01*
Y56556D02*
Y57656D01*
Y59681D02*
Y60806D01*
Y62481D02*
Y63756D01*
Y65431D02*
Y66556D01*
Y67106D02*
Y68106D01*
Y68731D02*
Y69806D01*
Y71656D02*
Y72756D01*
Y73356D02*
Y74481D01*
Y76156D02*
Y77431D01*
Y79106D02*
Y80231D01*
X101937Y21456D02*
Y22531D01*
Y22906D02*
Y23456D01*
Y26406D02*
Y27506D01*
Y34281D02*
Y35381D01*
Y38331D02*
Y38881D01*
Y39256D02*
Y40331D01*
Y47181D02*
Y50581D01*
Y51781D02*
Y52906D01*
Y54706D02*
Y55856D01*
Y56556D02*
Y57656D01*
Y59681D02*
Y60806D01*
Y62506D02*
Y63731D01*
Y65431D02*
Y66556D01*
Y67106D02*
Y68106D01*
Y68731D02*
Y69806D01*
Y71656D02*
Y72756D01*
Y73356D02*
Y74481D01*
Y76156D02*
Y77406D01*
Y79106D02*
Y80231D01*
X101962Y21456D02*
Y22556D01*
Y22981D02*
Y23381D01*
Y26406D02*
Y27531D01*
Y34256D02*
Y35381D01*
Y38406D02*
Y38806D01*
Y39231D02*
Y40331D01*
Y47181D02*
Y50556D01*
Y51781D02*
Y52881D01*
Y54731D02*
Y55856D01*
Y56556D02*
Y57631D01*
Y59681D02*
Y60781D01*
Y62506D02*
Y63731D01*
Y65456D02*
Y66556D01*
Y67106D02*
Y68106D01*
Y68731D02*
Y69806D01*
Y71656D02*
Y72756D01*
Y73356D02*
Y74456D01*
Y76181D02*
Y77406D01*
Y79131D02*
Y80231D01*
X101987Y21431D02*
Y22556D01*
Y23056D02*
Y23306D01*
Y26381D02*
Y27531D01*
Y34256D02*
Y35406D01*
Y38481D02*
Y38731D01*
Y39231D02*
Y40356D01*
Y47181D02*
Y50531D01*
Y51781D02*
Y52881D01*
Y54731D02*
Y55856D01*
Y56556D02*
Y57631D01*
Y59681D02*
Y60781D01*
Y62531D02*
Y63731D01*
Y65456D02*
Y66581D01*
Y67106D02*
Y68106D01*
Y68731D02*
Y69806D01*
Y71656D02*
Y72756D01*
Y73331D02*
Y74456D01*
Y76181D02*
Y77381D01*
Y79131D02*
Y80231D01*
X102012Y21431D02*
Y22556D01*
Y26381D02*
Y27531D01*
Y34256D02*
Y35406D01*
Y39231D02*
Y40356D01*
Y47181D02*
Y50506D01*
Y51756D02*
Y52881D01*
Y54731D02*
Y55881D01*
Y56531D02*
Y57606D01*
Y59681D02*
Y60781D01*
Y62531D02*
Y63706D01*
Y65481D02*
Y66581D01*
Y67106D02*
Y68106D01*
Y68731D02*
Y69806D01*
Y71656D02*
Y72756D01*
Y73331D02*
Y74431D01*
Y76206D02*
Y77381D01*
Y79131D02*
Y80231D01*
X102037Y21431D02*
Y22581D01*
Y26381D02*
Y27531D01*
Y34256D02*
Y35406D01*
Y39206D02*
Y40356D01*
Y47181D02*
Y50481D01*
Y51756D02*
Y52881D01*
Y54731D02*
Y55881D01*
Y56531D02*
Y57606D01*
Y59656D02*
Y60756D01*
Y62531D02*
Y63706D01*
Y65481D02*
Y66581D01*
Y67106D02*
Y68106D01*
Y68731D02*
Y69806D01*
Y71656D02*
Y72756D01*
Y73331D02*
Y74431D01*
Y76206D02*
Y77381D01*
Y79156D02*
Y80256D01*
X102062Y21406D02*
Y22581D01*
Y26381D02*
Y27531D01*
Y34231D02*
Y35406D01*
Y39206D02*
Y40381D01*
Y47181D02*
Y50456D01*
Y51756D02*
Y52881D01*
Y54731D02*
Y55881D01*
Y56531D02*
Y57581D01*
Y59656D02*
Y60756D01*
Y62556D02*
Y63706D01*
Y65481D02*
Y66581D01*
Y67106D02*
Y68106D01*
Y68731D02*
Y69806D01*
Y71656D02*
Y72756D01*
Y73331D02*
Y74431D01*
Y76206D02*
Y77356D01*
Y79156D02*
Y80256D01*
X102087Y21406D02*
Y22581D01*
Y26381D02*
Y27556D01*
Y34231D02*
Y35406D01*
Y39206D02*
Y40381D01*
Y47181D02*
Y50431D01*
Y51756D02*
Y52881D01*
Y54731D02*
Y55881D01*
Y56531D02*
Y57581D01*
Y59656D02*
Y60756D01*
Y62556D02*
Y63681D01*
Y65481D02*
Y66581D01*
Y67106D02*
Y68106D01*
Y68731D02*
Y69806D01*
Y71656D02*
Y72756D01*
Y73331D02*
Y74431D01*
Y76206D02*
Y77356D01*
Y79156D02*
Y80256D01*
X102112Y21406D02*
Y22581D01*
Y25431D02*
Y25706D01*
Y26356D02*
Y27556D01*
Y34231D02*
Y35406D01*
Y36081D02*
Y36356D01*
Y39206D02*
Y40381D01*
Y47181D02*
Y50381D01*
Y51756D02*
Y52881D01*
Y54731D02*
Y55881D01*
Y56531D02*
Y57581D01*
Y59656D02*
Y60756D01*
Y62556D02*
Y63681D01*
Y65506D02*
Y66581D01*
Y67106D02*
Y68106D01*
Y68731D02*
Y69806D01*
Y71656D02*
Y72756D01*
Y73331D02*
Y74406D01*
Y76231D02*
Y77356D01*
Y79156D02*
Y80256D01*
X102137Y21406D02*
Y22581D01*
Y25331D02*
Y25781D01*
Y26356D02*
Y27556D01*
Y34231D02*
Y35431D01*
Y36006D02*
Y36456D01*
Y39206D02*
Y40381D01*
Y47181D02*
Y50331D01*
Y51731D02*
Y52856D01*
Y54731D02*
Y55881D01*
Y56506D02*
Y57556D01*
Y59656D02*
Y60731D01*
Y62556D02*
Y63681D01*
Y65506D02*
Y66581D01*
Y67106D02*
Y68106D01*
Y68731D02*
Y69806D01*
Y71656D02*
Y72756D01*
Y73331D02*
Y74406D01*
Y76231D02*
Y77356D01*
Y79156D02*
Y80256D01*
X102162Y21406D02*
Y22581D01*
Y25281D02*
Y25831D01*
Y26356D02*
Y27556D01*
Y34231D02*
Y35431D01*
Y35956D02*
Y36506D01*
Y39206D02*
Y40381D01*
Y47181D02*
Y50281D01*
Y51731D02*
Y52856D01*
Y54731D02*
Y55906D01*
Y56506D02*
Y57556D01*
Y59656D02*
Y60731D01*
Y62556D02*
Y63681D01*
Y65506D02*
Y66606D01*
Y67106D02*
Y68106D01*
Y68731D02*
Y69806D01*
Y71656D02*
Y72756D01*
Y73306D02*
Y74406D01*
Y76231D02*
Y77356D01*
Y79181D02*
Y80256D01*
X102187Y21406D02*
Y22581D01*
Y25256D02*
Y25881D01*
Y26356D02*
Y27556D01*
Y34231D02*
Y35406D01*
Y35906D02*
Y36531D01*
Y39206D02*
Y40381D01*
Y47181D02*
Y50231D01*
Y51731D02*
Y52856D01*
Y54731D02*
Y55906D01*
Y56506D02*
Y57556D01*
Y59656D02*
Y60731D01*
Y62556D02*
Y63681D01*
Y65506D02*
Y66606D01*
Y67106D02*
Y68106D01*
Y68731D02*
Y69806D01*
Y71656D02*
Y72756D01*
Y73306D02*
Y74406D01*
Y76231D02*
Y77331D01*
Y79181D02*
Y80256D01*
X102212Y21406D02*
Y22581D01*
Y25206D02*
Y25931D01*
Y26381D02*
Y27556D01*
Y34231D02*
Y35406D01*
Y35856D02*
Y36581D01*
Y39206D02*
Y40381D01*
Y47181D02*
Y50131D01*
Y51731D02*
Y52881D01*
Y54731D02*
Y55906D01*
Y56506D02*
Y57531D01*
Y59656D02*
Y60731D01*
Y62581D02*
Y63681D01*
Y65506D02*
Y66606D01*
Y67106D02*
Y68106D01*
Y68731D02*
Y69806D01*
Y71656D02*
Y72756D01*
Y73306D02*
Y74406D01*
Y76231D02*
Y77331D01*
Y79181D02*
Y80256D01*
X102237Y21406D02*
Y22581D01*
Y25181D02*
Y25956D01*
Y26381D02*
Y27531D01*
Y34231D02*
Y35406D01*
Y35831D02*
Y36606D01*
Y39206D02*
Y40381D01*
Y47181D02*
Y48156D01*
Y51731D02*
Y52881D01*
Y54731D02*
Y55906D01*
Y56506D02*
Y57531D01*
Y59631D02*
Y60731D01*
Y62581D02*
Y63681D01*
Y65506D02*
Y66606D01*
Y67106D02*
Y68106D01*
Y68731D02*
Y69806D01*
Y71656D02*
Y72756D01*
Y73306D02*
Y74406D01*
Y76231D02*
Y77331D01*
Y79181D02*
Y80281D01*
X102262Y21406D02*
Y22581D01*
Y23906D02*
Y24006D01*
Y25156D02*
Y25981D01*
Y26381D02*
Y27531D01*
Y34256D02*
Y35406D01*
Y35806D02*
Y36631D01*
Y37781D02*
Y37881D01*
Y39206D02*
Y40381D01*
Y47181D02*
Y48156D01*
Y51731D02*
Y52881D01*
Y54731D02*
Y55906D01*
Y56506D02*
Y57531D01*
Y59631D02*
Y60731D01*
Y62581D02*
Y63656D01*
Y65506D02*
Y66606D01*
Y67106D02*
Y68106D01*
Y68731D02*
Y69806D01*
Y71656D02*
Y72756D01*
Y73306D02*
Y74406D01*
Y76231D02*
Y77331D01*
Y79181D02*
Y80281D01*
X102287Y21406D02*
Y22581D01*
Y23781D02*
Y24131D01*
Y25131D02*
Y26006D01*
Y26381D02*
Y27531D01*
Y34256D02*
Y35406D01*
Y35781D02*
Y36656D01*
Y37656D02*
Y38006D01*
Y39206D02*
Y40381D01*
Y47181D02*
Y48156D01*
Y51731D02*
Y55906D01*
Y56506D02*
Y57531D01*
Y59631D02*
Y60731D01*
Y62581D02*
Y63656D01*
Y65506D02*
Y66606D01*
Y67106D02*
Y68106D01*
Y68731D02*
Y69806D01*
Y71656D02*
Y72756D01*
Y73306D02*
Y74406D01*
Y76231D02*
Y77331D01*
Y79181D02*
Y80281D01*
X102312Y21431D02*
Y22581D01*
Y23706D02*
Y24206D01*
Y25106D02*
Y26031D01*
Y26381D02*
Y27531D01*
Y34256D02*
Y35406D01*
Y35756D02*
Y36681D01*
Y37581D02*
Y38081D01*
Y39206D02*
Y40356D01*
Y47181D02*
Y48156D01*
Y51731D02*
Y55906D01*
Y56506D02*
Y57531D01*
Y59631D02*
Y60731D01*
Y62581D02*
Y63656D01*
Y65506D02*
Y66606D01*
Y67106D02*
Y68106D01*
Y68731D02*
Y69806D01*
Y71656D02*
Y72756D01*
Y73306D02*
Y74406D01*
Y76256D02*
Y77331D01*
Y79181D02*
Y80281D01*
X102337Y21431D02*
Y22556D01*
Y23656D02*
Y24256D01*
Y25081D02*
Y26031D01*
Y26406D02*
Y27531D01*
Y34256D02*
Y35381D01*
Y35756D02*
Y36706D01*
Y37531D02*
Y38131D01*
Y39231D02*
Y40356D01*
Y47181D02*
Y48156D01*
Y51731D02*
Y55906D01*
Y56506D02*
Y57506D01*
Y59631D02*
Y60731D01*
Y62581D02*
Y63656D01*
Y65506D02*
Y66606D01*
Y67106D02*
Y68106D01*
Y68731D02*
Y69806D01*
Y71656D02*
Y72756D01*
Y73306D02*
Y74406D01*
Y76256D02*
Y77331D01*
Y79181D02*
Y80281D01*
X102362Y21431D02*
Y22556D01*
Y23631D02*
Y24281D01*
Y25081D02*
Y26056D01*
Y26406D02*
Y27506D01*
Y34281D02*
Y35381D01*
Y35731D02*
Y36706D01*
Y37506D02*
Y38156D01*
Y39231D02*
Y40356D01*
Y47181D02*
Y48156D01*
Y51731D02*
Y55906D01*
Y56506D02*
Y57506D01*
Y59631D02*
Y60731D01*
Y62581D02*
Y63656D01*
Y65506D02*
Y66606D01*
Y67106D02*
Y68106D01*
Y68731D02*
Y69806D01*
Y71656D02*
Y72756D01*
Y73306D02*
Y74406D01*
Y76256D02*
Y77331D01*
Y79181D02*
Y80281D01*
X102387Y21456D02*
Y22556D01*
Y23581D02*
Y24331D01*
Y25056D02*
Y26081D01*
Y26406D02*
Y27506D01*
Y34281D02*
Y35381D01*
Y35706D02*
Y36731D01*
Y37456D02*
Y38206D01*
Y39231D02*
Y40331D01*
Y47181D02*
Y48156D01*
Y51731D02*
Y55906D01*
Y56481D02*
Y57506D01*
Y59631D02*
Y60731D01*
Y62581D02*
Y63656D01*
Y65506D02*
Y66606D01*
Y67106D02*
Y68106D01*
Y68731D02*
Y69806D01*
Y71656D02*
Y72756D01*
Y73306D02*
Y74406D01*
Y76256D02*
Y77331D01*
Y79181D02*
Y80281D01*
X102412Y21456D02*
Y22531D01*
Y23556D02*
Y24356D01*
Y25031D02*
Y26081D01*
Y26431D02*
Y27481D01*
Y34306D02*
Y35356D01*
Y35706D02*
Y36756D01*
Y37431D02*
Y38231D01*
Y39256D02*
Y40331D01*
Y47181D02*
Y48156D01*
Y51731D02*
Y55906D01*
Y56481D02*
Y57506D01*
Y59631D02*
Y60731D01*
Y62581D02*
Y63656D01*
Y65506D02*
Y66606D01*
Y67106D02*
Y68106D01*
Y68731D02*
Y69806D01*
Y71656D02*
Y72756D01*
Y73306D02*
Y74406D01*
Y76256D02*
Y77331D01*
Y79181D02*
Y80281D01*
X102437Y21456D02*
Y22531D01*
Y23531D02*
Y24381D01*
Y25031D02*
Y26106D01*
Y26431D02*
Y27481D01*
Y34306D02*
Y35356D01*
Y35681D02*
Y36756D01*
Y37406D02*
Y38256D01*
Y39256D02*
Y40331D01*
Y47181D02*
Y48156D01*
Y51731D02*
Y55906D01*
Y56481D02*
Y57506D01*
Y59631D02*
Y60731D01*
Y62581D02*
Y63656D01*
Y65506D02*
Y66606D01*
Y67106D02*
Y68106D01*
Y68731D02*
Y69806D01*
Y71656D02*
Y72756D01*
Y73306D02*
Y74406D01*
Y76256D02*
Y77331D01*
Y79181D02*
Y80281D01*
X102462Y21481D02*
Y22506D01*
Y23506D02*
Y24406D01*
Y25006D02*
Y26106D01*
Y26456D02*
Y27456D01*
Y34331D02*
Y35331D01*
Y35681D02*
Y36781D01*
Y37381D02*
Y38281D01*
Y39281D02*
Y40306D01*
Y47181D02*
Y48156D01*
Y51731D02*
Y55906D01*
Y56481D02*
Y57506D01*
Y59631D02*
Y60731D01*
Y62581D02*
Y63656D01*
Y65506D02*
Y66606D01*
Y67106D02*
Y68106D01*
Y68731D02*
Y69806D01*
Y71656D02*
Y72756D01*
Y73306D02*
Y74406D01*
Y76256D02*
Y77331D01*
Y79181D02*
Y80281D01*
X102487Y21506D02*
Y22506D01*
Y23481D02*
Y24431D01*
Y25006D02*
Y26131D01*
Y26481D02*
Y27456D01*
Y34331D02*
Y35306D01*
Y35656D02*
Y36781D01*
Y37356D02*
Y38306D01*
Y39281D02*
Y40281D01*
Y47181D02*
Y48156D01*
Y51731D02*
Y55906D01*
Y56481D02*
Y57506D01*
Y59631D02*
Y60731D01*
Y62581D02*
Y63656D01*
Y65506D02*
Y66606D01*
Y67106D02*
Y68106D01*
Y68731D02*
Y69806D01*
Y71656D02*
Y72756D01*
Y73306D02*
Y74406D01*
Y76256D02*
Y77331D01*
Y79181D02*
Y80281D01*
X102512Y21506D02*
Y22481D01*
Y23456D02*
Y24431D01*
Y25006D02*
Y26131D01*
Y26481D02*
Y27431D01*
Y34356D02*
Y35306D01*
Y35656D02*
Y36781D01*
Y37356D02*
Y38306D01*
Y39306D02*
Y40281D01*
Y47181D02*
Y48156D01*
Y51731D02*
Y55906D01*
Y56481D02*
Y57506D01*
Y59631D02*
Y60731D01*
Y62581D02*
Y63656D01*
Y65506D02*
Y66606D01*
Y67106D02*
Y68106D01*
Y68731D02*
Y69806D01*
Y71656D02*
Y72756D01*
Y73306D02*
Y74406D01*
Y76256D02*
Y77331D01*
Y79181D02*
Y80281D01*
X102537Y21531D02*
Y22456D01*
Y23456D02*
Y24456D01*
Y24981D02*
Y26131D01*
Y26506D02*
Y27406D01*
Y34381D02*
Y35281D01*
Y35656D02*
Y36806D01*
Y37331D02*
Y38331D01*
Y39331D02*
Y40256D01*
Y47181D02*
Y48156D01*
Y51731D02*
Y55906D01*
Y56481D02*
Y57506D01*
Y59631D02*
Y60731D01*
Y62581D02*
Y63656D01*
Y65506D02*
Y66606D01*
Y67106D02*
Y68106D01*
Y68731D02*
Y69806D01*
Y71656D02*
Y72756D01*
Y73306D02*
Y74406D01*
Y76256D02*
Y77331D01*
Y79181D02*
Y80281D01*
X102562Y21556D02*
Y22456D01*
Y23431D02*
Y24481D01*
Y24981D02*
Y26131D01*
Y26531D02*
Y27381D01*
Y34406D02*
Y35256D01*
Y35631D02*
Y36806D01*
Y37306D02*
Y38356D01*
Y39331D02*
Y40231D01*
Y47181D02*
Y48156D01*
Y51731D02*
Y55906D01*
Y56481D02*
Y57506D01*
Y59631D02*
Y60731D01*
Y62581D02*
Y63656D01*
Y65506D02*
Y66606D01*
Y67106D02*
Y68106D01*
Y68731D02*
Y69806D01*
Y71656D02*
Y72756D01*
Y73306D02*
Y74406D01*
Y76256D02*
Y77331D01*
Y79181D02*
Y80281D01*
X102587Y21581D02*
Y22431D01*
Y23431D02*
Y24481D01*
Y24981D02*
Y26156D01*
Y26556D02*
Y27356D01*
Y34431D02*
Y35231D01*
Y35631D02*
Y36806D01*
Y37306D02*
Y38356D01*
Y39356D02*
Y40206D01*
Y47181D02*
Y48156D01*
Y51731D02*
Y55881D01*
Y56481D02*
Y57506D01*
Y59631D02*
Y60731D01*
Y62581D02*
Y63656D01*
Y65506D02*
Y66606D01*
Y67106D02*
Y68106D01*
Y68731D02*
Y69806D01*
Y71656D02*
Y72756D01*
Y73306D02*
Y74406D01*
Y76256D02*
Y77331D01*
Y79181D02*
Y80281D01*
X102612Y21606D02*
Y22406D01*
Y23406D02*
Y24506D01*
Y24981D02*
Y26156D01*
Y26581D02*
Y27331D01*
Y34456D02*
Y35206D01*
Y35631D02*
Y36806D01*
Y37281D02*
Y38381D01*
Y39381D02*
Y40181D01*
Y47181D02*
Y48156D01*
Y51731D02*
Y55881D01*
Y56481D02*
Y57506D01*
Y59631D02*
Y60731D01*
Y62581D02*
Y63656D01*
Y65506D02*
Y66606D01*
Y67106D02*
Y68106D01*
Y68731D02*
Y69806D01*
Y71656D02*
Y72756D01*
Y73306D02*
Y74406D01*
Y76256D02*
Y77331D01*
Y79181D02*
Y80281D01*
X102637Y21631D02*
Y22356D01*
Y23406D02*
Y24506D01*
Y24981D02*
Y26156D01*
Y26631D02*
Y27281D01*
Y34506D02*
Y35156D01*
Y35631D02*
Y36806D01*
Y37281D02*
Y38381D01*
Y39431D02*
Y40156D01*
Y47181D02*
Y48156D01*
Y51731D02*
Y55881D01*
Y56481D02*
Y57506D01*
Y59631D02*
Y60731D01*
Y62581D02*
Y63656D01*
Y65506D02*
Y66606D01*
Y67106D02*
Y68106D01*
Y68731D02*
Y69806D01*
Y71656D02*
Y72756D01*
Y73306D02*
Y74406D01*
Y76256D02*
Y77331D01*
Y79181D02*
Y80281D01*
X102662Y21656D02*
Y22331D01*
Y23381D02*
Y24506D01*
Y24981D02*
Y26156D01*
Y26656D02*
Y27256D01*
Y34531D02*
Y35131D01*
Y35631D02*
Y36806D01*
Y37281D02*
Y38406D01*
Y39456D02*
Y40131D01*
Y47181D02*
Y48156D01*
Y51731D02*
Y55881D01*
Y56481D02*
Y57506D01*
Y59631D02*
Y60731D01*
Y62581D02*
Y63656D01*
Y65506D02*
Y66606D01*
Y67106D02*
Y68106D01*
Y68731D02*
Y69806D01*
Y71656D02*
Y72756D01*
Y73306D02*
Y74406D01*
Y76256D02*
Y77331D01*
Y79181D02*
Y80281D01*
X102687Y21706D02*
Y22281D01*
Y23381D02*
Y24531D01*
Y24981D02*
Y26156D01*
Y26706D02*
Y27206D01*
Y34581D02*
Y35081D01*
Y35631D02*
Y36806D01*
Y37256D02*
Y38406D01*
Y39506D02*
Y40081D01*
Y47181D02*
Y48156D01*
Y51731D02*
Y55856D01*
Y56481D02*
Y57506D01*
Y59631D02*
Y60731D01*
Y62581D02*
Y63656D01*
Y65506D02*
Y66606D01*
Y67106D02*
Y68106D01*
Y68731D02*
Y69806D01*
Y71656D02*
Y72756D01*
Y73306D02*
Y74406D01*
Y76256D02*
Y77331D01*
Y79181D02*
Y80281D01*
X102712Y21756D02*
Y22256D01*
Y23381D02*
Y24531D01*
Y24981D02*
Y26156D01*
Y26781D02*
Y27131D01*
Y34656D02*
Y35006D01*
Y35631D02*
Y36806D01*
Y37256D02*
Y38406D01*
Y39531D02*
Y40031D01*
Y47181D02*
Y48156D01*
Y51731D02*
Y55856D01*
Y56481D02*
Y57506D01*
Y59631D02*
Y60731D01*
Y62581D02*
Y63656D01*
Y65506D02*
Y66606D01*
Y67106D02*
Y68106D01*
Y68731D02*
Y69806D01*
Y71656D02*
Y72756D01*
Y73306D02*
Y74406D01*
Y76256D02*
Y77331D01*
Y79181D02*
Y80281D01*
X102737Y21806D02*
Y22181D01*
Y23381D02*
Y24531D01*
Y24981D02*
Y26156D01*
Y26906D02*
Y27031D01*
Y34756D02*
Y34881D01*
Y35631D02*
Y36806D01*
Y37256D02*
Y38406D01*
Y39606D02*
Y39981D01*
Y47181D02*
Y48156D01*
Y51731D02*
Y55831D01*
Y56481D02*
Y57506D01*
Y59631D02*
Y60731D01*
Y62581D02*
Y63656D01*
Y65506D02*
Y66606D01*
Y67106D02*
Y68106D01*
Y68731D02*
Y69806D01*
Y71656D02*
Y72756D01*
Y73306D02*
Y74406D01*
Y76256D02*
Y77331D01*
Y79181D02*
Y80281D01*
X102762Y21931D02*
Y22056D01*
Y23356D02*
Y24531D01*
Y24981D02*
Y26156D01*
Y35631D02*
Y36806D01*
Y37256D02*
Y38406D01*
Y39731D02*
Y39856D01*
Y47181D02*
Y48156D01*
Y51731D02*
Y55831D01*
Y56481D02*
Y57506D01*
Y59631D02*
Y60731D01*
Y62581D02*
Y63656D01*
Y65506D02*
Y66606D01*
Y67106D02*
Y68106D01*
Y68731D02*
Y69806D01*
Y71656D02*
Y72756D01*
Y73306D02*
Y74406D01*
Y76256D02*
Y77331D01*
Y79181D02*
Y80281D01*
X102787Y23356D02*
Y24531D01*
Y24981D02*
Y26156D01*
Y35631D02*
Y36806D01*
Y37256D02*
Y38431D01*
Y47181D02*
Y48156D01*
Y51731D02*
Y55806D01*
Y56481D02*
Y57506D01*
Y59631D02*
Y60731D01*
Y62581D02*
Y63656D01*
Y65506D02*
Y66606D01*
Y67106D02*
Y68106D01*
Y68731D02*
Y69806D01*
Y71656D02*
Y72756D01*
Y73306D02*
Y74406D01*
Y76256D02*
Y77331D01*
Y79181D02*
Y80281D01*
X102812Y23356D02*
Y24531D01*
Y24981D02*
Y26131D01*
Y35656D02*
Y36806D01*
Y37256D02*
Y38431D01*
Y47181D02*
Y48156D01*
Y51731D02*
Y55781D01*
Y56481D02*
Y57506D01*
Y59631D02*
Y60731D01*
Y62581D02*
Y63656D01*
Y65506D02*
Y66606D01*
Y67106D02*
Y68106D01*
Y68731D02*
Y69806D01*
Y71656D02*
Y72756D01*
Y73306D02*
Y74406D01*
Y76256D02*
Y77331D01*
Y79181D02*
Y80281D01*
X102837Y23356D02*
Y24556D01*
Y24981D02*
Y26131D01*
Y35656D02*
Y36781D01*
Y37231D02*
Y38431D01*
Y47181D02*
Y48156D01*
Y51731D02*
Y55781D01*
Y56481D02*
Y57506D01*
Y59631D02*
Y60731D01*
Y62581D02*
Y63656D01*
Y65506D02*
Y66606D01*
Y67106D02*
Y68106D01*
Y68731D02*
Y69806D01*
Y71656D02*
Y72756D01*
Y73306D02*
Y74406D01*
Y76256D02*
Y77331D01*
Y79181D02*
Y80281D01*
X102862Y23356D02*
Y24556D01*
Y25006D02*
Y26131D01*
Y35656D02*
Y36781D01*
Y37231D02*
Y38431D01*
Y47181D02*
Y48156D01*
Y51731D02*
Y55756D01*
Y56481D02*
Y57506D01*
Y59631D02*
Y60731D01*
Y62581D02*
Y63656D01*
Y65506D02*
Y66606D01*
Y67106D02*
Y68106D01*
Y68731D02*
Y69806D01*
Y71656D02*
Y72756D01*
Y73306D02*
Y74406D01*
Y76256D02*
Y77331D01*
Y79181D02*
Y80281D01*
X102887Y23356D02*
Y24531D01*
Y25006D02*
Y26131D01*
Y35656D02*
Y36781D01*
Y37256D02*
Y38431D01*
Y47181D02*
Y48156D01*
Y51731D02*
Y55731D01*
Y56481D02*
Y57506D01*
Y59631D02*
Y60731D01*
Y62581D02*
Y63656D01*
Y65506D02*
Y66606D01*
Y67106D02*
Y68106D01*
Y68731D02*
Y69806D01*
Y71656D02*
Y72756D01*
Y73306D02*
Y74406D01*
Y76256D02*
Y77331D01*
Y79181D02*
Y80281D01*
X102912Y23356D02*
Y24531D01*
Y25031D02*
Y26106D01*
Y35681D02*
Y36756D01*
Y37256D02*
Y38431D01*
Y47181D02*
Y48156D01*
Y51731D02*
Y55681D01*
Y56481D02*
Y57506D01*
Y59631D02*
Y60731D01*
Y62581D02*
Y63656D01*
Y65506D02*
Y66606D01*
Y67106D02*
Y68106D01*
Y68731D02*
Y69806D01*
Y71656D02*
Y72756D01*
Y73306D02*
Y74406D01*
Y76256D02*
Y77331D01*
Y79181D02*
Y80281D01*
X102937Y23356D02*
Y24531D01*
Y25031D02*
Y26106D01*
Y35681D02*
Y36756D01*
Y37256D02*
Y38431D01*
Y47181D02*
Y48156D01*
Y51731D02*
Y55656D01*
Y56481D02*
Y57506D01*
Y59631D02*
Y60731D01*
Y62581D02*
Y63656D01*
Y65506D02*
Y66606D01*
Y67106D02*
Y68106D01*
Y68731D02*
Y69806D01*
Y71656D02*
Y72756D01*
Y73306D02*
Y74406D01*
Y76256D02*
Y77331D01*
Y79181D02*
Y80281D01*
X102962Y23381D02*
Y24531D01*
Y25031D02*
Y26081D01*
Y35706D02*
Y36756D01*
Y37256D02*
Y38406D01*
Y47181D02*
Y48156D01*
Y51731D02*
Y55606D01*
Y56481D02*
Y57506D01*
Y59631D02*
Y60731D01*
Y62581D02*
Y63656D01*
Y65506D02*
Y66606D01*
Y67106D02*
Y68106D01*
Y68731D02*
Y69806D01*
Y71656D02*
Y72756D01*
Y73306D02*
Y74406D01*
Y76256D02*
Y77331D01*
Y79181D02*
Y80281D01*
X102987Y23381D02*
Y24531D01*
Y25056D02*
Y26081D01*
Y35706D02*
Y36731D01*
Y37256D02*
Y38406D01*
Y47181D02*
Y48156D01*
Y51731D02*
Y55556D01*
Y56481D02*
Y57506D01*
Y59631D02*
Y60731D01*
Y62581D02*
Y63656D01*
Y65506D02*
Y66606D01*
Y67106D02*
Y68106D01*
Y68731D02*
Y69806D01*
Y71656D02*
Y72756D01*
Y73306D02*
Y74406D01*
Y76256D02*
Y77331D01*
Y79181D02*
Y80281D01*
X103012Y23381D02*
Y24531D01*
Y25081D02*
Y26056D01*
Y35731D02*
Y36706D01*
Y37256D02*
Y38406D01*
Y47181D02*
Y48156D01*
Y51731D02*
Y55481D01*
Y56481D02*
Y57506D01*
Y59631D02*
Y60731D01*
Y62581D02*
Y63656D01*
Y65506D02*
Y66606D01*
Y67106D02*
Y68106D01*
Y68731D02*
Y69806D01*
Y71656D02*
Y72756D01*
Y73306D02*
Y74406D01*
Y76256D02*
Y77331D01*
Y79181D02*
Y80281D01*
X103037Y23381D02*
Y24506D01*
Y25081D02*
Y26031D01*
Y35756D02*
Y36706D01*
Y37281D02*
Y38406D01*
Y47181D02*
Y48156D01*
Y51731D02*
Y52881D01*
Y56481D02*
Y57506D01*
Y59631D02*
Y60731D01*
Y62581D02*
Y63656D01*
Y65506D02*
Y66606D01*
Y67106D02*
Y68106D01*
Y68731D02*
Y69806D01*
Y71656D02*
Y72756D01*
Y73306D02*
Y74406D01*
Y76256D02*
Y77331D01*
Y79181D02*
Y80281D01*
X103062Y23406D02*
Y24506D01*
Y25106D02*
Y26031D01*
Y35756D02*
Y36681D01*
Y37281D02*
Y38381D01*
Y47181D02*
Y48156D01*
Y51731D02*
Y52881D01*
Y56481D02*
Y57506D01*
Y59631D02*
Y60731D01*
Y62581D02*
Y63656D01*
Y65506D02*
Y66606D01*
Y67106D02*
Y68106D01*
Y68731D02*
Y69806D01*
Y71656D02*
Y72756D01*
Y73306D02*
Y74406D01*
Y76256D02*
Y77331D01*
Y79181D02*
Y80281D01*
X103087Y23406D02*
Y24506D01*
Y25131D02*
Y26006D01*
Y35781D02*
Y36656D01*
Y37281D02*
Y38381D01*
Y47181D02*
Y48156D01*
Y51731D02*
Y52881D01*
Y56481D02*
Y57506D01*
Y59631D02*
Y60731D01*
Y62581D02*
Y63656D01*
Y65506D02*
Y66606D01*
Y67106D02*
Y68106D01*
Y68731D02*
Y69806D01*
Y71656D02*
Y72756D01*
Y73306D02*
Y74406D01*
Y76256D02*
Y77331D01*
Y79181D02*
Y80281D01*
X103112Y23431D02*
Y24481D01*
Y25156D02*
Y25981D01*
Y35806D02*
Y36631D01*
Y37306D02*
Y38356D01*
Y47181D02*
Y48156D01*
Y51731D02*
Y52881D01*
Y56481D02*
Y57506D01*
Y59631D02*
Y60731D01*
Y62581D02*
Y63656D01*
Y65506D02*
Y66606D01*
Y67106D02*
Y68106D01*
Y68731D02*
Y69806D01*
Y71656D02*
Y72756D01*
Y73306D02*
Y74406D01*
Y76256D02*
Y77331D01*
Y79181D02*
Y80281D01*
X103137Y23431D02*
Y24481D01*
Y25181D02*
Y25956D01*
Y35831D02*
Y36606D01*
Y37306D02*
Y38356D01*
Y47181D02*
Y48156D01*
Y51731D02*
Y52881D01*
Y56481D02*
Y57506D01*
Y59631D02*
Y60731D01*
Y62581D02*
Y63656D01*
Y65506D02*
Y66606D01*
Y67106D02*
Y68106D01*
Y68731D02*
Y69806D01*
Y71656D02*
Y72731D01*
Y73306D02*
Y74406D01*
Y76256D02*
Y77331D01*
Y79181D02*
Y80281D01*
X103162Y23456D02*
Y24456D01*
Y25206D02*
Y25906D01*
Y35881D02*
Y36581D01*
Y37331D02*
Y38331D01*
Y47181D02*
Y48156D01*
Y51731D02*
Y52856D01*
Y56481D02*
Y57506D01*
Y59631D02*
Y60731D01*
Y62581D02*
Y63656D01*
Y65506D02*
Y66606D01*
Y67106D02*
Y68106D01*
Y68731D02*
Y69831D01*
Y71656D02*
Y72731D01*
Y73306D02*
Y74406D01*
Y76256D02*
Y77331D01*
Y79181D02*
Y80281D01*
X103187Y23456D02*
Y24431D01*
Y25256D02*
Y25881D01*
Y35906D02*
Y36531D01*
Y37356D02*
Y38331D01*
Y47181D02*
Y48156D01*
Y51731D02*
Y52856D01*
Y56481D02*
Y57506D01*
Y59631D02*
Y60731D01*
Y62581D02*
Y63656D01*
Y65506D02*
Y66606D01*
Y67106D02*
Y68106D01*
Y68731D02*
Y69831D01*
Y71656D02*
Y72731D01*
Y73306D02*
Y74406D01*
Y76256D02*
Y77331D01*
Y79181D02*
Y80281D01*
X103212Y23481D02*
Y24431D01*
Y25306D02*
Y25831D01*
Y30731D02*
Y31056D01*
Y35956D02*
Y36481D01*
Y37356D02*
Y38306D01*
Y47181D02*
Y48156D01*
Y51731D02*
Y52856D01*
Y56481D02*
Y57506D01*
Y59631D02*
Y60731D01*
Y62581D02*
Y63656D01*
Y65506D02*
Y66606D01*
Y67106D02*
Y68106D01*
Y68731D02*
Y69831D01*
Y71631D02*
Y72731D01*
Y73306D02*
Y74406D01*
Y76256D02*
Y77331D01*
Y79181D02*
Y80281D01*
X103237Y23506D02*
Y24406D01*
Y25356D02*
Y25781D01*
Y30656D02*
Y31131D01*
Y36006D02*
Y36431D01*
Y37381D02*
Y38281D01*
Y47181D02*
Y48156D01*
Y51756D02*
Y52856D01*
Y56481D02*
Y57506D01*
Y59631D02*
Y60731D01*
Y62581D02*
Y63656D01*
Y65506D02*
Y66606D01*
Y67106D02*
Y68106D01*
Y68731D02*
Y69831D01*
Y71631D02*
Y72731D01*
Y73306D02*
Y74406D01*
Y76256D02*
Y77331D01*
Y79181D02*
Y80281D01*
X103262Y23531D02*
Y24381D01*
Y25431D02*
Y25681D01*
Y30606D02*
Y31181D01*
Y36081D02*
Y36356D01*
Y37406D02*
Y38256D01*
Y47181D02*
Y48156D01*
Y51756D02*
Y52881D01*
Y56481D02*
Y57506D01*
Y59631D02*
Y60731D01*
Y62581D02*
Y63656D01*
Y65506D02*
Y66606D01*
Y67106D02*
Y68106D01*
Y68731D02*
Y69831D01*
Y71631D02*
Y72731D01*
Y73306D02*
Y74406D01*
Y76256D02*
Y77331D01*
Y79181D02*
Y80281D01*
X103287Y23556D02*
Y24356D01*
Y30556D02*
Y31231D01*
Y37431D02*
Y38231D01*
Y47181D02*
Y48156D01*
Y51756D02*
Y52881D01*
Y56481D02*
Y57506D01*
Y59631D02*
Y60731D01*
Y62581D02*
Y63656D01*
Y65506D02*
Y66606D01*
Y67106D02*
Y68106D01*
Y68756D02*
Y69856D01*
Y71631D02*
Y72731D01*
Y73306D02*
Y74406D01*
Y76256D02*
Y77331D01*
Y79181D02*
Y80281D01*
X103312Y23581D02*
Y24331D01*
Y30531D02*
Y31256D01*
Y37456D02*
Y38206D01*
Y47181D02*
Y48156D01*
Y51756D02*
Y52881D01*
Y56481D02*
Y57506D01*
Y59631D02*
Y60731D01*
Y62581D02*
Y63656D01*
Y65506D02*
Y66606D01*
Y67106D02*
Y68106D01*
Y68756D02*
Y69856D01*
Y71606D02*
Y72731D01*
Y73306D02*
Y74406D01*
Y76256D02*
Y77331D01*
Y79181D02*
Y80281D01*
X103337Y23606D02*
Y24281D01*
Y30506D02*
Y31281D01*
Y37506D02*
Y38181D01*
Y47181D02*
Y48156D01*
Y51756D02*
Y52881D01*
Y56481D02*
Y57506D01*
Y59631D02*
Y60731D01*
Y62581D02*
Y63656D01*
Y65506D02*
Y66606D01*
Y67106D02*
Y68106D01*
Y68756D02*
Y69856D01*
Y71606D02*
Y72706D01*
Y73306D02*
Y74406D01*
Y76256D02*
Y77331D01*
Y79181D02*
Y80281D01*
X103362Y22881D02*
Y23156D01*
Y23656D02*
Y24256D01*
Y30481D02*
Y31306D01*
Y37531D02*
Y38131D01*
Y38631D02*
Y38906D01*
Y47181D02*
Y48156D01*
Y51781D02*
Y52881D01*
Y56481D02*
Y57506D01*
Y59631D02*
Y60731D01*
Y62581D02*
Y63656D01*
Y65506D02*
Y66606D01*
Y67106D02*
Y68106D01*
Y68756D02*
Y69881D01*
Y71606D02*
Y72706D01*
Y73306D02*
Y74406D01*
Y76256D02*
Y77331D01*
Y79181D02*
Y80281D01*
X103387Y22806D02*
Y23231D01*
Y23706D02*
Y24206D01*
Y30456D02*
Y31331D01*
Y37581D02*
Y38081D01*
Y38556D02*
Y38981D01*
Y47181D02*
Y48156D01*
Y51781D02*
Y52881D01*
Y56481D02*
Y57506D01*
Y59631D02*
Y60731D01*
Y62581D02*
Y63656D01*
Y65506D02*
Y66606D01*
Y67106D02*
Y68106D01*
Y68756D02*
Y69881D01*
Y71581D02*
Y72706D01*
Y73306D02*
Y74406D01*
Y76256D02*
Y77331D01*
Y79181D02*
Y80281D01*
X103412Y22756D02*
Y23281D01*
Y23756D02*
Y24131D01*
Y30431D02*
Y31356D01*
Y37656D02*
Y38031D01*
Y38506D02*
Y39031D01*
Y47181D02*
Y48156D01*
Y51781D02*
Y52881D01*
Y56481D02*
Y57506D01*
Y59631D02*
Y60731D01*
Y62581D02*
Y63656D01*
Y65506D02*
Y66606D01*
Y67106D02*
Y68106D01*
Y68756D02*
Y69881D01*
Y71581D02*
Y72706D01*
Y73306D02*
Y74406D01*
Y76256D02*
Y77331D01*
Y79181D02*
Y80281D01*
X103437Y22706D02*
Y23331D01*
Y23881D02*
Y24031D01*
Y30406D02*
Y31381D01*
Y37756D02*
Y37906D01*
Y38456D02*
Y39081D01*
Y47181D02*
Y48156D01*
Y51781D02*
Y52906D01*
Y56481D02*
Y57506D01*
Y59631D02*
Y60731D01*
Y62581D02*
Y63656D01*
Y65506D02*
Y66606D01*
Y67106D02*
Y68106D01*
Y68781D02*
Y69906D01*
Y71581D02*
Y72706D01*
Y73306D02*
Y74406D01*
Y76256D02*
Y77331D01*
Y79181D02*
Y80281D01*
X103462Y22656D02*
Y23356D01*
Y30406D02*
Y31381D01*
Y38431D02*
Y39131D01*
Y47181D02*
Y48156D01*
Y51806D02*
Y52906D01*
Y56481D02*
Y57506D01*
Y59631D02*
Y60731D01*
Y62581D02*
Y63656D01*
Y65506D02*
Y66606D01*
Y67106D02*
Y68106D01*
Y68781D02*
Y69906D01*
Y71556D02*
Y72681D01*
Y73306D02*
Y74406D01*
Y76256D02*
Y77331D01*
Y79181D02*
Y80281D01*
X103487Y22631D02*
Y23406D01*
Y30381D02*
Y31406D01*
Y38381D02*
Y39156D01*
Y47181D02*
Y48156D01*
Y51806D02*
Y52906D01*
Y56481D02*
Y57506D01*
Y59631D02*
Y60731D01*
Y62581D02*
Y63656D01*
Y65506D02*
Y66606D01*
Y67106D02*
Y68106D01*
Y68781D02*
Y69931D01*
Y71531D02*
Y72681D01*
Y73306D02*
Y74406D01*
Y76256D02*
Y77331D01*
Y79181D02*
Y80281D01*
X103512Y22606D02*
Y23431D01*
Y30356D02*
Y31431D01*
Y38356D02*
Y39181D01*
Y47181D02*
Y48156D01*
Y51806D02*
Y52931D01*
Y56481D02*
Y57506D01*
Y59631D02*
Y60731D01*
Y62581D02*
Y63656D01*
Y65506D02*
Y66606D01*
Y67106D02*
Y68106D01*
Y68781D02*
Y69931D01*
Y71531D02*
Y72681D01*
Y73306D02*
Y74406D01*
Y76256D02*
Y77331D01*
Y79181D02*
Y80281D01*
X103537Y22581D02*
Y23456D01*
Y24881D02*
Y25106D01*
Y30356D02*
Y31431D01*
Y36681D02*
Y36906D01*
Y38331D02*
Y39206D01*
Y47181D02*
Y48156D01*
Y51806D02*
Y52931D01*
Y56481D02*
Y57506D01*
Y59631D02*
Y60731D01*
Y62581D02*
Y63656D01*
Y65506D02*
Y66606D01*
Y67106D02*
Y68106D01*
Y68806D02*
Y69956D01*
Y71506D02*
Y72681D01*
Y73306D02*
Y74406D01*
Y76256D02*
Y77331D01*
Y79181D02*
Y80281D01*
X103562Y22556D02*
Y23481D01*
Y24781D02*
Y25206D01*
Y30331D02*
Y31431D01*
Y36581D02*
Y37006D01*
Y38306D02*
Y39231D01*
Y47181D02*
Y48156D01*
Y51831D02*
Y52931D01*
Y56481D02*
Y57506D01*
Y59631D02*
Y60731D01*
Y62581D02*
Y63656D01*
Y65506D02*
Y66606D01*
Y67106D02*
Y68106D01*
Y68806D02*
Y69981D01*
Y71506D02*
Y72656D01*
Y73306D02*
Y74406D01*
Y76256D02*
Y77331D01*
Y79181D02*
Y80281D01*
X103587Y22531D02*
Y23481D01*
Y24731D02*
Y25256D01*
Y30331D02*
Y31456D01*
Y36531D02*
Y37056D01*
Y38306D02*
Y39256D01*
Y47181D02*
Y48156D01*
Y51831D02*
Y52956D01*
Y56481D02*
Y57506D01*
Y59631D02*
Y60731D01*
Y62581D02*
Y63656D01*
Y65506D02*
Y66606D01*
Y67106D02*
Y68106D01*
Y68806D02*
Y69981D01*
Y71481D02*
Y72656D01*
Y73306D02*
Y74406D01*
Y76256D02*
Y77331D01*
Y79181D02*
Y80281D01*
X103612Y22531D02*
Y23506D01*
Y24681D02*
Y25306D01*
Y30331D02*
Y31456D01*
Y36481D02*
Y37106D01*
Y38281D02*
Y39256D01*
Y47181D02*
Y48156D01*
Y51831D02*
Y52956D01*
Y56481D02*
Y57506D01*
Y59631D02*
Y60731D01*
Y62581D02*
Y63656D01*
Y65506D02*
Y66606D01*
Y67106D02*
Y68106D01*
Y68831D02*
Y70006D01*
Y71456D02*
Y72656D01*
Y73306D02*
Y74406D01*
Y76256D02*
Y77331D01*
Y79181D02*
Y80281D01*
X103637Y22506D02*
Y23531D01*
Y24656D02*
Y25331D01*
Y30331D02*
Y31456D01*
Y36456D02*
Y37131D01*
Y38256D02*
Y39281D01*
Y47181D02*
Y48156D01*
Y51856D02*
Y52981D01*
Y56481D02*
Y57506D01*
Y59631D02*
Y60731D01*
Y62581D02*
Y63656D01*
Y65506D02*
Y66606D01*
Y67106D02*
Y68106D01*
Y68831D02*
Y70031D01*
Y71431D02*
Y72631D01*
Y73306D02*
Y74406D01*
Y76256D02*
Y77331D01*
Y79181D02*
Y80281D01*
X103662Y22481D02*
Y23531D01*
Y24606D02*
Y25381D01*
Y27281D02*
Y27556D01*
Y30306D02*
Y31481D01*
Y34231D02*
Y34506D01*
Y36406D02*
Y37181D01*
Y38256D02*
Y39306D01*
Y47181D02*
Y48156D01*
Y51856D02*
Y52981D01*
Y56481D02*
Y57506D01*
Y59631D02*
Y60731D01*
Y62581D02*
Y63656D01*
Y65506D02*
Y66606D01*
Y67106D02*
Y68106D01*
Y68831D02*
Y70056D01*
Y71406D02*
Y72631D01*
Y73306D02*
Y74406D01*
Y76256D02*
Y77331D01*
Y79181D02*
Y80281D01*
X103687Y22481D02*
Y23556D01*
Y24581D02*
Y25406D01*
Y27206D02*
Y27631D01*
Y30306D02*
Y31481D01*
Y34156D02*
Y34581D01*
Y36381D02*
Y37206D01*
Y38231D02*
Y39306D01*
Y47181D02*
Y48156D01*
Y51856D02*
Y53006D01*
Y56481D02*
Y57506D01*
Y59631D02*
Y60731D01*
Y62581D02*
Y63656D01*
Y65506D02*
Y66606D01*
Y67106D02*
Y68106D01*
Y68856D02*
Y70081D01*
Y71406D02*
Y72631D01*
Y73306D02*
Y74406D01*
Y76256D02*
Y77331D01*
Y79181D02*
Y80281D01*
X103712Y22456D02*
Y23556D01*
Y24556D02*
Y25431D01*
Y27156D02*
Y27681D01*
Y30306D02*
Y31481D01*
Y34106D02*
Y34631D01*
Y36356D02*
Y37231D01*
Y38231D02*
Y39331D01*
Y47181D02*
Y48156D01*
Y51881D02*
Y53006D01*
Y56481D02*
Y57506D01*
Y59631D02*
Y60731D01*
Y62581D02*
Y63656D01*
Y65506D02*
Y66606D01*
Y67106D02*
Y68106D01*
Y68856D02*
Y70106D01*
Y71381D02*
Y72606D01*
Y73306D02*
Y74406D01*
Y76256D02*
Y77331D01*
Y79181D02*
Y80281D01*
X103737Y22456D02*
Y23581D01*
Y24531D02*
Y25456D01*
Y27106D02*
Y27731D01*
Y30306D02*
Y31481D01*
Y34056D02*
Y34681D01*
Y36331D02*
Y37256D01*
Y38206D02*
Y39331D01*
Y47181D02*
Y48156D01*
Y51881D02*
Y53031D01*
Y56481D02*
Y57506D01*
Y59631D02*
Y60731D01*
Y62581D02*
Y63656D01*
Y65506D02*
Y66606D01*
Y67106D02*
Y68106D01*
Y68856D02*
Y70131D01*
Y71331D02*
Y72606D01*
Y73306D02*
Y74406D01*
Y76256D02*
Y77331D01*
Y79181D02*
Y80281D01*
X103762Y22456D02*
Y23581D01*
Y24506D02*
Y25456D01*
Y27056D02*
Y27756D01*
Y30306D02*
Y31481D01*
Y34031D02*
Y34731D01*
Y36331D02*
Y37281D01*
Y38206D02*
Y39331D01*
Y47181D02*
Y48156D01*
Y51906D02*
Y53056D01*
Y54631D02*
Y55781D01*
Y56481D02*
Y57506D01*
Y59631D02*
Y60731D01*
Y62581D02*
Y63656D01*
Y65506D02*
Y66606D01*
Y67106D02*
Y68106D01*
Y68881D02*
Y70156D01*
Y71306D02*
Y72581D01*
Y73306D02*
Y74406D01*
Y76256D02*
Y77331D01*
Y79181D02*
Y80281D01*
X103787Y22431D02*
Y23581D01*
Y24506D02*
Y25481D01*
Y27031D02*
Y27806D01*
Y30306D02*
Y31481D01*
Y33981D02*
Y34756D01*
Y36306D02*
Y37281D01*
Y38206D02*
Y39356D01*
Y47181D02*
Y48156D01*
Y51906D02*
Y53056D01*
Y54606D02*
Y55781D01*
Y56481D02*
Y57506D01*
Y59631D02*
Y60731D01*
Y62581D02*
Y63656D01*
Y65506D02*
Y66606D01*
Y67106D02*
Y68106D01*
Y68881D02*
Y70181D01*
Y71281D02*
Y72581D01*
Y73306D02*
Y74406D01*
Y76256D02*
Y77331D01*
Y79181D02*
Y80281D01*
X103812Y22431D02*
Y23581D01*
Y24481D02*
Y25506D01*
Y27006D02*
Y27831D01*
Y30306D02*
Y31481D01*
Y33956D02*
Y34781D01*
Y36281D02*
Y37306D01*
Y38206D02*
Y39356D01*
Y47181D02*
Y48156D01*
Y51931D02*
Y53081D01*
Y54581D02*
Y55756D01*
Y56481D02*
Y57506D01*
Y59631D02*
Y60731D01*
Y62581D02*
Y63656D01*
Y65506D02*
Y66606D01*
Y67106D02*
Y68106D01*
Y68906D02*
Y70231D01*
Y71231D02*
Y72581D01*
Y73306D02*
Y74406D01*
Y76256D02*
Y77331D01*
Y79181D02*
Y80281D01*
X103837Y22431D02*
Y23606D01*
Y24481D02*
Y25506D01*
Y26981D02*
Y27856D01*
Y30306D02*
Y31481D01*
Y33931D02*
Y34806D01*
Y36281D02*
Y37306D01*
Y38181D02*
Y39356D01*
Y47181D02*
Y48156D01*
Y51931D02*
Y53106D01*
Y54581D02*
Y55756D01*
Y56481D02*
Y57506D01*
Y59631D02*
Y60731D01*
Y62581D02*
Y63656D01*
Y65506D02*
Y66606D01*
Y67106D02*
Y68106D01*
Y68906D02*
Y70256D01*
Y71206D02*
Y72556D01*
Y73306D02*
Y74406D01*
Y76256D02*
Y77331D01*
Y79181D02*
Y80281D01*
X103862Y22431D02*
Y23606D01*
Y24456D02*
Y25531D01*
Y26956D02*
Y27881D01*
Y30306D02*
Y31481D01*
Y33906D02*
Y34831D01*
Y36256D02*
Y37331D01*
Y38181D02*
Y39356D01*
Y47181D02*
Y48156D01*
Y51956D02*
Y53131D01*
Y54556D02*
Y55731D01*
Y56481D02*
Y57506D01*
Y59631D02*
Y60731D01*
Y62581D02*
Y63656D01*
Y65506D02*
Y66606D01*
Y67106D02*
Y68106D01*
Y68931D02*
Y70306D01*
Y71156D02*
Y72556D01*
Y73306D02*
Y74406D01*
Y76256D02*
Y77331D01*
Y79181D02*
Y80281D01*
X103887Y22431D02*
Y23606D01*
Y24456D02*
Y25531D01*
Y26931D02*
Y27881D01*
Y30306D02*
Y31481D01*
Y33906D02*
Y34856D01*
Y36256D02*
Y37331D01*
Y38181D02*
Y39356D01*
Y47181D02*
Y48156D01*
Y51956D02*
Y53156D01*
Y54531D02*
Y55731D01*
Y56481D02*
Y57506D01*
Y59631D02*
Y60731D01*
Y62581D02*
Y63656D01*
Y65506D02*
Y66606D01*
Y67106D02*
Y68106D01*
Y68931D02*
Y70356D01*
Y71106D02*
Y72531D01*
Y73306D02*
Y74406D01*
Y76256D02*
Y77331D01*
Y79181D02*
Y80281D01*
X103912Y22431D02*
Y23606D01*
Y24431D02*
Y25556D01*
Y26931D02*
Y27906D01*
Y30306D02*
Y31481D01*
Y33881D02*
Y34856D01*
Y36231D02*
Y37356D01*
Y38181D02*
Y39356D01*
Y47181D02*
Y48156D01*
Y51981D02*
Y53181D01*
Y54506D02*
Y55706D01*
Y56481D02*
Y57506D01*
Y59631D02*
Y60731D01*
Y62581D02*
Y63656D01*
Y65506D02*
Y66606D01*
Y67106D02*
Y68106D01*
Y68956D02*
Y70431D01*
Y71031D02*
Y72531D01*
Y73306D02*
Y74406D01*
Y76256D02*
Y77331D01*
Y79181D02*
Y80281D01*
X103937Y22431D02*
Y23606D01*
Y24431D02*
Y25556D01*
Y26906D02*
Y27931D01*
Y30331D02*
Y31456D01*
Y33856D02*
Y34881D01*
Y36231D02*
Y37356D01*
Y38181D02*
Y39356D01*
Y47181D02*
Y48156D01*
Y51981D02*
Y53206D01*
Y54481D02*
Y55681D01*
Y56481D02*
Y57506D01*
Y59631D02*
Y60731D01*
Y62581D02*
Y63656D01*
Y65506D02*
Y66606D01*
Y67106D02*
Y68106D01*
Y68956D02*
Y70506D01*
Y70956D02*
Y72506D01*
Y73306D02*
Y74406D01*
Y76256D02*
Y77331D01*
Y79181D02*
Y80281D01*
X103962Y22431D02*
Y23606D01*
Y24431D02*
Y25556D01*
Y26881D02*
Y27931D01*
Y30331D02*
Y31456D01*
Y33856D02*
Y34906D01*
Y36231D02*
Y37356D01*
Y38181D02*
Y39356D01*
Y47181D02*
Y48156D01*
Y52006D02*
Y53231D01*
Y54431D02*
Y55681D01*
Y56481D02*
Y57506D01*
Y59631D02*
Y60731D01*
Y62581D02*
Y63656D01*
Y65506D02*
Y66606D01*
Y67106D02*
Y68106D01*
Y68981D02*
Y70681D01*
Y70806D02*
Y72506D01*
Y73306D02*
Y74406D01*
Y76256D02*
Y77331D01*
Y79181D02*
Y80281D01*
X103987Y22431D02*
Y23606D01*
Y24406D02*
Y25556D01*
Y26881D02*
Y27956D01*
Y30331D02*
Y31456D01*
Y33831D02*
Y34906D01*
Y36231D02*
Y37381D01*
Y38181D02*
Y39356D01*
Y47181D02*
Y48156D01*
Y52006D02*
Y53281D01*
Y54406D02*
Y55656D01*
Y56481D02*
Y57506D01*
Y59631D02*
Y60731D01*
Y62581D02*
Y63656D01*
Y65506D02*
Y66606D01*
Y67106D02*
Y68106D01*
Y68981D02*
Y72481D01*
Y73306D02*
Y74406D01*
Y76256D02*
Y77331D01*
Y79181D02*
Y80281D01*
X104012Y22431D02*
Y23606D01*
Y24406D02*
Y25581D01*
Y26856D02*
Y27956D01*
Y30356D02*
Y31431D01*
Y33831D02*
Y34906D01*
Y36206D02*
Y37381D01*
Y38181D02*
Y39356D01*
Y47181D02*
Y48156D01*
Y52031D02*
Y53306D01*
Y54381D02*
Y55656D01*
Y56481D02*
Y57506D01*
Y59631D02*
Y60731D01*
Y62581D02*
Y63656D01*
Y65506D02*
Y66606D01*
Y67106D02*
Y68106D01*
Y69006D02*
Y72456D01*
Y73306D02*
Y74406D01*
Y76256D02*
Y77331D01*
Y79181D02*
Y80281D01*
X104037Y22431D02*
Y23606D01*
Y24406D02*
Y25581D01*
Y26856D02*
Y27981D01*
Y30356D02*
Y31431D01*
Y33806D02*
Y34931D01*
Y36206D02*
Y37381D01*
Y38181D02*
Y39356D01*
Y47181D02*
Y48156D01*
Y52056D02*
Y53356D01*
Y54331D02*
Y55631D01*
Y56481D02*
Y57506D01*
Y59631D02*
Y60731D01*
Y62581D02*
Y63656D01*
Y65506D02*
Y66606D01*
Y67106D02*
Y68106D01*
Y69031D02*
Y72456D01*
Y73306D02*
Y74406D01*
Y76256D02*
Y77331D01*
Y79181D02*
Y80281D01*
X104062Y22431D02*
Y23581D01*
Y24406D02*
Y25581D01*
Y26856D02*
Y27981D01*
Y30381D02*
Y31406D01*
Y33806D02*
Y34931D01*
Y36206D02*
Y37381D01*
Y38181D02*
Y39356D01*
Y47181D02*
Y48156D01*
Y52056D02*
Y53406D01*
Y54281D02*
Y55606D01*
Y56481D02*
Y57506D01*
Y59631D02*
Y60731D01*
Y62581D02*
Y63656D01*
Y65531D02*
Y66606D01*
Y67106D02*
Y68106D01*
Y69031D02*
Y72431D01*
Y73306D02*
Y74406D01*
Y76256D02*
Y77331D01*
Y79181D02*
Y80281D01*
X104087Y22431D02*
Y23581D01*
Y24406D02*
Y25581D01*
Y26831D02*
Y27981D01*
Y30381D02*
Y31406D01*
Y33806D02*
Y34931D01*
Y36206D02*
Y37381D01*
Y38206D02*
Y39356D01*
Y47181D02*
Y48156D01*
Y52081D02*
Y53456D01*
Y54231D02*
Y55606D01*
Y56481D02*
Y57506D01*
Y59631D02*
Y60731D01*
Y62581D02*
Y63656D01*
Y65531D02*
Y66606D01*
Y67106D02*
Y68106D01*
Y69056D02*
Y72431D01*
Y73306D02*
Y74406D01*
Y76256D02*
Y77331D01*
Y79181D02*
Y80281D01*
X104112Y22456D02*
Y23581D01*
Y24406D02*
Y25581D01*
Y26831D02*
Y27981D01*
Y30406D02*
Y31381D01*
Y33781D02*
Y34956D01*
Y36206D02*
Y37381D01*
Y38206D02*
Y39331D01*
Y47181D02*
Y48156D01*
Y52106D02*
Y53506D01*
Y54156D02*
Y55581D01*
Y56481D02*
Y57506D01*
Y59631D02*
Y60731D01*
Y62581D02*
Y63656D01*
Y65531D02*
Y66606D01*
Y67106D02*
Y68106D01*
Y69056D02*
Y72406D01*
Y73306D02*
Y74406D01*
Y76256D02*
Y77331D01*
Y79206D02*
Y80281D01*
X104137Y22456D02*
Y23581D01*
Y24406D02*
Y25581D01*
Y26831D02*
Y28006D01*
Y30431D02*
Y31356D01*
Y33781D02*
Y34956D01*
Y36206D02*
Y37381D01*
Y38206D02*
Y39331D01*
Y47181D02*
Y48156D01*
Y52106D02*
Y53581D01*
Y54081D02*
Y55556D01*
Y56481D02*
Y57506D01*
Y59631D02*
Y60731D01*
Y62581D02*
Y63656D01*
Y65531D02*
Y66606D01*
Y67106D02*
Y68106D01*
Y69081D02*
Y72381D01*
Y73306D02*
Y74406D01*
Y76256D02*
Y77331D01*
Y79206D02*
Y80281D01*
X104162Y22456D02*
Y23556D01*
Y24406D02*
Y25581D01*
Y26831D02*
Y28006D01*
Y30431D02*
Y31331D01*
Y33781D02*
Y34956D01*
Y36206D02*
Y37381D01*
Y38231D02*
Y39331D01*
Y47181D02*
Y48156D01*
Y52131D02*
Y53731D01*
Y53956D02*
Y55556D01*
Y56481D02*
Y57506D01*
Y59631D02*
Y60731D01*
Y62581D02*
Y63656D01*
Y65531D02*
Y66606D01*
Y67106D02*
Y68106D01*
Y69106D02*
Y72356D01*
Y73306D02*
Y74406D01*
Y76256D02*
Y77331D01*
Y79206D02*
Y80281D01*
X104187Y22481D02*
Y23556D01*
Y24406D02*
Y25581D01*
Y26831D02*
Y28006D01*
Y30456D02*
Y31331D01*
Y33781D02*
Y34956D01*
Y36206D02*
Y37381D01*
Y38231D02*
Y39306D01*
Y47181D02*
Y48156D01*
Y52156D02*
Y55531D01*
Y56481D02*
Y57506D01*
Y59631D02*
Y60731D01*
Y62581D02*
Y63656D01*
Y65531D02*
Y66606D01*
Y67106D02*
Y68106D01*
Y69131D02*
Y72356D01*
Y73306D02*
Y74406D01*
Y76256D02*
Y77331D01*
Y79206D02*
Y80281D01*
X104212Y22481D02*
Y23531D01*
Y24406D02*
Y25581D01*
Y26831D02*
Y28006D01*
Y30481D02*
Y31306D01*
Y33781D02*
Y34956D01*
Y36206D02*
Y37381D01*
Y38256D02*
Y39306D01*
Y47181D02*
Y48156D01*
Y52181D02*
Y55506D01*
Y56481D02*
Y57506D01*
Y59631D02*
Y60731D01*
Y62581D02*
Y63656D01*
Y65556D02*
Y66606D01*
Y67106D02*
Y68106D01*
Y69131D02*
Y72331D01*
Y73306D02*
Y74406D01*
Y76256D02*
Y77331D01*
Y79206D02*
Y80281D01*
X104237Y22506D02*
Y23531D01*
Y24406D02*
Y25581D01*
Y26831D02*
Y28006D01*
Y30531D02*
Y31256D01*
Y33781D02*
Y34956D01*
Y36206D02*
Y37381D01*
Y38256D02*
Y39281D01*
Y47181D02*
Y48156D01*
Y52181D02*
Y55481D01*
Y56481D02*
Y57506D01*
Y59631D02*
Y60731D01*
Y62581D02*
Y63656D01*
Y65556D02*
Y66606D01*
Y67106D02*
Y68106D01*
Y69156D02*
Y72306D01*
Y73306D02*
Y74406D01*
Y76256D02*
Y77331D01*
Y79231D02*
Y80281D01*
X104262Y22531D02*
Y23506D01*
Y24406D02*
Y25556D01*
Y26831D02*
Y28006D01*
Y30556D02*
Y31231D01*
Y33781D02*
Y34956D01*
Y36231D02*
Y37356D01*
Y38281D02*
Y39256D01*
Y47181D02*
Y48156D01*
Y52206D02*
Y55481D01*
Y56481D02*
Y57506D01*
Y59631D02*
Y60731D01*
Y62581D02*
Y63656D01*
Y65556D02*
Y66606D01*
Y67106D02*
Y68106D01*
Y69181D02*
Y72281D01*
Y73306D02*
Y74406D01*
Y76256D02*
Y77331D01*
Y79231D02*
Y80281D01*
X104287Y22531D02*
Y23481D01*
Y24431D02*
Y25556D01*
Y26831D02*
Y28006D01*
Y30581D02*
Y31206D01*
Y33781D02*
Y34956D01*
Y36231D02*
Y37356D01*
Y38306D02*
Y39256D01*
Y47181D02*
Y48156D01*
Y52231D02*
Y55456D01*
Y56481D02*
Y57506D01*
Y59631D02*
Y60731D01*
Y62581D02*
Y63656D01*
Y65581D02*
Y66606D01*
Y67106D02*
Y68106D01*
Y69206D02*
Y72281D01*
Y73306D02*
Y74406D01*
Y76256D02*
Y77331D01*
Y79231D02*
Y80281D01*
X104312Y22556D02*
Y23481D01*
Y24431D02*
Y25556D01*
Y26831D02*
Y28006D01*
Y30631D02*
Y31156D01*
Y33781D02*
Y34956D01*
Y36231D02*
Y37356D01*
Y38306D02*
Y39231D01*
Y47181D02*
Y48156D01*
Y52256D02*
Y55431D01*
Y56481D02*
Y57506D01*
Y59631D02*
Y60731D01*
Y62581D02*
Y63656D01*
Y65581D02*
Y66606D01*
Y67106D02*
Y68106D01*
Y69231D02*
Y72256D01*
Y73306D02*
Y74406D01*
Y76256D02*
Y77331D01*
Y79256D02*
Y80281D01*
X104337Y22581D02*
Y23456D01*
Y24431D02*
Y25531D01*
Y26831D02*
Y28006D01*
Y30706D02*
Y31081D01*
Y33781D02*
Y34956D01*
Y36256D02*
Y37356D01*
Y38331D02*
Y39206D01*
Y47181D02*
Y48156D01*
Y52281D02*
Y55406D01*
Y56481D02*
Y57506D01*
Y59631D02*
Y60731D01*
Y62581D02*
Y63656D01*
Y65581D02*
Y66606D01*
Y67106D02*
Y68106D01*
Y69256D02*
Y72231D01*
Y73306D02*
Y74406D01*
Y76256D02*
Y77331D01*
Y79256D02*
Y80281D01*
X104362Y22606D02*
Y23431D01*
Y24456D02*
Y25531D01*
Y26831D02*
Y28006D01*
Y30806D02*
Y30981D01*
Y33781D02*
Y34956D01*
Y36256D02*
Y37331D01*
Y38356D02*
Y39181D01*
Y47181D02*
Y48156D01*
Y52306D02*
Y55381D01*
Y56481D02*
Y57506D01*
Y59631D02*
Y60731D01*
Y62581D02*
Y63656D01*
Y65606D02*
Y66606D01*
Y67106D02*
Y68106D01*
Y69256D02*
Y72206D01*
Y73306D02*
Y74406D01*
Y76256D02*
Y77331D01*
Y79256D02*
Y80281D01*
X104387Y22631D02*
Y23406D01*
Y24456D02*
Y25506D01*
Y26831D02*
Y27981D01*
Y33806D02*
Y34931D01*
Y36281D02*
Y37331D01*
Y38381D02*
Y39156D01*
Y47181D02*
Y48156D01*
Y52331D02*
Y55356D01*
Y56481D02*
Y57506D01*
Y59631D02*
Y60731D01*
Y62581D02*
Y63656D01*
Y65606D02*
Y66606D01*
Y67106D02*
Y68106D01*
Y69281D02*
Y72181D01*
Y73306D02*
Y74406D01*
Y76256D02*
Y77331D01*
Y79281D02*
Y80281D01*
X104412Y22656D02*
Y23356D01*
Y24481D02*
Y25506D01*
Y26856D02*
Y27981D01*
Y33806D02*
Y34931D01*
Y36281D02*
Y37306D01*
Y38431D02*
Y39131D01*
Y47181D02*
Y48156D01*
Y52356D02*
Y55331D01*
Y56481D02*
Y57506D01*
Y59631D02*
Y60731D01*
Y62581D02*
Y63656D01*
Y65631D02*
Y66606D01*
Y67106D02*
Y68106D01*
Y69306D02*
Y72156D01*
Y73306D02*
Y74406D01*
Y76256D02*
Y77331D01*
Y79281D02*
Y80281D01*
X104437Y22706D02*
Y23331D01*
Y24506D02*
Y25481D01*
Y26856D02*
Y27981D01*
Y33806D02*
Y34931D01*
Y36306D02*
Y37281D01*
Y38456D02*
Y39081D01*
Y47181D02*
Y48156D01*
Y52381D02*
Y55306D01*
Y56481D02*
Y57506D01*
Y59631D02*
Y60731D01*
Y62581D02*
Y63656D01*
Y65631D02*
Y66606D01*
Y67106D02*
Y68106D01*
Y69331D02*
Y72131D01*
Y73306D02*
Y74406D01*
Y76256D02*
Y77331D01*
Y79306D02*
Y80281D01*
X104462Y22731D02*
Y23281D01*
Y24506D02*
Y25481D01*
Y26856D02*
Y27956D01*
Y33831D02*
Y34906D01*
Y36306D02*
Y37281D01*
Y38506D02*
Y39056D01*
Y47181D02*
Y48156D01*
Y52406D02*
Y55281D01*
Y56481D02*
Y57506D01*
Y59631D02*
Y60731D01*
Y62581D02*
Y63656D01*
Y65656D02*
Y66606D01*
Y67106D02*
Y68106D01*
Y69356D02*
Y72106D01*
Y73306D02*
Y74406D01*
Y76256D02*
Y77331D01*
Y79306D02*
Y80281D01*
X104487Y22806D02*
Y23231D01*
Y24531D02*
Y25456D01*
Y26881D02*
Y27956D01*
Y29556D02*
Y29806D01*
Y31981D02*
Y32231D01*
Y33831D02*
Y34906D01*
Y36331D02*
Y37256D01*
Y38556D02*
Y38981D01*
Y47181D02*
Y48156D01*
Y52431D02*
Y55256D01*
Y56481D02*
Y57506D01*
Y59631D02*
Y60731D01*
Y62581D02*
Y63656D01*
Y65656D02*
Y66606D01*
Y67106D02*
Y68106D01*
Y69406D02*
Y72081D01*
Y73306D02*
Y74406D01*
Y76256D02*
Y77331D01*
Y79331D02*
Y80281D01*
X104512Y22881D02*
Y23156D01*
Y24556D02*
Y25431D01*
Y26881D02*
Y27931D01*
Y29481D02*
Y29906D01*
Y31881D02*
Y32306D01*
Y33856D02*
Y34906D01*
Y36356D02*
Y37231D01*
Y38631D02*
Y38906D01*
Y47181D02*
Y48156D01*
Y52456D02*
Y55231D01*
Y56481D02*
Y57506D01*
Y59631D02*
Y60731D01*
Y62581D02*
Y63656D01*
Y65681D02*
Y66606D01*
Y67106D02*
Y68106D01*
Y69431D02*
Y72056D01*
Y73306D02*
Y74406D01*
Y76256D02*
Y77331D01*
Y79356D02*
Y80281D01*
X104537Y24581D02*
Y25406D01*
Y26906D02*
Y27931D01*
Y29406D02*
Y29956D01*
Y31831D02*
Y32381D01*
Y33856D02*
Y34881D01*
Y36381D02*
Y37206D01*
Y47181D02*
Y48156D01*
Y52481D02*
Y55181D01*
Y56481D02*
Y57506D01*
Y59631D02*
Y60731D01*
Y62581D02*
Y63656D01*
Y65706D02*
Y66606D01*
Y67106D02*
Y68106D01*
Y69456D02*
Y72006D01*
Y73306D02*
Y74406D01*
Y76256D02*
Y77331D01*
Y79356D02*
Y80281D01*
X104562Y24606D02*
Y25381D01*
Y26931D02*
Y27906D01*
Y29381D02*
Y30006D01*
Y31781D02*
Y32406D01*
Y33881D02*
Y34856D01*
Y36406D02*
Y37181D01*
Y47181D02*
Y48156D01*
Y52506D02*
Y55156D01*
Y56481D02*
Y57506D01*
Y59631D02*
Y60731D01*
Y62581D02*
Y63656D01*
Y65706D02*
Y66606D01*
Y67106D02*
Y68106D01*
Y69481D02*
Y71981D01*
Y73306D02*
Y74406D01*
Y76256D02*
Y77331D01*
Y79381D02*
Y80281D01*
X104587Y24631D02*
Y25356D01*
Y26081D02*
Y26431D01*
Y26931D02*
Y27881D01*
Y29331D02*
Y30031D01*
Y31756D02*
Y32456D01*
Y33906D02*
Y34856D01*
Y35356D02*
Y35706D01*
Y36431D02*
Y37156D01*
Y47181D02*
Y48156D01*
Y52556D02*
Y55131D01*
Y56481D02*
Y57506D01*
Y59631D02*
Y60731D01*
Y62581D02*
Y63656D01*
Y65731D02*
Y66606D01*
Y67106D02*
Y68106D01*
Y69506D02*
Y71956D01*
Y73306D02*
Y74406D01*
Y76256D02*
Y77331D01*
Y79406D02*
Y80281D01*
X104612Y24681D02*
Y25306D01*
Y26006D02*
Y26481D01*
Y26956D02*
Y27881D01*
Y29306D02*
Y30056D01*
Y31731D02*
Y32481D01*
Y33906D02*
Y34831D01*
Y35281D02*
Y35781D01*
Y36481D02*
Y37106D01*
Y47181D02*
Y48156D01*
Y52581D02*
Y55106D01*
Y56481D02*
Y57506D01*
Y59631D02*
Y60731D01*
Y62581D02*
Y63656D01*
Y65756D02*
Y66606D01*
Y67106D02*
Y68106D01*
Y69556D02*
Y71931D01*
Y73306D02*
Y74406D01*
Y76256D02*
Y77331D01*
Y79406D02*
Y80281D01*
X104637Y24706D02*
Y25281D01*
Y25956D02*
Y26531D01*
Y26981D02*
Y27856D01*
Y29281D02*
Y30106D01*
Y31681D02*
Y32506D01*
Y33931D02*
Y34806D01*
Y35231D02*
Y35831D01*
Y36506D02*
Y37081D01*
Y47181D02*
Y48156D01*
Y52606D02*
Y55056D01*
Y56481D02*
Y57506D01*
Y59631D02*
Y60731D01*
Y62581D02*
Y63656D01*
Y65781D02*
Y66606D01*
Y67106D02*
Y68106D01*
Y69581D02*
Y71881D01*
Y73306D02*
Y74406D01*
Y76256D02*
Y77331D01*
Y79431D02*
Y80281D01*
X104662Y24756D02*
Y25206D01*
Y25931D02*
Y26581D01*
Y27006D02*
Y27831D01*
Y29256D02*
Y30131D01*
Y31656D02*
Y32531D01*
Y33956D02*
Y34781D01*
Y35206D02*
Y35856D01*
Y36581D02*
Y37031D01*
Y47181D02*
Y48156D01*
Y52656D02*
Y55031D01*
Y56481D02*
Y57506D01*
Y59631D02*
Y60731D01*
Y62581D02*
Y63656D01*
Y65806D02*
Y66606D01*
Y67106D02*
Y68106D01*
Y69631D02*
Y71856D01*
Y73306D02*
Y74406D01*
Y76256D02*
Y77331D01*
Y79456D02*
Y80281D01*
X104687Y24831D02*
Y25131D01*
Y25881D02*
Y26631D01*
Y27031D02*
Y27806D01*
Y29231D02*
Y30131D01*
Y31656D02*
Y32556D01*
Y33981D02*
Y34756D01*
Y35156D02*
Y35906D01*
Y36631D02*
Y36956D01*
Y47181D02*
Y48156D01*
Y52681D02*
Y54981D01*
Y56481D02*
Y57506D01*
Y59631D02*
Y60731D01*
Y62581D02*
Y63656D01*
Y65806D02*
Y66606D01*
Y67106D02*
Y68106D01*
Y69656D02*
Y71806D01*
Y73306D02*
Y74406D01*
Y76256D02*
Y77331D01*
Y79481D02*
Y80281D01*
X104712Y25856D02*
Y26656D01*
Y27056D02*
Y27781D01*
Y29206D02*
Y30156D01*
Y31631D02*
Y32581D01*
Y34006D02*
Y34731D01*
Y35131D02*
Y35931D01*
Y47181D02*
Y48156D01*
Y52731D02*
Y54956D01*
Y56481D02*
Y57506D01*
Y59631D02*
Y60731D01*
Y62581D02*
Y63656D01*
Y65831D02*
Y66606D01*
Y67106D02*
Y68106D01*
Y69706D02*
Y71781D01*
Y73306D02*
Y74406D01*
Y76256D02*
Y77331D01*
Y79506D02*
Y80281D01*
X104737Y25831D02*
Y26681D01*
Y27106D02*
Y27731D01*
Y29181D02*
Y30181D01*
Y31606D02*
Y32606D01*
Y34056D02*
Y34681D01*
Y35106D02*
Y35956D01*
Y47181D02*
Y48156D01*
Y52781D02*
Y54906D01*
Y56481D02*
Y57506D01*
Y59631D02*
Y60731D01*
Y62581D02*
Y63656D01*
Y65881D02*
Y66606D01*
Y67106D02*
Y68106D01*
Y69756D02*
Y71731D01*
Y73306D02*
Y74406D01*
Y76256D02*
Y77331D01*
Y79531D02*
Y80281D01*
X104762Y25806D02*
Y26706D01*
Y27131D02*
Y27681D01*
Y29181D02*
Y30206D01*
Y31581D02*
Y32606D01*
Y34106D02*
Y34656D01*
Y35081D02*
Y35981D01*
Y47181D02*
Y48156D01*
Y52806D02*
Y54856D01*
Y56481D02*
Y57506D01*
Y59631D02*
Y60731D01*
Y62581D02*
Y63656D01*
Y65906D02*
Y66606D01*
Y67106D02*
Y68106D01*
Y69781D02*
Y71681D01*
Y73306D02*
Y74406D01*
Y76256D02*
Y77331D01*
Y79556D02*
Y80281D01*
X104787Y25781D02*
Y26731D01*
Y27206D02*
Y27631D01*
Y29156D02*
Y30206D01*
Y31581D02*
Y32631D01*
Y34156D02*
Y34581D01*
Y35056D02*
Y36006D01*
Y47181D02*
Y48156D01*
Y52856D02*
Y54806D01*
Y56481D02*
Y57506D01*
Y59631D02*
Y60731D01*
Y62581D02*
Y63656D01*
Y65931D02*
Y66606D01*
Y67106D02*
Y68106D01*
Y69831D02*
Y71631D01*
Y73306D02*
Y74406D01*
Y76256D02*
Y77331D01*
Y79606D02*
Y80281D01*
X104812Y25781D02*
Y26731D01*
Y27281D02*
Y27556D01*
Y29156D02*
Y30231D01*
Y31556D02*
Y32631D01*
Y34231D02*
Y34506D01*
Y35056D02*
Y36006D01*
Y47181D02*
Y48156D01*
Y52906D02*
Y54756D01*
Y56481D02*
Y57506D01*
Y59631D02*
Y60731D01*
Y62581D02*
Y63656D01*
Y65956D02*
Y66606D01*
Y67106D02*
Y68106D01*
Y69881D02*
Y71581D01*
Y73306D02*
Y74406D01*
Y76256D02*
Y77331D01*
Y79631D02*
Y80281D01*
X104837Y25756D02*
Y26756D01*
Y29131D02*
Y30231D01*
Y31556D02*
Y32656D01*
Y35031D02*
Y36031D01*
Y47181D02*
Y48156D01*
Y52956D02*
Y54706D01*
Y56481D02*
Y57506D01*
Y59631D02*
Y60731D01*
Y62581D02*
Y63656D01*
Y66006D02*
Y66606D01*
Y67106D02*
Y68106D01*
Y69956D02*
Y71531D01*
Y73306D02*
Y74406D01*
Y76256D02*
Y77331D01*
Y79681D02*
Y80281D01*
X104862Y24331D02*
Y24431D01*
Y25731D02*
Y26781D01*
Y29131D02*
Y30231D01*
Y31556D02*
Y32656D01*
Y35006D02*
Y36056D01*
Y37356D02*
Y37456D01*
Y47181D02*
Y48156D01*
Y53031D02*
Y54656D01*
Y56481D02*
Y57506D01*
Y59631D02*
Y60731D01*
Y62581D02*
Y63656D01*
Y66056D02*
Y66606D01*
Y67106D02*
Y68106D01*
Y70006D02*
Y71456D01*
Y73306D02*
Y74406D01*
Y76256D02*
Y77331D01*
Y79706D02*
Y80281D01*
X104887Y24206D02*
Y24556D01*
Y25731D02*
Y26781D01*
Y29131D02*
Y30256D01*
Y31531D02*
Y32656D01*
Y35006D02*
Y36056D01*
Y37231D02*
Y37581D01*
Y47181D02*
Y48156D01*
Y53081D02*
Y54581D01*
Y56481D02*
Y57506D01*
Y59631D02*
Y60731D01*
Y62581D02*
Y63656D01*
Y66081D02*
Y66606D01*
Y67106D02*
Y68106D01*
Y70081D02*
Y71406D01*
Y73306D02*
Y74406D01*
Y76256D02*
Y77331D01*
Y79756D02*
Y80281D01*
X104912Y24131D02*
Y24631D01*
Y25706D02*
Y26806D01*
Y29106D02*
Y30256D01*
Y31531D02*
Y32681D01*
Y34981D02*
Y36081D01*
Y37156D02*
Y37656D01*
Y47181D02*
Y48156D01*
Y53156D02*
Y54531D01*
Y56481D02*
Y57506D01*
Y59631D02*
Y60731D01*
Y62581D02*
Y63656D01*
Y66156D02*
Y66606D01*
Y67106D02*
Y68106D01*
Y70156D02*
Y71306D01*
Y73306D02*
Y74406D01*
Y76256D02*
Y77331D01*
Y79806D02*
Y80281D01*
X104937Y24081D02*
Y24681D01*
Y25706D02*
Y26806D01*
Y29106D02*
Y30256D01*
Y31531D02*
Y32681D01*
Y34981D02*
Y36081D01*
Y37106D02*
Y37706D01*
Y47181D02*
Y48156D01*
Y53231D02*
Y54431D01*
Y56481D02*
Y57506D01*
Y59631D02*
Y60731D01*
Y62581D02*
Y63656D01*
Y66206D02*
Y66606D01*
Y67106D02*
Y68106D01*
Y70231D02*
Y71231D01*
Y73306D02*
Y74406D01*
Y76256D02*
Y77331D01*
Y79881D02*
Y80281D01*
X104962Y24056D02*
Y24706D01*
Y25706D02*
Y26806D01*
Y29106D02*
Y30256D01*
Y31506D02*
Y32681D01*
Y34981D02*
Y36081D01*
Y37081D02*
Y37731D01*
Y47181D02*
Y48156D01*
Y53331D02*
Y54356D01*
Y56481D02*
Y57506D01*
Y59631D02*
Y60731D01*
Y62581D02*
Y63656D01*
Y66281D02*
Y66606D01*
Y67106D02*
Y68106D01*
Y70356D02*
Y71106D01*
Y73306D02*
Y74406D01*
Y76256D02*
Y77331D01*
Y79956D02*
Y80281D01*
X104987Y24006D02*
Y24756D01*
Y25681D02*
Y26831D01*
Y29106D02*
Y30281D01*
Y31506D02*
Y32681D01*
Y34956D02*
Y36106D01*
Y37031D02*
Y37781D01*
Y47181D02*
Y48156D01*
Y53431D02*
Y54231D01*
Y56481D02*
Y57481D01*
Y59631D02*
Y60731D01*
Y62581D02*
Y63656D01*
Y66406D02*
Y66606D01*
Y67106D02*
Y68106D01*
Y70531D02*
Y70931D01*
Y73306D02*
Y74381D01*
Y76256D02*
Y77331D01*
Y80081D02*
Y80281D01*
X105012Y23981D02*
Y24781D01*
Y25681D02*
Y26831D01*
Y29106D02*
Y30281D01*
Y31506D02*
Y32681D01*
Y34956D02*
Y36106D01*
Y37006D02*
Y37806D01*
Y47181D02*
Y48156D01*
Y53606D02*
Y54056D01*
X105037Y23956D02*
Y24806D01*
Y25681D02*
Y26831D01*
Y29106D02*
Y30281D01*
Y31506D02*
Y32681D01*
Y34956D02*
Y36106D01*
Y36981D02*
Y37831D01*
Y47181D02*
Y48156D01*
X105062Y23931D02*
Y24831D01*
Y25681D02*
Y26831D01*
Y29106D02*
Y30281D01*
Y31506D02*
Y32681D01*
Y34956D02*
Y36106D01*
Y36956D02*
Y37856D01*
X105087Y23906D02*
Y24831D01*
Y25656D02*
Y26856D01*
Y29106D02*
Y30281D01*
Y31506D02*
Y32681D01*
Y34931D02*
Y36131D01*
Y36931D02*
Y37881D01*
X105112Y23881D02*
Y24856D01*
Y25656D02*
Y26856D01*
Y29106D02*
Y30281D01*
Y31506D02*
Y32681D01*
Y34931D02*
Y36131D01*
Y36931D02*
Y37906D01*
X105137Y23881D02*
Y24881D01*
Y25656D02*
Y26856D01*
Y29106D02*
Y30281D01*
Y31506D02*
Y32681D01*
Y34931D02*
Y36131D01*
Y36906D02*
Y37906D01*
X105162Y23856D02*
Y24881D01*
Y25656D02*
Y26856D01*
Y29106D02*
Y30281D01*
Y31506D02*
Y32681D01*
Y34931D02*
Y36131D01*
Y36881D02*
Y37931D01*
X105187Y23856D02*
Y24906D01*
Y25656D02*
Y26856D01*
Y29106D02*
Y30256D01*
Y31531D02*
Y32681D01*
Y34931D02*
Y36131D01*
Y36881D02*
Y37931D01*
X105212Y23831D02*
Y24906D01*
Y25656D02*
Y26856D01*
Y29106D02*
Y30256D01*
Y31531D02*
Y32681D01*
Y34931D02*
Y36131D01*
Y36856D02*
Y37956D01*
X105237Y23831D02*
Y24931D01*
Y25681D02*
Y26831D01*
Y29131D02*
Y30256D01*
Y31531D02*
Y32656D01*
Y34956D02*
Y36106D01*
Y36856D02*
Y37956D01*
X105262Y23806D02*
Y24931D01*
Y25681D02*
Y26831D01*
Y29131D02*
Y30231D01*
Y31556D02*
Y32656D01*
Y34956D02*
Y36106D01*
Y36856D02*
Y37981D01*
X105287Y23806D02*
Y24956D01*
Y25681D02*
Y26831D01*
Y29131D02*
Y30231D01*
Y31556D02*
Y32656D01*
Y34956D02*
Y36106D01*
Y36831D02*
Y37981D01*
X105312Y23806D02*
Y24956D01*
Y25681D02*
Y26831D01*
Y29156D02*
Y30231D01*
Y31556D02*
Y32631D01*
Y34956D02*
Y36106D01*
Y36831D02*
Y37981D01*
X105337Y23806D02*
Y24956D01*
Y25681D02*
Y26806D01*
Y27631D02*
Y27756D01*
Y29156D02*
Y30206D01*
Y31581D02*
Y32631D01*
Y34031D02*
Y34156D01*
Y34956D02*
Y36106D01*
Y36831D02*
Y37981D01*
X105362Y23781D02*
Y24956D01*
Y25706D02*
Y26806D01*
Y27506D02*
Y27881D01*
Y29181D02*
Y30206D01*
Y31581D02*
Y32606D01*
Y33906D02*
Y34256D01*
Y34981D02*
Y36081D01*
Y36831D02*
Y38006D01*
X105387Y23781D02*
Y24956D01*
Y25706D02*
Y26806D01*
Y27456D02*
Y27956D01*
Y29181D02*
Y30181D01*
Y31606D02*
Y32606D01*
Y33831D02*
Y34331D01*
Y34981D02*
Y36081D01*
Y36831D02*
Y38006D01*
X105412Y23781D02*
Y24956D01*
Y25731D02*
Y26781D01*
Y27406D02*
Y27981D01*
Y29206D02*
Y30156D01*
Y31631D02*
Y32581D01*
Y33806D02*
Y34381D01*
Y35006D02*
Y36056D01*
Y36831D02*
Y38006D01*
X105437Y23781D02*
Y24956D01*
Y25731D02*
Y26781D01*
Y27356D02*
Y28031D01*
Y29231D02*
Y30156D01*
Y31631D02*
Y32556D01*
Y33756D02*
Y34431D01*
Y35006D02*
Y36056D01*
Y36806D02*
Y38006D01*
X105462Y23781D02*
Y24956D01*
Y25756D02*
Y26756D01*
Y27331D02*
Y28056D01*
Y29256D02*
Y30131D01*
Y31656D02*
Y32531D01*
Y33731D02*
Y34456D01*
Y35031D02*
Y36031D01*
Y36806D02*
Y38006D01*
X105487Y23781D02*
Y24956D01*
Y25756D02*
Y26756D01*
Y27306D02*
Y28106D01*
Y29281D02*
Y30106D01*
Y31681D02*
Y32506D01*
Y33681D02*
Y34481D01*
Y35031D02*
Y36031D01*
Y36831D02*
Y38006D01*
X105512Y22881D02*
Y23181D01*
Y23781D02*
Y24956D01*
Y25781D02*
Y26731D01*
Y27281D02*
Y28131D01*
Y29306D02*
Y30081D01*
Y31706D02*
Y32481D01*
Y33656D02*
Y34506D01*
Y35056D02*
Y36006D01*
Y36831D02*
Y38006D01*
Y38606D02*
Y38906D01*
X105537Y22806D02*
Y23256D01*
Y23781D02*
Y24956D01*
Y25806D02*
Y26706D01*
Y27256D02*
Y28156D01*
Y29331D02*
Y30031D01*
Y31756D02*
Y32456D01*
Y33631D02*
Y34531D01*
Y35081D02*
Y35981D01*
Y36831D02*
Y38006D01*
Y38531D02*
Y38981D01*
X105562Y22731D02*
Y23306D01*
Y23806D02*
Y24956D01*
Y25831D02*
Y26681D01*
Y27231D02*
Y28156D01*
Y29356D02*
Y30006D01*
Y31781D02*
Y32431D01*
Y33631D02*
Y34556D01*
Y35106D02*
Y35956D01*
Y36831D02*
Y37981D01*
Y38481D02*
Y39031D01*
X105587Y22706D02*
Y23356D01*
Y23806D02*
Y24956D01*
Y25856D02*
Y26656D01*
Y27206D02*
Y28181D01*
Y29406D02*
Y29956D01*
Y31831D02*
Y32381D01*
Y33606D02*
Y34581D01*
Y35131D02*
Y35931D01*
Y36831D02*
Y37981D01*
Y38431D02*
Y39081D01*
X105612Y22656D02*
Y23381D01*
Y23806D02*
Y24956D01*
Y25881D02*
Y26631D01*
Y27206D02*
Y28206D01*
Y29456D02*
Y29906D01*
Y31881D02*
Y32331D01*
Y33581D02*
Y34581D01*
Y35156D02*
Y35906D01*
Y36831D02*
Y37981D01*
Y38406D02*
Y39131D01*
X105637Y22631D02*
Y23406D01*
Y23806D02*
Y24931D01*
Y25906D02*
Y26606D01*
Y27181D02*
Y28206D01*
Y29531D02*
Y29831D01*
Y31956D02*
Y32256D01*
Y33581D02*
Y34606D01*
Y35181D02*
Y35881D01*
Y36856D02*
Y37981D01*
Y38381D02*
Y39156D01*
X105662Y22606D02*
Y23431D01*
Y23831D02*
Y24931D01*
Y25956D02*
Y26556D01*
Y27181D02*
Y28231D01*
Y33556D02*
Y34606D01*
Y35231D02*
Y35831D01*
Y36856D02*
Y37956D01*
Y38356D02*
Y39181D01*
X105687Y22581D02*
Y23456D01*
Y23831D02*
Y24931D01*
Y26006D02*
Y26506D01*
Y27156D02*
Y28231D01*
Y33556D02*
Y34631D01*
Y35281D02*
Y35781D01*
Y36856D02*
Y37956D01*
Y38331D02*
Y39206D01*
X105712Y22556D02*
Y23481D01*
Y23856D02*
Y24906D01*
Y26056D02*
Y26456D01*
Y27156D02*
Y28256D01*
Y33531D02*
Y34631D01*
Y35331D02*
Y35731D01*
Y36881D02*
Y37931D01*
Y38306D02*
Y39231D01*
X105737Y22556D02*
Y23506D01*
Y23856D02*
Y24906D01*
Y26156D02*
Y26356D01*
Y27131D02*
Y28256D01*
Y33531D02*
Y34656D01*
Y35431D02*
Y35631D01*
Y36881D02*
Y37931D01*
Y38281D02*
Y39231D01*
X105762Y22531D02*
Y23531D01*
Y23881D02*
Y24881D01*
Y27131D02*
Y28256D01*
Y33531D02*
Y34656D01*
Y36906D02*
Y37906D01*
Y38256D02*
Y39256D01*
X105787Y22506D02*
Y23531D01*
Y23881D02*
Y24856D01*
Y27131D02*
Y28281D01*
Y33506D02*
Y34656D01*
Y36931D02*
Y37906D01*
Y38256D02*
Y39281D01*
X105812Y22506D02*
Y23556D01*
Y23906D02*
Y24856D01*
Y27106D02*
Y28281D01*
Y29206D02*
Y29331D01*
Y32456D02*
Y32581D01*
Y33506D02*
Y34656D01*
Y36931D02*
Y37881D01*
Y38231D02*
Y39281D01*
X105837Y22481D02*
Y23556D01*
Y23931D02*
Y24831D01*
Y27106D02*
Y28281D01*
Y29081D02*
Y29456D01*
Y32331D02*
Y32706D01*
Y33506D02*
Y34681D01*
Y36956D02*
Y37856D01*
Y38231D02*
Y39306D01*
X105862Y22481D02*
Y23581D01*
Y23956D02*
Y24806D01*
Y27106D02*
Y28281D01*
Y29031D02*
Y29506D01*
Y32281D02*
Y32756D01*
Y33506D02*
Y34681D01*
Y36981D02*
Y37831D01*
Y38206D02*
Y39306D01*
X105887Y22456D02*
Y23581D01*
Y23981D02*
Y24781D01*
Y27106D02*
Y28281D01*
Y28981D02*
Y29556D01*
Y32231D02*
Y32806D01*
Y33506D02*
Y34681D01*
Y37006D02*
Y37806D01*
Y38206D02*
Y39331D01*
X105912Y22456D02*
Y23581D01*
Y24006D02*
Y24756D01*
Y27106D02*
Y28281D01*
Y28931D02*
Y29606D01*
Y32181D02*
Y32856D01*
Y33506D02*
Y34681D01*
Y37031D02*
Y37781D01*
Y38206D02*
Y39331D01*
X105937Y22456D02*
Y23606D01*
Y24031D02*
Y24706D01*
Y27106D02*
Y28281D01*
Y28906D02*
Y29631D01*
Y32156D02*
Y32881D01*
Y33506D02*
Y34681D01*
Y37081D02*
Y37756D01*
Y38181D02*
Y39331D01*
X105962Y22456D02*
Y23606D01*
Y24081D02*
Y24681D01*
Y27106D02*
Y28281D01*
Y28856D02*
Y29656D01*
Y32131D02*
Y32931D01*
Y33506D02*
Y34681D01*
Y37106D02*
Y37706D01*
Y38181D02*
Y39331D01*
X105987Y22431D02*
Y23606D01*
Y24131D02*
Y24631D01*
Y27106D02*
Y28281D01*
Y28831D02*
Y29681D01*
Y30756D02*
Y31031D01*
Y32106D02*
Y32956D01*
Y33506D02*
Y34681D01*
Y37156D02*
Y37656D01*
Y38181D02*
Y39356D01*
X106012Y22431D02*
Y23606D01*
Y24181D02*
Y24556D01*
Y27106D02*
Y28281D01*
Y28806D02*
Y29706D01*
Y30681D02*
Y31106D01*
Y32081D02*
Y32956D01*
Y33506D02*
Y34681D01*
Y37231D02*
Y37606D01*
Y38181D02*
Y39356D01*
X106037Y22431D02*
Y23606D01*
Y24306D02*
Y24456D01*
Y27106D02*
Y28281D01*
Y28806D02*
Y29731D01*
Y30606D02*
Y31181D01*
Y32056D02*
Y32981D01*
Y33506D02*
Y34656D01*
Y37331D02*
Y37481D01*
Y38181D02*
Y39356D01*
X106062Y22431D02*
Y23606D01*
Y25931D02*
Y26106D01*
Y27131D02*
Y28281D01*
Y28781D02*
Y29756D01*
Y30581D02*
Y31206D01*
Y32031D02*
Y33006D01*
Y33506D02*
Y34656D01*
Y35681D02*
Y35856D01*
Y38181D02*
Y39356D01*
X106087Y22431D02*
Y23606D01*
Y25831D02*
Y26206D01*
Y27131D02*
Y28256D01*
Y28756D02*
Y29756D01*
Y30531D02*
Y31256D01*
Y32031D02*
Y33031D01*
Y33531D02*
Y34656D01*
Y35581D02*
Y35956D01*
Y38181D02*
Y39356D01*
X106112Y22431D02*
Y23606D01*
Y25781D02*
Y26281D01*
Y27131D02*
Y28256D01*
Y28756D02*
Y29781D01*
Y30506D02*
Y31281D01*
Y32006D02*
Y33031D01*
Y33531D02*
Y34656D01*
Y35506D02*
Y36006D01*
Y38181D02*
Y39356D01*
X106137Y22431D02*
Y23606D01*
Y25731D02*
Y26331D01*
Y27156D02*
Y28256D01*
Y28731D02*
Y29806D01*
Y30481D02*
Y31306D01*
Y31981D02*
Y33056D01*
Y33531D02*
Y34631D01*
Y35456D02*
Y36056D01*
Y38181D02*
Y39356D01*
X106162Y22431D02*
Y23606D01*
Y25681D02*
Y26356D01*
Y27156D02*
Y28231D01*
Y28731D02*
Y29806D01*
Y30456D02*
Y31331D01*
Y31981D02*
Y33056D01*
Y33556D02*
Y34631D01*
Y35431D02*
Y36106D01*
Y38181D02*
Y39356D01*
X106187Y22431D02*
Y23606D01*
Y25656D02*
Y26406D01*
Y27156D02*
Y28231D01*
Y28706D02*
Y29806D01*
Y30431D02*
Y31356D01*
Y31981D02*
Y33081D01*
Y33556D02*
Y34606D01*
Y35381D02*
Y36131D01*
Y38181D02*
Y39356D01*
X106212Y22456D02*
Y23606D01*
Y25631D02*
Y26431D01*
Y27181D02*
Y28206D01*
Y28706D02*
Y29831D01*
Y30406D02*
Y31381D01*
Y31956D02*
Y33081D01*
Y33581D02*
Y34606D01*
Y35356D02*
Y36156D01*
Y38181D02*
Y39331D01*
X106237Y22456D02*
Y23606D01*
Y25606D02*
Y26456D01*
Y27206D02*
Y28206D01*
Y28706D02*
Y29831D01*
Y30406D02*
Y31381D01*
Y31956D02*
Y33081D01*
Y33581D02*
Y34581D01*
Y35331D02*
Y36181D01*
Y38181D02*
Y39331D01*
X106262Y22456D02*
Y23581D01*
Y25581D02*
Y26481D01*
Y27206D02*
Y28181D01*
Y28681D02*
Y29831D01*
Y30381D02*
Y31406D01*
Y31956D02*
Y33106D01*
Y33606D02*
Y34581D01*
Y35306D02*
Y36206D01*
Y38206D02*
Y39331D01*
Y78606D02*
Y79031D01*
X106287Y22456D02*
Y23581D01*
Y25556D02*
Y26506D01*
Y27231D02*
Y28156D01*
Y28681D02*
Y29856D01*
Y30381D02*
Y31406D01*
Y31931D02*
Y33106D01*
Y33631D02*
Y34556D01*
Y35281D02*
Y36231D01*
Y38206D02*
Y39306D01*
Y78406D02*
Y79256D01*
X106312Y22481D02*
Y23581D01*
Y25531D02*
Y26506D01*
Y27256D02*
Y28156D01*
Y28681D02*
Y29856D01*
Y30356D02*
Y31431D01*
Y31931D02*
Y33106D01*
Y33631D02*
Y34531D01*
Y35281D02*
Y36256D01*
Y38206D02*
Y39306D01*
Y67106D02*
Y67381D01*
Y71356D02*
Y71656D01*
Y73781D02*
Y75456D01*
Y78281D02*
Y79381D01*
X106337Y22481D02*
Y23556D01*
Y25531D02*
Y26531D01*
Y27281D02*
Y28131D01*
Y28681D02*
Y29856D01*
Y30356D02*
Y31431D01*
Y31931D02*
Y33106D01*
Y33656D02*
Y34506D01*
Y35256D02*
Y36256D01*
Y38231D02*
Y39306D01*
Y67106D02*
Y67381D01*
Y71331D02*
Y71681D01*
Y73781D02*
Y75656D01*
Y78181D02*
Y79456D01*
X106362Y22506D02*
Y23556D01*
Y25506D02*
Y26531D01*
Y27306D02*
Y28106D01*
Y28681D02*
Y29856D01*
Y30331D02*
Y31456D01*
Y31931D02*
Y33106D01*
Y33681D02*
Y34481D01*
Y35256D02*
Y36281D01*
Y38231D02*
Y39281D01*
Y67106D02*
Y67381D01*
Y71331D02*
Y71681D01*
Y73781D02*
Y75756D01*
Y78106D02*
Y79531D01*
X106387Y22506D02*
Y23531D01*
Y25481D02*
Y26556D01*
Y27331D02*
Y28081D01*
Y28681D02*
Y29856D01*
Y30331D02*
Y31456D01*
Y31931D02*
Y33106D01*
Y33731D02*
Y34456D01*
Y35231D02*
Y36306D01*
Y38256D02*
Y39281D01*
Y67106D02*
Y67381D01*
Y71306D02*
Y71706D01*
Y73781D02*
Y75856D01*
Y78031D02*
Y79581D01*
X106412Y22531D02*
Y23506D01*
Y25481D02*
Y26556D01*
Y27356D02*
Y28031D01*
Y28681D02*
Y29856D01*
Y30331D02*
Y31456D01*
Y31931D02*
Y33106D01*
Y33756D02*
Y34431D01*
Y35231D02*
Y36306D01*
Y38281D02*
Y39256D01*
Y67106D02*
Y67381D01*
Y71306D02*
Y71706D01*
Y73781D02*
Y75931D01*
Y77981D02*
Y79656D01*
X106437Y22556D02*
Y23506D01*
Y25481D02*
Y26581D01*
Y27406D02*
Y28006D01*
Y28681D02*
Y29856D01*
Y30306D02*
Y31481D01*
Y31931D02*
Y33106D01*
Y33781D02*
Y34381D01*
Y35206D02*
Y36306D01*
Y38281D02*
Y39231D01*
Y67106D02*
Y67381D01*
Y71281D02*
Y71731D01*
Y73781D02*
Y75981D01*
Y77906D02*
Y79681D01*
X106462Y22581D02*
Y23481D01*
Y25456D02*
Y26581D01*
Y27456D02*
Y27956D01*
Y28681D02*
Y29856D01*
Y30306D02*
Y31481D01*
Y31931D02*
Y33106D01*
Y33831D02*
Y34331D01*
Y35206D02*
Y36331D01*
Y38306D02*
Y39206D01*
Y67106D02*
Y67381D01*
Y71281D02*
Y71731D01*
Y73781D02*
Y76031D01*
Y77881D02*
Y79731D01*
X106487Y22581D02*
Y23456D01*
Y25456D02*
Y26581D01*
Y27506D02*
Y27881D01*
Y28681D02*
Y29856D01*
Y30306D02*
Y31481D01*
Y31931D02*
Y33106D01*
Y33906D02*
Y34281D01*
Y35181D02*
Y36331D01*
Y38331D02*
Y39206D01*
Y67106D02*
Y67381D01*
Y71281D02*
Y71756D01*
Y73781D02*
Y76081D01*
Y77831D02*
Y79781D01*
X106512Y22606D02*
Y23431D01*
Y25456D02*
Y26606D01*
Y27631D02*
Y27781D01*
Y28681D02*
Y29856D01*
Y30306D02*
Y31481D01*
Y31931D02*
Y33106D01*
Y34006D02*
Y34156D01*
Y35181D02*
Y36331D01*
Y38356D02*
Y39181D01*
Y67106D02*
Y67381D01*
Y71256D02*
Y71756D01*
Y73781D02*
Y76131D01*
Y77781D02*
Y79806D01*
X106537Y22656D02*
Y23406D01*
Y25431D02*
Y26606D01*
Y28681D02*
Y29831D01*
Y30306D02*
Y31481D01*
Y31956D02*
Y33106D01*
Y35181D02*
Y36356D01*
Y38381D02*
Y39131D01*
Y67106D02*
Y67381D01*
Y71256D02*
Y71781D01*
Y73781D02*
Y76156D01*
Y77756D02*
Y78556D01*
Y79056D02*
Y79856D01*
X106562Y22681D02*
Y23381D01*
Y25431D02*
Y26606D01*
Y28706D02*
Y29831D01*
Y30306D02*
Y31481D01*
Y31956D02*
Y33081D01*
Y35181D02*
Y36356D01*
Y38406D02*
Y39106D01*
Y67106D02*
Y67381D01*
Y71231D02*
Y71781D01*
Y73781D02*
Y74081D01*
Y75456D02*
Y76181D01*
Y77706D02*
Y78406D01*
Y79231D02*
Y79881D01*
X106587Y22706D02*
Y23331D01*
Y25431D02*
Y26606D01*
Y28706D02*
Y29831D01*
Y30306D02*
Y31481D01*
Y31956D02*
Y33081D01*
Y35181D02*
Y36356D01*
Y38456D02*
Y39081D01*
Y67106D02*
Y67381D01*
Y71231D02*
Y71806D01*
Y73781D02*
Y74081D01*
Y75606D02*
Y76231D01*
Y77681D02*
Y78306D01*
Y79331D02*
Y79906D01*
X106612Y22756D02*
Y23281D01*
Y25431D02*
Y26606D01*
Y28706D02*
Y29806D01*
Y30306D02*
Y31481D01*
Y31981D02*
Y33081D01*
Y35181D02*
Y36356D01*
Y38506D02*
Y39031D01*
Y67106D02*
Y67381D01*
Y71206D02*
Y71806D01*
Y73781D02*
Y74081D01*
Y75706D02*
Y76256D01*
Y77656D02*
Y78231D01*
Y79406D02*
Y79931D01*
X106637Y22806D02*
Y23231D01*
Y25431D02*
Y26606D01*
Y28731D02*
Y29806D01*
Y30306D02*
Y31481D01*
Y31981D02*
Y33056D01*
Y35181D02*
Y36356D01*
Y38556D02*
Y38981D01*
Y67106D02*
Y67381D01*
Y71206D02*
Y71481D01*
Y71531D02*
Y71806D01*
Y73781D02*
Y74081D01*
Y75781D02*
Y76281D01*
Y77631D02*
Y78156D01*
Y79481D02*
Y79956D01*
X106662Y22906D02*
Y23131D01*
Y25431D02*
Y26606D01*
Y28731D02*
Y29806D01*
Y30306D02*
Y31481D01*
Y31981D02*
Y33056D01*
Y35181D02*
Y36356D01*
Y38631D02*
Y38881D01*
Y67106D02*
Y67381D01*
Y71181D02*
Y71481D01*
Y71531D02*
Y71831D01*
Y73781D02*
Y74081D01*
Y75856D02*
Y76306D01*
Y77606D02*
Y78106D01*
Y79531D02*
Y79981D01*
X106687Y25431D02*
Y26606D01*
Y28756D02*
Y29781D01*
Y30306D02*
Y31481D01*
Y32006D02*
Y33031D01*
Y35181D02*
Y36356D01*
Y67106D02*
Y67381D01*
Y71181D02*
Y71456D01*
Y71556D02*
Y71831D01*
Y73781D02*
Y74081D01*
Y75906D02*
Y76331D01*
Y77581D02*
Y78056D01*
Y79581D02*
Y80006D01*
X106712Y25431D02*
Y26606D01*
Y28756D02*
Y29756D01*
Y30331D02*
Y31456D01*
Y32031D02*
Y33031D01*
Y35181D02*
Y36356D01*
Y67106D02*
Y67381D01*
Y71181D02*
Y71456D01*
Y71556D02*
Y71856D01*
Y73781D02*
Y74081D01*
Y75931D02*
Y76356D01*
Y77556D02*
Y78006D01*
Y79606D02*
Y80031D01*
X106737Y25431D02*
Y26606D01*
Y28781D02*
Y29756D01*
Y30331D02*
Y31456D01*
Y32031D02*
Y33006D01*
Y35181D02*
Y36356D01*
Y67106D02*
Y67381D01*
Y71156D02*
Y71431D01*
Y71581D02*
Y71856D01*
Y73781D02*
Y74081D01*
Y75981D02*
Y76381D01*
Y77531D02*
Y77956D01*
Y79656D02*
Y80056D01*
X106762Y25456D02*
Y26606D01*
Y28806D02*
Y29731D01*
Y30331D02*
Y31456D01*
Y32056D02*
Y32981D01*
Y35181D02*
Y36331D01*
Y67106D02*
Y67381D01*
Y71156D02*
Y71431D01*
Y71581D02*
Y71881D01*
Y73781D02*
Y74081D01*
Y76006D02*
Y76381D01*
Y77531D02*
Y77931D01*
Y79681D02*
Y80081D01*
X106787Y25456D02*
Y26606D01*
Y28806D02*
Y29706D01*
Y30356D02*
Y31431D01*
Y32081D02*
Y32981D01*
Y35181D02*
Y36331D01*
Y67106D02*
Y67381D01*
Y71131D02*
Y71431D01*
Y71606D02*
Y71881D01*
Y73781D02*
Y74081D01*
Y76031D02*
Y76406D01*
Y77506D02*
Y77881D01*
Y79731D02*
Y80081D01*
X106812Y25456D02*
Y26581D01*
Y28831D02*
Y29681D01*
Y30356D02*
Y31431D01*
Y32106D02*
Y32956D01*
Y35206D02*
Y36331D01*
Y67106D02*
Y67381D01*
Y71131D02*
Y71406D01*
Y71606D02*
Y71906D01*
Y73781D02*
Y74081D01*
Y76081D02*
Y76431D01*
Y77481D02*
Y77856D01*
Y79756D02*
Y80106D01*
X106837Y25456D02*
Y26581D01*
Y28856D02*
Y29656D01*
Y30381D02*
Y31406D01*
Y32131D02*
Y32931D01*
Y35206D02*
Y36331D01*
Y67106D02*
Y67381D01*
Y71106D02*
Y71406D01*
Y71606D02*
Y71906D01*
Y73781D02*
Y74081D01*
Y76106D02*
Y76431D01*
Y77481D02*
Y77831D01*
Y79781D02*
Y80131D01*
X106862Y25481D02*
Y26581D01*
Y28906D02*
Y29631D01*
Y30381D02*
Y31406D01*
Y32156D02*
Y32881D01*
Y35206D02*
Y36306D01*
Y67106D02*
Y67381D01*
Y71106D02*
Y71381D01*
Y71631D02*
Y71906D01*
Y73781D02*
Y74081D01*
Y76106D02*
Y76456D01*
Y77456D02*
Y77806D01*
Y79806D02*
Y80156D01*
X106887Y25481D02*
Y26556D01*
Y27831D02*
Y27956D01*
Y28931D02*
Y29606D01*
Y30406D02*
Y31381D01*
Y32181D02*
Y32856D01*
Y33831D02*
Y33956D01*
Y35231D02*
Y36306D01*
Y67106D02*
Y67381D01*
Y71081D02*
Y71381D01*
Y71631D02*
Y71931D01*
Y73781D02*
Y74081D01*
Y76131D02*
Y76456D01*
Y77456D02*
Y77781D01*
Y79831D02*
Y80156D01*
X106912Y25506D02*
Y26556D01*
Y27706D02*
Y28056D01*
Y28981D02*
Y29556D01*
Y30406D02*
Y31356D01*
Y32231D02*
Y32806D01*
Y33731D02*
Y34081D01*
Y35231D02*
Y36281D01*
Y67106D02*
Y67381D01*
Y71081D02*
Y71356D01*
Y71656D02*
Y71931D01*
Y73781D02*
Y74081D01*
Y76156D02*
Y76481D01*
Y77431D02*
Y77781D01*
Y79856D02*
Y80131D01*
X106937Y25506D02*
Y26531D01*
Y27631D02*
Y28131D01*
Y29006D02*
Y29506D01*
Y30431D02*
Y31356D01*
Y32281D02*
Y32781D01*
Y33656D02*
Y34156D01*
Y35256D02*
Y36281D01*
Y67106D02*
Y67381D01*
Y71081D02*
Y71356D01*
Y71656D02*
Y71956D01*
Y73781D02*
Y74081D01*
Y76181D02*
Y76481D01*
Y77431D02*
Y77756D01*
Y79856D02*
Y80106D01*
X106962Y25531D02*
Y26531D01*
Y27581D02*
Y28181D01*
Y29081D02*
Y29456D01*
Y30456D02*
Y31331D01*
Y32331D02*
Y32706D01*
Y33606D02*
Y34206D01*
Y35256D02*
Y36256D01*
Y67106D02*
Y67381D01*
Y71056D02*
Y71331D01*
Y71681D02*
Y71956D01*
Y73781D02*
Y74081D01*
Y76181D02*
Y76506D01*
Y77406D02*
Y77731D01*
Y79881D02*
Y80056D01*
X106987Y25531D02*
Y26506D01*
Y27556D02*
Y28231D01*
Y29206D02*
Y29331D01*
Y30481D02*
Y31306D01*
Y32456D02*
Y32581D01*
Y33556D02*
Y34231D01*
Y35281D02*
Y36256D01*
Y67106D02*
Y67381D01*
Y71056D02*
Y71331D01*
Y71681D02*
Y71981D01*
Y73781D02*
Y74081D01*
Y76206D02*
Y76506D01*
Y77406D02*
Y77731D01*
Y79906D02*
Y80006D01*
X107012Y25556D02*
Y26481D01*
Y27506D02*
Y28256D01*
Y30506D02*
Y31281D01*
Y33531D02*
Y34281D01*
Y35306D02*
Y36231D01*
Y67106D02*
Y67381D01*
Y71031D02*
Y71331D01*
Y71706D02*
Y71981D01*
Y73781D02*
Y74081D01*
Y76206D02*
Y76506D01*
Y77406D02*
Y77706D01*
Y79906D02*
Y79981D01*
X107037Y25581D02*
Y26481D01*
Y27481D02*
Y28281D01*
Y30556D02*
Y31231D01*
Y33506D02*
Y34306D01*
Y35306D02*
Y36206D01*
Y67106D02*
Y67381D01*
Y71031D02*
Y71306D01*
Y71706D02*
Y72006D01*
Y73781D02*
Y74081D01*
Y76231D02*
Y76531D01*
Y77406D02*
Y77706D01*
X107062Y25606D02*
Y26456D01*
Y27456D02*
Y28306D01*
Y30581D02*
Y31206D01*
Y33481D02*
Y34331D01*
Y35331D02*
Y36181D01*
Y67106D02*
Y67381D01*
Y71006D02*
Y71306D01*
Y71706D02*
Y72006D01*
Y73781D02*
Y74081D01*
Y76231D02*
Y76531D01*
Y77381D02*
Y77681D01*
X107087Y25631D02*
Y26431D01*
Y27431D02*
Y28331D01*
Y30631D02*
Y31156D01*
Y33456D02*
Y34356D01*
Y35356D02*
Y36156D01*
Y67106D02*
Y67381D01*
Y71006D02*
Y71281D01*
Y71731D02*
Y72031D01*
Y73781D02*
Y74081D01*
Y76256D02*
Y76531D01*
Y77381D02*
Y77681D01*
X107112Y25656D02*
Y26381D01*
Y27406D02*
Y28356D01*
Y30681D02*
Y31106D01*
Y33431D02*
Y34381D01*
Y35406D02*
Y36131D01*
Y67106D02*
Y67381D01*
Y70981D02*
Y71281D01*
Y71731D02*
Y72031D01*
Y73781D02*
Y74081D01*
Y76256D02*
Y76531D01*
Y77381D02*
Y77681D01*
X107137Y25681D02*
Y26356D01*
Y27406D02*
Y28381D01*
Y30756D02*
Y31031D01*
Y33406D02*
Y34381D01*
Y35431D02*
Y36106D01*
Y67106D02*
Y67381D01*
Y70981D02*
Y71256D01*
Y71756D02*
Y72031D01*
Y73781D02*
Y74081D01*
Y76256D02*
Y76531D01*
Y77381D02*
Y77681D01*
X107162Y25731D02*
Y26306D01*
Y27381D02*
Y28381D01*
Y33406D02*
Y34406D01*
Y35481D02*
Y36056D01*
Y67106D02*
Y67381D01*
Y70956D02*
Y71256D01*
Y71756D02*
Y72056D01*
Y73781D02*
Y74081D01*
Y76256D02*
Y76556D01*
Y77381D02*
Y77656D01*
X107187Y25781D02*
Y26256D01*
Y27356D02*
Y28406D01*
Y33381D02*
Y34431D01*
Y35531D02*
Y36006D01*
Y67106D02*
Y67381D01*
Y70956D02*
Y71231D01*
Y71781D02*
Y72056D01*
Y73781D02*
Y74081D01*
Y76281D02*
Y76556D01*
Y77381D02*
Y77656D01*
X107212Y25856D02*
Y26206D01*
Y27356D02*
Y28406D01*
Y33381D02*
Y34431D01*
Y35581D02*
Y35931D01*
Y67106D02*
Y67381D01*
Y70956D02*
Y71231D01*
Y71781D02*
Y72081D01*
Y73781D02*
Y74081D01*
Y76281D02*
Y76556D01*
Y77356D02*
Y77656D01*
X107237Y25981D02*
Y26056D01*
Y27331D02*
Y28431D01*
Y33356D02*
Y34456D01*
Y35731D02*
Y35806D01*
Y67106D02*
Y67381D01*
Y70931D02*
Y71231D01*
Y71781D02*
Y72081D01*
Y73781D02*
Y74081D01*
Y76281D02*
Y76556D01*
Y77356D02*
Y77656D01*
X107262Y27331D02*
Y28431D01*
Y33356D02*
Y34456D01*
Y67106D02*
Y67381D01*
Y70931D02*
Y71206D01*
Y71806D02*
Y72106D01*
Y73781D02*
Y74081D01*
Y76281D02*
Y76556D01*
Y77356D02*
Y77656D01*
X107287Y27331D02*
Y28456D01*
Y33331D02*
Y34456D01*
Y67106D02*
Y67381D01*
Y70906D02*
Y71206D01*
Y71806D02*
Y72106D01*
Y73781D02*
Y74081D01*
Y76281D02*
Y76556D01*
Y77356D02*
Y77656D01*
X107312Y27306D02*
Y28456D01*
Y29806D02*
Y29956D01*
Y31831D02*
Y31981D01*
Y33331D02*
Y34481D01*
Y67106D02*
Y67381D01*
Y70906D02*
Y71181D01*
Y71831D02*
Y72131D01*
Y73781D02*
Y74081D01*
Y76281D02*
Y76556D01*
Y77356D02*
Y77656D01*
X107337Y27306D02*
Y28456D01*
Y29681D02*
Y30056D01*
Y31731D02*
Y32106D01*
Y33331D02*
Y34481D01*
Y67106D02*
Y67381D01*
Y70881D02*
Y71181D01*
Y71831D02*
Y72131D01*
Y73781D02*
Y74081D01*
Y76281D02*
Y76556D01*
Y77356D02*
Y77656D01*
X107362Y27306D02*
Y28456D01*
Y29631D02*
Y30131D01*
Y31656D02*
Y32156D01*
Y33331D02*
Y34481D01*
Y67106D02*
Y67381D01*
Y70881D02*
Y71156D01*
Y71856D02*
Y72131D01*
Y73781D02*
Y74081D01*
Y76281D02*
Y76556D01*
Y77356D02*
Y77656D01*
X107387Y27306D02*
Y28481D01*
Y29581D02*
Y30181D01*
Y31606D02*
Y32206D01*
Y33306D02*
Y34481D01*
Y67106D02*
Y67381D01*
Y70856D02*
Y71156D01*
Y71856D02*
Y72156D01*
Y73781D02*
Y74081D01*
Y76281D02*
Y76556D01*
Y77381D02*
Y77656D01*
X107412Y27306D02*
Y28481D01*
Y29531D02*
Y30206D01*
Y31581D02*
Y32256D01*
Y33306D02*
Y34481D01*
Y67106D02*
Y67381D01*
Y70856D02*
Y71156D01*
Y71881D02*
Y72156D01*
Y73781D02*
Y74081D01*
Y76281D02*
Y76556D01*
Y77381D02*
Y77681D01*
X107437Y27306D02*
Y28481D01*
Y29506D02*
Y30256D01*
Y31531D02*
Y32281D01*
Y33306D02*
Y34481D01*
Y67106D02*
Y67381D01*
Y70856D02*
Y71131D01*
Y71881D02*
Y72181D01*
Y73781D02*
Y74081D01*
Y76281D02*
Y76556D01*
Y77381D02*
Y77681D01*
X107462Y27281D02*
Y28481D01*
Y29481D02*
Y30281D01*
Y31506D02*
Y32306D01*
Y33306D02*
Y34506D01*
Y67106D02*
Y67381D01*
Y70831D02*
Y71131D01*
Y71881D02*
Y72181D01*
Y73781D02*
Y74081D01*
Y76281D02*
Y76556D01*
Y77381D02*
Y77681D01*
X107487Y27281D02*
Y28481D01*
Y29456D02*
Y30306D01*
Y31481D02*
Y32331D01*
Y33306D02*
Y34506D01*
Y67106D02*
Y67381D01*
Y70831D02*
Y71106D01*
Y71906D02*
Y72206D01*
Y73781D02*
Y74081D01*
Y76281D02*
Y76556D01*
Y77381D02*
Y77706D01*
X107512Y27306D02*
Y28481D01*
Y29431D02*
Y30331D01*
Y31456D02*
Y32356D01*
Y33306D02*
Y34481D01*
Y67106D02*
Y67381D01*
Y70806D02*
Y71106D01*
Y71906D02*
Y72206D01*
Y73781D02*
Y74081D01*
Y76256D02*
Y76531D01*
Y77381D02*
Y77706D01*
X107537Y27306D02*
Y28481D01*
Y29406D02*
Y30356D01*
Y31431D02*
Y32381D01*
Y33306D02*
Y34481D01*
Y67106D02*
Y67381D01*
Y70806D02*
Y71081D01*
Y71931D02*
Y72231D01*
Y73781D02*
Y74081D01*
Y76256D02*
Y76531D01*
Y77406D02*
Y77731D01*
X107562Y27306D02*
Y28481D01*
Y29381D02*
Y30356D01*
Y31431D02*
Y32406D01*
Y33306D02*
Y34481D01*
Y67106D02*
Y67381D01*
Y70781D02*
Y71081D01*
Y71931D02*
Y72231D01*
Y73781D02*
Y74081D01*
Y76256D02*
Y76531D01*
Y77406D02*
Y77731D01*
X107587Y27306D02*
Y28456D01*
Y29381D02*
Y30381D01*
Y31406D02*
Y32406D01*
Y33331D02*
Y34481D01*
Y67106D02*
Y67381D01*
Y70781D02*
Y71056D01*
Y71956D02*
Y72231D01*
Y73781D02*
Y74081D01*
Y76231D02*
Y76531D01*
Y77406D02*
Y77756D01*
X107612Y27306D02*
Y28456D01*
Y29356D02*
Y30381D01*
Y31381D02*
Y32431D01*
Y33331D02*
Y34481D01*
Y67106D02*
Y67381D01*
Y70756D02*
Y71056D01*
Y71956D02*
Y72256D01*
Y73781D02*
Y74081D01*
Y76231D02*
Y76506D01*
Y77431D02*
Y77781D01*
X107637Y27306D02*
Y28456D01*
Y29356D02*
Y30406D01*
Y31381D02*
Y32431D01*
Y33331D02*
Y34481D01*
Y67106D02*
Y67381D01*
Y70756D02*
Y71056D01*
Y71981D02*
Y72256D01*
Y73781D02*
Y74081D01*
Y76231D02*
Y76506D01*
Y77431D02*
Y77806D01*
X107662Y27331D02*
Y28456D01*
Y29331D02*
Y30406D01*
Y31356D02*
Y32456D01*
Y33331D02*
Y34456D01*
Y67106D02*
Y67381D01*
Y70756D02*
Y71031D01*
Y71981D02*
Y72281D01*
Y73781D02*
Y74081D01*
Y76206D02*
Y76506D01*
Y77456D02*
Y77831D01*
X107687Y27331D02*
Y28431D01*
Y29331D02*
Y30431D01*
Y31356D02*
Y32456D01*
Y33356D02*
Y34456D01*
Y67106D02*
Y67381D01*
Y70731D02*
Y71031D01*
Y71981D02*
Y72281D01*
Y73781D02*
Y74081D01*
Y76181D02*
Y76481D01*
Y77456D02*
Y77856D01*
X107712Y27331D02*
Y28431D01*
Y29306D02*
Y30431D01*
Y31356D02*
Y32481D01*
Y33356D02*
Y34456D01*
Y67106D02*
Y67381D01*
Y70731D02*
Y71006D01*
Y72006D02*
Y72306D01*
Y73781D02*
Y74081D01*
Y76181D02*
Y76481D01*
Y77481D02*
Y77881D01*
X107737Y27356D02*
Y28406D01*
Y29306D02*
Y30456D01*
Y31331D02*
Y32481D01*
Y33381D02*
Y34431D01*
Y67106D02*
Y67381D01*
Y70706D02*
Y71006D01*
Y72006D02*
Y72306D01*
Y73781D02*
Y74081D01*
Y76156D02*
Y76456D01*
Y77506D02*
Y77931D01*
X107762Y27356D02*
Y28406D01*
Y29306D02*
Y30456D01*
Y31331D02*
Y32481D01*
Y33381D02*
Y34431D01*
Y67106D02*
Y67381D01*
Y70706D02*
Y70981D01*
Y72031D02*
Y72331D01*
Y73781D02*
Y74081D01*
Y76131D02*
Y76456D01*
Y77506D02*
Y77981D01*
X107787Y27381D02*
Y28381D01*
Y29306D02*
Y30456D01*
Y31331D02*
Y32481D01*
Y33406D02*
Y34406D01*
Y67106D02*
Y67381D01*
Y70681D02*
Y70981D01*
Y72031D02*
Y72331D01*
Y73781D02*
Y74081D01*
Y76106D02*
Y76431D01*
Y77531D02*
Y78031D01*
X107812Y27406D02*
Y28381D01*
Y29281D02*
Y30456D01*
Y31331D02*
Y32506D01*
Y33406D02*
Y34381D01*
Y67106D02*
Y67381D01*
Y70681D02*
Y70956D01*
Y72056D02*
Y72356D01*
Y73781D02*
Y74081D01*
Y76081D02*
Y76406D01*
Y77556D02*
Y78081D01*
X107837Y27406D02*
Y28356D01*
Y29281D02*
Y30456D01*
Y31331D02*
Y32506D01*
Y33431D02*
Y34381D01*
Y67106D02*
Y67381D01*
Y70656D02*
Y70956D01*
Y72056D02*
Y72356D01*
Y73781D02*
Y74081D01*
Y76056D02*
Y76406D01*
Y77581D02*
Y78156D01*
X107862Y27431D02*
Y28331D01*
Y29281D02*
Y30456D01*
Y31331D02*
Y32506D01*
Y33456D02*
Y34356D01*
Y67106D02*
Y67381D01*
Y70656D02*
Y70956D01*
Y72081D02*
Y72356D01*
Y73781D02*
Y74081D01*
Y76006D02*
Y76381D01*
Y77606D02*
Y78231D01*
X107887Y27456D02*
Y28306D01*
Y29281D02*
Y30456D01*
Y31331D02*
Y32506D01*
Y33481D02*
Y34331D01*
Y67106D02*
Y67381D01*
Y70631D02*
Y70931D01*
Y72081D02*
Y72381D01*
Y73781D02*
Y74081D01*
Y75956D02*
Y76356D01*
Y77656D02*
Y78306D01*
X107912Y27481D02*
Y28281D01*
Y29281D02*
Y30456D01*
Y31331D02*
Y32506D01*
Y33506D02*
Y34306D01*
Y67106D02*
Y67381D01*
Y70631D02*
Y70931D01*
Y72081D02*
Y72381D01*
Y73781D02*
Y74081D01*
Y75906D02*
Y76331D01*
Y77681D02*
Y78406D01*
X107937Y27506D02*
Y28256D01*
Y29281D02*
Y30456D01*
Y31331D02*
Y32506D01*
Y33531D02*
Y34281D01*
Y67106D02*
Y67381D01*
Y70631D02*
Y70906D01*
Y72106D02*
Y72406D01*
Y73781D02*
Y74081D01*
Y75856D02*
Y76306D01*
Y77706D02*
Y78531D01*
X107962Y27556D02*
Y28206D01*
Y29281D02*
Y30456D01*
Y31331D02*
Y32506D01*
Y33556D02*
Y34231D01*
Y67106D02*
Y67381D01*
Y70606D02*
Y70906D01*
Y72106D02*
Y72406D01*
Y73781D02*
Y74081D01*
Y75781D02*
Y76281D01*
Y77756D02*
Y78631D01*
X107987Y27581D02*
Y28181D01*
Y29281D02*
Y30456D01*
Y31331D02*
Y32506D01*
Y33606D02*
Y34206D01*
Y67106D02*
Y67381D01*
Y70606D02*
Y70881D01*
Y72131D02*
Y72431D01*
Y73781D02*
Y74081D01*
Y75656D02*
Y76256D01*
Y77806D02*
Y78781D01*
X108012Y27631D02*
Y28131D01*
Y29306D02*
Y30456D01*
Y31331D02*
Y32481D01*
Y33656D02*
Y34156D01*
Y67106D02*
Y67381D01*
Y70581D02*
Y70881D01*
Y72131D02*
Y72431D01*
Y73781D02*
Y76206D01*
Y77856D02*
Y78906D01*
X108037Y27706D02*
Y28056D01*
Y29306D02*
Y30456D01*
Y31331D02*
Y32481D01*
Y33731D02*
Y34081D01*
Y67106D02*
Y67381D01*
Y70581D02*
Y70856D01*
Y72156D02*
Y72456D01*
Y73781D02*
Y76181D01*
Y77906D02*
Y79031D01*
X108062Y27806D02*
Y27956D01*
Y29306D02*
Y30456D01*
Y31331D02*
Y32481D01*
Y33831D02*
Y33981D01*
Y67106D02*
Y67381D01*
Y70556D02*
Y70856D01*
Y72156D02*
Y72456D01*
Y73781D02*
Y76131D01*
Y77956D02*
Y79156D01*
X108087Y29306D02*
Y30431D01*
Y31356D02*
Y32481D01*
Y67106D02*
Y67381D01*
Y70556D02*
Y70856D01*
Y72181D02*
Y72456D01*
Y73781D02*
Y76081D01*
Y78031D02*
Y79256D01*
X108112Y29331D02*
Y30431D01*
Y31356D02*
Y32456D01*
Y67106D02*
Y67381D01*
Y70531D02*
Y70831D01*
Y72181D02*
Y72481D01*
Y73781D02*
Y76031D01*
Y78106D02*
Y79356D01*
X108137Y29331D02*
Y30406D01*
Y31381D02*
Y32456D01*
Y67106D02*
Y67381D01*
Y70531D02*
Y70831D01*
Y72181D02*
Y72481D01*
Y73781D02*
Y75981D01*
Y78181D02*
Y79456D01*
X108162Y29356D02*
Y30406D01*
Y31381D02*
Y32431D01*
Y67106D02*
Y67381D01*
Y70531D02*
Y70806D01*
Y72206D02*
Y72506D01*
Y73781D02*
Y76031D01*
Y78281D02*
Y79531D01*
X108187Y29356D02*
Y30381D01*
Y31406D02*
Y32431D01*
Y67106D02*
Y67381D01*
Y70506D02*
Y70806D01*
Y72206D02*
Y72506D01*
Y73781D02*
Y76081D01*
Y78381D02*
Y79606D01*
X108212Y29381D02*
Y30381D01*
Y31406D02*
Y32406D01*
Y67106D02*
Y67381D01*
Y70506D02*
Y70781D01*
Y72231D02*
Y72531D01*
Y73781D02*
Y76156D01*
Y78506D02*
Y79656D01*
X108237Y29381D02*
Y30356D01*
Y31431D02*
Y32406D01*
Y67106D02*
Y67381D01*
Y70481D02*
Y70781D01*
Y72231D02*
Y72531D01*
Y73781D02*
Y76206D01*
Y78631D02*
Y79731D01*
X108262Y29406D02*
Y30331D01*
Y31456D02*
Y32381D01*
Y67106D02*
Y67381D01*
Y70481D02*
Y70781D01*
Y72256D02*
Y72556D01*
Y73781D02*
Y76231D01*
Y78756D02*
Y79781D01*
X108287Y29431D02*
Y30331D01*
Y31456D02*
Y32356D01*
Y67106D02*
Y67381D01*
Y70456D02*
Y70756D01*
Y72256D02*
Y72556D01*
Y73781D02*
Y74081D01*
Y75456D02*
Y76281D01*
Y78881D02*
Y79831D01*
X108312Y29456D02*
Y30306D01*
Y31481D02*
Y32331D01*
Y67106D02*
Y67381D01*
Y70456D02*
Y70756D01*
Y72256D02*
Y72556D01*
Y73781D02*
Y74081D01*
Y75681D02*
Y76306D01*
Y79006D02*
Y79856D01*
X108337Y29481D02*
Y30281D01*
Y31506D02*
Y32306D01*
Y67106D02*
Y67381D01*
Y70431D02*
Y70731D01*
Y72281D02*
Y72581D01*
Y73781D02*
Y74081D01*
Y75781D02*
Y76331D01*
Y79131D02*
Y79906D01*
X108362Y29506D02*
Y30231D01*
Y31556D02*
Y32281D01*
Y67106D02*
Y67381D01*
Y70431D02*
Y70731D01*
Y72281D02*
Y72581D01*
Y73781D02*
Y74081D01*
Y75856D02*
Y76381D01*
Y79231D02*
Y79931D01*
X108387Y29531D02*
Y30206D01*
Y31581D02*
Y32256D01*
Y67106D02*
Y67381D01*
Y70431D02*
Y70706D01*
Y72306D02*
Y72606D01*
Y73781D02*
Y74081D01*
Y75931D02*
Y76406D01*
Y79306D02*
Y79981D01*
X108412Y29581D02*
Y30156D01*
Y31631D02*
Y32206D01*
Y67106D02*
Y67381D01*
Y70406D02*
Y70706D01*
Y72306D02*
Y72606D01*
Y73781D02*
Y74081D01*
Y75981D02*
Y76431D01*
Y79381D02*
Y80006D01*
X108437Y29631D02*
Y30106D01*
Y31681D02*
Y32156D01*
Y67106D02*
Y67381D01*
Y70406D02*
Y70681D01*
Y72331D02*
Y72631D01*
Y73781D02*
Y74081D01*
Y76031D02*
Y76456D01*
Y79456D02*
Y80031D01*
X108462Y29706D02*
Y30056D01*
Y31731D02*
Y32081D01*
Y67106D02*
Y67381D01*
Y70381D02*
Y70681D01*
Y72331D02*
Y72631D01*
Y73781D02*
Y74081D01*
Y76081D02*
Y76456D01*
Y79531D02*
Y80056D01*
X108487Y29831D02*
Y29931D01*
Y31856D02*
Y31956D01*
Y67106D02*
Y67381D01*
Y70381D02*
Y70681D01*
Y72356D02*
Y72656D01*
Y73781D02*
Y74081D01*
Y76106D02*
Y76481D01*
Y79581D02*
Y80081D01*
X108512Y67106D02*
Y67381D01*
Y70356D02*
Y70656D01*
Y72356D02*
Y72656D01*
Y73781D02*
Y74081D01*
Y76131D02*
Y76506D01*
Y79631D02*
Y80106D01*
X108537Y67106D02*
Y67381D01*
Y70356D02*
Y70656D01*
Y72356D02*
Y72681D01*
Y73781D02*
Y74081D01*
Y76181D02*
Y76531D01*
Y79681D02*
Y80131D01*
X108562Y67106D02*
Y67381D01*
Y70331D02*
Y70631D01*
Y72381D02*
Y72681D01*
Y73781D02*
Y74081D01*
Y76206D02*
Y76531D01*
Y79706D02*
Y80131D01*
X108587Y67106D02*
Y67381D01*
Y70331D02*
Y70631D01*
Y72381D02*
Y72681D01*
Y73781D02*
Y74081D01*
Y76231D02*
Y76556D01*
Y79756D02*
Y80156D01*
X108612Y67106D02*
Y67381D01*
Y70306D02*
Y70606D01*
Y72406D02*
Y72706D01*
Y73781D02*
Y74081D01*
Y76231D02*
Y76581D01*
Y79781D02*
Y80181D01*
X108637Y67106D02*
Y67381D01*
Y70306D02*
Y70606D01*
Y72406D02*
Y72706D01*
Y73781D02*
Y74081D01*
Y76256D02*
Y76581D01*
Y79806D02*
Y80181D01*
X108662Y67106D02*
Y67381D01*
Y70306D02*
Y70581D01*
Y72431D02*
Y72731D01*
Y73781D02*
Y74081D01*
Y76281D02*
Y76606D01*
Y79831D02*
Y80206D01*
X108687Y67106D02*
Y67381D01*
Y70281D02*
Y70581D01*
Y72431D02*
Y72731D01*
Y73781D02*
Y74081D01*
Y76306D02*
Y76606D01*
Y79856D02*
Y80206D01*
X108712Y67106D02*
Y67381D01*
Y70281D02*
Y70581D01*
Y72456D02*
Y72756D01*
Y73781D02*
Y74081D01*
Y76306D02*
Y76606D01*
Y79881D02*
Y80231D01*
X108737Y67106D02*
Y67381D01*
Y70256D02*
Y70556D01*
Y72456D02*
Y72756D01*
Y73781D02*
Y74081D01*
Y76331D02*
Y76631D01*
Y79906D02*
Y80231D01*
X108762Y30781D02*
Y31006D01*
Y67106D02*
Y67381D01*
Y70256D02*
Y70556D01*
Y72456D02*
Y72781D01*
Y73781D02*
Y74081D01*
Y76331D02*
Y76631D01*
Y79906D02*
Y80231D01*
X108787Y30681D02*
Y31106D01*
Y67106D02*
Y67381D01*
Y70231D02*
Y70531D01*
Y72481D02*
Y72781D01*
Y73781D02*
Y74081D01*
Y76356D02*
Y76656D01*
Y79931D02*
Y80256D01*
X108812Y30631D02*
Y31156D01*
Y67106D02*
Y67381D01*
Y70231D02*
Y70531D01*
Y72481D02*
Y72781D01*
Y73781D02*
Y74081D01*
Y76356D02*
Y76656D01*
Y79931D02*
Y80256D01*
X108837Y30581D02*
Y31206D01*
Y67106D02*
Y67381D01*
Y70206D02*
Y70506D01*
Y72506D02*
Y72806D01*
Y73781D02*
Y74081D01*
Y76356D02*
Y76656D01*
Y79956D02*
Y80256D01*
X108862Y30556D02*
Y31231D01*
Y67106D02*
Y67381D01*
Y70206D02*
Y70506D01*
Y72506D02*
Y72806D01*
Y73781D02*
Y74081D01*
Y76381D02*
Y76656D01*
Y79956D02*
Y80256D01*
X108887Y30506D02*
Y31281D01*
Y67106D02*
Y67381D01*
Y70206D02*
Y72831D01*
Y73781D02*
Y74081D01*
Y76381D02*
Y76681D01*
Y79956D02*
Y80256D01*
X108912Y30481D02*
Y31306D01*
Y67106D02*
Y67381D01*
Y70181D02*
Y72831D01*
Y73781D02*
Y74081D01*
Y76381D02*
Y76681D01*
Y79981D02*
Y80281D01*
X108937Y30456D02*
Y31331D01*
Y67106D02*
Y67381D01*
Y70181D02*
Y72856D01*
Y73781D02*
Y74081D01*
Y76381D02*
Y76681D01*
Y79981D02*
Y80281D01*
X108962Y30431D02*
Y31356D01*
Y67106D02*
Y67381D01*
Y70156D02*
Y72856D01*
Y73781D02*
Y74081D01*
Y76406D02*
Y76681D01*
Y79981D02*
Y80281D01*
X108987Y30431D02*
Y31356D01*
Y67106D02*
Y67381D01*
Y70156D02*
Y72881D01*
Y73781D02*
Y74081D01*
Y76406D02*
Y76681D01*
Y79981D02*
Y80281D01*
X109012Y30406D02*
Y31381D01*
Y67106D02*
Y67381D01*
Y70131D02*
Y72881D01*
Y73781D02*
Y74081D01*
Y76406D02*
Y76681D01*
Y79981D02*
Y80281D01*
X109037Y30381D02*
Y31406D01*
Y67106D02*
Y67381D01*
Y70131D02*
Y72906D01*
Y73781D02*
Y74081D01*
Y76406D02*
Y76681D01*
Y79981D02*
Y80281D01*
X109062Y30381D02*
Y31406D01*
Y67106D02*
Y67381D01*
Y70106D02*
Y72906D01*
Y73781D02*
Y74081D01*
Y76406D02*
Y76681D01*
Y79981D02*
Y80281D01*
X109087Y30356D02*
Y31431D01*
Y67106D02*
Y67381D01*
Y70106D02*
Y72906D01*
Y73781D02*
Y74081D01*
Y76406D02*
Y76681D01*
Y79981D02*
Y80281D01*
X109112Y30356D02*
Y31431D01*
Y67106D02*
Y67381D01*
Y70081D02*
Y72931D01*
Y73781D02*
Y74081D01*
Y76406D02*
Y76681D01*
Y79981D02*
Y80281D01*
X109137Y30331D02*
Y31456D01*
Y67106D02*
Y67381D01*
Y70081D02*
Y72931D01*
Y73781D02*
Y74081D01*
Y76406D02*
Y76681D01*
Y79981D02*
Y80281D01*
X109162Y30331D02*
Y31456D01*
Y67106D02*
Y67381D01*
Y70081D02*
Y70381D01*
Y72631D02*
Y72956D01*
Y73781D02*
Y74081D01*
Y76406D02*
Y76681D01*
Y79981D02*
Y80281D01*
X109187Y30331D02*
Y31456D01*
Y67106D02*
Y67381D01*
Y70056D02*
Y70356D01*
Y72656D02*
Y72956D01*
Y73781D02*
Y74081D01*
Y76406D02*
Y76681D01*
Y79981D02*
Y80281D01*
X109212Y30306D02*
Y31481D01*
Y67106D02*
Y67381D01*
Y70056D02*
Y70356D01*
Y72656D02*
Y72981D01*
Y73781D02*
Y74081D01*
Y76381D02*
Y76681D01*
Y77456D02*
Y77531D01*
Y79981D02*
Y80281D01*
X109237Y30306D02*
Y31481D01*
Y67106D02*
Y67381D01*
Y70031D02*
Y70356D01*
Y72681D02*
Y72981D01*
Y73781D02*
Y74081D01*
Y76381D02*
Y76681D01*
Y77406D02*
Y77556D01*
Y79981D02*
Y80281D01*
X109262Y30306D02*
Y31481D01*
Y67106D02*
Y67381D01*
Y70031D02*
Y70331D01*
Y72681D02*
Y73006D01*
Y73781D02*
Y74081D01*
Y76381D02*
Y76681D01*
Y77356D02*
Y77556D01*
Y79956D02*
Y80256D01*
X109287Y30306D02*
Y31481D01*
Y67106D02*
Y67381D01*
Y70006D02*
Y70331D01*
Y72706D02*
Y73006D01*
Y73781D02*
Y74081D01*
Y76381D02*
Y76681D01*
Y77306D02*
Y77581D01*
Y79956D02*
Y80256D01*
X109312Y30306D02*
Y31481D01*
Y67106D02*
Y67381D01*
Y70006D02*
Y70306D01*
Y72706D02*
Y73006D01*
Y73781D02*
Y74081D01*
Y76356D02*
Y76656D01*
Y77256D02*
Y77581D01*
Y79956D02*
Y80256D01*
X109337Y30306D02*
Y31481D01*
Y67106D02*
Y67381D01*
Y69981D02*
Y70306D01*
Y72706D02*
Y73031D01*
Y73781D02*
Y74081D01*
Y76356D02*
Y76656D01*
Y77256D02*
Y77606D01*
Y79931D02*
Y80256D01*
X109362Y30306D02*
Y31481D01*
Y67106D02*
Y67381D01*
Y69981D02*
Y70281D01*
Y72731D02*
Y73031D01*
Y73781D02*
Y74081D01*
Y76356D02*
Y76656D01*
Y77281D02*
Y77631D01*
Y79931D02*
Y80231D01*
X109387Y30306D02*
Y31481D01*
Y67106D02*
Y67381D01*
Y69981D02*
Y70281D01*
Y72731D02*
Y73056D01*
Y73781D02*
Y74081D01*
Y76331D02*
Y76656D01*
Y77306D02*
Y77656D01*
Y79931D02*
Y80231D01*
X109412Y30306D02*
Y31481D01*
Y67106D02*
Y67381D01*
Y69956D02*
Y70256D01*
Y72756D02*
Y73056D01*
Y73781D02*
Y74081D01*
Y76331D02*
Y76631D01*
Y77306D02*
Y77681D01*
Y79906D02*
Y80231D01*
X109437Y30306D02*
Y31481D01*
Y67106D02*
Y67381D01*
Y69956D02*
Y70256D01*
Y72756D02*
Y73081D01*
Y73781D02*
Y74081D01*
Y76306D02*
Y76631D01*
Y77331D02*
Y77706D01*
Y79881D02*
Y80206D01*
X109462Y30306D02*
Y31481D01*
Y67106D02*
Y67381D01*
Y69931D02*
Y70256D01*
Y72781D02*
Y73081D01*
Y73781D02*
Y74081D01*
Y76281D02*
Y76606D01*
Y77356D02*
Y77731D01*
Y79881D02*
Y80206D01*
X109487Y30331D02*
Y31456D01*
Y67106D02*
Y67381D01*
Y69931D02*
Y70231D01*
Y72781D02*
Y73106D01*
Y73781D02*
Y74081D01*
Y76256D02*
Y76606D01*
Y77356D02*
Y77756D01*
Y79856D02*
Y80206D01*
X109512Y30331D02*
Y31456D01*
Y67106D02*
Y67381D01*
Y69906D02*
Y70231D01*
Y72806D02*
Y73106D01*
Y73781D02*
Y74081D01*
Y76231D02*
Y76606D01*
Y77381D02*
Y77781D01*
Y79831D02*
Y80181D01*
X109537Y30331D02*
Y31456D01*
Y67106D02*
Y67381D01*
Y69906D02*
Y70206D01*
Y72806D02*
Y73106D01*
Y73781D02*
Y74081D01*
Y76206D02*
Y76581D01*
Y77406D02*
Y77806D01*
Y79806D02*
Y80181D01*
X109562Y30356D02*
Y31431D01*
Y67106D02*
Y67381D01*
Y69881D02*
Y70206D01*
Y72806D02*
Y73131D01*
Y73781D02*
Y74081D01*
Y76181D02*
Y76556D01*
Y77431D02*
Y77856D01*
Y79781D02*
Y80156D01*
X109587Y30356D02*
Y31431D01*
Y67106D02*
Y67381D01*
Y69881D02*
Y70181D01*
Y72831D02*
Y73131D01*
Y73781D02*
Y74081D01*
Y76156D02*
Y76556D01*
Y77431D02*
Y77881D01*
Y79756D02*
Y80131D01*
X109612Y30356D02*
Y31431D01*
Y67106D02*
Y67381D01*
Y69881D02*
Y70181D01*
Y72831D02*
Y73156D01*
Y73781D02*
Y74081D01*
Y76106D02*
Y76531D01*
Y77456D02*
Y77931D01*
Y79731D02*
Y80131D01*
X109637Y30381D02*
Y31406D01*
Y67106D02*
Y67381D01*
Y69856D02*
Y70156D01*
Y72856D02*
Y73156D01*
Y73781D02*
Y74081D01*
Y76081D02*
Y76506D01*
Y77481D02*
Y77956D01*
Y79706D02*
Y80106D01*
X109662Y30406D02*
Y31381D01*
Y67106D02*
Y67381D01*
Y69856D02*
Y70156D01*
Y72856D02*
Y73181D01*
Y73781D02*
Y74081D01*
Y76031D02*
Y76506D01*
Y77506D02*
Y78006D01*
Y79656D02*
Y80081D01*
X109687Y30406D02*
Y31381D01*
Y67106D02*
Y67381D01*
Y69831D02*
Y70156D01*
Y72881D02*
Y73181D01*
Y73781D02*
Y74081D01*
Y75956D02*
Y76481D01*
Y77531D02*
Y78056D01*
Y79606D02*
Y80056D01*
X109712Y30431D02*
Y31356D01*
Y67106D02*
Y67381D01*
Y69831D02*
Y70131D01*
Y72881D02*
Y73206D01*
Y73781D02*
Y74081D01*
Y75906D02*
Y76456D01*
Y77581D02*
Y78106D01*
Y79556D02*
Y80031D01*
X109737Y30456D02*
Y31331D01*
Y67106D02*
Y67381D01*
Y69806D02*
Y70131D01*
Y72906D02*
Y73206D01*
Y73781D02*
Y74081D01*
Y75806D02*
Y76431D01*
Y77606D02*
Y78181D01*
Y79506D02*
Y80031D01*
X109762Y30481D02*
Y31306D01*
Y67106D02*
Y67381D01*
Y69806D02*
Y70106D01*
Y72906D02*
Y73231D01*
Y73781D02*
Y74081D01*
Y75681D02*
Y76406D01*
Y77631D02*
Y78231D01*
Y79456D02*
Y79981D01*
X109787Y30506D02*
Y31281D01*
Y67106D02*
Y67406D01*
Y69781D02*
Y70106D01*
Y72906D02*
Y73231D01*
Y73781D02*
Y76356D01*
Y77656D02*
Y78306D01*
Y79356D02*
Y79956D01*
X109812Y30531D02*
Y31256D01*
Y67106D02*
Y69506D01*
Y69781D02*
Y70081D01*
Y72931D02*
Y73231D01*
Y73781D02*
Y76331D01*
Y77706D02*
Y78406D01*
Y79281D02*
Y79931D01*
X109837Y30581D02*
Y31206D01*
Y67106D02*
Y69506D01*
Y69756D02*
Y70081D01*
Y72931D02*
Y73256D01*
Y73781D02*
Y76306D01*
Y77731D02*
Y78531D01*
Y79131D02*
Y79906D01*
X109862Y30606D02*
Y31181D01*
Y67106D02*
Y69506D01*
Y69756D02*
Y70056D01*
Y72956D02*
Y73256D01*
Y73781D02*
Y76256D01*
Y77781D02*
Y79856D01*
X109887Y30656D02*
Y31131D01*
Y67106D02*
Y69506D01*
Y69756D02*
Y70056D01*
Y72956D02*
Y73281D01*
Y73781D02*
Y76206D01*
Y77831D02*
Y79831D01*
X109912Y30731D02*
Y31056D01*
Y67106D02*
Y69506D01*
Y69731D02*
Y70056D01*
Y72981D02*
Y73281D01*
Y73781D02*
Y76156D01*
Y77881D02*
Y79781D01*
X109937Y67106D02*
Y69506D01*
Y69731D02*
Y70031D01*
Y72981D02*
Y73306D01*
Y73781D02*
Y76106D01*
Y77931D02*
Y79731D01*
X109962Y67106D02*
Y69506D01*
Y69706D02*
Y70031D01*
Y73006D02*
Y73306D01*
Y73781D02*
Y76031D01*
Y77981D02*
Y79681D01*
X109987Y67106D02*
Y69506D01*
Y69706D02*
Y70006D01*
Y73006D02*
Y73331D01*
Y73781D02*
Y75956D01*
Y78031D02*
Y79631D01*
X110012Y67106D02*
Y69506D01*
Y69681D02*
Y70006D01*
Y73006D02*
Y73331D01*
Y73781D02*
Y75856D01*
Y78106D02*
Y79556D01*
X110037Y67106D02*
Y69506D01*
Y69681D02*
Y69981D01*
Y73031D02*
Y73331D01*
Y73781D02*
Y75731D01*
Y78181D02*
Y79481D01*
X110062Y67106D02*
Y69506D01*
Y69681D02*
Y69981D01*
Y73056D02*
Y73331D01*
Y73806D02*
Y75481D01*
Y78281D02*
Y79381D01*
X110087Y78381D02*
Y79256D01*
X110112Y78556D02*
Y79081D01*
M02*
