G04*
G04 #@! TF.GenerationSoftware,Altium Limited,Altium Designer,23.10.1 (27)*
G04*
G04 Layer_Color=16711935*
%FSLAX25Y25*%
%MOIN*%
G70*
G04*
G04 #@! TF.SameCoordinates,1CDB52BC-5702-4D16-9384-FD81A510AF7B*
G04*
G04*
G04 #@! TF.FilePolarity,Positive*
G04*
G01*
G75*
%ADD32C,0.01000*%
D32*
X114173Y185039D02*
G03*
X102362Y196850I-11811J0D01*
G01*
X11811Y196850D02*
G03*
X0Y185039I0J-11811D01*
G01*
X78740Y196850D02*
X102362D01*
X11811D02*
X35433D01*
X0Y0D02*
Y185039D01*
Y0D02*
X114173D01*
Y185039D01*
X35433Y181102D02*
Y196850D01*
X15748Y161417D02*
X35433Y181102D01*
X15748Y161417D02*
X98425D01*
X78740Y181102D02*
X98425Y161417D01*
X88016Y100215D02*
X91516Y96715D01*
Y104115D01*
X88016Y100615D02*
X91516Y104115D01*
X88016Y100515D02*
X110016D01*
X112384Y100521D02*
X128284Y116421D01*
Y123121D01*
X109684Y100521D02*
X112384D01*
X78740Y196850D02*
X78740D01*
Y181102D02*
Y196850D01*
X32687Y7717D02*
Y106142D01*
X83868D01*
Y7717D02*
Y106142D01*
X32687Y7717D02*
X83868D01*
X129983Y134920D02*
X128983Y135919D01*
X126984D01*
X125984Y134920D01*
Y130921D01*
X126984Y129921D01*
X128983D01*
X129983Y130921D01*
X131982Y133920D02*
Y130921D01*
X132982Y129921D01*
X135981D01*
Y133920D01*
X138980Y134920D02*
Y133920D01*
X137980D01*
X139980D01*
X138980D01*
Y130921D01*
X139980Y129921D01*
X149977D02*
X151976D01*
X152975Y130921D01*
Y132920D01*
X151976Y133920D01*
X149977D01*
X148977Y132920D01*
Y130921D01*
X149977Y129921D01*
X154975Y133920D02*
Y130921D01*
X155974Y129921D01*
X158974D01*
Y133920D01*
X161973Y134920D02*
Y133920D01*
X160973D01*
X162972D01*
X161973D01*
Y130921D01*
X162972Y129921D01*
M02*
