G04*
G04 #@! TF.GenerationSoftware,Altium Limited,Altium Designer,23.10.1 (27)*
G04*
G04 Layer_Physical_Order=2*
G04 Layer_Color=16711680*
%FSLAX25Y25*%
%MOIN*%
G70*
G04*
G04 #@! TF.SameCoordinates,1CDB52BC-5702-4D16-9384-FD81A510AF7B*
G04*
G04*
G04 #@! TF.FilePolarity,Positive*
G04*
G01*
G75*
%ADD22C,0.03500*%
%ADD23C,0.02000*%
%ADD25C,0.06000*%
G04:AMPARAMS|DCode=26|XSize=118.11mil|YSize=393.7mil|CornerRadius=29.53mil|HoleSize=0mil|Usage=FLASHONLY|Rotation=0.000|XOffset=0mil|YOffset=0mil|HoleType=Round|Shape=RoundedRectangle|*
%AMROUNDEDRECTD26*
21,1,0.11811,0.33465,0,0,0.0*
21,1,0.05906,0.39370,0,0,0.0*
1,1,0.05906,0.02953,-0.16732*
1,1,0.05906,-0.02953,-0.16732*
1,1,0.05906,-0.02953,0.16732*
1,1,0.05906,0.02953,0.16732*
%
%ADD26ROUNDEDRECTD26*%
G04:AMPARAMS|DCode=27|XSize=98.43mil|YSize=157.48mil|CornerRadius=0mil|HoleSize=0mil|Usage=FLASHONLY|Rotation=315.000|XOffset=0mil|YOffset=0mil|HoleType=Round|Shape=Round|*
%AMOVALD27*
21,1,0.05906,0.09843,0.00000,0.00000,45.0*
1,1,0.09843,-0.02088,-0.02088*
1,1,0.09843,0.02088,0.02088*
%
%ADD27OVALD27*%

G04:AMPARAMS|DCode=28|XSize=98.43mil|YSize=157.48mil|CornerRadius=0mil|HoleSize=0mil|Usage=FLASHONLY|Rotation=225.000|XOffset=0mil|YOffset=0mil|HoleType=Round|Shape=Round|*
%AMOVALD28*
21,1,0.05906,0.09843,0.00000,0.00000,315.0*
1,1,0.09843,-0.02088,0.02088*
1,1,0.09843,0.02088,-0.02088*
%
%ADD28OVALD28*%

%ADD29O,0.15748X0.09843*%
%ADD30C,0.05000*%
%ADD31C,0.13780*%
G36*
X25673Y62802D02*
X26283Y62216D01*
X27357Y61340D01*
X27822Y61048D01*
X28237Y60855D01*
X28605Y60759D01*
X28923Y60761D01*
X29194Y60861D01*
X29415Y61059D01*
X29588Y61355D01*
X27020Y55408D01*
X26930Y55706D01*
X26801Y56022D01*
X26631Y56356D01*
X26421Y56709D01*
X26171Y57079D01*
X25551Y57875D01*
X25181Y58301D01*
X24319Y59206D01*
X25673Y62802D01*
D02*
G37*
G36*
X93401Y66926D02*
X89240Y62568D01*
X87788Y68737D01*
X87910Y68388D01*
X88086Y68144D01*
X88317Y68004D01*
X88602Y67967D01*
X88942Y68035D01*
X89336Y68207D01*
X89785Y68482D01*
X90288Y68862D01*
X90846Y69346D01*
X91459Y69933D01*
X93401Y66926D01*
D02*
G37*
G36*
X91025Y110550D02*
X90408Y109908D01*
X89441Y108745D01*
X89092Y108223D01*
X88832Y107741D01*
X88662Y107300D01*
X88581Y106899D01*
X88589Y106539D01*
X88687Y106218D01*
X88875Y105938D01*
X84218Y111156D01*
X84471Y110942D01*
X84767Y110819D01*
X85106Y110788D01*
X85487Y110849D01*
X85910Y111001D01*
X86376Y111245D01*
X86884Y111581D01*
X87435Y112009D01*
X88028Y112528D01*
X88664Y113139D01*
X91025Y110550D01*
D02*
G37*
D22*
X92000Y140000D02*
X103000Y129000D01*
X48000Y140000D02*
X92000D01*
X43622Y144378D02*
X48000Y140000D01*
X71181Y126189D02*
Y128819D01*
X67000Y133000D02*
X71181Y128819D01*
X40000Y133000D02*
X67000D01*
X35748Y128748D02*
X40000Y133000D01*
X103000Y79000D02*
Y129000D01*
X88874Y64874D02*
X103000Y79000D01*
X29000Y57000D02*
X33378D01*
X22000Y64000D02*
Y109000D01*
X35748Y122748D01*
X94803Y116803D02*
Y126189D01*
X43622Y144378D02*
Y149811D01*
X35748Y122748D02*
Y126189D01*
Y128748D01*
X82244Y104244D02*
X94803Y116803D01*
X22000Y64000D02*
X29000Y57000D01*
X80622Y64874D02*
X88874D01*
D23*
X80622Y104244D02*
X82244D01*
D25*
X27874Y149811D02*
D03*
X35748D02*
D03*
X43622D02*
D03*
X71181D02*
D03*
X79055D02*
D03*
X86929D02*
D03*
X94803D02*
D03*
Y126189D02*
D03*
X86929D02*
D03*
X79055D02*
D03*
X71181D02*
D03*
X43622D02*
D03*
X35748D02*
D03*
X27874D02*
D03*
X20000D02*
D03*
Y149811D02*
D03*
D26*
X58278Y103930D02*
D03*
D27*
X81900Y104174D02*
D03*
X34656Y9686D02*
D03*
D28*
Y104174D02*
D03*
X81900Y9686D02*
D03*
D29*
X34656Y56930D02*
D03*
X81900Y64804D02*
D03*
Y49056D02*
D03*
D30*
X51000Y147000D02*
D03*
X63000D02*
D03*
Y156000D02*
D03*
X51000D02*
D03*
D31*
X88700Y187100D02*
D03*
X25600Y187000D02*
D03*
M02*
