G04*
G04 #@! TF.GenerationSoftware,Altium Limited,Altium Designer,23.10.1 (27)*
G04*
G04 Layer_Color=2752767*
%FSLAX25Y25*%
%MOIN*%
G70*
G04*
G04 #@! TF.SameCoordinates,1CDB52BC-5702-4D16-9384-FD81A510AF7B*
G04*
G04*
G04 #@! TF.FilePolarity,Positive*
G04*
G01*
G75*
%ADD33C,0.00267*%
%ADD34C,0.00200*%
D33*
X28674Y149811D02*
G03*
X28674Y149811I-800J0D01*
G01*
X36548D02*
G03*
X36548Y149811I-800J0D01*
G01*
X44422D02*
G03*
X44422Y149811I-800J0D01*
G01*
X71981D02*
G03*
X71981Y149811I-800J0D01*
G01*
X79855D02*
G03*
X79855Y149811I-800J0D01*
G01*
X87729D02*
G03*
X87729Y149811I-800J0D01*
G01*
X95603D02*
G03*
X95603Y149811I-800J0D01*
G01*
Y126189D02*
G03*
X95603Y126189I-800J0D01*
G01*
X87729D02*
G03*
X87729Y126189I-800J0D01*
G01*
X79855D02*
G03*
X79855Y126189I-800J0D01*
G01*
X71981D02*
G03*
X71981Y126189I-800J0D01*
G01*
X44422D02*
G03*
X44422Y126189I-800J0D01*
G01*
X36548D02*
G03*
X36548Y126189I-800J0D01*
G01*
X28674D02*
G03*
X28674Y126189I-800J0D01*
G01*
X20800D02*
G03*
X20800Y126189I-800J0D01*
G01*
Y149811D02*
G03*
X20800Y149811I-800J0D01*
G01*
D34*
X57478Y103930D02*
X58278Y104730D01*
X59078Y103930D01*
X58278Y103130D01*
X57478Y103930D01*
X81100Y103374D02*
X81500D01*
X81900Y103774D01*
X82300Y103374D01*
X82700D01*
Y103774D01*
X82300Y104174D01*
X82700Y104574D01*
Y104974D01*
X82300D01*
X81900Y104574D01*
X81500Y104974D01*
X81100D01*
Y104574D01*
X81500Y104174D01*
X81100Y103774D01*
Y103374D01*
X33856D02*
X34256D01*
X34656Y103774D01*
X35056Y103374D01*
X35456D01*
Y103774D01*
X35056Y104174D01*
X35456Y104574D01*
Y104974D01*
X35056D01*
X34656Y104574D01*
X34256Y104974D01*
X33856D01*
Y104574D01*
X34256Y104174D01*
X33856Y103774D01*
Y103374D01*
Y56130D02*
X34256D01*
X34656Y56530D01*
X35056Y56130D01*
X35456D01*
Y56530D01*
X35056Y56930D01*
X35456Y57330D01*
Y57730D01*
X35056D01*
X34656Y57330D01*
X34256Y57730D01*
X33856D01*
Y57330D01*
X34256Y56930D01*
X33856Y56530D01*
Y56130D01*
X81100Y64004D02*
X81500D01*
X81900Y64404D01*
X82300Y64004D01*
X82700D01*
Y64404D01*
X82300Y64804D01*
X82700Y65204D01*
Y65604D01*
X82300D01*
X81900Y65204D01*
X81500Y65604D01*
X81100D01*
Y65204D01*
X81500Y64804D01*
X81100Y64404D01*
Y64004D01*
Y48256D02*
X81500D01*
X81900Y48656D01*
X82300Y48256D01*
X82700D01*
Y48656D01*
X82300Y49056D01*
X82700Y49456D01*
Y49856D01*
X82300D01*
X81900Y49456D01*
X81500Y49856D01*
X81100D01*
Y49456D01*
X81500Y49056D01*
X81100Y48656D01*
Y48256D01*
X33856Y8886D02*
X34256D01*
X34656Y9286D01*
X35056Y8886D01*
X35456D01*
Y9286D01*
X35056Y9686D01*
X35456Y10086D01*
Y10486D01*
X35056D01*
X34656Y10086D01*
X34256Y10486D01*
X33856D01*
Y10086D01*
X34256Y9686D01*
X33856Y9286D01*
Y8886D01*
X81100D02*
X81500D01*
X81900Y9286D01*
X82300Y8886D01*
X82700D01*
Y9286D01*
X82300Y9686D01*
X82700Y10086D01*
Y10486D01*
X82300D01*
X81900Y10086D01*
X81500Y10486D01*
X81100D01*
Y10086D01*
X81500Y9686D01*
X81100Y9286D01*
Y8886D01*
X51000Y146200D02*
X50200Y147800D01*
X51800D01*
X51000Y146200D01*
X63000D02*
X62200Y147800D01*
X63800D01*
X63000Y146200D01*
Y155200D02*
X62200Y156800D01*
X63800D01*
X63000Y155200D01*
X51000D02*
X50200Y156800D01*
X51800D01*
X51000Y155200D01*
X87900Y186300D02*
Y187900D01*
X89500D01*
Y186300D01*
X87900D01*
X24800Y186200D02*
Y187800D01*
X26400D01*
Y186200D01*
X24800D01*
M02*
