M48
;Layer_Color=9474304
;FILE_FORMAT=2:5
INCH,LZ
;TYPE=PLATED
T01F00S00C0.03000
T04F00S00C0.05000
T05F00S00C0.10630
%
T01
X002Y0126189
X0027874
X0035748
Y0149811
X0027874
X002
X0043622
Y0126189
X0071181
X0079055
X0086929
X0094803
Y0149811
X0086929
X0079055
X0071181
T04
X0051Y0147
Y0156
X0063
Y0147
T05
X00256Y0187
X00887Y01871
M30
