G04*
G04 #@! TF.GenerationSoftware,Altium Limited,Altium Designer,23.10.1 (27)*
G04*
G04 Layer_Color=8388736*
%FSLAX25Y25*%
%MOIN*%
G70*
G04*
G04 #@! TF.SameCoordinates,1CDB52BC-5702-4D16-9384-FD81A510AF7B*
G04*
G04*
G04 #@! TF.FilePolarity,Negative*
G04*
G01*
G75*
%ADD13O,0.04737X0.14580*%
%ADD14R,0.04737X0.14580*%
%ADD15C,0.06800*%
G04:AMPARAMS|DCode=16|XSize=126.11mil|YSize=401.7mil|CornerRadius=33.53mil|HoleSize=0mil|Usage=FLASHONLY|Rotation=0.000|XOffset=0mil|YOffset=0mil|HoleType=Round|Shape=RoundedRectangle|*
%AMROUNDEDRECTD16*
21,1,0.12611,0.33465,0,0,0.0*
21,1,0.05906,0.40170,0,0,0.0*
1,1,0.06706,0.02953,-0.16732*
1,1,0.06706,-0.02953,-0.16732*
1,1,0.06706,-0.02953,0.16732*
1,1,0.06706,0.02953,0.16732*
%
%ADD16ROUNDEDRECTD16*%
G04:AMPARAMS|DCode=17|XSize=106.42mil|YSize=165.48mil|CornerRadius=0mil|HoleSize=0mil|Usage=FLASHONLY|Rotation=315.000|XOffset=0mil|YOffset=0mil|HoleType=Round|Shape=Round|*
%AMOVALD17*
21,1,0.05906,0.10642,0.00000,0.00000,45.0*
1,1,0.10642,-0.02088,-0.02088*
1,1,0.10642,0.02088,0.02088*
%
%ADD17OVALD17*%

G04:AMPARAMS|DCode=18|XSize=106.42mil|YSize=165.48mil|CornerRadius=0mil|HoleSize=0mil|Usage=FLASHONLY|Rotation=225.000|XOffset=0mil|YOffset=0mil|HoleType=Round|Shape=Round|*
%AMOVALD18*
21,1,0.05906,0.10642,0.00000,0.00000,315.0*
1,1,0.10642,-0.02088,0.02088*
1,1,0.10642,0.02088,-0.02088*
%
%ADD18OVALD18*%

%ADD19O,0.16548X0.10642*%
%ADD20C,0.05800*%
%ADD21C,0.14580*%
D13*
X94410Y138000D02*
D03*
X86929D02*
D03*
X79055D02*
D03*
X71181D02*
D03*
X43622D02*
D03*
X35748D02*
D03*
X27874D02*
D03*
D14*
X20000D02*
D03*
D15*
X27874Y149811D02*
D03*
X35748D02*
D03*
X43622D02*
D03*
X71181D02*
D03*
X79055D02*
D03*
X86929D02*
D03*
X94803D02*
D03*
Y126189D02*
D03*
X86929D02*
D03*
X79055D02*
D03*
X71181D02*
D03*
X43622D02*
D03*
X35748D02*
D03*
X27874D02*
D03*
X20000D02*
D03*
Y149811D02*
D03*
D16*
X58278Y103930D02*
D03*
D17*
X81900Y104174D02*
D03*
X34656Y9686D02*
D03*
D18*
Y104174D02*
D03*
X81900Y9686D02*
D03*
D19*
X34656Y56930D02*
D03*
X81900Y64804D02*
D03*
Y49056D02*
D03*
D20*
X51000Y147000D02*
D03*
X63000D02*
D03*
Y156000D02*
D03*
X51000D02*
D03*
D21*
X88700Y187100D02*
D03*
X25600Y187000D02*
D03*
M02*
